%TF.GenerationSoftware,KiCad,Pcbnew,6.0.10+dfsg-1~bpo11+1*%
%TF.CreationDate,2023-02-10T00:08:44+00:00*%
%TF.ProjectId,AMUX01,414d5558-3031-42e6-9b69-6361645f7063,rev?*%
%TF.SameCoordinates,Original*%
%TF.FileFunction,Copper,L2,Bot*%
%TF.FilePolarity,Positive*%
%FSLAX46Y46*%
G04 Gerber Fmt 4.6, Leading zero omitted, Abs format (unit mm)*
G04 Created by KiCad (PCBNEW 6.0.10+dfsg-1~bpo11+1) date 2023-02-10 00:08:44*
%MOMM*%
%LPD*%
G01*
G04 APERTURE LIST*
G04 Aperture macros list*
%AMRoundRect*
0 Rectangle with rounded corners*
0 $1 Rounding radius*
0 $2 $3 $4 $5 $6 $7 $8 $9 X,Y pos of 4 corners*
0 Add a 4 corners polygon primitive as box body*
4,1,4,$2,$3,$4,$5,$6,$7,$8,$9,$2,$3,0*
0 Add four circle primitives for the rounded corners*
1,1,$1+$1,$2,$3*
1,1,$1+$1,$4,$5*
1,1,$1+$1,$6,$7*
1,1,$1+$1,$8,$9*
0 Add four rect primitives between the rounded corners*
20,1,$1+$1,$2,$3,$4,$5,0*
20,1,$1+$1,$4,$5,$6,$7,0*
20,1,$1+$1,$6,$7,$8,$9,0*
20,1,$1+$1,$8,$9,$2,$3,0*%
G04 Aperture macros list end*
%TA.AperFunction,ComponentPad*%
%ADD10C,6.000000*%
%TD*%
%TA.AperFunction,ComponentPad*%
%ADD11R,1.524000X1.524000*%
%TD*%
%TA.AperFunction,SMDPad,CuDef*%
%ADD12RoundRect,0.250000X-0.475000X0.250000X-0.475000X-0.250000X0.475000X-0.250000X0.475000X0.250000X0*%
%TD*%
%TA.AperFunction,SMDPad,CuDef*%
%ADD13R,1.800000X2.500000*%
%TD*%
%TA.AperFunction,SMDPad,CuDef*%
%ADD14R,1.400000X0.300000*%
%TD*%
%TA.AperFunction,SMDPad,CuDef*%
%ADD15RoundRect,0.250000X0.262500X0.450000X-0.262500X0.450000X-0.262500X-0.450000X0.262500X-0.450000X0*%
%TD*%
%TA.AperFunction,SMDPad,CuDef*%
%ADD16RoundRect,0.250000X-0.450000X0.262500X-0.450000X-0.262500X0.450000X-0.262500X0.450000X0.262500X0*%
%TD*%
G04 APERTURE END LIST*
D10*
%TO.P,M2,1*%
%TO.N,GND*%
X40640000Y40640000D03*
%TD*%
%TO.P,M4,1*%
%TO.N,GND*%
X40640000Y10160000D03*
%TD*%
D11*
%TO.P,J3,1*%
%TO.N,GND*%
X8890000Y24892000D03*
%TO.P,J3,2*%
%TO.N,/CH2*%
X11430000Y24892000D03*
%TO.P,J3,3*%
%TO.N,GND*%
X13970000Y24892000D03*
%TD*%
%TO.P,J6,1*%
%TO.N,GND*%
X24130000Y9906000D03*
%TO.P,J6,2*%
X24130000Y12446000D03*
%TO.P,J6,3*%
%TO.N,Net-(J6-Pad3)*%
X26670000Y9906000D03*
%TO.P,J6,4*%
X26670000Y12446000D03*
%TO.P,J6,5*%
%TO.N,GND*%
X29210000Y9906000D03*
%TO.P,J6,6*%
X29210000Y12446000D03*
%TD*%
%TO.P,J5,1*%
%TO.N,GND*%
X8890000Y22352000D03*
%TO.P,J5,2*%
%TO.N,/CH4*%
X11430000Y22352000D03*
%TO.P,J5,3*%
%TO.N,GND*%
X13970000Y22352000D03*
%TD*%
%TO.P,J1,1*%
%TO.N,GND*%
X27940000Y41148000D03*
%TO.P,J1,2*%
X27940000Y38608000D03*
%TO.P,J1,3*%
%TO.N,+3V3*%
X25400000Y41148000D03*
%TO.P,J1,4*%
X25400000Y38608000D03*
%TO.P,J1,5*%
%TO.N,GND*%
X22860000Y41148000D03*
%TO.P,J1,6*%
X22860000Y38608000D03*
%TD*%
D10*
%TO.P,M3,1*%
%TO.N,GND*%
X10160000Y10160000D03*
%TD*%
D11*
%TO.P,J2,1*%
%TO.N,GND*%
X8890000Y17272000D03*
%TO.P,J2,2*%
%TO.N,/CH1*%
X11430000Y17272000D03*
%TO.P,J2,3*%
%TO.N,GND*%
X13970000Y17272000D03*
%TD*%
%TO.P,J4,1*%
%TO.N,GND*%
X8890000Y19812000D03*
%TO.P,J4,2*%
%TO.N,/CH3*%
X11430000Y19812000D03*
%TO.P,J4,3*%
%TO.N,GND*%
X13970000Y19812000D03*
%TD*%
D10*
%TO.P,M1,1*%
%TO.N,GND*%
X10160000Y40640000D03*
%TD*%
D11*
%TO.P,J9,1*%
%TO.N,Net-(J9-Pad1)*%
X25908000Y27940000D03*
%TO.P,J9,2*%
%TO.N,GND*%
X25908000Y30480000D03*
%TD*%
%TO.P,J7,1*%
%TO.N,Net-(J7-Pad1)*%
X20828001Y27940000D03*
%TO.P,J7,2*%
%TO.N,GND*%
X20828001Y30480000D03*
%TD*%
%TO.P,J8,1*%
%TO.N,Net-(J8-Pad1)*%
X23368000Y27940000D03*
%TO.P,J8,2*%
%TO.N,GND*%
X23368000Y30480000D03*
%TD*%
D12*
%TO.P,C1,1*%
%TO.N,+3V3*%
X31750000Y19492000D03*
%TO.P,C1,2*%
%TO.N,GND*%
X31750000Y17592000D03*
%TD*%
D13*
%TO.P,D1,1,K*%
%TO.N,+3V3*%
X37846000Y23336000D03*
%TO.P,D1,2,A*%
%TO.N,GND*%
X37846000Y19336000D03*
%TD*%
D14*
%TO.P,U1,1,A0*%
%TO.N,Net-(J8-Pad1)*%
X25060000Y21320000D03*
%TO.P,U1,2,NO1*%
%TO.N,/CH1*%
X25060000Y20820000D03*
%TO.P,U1,3,GND*%
%TO.N,GND*%
X25060000Y20320000D03*
%TO.P,U1,4,NO3*%
%TO.N,/CH3*%
X25060000Y19820000D03*
%TO.P,U1,5,EN*%
%TO.N,Net-(J9-Pad1)*%
X25060000Y19320000D03*
%TO.P,U1,6,V+*%
%TO.N,+3V3*%
X20660000Y19320000D03*
%TO.P,U1,7,NO4*%
%TO.N,/CH4*%
X20660000Y19820000D03*
%TO.P,U1,8,COM*%
%TO.N,Net-(J6-Pad3)*%
X20660000Y20320000D03*
%TO.P,U1,9,NO2*%
%TO.N,/CH2*%
X20660000Y20820000D03*
%TO.P,U1,10,A1*%
%TO.N,Net-(J7-Pad1)*%
X20660000Y21320000D03*
%TD*%
D12*
%TO.P,C2,1*%
%TO.N,+3V3*%
X31242000Y29398000D03*
%TO.P,C2,2*%
%TO.N,GND*%
X31242000Y27498000D03*
%TD*%
D15*
%TO.P,R3,1*%
%TO.N,+3V3*%
X21082000Y13462000D03*
%TO.P,R3,2*%
%TO.N,Net-(J7-Pad1)*%
X19257000Y13462000D03*
%TD*%
D16*
%TO.P,R1,1*%
%TO.N,+3V3*%
X29308000Y34948500D03*
%TO.P,R1,2*%
%TO.N,Net-(J9-Pad1)*%
X29308000Y33123500D03*
%TD*%
%TO.P,R2,1*%
%TO.N,+3V3*%
X32258000Y34948500D03*
%TO.P,R2,2*%
%TO.N,Net-(J8-Pad1)*%
X32258000Y33123500D03*
%TD*%
M02*
