%TF.GenerationSoftware,KiCad,Pcbnew,6.0.10+dfsg-1~bpo11+1*%
%TF.CreationDate,2023-02-15T12:42:25+00:00*%
%TF.ProjectId,AMUX01,414d5558-3031-42e6-9b69-6361645f7063,rev?*%
%TF.SameCoordinates,Original*%
%TF.FileFunction,Legend,Top*%
%TF.FilePolarity,Positive*%
%FSLAX46Y46*%
G04 Gerber Fmt 4.6, Leading zero omitted, Abs format (unit mm)*
G04 Created by KiCad (PCBNEW 6.0.10+dfsg-1~bpo11+1) date 2023-02-15 12:42:25*
%MOMM*%
%LPD*%
G01*
G04 APERTURE LIST*
%ADD10C,0.150000*%
G04 APERTURE END LIST*
D10*
%TO.C,J3*%
X7620000Y26162000D02*
X15240000Y26162000D01*
X15240000Y23622000D02*
X7620000Y23622000D01*
X15240000Y26162000D02*
X15240000Y23622000D01*
X7620000Y23622000D02*
X7620000Y26162000D01*
%TO.C,J6*%
X30480000Y13716000D02*
X30480000Y8636000D01*
X22860000Y8636000D02*
X22860000Y13716000D01*
X30480000Y8636000D02*
X22860000Y8636000D01*
X22860000Y13716000D02*
X30480000Y13716000D01*
%TO.C,J5*%
X7620000Y21082000D02*
X7620000Y23622000D01*
X15240000Y23622000D02*
X15240000Y21082000D01*
X15240000Y21082000D02*
X7620000Y21082000D01*
X7620000Y23622000D02*
X15240000Y23622000D01*
%TO.C,J1*%
X21590000Y42418000D02*
X29210000Y42418000D01*
X29210000Y37338000D02*
X21590000Y37338000D01*
X21590000Y37338000D02*
X21590000Y42418000D01*
X29210000Y42418000D02*
X29210000Y37338000D01*
%TO.C,J2*%
X15240000Y16002000D02*
X7620000Y16002000D01*
X7620000Y16002000D02*
X7620000Y18542000D01*
X15240000Y18542000D02*
X15240000Y16002000D01*
X7620000Y18542000D02*
X15240000Y18542000D01*
%TO.C,J4*%
X7620000Y21082000D02*
X15240000Y21082000D01*
X15240000Y21082000D02*
X15240000Y18542000D01*
X7620000Y18542000D02*
X7620000Y21082000D01*
X15240000Y18542000D02*
X7620000Y18542000D01*
%TO.C,J9*%
X24892000Y31750000D02*
X27178000Y31750000D01*
X27178000Y26670000D02*
X24892000Y26670000D01*
X27178000Y31750000D02*
X27178000Y26670000D01*
%TO.C,J7*%
X22098001Y31750000D02*
X22098001Y26670000D01*
X19812001Y31750000D02*
X22098001Y31750000D01*
X22098001Y26670000D02*
X19812001Y26670000D01*
%TO.C,J8*%
X24638000Y31750000D02*
X24638000Y26670000D01*
X22352000Y31750000D02*
X24638000Y31750000D01*
X24638000Y26670000D02*
X22352000Y26670000D01*
%TD*%
M02*
