M48
; DRILL file {KiCad 6.0.10+dfsg-1~bpo11+1} date Wed Feb 15 20:23:38 2023
; FORMAT={-:-/ absolute / metric / decimal}
; #@! TF.CreationDate,2023-02-15T20:23:38+00:00
; #@! TF.GenerationSoftware,Kicad,Pcbnew,6.0.10+dfsg-1~bpo11+1
; #@! TF.FileFunction,Plated,1,2,PTH
FMAT,2
METRIC
; #@! TA.AperFunction,Plated,PTH,ComponentDrill
T1C0.889
; #@! TA.AperFunction,Plated,PTH,ComponentDrill
T2C3.000
%
G90
G05
T1
X8.89Y24.892
X8.89Y22.352
X8.89Y19.812
X8.89Y17.272
X11.43Y24.892
X11.43Y22.352
X11.43Y19.812
X11.43Y17.272
X13.97Y24.892
X13.97Y22.352
X13.97Y19.812
X13.97Y17.272
X20.828Y30.48
X20.828Y27.94
X22.86Y41.148
X22.86Y38.608
X23.368Y30.48
X23.368Y27.94
X24.13Y12.446
X24.13Y9.906
X25.4Y41.148
X25.4Y38.608
X25.908Y30.48
X25.908Y27.94
X26.67Y12.446
X26.67Y9.906
X27.94Y41.148
X27.94Y38.608
X29.21Y12.446
X29.21Y9.906
T2
X10.16Y40.64
X10.16Y10.16
X40.64Y40.64
X40.64Y10.16
T0
M30
