  0
SECTION
  2
HEADER
  9
$ANGBASE
  50
0.0
  9
$ANGDIR
  70
1
  9
$MEASUREMENT
  70
0
  0
ENDSEC
  0
SECTION
  2
TABLES
  0
TABLE
  2
LTYPE
  70
4
  0
LTYPE
  5
40F
  2
CONTINUOUS
  70
0
  3
Solid line
  72
65
  73
0
  40
0.0
  0
LTYPE
  5
410
  2
DASHDOT
 70
0
  3
Dash Dot ____ _ ____ _
 72
65
 73
4
 40
2.0
 49
1.25
 49
-0.25
 49
0.25
 49
-0.25
  0
LTYPE
  5
411
  2
DASHED
 70
0
  3
Dashed __ __ __ __ __
 72
65
 73
2
 40
0.75
 49
0.5
 49
-0.25
  0
LTYPE
  5
43B
  2
DOTTED
 70
0
  3
Dotted .  .  .  .
 72
65
 73
2
 40
0.2
 49
0.0
 49
-0.2
  0
ENDTAB
  0
TABLE
  2
STYLE
  70
4
  0
STYLE
  2
KICAD
  70
0
  40
0
  41
1
  42
1
  50
0
  71
0
  3
isocp.shx
  0
STYLE
  2
KICADB
  70
0
  40
0
  41
1
  42
1
  50
0
  71
0
  3
isocp.shx
  0
STYLE
  2
KICADI
  70
0
  40
0
  41
1
  42
1
  50
15
  71
0
  3
isocp.shx
  0
STYLE
  2
KICADBI
  70
0
  40
0
  41
1
  42
1
  50
15
  71
0
  3
isocp.shx
  0
ENDTAB
  0
TABLE
  2
LAYER
  70
1
  0
LAYER
  2
BLACK
  70
0
  62
7
  6
CONTINUOUS
  0
ENDTAB
  0
ENDSEC
  0
SECTION
  2
ENTITIES
0
LINE
8
BLACK
6
CONTINUOUS
10
0.42051
20
0.516316
11
0.433874
21
0.513148
0
LINE
8
BLACK
6
CONTINUOUS
10
0.433874
20
0.513148
11
0.446781
21
0.508451
0
LINE
8
BLACK
6
CONTINUOUS
10
0.446781
20
0.508451
11
0.459055
21
0.502286
0
LINE
8
BLACK
6
CONTINUOUS
10
0.459055
20
0.502286
11
0.470531
21
0.494739
0
LINE
8
BLACK
6
CONTINUOUS
10
0.470531
20
0.494739
11
0.481052
21
0.48591
0
LINE
8
BLACK
6
CONTINUOUS
10
0.481052
20
0.48591
11
0.490478
21
0.47592
0
LINE
8
BLACK
6
CONTINUOUS
10
0.490478
20
0.47592
11
0.49868
21
0.464903
0
LINE
8
BLACK
6
CONTINUOUS
10
0.49868
20
0.464903
11
0.505547
21
0.453008
0
LINE
8
BLACK
6
CONTINUOUS
10
0.505547
20
0.453008
11
0.510987
21
0.440396
0
LINE
8
BLACK
6
CONTINUOUS
10
0.510987
20
0.440396
11
0.514927
21
0.427238
0
LINE
8
BLACK
6
CONTINUOUS
10
0.514927
20
0.427238
11
0.517312
21
0.413712
0
LINE
8
BLACK
6
CONTINUOUS
10
0.517312
20
0.413712
11
0.51811
21
0.4
0
LINE
8
BLACK
6
CONTINUOUS
10
0.51811
20
0.4
11
0.517312
21
0.386288
0
LINE
8
BLACK
6
CONTINUOUS
10
0.517312
20
0.386288
11
0.514927
21
0.372762
0
LINE
8
BLACK
6
CONTINUOUS
10
0.514927
20
0.372762
11
0.510987
21
0.359604
0
LINE
8
BLACK
6
CONTINUOUS
10
0.510987
20
0.359604
11
0.505547
21
0.346992
0
LINE
8
BLACK
6
CONTINUOUS
10
0.505547
20
0.346992
11
0.49868
21
0.335097
0
LINE
8
BLACK
6
CONTINUOUS
10
0.49868
20
0.335097
11
0.490478
21
0.32408
0
LINE
8
BLACK
6
CONTINUOUS
10
0.490478
20
0.32408
11
0.481052
21
0.31409
0
LINE
8
BLACK
6
CONTINUOUS
10
0.481052
20
0.31409
11
0.470531
21
0.305261
0
LINE
8
BLACK
6
CONTINUOUS
10
0.470531
20
0.305261
11
0.459055
21
0.297714
0
LINE
8
BLACK
6
CONTINUOUS
10
0.459055
20
0.297714
11
0.446781
21
0.291549
0
LINE
8
BLACK
6
CONTINUOUS
10
0.446781
20
0.291549
11
0.433874
21
0.286852
0
LINE
8
BLACK
6
CONTINUOUS
10
0.433874
20
0.286852
11
0.42051
21
0.283684
0
LINE
8
BLACK
6
CONTINUOUS
10
0.42051
20
0.283684
11
0.406867
21
0.28209
0
LINE
8
BLACK
6
CONTINUOUS
10
0.406867
20
0.28209
11
0.393133
21
0.28209
0
LINE
8
BLACK
6
CONTINUOUS
10
0.393133
20
0.28209
11
0.37949
21
0.283684
0
LINE
8
BLACK
6
CONTINUOUS
10
0.37949
20
0.283684
11
0.366126
21
0.286852
0
LINE
8
BLACK
6
CONTINUOUS
10
0.366126
20
0.286852
11
0.353219
21
0.291549
0
LINE
8
BLACK
6
CONTINUOUS
10
0.353219
20
0.291549
11
0.340945
21
0.297714
0
LINE
8
BLACK
6
CONTINUOUS
10
0.340945
20
0.297714
11
0.329469
21
0.305261
0
LINE
8
BLACK
6
CONTINUOUS
10
0.329469
20
0.305261
11
0.318948
21
0.31409
0
LINE
8
BLACK
6
CONTINUOUS
10
0.318948
20
0.31409
11
0.309522
21
0.32408
0
LINE
8
BLACK
6
CONTINUOUS
10
0.309522
20
0.32408
11
0.30132
21
0.335097
0
LINE
8
BLACK
6
CONTINUOUS
10
0.30132
20
0.335097
11
0.294453
21
0.346992
0
LINE
8
BLACK
6
CONTINUOUS
10
0.294453
20
0.346992
11
0.289013
21
0.359604
0
LINE
8
BLACK
6
CONTINUOUS
10
0.289013
20
0.359604
11
0.285073
21
0.372762
0
LINE
8
BLACK
6
CONTINUOUS
10
0.285073
20
0.372762
11
0.282688
21
0.386288
0
LINE
8
BLACK
6
CONTINUOUS
10
0.282688
20
0.386288
11
0.28189
21
0.4
0
LINE
8
BLACK
6
CONTINUOUS
10
0.28189
20
0.4
11
0.282688
21
0.413712
0
LINE
8
BLACK
6
CONTINUOUS
10
0.282688
20
0.413712
11
0.285073
21
0.427238
0
LINE
8
BLACK
6
CONTINUOUS
10
0.285073
20
0.427238
11
0.289013
21
0.440396
0
LINE
8
BLACK
6
CONTINUOUS
10
0.289013
20
0.440396
11
0.294453
21
0.453008
0
LINE
8
BLACK
6
CONTINUOUS
10
0.294453
20
0.453008
11
0.30132
21
0.464903
0
LINE
8
BLACK
6
CONTINUOUS
10
0.30132
20
0.464903
11
0.309522
21
0.47592
0
LINE
8
BLACK
6
CONTINUOUS
10
0.309522
20
0.47592
11
0.318948
21
0.48591
0
LINE
8
BLACK
6
CONTINUOUS
10
0.318948
20
0.48591
11
0.329469
21
0.494739
0
LINE
8
BLACK
6
CONTINUOUS
10
0.329469
20
0.494739
11
0.340945
21
0.502286
0
LINE
8
BLACK
6
CONTINUOUS
10
0.340945
20
0.502286
11
0.353219
21
0.508451
0
LINE
8
BLACK
6
CONTINUOUS
10
0.353219
20
0.508451
11
0.366126
21
0.513148
0
LINE
8
BLACK
6
CONTINUOUS
10
0.366126
20
0.513148
11
0.37949
21
0.516316
0
LINE
8
BLACK
6
CONTINUOUS
10
0.37949
20
0.516316
11
0.393133
21
0.51791
0
LINE
8
BLACK
6
CONTINUOUS
10
0.393133
20
0.51791
11
0.406867
21
0.51791
0
LINE
8
BLACK
6
CONTINUOUS
10
0.406867
20
0.51791
11
0.42051
21
0.516316
0
LINE
8
BLACK
6
CONTINUOUS
10
1.62051
20
0.516316
11
1.63387
21
0.513148
0
LINE
8
BLACK
6
CONTINUOUS
10
1.63387
20
0.513148
11
1.64678
21
0.508451
0
LINE
8
BLACK
6
CONTINUOUS
10
1.64678
20
0.508451
11
1.65906
21
0.502286
0
LINE
8
BLACK
6
CONTINUOUS
10
1.65906
20
0.502286
11
1.67053
21
0.494739
0
LINE
8
BLACK
6
CONTINUOUS
10
1.67053
20
0.494739
11
1.68105
21
0.48591
0
LINE
8
BLACK
6
CONTINUOUS
10
1.68105
20
0.48591
11
1.69048
21
0.47592
0
LINE
8
BLACK
6
CONTINUOUS
10
1.69048
20
0.47592
11
1.69868
21
0.464903
0
LINE
8
BLACK
6
CONTINUOUS
10
1.69868
20
0.464903
11
1.70555
21
0.453008
0
LINE
8
BLACK
6
CONTINUOUS
10
1.70555
20
0.453008
11
1.71099
21
0.440396
0
LINE
8
BLACK
6
CONTINUOUS
10
1.71099
20
0.440396
11
1.71493
21
0.427238
0
LINE
8
BLACK
6
CONTINUOUS
10
1.71493
20
0.427238
11
1.71731
21
0.413712
0
LINE
8
BLACK
6
CONTINUOUS
10
1.71731
20
0.413712
11
1.71811
21
0.4
0
LINE
8
BLACK
6
CONTINUOUS
10
1.71811
20
0.4
11
1.71731
21
0.386288
0
LINE
8
BLACK
6
CONTINUOUS
10
1.71731
20
0.386288
11
1.71493
21
0.372762
0
LINE
8
BLACK
6
CONTINUOUS
10
1.71493
20
0.372762
11
1.71099
21
0.359604
0
LINE
8
BLACK
6
CONTINUOUS
10
1.71099
20
0.359604
11
1.70555
21
0.346992
0
LINE
8
BLACK
6
CONTINUOUS
10
1.70555
20
0.346992
11
1.69868
21
0.335097
0
LINE
8
BLACK
6
CONTINUOUS
10
1.69868
20
0.335097
11
1.69048
21
0.32408
0
LINE
8
BLACK
6
CONTINUOUS
10
1.69048
20
0.32408
11
1.68105
21
0.31409
0
LINE
8
BLACK
6
CONTINUOUS
10
1.68105
20
0.31409
11
1.67053
21
0.305261
0
LINE
8
BLACK
6
CONTINUOUS
10
1.67053
20
0.305261
11
1.65906
21
0.297714
0
LINE
8
BLACK
6
CONTINUOUS
10
1.65906
20
0.297714
11
1.64678
21
0.291549
0
LINE
8
BLACK
6
CONTINUOUS
10
1.64678
20
0.291549
11
1.63387
21
0.286852
0
LINE
8
BLACK
6
CONTINUOUS
10
1.63387
20
0.286852
11
1.62051
21
0.283684
0
LINE
8
BLACK
6
CONTINUOUS
10
1.62051
20
0.283684
11
1.60687
21
0.28209
0
LINE
8
BLACK
6
CONTINUOUS
10
1.60687
20
0.28209
11
1.59313
21
0.28209
0
LINE
8
BLACK
6
CONTINUOUS
10
1.59313
20
0.28209
11
1.57949
21
0.283684
0
LINE
8
BLACK
6
CONTINUOUS
10
1.57949
20
0.283684
11
1.56613
21
0.286852
0
LINE
8
BLACK
6
CONTINUOUS
10
1.56613
20
0.286852
11
1.55322
21
0.291549
0
LINE
8
BLACK
6
CONTINUOUS
10
1.55322
20
0.291549
11
1.54094
21
0.297714
0
LINE
8
BLACK
6
CONTINUOUS
10
1.54094
20
0.297714
11
1.52947
21
0.305261
0
LINE
8
BLACK
6
CONTINUOUS
10
1.52947
20
0.305261
11
1.51895
21
0.31409
0
LINE
8
BLACK
6
CONTINUOUS
10
1.51895
20
0.31409
11
1.50952
21
0.32408
0
LINE
8
BLACK
6
CONTINUOUS
10
1.50952
20
0.32408
11
1.50132
21
0.335097
0
LINE
8
BLACK
6
CONTINUOUS
10
1.50132
20
0.335097
11
1.49445
21
0.346992
0
LINE
8
BLACK
6
CONTINUOUS
10
1.49445
20
0.346992
11
1.48901
21
0.359604
0
LINE
8
BLACK
6
CONTINUOUS
10
1.48901
20
0.359604
11
1.48507
21
0.372762
0
LINE
8
BLACK
6
CONTINUOUS
10
1.48507
20
0.372762
11
1.48269
21
0.386288
0
LINE
8
BLACK
6
CONTINUOUS
10
1.48269
20
0.386288
11
1.48189
21
0.4
0
LINE
8
BLACK
6
CONTINUOUS
10
1.48189
20
0.4
11
1.48269
21
0.413712
0
LINE
8
BLACK
6
CONTINUOUS
10
1.48269
20
0.413712
11
1.48507
21
0.427238
0
LINE
8
BLACK
6
CONTINUOUS
10
1.48507
20
0.427238
11
1.48901
21
0.440396
0
LINE
8
BLACK
6
CONTINUOUS
10
1.48901
20
0.440396
11
1.49445
21
0.453008
0
LINE
8
BLACK
6
CONTINUOUS
10
1.49445
20
0.453008
11
1.50132
21
0.464903
0
LINE
8
BLACK
6
CONTINUOUS
10
1.50132
20
0.464903
11
1.50952
21
0.47592
0
LINE
8
BLACK
6
CONTINUOUS
10
1.50952
20
0.47592
11
1.51895
21
0.48591
0
LINE
8
BLACK
6
CONTINUOUS
10
1.51895
20
0.48591
11
1.52947
21
0.494739
0
LINE
8
BLACK
6
CONTINUOUS
10
1.52947
20
0.494739
11
1.54094
21
0.502286
0
LINE
8
BLACK
6
CONTINUOUS
10
1.54094
20
0.502286
11
1.55322
21
0.508451
0
LINE
8
BLACK
6
CONTINUOUS
10
1.55322
20
0.508451
11
1.56613
21
0.513148
0
LINE
8
BLACK
6
CONTINUOUS
10
1.56613
20
0.513148
11
1.57949
21
0.516316
0
LINE
8
BLACK
6
CONTINUOUS
10
1.57949
20
0.516316
11
1.59313
21
0.51791
0
LINE
8
BLACK
6
CONTINUOUS
10
1.59313
20
0.51791
11
1.60687
21
0.51791
0
LINE
8
BLACK
6
CONTINUOUS
10
1.60687
20
0.51791
11
1.62051
21
0.516316
0
LINE
8
BLACK
6
CONTINUOUS
10
0.98
20
0.36
11
0.92
21
0.36
0
LINE
8
BLACK
6
CONTINUOUS
10
0.92
20
0.36
11
0.92
21
0.42
0
LINE
8
BLACK
6
CONTINUOUS
10
0.92
20
0.42
11
0.98
21
0.42
0
LINE
8
BLACK
6
CONTINUOUS
10
0.98
20
0.42
11
0.98
21
0.36
0
LINE
8
BLACK
6
CONTINUOUS
10
1.08
20
0.36
11
1.02
21
0.36
0
LINE
8
BLACK
6
CONTINUOUS
10
1.02
20
0.36
11
1.02
21
0.42
0
LINE
8
BLACK
6
CONTINUOUS
10
1.02
20
0.42
11
1.08
21
0.42
0
LINE
8
BLACK
6
CONTINUOUS
10
1.08
20
0.42
11
1.08
21
0.36
0
LINE
8
BLACK
6
CONTINUOUS
10
1.18
20
0.36
11
1.12
21
0.36
0
LINE
8
BLACK
6
CONTINUOUS
10
1.12
20
0.36
11
1.12
21
0.42
0
LINE
8
BLACK
6
CONTINUOUS
10
1.12
20
0.42
11
1.18
21
0.42
0
LINE
8
BLACK
6
CONTINUOUS
10
1.18
20
0.42
11
1.18
21
0.36
0
LINE
8
BLACK
6
CONTINUOUS
10
0.98
20
0.46
11
0.92
21
0.46
0
LINE
8
BLACK
6
CONTINUOUS
10
0.92
20
0.46
11
0.92
21
0.52
0
LINE
8
BLACK
6
CONTINUOUS
10
0.92
20
0.52
11
0.98
21
0.52
0
LINE
8
BLACK
6
CONTINUOUS
10
0.98
20
0.52
11
0.98
21
0.46
0
LINE
8
BLACK
6
CONTINUOUS
10
1.08
20
0.46
11
1.02
21
0.46
0
LINE
8
BLACK
6
CONTINUOUS
10
1.02
20
0.46
11
1.02
21
0.52
0
LINE
8
BLACK
6
CONTINUOUS
10
1.02
20
0.52
11
1.08
21
0.52
0
LINE
8
BLACK
6
CONTINUOUS
10
1.08
20
0.52
11
1.08
21
0.46
0
LINE
8
BLACK
6
CONTINUOUS
10
1.18
20
0.46
11
1.12
21
0.46
0
LINE
8
BLACK
6
CONTINUOUS
10
1.12
20
0.46
11
1.12
21
0.52
0
LINE
8
BLACK
6
CONTINUOUS
10
1.12
20
0.52
11
1.18
21
0.52
0
LINE
8
BLACK
6
CONTINUOUS
10
1.18
20
0.52
11
1.18
21
0.46
0
LINE
8
BLACK
6
CONTINUOUS
10
0.38
20
0.65
11
0.32
21
0.65
0
LINE
8
BLACK
6
CONTINUOUS
10
0.32
20
0.65
11
0.32
21
0.71
0
LINE
8
BLACK
6
CONTINUOUS
10
0.32
20
0.71
11
0.38
21
0.71
0
LINE
8
BLACK
6
CONTINUOUS
10
0.38
20
0.71
11
0.38
21
0.65
0
LINE
8
BLACK
6
CONTINUOUS
10
0.48
20
0.65
11
0.42
21
0.65
0
LINE
8
BLACK
6
CONTINUOUS
10
0.42
20
0.65
11
0.42
21
0.71
0
LINE
8
BLACK
6
CONTINUOUS
10
0.42
20
0.71
11
0.48
21
0.71
0
LINE
8
BLACK
6
CONTINUOUS
10
0.48
20
0.71
11
0.48
21
0.65
0
LINE
8
BLACK
6
CONTINUOUS
10
0.58
20
0.65
11
0.52
21
0.65
0
LINE
8
BLACK
6
CONTINUOUS
10
0.52
20
0.65
11
0.52
21
0.71
0
LINE
8
BLACK
6
CONTINUOUS
10
0.52
20
0.71
11
0.58
21
0.71
0
LINE
8
BLACK
6
CONTINUOUS
10
0.58
20
0.71
11
0.58
21
0.65
0
LINE
8
BLACK
6
CONTINUOUS
10
0.38
20
0.75
11
0.32
21
0.75
0
LINE
8
BLACK
6
CONTINUOUS
10
0.32
20
0.75
11
0.32
21
0.81
0
LINE
8
BLACK
6
CONTINUOUS
10
0.32
20
0.81
11
0.38
21
0.81
0
LINE
8
BLACK
6
CONTINUOUS
10
0.38
20
0.81
11
0.38
21
0.75
0
LINE
8
BLACK
6
CONTINUOUS
10
0.48
20
0.75
11
0.42
21
0.75
0
LINE
8
BLACK
6
CONTINUOUS
10
0.42
20
0.75
11
0.42
21
0.81
0
LINE
8
BLACK
6
CONTINUOUS
10
0.42
20
0.81
11
0.48
21
0.81
0
LINE
8
BLACK
6
CONTINUOUS
10
0.48
20
0.81
11
0.48
21
0.75
0
LINE
8
BLACK
6
CONTINUOUS
10
0.58
20
0.75
11
0.52
21
0.75
0
LINE
8
BLACK
6
CONTINUOUS
10
0.52
20
0.75
11
0.52
21
0.81
0
LINE
8
BLACK
6
CONTINUOUS
10
0.52
20
0.81
11
0.58
21
0.81
0
LINE
8
BLACK
6
CONTINUOUS
10
0.58
20
0.81
11
0.58
21
0.75
0
LINE
8
BLACK
6
CONTINUOUS
10
0.38
20
0.85
11
0.32
21
0.85
0
LINE
8
BLACK
6
CONTINUOUS
10
0.32
20
0.85
11
0.32
21
0.91
0
LINE
8
BLACK
6
CONTINUOUS
10
0.32
20
0.91
11
0.38
21
0.91
0
LINE
8
BLACK
6
CONTINUOUS
10
0.38
20
0.91
11
0.38
21
0.85
0
LINE
8
BLACK
6
CONTINUOUS
10
0.48
20
0.85
11
0.42
21
0.85
0
LINE
8
BLACK
6
CONTINUOUS
10
0.42
20
0.85
11
0.42
21
0.91
0
LINE
8
BLACK
6
CONTINUOUS
10
0.42
20
0.91
11
0.48
21
0.91
0
LINE
8
BLACK
6
CONTINUOUS
10
0.48
20
0.91
11
0.48
21
0.85
0
LINE
8
BLACK
6
CONTINUOUS
10
0.58
20
0.85
11
0.52
21
0.85
0
LINE
8
BLACK
6
CONTINUOUS
10
0.52
20
0.85
11
0.52
21
0.91
0
LINE
8
BLACK
6
CONTINUOUS
10
0.52
20
0.91
11
0.58
21
0.91
0
LINE
8
BLACK
6
CONTINUOUS
10
0.58
20
0.91
11
0.58
21
0.85
0
LINE
8
BLACK
6
CONTINUOUS
10
0.38
20
0.95
11
0.32
21
0.95
0
LINE
8
BLACK
6
CONTINUOUS
10
0.32
20
0.95
11
0.32
21
1.01
0
LINE
8
BLACK
6
CONTINUOUS
10
0.32
20
1.01
11
0.38
21
1.01
0
LINE
8
BLACK
6
CONTINUOUS
10
0.38
20
1.01
11
0.38
21
0.95
0
LINE
8
BLACK
6
CONTINUOUS
10
0.48
20
0.95
11
0.42
21
0.95
0
LINE
8
BLACK
6
CONTINUOUS
10
0.42
20
0.95
11
0.42
21
1.01
0
LINE
8
BLACK
6
CONTINUOUS
10
0.42
20
1.01
11
0.48
21
1.01
0
LINE
8
BLACK
6
CONTINUOUS
10
0.48
20
1.01
11
0.48
21
0.95
0
LINE
8
BLACK
6
CONTINUOUS
10
0.58
20
0.95
11
0.52
21
0.95
0
LINE
8
BLACK
6
CONTINUOUS
10
0.52
20
0.95
11
0.52
21
1.01
0
LINE
8
BLACK
6
CONTINUOUS
10
0.52
20
1.01
11
0.58
21
1.01
0
LINE
8
BLACK
6
CONTINUOUS
10
0.58
20
1.01
11
0.58
21
0.95
0
LINE
8
BLACK
6
CONTINUOUS
10
0.85
20
1.07
11
0.79
21
1.07
0
LINE
8
BLACK
6
CONTINUOUS
10
0.79
20
1.07
11
0.79
21
1.13
0
LINE
8
BLACK
6
CONTINUOUS
10
0.79
20
1.13
11
0.85
21
1.13
0
LINE
8
BLACK
6
CONTINUOUS
10
0.85
20
1.13
11
0.85
21
1.07
0
LINE
8
BLACK
6
CONTINUOUS
10
0.95
20
1.07
11
0.89
21
1.07
0
LINE
8
BLACK
6
CONTINUOUS
10
0.89
20
1.07
11
0.89
21
1.13
0
LINE
8
BLACK
6
CONTINUOUS
10
0.89
20
1.13
11
0.95
21
1.13
0
LINE
8
BLACK
6
CONTINUOUS
10
0.95
20
1.13
11
0.95
21
1.07
0
LINE
8
BLACK
6
CONTINUOUS
10
1.05
20
1.07
11
0.99
21
1.07
0
LINE
8
BLACK
6
CONTINUOUS
10
0.99
20
1.07
11
0.99
21
1.13
0
LINE
8
BLACK
6
CONTINUOUS
10
0.99
20
1.13
11
1.05
21
1.13
0
LINE
8
BLACK
6
CONTINUOUS
10
1.05
20
1.13
11
1.05
21
1.07
0
LINE
8
BLACK
6
CONTINUOUS
10
0.85
20
1.17
11
0.79
21
1.17
0
LINE
8
BLACK
6
CONTINUOUS
10
0.79
20
1.17
11
0.79
21
1.23
0
LINE
8
BLACK
6
CONTINUOUS
10
0.79
20
1.23
11
0.85
21
1.23
0
LINE
8
BLACK
6
CONTINUOUS
10
0.85
20
1.23
11
0.85
21
1.17
0
LINE
8
BLACK
6
CONTINUOUS
10
0.95
20
1.17
11
0.89
21
1.17
0
LINE
8
BLACK
6
CONTINUOUS
10
0.89
20
1.17
11
0.89
21
1.23
0
LINE
8
BLACK
6
CONTINUOUS
10
0.89
20
1.23
11
0.95
21
1.23
0
LINE
8
BLACK
6
CONTINUOUS
10
0.95
20
1.23
11
0.95
21
1.17
0
LINE
8
BLACK
6
CONTINUOUS
10
1.05
20
1.17
11
0.99
21
1.17
0
LINE
8
BLACK
6
CONTINUOUS
10
0.99
20
1.17
11
0.99
21
1.23
0
LINE
8
BLACK
6
CONTINUOUS
10
0.99
20
1.23
11
1.05
21
1.23
0
LINE
8
BLACK
6
CONTINUOUS
10
1.05
20
1.23
11
1.05
21
1.17
0
LINE
8
BLACK
6
CONTINUOUS
10
0.42051
20
1.71632
11
0.433874
21
1.71315
0
LINE
8
BLACK
6
CONTINUOUS
10
0.433874
20
1.71315
11
0.446781
21
1.70845
0
LINE
8
BLACK
6
CONTINUOUS
10
0.446781
20
1.70845
11
0.459055
21
1.70229
0
LINE
8
BLACK
6
CONTINUOUS
10
0.459055
20
1.70229
11
0.470531
21
1.69474
0
LINE
8
BLACK
6
CONTINUOUS
10
0.470531
20
1.69474
11
0.481052
21
1.68591
0
LINE
8
BLACK
6
CONTINUOUS
10
0.481052
20
1.68591
11
0.490478
21
1.67592
0
LINE
8
BLACK
6
CONTINUOUS
10
0.490478
20
1.67592
11
0.49868
21
1.6649
0
LINE
8
BLACK
6
CONTINUOUS
10
0.49868
20
1.6649
11
0.505547
21
1.65301
0
LINE
8
BLACK
6
CONTINUOUS
10
0.505547
20
1.65301
11
0.510987
21
1.6404
0
LINE
8
BLACK
6
CONTINUOUS
10
0.510987
20
1.6404
11
0.514927
21
1.62724
0
LINE
8
BLACK
6
CONTINUOUS
10
0.514927
20
1.62724
11
0.517312
21
1.61371
0
LINE
8
BLACK
6
CONTINUOUS
10
0.517312
20
1.61371
11
0.51811
21
1.6
0
LINE
8
BLACK
6
CONTINUOUS
10
0.51811
20
1.6
11
0.517312
21
1.58629
0
LINE
8
BLACK
6
CONTINUOUS
10
0.517312
20
1.58629
11
0.514927
21
1.57276
0
LINE
8
BLACK
6
CONTINUOUS
10
0.514927
20
1.57276
11
0.510987
21
1.5596
0
LINE
8
BLACK
6
CONTINUOUS
10
0.510987
20
1.5596
11
0.505547
21
1.54699
0
LINE
8
BLACK
6
CONTINUOUS
10
0.505547
20
1.54699
11
0.49868
21
1.5351
0
LINE
8
BLACK
6
CONTINUOUS
10
0.49868
20
1.5351
11
0.490478
21
1.52408
0
LINE
8
BLACK
6
CONTINUOUS
10
0.490478
20
1.52408
11
0.481052
21
1.51409
0
LINE
8
BLACK
6
CONTINUOUS
10
0.481052
20
1.51409
11
0.470531
21
1.50526
0
LINE
8
BLACK
6
CONTINUOUS
10
0.470531
20
1.50526
11
0.459055
21
1.49771
0
LINE
8
BLACK
6
CONTINUOUS
10
0.459055
20
1.49771
11
0.446781
21
1.49155
0
LINE
8
BLACK
6
CONTINUOUS
10
0.446781
20
1.49155
11
0.433874
21
1.48685
0
LINE
8
BLACK
6
CONTINUOUS
10
0.433874
20
1.48685
11
0.42051
21
1.48368
0
LINE
8
BLACK
6
CONTINUOUS
10
0.42051
20
1.48368
11
0.406867
21
1.48209
0
LINE
8
BLACK
6
CONTINUOUS
10
0.406867
20
1.48209
11
0.393133
21
1.48209
0
LINE
8
BLACK
6
CONTINUOUS
10
0.393133
20
1.48209
11
0.37949
21
1.48368
0
LINE
8
BLACK
6
CONTINUOUS
10
0.37949
20
1.48368
11
0.366126
21
1.48685
0
LINE
8
BLACK
6
CONTINUOUS
10
0.366126
20
1.48685
11
0.353219
21
1.49155
0
LINE
8
BLACK
6
CONTINUOUS
10
0.353219
20
1.49155
11
0.340945
21
1.49771
0
LINE
8
BLACK
6
CONTINUOUS
10
0.340945
20
1.49771
11
0.329469
21
1.50526
0
LINE
8
BLACK
6
CONTINUOUS
10
0.329469
20
1.50526
11
0.318948
21
1.51409
0
LINE
8
BLACK
6
CONTINUOUS
10
0.318948
20
1.51409
11
0.309522
21
1.52408
0
LINE
8
BLACK
6
CONTINUOUS
10
0.309522
20
1.52408
11
0.30132
21
1.5351
0
LINE
8
BLACK
6
CONTINUOUS
10
0.30132
20
1.5351
11
0.294453
21
1.54699
0
LINE
8
BLACK
6
CONTINUOUS
10
0.294453
20
1.54699
11
0.289013
21
1.5596
0
LINE
8
BLACK
6
CONTINUOUS
10
0.289013
20
1.5596
11
0.285073
21
1.57276
0
LINE
8
BLACK
6
CONTINUOUS
10
0.285073
20
1.57276
11
0.282688
21
1.58629
0
LINE
8
BLACK
6
CONTINUOUS
10
0.282688
20
1.58629
11
0.28189
21
1.6
0
LINE
8
BLACK
6
CONTINUOUS
10
0.28189
20
1.6
11
0.282688
21
1.61371
0
LINE
8
BLACK
6
CONTINUOUS
10
0.282688
20
1.61371
11
0.285073
21
1.62724
0
LINE
8
BLACK
6
CONTINUOUS
10
0.285073
20
1.62724
11
0.289013
21
1.6404
0
LINE
8
BLACK
6
CONTINUOUS
10
0.289013
20
1.6404
11
0.294453
21
1.65301
0
LINE
8
BLACK
6
CONTINUOUS
10
0.294453
20
1.65301
11
0.30132
21
1.6649
0
LINE
8
BLACK
6
CONTINUOUS
10
0.30132
20
1.6649
11
0.309522
21
1.67592
0
LINE
8
BLACK
6
CONTINUOUS
10
0.309522
20
1.67592
11
0.318948
21
1.68591
0
LINE
8
BLACK
6
CONTINUOUS
10
0.318948
20
1.68591
11
0.329469
21
1.69474
0
LINE
8
BLACK
6
CONTINUOUS
10
0.329469
20
1.69474
11
0.340945
21
1.70229
0
LINE
8
BLACK
6
CONTINUOUS
10
0.340945
20
1.70229
11
0.353219
21
1.70845
0
LINE
8
BLACK
6
CONTINUOUS
10
0.353219
20
1.70845
11
0.366126
21
1.71315
0
LINE
8
BLACK
6
CONTINUOUS
10
0.366126
20
1.71315
11
0.37949
21
1.71632
0
LINE
8
BLACK
6
CONTINUOUS
10
0.37949
20
1.71632
11
0.393133
21
1.71791
0
LINE
8
BLACK
6
CONTINUOUS
10
0.393133
20
1.71791
11
0.406867
21
1.71791
0
LINE
8
BLACK
6
CONTINUOUS
10
0.406867
20
1.71791
11
0.42051
21
1.71632
0
LINE
8
BLACK
6
CONTINUOUS
10
1.62051
20
1.71632
11
1.63387
21
1.71315
0
LINE
8
BLACK
6
CONTINUOUS
10
1.63387
20
1.71315
11
1.64678
21
1.70845
0
LINE
8
BLACK
6
CONTINUOUS
10
1.64678
20
1.70845
11
1.65906
21
1.70229
0
LINE
8
BLACK
6
CONTINUOUS
10
1.65906
20
1.70229
11
1.67053
21
1.69474
0
LINE
8
BLACK
6
CONTINUOUS
10
1.67053
20
1.69474
11
1.68105
21
1.68591
0
LINE
8
BLACK
6
CONTINUOUS
10
1.68105
20
1.68591
11
1.69048
21
1.67592
0
LINE
8
BLACK
6
CONTINUOUS
10
1.69048
20
1.67592
11
1.69868
21
1.6649
0
LINE
8
BLACK
6
CONTINUOUS
10
1.69868
20
1.6649
11
1.70555
21
1.65301
0
LINE
8
BLACK
6
CONTINUOUS
10
1.70555
20
1.65301
11
1.71099
21
1.6404
0
LINE
8
BLACK
6
CONTINUOUS
10
1.71099
20
1.6404
11
1.71493
21
1.62724
0
LINE
8
BLACK
6
CONTINUOUS
10
1.71493
20
1.62724
11
1.71731
21
1.61371
0
LINE
8
BLACK
6
CONTINUOUS
10
1.71731
20
1.61371
11
1.71811
21
1.6
0
LINE
8
BLACK
6
CONTINUOUS
10
1.71811
20
1.6
11
1.71731
21
1.58629
0
LINE
8
BLACK
6
CONTINUOUS
10
1.71731
20
1.58629
11
1.71493
21
1.57276
0
LINE
8
BLACK
6
CONTINUOUS
10
1.71493
20
1.57276
11
1.71099
21
1.5596
0
LINE
8
BLACK
6
CONTINUOUS
10
1.71099
20
1.5596
11
1.70555
21
1.54699
0
LINE
8
BLACK
6
CONTINUOUS
10
1.70555
20
1.54699
11
1.69868
21
1.5351
0
LINE
8
BLACK
6
CONTINUOUS
10
1.69868
20
1.5351
11
1.69048
21
1.52408
0
LINE
8
BLACK
6
CONTINUOUS
10
1.69048
20
1.52408
11
1.68105
21
1.51409
0
LINE
8
BLACK
6
CONTINUOUS
10
1.68105
20
1.51409
11
1.67053
21
1.50526
0
LINE
8
BLACK
6
CONTINUOUS
10
1.67053
20
1.50526
11
1.65906
21
1.49771
0
LINE
8
BLACK
6
CONTINUOUS
10
1.65906
20
1.49771
11
1.64678
21
1.49155
0
LINE
8
BLACK
6
CONTINUOUS
10
1.64678
20
1.49155
11
1.63387
21
1.48685
0
LINE
8
BLACK
6
CONTINUOUS
10
1.63387
20
1.48685
11
1.62051
21
1.48368
0
LINE
8
BLACK
6
CONTINUOUS
10
1.62051
20
1.48368
11
1.60687
21
1.48209
0
LINE
8
BLACK
6
CONTINUOUS
10
1.60687
20
1.48209
11
1.59313
21
1.48209
0
LINE
8
BLACK
6
CONTINUOUS
10
1.59313
20
1.48209
11
1.57949
21
1.48368
0
LINE
8
BLACK
6
CONTINUOUS
10
1.57949
20
1.48368
11
1.56613
21
1.48685
0
LINE
8
BLACK
6
CONTINUOUS
10
1.56613
20
1.48685
11
1.55322
21
1.49155
0
LINE
8
BLACK
6
CONTINUOUS
10
1.55322
20
1.49155
11
1.54094
21
1.49771
0
LINE
8
BLACK
6
CONTINUOUS
10
1.54094
20
1.49771
11
1.52947
21
1.50526
0
LINE
8
BLACK
6
CONTINUOUS
10
1.52947
20
1.50526
11
1.51895
21
1.51409
0
LINE
8
BLACK
6
CONTINUOUS
10
1.51895
20
1.51409
11
1.50952
21
1.52408
0
LINE
8
BLACK
6
CONTINUOUS
10
1.50952
20
1.52408
11
1.50132
21
1.5351
0
LINE
8
BLACK
6
CONTINUOUS
10
1.50132
20
1.5351
11
1.49445
21
1.54699
0
LINE
8
BLACK
6
CONTINUOUS
10
1.49445
20
1.54699
11
1.48901
21
1.5596
0
LINE
8
BLACK
6
CONTINUOUS
10
1.48901
20
1.5596
11
1.48507
21
1.57276
0
LINE
8
BLACK
6
CONTINUOUS
10
1.48507
20
1.57276
11
1.48269
21
1.58629
0
LINE
8
BLACK
6
CONTINUOUS
10
1.48269
20
1.58629
11
1.48189
21
1.6
0
LINE
8
BLACK
6
CONTINUOUS
10
1.48189
20
1.6
11
1.48269
21
1.61371
0
LINE
8
BLACK
6
CONTINUOUS
10
1.48269
20
1.61371
11
1.48507
21
1.62724
0
LINE
8
BLACK
6
CONTINUOUS
10
1.48507
20
1.62724
11
1.48901
21
1.6404
0
LINE
8
BLACK
6
CONTINUOUS
10
1.48901
20
1.6404
11
1.49445
21
1.65301
0
LINE
8
BLACK
6
CONTINUOUS
10
1.49445
20
1.65301
11
1.50132
21
1.6649
0
LINE
8
BLACK
6
CONTINUOUS
10
1.50132
20
1.6649
11
1.50952
21
1.67592
0
LINE
8
BLACK
6
CONTINUOUS
10
1.50952
20
1.67592
11
1.51895
21
1.68591
0
LINE
8
BLACK
6
CONTINUOUS
10
1.51895
20
1.68591
11
1.52947
21
1.69474
0
LINE
8
BLACK
6
CONTINUOUS
10
1.52947
20
1.69474
11
1.54094
21
1.70229
0
LINE
8
BLACK
6
CONTINUOUS
10
1.54094
20
1.70229
11
1.55322
21
1.70845
0
LINE
8
BLACK
6
CONTINUOUS
10
1.55322
20
1.70845
11
1.56613
21
1.71315
0
LINE
8
BLACK
6
CONTINUOUS
10
1.56613
20
1.71315
11
1.57949
21
1.71632
0
LINE
8
BLACK
6
CONTINUOUS
10
1.57949
20
1.71632
11
1.59313
21
1.71791
0
LINE
8
BLACK
6
CONTINUOUS
10
1.59313
20
1.71791
11
1.60687
21
1.71791
0
LINE
8
BLACK
6
CONTINUOUS
10
1.60687
20
1.71791
11
1.62051
21
1.71632
0
LINE
8
BLACK
6
CONTINUOUS
10
0.93
20
1.49
11
0.87
21
1.49
0
LINE
8
BLACK
6
CONTINUOUS
10
0.87
20
1.49
11
0.87
21
1.55
0
LINE
8
BLACK
6
CONTINUOUS
10
0.87
20
1.55
11
0.93
21
1.55
0
LINE
8
BLACK
6
CONTINUOUS
10
0.93
20
1.55
11
0.93
21
1.49
0
LINE
8
BLACK
6
CONTINUOUS
10
1.03
20
1.49
11
0.97
21
1.49
0
LINE
8
BLACK
6
CONTINUOUS
10
0.97
20
1.49
11
0.97
21
1.55
0
LINE
8
BLACK
6
CONTINUOUS
10
0.97
20
1.55
11
1.03
21
1.55
0
LINE
8
BLACK
6
CONTINUOUS
10
1.03
20
1.55
11
1.03
21
1.49
0
LINE
8
BLACK
6
CONTINUOUS
10
1.13
20
1.49
11
1.07
21
1.49
0
LINE
8
BLACK
6
CONTINUOUS
10
1.07
20
1.49
11
1.07
21
1.55
0
LINE
8
BLACK
6
CONTINUOUS
10
1.07
20
1.55
11
1.13
21
1.55
0
LINE
8
BLACK
6
CONTINUOUS
10
1.13
20
1.55
11
1.13
21
1.49
0
LINE
8
BLACK
6
CONTINUOUS
10
0.93
20
1.59
11
0.87
21
1.59
0
LINE
8
BLACK
6
CONTINUOUS
10
0.87
20
1.59
11
0.87
21
1.65
0
LINE
8
BLACK
6
CONTINUOUS
10
0.87
20
1.65
11
0.93
21
1.65
0
LINE
8
BLACK
6
CONTINUOUS
10
0.93
20
1.65
11
0.93
21
1.59
0
LINE
8
BLACK
6
CONTINUOUS
10
1.03
20
1.59
11
0.97
21
1.59
0
LINE
8
BLACK
6
CONTINUOUS
10
0.97
20
1.59
11
0.97
21
1.65
0
LINE
8
BLACK
6
CONTINUOUS
10
0.97
20
1.65
11
1.03
21
1.65
0
LINE
8
BLACK
6
CONTINUOUS
10
1.03
20
1.65
11
1.03
21
1.59
0
LINE
8
BLACK
6
CONTINUOUS
10
1.13
20
1.59
11
1.07
21
1.59
0
LINE
8
BLACK
6
CONTINUOUS
10
1.07
20
1.59
11
1.07
21
1.65
0
LINE
8
BLACK
6
CONTINUOUS
10
1.07
20
1.65
11
1.13
21
1.65
0
LINE
8
BLACK
6
CONTINUOUS
10
1.13
20
1.65
11
1.13
21
1.59
  0
ENDSEC
  0
EOF
