  0
SECTION
  2
HEADER
  9
$ANGBASE
  50
0.0
  9
$ANGDIR
  70
1
  9
$MEASUREMENT
  70
0
  0
ENDSEC
  0
SECTION
  2
TABLES
  0
TABLE
  2
LTYPE
  70
4
  0
LTYPE
  5
40F
  2
CONTINUOUS
  70
0
  3
Solid line
  72
65
  73
0
  40
0.0
  0
LTYPE
  5
410
  2
DASHDOT
 70
0
  3
Dash Dot ____ _ ____ _
 72
65
 73
4
 40
2.0
 49
1.25
 49
-0.25
 49
0.25
 49
-0.25
  0
LTYPE
  5
411
  2
DASHED
 70
0
  3
Dashed __ __ __ __ __
 72
65
 73
2
 40
0.75
 49
0.5
 49
-0.25
  0
LTYPE
  5
43B
  2
DOTTED
 70
0
  3
Dotted .  .  .  .
 72
65
 73
2
 40
0.2
 49
0.0
 49
-0.2
  0
ENDTAB
  0
TABLE
  2
STYLE
  70
4
  0
STYLE
  2
KICAD
  70
0
  40
0
  41
1
  42
1
  50
0
  71
0
  3
isocp.shx
  0
STYLE
  2
KICADB
  70
0
  40
0
  41
1
  42
1
  50
0
  71
0
  3
isocp.shx
  0
STYLE
  2
KICADI
  70
0
  40
0
  41
1
  42
1
  50
15
  71
0
  3
isocp.shx
  0
STYLE
  2
KICADBI
  70
0
  40
0
  41
1
  42
1
  50
15
  71
0
  3
isocp.shx
  0
ENDTAB
  0
TABLE
  2
LAYER
  70
1
  0
LAYER
  2
BLACK
  70
0
  62
7
  6
CONTINUOUS
  0
ENDTAB
  0
ENDSEC
  0
SECTION
  2
ENTITIES
0
LINE
8
BLACK
6
CONTINUOUS
10
1.20038
20
0.542885
11
1.20051
21
0.542908
0
LINE
8
BLACK
6
CONTINUOUS
10
1.20051
20
0.542908
11
1.20063
21
0.542842
0
LINE
8
BLACK
6
CONTINUOUS
10
1.20063
20
0.542842
11
1.20101
21
0.542775
0
LINE
8
BLACK
6
CONTINUOUS
10
1.20101
20
0.542775
11
1.2016
21
0.542282
0
LINE
8
BLACK
6
CONTINUOUS
10
1.2016
20
0.542282
11
1.20226
21
0.541898
0
LINE
8
BLACK
6
CONTINUOUS
10
1.20226
20
0.541898
11
1.20235
21
0.541648
0
LINE
8
BLACK
6
CONTINUOUS
10
1.20235
20
0.541648
11
1.20256
21
0.541476
0
LINE
8
BLACK
6
CONTINUOUS
10
1.20256
20
0.541476
11
1.20269
21
0.540721
0
LINE
8
BLACK
6
CONTINUOUS
10
1.20269
20
0.540721
11
1.20295
21
0.54
0
LINE
8
BLACK
6
CONTINUOUS
10
1.20295
20
0.54
11
1.20295
21
0.34
0
LINE
8
BLACK
6
CONTINUOUS
10
1.20295
20
0.34
11
1.20289
21
0.339616
0
LINE
8
BLACK
6
CONTINUOUS
10
1.20289
20
0.339616
11
1.20291
21
0.339487
0
LINE
8
BLACK
6
CONTINUOUS
10
1.20291
20
0.339487
11
1.20284
21
0.339374
0
LINE
8
BLACK
6
CONTINUOUS
10
1.20284
20
0.339374
11
1.20277
21
0.33899
0
LINE
8
BLACK
6
CONTINUOUS
10
1.20277
20
0.33899
11
1.20228
21
0.338402
0
LINE
8
BLACK
6
CONTINUOUS
10
1.20228
20
0.338402
11
1.2019
21
0.337738
0
LINE
8
BLACK
6
CONTINUOUS
10
1.2019
20
0.337738
11
1.20165
21
0.337647
0
LINE
8
BLACK
6
CONTINUOUS
10
1.20165
20
0.337647
11
1.20148
21
0.337443
0
LINE
8
BLACK
6
CONTINUOUS
10
1.20148
20
0.337443
11
1.20072
21
0.33731
0
LINE
8
BLACK
6
CONTINUOUS
10
1.20072
20
0.33731
11
1.2
21
0.337047
0
LINE
8
BLACK
6
CONTINUOUS
10
1.2
20
0.337047
11
0.9
21
0.337047
0
LINE
8
BLACK
6
CONTINUOUS
10
0.9
20
0.337047
11
0.899616
21
0.337115
0
LINE
8
BLACK
6
CONTINUOUS
10
0.899616
20
0.337115
11
0.899487
21
0.337092
0
LINE
8
BLACK
6
CONTINUOUS
10
0.899487
20
0.337092
11
0.899374
21
0.337158
0
LINE
8
BLACK
6
CONTINUOUS
10
0.899374
20
0.337158
11
0.89899
21
0.337225
0
LINE
8
BLACK
6
CONTINUOUS
10
0.89899
20
0.337225
11
0.898402
21
0.337718
0
LINE
8
BLACK
6
CONTINUOUS
10
0.898402
20
0.337718
11
0.897738
21
0.338102
0
LINE
8
BLACK
6
CONTINUOUS
10
0.897738
20
0.338102
11
0.897647
21
0.338352
0
LINE
8
BLACK
6
CONTINUOUS
10
0.897647
20
0.338352
11
0.897443
21
0.338524
0
LINE
8
BLACK
6
CONTINUOUS
10
0.897443
20
0.338524
11
0.89731
21
0.339279
0
LINE
8
BLACK
6
CONTINUOUS
10
0.89731
20
0.339279
11
0.897047
21
0.34
0
LINE
8
BLACK
6
CONTINUOUS
10
0.897047
20
0.34
11
0.897047
21
0.54
0
LINE
8
BLACK
6
CONTINUOUS
10
0.897047
20
0.54
11
0.897115
21
0.540384
0
LINE
8
BLACK
6
CONTINUOUS
10
0.897115
20
0.540384
11
0.897092
21
0.540513
0
LINE
8
BLACK
6
CONTINUOUS
10
0.897092
20
0.540513
11
0.897158
21
0.540626
0
LINE
8
BLACK
6
CONTINUOUS
10
0.897158
20
0.540626
11
0.897225
21
0.54101
0
LINE
8
BLACK
6
CONTINUOUS
10
0.897225
20
0.54101
11
0.897718
21
0.541598
0
LINE
8
BLACK
6
CONTINUOUS
10
0.897718
20
0.541598
11
0.898102
21
0.542262
0
LINE
8
BLACK
6
CONTINUOUS
10
0.898102
20
0.542262
11
0.898352
21
0.542353
0
LINE
8
BLACK
6
CONTINUOUS
10
0.898352
20
0.542353
11
0.898524
21
0.542557
0
LINE
8
BLACK
6
CONTINUOUS
10
0.898524
20
0.542557
11
0.899279
21
0.54269
0
LINE
8
BLACK
6
CONTINUOUS
10
0.899279
20
0.54269
11
0.9
21
0.542953
0
LINE
8
BLACK
6
CONTINUOUS
10
0.9
20
0.542953
11
1.2
21
0.542953
0
LINE
8
BLACK
6
CONTINUOUS
10
1.2
20
0.542953
11
1.20038
21
0.542885
0
LINE
8
BLACK
6
CONTINUOUS
10
0.902953
20
0.537047
11
0.902953
21
0.342953
0
LINE
8
BLACK
6
CONTINUOUS
10
0.902953
20
0.342953
11
1.19705
21
0.342953
0
LINE
8
BLACK
6
CONTINUOUS
10
1.19705
20
0.342953
11
1.19705
21
0.537047
0
LINE
8
BLACK
6
CONTINUOUS
10
1.19705
20
0.537047
11
0.902953
21
0.537047
0
LINE
8
BLACK
6
CONTINUOUS
10
0.602885
20
0.629616
11
0.602908
21
0.629487
0
LINE
8
BLACK
6
CONTINUOUS
10
0.602908
20
0.629487
11
0.602842
21
0.629374
0
LINE
8
BLACK
6
CONTINUOUS
10
0.602842
20
0.629374
11
0.602775
21
0.62899
0
LINE
8
BLACK
6
CONTINUOUS
10
0.602775
20
0.62899
11
0.602282
21
0.628402
0
LINE
8
BLACK
6
CONTINUOUS
10
0.602282
20
0.628402
11
0.601898
21
0.627738
0
LINE
8
BLACK
6
CONTINUOUS
10
0.601898
20
0.627738
11
0.601648
21
0.627647
0
LINE
8
BLACK
6
CONTINUOUS
10
0.601648
20
0.627647
11
0.601476
21
0.627443
0
LINE
8
BLACK
6
CONTINUOUS
10
0.601476
20
0.627443
11
0.600721
21
0.62731
0
LINE
8
BLACK
6
CONTINUOUS
10
0.600721
20
0.62731
11
0.6
21
0.627047
0
LINE
8
BLACK
6
CONTINUOUS
10
0.6
20
0.627047
11
0.3
21
0.627047
0
LINE
8
BLACK
6
CONTINUOUS
10
0.3
20
0.627047
11
0.299616
21
0.627115
0
LINE
8
BLACK
6
CONTINUOUS
10
0.299616
20
0.627115
11
0.299487
21
0.627092
0
LINE
8
BLACK
6
CONTINUOUS
10
0.299487
20
0.627092
11
0.299374
21
0.627158
0
LINE
8
BLACK
6
CONTINUOUS
10
0.299374
20
0.627158
11
0.29899
21
0.627225
0
LINE
8
BLACK
6
CONTINUOUS
10
0.29899
20
0.627225
11
0.298402
21
0.627718
0
LINE
8
BLACK
6
CONTINUOUS
10
0.298402
20
0.627718
11
0.297738
21
0.628102
0
LINE
8
BLACK
6
CONTINUOUS
10
0.297738
20
0.628102
11
0.297647
21
0.628352
0
LINE
8
BLACK
6
CONTINUOUS
10
0.297647
20
0.628352
11
0.297443
21
0.628524
0
LINE
8
BLACK
6
CONTINUOUS
10
0.297443
20
0.628524
11
0.29731
21
0.629279
0
LINE
8
BLACK
6
CONTINUOUS
10
0.29731
20
0.629279
11
0.297047
21
0.63
0
LINE
8
BLACK
6
CONTINUOUS
10
0.297047
20
0.63
11
0.297047
21
1.03
0
LINE
8
BLACK
6
CONTINUOUS
10
0.297047
20
1.03
11
0.297115
21
1.03038
0
LINE
8
BLACK
6
CONTINUOUS
10
0.297115
20
1.03038
11
0.297092
21
1.03051
0
LINE
8
BLACK
6
CONTINUOUS
10
0.297092
20
1.03051
11
0.297158
21
1.03063
0
LINE
8
BLACK
6
CONTINUOUS
10
0.297158
20
1.03063
11
0.297225
21
1.03101
0
LINE
8
BLACK
6
CONTINUOUS
10
0.297225
20
1.03101
11
0.297718
21
1.0316
0
LINE
8
BLACK
6
CONTINUOUS
10
0.297718
20
1.0316
11
0.298102
21
1.03226
0
LINE
8
BLACK
6
CONTINUOUS
10
0.298102
20
1.03226
11
0.298352
21
1.03235
0
LINE
8
BLACK
6
CONTINUOUS
10
0.298352
20
1.03235
11
0.298524
21
1.03256
0
LINE
8
BLACK
6
CONTINUOUS
10
0.298524
20
1.03256
11
0.299279
21
1.03269
0
LINE
8
BLACK
6
CONTINUOUS
10
0.299279
20
1.03269
11
0.3
21
1.03295
0
LINE
8
BLACK
6
CONTINUOUS
10
0.3
20
1.03295
11
0.6
21
1.03295
0
LINE
8
BLACK
6
CONTINUOUS
10
0.6
20
1.03295
11
0.600384
21
1.03289
0
LINE
8
BLACK
6
CONTINUOUS
10
0.600384
20
1.03289
11
0.600513
21
1.03291
0
LINE
8
BLACK
6
CONTINUOUS
10
0.600513
20
1.03291
11
0.600626
21
1.03284
0
LINE
8
BLACK
6
CONTINUOUS
10
0.600626
20
1.03284
11
0.60101
21
1.03277
0
LINE
8
BLACK
6
CONTINUOUS
10
0.60101
20
1.03277
11
0.601598
21
1.03228
0
LINE
8
BLACK
6
CONTINUOUS
10
0.601598
20
1.03228
11
0.602262
21
1.0319
0
LINE
8
BLACK
6
CONTINUOUS
10
0.602262
20
1.0319
11
0.602353
21
1.03165
0
LINE
8
BLACK
6
CONTINUOUS
10
0.602353
20
1.03165
11
0.602557
21
1.03148
0
LINE
8
BLACK
6
CONTINUOUS
10
0.602557
20
1.03148
11
0.60269
21
1.03072
0
LINE
8
BLACK
6
CONTINUOUS
10
0.60269
20
1.03072
11
0.602953
21
1.03
0
LINE
8
BLACK
6
CONTINUOUS
10
0.602953
20
1.03
11
0.602953
21
0.63
0
LINE
8
BLACK
6
CONTINUOUS
10
0.602953
20
0.63
11
0.602885
21
0.629616
0
LINE
8
BLACK
6
CONTINUOUS
10
0.302953
20
0.727047
11
0.302953
21
0.632953
0
LINE
8
BLACK
6
CONTINUOUS
10
0.302953
20
0.632953
11
0.597047
21
0.632953
0
LINE
8
BLACK
6
CONTINUOUS
10
0.597047
20
0.632953
11
0.597047
21
0.727047
0
LINE
8
BLACK
6
CONTINUOUS
10
0.597047
20
0.727047
11
0.302953
21
0.727047
0
LINE
8
BLACK
6
CONTINUOUS
10
0.302953
20
0.827047
11
0.302953
21
0.732953
0
LINE
8
BLACK
6
CONTINUOUS
10
0.302953
20
0.732953
11
0.597047
21
0.732953
0
LINE
8
BLACK
6
CONTINUOUS
10
0.597047
20
0.732953
11
0.597047
21
0.827047
0
LINE
8
BLACK
6
CONTINUOUS
10
0.597047
20
0.827047
11
0.302953
21
0.827047
0
LINE
8
BLACK
6
CONTINUOUS
10
0.302953
20
0.927047
11
0.302953
21
0.832953
0
LINE
8
BLACK
6
CONTINUOUS
10
0.302953
20
0.832953
11
0.597047
21
0.832953
0
LINE
8
BLACK
6
CONTINUOUS
10
0.597047
20
0.832953
11
0.597047
21
0.927047
0
LINE
8
BLACK
6
CONTINUOUS
10
0.597047
20
0.927047
11
0.302953
21
0.927047
0
LINE
8
BLACK
6
CONTINUOUS
10
0.302953
20
1.02705
11
0.302953
21
0.932953
0
LINE
8
BLACK
6
CONTINUOUS
10
0.302953
20
0.932953
11
0.597047
21
0.932953
0
LINE
8
BLACK
6
CONTINUOUS
10
0.597047
20
0.932953
11
0.597047
21
1.02705
0
LINE
8
BLACK
6
CONTINUOUS
10
0.597047
20
1.02705
11
0.302953
21
1.02705
0
LINE
8
BLACK
6
CONTINUOUS
10
0.769616
20
1.04711
11
0.769487
21
1.04709
0
LINE
8
BLACK
6
CONTINUOUS
10
0.769487
20
1.04709
11
0.769374
21
1.04716
0
LINE
8
BLACK
6
CONTINUOUS
10
0.769374
20
1.04716
11
0.76899
21
1.04723
0
LINE
8
BLACK
6
CONTINUOUS
10
0.76899
20
1.04723
11
0.768402
21
1.04772
0
LINE
8
BLACK
6
CONTINUOUS
10
0.768402
20
1.04772
11
0.767738
21
1.0481
0
LINE
8
BLACK
6
CONTINUOUS
10
0.767738
20
1.0481
11
0.767647
21
1.04835
0
LINE
8
BLACK
6
CONTINUOUS
10
0.767647
20
1.04835
11
0.767443
21
1.04852
0
LINE
8
BLACK
6
CONTINUOUS
10
0.767443
20
1.04852
11
0.76731
21
1.04928
0
LINE
8
BLACK
6
CONTINUOUS
10
0.76731
20
1.04928
11
0.767047
21
1.05
0
LINE
8
BLACK
6
CONTINUOUS
10
0.767047
20
1.05
11
0.767047
21
1.25
0
LINE
8
BLACK
6
CONTINUOUS
10
0.767047
20
1.25
11
0.767115
21
1.25038
0
LINE
8
BLACK
6
CONTINUOUS
10
0.767115
20
1.25038
11
0.767092
21
1.25051
0
LINE
8
BLACK
6
CONTINUOUS
10
0.767092
20
1.25051
11
0.767158
21
1.25063
0
LINE
8
BLACK
6
CONTINUOUS
10
0.767158
20
1.25063
11
0.767225
21
1.25101
0
LINE
8
BLACK
6
CONTINUOUS
10
0.767225
20
1.25101
11
0.767719
21
1.2516
0
LINE
8
BLACK
6
CONTINUOUS
10
0.767719
20
1.2516
11
0.768102
21
1.25226
0
LINE
8
BLACK
6
CONTINUOUS
10
0.768102
20
1.25226
11
0.768352
21
1.25235
0
LINE
8
BLACK
6
CONTINUOUS
10
0.768352
20
1.25235
11
0.768524
21
1.25256
0
LINE
8
BLACK
6
CONTINUOUS
10
0.768524
20
1.25256
11
0.769279
21
1.25269
0
LINE
8
BLACK
6
CONTINUOUS
10
0.769279
20
1.25269
11
0.77
21
1.25295
0
LINE
8
BLACK
6
CONTINUOUS
10
0.77
20
1.25295
11
1.07
21
1.25295
0
LINE
8
BLACK
6
CONTINUOUS
10
1.07
20
1.25295
11
1.07038
21
1.25289
0
LINE
8
BLACK
6
CONTINUOUS
10
1.07038
20
1.25289
11
1.07051
21
1.25291
0
LINE
8
BLACK
6
CONTINUOUS
10
1.07051
20
1.25291
11
1.07063
21
1.25284
0
LINE
8
BLACK
6
CONTINUOUS
10
1.07063
20
1.25284
11
1.07101
21
1.25277
0
LINE
8
BLACK
6
CONTINUOUS
10
1.07101
20
1.25277
11
1.0716
21
1.25228
0
LINE
8
BLACK
6
CONTINUOUS
10
1.0716
20
1.25228
11
1.07226
21
1.2519
0
LINE
8
BLACK
6
CONTINUOUS
10
1.07226
20
1.2519
11
1.07235
21
1.25165
0
LINE
8
BLACK
6
CONTINUOUS
10
1.07235
20
1.25165
11
1.07256
21
1.25148
0
LINE
8
BLACK
6
CONTINUOUS
10
1.07256
20
1.25148
11
1.07269
21
1.25072
0
LINE
8
BLACK
6
CONTINUOUS
10
1.07269
20
1.25072
11
1.07295
21
1.25
0
LINE
8
BLACK
6
CONTINUOUS
10
1.07295
20
1.25
11
1.07295
21
1.05
0
LINE
8
BLACK
6
CONTINUOUS
10
1.07295
20
1.05
11
1.07289
21
1.04962
0
LINE
8
BLACK
6
CONTINUOUS
10
1.07289
20
1.04962
11
1.07291
21
1.04949
0
LINE
8
BLACK
6
CONTINUOUS
10
1.07291
20
1.04949
11
1.07284
21
1.04937
0
LINE
8
BLACK
6
CONTINUOUS
10
1.07284
20
1.04937
11
1.07277
21
1.04899
0
LINE
8
BLACK
6
CONTINUOUS
10
1.07277
20
1.04899
11
1.07228
21
1.0484
0
LINE
8
BLACK
6
CONTINUOUS
10
1.07228
20
1.0484
11
1.0719
21
1.04774
0
LINE
8
BLACK
6
CONTINUOUS
10
1.0719
20
1.04774
11
1.07165
21
1.04765
0
LINE
8
BLACK
6
CONTINUOUS
10
1.07165
20
1.04765
11
1.07148
21
1.04744
0
LINE
8
BLACK
6
CONTINUOUS
10
1.07148
20
1.04744
11
1.07072
21
1.04731
0
LINE
8
BLACK
6
CONTINUOUS
10
1.07072
20
1.04731
11
1.07
21
1.04705
0
LINE
8
BLACK
6
CONTINUOUS
10
1.07
20
1.04705
11
0.77
21
1.04705
0
LINE
8
BLACK
6
CONTINUOUS
10
0.77
20
1.04705
11
0.769616
21
1.04711
0
LINE
8
BLACK
6
CONTINUOUS
10
0.972953
20
1.24705
11
0.972953
21
1.05295
0
LINE
8
BLACK
6
CONTINUOUS
10
0.972953
20
1.05295
11
1.06705
21
1.05295
0
LINE
8
BLACK
6
CONTINUOUS
10
1.06705
20
1.05295
11
1.06705
21
1.24705
0
LINE
8
BLACK
6
CONTINUOUS
10
1.06705
20
1.24705
11
0.972953
21
1.24705
0
LINE
8
BLACK
6
CONTINUOUS
10
0.872953
20
1.24705
11
0.872953
21
1.05295
0
LINE
8
BLACK
6
CONTINUOUS
10
0.872953
20
1.05295
11
0.967047
21
1.05295
0
LINE
8
BLACK
6
CONTINUOUS
10
0.967047
20
1.05295
11
0.967047
21
1.24705
0
LINE
8
BLACK
6
CONTINUOUS
10
0.967047
20
1.24705
11
0.872953
21
1.24705
0
LINE
8
BLACK
6
CONTINUOUS
10
0.772953
20
1.24705
11
0.772953
21
1.05295
0
LINE
8
BLACK
6
CONTINUOUS
10
0.772953
20
1.05295
11
0.867047
21
1.05295
0
LINE
8
BLACK
6
CONTINUOUS
10
0.867047
20
1.05295
11
0.867047
21
1.24705
0
LINE
8
BLACK
6
CONTINUOUS
10
0.867047
20
1.24705
11
0.772953
21
1.24705
0
LINE
8
BLACK
6
CONTINUOUS
10
1.15038
20
1.67289
11
1.15051
21
1.67291
0
LINE
8
BLACK
6
CONTINUOUS
10
1.15051
20
1.67291
11
1.15063
21
1.67284
0
LINE
8
BLACK
6
CONTINUOUS
10
1.15063
20
1.67284
11
1.15101
21
1.67277
0
LINE
8
BLACK
6
CONTINUOUS
10
1.15101
20
1.67277
11
1.1516
21
1.67228
0
LINE
8
BLACK
6
CONTINUOUS
10
1.1516
20
1.67228
11
1.15226
21
1.6719
0
LINE
8
BLACK
6
CONTINUOUS
10
1.15226
20
1.6719
11
1.15235
21
1.67165
0
LINE
8
BLACK
6
CONTINUOUS
10
1.15235
20
1.67165
11
1.15256
21
1.67148
0
LINE
8
BLACK
6
CONTINUOUS
10
1.15256
20
1.67148
11
1.15269
21
1.67072
0
LINE
8
BLACK
6
CONTINUOUS
10
1.15269
20
1.67072
11
1.15295
21
1.67
0
LINE
8
BLACK
6
CONTINUOUS
10
1.15295
20
1.67
11
1.15295
21
1.47
0
LINE
8
BLACK
6
CONTINUOUS
10
1.15295
20
1.47
11
1.15289
21
1.46962
0
LINE
8
BLACK
6
CONTINUOUS
10
1.15289
20
1.46962
11
1.15291
21
1.46949
0
LINE
8
BLACK
6
CONTINUOUS
10
1.15291
20
1.46949
11
1.15284
21
1.46937
0
LINE
8
BLACK
6
CONTINUOUS
10
1.15284
20
1.46937
11
1.15277
21
1.46899
0
LINE
8
BLACK
6
CONTINUOUS
10
1.15277
20
1.46899
11
1.15228
21
1.4684
0
LINE
8
BLACK
6
CONTINUOUS
10
1.15228
20
1.4684
11
1.1519
21
1.46774
0
LINE
8
BLACK
6
CONTINUOUS
10
1.1519
20
1.46774
11
1.15165
21
1.46765
0
LINE
8
BLACK
6
CONTINUOUS
10
1.15165
20
1.46765
11
1.15148
21
1.46744
0
LINE
8
BLACK
6
CONTINUOUS
10
1.15148
20
1.46744
11
1.15072
21
1.46731
0
LINE
8
BLACK
6
CONTINUOUS
10
1.15072
20
1.46731
11
1.15
21
1.46705
0
LINE
8
BLACK
6
CONTINUOUS
10
1.15
20
1.46705
11
0.85
21
1.46705
0
LINE
8
BLACK
6
CONTINUOUS
10
0.85
20
1.46705
11
0.849616
21
1.46711
0
LINE
8
BLACK
6
CONTINUOUS
10
0.849616
20
1.46711
11
0.849487
21
1.46709
0
LINE
8
BLACK
6
CONTINUOUS
10
0.849487
20
1.46709
11
0.849374
21
1.46716
0
LINE
8
BLACK
6
CONTINUOUS
10
0.849374
20
1.46716
11
0.84899
21
1.46723
0
LINE
8
BLACK
6
CONTINUOUS
10
0.84899
20
1.46723
11
0.848402
21
1.46772
0
LINE
8
BLACK
6
CONTINUOUS
10
0.848402
20
1.46772
11
0.847738
21
1.4681
0
LINE
8
BLACK
6
CONTINUOUS
10
0.847738
20
1.4681
11
0.847647
21
1.46835
0
LINE
8
BLACK
6
CONTINUOUS
10
0.847647
20
1.46835
11
0.847443
21
1.46852
0
LINE
8
BLACK
6
CONTINUOUS
10
0.847443
20
1.46852
11
0.84731
21
1.46928
0
LINE
8
BLACK
6
CONTINUOUS
10
0.84731
20
1.46928
11
0.847047
21
1.47
0
LINE
8
BLACK
6
CONTINUOUS
10
0.847047
20
1.47
11
0.847047
21
1.67
0
LINE
8
BLACK
6
CONTINUOUS
10
0.847047
20
1.67
11
0.847115
21
1.67038
0
LINE
8
BLACK
6
CONTINUOUS
10
0.847115
20
1.67038
11
0.847092
21
1.67051
0
LINE
8
BLACK
6
CONTINUOUS
10
0.847092
20
1.67051
11
0.847158
21
1.67063
0
LINE
8
BLACK
6
CONTINUOUS
10
0.847158
20
1.67063
11
0.847225
21
1.67101
0
LINE
8
BLACK
6
CONTINUOUS
10
0.847225
20
1.67101
11
0.847718
21
1.6716
0
LINE
8
BLACK
6
CONTINUOUS
10
0.847718
20
1.6716
11
0.848102
21
1.67226
0
LINE
8
BLACK
6
CONTINUOUS
10
0.848102
20
1.67226
11
0.848352
21
1.67235
0
LINE
8
BLACK
6
CONTINUOUS
10
0.848352
20
1.67235
11
0.848524
21
1.67256
0
LINE
8
BLACK
6
CONTINUOUS
10
0.848524
20
1.67256
11
0.849279
21
1.67269
0
LINE
8
BLACK
6
CONTINUOUS
10
0.849279
20
1.67269
11
0.85
21
1.67295
0
LINE
8
BLACK
6
CONTINUOUS
10
0.85
20
1.67295
11
1.15
21
1.67295
0
LINE
8
BLACK
6
CONTINUOUS
10
1.15
20
1.67295
11
1.15038
21
1.67289
0
LINE
8
BLACK
6
CONTINUOUS
10
0.852953
20
1.66705
11
0.852953
21
1.47295
0
LINE
8
BLACK
6
CONTINUOUS
10
0.852953
20
1.47295
11
1.14705
21
1.47295
0
LINE
8
BLACK
6
CONTINUOUS
10
1.14705
20
1.47295
11
1.14705
21
1.66705
0
LINE
8
BLACK
6
CONTINUOUS
10
1.14705
20
1.66705
11
0.852953
21
1.66705
0
LINE
8
BLACK
6
CONTINUOUS
10
1.47792
20
0.429534
11
1.48197
21
0.442958
0
LINE
8
BLACK
6
CONTINUOUS
10
1.48197
20
0.442958
11
1.4875
21
0.455846
0
LINE
8
BLACK
6
CONTINUOUS
10
1.4875
20
0.455846
11
1.49442
21
0.468039
0
LINE
8
BLACK
6
CONTINUOUS
10
1.49442
20
0.468039
11
1.50267
21
0.479383
0
LINE
8
BLACK
6
CONTINUOUS
10
1.50267
20
0.479383
11
1.51212
21
0.489738
0
LINE
8
BLACK
6
CONTINUOUS
10
1.51212
20
0.489738
11
1.52267
21
0.498974
0
LINE
8
BLACK
6
CONTINUOUS
10
1.52267
20
0.498974
11
1.53419
21
0.506977
0
LINE
8
BLACK
6
CONTINUOUS
10
1.53419
20
0.506977
11
1.54652
21
0.513646
0
LINE
8
BLACK
6
CONTINUOUS
10
1.54652
20
0.513646
11
1.55952
21
0.518899
0
LINE
8
BLACK
6
CONTINUOUS
10
1.55952
20
0.518899
11
1.57303
21
0.52267
0
LINE
8
BLACK
6
CONTINUOUS
10
1.57303
20
0.52267
11
1.58687
21
0.524912
0
LINE
8
BLACK
6
CONTINUOUS
10
1.58687
20
0.524912
11
1.60088
21
0.525597
0
LINE
8
BLACK
6
CONTINUOUS
10
1.60088
20
0.525597
11
1.61487
21
0.524716
0
LINE
8
BLACK
6
CONTINUOUS
10
1.61487
20
0.524716
11
1.62868
21
0.522281
0
LINE
8
BLACK
6
CONTINUOUS
10
1.62868
20
0.522281
11
1.64213
21
0.518322
0
LINE
8
BLACK
6
CONTINUOUS
10
1.64213
20
0.518322
11
1.65506
21
0.512889
0
LINE
8
BLACK
6
CONTINUOUS
10
1.65506
20
0.512889
11
1.6673
21
0.506048
0
LINE
8
BLACK
6
CONTINUOUS
10
1.6673
20
0.506048
11
1.6787
21
0.497885
0
LINE
8
BLACK
6
CONTINUOUS
10
1.6787
20
0.497885
11
1.68912
21
0.488502
0
LINE
8
BLACK
6
CONTINUOUS
10
1.68912
20
0.488502
11
1.69843
21
0.478016
0
LINE
8
BLACK
6
CONTINUOUS
10
1.69843
20
0.478016
11
1.70651
21
0.466558
0
LINE
8
BLACK
6
CONTINUOUS
10
1.70651
20
0.466558
11
1.71327
21
0.45427
0
LINE
8
BLACK
6
CONTINUOUS
10
1.71327
20
0.45427
11
1.71861
21
0.441306
0
LINE
8
BLACK
6
CONTINUOUS
10
1.71861
20
0.441306
11
1.72248
21
0.427826
0
LINE
8
BLACK
6
CONTINUOUS
10
1.72248
20
0.427826
11
1.72482
21
0.414001
0
LINE
8
BLACK
6
CONTINUOUS
10
1.72482
20
0.414001
11
1.7256
21
0.4
0
LINE
8
BLACK
6
CONTINUOUS
10
1.7256
20
0.4
11
1.72555
21
0.396493
0
LINE
8
BLACK
6
CONTINUOUS
10
1.72555
20
0.396493
11
1.72438
21
0.38252
0
LINE
8
BLACK
6
CONTINUOUS
10
1.72438
20
0.38252
11
1.72165
21
0.368765
0
LINE
8
BLACK
6
CONTINUOUS
10
1.72165
20
0.368765
11
1.71741
21
0.355399
0
LINE
8
BLACK
6
CONTINUOUS
10
1.71741
20
0.355399
11
1.71171
21
0.342589
0
LINE
8
BLACK
6
CONTINUOUS
10
1.71171
20
0.342589
11
1.70461
21
0.330494
0
LINE
8
BLACK
6
CONTINUOUS
10
1.70461
20
0.330494
11
1.69622
21
0.319266
0
LINE
8
BLACK
6
CONTINUOUS
10
1.69622
20
0.319266
11
1.68662
21
0.309044
0
LINE
8
BLACK
6
CONTINUOUS
10
1.68662
20
0.309044
11
1.67594
21
0.299956
0
LINE
8
BLACK
6
CONTINUOUS
10
1.67594
20
0.299956
11
1.66431
21
0.292115
0
LINE
8
BLACK
6
CONTINUOUS
10
1.66431
20
0.292115
11
1.65189
21
0.285618
0
LINE
8
BLACK
6
CONTINUOUS
10
1.65189
20
0.285618
11
1.63881
21
0.280547
0
LINE
8
BLACK
6
CONTINUOUS
10
1.63881
20
0.280547
11
1.62526
21
0.276965
0
LINE
8
BLACK
6
CONTINUOUS
10
1.62526
20
0.276965
11
1.61138
21
0.274917
0
LINE
8
BLACK
6
CONTINUOUS
10
1.61138
20
0.274917
11
1.59737
21
0.274428
0
LINE
8
BLACK
6
CONTINUOUS
10
1.59737
20
0.274428
11
1.58339
21
0.275503
0
LINE
8
BLACK
6
CONTINUOUS
10
1.58339
20
0.275503
11
1.56961
21
0.278131
0
LINE
8
BLACK
6
CONTINUOUS
10
1.56961
20
0.278131
11
1.55622
21
0.282277
0
LINE
8
BLACK
6
CONTINUOUS
10
1.55622
20
0.282277
11
1.54337
21
0.287891
0
LINE
8
BLACK
6
CONTINUOUS
10
1.54337
20
0.287891
11
1.53123
21
0.294902
0
LINE
8
BLACK
6
CONTINUOUS
10
1.53123
20
0.294902
11
1.51994
21
0.303224
0
LINE
8
BLACK
6
CONTINUOUS
10
1.51994
20
0.303224
11
1.50965
21
0.312751
0
LINE
8
BLACK
6
CONTINUOUS
10
1.50965
20
0.312751
11
1.50049
21
0.323366
0
LINE
8
BLACK
6
CONTINUOUS
10
1.50049
20
0.323366
11
1.49257
21
0.334936
0
LINE
8
BLACK
6
CONTINUOUS
10
1.49257
20
0.334936
11
1.48598
21
0.347317
0
LINE
8
BLACK
6
CONTINUOUS
10
1.48598
20
0.347317
11
1.48082
21
0.360354
0
LINE
8
BLACK
6
CONTINUOUS
10
1.48082
20
0.360354
11
1.47714
21
0.373886
0
LINE
8
BLACK
6
CONTINUOUS
10
1.47714
20
0.373886
11
1.475
21
0.387744
0
LINE
8
BLACK
6
CONTINUOUS
10
1.475
20
0.387744
11
1.47441
21
0.401754
0
LINE
8
BLACK
6
CONTINUOUS
10
1.47441
20
0.401754
11
1.47453
21
0.40348
0
LINE
8
BLACK
6
CONTINUOUS
10
1.47453
20
0.40348
11
1.47539
21
0.415742
0
LINE
8
BLACK
6
CONTINUOUS
10
1.47539
20
0.415742
11
1.47792
21
0.429534
0
LINE
8
BLACK
6
CONTINUOUS
10
1.4914
20
0.378102
11
1.49463
21
0.365765
0
LINE
8
BLACK
6
CONTINUOUS
10
1.49463
20
0.365765
11
1.49927
21
0.353881
0
LINE
8
BLACK
6
CONTINUOUS
10
1.49927
20
0.353881
11
1.50524
21
0.342609
0
LINE
8
BLACK
6
CONTINUOUS
10
1.50524
20
0.342609
11
1.51246
21
0.332098
0
LINE
8
BLACK
6
CONTINUOUS
10
1.51246
20
0.332098
11
1.52085
21
0.322486
0
LINE
8
BLACK
6
CONTINUOUS
10
1.52085
20
0.322486
11
1.53028
21
0.313902
0
LINE
8
BLACK
6
CONTINUOUS
10
1.53028
20
0.313902
11
1.54064
21
0.306459
0
LINE
8
BLACK
6
CONTINUOUS
10
1.54064
20
0.306459
11
1.55178
21
0.300256
0
LINE
8
BLACK
6
CONTINUOUS
10
1.55178
20
0.300256
11
1.56357
21
0.295375
0
LINE
8
BLACK
6
CONTINUOUS
10
1.56357
20
0.295375
11
1.57583
21
0.291881
0
LINE
8
BLACK
6
CONTINUOUS
10
1.57583
20
0.291881
11
1.58842
21
0.289819
0
LINE
8
BLACK
6
CONTINUOUS
10
1.58842
20
0.289819
11
1.60116
21
0.289219
0
LINE
8
BLACK
6
CONTINUOUS
10
1.60116
20
0.289219
11
1.61389
21
0.290086
0
LINE
8
BLACK
6
CONTINUOUS
10
1.61389
20
0.290086
11
1.62643
21
0.292411
0
LINE
8
BLACK
6
CONTINUOUS
10
1.62643
20
0.292411
11
1.63862
21
0.296161
0
LINE
8
BLACK
6
CONTINUOUS
10
1.63862
20
0.296161
11
1.6503
21
0.301288
0
LINE
8
BLACK
6
CONTINUOUS
10
1.6503
20
0.301288
11
1.66131
21
0.307723
0
LINE
8
BLACK
6
CONTINUOUS
10
1.66131
20
0.307723
11
1.67151
21
0.315381
0
LINE
8
BLACK
6
CONTINUOUS
10
1.67151
20
0.315381
11
1.68076
21
0.324161
0
LINE
8
BLACK
6
CONTINUOUS
10
1.68076
20
0.324161
11
1.68894
21
0.333946
0
LINE
8
BLACK
6
CONTINUOUS
10
1.68894
20
0.333946
11
1.69594
21
0.344606
0
LINE
8
BLACK
6
CONTINUOUS
10
1.69594
20
0.344606
11
1.70168
21
0.356001
0
LINE
8
BLACK
6
CONTINUOUS
10
1.70168
20
0.356001
11
1.70606
21
0.367979
0
LINE
8
BLACK
6
CONTINUOUS
10
1.70606
20
0.367979
11
1.70904
21
0.380381
0
LINE
8
BLACK
6
CONTINUOUS
10
1.70904
20
0.380381
11
1.71057
21
0.393044
0
LINE
8
BLACK
6
CONTINUOUS
10
1.71057
20
0.393044
11
1.71079
21
0.4
0
LINE
8
BLACK
6
CONTINUOUS
10
1.71079
20
0.4
11
1.71005
21
0.412734
0
LINE
8
BLACK
6
CONTINUOUS
10
1.71005
20
0.412734
11
1.70786
21
0.425298
0
LINE
8
BLACK
6
CONTINUOUS
10
1.70786
20
0.425298
11
1.70424
21
0.437528
0
LINE
8
BLACK
6
CONTINUOUS
10
1.70424
20
0.437528
11
1.69923
21
0.44926
0
LINE
8
BLACK
6
CONTINUOUS
10
1.69923
20
0.44926
11
1.69291
21
0.460339
0
LINE
8
BLACK
6
CONTINUOUS
10
1.69291
20
0.460339
11
1.68536
21
0.470619
0
LINE
8
BLACK
6
CONTINUOUS
10
1.68536
20
0.470619
11
1.67668
21
0.479962
0
LINE
8
BLACK
6
CONTINUOUS
10
1.67668
20
0.479962
11
1.66698
21
0.488246
0
LINE
8
BLACK
6
CONTINUOUS
10
1.66698
20
0.488246
11
1.6564
21
0.495359
0
LINE
8
BLACK
6
CONTINUOUS
10
1.6564
20
0.495359
11
1.64506
21
0.501209
0
LINE
8
BLACK
6
CONTINUOUS
10
1.64506
20
0.501209
11
1.63313
21
0.505718
0
LINE
8
BLACK
6
CONTINUOUS
10
1.63313
20
0.505718
11
1.62076
21
0.508825
0
LINE
8
BLACK
6
CONTINUOUS
10
1.62076
20
0.508825
11
1.60811
21
0.51049
0
LINE
8
BLACK
6
CONTINUOUS
10
1.60811
20
0.51049
11
1.59536
21
0.51069
0
LINE
8
BLACK
6
CONTINUOUS
10
1.59536
20
0.51069
11
1.58267
21
0.509423
0
LINE
8
BLACK
6
CONTINUOUS
10
1.58267
20
0.509423
11
1.57021
21
0.506706
0
LINE
8
BLACK
6
CONTINUOUS
10
1.57021
20
0.506706
11
1.55814
21
0.502575
0
LINE
8
BLACK
6
CONTINUOUS
10
1.55814
20
0.502575
11
1.54663
21
0.497084
0
LINE
8
BLACK
6
CONTINUOUS
10
1.54663
20
0.497084
11
1.53582
21
0.490306
0
LINE
8
BLACK
6
CONTINUOUS
10
1.53582
20
0.490306
11
1.52587
21
0.482331
0
LINE
8
BLACK
6
CONTINUOUS
10
1.52587
20
0.482331
11
1.5169
21
0.473265
0
LINE
8
BLACK
6
CONTINUOUS
10
1.5169
20
0.473265
11
1.50903
21
0.463228
0
LINE
8
BLACK
6
CONTINUOUS
10
1.50903
20
0.463228
11
1.50236
21
0.452353
0
LINE
8
BLACK
6
CONTINUOUS
10
1.50236
20
0.452353
11
1.49699
21
0.440784
0
LINE
8
BLACK
6
CONTINUOUS
10
1.49699
20
0.440784
11
1.49299
21
0.428674
0
LINE
8
BLACK
6
CONTINUOUS
10
1.49299
20
0.428674
11
1.4904
21
0.416184
0
LINE
8
BLACK
6
CONTINUOUS
10
1.4904
20
0.416184
11
1.48927
21
0.40348
0
LINE
8
BLACK
6
CONTINUOUS
10
1.48927
20
0.40348
11
1.4896
21
0.39073
0
LINE
8
BLACK
6
CONTINUOUS
10
1.4896
20
0.39073
11
1.4914
21
0.378102
0
LINE
8
BLACK
6
CONTINUOUS
10
0.277922
20
0.429534
11
0.281975
21
0.442958
0
LINE
8
BLACK
6
CONTINUOUS
10
0.281975
20
0.442958
11
0.287499
21
0.455846
0
LINE
8
BLACK
6
CONTINUOUS
10
0.287499
20
0.455846
11
0.294425
21
0.468039
0
LINE
8
BLACK
6
CONTINUOUS
10
0.294425
20
0.468039
11
0.302667
21
0.479383
0
LINE
8
BLACK
6
CONTINUOUS
10
0.302667
20
0.479383
11
0.312122
21
0.489738
0
LINE
8
BLACK
6
CONTINUOUS
10
0.312122
20
0.489738
11
0.322673
21
0.498974
0
LINE
8
BLACK
6
CONTINUOUS
10
0.322673
20
0.498974
11
0.334187
21
0.506977
0
LINE
8
BLACK
6
CONTINUOUS
10
0.334187
20
0.506977
11
0.346522
21
0.513646
0
LINE
8
BLACK
6
CONTINUOUS
10
0.346522
20
0.513646
11
0.359523
21
0.518899
0
LINE
8
BLACK
6
CONTINUOUS
10
0.359523
20
0.518899
11
0.373029
21
0.52267
0
LINE
8
BLACK
6
CONTINUOUS
10
0.373029
20
0.52267
11
0.386871
21
0.524912
0
LINE
8
BLACK
6
CONTINUOUS
10
0.386871
20
0.524912
11
0.400877
21
0.525597
0
LINE
8
BLACK
6
CONTINUOUS
10
0.400877
20
0.525597
11
0.414872
21
0.524716
0
LINE
8
BLACK
6
CONTINUOUS
10
0.414872
20
0.524716
11
0.428681
21
0.522281
0
LINE
8
BLACK
6
CONTINUOUS
10
0.428681
20
0.522281
11
0.442133
21
0.518322
0
LINE
8
BLACK
6
CONTINUOUS
10
0.442133
20
0.518322
11
0.455059
21
0.512889
0
LINE
8
BLACK
6
CONTINUOUS
10
0.455059
20
0.512889
11
0.4673
21
0.506048
0
LINE
8
BLACK
6
CONTINUOUS
10
0.4673
20
0.506048
11
0.478701
21
0.497885
0
LINE
8
BLACK
6
CONTINUOUS
10
0.478701
20
0.497885
11
0.489122
21
0.488502
0
LINE
8
BLACK
6
CONTINUOUS
10
0.489122
20
0.488502
11
0.498432
21
0.478016
0
LINE
8
BLACK
6
CONTINUOUS
10
0.498432
20
0.478016
11
0.506515
21
0.466558
0
LINE
8
BLACK
6
CONTINUOUS
10
0.506515
20
0.466558
11
0.51327
21
0.45427
0
LINE
8
BLACK
6
CONTINUOUS
10
0.51327
20
0.45427
11
0.518614
21
0.441306
0
LINE
8
BLACK
6
CONTINUOUS
10
0.518614
20
0.441306
11
0.522479
21
0.427826
0
LINE
8
BLACK
6
CONTINUOUS
10
0.522479
20
0.427826
11
0.524817
21
0.414001
0
LINE
8
BLACK
6
CONTINUOUS
10
0.524817
20
0.414001
11
0.5256
21
0.4
0
LINE
8
BLACK
6
CONTINUOUS
10
0.5256
20
0.4
11
0.525551
21
0.396493
0
LINE
8
BLACK
6
CONTINUOUS
10
0.525551
20
0.396493
11
0.524378
21
0.38252
0
LINE
8
BLACK
6
CONTINUOUS
10
0.524378
20
0.38252
11
0.521654
21
0.368765
0
LINE
8
BLACK
6
CONTINUOUS
10
0.521654
20
0.368765
11
0.517414
21
0.355399
0
LINE
8
BLACK
6
CONTINUOUS
10
0.517414
20
0.355399
11
0.511711
21
0.342589
0
LINE
8
BLACK
6
CONTINUOUS
10
0.511711
20
0.342589
11
0.504615
21
0.330494
0
LINE
8
BLACK
6
CONTINUOUS
10
0.504615
20
0.330494
11
0.496215
21
0.319266
0
LINE
8
BLACK
6
CONTINUOUS
10
0.496215
20
0.319266
11
0.486616
21
0.309044
0
LINE
8
BLACK
6
CONTINUOUS
10
0.486616
20
0.309044
11
0.475938
21
0.299956
0
LINE
8
BLACK
6
CONTINUOUS
10
0.475938
20
0.299956
11
0.464313
21
0.292115
0
LINE
8
BLACK
6
CONTINUOUS
10
0.464313
20
0.292115
11
0.451886
21
0.285618
0
LINE
8
BLACK
6
CONTINUOUS
10
0.451886
20
0.285618
11
0.438813
21
0.280547
0
LINE
8
BLACK
6
CONTINUOUS
10
0.438813
20
0.280547
11
0.425255
21
0.276965
0
LINE
8
BLACK
6
CONTINUOUS
10
0.425255
20
0.276965
11
0.411383
21
0.274917
0
LINE
8
BLACK
6
CONTINUOUS
10
0.411383
20
0.274917
11
0.39737
21
0.274428
0
LINE
8
BLACK
6
CONTINUOUS
10
0.39737
20
0.274428
11
0.383389
21
0.275503
0
LINE
8
BLACK
6
CONTINUOUS
10
0.383389
20
0.275503
11
0.369615
21
0.278131
0
LINE
8
BLACK
6
CONTINUOUS
10
0.369615
20
0.278131
11
0.356219
21
0.282277
0
LINE
8
BLACK
6
CONTINUOUS
10
0.356219
20
0.282277
11
0.34337
21
0.287891
0
LINE
8
BLACK
6
CONTINUOUS
10
0.34337
20
0.287891
11
0.331226
21
0.294902
0
LINE
8
BLACK
6
CONTINUOUS
10
0.331226
20
0.294902
11
0.31994
21
0.303224
0
LINE
8
BLACK
6
CONTINUOUS
10
0.31994
20
0.303224
11
0.309651
21
0.312751
0
LINE
8
BLACK
6
CONTINUOUS
10
0.309651
20
0.312751
11
0.300488
21
0.323366
0
LINE
8
BLACK
6
CONTINUOUS
10
0.300488
20
0.323366
11
0.292566
21
0.334936
0
LINE
8
BLACK
6
CONTINUOUS
10
0.292566
20
0.334936
11
0.285983
21
0.347317
0
LINE
8
BLACK
6
CONTINUOUS
10
0.285983
20
0.347317
11
0.280821
21
0.360354
0
LINE
8
BLACK
6
CONTINUOUS
10
0.280821
20
0.360354
11
0.277145
21
0.373886
0
LINE
8
BLACK
6
CONTINUOUS
10
0.277145
20
0.373886
11
0.274999
21
0.387744
0
LINE
8
BLACK
6
CONTINUOUS
10
0.274999
20
0.387744
11
0.274412
21
0.401754
0
LINE
8
BLACK
6
CONTINUOUS
10
0.274412
20
0.401754
11
0.274533
21
0.40348
0
LINE
8
BLACK
6
CONTINUOUS
10
0.274533
20
0.40348
11
0.27539
21
0.415742
0
LINE
8
BLACK
6
CONTINUOUS
10
0.27539
20
0.415742
11
0.277922
21
0.429534
0
LINE
8
BLACK
6
CONTINUOUS
10
0.291398
20
0.378102
11
0.294635
21
0.365765
0
LINE
8
BLACK
6
CONTINUOUS
10
0.294635
20
0.365765
11
0.299268
21
0.353881
0
LINE
8
BLACK
6
CONTINUOUS
10
0.299268
20
0.353881
11
0.305236
21
0.342609
0
LINE
8
BLACK
6
CONTINUOUS
10
0.305236
20
0.342609
11
0.312461
21
0.332098
0
LINE
8
BLACK
6
CONTINUOUS
10
0.312461
20
0.332098
11
0.320845
21
0.322486
0
LINE
8
BLACK
6
CONTINUOUS
10
0.320845
20
0.322486
11
0.330279
21
0.313902
0
LINE
8
BLACK
6
CONTINUOUS
10
0.330279
20
0.313902
11
0.340637
21
0.306459
0
LINE
8
BLACK
6
CONTINUOUS
10
0.340637
20
0.306459
11
0.351782
21
0.300256
0
LINE
8
BLACK
6
CONTINUOUS
10
0.351782
20
0.300256
11
0.363566
21
0.295375
0
LINE
8
BLACK
6
CONTINUOUS
10
0.363566
20
0.295375
11
0.375832
21
0.291881
0
LINE
8
BLACK
6
CONTINUOUS
10
0.375832
20
0.291881
11
0.38842
21
0.289819
0
LINE
8
BLACK
6
CONTINUOUS
10
0.38842
20
0.289819
11
0.40116
21
0.289219
0
LINE
8
BLACK
6
CONTINUOUS
10
0.40116
20
0.289219
11
0.413885
21
0.290086
0
LINE
8
BLACK
6
CONTINUOUS
10
0.413885
20
0.290086
11
0.426426
21
0.292411
0
LINE
8
BLACK
6
CONTINUOUS
10
0.426426
20
0.292411
11
0.438617
21
0.296161
0
LINE
8
BLACK
6
CONTINUOUS
10
0.438617
20
0.296161
11
0.450296
21
0.301288
0
LINE
8
BLACK
6
CONTINUOUS
10
0.450296
20
0.301288
11
0.461309
21
0.307723
0
LINE
8
BLACK
6
CONTINUOUS
10
0.461309
20
0.307723
11
0.471509
21
0.315381
0
LINE
8
BLACK
6
CONTINUOUS
10
0.471509
20
0.315381
11
0.480761
21
0.324161
0
LINE
8
BLACK
6
CONTINUOUS
10
0.480761
20
0.324161
11
0.488942
21
0.333946
0
LINE
8
BLACK
6
CONTINUOUS
10
0.488942
20
0.333946
11
0.495945
21
0.344606
0
LINE
8
BLACK
6
CONTINUOUS
10
0.495945
20
0.344606
11
0.501676
21
0.356001
0
LINE
8
BLACK
6
CONTINUOUS
10
0.501676
20
0.356001
11
0.506059
21
0.367979
0
LINE
8
BLACK
6
CONTINUOUS
10
0.506059
20
0.367979
11
0.509036
21
0.380381
0
LINE
8
BLACK
6
CONTINUOUS
10
0.509036
20
0.380381
11
0.510569
21
0.393044
0
LINE
8
BLACK
6
CONTINUOUS
10
0.510569
20
0.393044
11
0.510787
21
0.4
0
LINE
8
BLACK
6
CONTINUOUS
10
0.510787
20
0.4
11
0.510053
21
0.412734
0
LINE
8
BLACK
6
CONTINUOUS
10
0.510053
20
0.412734
11
0.50786
21
0.425298
0
LINE
8
BLACK
6
CONTINUOUS
10
0.50786
20
0.425298
11
0.504238
21
0.437528
0
LINE
8
BLACK
6
CONTINUOUS
10
0.504238
20
0.437528
11
0.499234
21
0.44926
0
LINE
8
BLACK
6
CONTINUOUS
10
0.499234
20
0.44926
11
0.492914
21
0.460339
0
LINE
8
BLACK
6
CONTINUOUS
10
0.492914
20
0.460339
11
0.485363
21
0.470619
0
LINE
8
BLACK
6
CONTINUOUS
10
0.485363
20
0.470619
11
0.476681
21
0.479962
0
LINE
8
BLACK
6
CONTINUOUS
10
0.476681
20
0.479962
11
0.466982
21
0.488246
0
LINE
8
BLACK
6
CONTINUOUS
10
0.466982
20
0.488246
11
0.456395
21
0.495359
0
LINE
8
BLACK
6
CONTINUOUS
10
0.456395
20
0.495359
11
0.445061
21
0.501209
0
LINE
8
BLACK
6
CONTINUOUS
10
0.445061
20
0.501209
11
0.43313
21
0.505718
0
LINE
8
BLACK
6
CONTINUOUS
10
0.43313
20
0.505718
11
0.420759
21
0.508825
0
LINE
8
BLACK
6
CONTINUOUS
10
0.420759
20
0.508825
11
0.408114
21
0.51049
0
LINE
8
BLACK
6
CONTINUOUS
10
0.408114
20
0.51049
11
0.395361
21
0.51069
0
LINE
8
BLACK
6
CONTINUOUS
10
0.395361
20
0.51069
11
0.382669
21
0.509423
0
LINE
8
BLACK
6
CONTINUOUS
10
0.382669
20
0.509423
11
0.370207
21
0.506706
0
LINE
8
BLACK
6
CONTINUOUS
10
0.370207
20
0.506706
11
0.35814
21
0.502575
0
LINE
8
BLACK
6
CONTINUOUS
10
0.35814
20
0.502575
11
0.346628
21
0.497084
0
LINE
8
BLACK
6
CONTINUOUS
10
0.346628
20
0.497084
11
0.335823
21
0.490306
0
LINE
8
BLACK
6
CONTINUOUS
10
0.335823
20
0.490306
11
0.325869
21
0.482331
0
LINE
8
BLACK
6
CONTINUOUS
10
0.325869
20
0.482331
11
0.316897
21
0.473265
0
LINE
8
BLACK
6
CONTINUOUS
10
0.316897
20
0.473265
11
0.309027
21
0.463228
0
LINE
8
BLACK
6
CONTINUOUS
10
0.309027
20
0.463228
11
0.302363
21
0.452353
0
LINE
8
BLACK
6
CONTINUOUS
10
0.302363
20
0.452353
11
0.296992
21
0.440784
0
LINE
8
BLACK
6
CONTINUOUS
10
0.296992
20
0.440784
11
0.292988
21
0.428674
0
LINE
8
BLACK
6
CONTINUOUS
10
0.292988
20
0.428674
11
0.290401
21
0.416184
0
LINE
8
BLACK
6
CONTINUOUS
10
0.290401
20
0.416184
11
0.289267
21
0.40348
0
LINE
8
BLACK
6
CONTINUOUS
10
0.289267
20
0.40348
11
0.289601
21
0.39073
0
LINE
8
BLACK
6
CONTINUOUS
10
0.289601
20
0.39073
11
0.291398
21
0.378102
0
LINE
8
BLACK
6
CONTINUOUS
10
1.47792
20
1.62953
11
1.48197
21
1.64296
0
LINE
8
BLACK
6
CONTINUOUS
10
1.48197
20
1.64296
11
1.4875
21
1.65585
0
LINE
8
BLACK
6
CONTINUOUS
10
1.4875
20
1.65585
11
1.49442
21
1.66804
0
LINE
8
BLACK
6
CONTINUOUS
10
1.49442
20
1.66804
11
1.50267
21
1.67938
0
LINE
8
BLACK
6
CONTINUOUS
10
1.50267
20
1.67938
11
1.51212
21
1.68974
0
LINE
8
BLACK
6
CONTINUOUS
10
1.51212
20
1.68974
11
1.52267
21
1.69897
0
LINE
8
BLACK
6
CONTINUOUS
10
1.52267
20
1.69897
11
1.53419
21
1.70698
0
LINE
8
BLACK
6
CONTINUOUS
10
1.53419
20
1.70698
11
1.54652
21
1.71365
0
LINE
8
BLACK
6
CONTINUOUS
10
1.54652
20
1.71365
11
1.55952
21
1.7189
0
LINE
8
BLACK
6
CONTINUOUS
10
1.55952
20
1.7189
11
1.57303
21
1.72267
0
LINE
8
BLACK
6
CONTINUOUS
10
1.57303
20
1.72267
11
1.58687
21
1.72491
0
LINE
8
BLACK
6
CONTINUOUS
10
1.58687
20
1.72491
11
1.60088
21
1.7256
0
LINE
8
BLACK
6
CONTINUOUS
10
1.60088
20
1.7256
11
1.61487
21
1.72472
0
LINE
8
BLACK
6
CONTINUOUS
10
1.61487
20
1.72472
11
1.62868
21
1.72228
0
LINE
8
BLACK
6
CONTINUOUS
10
1.62868
20
1.72228
11
1.64213
21
1.71832
0
LINE
8
BLACK
6
CONTINUOUS
10
1.64213
20
1.71832
11
1.65506
21
1.71289
0
LINE
8
BLACK
6
CONTINUOUS
10
1.65506
20
1.71289
11
1.6673
21
1.70605
0
LINE
8
BLACK
6
CONTINUOUS
10
1.6673
20
1.70605
11
1.6787
21
1.69788
0
LINE
8
BLACK
6
CONTINUOUS
10
1.6787
20
1.69788
11
1.68912
21
1.6885
0
LINE
8
BLACK
6
CONTINUOUS
10
1.68912
20
1.6885
11
1.69843
21
1.67802
0
LINE
8
BLACK
6
CONTINUOUS
10
1.69843
20
1.67802
11
1.70651
21
1.66656
0
LINE
8
BLACK
6
CONTINUOUS
10
1.70651
20
1.66656
11
1.71327
21
1.65427
0
LINE
8
BLACK
6
CONTINUOUS
10
1.71327
20
1.65427
11
1.71861
21
1.64131
0
LINE
8
BLACK
6
CONTINUOUS
10
1.71861
20
1.64131
11
1.72248
21
1.62783
0
LINE
8
BLACK
6
CONTINUOUS
10
1.72248
20
1.62783
11
1.72482
21
1.614
0
LINE
8
BLACK
6
CONTINUOUS
10
1.72482
20
1.614
11
1.7256
21
1.6
0
LINE
8
BLACK
6
CONTINUOUS
10
1.7256
20
1.6
11
1.72555
21
1.59649
0
LINE
8
BLACK
6
CONTINUOUS
10
1.72555
20
1.59649
11
1.72438
21
1.58252
0
LINE
8
BLACK
6
CONTINUOUS
10
1.72438
20
1.58252
11
1.72165
21
1.56876
0
LINE
8
BLACK
6
CONTINUOUS
10
1.72165
20
1.56876
11
1.71741
21
1.5554
0
LINE
8
BLACK
6
CONTINUOUS
10
1.71741
20
1.5554
11
1.71171
21
1.54259
0
LINE
8
BLACK
6
CONTINUOUS
10
1.71171
20
1.54259
11
1.70461
21
1.53049
0
LINE
8
BLACK
6
CONTINUOUS
10
1.70461
20
1.53049
11
1.69622
21
1.51927
0
LINE
8
BLACK
6
CONTINUOUS
10
1.69622
20
1.51927
11
1.68662
21
1.50904
0
LINE
8
BLACK
6
CONTINUOUS
10
1.68662
20
1.50904
11
1.67594
21
1.49996
0
LINE
8
BLACK
6
CONTINUOUS
10
1.67594
20
1.49996
11
1.66431
21
1.49211
0
LINE
8
BLACK
6
CONTINUOUS
10
1.66431
20
1.49211
11
1.65189
21
1.48562
0
LINE
8
BLACK
6
CONTINUOUS
10
1.65189
20
1.48562
11
1.63881
21
1.48055
0
LINE
8
BLACK
6
CONTINUOUS
10
1.63881
20
1.48055
11
1.62526
21
1.47697
0
LINE
8
BLACK
6
CONTINUOUS
10
1.62526
20
1.47697
11
1.61138
21
1.47492
0
LINE
8
BLACK
6
CONTINUOUS
10
1.61138
20
1.47492
11
1.59737
21
1.47443
0
LINE
8
BLACK
6
CONTINUOUS
10
1.59737
20
1.47443
11
1.58339
21
1.4755
0
LINE
8
BLACK
6
CONTINUOUS
10
1.58339
20
1.4755
11
1.56961
21
1.47813
0
LINE
8
BLACK
6
CONTINUOUS
10
1.56961
20
1.47813
11
1.55622
21
1.48228
0
LINE
8
BLACK
6
CONTINUOUS
10
1.55622
20
1.48228
11
1.54337
21
1.48789
0
LINE
8
BLACK
6
CONTINUOUS
10
1.54337
20
1.48789
11
1.53123
21
1.4949
0
LINE
8
BLACK
6
CONTINUOUS
10
1.53123
20
1.4949
11
1.51994
21
1.50322
0
LINE
8
BLACK
6
CONTINUOUS
10
1.51994
20
1.50322
11
1.50965
21
1.51275
0
LINE
8
BLACK
6
CONTINUOUS
10
1.50965
20
1.51275
11
1.50049
21
1.52337
0
LINE
8
BLACK
6
CONTINUOUS
10
1.50049
20
1.52337
11
1.49257
21
1.53494
0
LINE
8
BLACK
6
CONTINUOUS
10
1.49257
20
1.53494
11
1.48598
21
1.54732
0
LINE
8
BLACK
6
CONTINUOUS
10
1.48598
20
1.54732
11
1.48082
21
1.56035
0
LINE
8
BLACK
6
CONTINUOUS
10
1.48082
20
1.56035
11
1.47714
21
1.57389
0
LINE
8
BLACK
6
CONTINUOUS
10
1.47714
20
1.57389
11
1.475
21
1.58774
0
LINE
8
BLACK
6
CONTINUOUS
10
1.475
20
1.58774
11
1.47441
21
1.60175
0
LINE
8
BLACK
6
CONTINUOUS
10
1.47441
20
1.60175
11
1.47453
21
1.60348
0
LINE
8
BLACK
6
CONTINUOUS
10
1.47453
20
1.60348
11
1.47539
21
1.61574
0
LINE
8
BLACK
6
CONTINUOUS
10
1.47539
20
1.61574
11
1.47792
21
1.62953
0
LINE
8
BLACK
6
CONTINUOUS
10
1.4914
20
1.5781
11
1.49463
21
1.56576
0
LINE
8
BLACK
6
CONTINUOUS
10
1.49463
20
1.56576
11
1.49927
21
1.55388
0
LINE
8
BLACK
6
CONTINUOUS
10
1.49927
20
1.55388
11
1.50524
21
1.54261
0
LINE
8
BLACK
6
CONTINUOUS
10
1.50524
20
1.54261
11
1.51246
21
1.5321
0
LINE
8
BLACK
6
CONTINUOUS
10
1.51246
20
1.5321
11
1.52085
21
1.52249
0
LINE
8
BLACK
6
CONTINUOUS
10
1.52085
20
1.52249
11
1.53028
21
1.5139
0
LINE
8
BLACK
6
CONTINUOUS
10
1.53028
20
1.5139
11
1.54064
21
1.50646
0
LINE
8
BLACK
6
CONTINUOUS
10
1.54064
20
1.50646
11
1.55178
21
1.50026
0
LINE
8
BLACK
6
CONTINUOUS
10
1.55178
20
1.50026
11
1.56357
21
1.49537
0
LINE
8
BLACK
6
CONTINUOUS
10
1.56357
20
1.49537
11
1.57583
21
1.49188
0
LINE
8
BLACK
6
CONTINUOUS
10
1.57583
20
1.49188
11
1.58842
21
1.48982
0
LINE
8
BLACK
6
CONTINUOUS
10
1.58842
20
1.48982
11
1.60116
21
1.48922
0
LINE
8
BLACK
6
CONTINUOUS
10
1.60116
20
1.48922
11
1.61389
21
1.49009
0
LINE
8
BLACK
6
CONTINUOUS
10
1.61389
20
1.49009
11
1.62643
21
1.49241
0
LINE
8
BLACK
6
CONTINUOUS
10
1.62643
20
1.49241
11
1.63862
21
1.49616
0
LINE
8
BLACK
6
CONTINUOUS
10
1.63862
20
1.49616
11
1.6503
21
1.50129
0
LINE
8
BLACK
6
CONTINUOUS
10
1.6503
20
1.50129
11
1.66131
21
1.50772
0
LINE
8
BLACK
6
CONTINUOUS
10
1.66131
20
1.50772
11
1.67151
21
1.51538
0
LINE
8
BLACK
6
CONTINUOUS
10
1.67151
20
1.51538
11
1.68076
21
1.52416
0
LINE
8
BLACK
6
CONTINUOUS
10
1.68076
20
1.52416
11
1.68894
21
1.53395
0
LINE
8
BLACK
6
CONTINUOUS
10
1.68894
20
1.53395
11
1.69594
21
1.54461
0
LINE
8
BLACK
6
CONTINUOUS
10
1.69594
20
1.54461
11
1.70168
21
1.556
0
LINE
8
BLACK
6
CONTINUOUS
10
1.70168
20
1.556
11
1.70606
21
1.56798
0
LINE
8
BLACK
6
CONTINUOUS
10
1.70606
20
1.56798
11
1.70904
21
1.58038
0
LINE
8
BLACK
6
CONTINUOUS
10
1.70904
20
1.58038
11
1.71057
21
1.59304
0
LINE
8
BLACK
6
CONTINUOUS
10
1.71057
20
1.59304
11
1.71079
21
1.6
0
LINE
8
BLACK
6
CONTINUOUS
10
1.71079
20
1.6
11
1.71005
21
1.61273
0
LINE
8
BLACK
6
CONTINUOUS
10
1.71005
20
1.61273
11
1.70786
21
1.6253
0
LINE
8
BLACK
6
CONTINUOUS
10
1.70786
20
1.6253
11
1.70424
21
1.63753
0
LINE
8
BLACK
6
CONTINUOUS
10
1.70424
20
1.63753
11
1.69923
21
1.64926
0
LINE
8
BLACK
6
CONTINUOUS
10
1.69923
20
1.64926
11
1.69291
21
1.66034
0
LINE
8
BLACK
6
CONTINUOUS
10
1.69291
20
1.66034
11
1.68536
21
1.67062
0
LINE
8
BLACK
6
CONTINUOUS
10
1.68536
20
1.67062
11
1.67668
21
1.67996
0
LINE
8
BLACK
6
CONTINUOUS
10
1.67668
20
1.67996
11
1.66698
21
1.68825
0
LINE
8
BLACK
6
CONTINUOUS
10
1.66698
20
1.68825
11
1.6564
21
1.69536
0
LINE
8
BLACK
6
CONTINUOUS
10
1.6564
20
1.69536
11
1.64506
21
1.70121
0
LINE
8
BLACK
6
CONTINUOUS
10
1.64506
20
1.70121
11
1.63313
21
1.70572
0
LINE
8
BLACK
6
CONTINUOUS
10
1.63313
20
1.70572
11
1.62076
21
1.70883
0
LINE
8
BLACK
6
CONTINUOUS
10
1.62076
20
1.70883
11
1.60811
21
1.71049
0
LINE
8
BLACK
6
CONTINUOUS
10
1.60811
20
1.71049
11
1.59536
21
1.71069
0
LINE
8
BLACK
6
CONTINUOUS
10
1.59536
20
1.71069
11
1.58267
21
1.70942
0
LINE
8
BLACK
6
CONTINUOUS
10
1.58267
20
1.70942
11
1.57021
21
1.70671
0
LINE
8
BLACK
6
CONTINUOUS
10
1.57021
20
1.70671
11
1.55814
21
1.70257
0
LINE
8
BLACK
6
CONTINUOUS
10
1.55814
20
1.70257
11
1.54663
21
1.69708
0
LINE
8
BLACK
6
CONTINUOUS
10
1.54663
20
1.69708
11
1.53582
21
1.69031
0
LINE
8
BLACK
6
CONTINUOUS
10
1.53582
20
1.69031
11
1.52587
21
1.68233
0
LINE
8
BLACK
6
CONTINUOUS
10
1.52587
20
1.68233
11
1.5169
21
1.67327
0
LINE
8
BLACK
6
CONTINUOUS
10
1.5169
20
1.67327
11
1.50903
21
1.66323
0
LINE
8
BLACK
6
CONTINUOUS
10
1.50903
20
1.66323
11
1.50236
21
1.65235
0
LINE
8
BLACK
6
CONTINUOUS
10
1.50236
20
1.65235
11
1.49699
21
1.64078
0
LINE
8
BLACK
6
CONTINUOUS
10
1.49699
20
1.64078
11
1.49299
21
1.62867
0
LINE
8
BLACK
6
CONTINUOUS
10
1.49299
20
1.62867
11
1.4904
21
1.61618
0
LINE
8
BLACK
6
CONTINUOUS
10
1.4904
20
1.61618
11
1.48927
21
1.60348
0
LINE
8
BLACK
6
CONTINUOUS
10
1.48927
20
1.60348
11
1.4896
21
1.59073
0
LINE
8
BLACK
6
CONTINUOUS
10
1.4896
20
1.59073
11
1.4914
21
1.5781
0
LINE
8
BLACK
6
CONTINUOUS
10
0.277922
20
1.62953
11
0.281975
21
1.64296
0
LINE
8
BLACK
6
CONTINUOUS
10
0.281975
20
1.64296
11
0.287499
21
1.65585
0
LINE
8
BLACK
6
CONTINUOUS
10
0.287499
20
1.65585
11
0.294425
21
1.66804
0
LINE
8
BLACK
6
CONTINUOUS
10
0.294425
20
1.66804
11
0.302667
21
1.67938
0
LINE
8
BLACK
6
CONTINUOUS
10
0.302667
20
1.67938
11
0.312122
21
1.68974
0
LINE
8
BLACK
6
CONTINUOUS
10
0.312122
20
1.68974
11
0.322673
21
1.69897
0
LINE
8
BLACK
6
CONTINUOUS
10
0.322673
20
1.69897
11
0.334187
21
1.70698
0
LINE
8
BLACK
6
CONTINUOUS
10
0.334187
20
1.70698
11
0.346522
21
1.71365
0
LINE
8
BLACK
6
CONTINUOUS
10
0.346522
20
1.71365
11
0.359523
21
1.7189
0
LINE
8
BLACK
6
CONTINUOUS
10
0.359523
20
1.7189
11
0.373029
21
1.72267
0
LINE
8
BLACK
6
CONTINUOUS
10
0.373029
20
1.72267
11
0.386871
21
1.72491
0
LINE
8
BLACK
6
CONTINUOUS
10
0.386871
20
1.72491
11
0.400877
21
1.7256
0
LINE
8
BLACK
6
CONTINUOUS
10
0.400877
20
1.7256
11
0.414872
21
1.72472
0
LINE
8
BLACK
6
CONTINUOUS
10
0.414872
20
1.72472
11
0.428681
21
1.72228
0
LINE
8
BLACK
6
CONTINUOUS
10
0.428681
20
1.72228
11
0.442133
21
1.71832
0
LINE
8
BLACK
6
CONTINUOUS
10
0.442133
20
1.71832
11
0.455059
21
1.71289
0
LINE
8
BLACK
6
CONTINUOUS
10
0.455059
20
1.71289
11
0.4673
21
1.70605
0
LINE
8
BLACK
6
CONTINUOUS
10
0.4673
20
1.70605
11
0.478701
21
1.69788
0
LINE
8
BLACK
6
CONTINUOUS
10
0.478701
20
1.69788
11
0.489122
21
1.6885
0
LINE
8
BLACK
6
CONTINUOUS
10
0.489122
20
1.6885
11
0.498432
21
1.67802
0
LINE
8
BLACK
6
CONTINUOUS
10
0.498432
20
1.67802
11
0.506515
21
1.66656
0
LINE
8
BLACK
6
CONTINUOUS
10
0.506515
20
1.66656
11
0.51327
21
1.65427
0
LINE
8
BLACK
6
CONTINUOUS
10
0.51327
20
1.65427
11
0.518614
21
1.64131
0
LINE
8
BLACK
6
CONTINUOUS
10
0.518614
20
1.64131
11
0.522479
21
1.62783
0
LINE
8
BLACK
6
CONTINUOUS
10
0.522479
20
1.62783
11
0.524817
21
1.614
0
LINE
8
BLACK
6
CONTINUOUS
10
0.524817
20
1.614
11
0.5256
21
1.6
0
LINE
8
BLACK
6
CONTINUOUS
10
0.5256
20
1.6
11
0.525551
21
1.59649
0
LINE
8
BLACK
6
CONTINUOUS
10
0.525551
20
1.59649
11
0.524378
21
1.58252
0
LINE
8
BLACK
6
CONTINUOUS
10
0.524378
20
1.58252
11
0.521654
21
1.56876
0
LINE
8
BLACK
6
CONTINUOUS
10
0.521654
20
1.56876
11
0.517414
21
1.5554
0
LINE
8
BLACK
6
CONTINUOUS
10
0.517414
20
1.5554
11
0.511711
21
1.54259
0
LINE
8
BLACK
6
CONTINUOUS
10
0.511711
20
1.54259
11
0.504615
21
1.53049
0
LINE
8
BLACK
6
CONTINUOUS
10
0.504615
20
1.53049
11
0.496215
21
1.51927
0
LINE
8
BLACK
6
CONTINUOUS
10
0.496215
20
1.51927
11
0.486616
21
1.50904
0
LINE
8
BLACK
6
CONTINUOUS
10
0.486616
20
1.50904
11
0.475938
21
1.49996
0
LINE
8
BLACK
6
CONTINUOUS
10
0.475938
20
1.49996
11
0.464313
21
1.49211
0
LINE
8
BLACK
6
CONTINUOUS
10
0.464313
20
1.49211
11
0.451886
21
1.48562
0
LINE
8
BLACK
6
CONTINUOUS
10
0.451886
20
1.48562
11
0.438813
21
1.48055
0
LINE
8
BLACK
6
CONTINUOUS
10
0.438813
20
1.48055
11
0.425255
21
1.47697
0
LINE
8
BLACK
6
CONTINUOUS
10
0.425255
20
1.47697
11
0.411383
21
1.47492
0
LINE
8
BLACK
6
CONTINUOUS
10
0.411383
20
1.47492
11
0.39737
21
1.47443
0
LINE
8
BLACK
6
CONTINUOUS
10
0.39737
20
1.47443
11
0.383389
21
1.4755
0
LINE
8
BLACK
6
CONTINUOUS
10
0.383389
20
1.4755
11
0.369615
21
1.47813
0
LINE
8
BLACK
6
CONTINUOUS
10
0.369615
20
1.47813
11
0.356219
21
1.48228
0
LINE
8
BLACK
6
CONTINUOUS
10
0.356219
20
1.48228
11
0.34337
21
1.48789
0
LINE
8
BLACK
6
CONTINUOUS
10
0.34337
20
1.48789
11
0.331226
21
1.4949
0
LINE
8
BLACK
6
CONTINUOUS
10
0.331226
20
1.4949
11
0.31994
21
1.50322
0
LINE
8
BLACK
6
CONTINUOUS
10
0.31994
20
1.50322
11
0.309651
21
1.51275
0
LINE
8
BLACK
6
CONTINUOUS
10
0.309651
20
1.51275
11
0.300488
21
1.52337
0
LINE
8
BLACK
6
CONTINUOUS
10
0.300488
20
1.52337
11
0.292566
21
1.53494
0
LINE
8
BLACK
6
CONTINUOUS
10
0.292566
20
1.53494
11
0.285983
21
1.54732
0
LINE
8
BLACK
6
CONTINUOUS
10
0.285983
20
1.54732
11
0.280821
21
1.56035
0
LINE
8
BLACK
6
CONTINUOUS
10
0.280821
20
1.56035
11
0.277145
21
1.57389
0
LINE
8
BLACK
6
CONTINUOUS
10
0.277145
20
1.57389
11
0.274999
21
1.58774
0
LINE
8
BLACK
6
CONTINUOUS
10
0.274999
20
1.58774
11
0.274412
21
1.60175
0
LINE
8
BLACK
6
CONTINUOUS
10
0.274412
20
1.60175
11
0.274533
21
1.60348
0
LINE
8
BLACK
6
CONTINUOUS
10
0.274533
20
1.60348
11
0.27539
21
1.61574
0
LINE
8
BLACK
6
CONTINUOUS
10
0.27539
20
1.61574
11
0.277922
21
1.62953
0
LINE
8
BLACK
6
CONTINUOUS
10
0.291398
20
1.5781
11
0.294635
21
1.56576
0
LINE
8
BLACK
6
CONTINUOUS
10
0.294635
20
1.56576
11
0.299268
21
1.55388
0
LINE
8
BLACK
6
CONTINUOUS
10
0.299268
20
1.55388
11
0.305236
21
1.54261
0
LINE
8
BLACK
6
CONTINUOUS
10
0.305236
20
1.54261
11
0.312461
21
1.5321
0
LINE
8
BLACK
6
CONTINUOUS
10
0.312461
20
1.5321
11
0.320845
21
1.52249
0
LINE
8
BLACK
6
CONTINUOUS
10
0.320845
20
1.52249
11
0.330279
21
1.5139
0
LINE
8
BLACK
6
CONTINUOUS
10
0.330279
20
1.5139
11
0.340637
21
1.50646
0
LINE
8
BLACK
6
CONTINUOUS
10
0.340637
20
1.50646
11
0.351782
21
1.50026
0
LINE
8
BLACK
6
CONTINUOUS
10
0.351782
20
1.50026
11
0.363566
21
1.49537
0
LINE
8
BLACK
6
CONTINUOUS
10
0.363566
20
1.49537
11
0.375832
21
1.49188
0
LINE
8
BLACK
6
CONTINUOUS
10
0.375832
20
1.49188
11
0.38842
21
1.48982
0
LINE
8
BLACK
6
CONTINUOUS
10
0.38842
20
1.48982
11
0.40116
21
1.48922
0
LINE
8
BLACK
6
CONTINUOUS
10
0.40116
20
1.48922
11
0.413885
21
1.49009
0
LINE
8
BLACK
6
CONTINUOUS
10
0.413885
20
1.49009
11
0.426426
21
1.49241
0
LINE
8
BLACK
6
CONTINUOUS
10
0.426426
20
1.49241
11
0.438617
21
1.49616
0
LINE
8
BLACK
6
CONTINUOUS
10
0.438617
20
1.49616
11
0.450296
21
1.50129
0
LINE
8
BLACK
6
CONTINUOUS
10
0.450296
20
1.50129
11
0.461309
21
1.50772
0
LINE
8
BLACK
6
CONTINUOUS
10
0.461309
20
1.50772
11
0.471509
21
1.51538
0
LINE
8
BLACK
6
CONTINUOUS
10
0.471509
20
1.51538
11
0.480761
21
1.52416
0
LINE
8
BLACK
6
CONTINUOUS
10
0.480761
20
1.52416
11
0.488942
21
1.53395
0
LINE
8
BLACK
6
CONTINUOUS
10
0.488942
20
1.53395
11
0.495945
21
1.54461
0
LINE
8
BLACK
6
CONTINUOUS
10
0.495945
20
1.54461
11
0.501676
21
1.556
0
LINE
8
BLACK
6
CONTINUOUS
10
0.501676
20
1.556
11
0.506059
21
1.56798
0
LINE
8
BLACK
6
CONTINUOUS
10
0.506059
20
1.56798
11
0.509036
21
1.58038
0
LINE
8
BLACK
6
CONTINUOUS
10
0.509036
20
1.58038
11
0.510569
21
1.59304
0
LINE
8
BLACK
6
CONTINUOUS
10
0.510569
20
1.59304
11
0.510787
21
1.6
0
LINE
8
BLACK
6
CONTINUOUS
10
0.510787
20
1.6
11
0.510053
21
1.61273
0
LINE
8
BLACK
6
CONTINUOUS
10
0.510053
20
1.61273
11
0.50786
21
1.6253
0
LINE
8
BLACK
6
CONTINUOUS
10
0.50786
20
1.6253
11
0.504238
21
1.63753
0
LINE
8
BLACK
6
CONTINUOUS
10
0.504238
20
1.63753
11
0.499234
21
1.64926
0
LINE
8
BLACK
6
CONTINUOUS
10
0.499234
20
1.64926
11
0.492914
21
1.66034
0
LINE
8
BLACK
6
CONTINUOUS
10
0.492914
20
1.66034
11
0.485363
21
1.67062
0
LINE
8
BLACK
6
CONTINUOUS
10
0.485363
20
1.67062
11
0.476681
21
1.67996
0
LINE
8
BLACK
6
CONTINUOUS
10
0.476681
20
1.67996
11
0.466982
21
1.68825
0
LINE
8
BLACK
6
CONTINUOUS
10
0.466982
20
1.68825
11
0.456395
21
1.69536
0
LINE
8
BLACK
6
CONTINUOUS
10
0.456395
20
1.69536
11
0.445061
21
1.70121
0
LINE
8
BLACK
6
CONTINUOUS
10
0.445061
20
1.70121
11
0.43313
21
1.70572
0
LINE
8
BLACK
6
CONTINUOUS
10
0.43313
20
1.70572
11
0.420759
21
1.70883
0
LINE
8
BLACK
6
CONTINUOUS
10
0.420759
20
1.70883
11
0.408114
21
1.71049
0
LINE
8
BLACK
6
CONTINUOUS
10
0.408114
20
1.71049
11
0.395361
21
1.71069
0
LINE
8
BLACK
6
CONTINUOUS
10
0.395361
20
1.71069
11
0.382669
21
1.70942
0
LINE
8
BLACK
6
CONTINUOUS
10
0.382669
20
1.70942
11
0.370207
21
1.70671
0
LINE
8
BLACK
6
CONTINUOUS
10
0.370207
20
1.70671
11
0.35814
21
1.70257
0
LINE
8
BLACK
6
CONTINUOUS
10
0.35814
20
1.70257
11
0.346628
21
1.69708
0
LINE
8
BLACK
6
CONTINUOUS
10
0.346628
20
1.69708
11
0.335823
21
1.69031
0
LINE
8
BLACK
6
CONTINUOUS
10
0.335823
20
1.69031
11
0.325869
21
1.68233
0
LINE
8
BLACK
6
CONTINUOUS
10
0.325869
20
1.68233
11
0.316897
21
1.67327
0
LINE
8
BLACK
6
CONTINUOUS
10
0.316897
20
1.67327
11
0.309027
21
1.66323
0
LINE
8
BLACK
6
CONTINUOUS
10
0.309027
20
1.66323
11
0.302363
21
1.65235
0
LINE
8
BLACK
6
CONTINUOUS
10
0.302363
20
1.65235
11
0.296992
21
1.64078
0
LINE
8
BLACK
6
CONTINUOUS
10
0.296992
20
1.64078
11
0.292988
21
1.62867
0
LINE
8
BLACK
6
CONTINUOUS
10
0.292988
20
1.62867
11
0.290401
21
1.61618
0
LINE
8
BLACK
6
CONTINUOUS
10
0.290401
20
1.61618
11
0.289267
21
1.60348
0
LINE
8
BLACK
6
CONTINUOUS
10
0.289267
20
1.60348
11
0.289601
21
1.59073
0
LINE
8
BLACK
6
CONTINUOUS
10
0.289601
20
1.59073
11
0.291398
21
1.5781
  0
ENDSEC
  0
EOF
