  0
SECTION
  2
HEADER
  9
$ANGBASE
  50
0.0
  9
$ANGDIR
  70
1
  9
$MEASUREMENT
  70
0
  0
ENDSEC
  0
SECTION
  2
TABLES
  0
TABLE
  2
LTYPE
  70
4
  0
LTYPE
  5
40F
  2
CONTINUOUS
  70
0
  3
Solid line
  72
65
  73
0
  40
0.0
  0
LTYPE
  5
410
  2
DASHDOT
 70
0
  3
Dash Dot ____ _ ____ _
 72
65
 73
4
 40
2.0
 49
1.25
 49
-0.25
 49
0.25
 49
-0.25
  0
LTYPE
  5
411
  2
DASHED
 70
0
  3
Dashed __ __ __ __ __
 72
65
 73
2
 40
0.75
 49
0.5
 49
-0.25
  0
LTYPE
  5
43B
  2
DOTTED
 70
0
  3
Dotted .  .  .  .
 72
65
 73
2
 40
0.2
 49
0.0
 49
-0.2
  0
ENDTAB
  0
TABLE
  2
STYLE
  70
4
  0
STYLE
  2
KICAD
  70
0
  40
0
  41
1
  42
1
  50
0
  71
0
  3
isocp.shx
  0
STYLE
  2
KICADB
  70
0
  40
0
  41
1
  42
1
  50
0
  71
0
  3
isocp.shx
  0
STYLE
  2
KICADI
  70
0
  40
0
  41
1
  42
1
  50
15
  71
0
  3
isocp.shx
  0
STYLE
  2
KICADBI
  70
0
  40
0
  41
1
  42
1
  50
15
  71
0
  3
isocp.shx
  0
ENDTAB
  0
TABLE
  2
LAYER
  70
1
  0
LAYER
  2
BLACK
  70
0
  62
7
  6
CONTINUOUS
  0
ENDTAB
  0
ENDSEC
  0
SECTION
  2
ENTITIES
0
LINE
8
BLACK
6
CONTINUOUS
10
0.804685
20
0.502733
11
0.805377
21
0.501063
0
LINE
8
BLACK
6
CONTINUOUS
10
0.805377
20
0.501063
11
0.804685
21
0.499393
0
LINE
8
BLACK
6
CONTINUOUS
10
0.804685
20
0.499393
11
0.803014
21
0.498701
0
LINE
8
BLACK
6
CONTINUOUS
10
0.803014
20
0.498701
11
0.785135
21
0.498701
0
LINE
8
BLACK
6
CONTINUOUS
10
0.785135
20
0.498701
11
0.783465
21
0.499393
0
LINE
8
BLACK
6
CONTINUOUS
10
0.783465
20
0.499393
11
0.782773
21
0.501063
0
LINE
8
BLACK
6
CONTINUOUS
10
0.782773
20
0.501063
11
0.783465
21
0.502733
0
LINE
8
BLACK
6
CONTINUOUS
10
0.783465
20
0.502733
11
0.785135
21
0.503425
0
LINE
8
BLACK
6
CONTINUOUS
10
0.785135
20
0.503425
11
0.803014
21
0.503425
0
LINE
8
BLACK
6
CONTINUOUS
10
0.803014
20
0.503425
11
0.804685
21
0.502733
0
LINE
8
BLACK
6
CONTINUOUS
10
0.804685
20
0.560607
11
0.805377
21
0.558937
0
LINE
8
BLACK
6
CONTINUOUS
10
0.805377
20
0.558937
11
0.804685
21
0.557267
0
LINE
8
BLACK
6
CONTINUOUS
10
0.804685
20
0.557267
11
0.803014
21
0.556575
0
LINE
8
BLACK
6
CONTINUOUS
10
0.803014
20
0.556575
11
0.785135
21
0.556575
0
LINE
8
BLACK
6
CONTINUOUS
10
0.785135
20
0.556575
11
0.783465
21
0.557267
0
LINE
8
BLACK
6
CONTINUOUS
10
0.783465
20
0.557267
11
0.782773
21
0.558937
0
LINE
8
BLACK
6
CONTINUOUS
10
0.782773
20
0.558937
11
0.783465
21
0.560607
0
LINE
8
BLACK
6
CONTINUOUS
10
0.783465
20
0.560607
11
0.785135
21
0.561299
0
LINE
8
BLACK
6
CONTINUOUS
10
0.785135
20
0.561299
11
0.803014
21
0.561299
0
LINE
8
BLACK
6
CONTINUOUS
10
0.803014
20
0.561299
11
0.804685
21
0.560607
0
LINE
8
BLACK
6
CONTINUOUS
10
0.788523
20
0.619295
11
0.79007
21
0.617997
0
LINE
8
BLACK
6
CONTINUOUS
10
0.79007
20
0.617997
11
0.790421
21
0.616008
0
LINE
8
BLACK
6
CONTINUOUS
10
0.790421
20
0.616008
11
0.789411
21
0.614259
0
LINE
8
BLACK
6
CONTINUOUS
10
0.789411
20
0.614259
11
0.787513
21
0.613568
0
LINE
8
BLACK
6
CONTINUOUS
10
0.787513
20
0.613568
11
0.769648
21
0.613568
0
LINE
8
BLACK
6
CONTINUOUS
10
0.769648
20
0.613568
11
0.778487
21
0.603467
0
LINE
8
BLACK
6
CONTINUOUS
10
0.778487
20
0.603467
11
0.778717
21
0.603087
0
LINE
8
BLACK
6
CONTINUOUS
10
0.778717
20
0.603087
11
0.778822
21
0.602999
0
LINE
8
BLACK
6
CONTINUOUS
10
0.778822
20
0.602999
11
0.778843
21
0.602878
0
LINE
8
BLACK
6
CONTINUOUS
10
0.778843
20
0.602878
11
0.779018
21
0.602589
0
LINE
8
BLACK
6
CONTINUOUS
10
0.779018
20
0.602589
11
0.779034
21
0.601794
0
LINE
8
BLACK
6
CONTINUOUS
10
0.779034
20
0.601794
11
0.779172
21
0.60101
0
LINE
8
BLACK
6
CONTINUOUS
10
0.779172
20
0.60101
11
0.779055
21
0.600806
0
LINE
8
BLACK
6
CONTINUOUS
10
0.779055
20
0.600806
11
0.77906
21
0.60057
0
LINE
8
BLACK
6
CONTINUOUS
10
0.77906
20
0.60057
11
0.778561
21
0.59995
0
LINE
8
BLACK
6
CONTINUOUS
10
0.778561
20
0.59995
11
0.778163
21
0.59926
0
LINE
8
BLACK
6
CONTINUOUS
10
0.778163
20
0.59926
11
0.777941
21
0.59918
0
LINE
8
BLACK
6
CONTINUOUS
10
0.777941
20
0.59918
11
0.777794
21
0.598996
0
LINE
8
BLACK
6
CONTINUOUS
10
0.777794
20
0.598996
11
0.777013
21
0.598842
0
LINE
8
BLACK
6
CONTINUOUS
10
0.777013
20
0.598842
11
0.776265
21
0.59857
0
LINE
8
BLACK
6
CONTINUOUS
10
0.776265
20
0.59857
11
0.771337
21
0.59857
0
LINE
8
BLACK
6
CONTINUOUS
10
0.771337
20
0.59857
11
0.76864
21
0.597221
0
LINE
8
BLACK
6
CONTINUOUS
10
0.76864
20
0.597221
11
0.767443
21
0.596024
0
LINE
8
BLACK
6
CONTINUOUS
10
0.767443
20
0.596024
11
0.766094
21
0.593326
0
LINE
8
BLACK
6
CONTINUOUS
10
0.766094
20
0.593326
11
0.766094
21
0.585346
0
LINE
8
BLACK
6
CONTINUOUS
10
0.766094
20
0.585346
11
0.767443
21
0.582649
0
LINE
8
BLACK
6
CONTINUOUS
10
0.767443
20
0.582649
11
0.76864
21
0.581452
0
LINE
8
BLACK
6
CONTINUOUS
10
0.76864
20
0.581452
11
0.771337
21
0.580103
0
LINE
8
BLACK
6
CONTINUOUS
10
0.771337
20
0.580103
11
0.781192
21
0.580103
0
LINE
8
BLACK
6
CONTINUOUS
10
0.781192
20
0.580103
11
0.783889
21
0.581452
0
LINE
8
BLACK
6
CONTINUOUS
10
0.783889
20
0.581452
11
0.785425
21
0.582988
0
LINE
8
BLACK
6
CONTINUOUS
10
0.785425
20
0.582988
11
0.786265
21
0.583576
0
LINE
8
BLACK
6
CONTINUOUS
10
0.786265
20
0.583576
11
0.788277
21
0.583752
0
LINE
8
BLACK
6
CONTINUOUS
10
0.788277
20
0.583752
11
0.789932
21
0.582594
0
LINE
8
BLACK
6
CONTINUOUS
10
0.789932
20
0.582594
11
0.790455
21
0.580643
0
LINE
8
BLACK
6
CONTINUOUS
10
0.790455
20
0.580643
11
0.789601
21
0.578812
0
LINE
8
BLACK
6
CONTINUOUS
10
0.789601
20
0.578812
11
0.787726
21
0.576937
0
LINE
8
BLACK
6
CONTINUOUS
10
0.787726
20
0.576937
11
0.787003
21
0.576431
0
LINE
8
BLACK
6
CONTINUOUS
10
0.787003
20
0.576431
11
0.786959
21
0.576384
0
LINE
8
BLACK
6
CONTINUOUS
10
0.786959
20
0.576384
11
0.783209
21
0.574509
0
LINE
8
BLACK
6
CONTINUOUS
10
0.783209
20
0.574509
11
0.782226
21
0.574217
0
LINE
8
BLACK
6
CONTINUOUS
10
0.782226
20
0.574217
11
0.782055
21
0.574258
0
LINE
8
BLACK
6
CONTINUOUS
10
0.782055
20
0.574258
11
0.781889
21
0.574198
0
LINE
8
BLACK
6
CONTINUOUS
10
0.781889
20
0.574198
11
0.77064
21
0.574198
0
LINE
8
BLACK
6
CONTINUOUS
10
0.77064
20
0.574198
11
0.76963
21
0.574376
0
LINE
8
BLACK
6
CONTINUOUS
10
0.76963
20
0.574376
11
0.769495
21
0.574489
0
LINE
8
BLACK
6
CONTINUOUS
10
0.769495
20
0.574489
11
0.76932
21
0.574509
0
LINE
8
BLACK
6
CONTINUOUS
10
0.76932
20
0.574509
11
0.76557
21
0.576384
0
LINE
8
BLACK
6
CONTINUOUS
10
0.76557
20
0.576384
11
0.764861
21
0.57691
0
LINE
8
BLACK
6
CONTINUOUS
10
0.764861
20
0.57691
11
0.764803
21
0.576937
0
LINE
8
BLACK
6
CONTINUOUS
10
0.764803
20
0.576937
11
0.762928
21
0.578812
0
LINE
8
BLACK
6
CONTINUOUS
10
0.762928
20
0.578812
11
0.762422
21
0.579535
0
LINE
8
BLACK
6
CONTINUOUS
10
0.762422
20
0.579535
11
0.762375
21
0.579579
0
LINE
8
BLACK
6
CONTINUOUS
10
0.762375
20
0.579579
11
0.7605
21
0.583329
0
LINE
8
BLACK
6
CONTINUOUS
10
0.7605
20
0.583329
11
0.760208
21
0.584312
0
LINE
8
BLACK
6
CONTINUOUS
10
0.760208
20
0.584312
11
0.760249
21
0.584484
0
LINE
8
BLACK
6
CONTINUOUS
10
0.760249
20
0.584484
11
0.760188
21
0.584649
0
LINE
8
BLACK
6
CONTINUOUS
10
0.760188
20
0.584649
11
0.760188
21
0.594023
0
LINE
8
BLACK
6
CONTINUOUS
10
0.760188
20
0.594023
11
0.760366
21
0.595033
0
LINE
8
BLACK
6
CONTINUOUS
10
0.760366
20
0.595033
11
0.76048
21
0.595168
0
LINE
8
BLACK
6
CONTINUOUS
10
0.76048
20
0.595168
11
0.7605
21
0.595344
0
LINE
8
BLACK
6
CONTINUOUS
10
0.7605
20
0.595344
11
0.762375
21
0.599093
0
LINE
8
BLACK
6
CONTINUOUS
10
0.762375
20
0.599093
11
0.762901
21
0.599802
0
LINE
8
BLACK
6
CONTINUOUS
10
0.762901
20
0.599802
11
0.762928
21
0.599861
0
LINE
8
BLACK
6
CONTINUOUS
10
0.762928
20
0.599861
11
0.764803
21
0.601735
0
LINE
8
BLACK
6
CONTINUOUS
10
0.764803
20
0.601735
11
0.765526
21
0.602242
0
LINE
8
BLACK
6
CONTINUOUS
10
0.765526
20
0.602242
11
0.76557
21
0.602289
0
LINE
8
BLACK
6
CONTINUOUS
10
0.76557
20
0.602289
11
0.76932
21
0.604163
0
LINE
8
BLACK
6
CONTINUOUS
10
0.76932
20
0.604163
11
0.769883
21
0.604331
0
LINE
8
BLACK
6
CONTINUOUS
10
0.769883
20
0.604331
11
0.760919
21
0.614576
0
LINE
8
BLACK
6
CONTINUOUS
10
0.760919
20
0.614576
11
0.760689
21
0.614956
0
LINE
8
BLACK
6
CONTINUOUS
10
0.760689
20
0.614956
11
0.760584
21
0.615044
0
LINE
8
BLACK
6
CONTINUOUS
10
0.760584
20
0.615044
11
0.760563
21
0.615165
0
LINE
8
BLACK
6
CONTINUOUS
10
0.760563
20
0.615165
11
0.760388
21
0.615453
0
LINE
8
BLACK
6
CONTINUOUS
10
0.760388
20
0.615453
11
0.760371
21
0.616249
0
LINE
8
BLACK
6
CONTINUOUS
10
0.760371
20
0.616249
11
0.760233
21
0.617033
0
LINE
8
BLACK
6
CONTINUOUS
10
0.760233
20
0.617033
11
0.760351
21
0.617237
0
LINE
8
BLACK
6
CONTINUOUS
10
0.760351
20
0.617237
11
0.760346
21
0.617473
0
LINE
8
BLACK
6
CONTINUOUS
10
0.760346
20
0.617473
11
0.760845
21
0.618093
0
LINE
8
BLACK
6
CONTINUOUS
10
0.760845
20
0.618093
11
0.761243
21
0.618782
0
LINE
8
BLACK
6
CONTINUOUS
10
0.761243
20
0.618782
11
0.761464
21
0.618863
0
LINE
8
BLACK
6
CONTINUOUS
10
0.761464
20
0.618863
11
0.761612
21
0.619047
0
LINE
8
BLACK
6
CONTINUOUS
10
0.761612
20
0.619047
11
0.762393
21
0.619201
0
LINE
8
BLACK
6
CONTINUOUS
10
0.762393
20
0.619201
11
0.763141
21
0.619473
0
LINE
8
BLACK
6
CONTINUOUS
10
0.763141
20
0.619473
11
0.787513
21
0.619473
0
LINE
8
BLACK
6
CONTINUOUS
10
0.787513
20
0.619473
11
0.788523
21
0.619295
0
LINE
8
BLACK
6
CONTINUOUS
10
0.823517
20
0.619406
11
0.823646
21
0.619428
0
LINE
8
BLACK
6
CONTINUOUS
10
0.823646
20
0.619428
11
0.82376
21
0.619363
0
LINE
8
BLACK
6
CONTINUOUS
10
0.82376
20
0.619363
11
0.824144
21
0.619295
0
LINE
8
BLACK
6
CONTINUOUS
10
0.824144
20
0.619295
11
0.824731
21
0.618802
0
LINE
8
BLACK
6
CONTINUOUS
10
0.824731
20
0.618802
11
0.825396
21
0.618418
0
LINE
8
BLACK
6
CONTINUOUS
10
0.825396
20
0.618418
11
0.825487
21
0.618168
0
LINE
8
BLACK
6
CONTINUOUS
10
0.825487
20
0.618168
11
0.825691
21
0.617997
0
LINE
8
BLACK
6
CONTINUOUS
10
0.825691
20
0.617997
11
0.825824
21
0.617241
0
LINE
8
BLACK
6
CONTINUOUS
10
0.825824
20
0.617241
11
0.826086
21
0.61652
0
LINE
8
BLACK
6
CONTINUOUS
10
0.826086
20
0.61652
11
0.826086
21
0.57715
0
LINE
8
BLACK
6
CONTINUOUS
10
0.826086
20
0.57715
11
0.825908
21
0.57614
0
LINE
8
BLACK
6
CONTINUOUS
10
0.825908
20
0.57614
11
0.82461
21
0.574593
0
LINE
8
BLACK
6
CONTINUOUS
10
0.82461
20
0.574593
11
0.822621
21
0.574242
0
LINE
8
BLACK
6
CONTINUOUS
10
0.822621
20
0.574242
11
0.820872
21
0.575252
0
LINE
8
BLACK
6
CONTINUOUS
10
0.820872
20
0.575252
11
0.820181
21
0.57715
0
LINE
8
BLACK
6
CONTINUOUS
10
0.820181
20
0.57715
11
0.820181
21
0.592945
0
LINE
8
BLACK
6
CONTINUOUS
10
0.820181
20
0.592945
11
0.815297
21
0.592945
0
LINE
8
BLACK
6
CONTINUOUS
10
0.815297
20
0.592945
11
0.803055
21
0.575457
0
LINE
8
BLACK
6
CONTINUOUS
10
0.803055
20
0.575457
11
0.80233
21
0.574732
0
LINE
8
BLACK
6
CONTINUOUS
10
0.80233
20
0.574732
11
0.80038
21
0.574209
0
LINE
8
BLACK
6
CONTINUOUS
10
0.80038
20
0.574209
11
0.798549
21
0.575062
0
LINE
8
BLACK
6
CONTINUOUS
10
0.798549
20
0.575062
11
0.797695
21
0.576893
0
LINE
8
BLACK
6
CONTINUOUS
10
0.797695
20
0.576893
11
0.798217
21
0.578844
0
LINE
8
BLACK
6
CONTINUOUS
10
0.798217
20
0.578844
11
0.808094
21
0.592953
0
LINE
8
BLACK
6
CONTINUOUS
10
0.808094
20
0.592953
11
0.807126
21
0.593123
0
LINE
8
BLACK
6
CONTINUOUS
10
0.807126
20
0.593123
11
0.80699
21
0.593237
0
LINE
8
BLACK
6
CONTINUOUS
10
0.80699
20
0.593237
11
0.806815
21
0.593257
0
LINE
8
BLACK
6
CONTINUOUS
10
0.806815
20
0.593257
11
0.803065
21
0.595132
0
LINE
8
BLACK
6
CONTINUOUS
10
0.803065
20
0.595132
11
0.802356
21
0.595658
0
LINE
8
BLACK
6
CONTINUOUS
10
0.802356
20
0.595658
11
0.802298
21
0.595685
0
LINE
8
BLACK
6
CONTINUOUS
10
0.802298
20
0.595685
11
0.800423
21
0.59756
0
LINE
8
BLACK
6
CONTINUOUS
10
0.800423
20
0.59756
11
0.799917
21
0.598283
0
LINE
8
BLACK
6
CONTINUOUS
10
0.799917
20
0.598283
11
0.79987
21
0.598327
0
LINE
8
BLACK
6
CONTINUOUS
10
0.79987
20
0.598327
11
0.797995
21
0.602077
0
LINE
8
BLACK
6
CONTINUOUS
10
0.797995
20
0.602077
11
0.797703
21
0.60306
0
LINE
8
BLACK
6
CONTINUOUS
10
0.797703
20
0.60306
11
0.797744
21
0.603231
0
LINE
8
BLACK
6
CONTINUOUS
10
0.797744
20
0.603231
11
0.797684
21
0.603397
0
LINE
8
BLACK
6
CONTINUOUS
10
0.797684
20
0.603397
11
0.797684
21
0.609021
0
LINE
8
BLACK
6
CONTINUOUS
10
0.797684
20
0.609021
11
0.797862
21
0.610031
0
LINE
8
BLACK
6
CONTINUOUS
10
0.797862
20
0.610031
11
0.797975
21
0.610167
0
LINE
8
BLACK
6
CONTINUOUS
10
0.797975
20
0.610167
11
0.797995
21
0.610342
0
LINE
8
BLACK
6
CONTINUOUS
10
0.797995
20
0.610342
11
0.79987
21
0.614091
0
LINE
8
BLACK
6
CONTINUOUS
10
0.79987
20
0.614091
11
0.800396
21
0.6148
0
LINE
8
BLACK
6
CONTINUOUS
10
0.800396
20
0.6148
11
0.800423
21
0.614859
0
LINE
8
BLACK
6
CONTINUOUS
10
0.800423
20
0.614859
11
0.802298
21
0.616734
0
LINE
8
BLACK
6
CONTINUOUS
10
0.802298
20
0.616734
11
0.803021
21
0.61724
0
LINE
8
BLACK
6
CONTINUOUS
10
0.803021
20
0.61724
11
0.803065
21
0.617287
0
LINE
8
BLACK
6
CONTINUOUS
10
0.803065
20
0.617287
11
0.806815
21
0.619161
0
LINE
8
BLACK
6
CONTINUOUS
10
0.806815
20
0.619161
11
0.807798
21
0.619454
0
LINE
8
BLACK
6
CONTINUOUS
10
0.807798
20
0.619454
11
0.80797
21
0.619413
0
LINE
8
BLACK
6
CONTINUOUS
10
0.80797
20
0.619413
11
0.808136
21
0.619473
0
LINE
8
BLACK
6
CONTINUOUS
10
0.808136
20
0.619473
11
0.823134
21
0.619473
0
LINE
8
BLACK
6
CONTINUOUS
10
0.823134
20
0.619473
11
0.823517
21
0.619406
0
LINE
8
BLACK
6
CONTINUOUS
10
0.808833
20
0.613568
11
0.806135
21
0.612219
0
LINE
8
BLACK
6
CONTINUOUS
10
0.806135
20
0.612219
11
0.804938
21
0.611022
0
LINE
8
BLACK
6
CONTINUOUS
10
0.804938
20
0.611022
11
0.803589
21
0.608324
0
LINE
8
BLACK
6
CONTINUOUS
10
0.803589
20
0.608324
11
0.803589
21
0.604094
0
LINE
8
BLACK
6
CONTINUOUS
10
0.803589
20
0.604094
11
0.804938
21
0.601397
0
LINE
8
BLACK
6
CONTINUOUS
10
0.804938
20
0.601397
11
0.806135
21
0.6002
0
LINE
8
BLACK
6
CONTINUOUS
10
0.806135
20
0.6002
11
0.808833
21
0.598851
0
LINE
8
BLACK
6
CONTINUOUS
10
0.808833
20
0.598851
11
0.820181
21
0.598851
0
LINE
8
BLACK
6
CONTINUOUS
10
0.820181
20
0.598851
11
0.820181
21
0.613568
0
LINE
8
BLACK
6
CONTINUOUS
10
0.820181
20
0.613568
11
0.808833
21
0.613568
0
LINE
8
BLACK
6
CONTINUOUS
10
1.17531
20
0.723935
11
1.17642
21
0.72225
0
LINE
8
BLACK
6
CONTINUOUS
10
1.17642
20
0.72225
11
1.17619
21
0.720243
0
LINE
8
BLACK
6
CONTINUOUS
10
1.17619
20
0.720243
11
1.17431
21
0.716494
0
LINE
8
BLACK
6
CONTINUOUS
10
1.17431
20
0.716494
11
1.17379
21
0.715784
0
LINE
8
BLACK
6
CONTINUOUS
10
1.17379
20
0.715784
11
1.17376
21
0.715726
0
LINE
8
BLACK
6
CONTINUOUS
10
1.17376
20
0.715726
11
1.1713
21
0.713268
0
LINE
8
BLACK
6
CONTINUOUS
10
1.1713
20
0.713268
11
1.19872
21
0.713268
0
LINE
8
BLACK
6
CONTINUOUS
10
1.19872
20
0.713268
11
1.19872
21
0.721564
0
LINE
8
BLACK
6
CONTINUOUS
10
1.19872
20
0.721564
11
1.19889
21
0.722574
0
LINE
8
BLACK
6
CONTINUOUS
10
1.19889
20
0.722574
11
1.20019
21
0.724121
0
LINE
8
BLACK
6
CONTINUOUS
10
1.20019
20
0.724121
11
1.20218
21
0.724471
0
LINE
8
BLACK
6
CONTINUOUS
10
1.20218
20
0.724471
11
1.20393
21
0.723462
0
LINE
8
BLACK
6
CONTINUOUS
10
1.20393
20
0.723462
11
1.20462
21
0.721564
0
LINE
8
BLACK
6
CONTINUOUS
10
1.20462
20
0.721564
11
1.20462
21
0.699066
0
LINE
8
BLACK
6
CONTINUOUS
10
1.20462
20
0.699066
11
1.20444
21
0.698056
0
LINE
8
BLACK
6
CONTINUOUS
10
1.20444
20
0.698056
11
1.20314
21
0.696509
0
LINE
8
BLACK
6
CONTINUOUS
10
1.20314
20
0.696509
11
1.20116
21
0.696158
0
LINE
8
BLACK
6
CONTINUOUS
10
1.20116
20
0.696158
11
1.19941
21
0.697168
0
LINE
8
BLACK
6
CONTINUOUS
10
1.19941
20
0.697168
11
1.19872
21
0.699066
0
LINE
8
BLACK
6
CONTINUOUS
10
1.19872
20
0.699066
11
1.19872
21
0.707362
0
LINE
8
BLACK
6
CONTINUOUS
10
1.19872
20
0.707362
11
1.1623
21
0.707362
0
LINE
8
BLACK
6
CONTINUOUS
10
1.1623
20
0.707362
11
1.16129
21
0.70754
0
LINE
8
BLACK
6
CONTINUOUS
10
1.16129
20
0.70754
11
1.16116
21
0.707649
0
LINE
8
BLACK
6
CONTINUOUS
10
1.16116
20
0.707649
11
1.16099
21
0.707668
0
LINE
8
BLACK
6
CONTINUOUS
10
1.16099
20
0.707668
11
1.1604
21
0.708288
0
LINE
8
BLACK
6
CONTINUOUS
10
1.1604
20
0.708288
11
1.15974
21
0.708839
0
LINE
8
BLACK
6
CONTINUOUS
10
1.15974
20
0.708839
11
1.15971
21
0.709006
0
LINE
8
BLACK
6
CONTINUOUS
10
1.15971
20
0.709006
11
1.15959
21
0.709129
0
LINE
8
BLACK
6
CONTINUOUS
10
1.15959
20
0.709129
11
1.15954
21
0.709984
0
LINE
8
BLACK
6
CONTINUOUS
10
1.15954
20
0.709984
11
1.15939
21
0.710828
0
LINE
8
BLACK
6
CONTINUOUS
10
1.15939
20
0.710828
11
1.15948
21
0.710975
0
LINE
8
BLACK
6
CONTINUOUS
10
1.15948
20
0.710975
11
1.15946
21
0.711144
0
LINE
8
BLACK
6
CONTINUOUS
10
1.15946
20
0.711144
11
1.15997
21
0.711835
0
LINE
8
BLACK
6
CONTINUOUS
10
1.15997
20
0.711835
11
1.1604
21
0.712577
0
LINE
8
BLACK
6
CONTINUOUS
10
1.1604
20
0.712577
11
1.16056
21
0.712635
0
LINE
8
BLACK
6
CONTINUOUS
10
1.16056
20
0.712635
11
1.16066
21
0.712772
0
LINE
8
BLACK
6
CONTINUOUS
10
1.16066
20
0.712772
11
1.16604
21
0.716359
0
LINE
8
BLACK
6
CONTINUOUS
10
1.16604
20
0.716359
11
1.16925
21
0.719563
0
LINE
8
BLACK
6
CONTINUOUS
10
1.16925
20
0.719563
11
1.17091
21
0.722884
0
LINE
8
BLACK
6
CONTINUOUS
10
1.17091
20
0.722884
11
1.17152
21
0.723708
0
LINE
8
BLACK
6
CONTINUOUS
10
1.17152
20
0.723708
11
1.17337
21
0.724511
0
LINE
8
BLACK
6
CONTINUOUS
10
1.17337
20
0.724511
11
1.17531
21
0.723935
0
LINE
8
BLACK
6
CONTINUOUS
10
1.22273
20
0.741956
11
1.22343
21
0.740286
0
LINE
8
BLACK
6
CONTINUOUS
10
1.22343
20
0.740286
11
1.22343
21
0.719714
0
LINE
8
BLACK
6
CONTINUOUS
10
1.22343
20
0.719714
11
1.22273
21
0.718044
0
LINE
8
BLACK
6
CONTINUOUS
10
1.22273
20
0.718044
11
1.22106
21
0.717352
0
LINE
8
BLACK
6
CONTINUOUS
10
1.22106
20
0.717352
11
1.21939
21
0.718044
0
LINE
8
BLACK
6
CONTINUOUS
10
1.21939
20
0.718044
11
1.2187
21
0.719714
0
LINE
8
BLACK
6
CONTINUOUS
10
1.2187
20
0.719714
11
1.2187
21
0.740286
0
LINE
8
BLACK
6
CONTINUOUS
10
1.2187
20
0.740286
11
1.21939
21
0.741956
0
LINE
8
BLACK
6
CONTINUOUS
10
1.21939
20
0.741956
11
1.22106
21
0.742648
0
LINE
8
BLACK
6
CONTINUOUS
10
1.22106
20
0.742648
11
1.22273
21
0.741956
0
LINE
8
BLACK
6
CONTINUOUS
10
1.28061
20
0.741956
11
1.2813
21
0.740286
0
LINE
8
BLACK
6
CONTINUOUS
10
1.2813
20
0.740286
11
1.2813
21
0.719714
0
LINE
8
BLACK
6
CONTINUOUS
10
1.2813
20
0.719714
11
1.28061
21
0.718044
0
LINE
8
BLACK
6
CONTINUOUS
10
1.28061
20
0.718044
11
1.27894
21
0.717352
0
LINE
8
BLACK
6
CONTINUOUS
10
1.27894
20
0.717352
11
1.27727
21
0.718044
0
LINE
8
BLACK
6
CONTINUOUS
10
1.27727
20
0.718044
11
1.27657
21
0.719714
0
LINE
8
BLACK
6
CONTINUOUS
10
1.27657
20
0.719714
11
1.27657
21
0.740286
0
LINE
8
BLACK
6
CONTINUOUS
10
1.27657
20
0.740286
11
1.27727
21
0.741956
0
LINE
8
BLACK
6
CONTINUOUS
10
1.27727
20
0.741956
11
1.27894
21
0.742648
0
LINE
8
BLACK
6
CONTINUOUS
10
1.27894
20
0.742648
11
1.28061
21
0.741956
0
LINE
8
BLACK
6
CONTINUOUS
10
0.968207
20
0.747764
11
0.968898
21
0.745866
0
LINE
8
BLACK
6
CONTINUOUS
10
0.968898
20
0.745866
11
0.968898
21
0.734055
0
LINE
8
BLACK
6
CONTINUOUS
10
0.968898
20
0.734055
11
0.96883
21
0.733672
0
LINE
8
BLACK
6
CONTINUOUS
10
0.96883
20
0.733672
11
0.968853
21
0.733542
0
LINE
8
BLACK
6
CONTINUOUS
10
0.968853
20
0.733542
11
0.968787
21
0.733429
0
LINE
8
BLACK
6
CONTINUOUS
10
0.968787
20
0.733429
11
0.96872
21
0.733045
0
LINE
8
BLACK
6
CONTINUOUS
10
0.96872
20
0.733045
11
0.968226
21
0.732458
0
LINE
8
BLACK
6
CONTINUOUS
10
0.968226
20
0.732458
11
0.967843
21
0.731793
0
LINE
8
BLACK
6
CONTINUOUS
10
0.967843
20
0.731793
11
0.967593
21
0.731702
0
LINE
8
BLACK
6
CONTINUOUS
10
0.967593
20
0.731702
11
0.967421
21
0.731498
0
LINE
8
BLACK
6
CONTINUOUS
10
0.967421
20
0.731498
11
0.966666
21
0.731365
0
LINE
8
BLACK
6
CONTINUOUS
10
0.966666
20
0.731365
11
0.965945
21
0.731102
0
LINE
8
BLACK
6
CONTINUOUS
10
0.965945
20
0.731102
11
0.834055
21
0.731102
0
LINE
8
BLACK
6
CONTINUOUS
10
0.834055
20
0.731102
11
0.833672
21
0.73117
0
LINE
8
BLACK
6
CONTINUOUS
10
0.833672
20
0.73117
11
0.833542
21
0.731147
0
LINE
8
BLACK
6
CONTINUOUS
10
0.833542
20
0.731147
11
0.833429
21
0.731213
0
LINE
8
BLACK
6
CONTINUOUS
10
0.833429
20
0.731213
11
0.833045
21
0.73128
0
LINE
8
BLACK
6
CONTINUOUS
10
0.833045
20
0.73128
11
0.832458
21
0.731774
0
LINE
8
BLACK
6
CONTINUOUS
10
0.832458
20
0.731774
11
0.831793
21
0.732157
0
LINE
8
BLACK
6
CONTINUOUS
10
0.831793
20
0.732157
11
0.831702
21
0.732407
0
LINE
8
BLACK
6
CONTINUOUS
10
0.831702
20
0.732407
11
0.831498
21
0.732579
0
LINE
8
BLACK
6
CONTINUOUS
10
0.831498
20
0.732579
11
0.831365
21
0.733334
0
LINE
8
BLACK
6
CONTINUOUS
10
0.831365
20
0.733334
11
0.831102
21
0.734055
0
LINE
8
BLACK
6
CONTINUOUS
10
0.831102
20
0.734055
11
0.831102
21
0.745866
0
LINE
8
BLACK
6
CONTINUOUS
10
0.831102
20
0.745866
11
0.83128
21
0.746876
0
LINE
8
BLACK
6
CONTINUOUS
10
0.83128
20
0.746876
11
0.832579
21
0.748423
0
LINE
8
BLACK
6
CONTINUOUS
10
0.832579
20
0.748423
11
0.834568
21
0.748774
0
LINE
8
BLACK
6
CONTINUOUS
10
0.834568
20
0.748774
11
0.836317
21
0.747764
0
LINE
8
BLACK
6
CONTINUOUS
10
0.836317
20
0.747764
11
0.837008
21
0.745866
0
LINE
8
BLACK
6
CONTINUOUS
10
0.837008
20
0.745866
11
0.837008
21
0.737008
0
LINE
8
BLACK
6
CONTINUOUS
10
0.837008
20
0.737008
11
0.962992
21
0.737008
0
LINE
8
BLACK
6
CONTINUOUS
10
0.962992
20
0.737008
11
0.962992
21
0.745866
0
LINE
8
BLACK
6
CONTINUOUS
10
0.962992
20
0.745866
11
0.96317
21
0.746876
0
LINE
8
BLACK
6
CONTINUOUS
10
0.96317
20
0.746876
11
0.964469
21
0.748423
0
LINE
8
BLACK
6
CONTINUOUS
10
0.964469
20
0.748423
11
0.966458
21
0.748774
0
LINE
8
BLACK
6
CONTINUOUS
10
0.966458
20
0.748774
11
0.968207
21
0.747764
0
LINE
8
BLACK
6
CONTINUOUS
10
1.18538
20
0.763784
11
1.18551
21
0.763798
0
LINE
8
BLACK
6
CONTINUOUS
10
1.18551
20
0.763798
11
1.19301
21
0.761924
0
LINE
8
BLACK
6
CONTINUOUS
10
1.19301
20
0.761924
11
1.19348
21
0.761716
0
LINE
8
BLACK
6
CONTINUOUS
10
1.19348
20
0.761716
11
1.19362
21
0.7617
0
LINE
8
BLACK
6
CONTINUOUS
10
1.19362
20
0.7617
11
1.19736
21
0.759825
0
LINE
8
BLACK
6
CONTINUOUS
10
1.19736
20
0.759825
11
1.19807
21
0.759299
0
LINE
8
BLACK
6
CONTINUOUS
10
1.19807
20
0.759299
11
1.19813
21
0.759272
0
LINE
8
BLACK
6
CONTINUOUS
10
1.19813
20
0.759272
11
1.20188
21
0.755523
0
LINE
8
BLACK
6
CONTINUOUS
10
1.20188
20
0.755523
11
1.20247
21
0.754682
0
LINE
8
BLACK
6
CONTINUOUS
10
1.20247
20
0.754682
11
1.20249
21
0.754507
0
LINE
8
BLACK
6
CONTINUOUS
10
1.20249
20
0.754507
11
1.20259
21
0.754368
0
LINE
8
BLACK
6
CONTINUOUS
10
1.20259
20
0.754368
11
1.20447
21
0.748744
0
LINE
8
BLACK
6
CONTINUOUS
10
1.20447
20
0.748744
11
1.2046
21
0.747871
0
LINE
8
BLACK
6
CONTINUOUS
10
1.2046
20
0.747871
11
1.20462
21
0.74781
0
LINE
8
BLACK
6
CONTINUOUS
10
1.20462
20
0.74781
11
1.20462
21
0.744061
0
LINE
8
BLACK
6
CONTINUOUS
10
1.20462
20
0.744061
11
1.20447
21
0.743191
0
LINE
8
BLACK
6
CONTINUOUS
10
1.20447
20
0.743191
11
1.20447
21
0.743127
0
LINE
8
BLACK
6
CONTINUOUS
10
1.20447
20
0.743127
11
1.20259
21
0.737503
0
LINE
8
BLACK
6
CONTINUOUS
10
1.20259
20
0.737503
11
1.20211
21
0.736601
0
LINE
8
BLACK
6
CONTINUOUS
10
1.20211
20
0.736601
11
1.20196
21
0.736509
0
LINE
8
BLACK
6
CONTINUOUS
10
1.20196
20
0.736509
11
1.20188
21
0.736349
0
LINE
8
BLACK
6
CONTINUOUS
10
1.20188
20
0.736349
11
1.20001
21
0.734474
0
LINE
8
BLACK
6
CONTINUOUS
10
1.20001
20
0.734474
11
1.19917
21
0.733886
0
LINE
8
BLACK
6
CONTINUOUS
10
1.19917
20
0.733886
11
1.19715
21
0.73371
0
LINE
8
BLACK
6
CONTINUOUS
10
1.19715
20
0.73371
11
1.1955
21
0.734868
0
LINE
8
BLACK
6
CONTINUOUS
10
1.1955
20
0.734868
11
1.19498
21
0.736819
0
LINE
8
BLACK
6
CONTINUOUS
10
1.19498
20
0.736819
11
1.19583
21
0.73865
0
LINE
8
BLACK
6
CONTINUOUS
10
1.19583
20
0.73865
11
1.19721
21
0.740031
0
LINE
8
BLACK
6
CONTINUOUS
10
1.19721
20
0.740031
11
1.19872
21
0.74454
0
LINE
8
BLACK
6
CONTINUOUS
10
1.19872
20
0.74454
11
1.19872
21
0.747331
0
LINE
8
BLACK
6
CONTINUOUS
10
1.19872
20
0.747331
11
1.19721
21
0.75184
0
LINE
8
BLACK
6
CONTINUOUS
10
1.19721
20
0.75184
11
1.1943
21
0.754757
0
LINE
8
BLACK
6
CONTINUOUS
10
1.1943
20
0.754757
11
1.19126
21
0.756273
0
LINE
8
BLACK
6
CONTINUOUS
10
1.19126
20
0.756273
11
1.18443
21
0.757981
0
LINE
8
BLACK
6
CONTINUOUS
10
1.18443
20
0.757981
11
1.17953
21
0.757981
0
LINE
8
BLACK
6
CONTINUOUS
10
1.17953
20
0.757981
11
1.1727
21
0.756273
0
LINE
8
BLACK
6
CONTINUOUS
10
1.1727
20
0.756273
11
1.16967
21
0.754757
0
LINE
8
BLACK
6
CONTINUOUS
10
1.16967
20
0.754757
11
1.16675
21
0.75184
0
LINE
8
BLACK
6
CONTINUOUS
10
1.16675
20
0.75184
11
1.16525
21
0.747331
0
LINE
8
BLACK
6
CONTINUOUS
10
1.16525
20
0.747331
11
1.16525
21
0.74454
0
LINE
8
BLACK
6
CONTINUOUS
10
1.16525
20
0.74454
11
1.16675
21
0.740031
0
LINE
8
BLACK
6
CONTINUOUS
10
1.16675
20
0.740031
11
1.16814
21
0.73865
0
LINE
8
BLACK
6
CONTINUOUS
10
1.16814
20
0.73865
11
1.16872
21
0.73781
0
LINE
8
BLACK
6
CONTINUOUS
10
1.16872
20
0.73781
11
1.1689
21
0.735797
0
LINE
8
BLACK
6
CONTINUOUS
10
1.1689
20
0.735797
11
1.16774
21
0.734143
0
LINE
8
BLACK
6
CONTINUOUS
10
1.16774
20
0.734143
11
1.16579
21
0.73362
0
LINE
8
BLACK
6
CONTINUOUS
10
1.16579
20
0.73362
11
1.16396
21
0.734474
0
LINE
8
BLACK
6
CONTINUOUS
10
1.16396
20
0.734474
11
1.16209
21
0.736349
0
LINE
8
BLACK
6
CONTINUOUS
10
1.16209
20
0.736349
11
1.1615
21
0.737189
0
LINE
8
BLACK
6
CONTINUOUS
10
1.1615
20
0.737189
11
1.16148
21
0.737364
0
LINE
8
BLACK
6
CONTINUOUS
10
1.16148
20
0.737364
11
1.16137
21
0.737503
0
LINE
8
BLACK
6
CONTINUOUS
10
1.16137
20
0.737503
11
1.1595
21
0.743127
0
LINE
8
BLACK
6
CONTINUOUS
10
1.1595
20
0.743127
11
1.15937
21
0.744
0
LINE
8
BLACK
6
CONTINUOUS
10
1.15937
20
0.744
11
1.15935
21
0.744061
0
LINE
8
BLACK
6
CONTINUOUS
10
1.15935
20
0.744061
11
1.15935
21
0.74781
0
LINE
8
BLACK
6
CONTINUOUS
10
1.15935
20
0.74781
11
1.1595
21
0.74868
0
LINE
8
BLACK
6
CONTINUOUS
10
1.1595
20
0.74868
11
1.1595
21
0.748744
0
LINE
8
BLACK
6
CONTINUOUS
10
1.1595
20
0.748744
11
1.16137
21
0.754368
0
LINE
8
BLACK
6
CONTINUOUS
10
1.16137
20
0.754368
11
1.16186
21
0.75527
0
LINE
8
BLACK
6
CONTINUOUS
10
1.16186
20
0.75527
11
1.16201
21
0.755363
0
LINE
8
BLACK
6
CONTINUOUS
10
1.16201
20
0.755363
11
1.16209
21
0.755523
0
LINE
8
BLACK
6
CONTINUOUS
10
1.16209
20
0.755523
11
1.16583
21
0.759272
0
LINE
8
BLACK
6
CONTINUOUS
10
1.16583
20
0.759272
11
1.16656
21
0.759778
0
LINE
8
BLACK
6
CONTINUOUS
10
1.16656
20
0.759778
11
1.1666
21
0.759825
0
LINE
8
BLACK
6
CONTINUOUS
10
1.1666
20
0.759825
11
1.17035
21
0.7617
0
LINE
8
BLACK
6
CONTINUOUS
10
1.17035
20
0.7617
11
1.17084
21
0.761845
0
LINE
8
BLACK
6
CONTINUOUS
10
1.17084
20
0.761845
11
1.17096
21
0.761924
0
LINE
8
BLACK
6
CONTINUOUS
10
1.17096
20
0.761924
11
1.17846
21
0.763798
0
LINE
8
BLACK
6
CONTINUOUS
10
1.17846
20
0.763798
11
1.17904
21
0.76384
0
LINE
8
BLACK
6
CONTINUOUS
10
1.17904
20
0.76384
11
1.17917
21
0.763886
0
LINE
8
BLACK
6
CONTINUOUS
10
1.17917
20
0.763886
11
1.1848
21
0.763886
0
LINE
8
BLACK
6
CONTINUOUS
10
1.1848
20
0.763886
11
1.18538
21
0.763784
0
LINE
8
BLACK
6
CONTINUOUS
10
1.55663
20
0.975529
11
1.55732
21
0.973858
0
LINE
8
BLACK
6
CONTINUOUS
10
1.55732
20
0.973858
11
1.55732
21
0.76126
0
LINE
8
BLACK
6
CONTINUOUS
10
1.55732
20
0.76126
11
1.55663
21
0.75959
0
LINE
8
BLACK
6
CONTINUOUS
10
1.55663
20
0.75959
11
1.55496
21
0.758898
0
LINE
8
BLACK
6
CONTINUOUS
10
1.55496
20
0.758898
11
1.55329
21
0.75959
0
LINE
8
BLACK
6
CONTINUOUS
10
1.55329
20
0.75959
11
1.5526
21
0.76126
0
LINE
8
BLACK
6
CONTINUOUS
10
1.5526
20
0.76126
11
1.5526
21
0.971496
0
LINE
8
BLACK
6
CONTINUOUS
10
1.5526
20
0.971496
11
1.4274
21
0.971496
0
LINE
8
BLACK
6
CONTINUOUS
10
1.4274
20
0.971496
11
1.4274
21
0.76126
0
LINE
8
BLACK
6
CONTINUOUS
10
1.4274
20
0.76126
11
1.42671
21
0.75959
0
LINE
8
BLACK
6
CONTINUOUS
10
1.42671
20
0.75959
11
1.42504
21
0.758898
0
LINE
8
BLACK
6
CONTINUOUS
10
1.42504
20
0.758898
11
1.42337
21
0.75959
0
LINE
8
BLACK
6
CONTINUOUS
10
1.42337
20
0.75959
11
1.42268
21
0.76126
0
LINE
8
BLACK
6
CONTINUOUS
10
1.42268
20
0.76126
11
1.42268
21
0.973858
0
LINE
8
BLACK
6
CONTINUOUS
10
1.42268
20
0.973858
11
1.42337
21
0.975529
0
LINE
8
BLACK
6
CONTINUOUS
10
1.42337
20
0.975529
11
1.42504
21
0.97622
0
LINE
8
BLACK
6
CONTINUOUS
10
1.42504
20
0.97622
11
1.55496
21
0.97622
0
LINE
8
BLACK
6
CONTINUOUS
10
1.55496
20
0.97622
11
1.55663
21
0.975529
0
LINE
8
BLACK
6
CONTINUOUS
10
1.38302
20
0.833935
11
1.38414
21
0.83225
0
LINE
8
BLACK
6
CONTINUOUS
10
1.38414
20
0.83225
11
1.3839
21
0.830243
0
LINE
8
BLACK
6
CONTINUOUS
10
1.3839
20
0.830243
11
1.38203
21
0.826494
0
LINE
8
BLACK
6
CONTINUOUS
10
1.38203
20
0.826494
11
1.3815
21
0.825784
0
LINE
8
BLACK
6
CONTINUOUS
10
1.3815
20
0.825784
11
1.38148
21
0.825726
0
LINE
8
BLACK
6
CONTINUOUS
10
1.38148
20
0.825726
11
1.37902
21
0.823268
0
LINE
8
BLACK
6
CONTINUOUS
10
1.37902
20
0.823268
11
1.40643
21
0.823268
0
LINE
8
BLACK
6
CONTINUOUS
10
1.40643
20
0.823268
11
1.40643
21
0.831564
0
LINE
8
BLACK
6
CONTINUOUS
10
1.40643
20
0.831564
11
1.40661
21
0.832574
0
LINE
8
BLACK
6
CONTINUOUS
10
1.40661
20
0.832574
11
1.40791
21
0.834121
0
LINE
8
BLACK
6
CONTINUOUS
10
1.40791
20
0.834121
11
1.4099
21
0.834471
0
LINE
8
BLACK
6
CONTINUOUS
10
1.4099
20
0.834471
11
1.41165
21
0.833462
0
LINE
8
BLACK
6
CONTINUOUS
10
1.41165
20
0.833462
11
1.41234
21
0.831564
0
LINE
8
BLACK
6
CONTINUOUS
10
1.41234
20
0.831564
11
1.41234
21
0.809066
0
LINE
8
BLACK
6
CONTINUOUS
10
1.41234
20
0.809066
11
1.41216
21
0.808056
0
LINE
8
BLACK
6
CONTINUOUS
10
1.41216
20
0.808056
11
1.41086
21
0.806509
0
LINE
8
BLACK
6
CONTINUOUS
10
1.41086
20
0.806509
11
1.40887
21
0.806158
0
LINE
8
BLACK
6
CONTINUOUS
10
1.40887
20
0.806158
11
1.40712
21
0.807168
0
LINE
8
BLACK
6
CONTINUOUS
10
1.40712
20
0.807168
11
1.40643
21
0.809066
0
LINE
8
BLACK
6
CONTINUOUS
10
1.40643
20
0.809066
11
1.40643
21
0.817362
0
LINE
8
BLACK
6
CONTINUOUS
10
1.40643
20
0.817362
11
1.37001
21
0.817362
0
LINE
8
BLACK
6
CONTINUOUS
10
1.37001
20
0.817362
11
1.36901
21
0.81754
0
LINE
8
BLACK
6
CONTINUOUS
10
1.36901
20
0.81754
11
1.36888
21
0.817649
0
LINE
8
BLACK
6
CONTINUOUS
10
1.36888
20
0.817649
11
1.36871
21
0.817668
0
LINE
8
BLACK
6
CONTINUOUS
10
1.36871
20
0.817668
11
1.36811
21
0.818288
0
LINE
8
BLACK
6
CONTINUOUS
10
1.36811
20
0.818288
11
1.36746
21
0.818839
0
LINE
8
BLACK
6
CONTINUOUS
10
1.36746
20
0.818839
11
1.36743
21
0.819006
0
LINE
8
BLACK
6
CONTINUOUS
10
1.36743
20
0.819006
11
1.36731
21
0.819129
0
LINE
8
BLACK
6
CONTINUOUS
10
1.36731
20
0.819129
11
1.36726
21
0.819984
0
LINE
8
BLACK
6
CONTINUOUS
10
1.36726
20
0.819984
11
1.36711
21
0.820828
0
LINE
8
BLACK
6
CONTINUOUS
10
1.36711
20
0.820828
11
1.36719
21
0.820975
0
LINE
8
BLACK
6
CONTINUOUS
10
1.36719
20
0.820975
11
1.36718
21
0.821144
0
LINE
8
BLACK
6
CONTINUOUS
10
1.36718
20
0.821144
11
1.36769
21
0.821835
0
LINE
8
BLACK
6
CONTINUOUS
10
1.36769
20
0.821835
11
1.36812
21
0.822577
0
LINE
8
BLACK
6
CONTINUOUS
10
1.36812
20
0.822577
11
1.36828
21
0.822635
0
LINE
8
BLACK
6
CONTINUOUS
10
1.36828
20
0.822635
11
1.36838
21
0.822772
0
LINE
8
BLACK
6
CONTINUOUS
10
1.36838
20
0.822772
11
1.37376
21
0.826359
0
LINE
8
BLACK
6
CONTINUOUS
10
1.37376
20
0.826359
11
1.37696
21
0.829563
0
LINE
8
BLACK
6
CONTINUOUS
10
1.37696
20
0.829563
11
1.37862
21
0.832884
0
LINE
8
BLACK
6
CONTINUOUS
10
1.37862
20
0.832884
11
1.37923
21
0.833708
0
LINE
8
BLACK
6
CONTINUOUS
10
1.37923
20
0.833708
11
1.38109
21
0.834511
0
LINE
8
BLACK
6
CONTINUOUS
10
1.38109
20
0.834511
11
1.38302
21
0.833935
0
LINE
8
BLACK
6
CONTINUOUS
10
1.40977
20
0.871944
11
1.4099
21
0.871967
0
LINE
8
BLACK
6
CONTINUOUS
10
1.4099
20
0.871967
11
1.41001
21
0.871901
0
LINE
8
BLACK
6
CONTINUOUS
10
1.41001
20
0.871901
11
1.41039
21
0.871834
0
LINE
8
BLACK
6
CONTINUOUS
10
1.41039
20
0.871834
11
1.41098
21
0.87134
0
LINE
8
BLACK
6
CONTINUOUS
10
1.41098
20
0.87134
11
1.41165
21
0.870957
0
LINE
8
BLACK
6
CONTINUOUS
10
1.41165
20
0.870957
11
1.41174
21
0.870707
0
LINE
8
BLACK
6
CONTINUOUS
10
1.41174
20
0.870707
11
1.41194
21
0.870535
0
LINE
8
BLACK
6
CONTINUOUS
10
1.41194
20
0.870535
11
1.41208
21
0.86978
0
LINE
8
BLACK
6
CONTINUOUS
10
1.41208
20
0.86978
11
1.41234
21
0.869059
0
LINE
8
BLACK
6
CONTINUOUS
10
1.41234
20
0.869059
11
1.41234
21
0.859685
0
LINE
8
BLACK
6
CONTINUOUS
10
1.41234
20
0.859685
11
1.41218
21
0.858816
0
LINE
8
BLACK
6
CONTINUOUS
10
1.41218
20
0.858816
11
1.41219
21
0.858751
0
LINE
8
BLACK
6
CONTINUOUS
10
1.41219
20
0.858751
11
1.41031
21
0.853127
0
LINE
8
BLACK
6
CONTINUOUS
10
1.41031
20
0.853127
11
1.40982
21
0.852225
0
LINE
8
BLACK
6
CONTINUOUS
10
1.40982
20
0.852225
11
1.40967
21
0.852133
0
LINE
8
BLACK
6
CONTINUOUS
10
1.40967
20
0.852133
11
1.4096
21
0.851973
0
LINE
8
BLACK
6
CONTINUOUS
10
1.4096
20
0.851973
11
1.40585
21
0.848223
0
LINE
8
BLACK
6
CONTINUOUS
10
1.40585
20
0.848223
11
1.40513
21
0.847717
0
LINE
8
BLACK
6
CONTINUOUS
10
1.40513
20
0.847717
11
1.40508
21
0.84767
0
LINE
8
BLACK
6
CONTINUOUS
10
1.40508
20
0.84767
11
1.40133
21
0.845795
0
LINE
8
BLACK
6
CONTINUOUS
10
1.40133
20
0.845795
11
1.40084
21
0.84565
0
LINE
8
BLACK
6
CONTINUOUS
10
1.40084
20
0.84565
11
1.40073
21
0.845572
0
LINE
8
BLACK
6
CONTINUOUS
10
1.40073
20
0.845572
11
1.39323
21
0.843697
0
LINE
8
BLACK
6
CONTINUOUS
10
1.39323
20
0.843697
11
1.39264
21
0.843656
0
LINE
8
BLACK
6
CONTINUOUS
10
1.39264
20
0.843656
11
1.39251
21
0.843609
0
LINE
8
BLACK
6
CONTINUOUS
10
1.39251
20
0.843609
11
1.38689
21
0.843609
0
LINE
8
BLACK
6
CONTINUOUS
10
1.38689
20
0.843609
11
1.38631
21
0.843711
0
LINE
8
BLACK
6
CONTINUOUS
10
1.38631
20
0.843711
11
1.38617
21
0.843697
0
LINE
8
BLACK
6
CONTINUOUS
10
1.38617
20
0.843697
11
1.37867
21
0.845572
0
LINE
8
BLACK
6
CONTINUOUS
10
1.37867
20
0.845572
11
1.37821
21
0.845779
0
LINE
8
BLACK
6
CONTINUOUS
10
1.37821
20
0.845779
11
1.37807
21
0.845795
0
LINE
8
BLACK
6
CONTINUOUS
10
1.37807
20
0.845795
11
1.37432
21
0.84767
0
LINE
8
BLACK
6
CONTINUOUS
10
1.37432
20
0.84767
11
1.37361
21
0.848196
0
LINE
8
BLACK
6
CONTINUOUS
10
1.37361
20
0.848196
11
1.37355
21
0.848223
0
LINE
8
BLACK
6
CONTINUOUS
10
1.37355
20
0.848223
11
1.3698
21
0.851973
0
LINE
8
BLACK
6
CONTINUOUS
10
1.3698
20
0.851973
11
1.36921
21
0.852813
0
LINE
8
BLACK
6
CONTINUOUS
10
1.36921
20
0.852813
11
1.3692
21
0.852989
0
LINE
8
BLACK
6
CONTINUOUS
10
1.3692
20
0.852989
11
1.36909
21
0.853127
0
LINE
8
BLACK
6
CONTINUOUS
10
1.36909
20
0.853127
11
1.36721
21
0.858751
0
LINE
8
BLACK
6
CONTINUOUS
10
1.36721
20
0.858751
11
1.36708
21
0.859624
0
LINE
8
BLACK
6
CONTINUOUS
10
1.36708
20
0.859624
11
1.36706
21
0.859685
0
LINE
8
BLACK
6
CONTINUOUS
10
1.36706
20
0.859685
11
1.36706
21
0.869059
0
LINE
8
BLACK
6
CONTINUOUS
10
1.36706
20
0.869059
11
1.36713
21
0.869442
0
LINE
8
BLACK
6
CONTINUOUS
10
1.36713
20
0.869442
11
1.36711
21
0.869572
0
LINE
8
BLACK
6
CONTINUOUS
10
1.36711
20
0.869572
11
1.36717
21
0.869685
0
LINE
8
BLACK
6
CONTINUOUS
10
1.36717
20
0.869685
11
1.36724
21
0.870069
0
LINE
8
BLACK
6
CONTINUOUS
10
1.36724
20
0.870069
11
1.36773
21
0.870656
0
LINE
8
BLACK
6
CONTINUOUS
10
1.36773
20
0.870656
11
1.36812
21
0.871321
0
LINE
8
BLACK
6
CONTINUOUS
10
1.36812
20
0.871321
11
1.36837
21
0.871412
0
LINE
8
BLACK
6
CONTINUOUS
10
1.36837
20
0.871412
11
1.36854
21
0.871616
0
LINE
8
BLACK
6
CONTINUOUS
10
1.36854
20
0.871616
11
1.36929
21
0.871749
0
LINE
8
BLACK
6
CONTINUOUS
10
1.36929
20
0.871749
11
1.37001
21
0.872012
0
LINE
8
BLACK
6
CONTINUOUS
10
1.37001
20
0.872012
11
1.40939
21
0.872012
0
LINE
8
BLACK
6
CONTINUOUS
10
1.40939
20
0.872012
11
1.40977
21
0.871944
0
LINE
8
BLACK
6
CONTINUOUS
10
1.37297
20
0.866106
11
1.37297
21
0.860164
0
LINE
8
BLACK
6
CONTINUOUS
10
1.37297
20
0.860164
11
1.37447
21
0.855656
0
LINE
8
BLACK
6
CONTINUOUS
10
1.37447
20
0.855656
11
1.37739
21
0.852738
0
LINE
8
BLACK
6
CONTINUOUS
10
1.37739
20
0.852738
11
1.38042
21
0.851222
0
LINE
8
BLACK
6
CONTINUOUS
10
1.38042
20
0.851222
11
1.38725
21
0.849514
0
LINE
8
BLACK
6
CONTINUOUS
10
1.38725
20
0.849514
11
1.39215
21
0.849514
0
LINE
8
BLACK
6
CONTINUOUS
10
1.39215
20
0.849514
11
1.39898
21
0.851222
0
LINE
8
BLACK
6
CONTINUOUS
10
1.39898
20
0.851222
11
1.40201
21
0.852738
0
LINE
8
BLACK
6
CONTINUOUS
10
1.40201
20
0.852738
11
1.40493
21
0.855656
0
LINE
8
BLACK
6
CONTINUOUS
10
1.40493
20
0.855656
11
1.40643
21
0.860164
0
LINE
8
BLACK
6
CONTINUOUS
10
1.40643
20
0.860164
11
1.40643
21
0.866106
0
LINE
8
BLACK
6
CONTINUOUS
10
1.40643
20
0.866106
11
1.37297
21
0.866106
0
LINE
8
BLACK
6
CONTINUOUS
10
0.966328
20
0.86883
11
0.966458
21
0.868853
0
LINE
8
BLACK
6
CONTINUOUS
10
0.966458
20
0.868853
11
0.966571
21
0.868787
0
LINE
8
BLACK
6
CONTINUOUS
10
0.966571
20
0.868787
11
0.966955
21
0.86872
0
LINE
8
BLACK
6
CONTINUOUS
10
0.966955
20
0.86872
11
0.967542
21
0.868226
0
LINE
8
BLACK
6
CONTINUOUS
10
0.967542
20
0.868226
11
0.968207
21
0.867843
0
LINE
8
BLACK
6
CONTINUOUS
10
0.968207
20
0.867843
11
0.968298
21
0.867593
0
LINE
8
BLACK
6
CONTINUOUS
10
0.968298
20
0.867593
11
0.968502
21
0.867421
0
LINE
8
BLACK
6
CONTINUOUS
10
0.968502
20
0.867421
11
0.968635
21
0.866666
0
LINE
8
BLACK
6
CONTINUOUS
10
0.968635
20
0.866666
11
0.968898
21
0.865945
0
LINE
8
BLACK
6
CONTINUOUS
10
0.968898
20
0.865945
11
0.968898
21
0.860039
0
LINE
8
BLACK
6
CONTINUOUS
10
0.968898
20
0.860039
11
1.01417
21
0.860039
0
LINE
8
BLACK
6
CONTINUOUS
10
1.01417
20
0.860039
11
1.01518
21
0.859861
0
LINE
8
BLACK
6
CONTINUOUS
10
1.01518
20
0.859861
11
1.01673
21
0.858563
0
LINE
8
BLACK
6
CONTINUOUS
10
1.01673
20
0.858563
11
1.01708
21
0.856574
0
LINE
8
BLACK
6
CONTINUOUS
10
1.01708
20
0.856574
11
1.01607
21
0.854825
0
LINE
8
BLACK
6
CONTINUOUS
10
1.01607
20
0.854825
11
1.01417
21
0.854134
0
LINE
8
BLACK
6
CONTINUOUS
10
1.01417
20
0.854134
11
0.965945
21
0.854134
0
LINE
8
BLACK
6
CONTINUOUS
10
0.965945
20
0.854134
11
0.965561
21
0.854201
0
LINE
8
BLACK
6
CONTINUOUS
10
0.965561
20
0.854201
11
0.965432
21
0.854179
0
LINE
8
BLACK
6
CONTINUOUS
10
0.965432
20
0.854179
11
0.965319
21
0.854244
0
LINE
8
BLACK
6
CONTINUOUS
10
0.965319
20
0.854244
11
0.964935
21
0.854312
0
LINE
8
BLACK
6
CONTINUOUS
10
0.964935
20
0.854312
11
0.964347
21
0.854805
0
LINE
8
BLACK
6
CONTINUOUS
10
0.964347
20
0.854805
11
0.963683
21
0.855189
0
LINE
8
BLACK
6
CONTINUOUS
10
0.963683
20
0.855189
11
0.963592
21
0.855439
0
LINE
8
BLACK
6
CONTINUOUS
10
0.963592
20
0.855439
11
0.963388
21
0.85561
0
LINE
8
BLACK
6
CONTINUOUS
10
0.963388
20
0.85561
11
0.963254
21
0.856366
0
LINE
8
BLACK
6
CONTINUOUS
10
0.963254
20
0.856366
11
0.962992
21
0.857087
0
LINE
8
BLACK
6
CONTINUOUS
10
0.962992
20
0.857087
11
0.962992
21
0.862992
0
LINE
8
BLACK
6
CONTINUOUS
10
0.962992
20
0.862992
11
0.837008
21
0.862992
0
LINE
8
BLACK
6
CONTINUOUS
10
0.837008
20
0.862992
11
0.837008
21
0.854134
0
LINE
8
BLACK
6
CONTINUOUS
10
0.837008
20
0.854134
11
0.83683
21
0.853124
0
LINE
8
BLACK
6
CONTINUOUS
10
0.83683
20
0.853124
11
0.835531
21
0.851577
0
LINE
8
BLACK
6
CONTINUOUS
10
0.835531
20
0.851577
11
0.833542
21
0.851226
0
LINE
8
BLACK
6
CONTINUOUS
10
0.833542
20
0.851226
11
0.831793
21
0.852236
0
LINE
8
BLACK
6
CONTINUOUS
10
0.831793
20
0.852236
11
0.831102
21
0.854134
0
LINE
8
BLACK
6
CONTINUOUS
10
0.831102
20
0.854134
11
0.831102
21
0.865945
0
LINE
8
BLACK
6
CONTINUOUS
10
0.831102
20
0.865945
11
0.83117
21
0.866328
0
LINE
8
BLACK
6
CONTINUOUS
10
0.83117
20
0.866328
11
0.831147
21
0.866458
0
LINE
8
BLACK
6
CONTINUOUS
10
0.831147
20
0.866458
11
0.831213
21
0.866571
0
LINE
8
BLACK
6
CONTINUOUS
10
0.831213
20
0.866571
11
0.83128
21
0.866955
0
LINE
8
BLACK
6
CONTINUOUS
10
0.83128
20
0.866955
11
0.831774
21
0.867542
0
LINE
8
BLACK
6
CONTINUOUS
10
0.831774
20
0.867542
11
0.832157
21
0.868207
0
LINE
8
BLACK
6
CONTINUOUS
10
0.832157
20
0.868207
11
0.832407
21
0.868298
0
LINE
8
BLACK
6
CONTINUOUS
10
0.832407
20
0.868298
11
0.832579
21
0.868502
0
LINE
8
BLACK
6
CONTINUOUS
10
0.832579
20
0.868502
11
0.833334
21
0.868635
0
LINE
8
BLACK
6
CONTINUOUS
10
0.833334
20
0.868635
11
0.834055
21
0.868898
0
LINE
8
BLACK
6
CONTINUOUS
10
0.834055
20
0.868898
11
0.965945
21
0.868898
0
LINE
8
BLACK
6
CONTINUOUS
10
0.965945
20
0.868898
11
0.966328
21
0.86883
0
LINE
8
BLACK
6
CONTINUOUS
10
0.932258
20
0.92582
11
0.932949
21
0.923922
0
LINE
8
BLACK
6
CONTINUOUS
10
0.932949
20
0.923922
11
0.932949
21
0.892051
0
LINE
8
BLACK
6
CONTINUOUS
10
0.932949
20
0.892051
11
0.932771
21
0.891041
0
LINE
8
BLACK
6
CONTINUOUS
10
0.932771
20
0.891041
11
0.932657
21
0.890906
0
LINE
8
BLACK
6
CONTINUOUS
10
0.932657
20
0.890906
11
0.932637
21
0.890731
0
LINE
8
BLACK
6
CONTINUOUS
10
0.932637
20
0.890731
11
0.930762
21
0.886981
0
LINE
8
BLACK
6
CONTINUOUS
10
0.930762
20
0.886981
11
0.930237
21
0.886272
0
LINE
8
BLACK
6
CONTINUOUS
10
0.930237
20
0.886272
11
0.930209
21
0.886214
0
LINE
8
BLACK
6
CONTINUOUS
10
0.930209
20
0.886214
11
0.928335
21
0.884339
0
LINE
8
BLACK
6
CONTINUOUS
10
0.928335
20
0.884339
11
0.927612
21
0.883833
0
LINE
8
BLACK
6
CONTINUOUS
10
0.927612
20
0.883833
11
0.927567
21
0.883786
0
LINE
8
BLACK
6
CONTINUOUS
10
0.927567
20
0.883786
11
0.923818
21
0.881911
0
LINE
8
BLACK
6
CONTINUOUS
10
0.923818
20
0.881911
11
0.922835
21
0.881619
0
LINE
8
BLACK
6
CONTINUOUS
10
0.922835
20
0.881619
11
0.922663
21
0.88166
0
LINE
8
BLACK
6
CONTINUOUS
10
0.922663
20
0.88166
11
0.922497
21
0.881599
0
LINE
8
BLACK
6
CONTINUOUS
10
0.922497
20
0.881599
11
0.914998
21
0.881599
0
LINE
8
BLACK
6
CONTINUOUS
10
0.914998
20
0.881599
11
0.913988
21
0.881777
0
LINE
8
BLACK
6
CONTINUOUS
10
0.913988
20
0.881777
11
0.913853
21
0.881891
0
LINE
8
BLACK
6
CONTINUOUS
10
0.913853
20
0.881891
11
0.913678
21
0.881911
0
LINE
8
BLACK
6
CONTINUOUS
10
0.913678
20
0.881911
11
0.909928
21
0.883786
0
LINE
8
BLACK
6
CONTINUOUS
10
0.909928
20
0.883786
11
0.909219
21
0.884312
0
LINE
8
BLACK
6
CONTINUOUS
10
0.909219
20
0.884312
11
0.909161
21
0.884339
0
LINE
8
BLACK
6
CONTINUOUS
10
0.909161
20
0.884339
11
0.907286
21
0.886214
0
LINE
8
BLACK
6
CONTINUOUS
10
0.907286
20
0.886214
11
0.90678
21
0.886937
0
LINE
8
BLACK
6
CONTINUOUS
10
0.90678
20
0.886937
11
0.906733
21
0.886981
0
LINE
8
BLACK
6
CONTINUOUS
10
0.906733
20
0.886981
11
0.904858
21
0.890731
0
LINE
8
BLACK
6
CONTINUOUS
10
0.904858
20
0.890731
11
0.904566
21
0.891713
0
LINE
8
BLACK
6
CONTINUOUS
10
0.904566
20
0.891713
11
0.904607
21
0.891885
0
LINE
8
BLACK
6
CONTINUOUS
10
0.904607
20
0.891885
11
0.904546
21
0.892051
0
LINE
8
BLACK
6
CONTINUOUS
10
0.904546
20
0.892051
11
0.904546
21
0.923922
0
LINE
8
BLACK
6
CONTINUOUS
10
0.904546
20
0.923922
11
0.904724
21
0.924932
0
LINE
8
BLACK
6
CONTINUOUS
10
0.904724
20
0.924932
11
0.906023
21
0.926479
0
LINE
8
BLACK
6
CONTINUOUS
10
0.906023
20
0.926479
11
0.908012
21
0.92683
0
LINE
8
BLACK
6
CONTINUOUS
10
0.908012
20
0.92683
11
0.909761
21
0.92582
0
LINE
8
BLACK
6
CONTINUOUS
10
0.909761
20
0.92582
11
0.910452
21
0.923922
0
LINE
8
BLACK
6
CONTINUOUS
10
0.910452
20
0.923922
11
0.910452
21
0.892748
0
LINE
8
BLACK
6
CONTINUOUS
10
0.910452
20
0.892748
11
0.911801
21
0.890051
0
LINE
8
BLACK
6
CONTINUOUS
10
0.911801
20
0.890051
11
0.912998
21
0.888853
0
LINE
8
BLACK
6
CONTINUOUS
10
0.912998
20
0.888853
11
0.915695
21
0.887505
0
LINE
8
BLACK
6
CONTINUOUS
10
0.915695
20
0.887505
11
0.9218
21
0.887505
0
LINE
8
BLACK
6
CONTINUOUS
10
0.9218
20
0.887505
11
0.924498
21
0.888853
0
LINE
8
BLACK
6
CONTINUOUS
10
0.924498
20
0.888853
11
0.925695
21
0.890051
0
LINE
8
BLACK
6
CONTINUOUS
10
0.925695
20
0.890051
11
0.927043
21
0.892748
0
LINE
8
BLACK
6
CONTINUOUS
10
0.927043
20
0.892748
11
0.927043
21
0.923922
0
LINE
8
BLACK
6
CONTINUOUS
10
0.927043
20
0.923922
11
0.927222
21
0.924932
0
LINE
8
BLACK
6
CONTINUOUS
10
0.927222
20
0.924932
11
0.92852
21
0.926479
0
LINE
8
BLACK
6
CONTINUOUS
10
0.92852
20
0.926479
11
0.930509
21
0.92683
0
LINE
8
BLACK
6
CONTINUOUS
10
0.930509
20
0.92683
11
0.932258
21
0.92582
0
LINE
8
BLACK
6
CONTINUOUS
10
0.880037
20
0.926745
11
0.880207
21
0.926756
0
LINE
8
BLACK
6
CONTINUOUS
10
0.880207
20
0.926756
11
0.880897
21
0.926249
0
LINE
8
BLACK
6
CONTINUOUS
10
0.880897
20
0.926249
11
0.881639
21
0.92582
0
LINE
8
BLACK
6
CONTINUOUS
10
0.881639
20
0.92582
11
0.881698
21
0.92566
0
LINE
8
BLACK
6
CONTINUOUS
10
0.881698
20
0.92566
11
0.881834
21
0.92556
0
LINE
8
BLACK
6
CONTINUOUS
10
0.881834
20
0.92556
11
0.885422
21
0.920179
0
LINE
8
BLACK
6
CONTINUOUS
10
0.885422
20
0.920179
11
0.888626
21
0.916975
0
LINE
8
BLACK
6
CONTINUOUS
10
0.888626
20
0.916975
11
0.891947
21
0.915314
0
LINE
8
BLACK
6
CONTINUOUS
10
0.891947
20
0.915314
11
0.89277
21
0.914704
0
LINE
8
BLACK
6
CONTINUOUS
10
0.89277
20
0.914704
11
0.893574
21
0.91285
0
LINE
8
BLACK
6
CONTINUOUS
10
0.893574
20
0.91285
11
0.892998
21
0.910914
0
LINE
8
BLACK
6
CONTINUOUS
10
0.892998
20
0.910914
11
0.891312
21
0.909801
0
LINE
8
BLACK
6
CONTINUOUS
10
0.891312
20
0.909801
11
0.889306
21
0.910032
0
LINE
8
BLACK
6
CONTINUOUS
10
0.889306
20
0.910032
11
0.885556
21
0.911907
0
LINE
8
BLACK
6
CONTINUOUS
10
0.885556
20
0.911907
11
0.884847
21
0.912433
0
LINE
8
BLACK
6
CONTINUOUS
10
0.884847
20
0.912433
11
0.884789
21
0.91246
0
LINE
8
BLACK
6
CONTINUOUS
10
0.884789
20
0.91246
11
0.88233
21
0.914919
0
LINE
8
BLACK
6
CONTINUOUS
10
0.88233
20
0.914919
11
0.88233
21
0.887505
0
LINE
8
BLACK
6
CONTINUOUS
10
0.88233
20
0.887505
11
0.890626
21
0.887505
0
LINE
8
BLACK
6
CONTINUOUS
10
0.890626
20
0.887505
11
0.891636
21
0.887327
0
LINE
8
BLACK
6
CONTINUOUS
10
0.891636
20
0.887327
11
0.893183
21
0.886028
0
LINE
8
BLACK
6
CONTINUOUS
10
0.893183
20
0.886028
11
0.893534
21
0.884039
0
LINE
8
BLACK
6
CONTINUOUS
10
0.893534
20
0.884039
11
0.892524
21
0.88229
0
LINE
8
BLACK
6
CONTINUOUS
10
0.892524
20
0.88229
11
0.890626
21
0.881599
0
LINE
8
BLACK
6
CONTINUOUS
10
0.890626
20
0.881599
11
0.868129
21
0.881599
0
LINE
8
BLACK
6
CONTINUOUS
10
0.868129
20
0.881599
11
0.867119
21
0.881777
0
LINE
8
BLACK
6
CONTINUOUS
10
0.867119
20
0.881777
11
0.865572
21
0.883076
0
LINE
8
BLACK
6
CONTINUOUS
10
0.865572
20
0.883076
11
0.865221
21
0.885065
0
LINE
8
BLACK
6
CONTINUOUS
10
0.865221
20
0.885065
11
0.866231
21
0.886814
0
LINE
8
BLACK
6
CONTINUOUS
10
0.866231
20
0.886814
11
0.868129
21
0.887505
0
LINE
8
BLACK
6
CONTINUOUS
10
0.868129
20
0.887505
11
0.876425
21
0.887505
0
LINE
8
BLACK
6
CONTINUOUS
10
0.876425
20
0.887505
11
0.876425
21
0.923922
0
LINE
8
BLACK
6
CONTINUOUS
10
0.876425
20
0.923922
11
0.876603
21
0.924932
0
LINE
8
BLACK
6
CONTINUOUS
10
0.876603
20
0.924932
11
0.876712
21
0.925062
0
LINE
8
BLACK
6
CONTINUOUS
10
0.876712
20
0.925062
11
0.876731
21
0.925231
0
LINE
8
BLACK
6
CONTINUOUS
10
0.876731
20
0.925231
11
0.87735
21
0.925823
0
LINE
8
BLACK
6
CONTINUOUS
10
0.87735
20
0.925823
11
0.877901
21
0.926479
0
LINE
8
BLACK
6
CONTINUOUS
10
0.877901
20
0.926479
11
0.878068
21
0.926509
0
LINE
8
BLACK
6
CONTINUOUS
10
0.878068
20
0.926509
11
0.878191
21
0.926626
0
LINE
8
BLACK
6
CONTINUOUS
10
0.878191
20
0.926626
11
0.879046
21
0.926681
0
LINE
8
BLACK
6
CONTINUOUS
10
0.879046
20
0.926681
11
0.87989
21
0.92683
0
LINE
8
BLACK
6
CONTINUOUS
10
0.87989
20
0.92683
11
0.880037
21
0.926745
0
LINE
8
BLACK
6
CONTINUOUS
10
1.1823
20
1.11628
11
1.18243
21
1.11629
0
LINE
8
BLACK
6
CONTINUOUS
10
1.18243
20
1.11629
11
1.18316
21
1.11578
0
LINE
8
BLACK
6
CONTINUOUS
10
1.18316
20
1.11578
11
1.18393
21
1.11534
0
LINE
8
BLACK
6
CONTINUOUS
10
1.18393
20
1.11534
11
1.18398
21
1.11521
0
LINE
8
BLACK
6
CONTINUOUS
10
1.18398
20
1.11521
11
1.18409
21
1.11513
0
LINE
8
BLACK
6
CONTINUOUS
10
1.18409
20
1.11513
11
1.18432
21
1.11427
0
LINE
8
BLACK
6
CONTINUOUS
10
1.18432
20
1.11427
11
1.18462
21
1.11344
0
LINE
8
BLACK
6
CONTINUOUS
10
1.18462
20
1.11344
11
1.18462
21
1.08907
0
LINE
8
BLACK
6
CONTINUOUS
10
1.18462
20
1.08907
11
1.18444
21
1.08806
0
LINE
8
BLACK
6
CONTINUOUS
10
1.18444
20
1.08806
11
1.18314
21
1.08651
0
LINE
8
BLACK
6
CONTINUOUS
10
1.18314
20
1.08651
11
1.18116
21
1.08616
0
LINE
8
BLACK
6
CONTINUOUS
10
1.18116
20
1.08616
11
1.17941
21
1.08717
0
LINE
8
BLACK
6
CONTINUOUS
10
1.17941
20
1.08717
11
1.17872
21
1.08907
0
LINE
8
BLACK
6
CONTINUOUS
10
1.17872
20
1.08907
11
1.17872
21
1.10631
0
LINE
8
BLACK
6
CONTINUOUS
10
1.17872
20
1.10631
11
1.16126
21
1.08885
0
LINE
8
BLACK
6
CONTINUOUS
10
1.16126
20
1.08885
11
1.16042
21
1.08827
0
LINE
8
BLACK
6
CONTINUOUS
10
1.16042
20
1.08827
11
1.16024
21
1.08825
0
LINE
8
BLACK
6
CONTINUOUS
10
1.16024
20
1.08825
11
1.16011
21
1.08814
0
LINE
8
BLACK
6
CONTINUOUS
10
1.16011
20
1.08814
11
1.15448
21
1.08627
0
LINE
8
BLACK
6
CONTINUOUS
10
1.15448
20
1.08627
11
1.15361
21
1.08614
0
LINE
8
BLACK
6
CONTINUOUS
10
1.15361
20
1.08614
11
1.15355
21
1.08611
0
LINE
8
BLACK
6
CONTINUOUS
10
1.15355
20
1.08611
11
1.1498
21
1.08611
0
LINE
8
BLACK
6
CONTINUOUS
10
1.1498
20
1.08611
11
1.14879
21
1.08629
0
LINE
8
BLACK
6
CONTINUOUS
10
1.14879
20
1.08629
11
1.14865
21
1.08641
0
LINE
8
BLACK
6
CONTINUOUS
10
1.14865
20
1.08641
11
1.14848
21
1.08643
0
LINE
8
BLACK
6
CONTINUOUS
10
1.14848
20
1.08643
11
1.14473
21
1.0883
0
LINE
8
BLACK
6
CONTINUOUS
10
1.14473
20
1.0883
11
1.14402
21
1.08883
0
LINE
8
BLACK
6
CONTINUOUS
10
1.14402
20
1.08883
11
1.14396
21
1.08885
0
LINE
8
BLACK
6
CONTINUOUS
10
1.14396
20
1.08885
11
1.14209
21
1.09073
0
LINE
8
BLACK
6
CONTINUOUS
10
1.14209
20
1.09073
11
1.14158
21
1.09145
0
LINE
8
BLACK
6
CONTINUOUS
10
1.14158
20
1.09145
11
1.14153
21
1.0915
0
LINE
8
BLACK
6
CONTINUOUS
10
1.14153
20
1.0915
11
1.13966
21
1.09524
0
LINE
8
BLACK
6
CONTINUOUS
10
1.13966
20
1.09524
11
1.13937
21
1.09623
0
LINE
8
BLACK
6
CONTINUOUS
10
1.13937
20
1.09623
11
1.13941
21
1.0964
0
LINE
8
BLACK
6
CONTINUOUS
10
1.13941
20
1.0964
11
1.13935
21
1.09657
0
LINE
8
BLACK
6
CONTINUOUS
10
1.13935
20
1.09657
11
1.13935
21
1.10594
0
LINE
8
BLACK
6
CONTINUOUS
10
1.13935
20
1.10594
11
1.13952
21
1.10695
0
LINE
8
BLACK
6
CONTINUOUS
10
1.13952
20
1.10695
11
1.13964
21
1.10708
0
LINE
8
BLACK
6
CONTINUOUS
10
1.13964
20
1.10708
11
1.13966
21
1.10726
0
LINE
8
BLACK
6
CONTINUOUS
10
1.13966
20
1.10726
11
1.14153
21
1.11101
0
LINE
8
BLACK
6
CONTINUOUS
10
1.14153
20
1.11101
11
1.14206
21
1.11172
0
LINE
8
BLACK
6
CONTINUOUS
10
1.14206
20
1.11172
11
1.14209
21
1.11178
0
LINE
8
BLACK
6
CONTINUOUS
10
1.14209
20
1.11178
11
1.14396
21
1.11365
0
LINE
8
BLACK
6
CONTINUOUS
10
1.14396
20
1.11365
11
1.1448
21
1.11424
0
LINE
8
BLACK
6
CONTINUOUS
10
1.1448
20
1.11424
11
1.14681
21
1.11442
0
LINE
8
BLACK
6
CONTINUOUS
10
1.14681
20
1.11442
11
1.14847
21
1.11326
0
LINE
8
BLACK
6
CONTINUOUS
10
1.14847
20
1.11326
11
1.14899
21
1.11131
0
LINE
8
BLACK
6
CONTINUOUS
10
1.14899
20
1.11131
11
1.14814
21
1.10948
0
LINE
8
BLACK
6
CONTINUOUS
10
1.14814
20
1.10948
11
1.1466
21
1.10794
0
LINE
8
BLACK
6
CONTINUOUS
10
1.1466
20
1.10794
11
1.14525
21
1.10524
0
LINE
8
BLACK
6
CONTINUOUS
10
1.14525
20
1.10524
11
1.14525
21
1.09726
0
LINE
8
BLACK
6
CONTINUOUS
10
1.14525
20
1.09726
11
1.1466
21
1.09457
0
LINE
8
BLACK
6
CONTINUOUS
10
1.1466
20
1.09457
11
1.1478
21
1.09337
0
LINE
8
BLACK
6
CONTINUOUS
10
1.1478
20
1.09337
11
1.15049
21
1.09202
0
LINE
8
BLACK
6
CONTINUOUS
10
1.15049
20
1.09202
11
1.15307
21
1.09202
0
LINE
8
BLACK
6
CONTINUOUS
10
1.15307
20
1.09202
11
1.15758
21
1.09352
0
LINE
8
BLACK
6
CONTINUOUS
10
1.15758
20
1.09352
11
1.17958
21
1.11553
0
LINE
8
BLACK
6
CONTINUOUS
10
1.17958
20
1.11553
11
1.18011
21
1.1159
0
LINE
8
BLACK
6
CONTINUOUS
10
1.18011
20
1.1159
11
1.18019
21
1.116
0
LINE
8
BLACK
6
CONTINUOUS
10
1.18019
20
1.116
11
1.18027
21
1.11601
0
LINE
8
BLACK
6
CONTINUOUS
10
1.18027
20
1.11601
11
1.18042
21
1.11611
0
LINE
8
BLACK
6
CONTINUOUS
10
1.18042
20
1.11611
11
1.18131
21
1.11619
0
LINE
8
BLACK
6
CONTINUOUS
10
1.18131
20
1.11619
11
1.18218
21
1.11635
0
LINE
8
BLACK
6
CONTINUOUS
10
1.18218
20
1.11635
11
1.1823
21
1.11628
0
LINE
8
BLACK
6
CONTINUOUS
10
1.20273
20
1.13196
11
1.20343
21
1.13029
0
LINE
8
BLACK
6
CONTINUOUS
10
1.20343
20
1.13029
11
1.20343
21
1.10971
0
LINE
8
BLACK
6
CONTINUOUS
10
1.20343
20
1.10971
11
1.20273
21
1.10804
0
LINE
8
BLACK
6
CONTINUOUS
10
1.20273
20
1.10804
11
1.20106
21
1.10735
0
LINE
8
BLACK
6
CONTINUOUS
10
1.20106
20
1.10735
11
1.19939
21
1.10804
0
LINE
8
BLACK
6
CONTINUOUS
10
1.19939
20
1.10804
11
1.1987
21
1.10971
0
LINE
8
BLACK
6
CONTINUOUS
10
1.1987
20
1.10971
11
1.1987
21
1.13029
0
LINE
8
BLACK
6
CONTINUOUS
10
1.1987
20
1.13029
11
1.19939
21
1.13196
0
LINE
8
BLACK
6
CONTINUOUS
10
1.19939
20
1.13196
11
1.20106
21
1.13265
0
LINE
8
BLACK
6
CONTINUOUS
10
1.20106
20
1.13265
11
1.20273
21
1.13196
0
LINE
8
BLACK
6
CONTINUOUS
10
1.26061
20
1.13196
11
1.2613
21
1.13029
0
LINE
8
BLACK
6
CONTINUOUS
10
1.2613
20
1.13029
11
1.2613
21
1.10971
0
LINE
8
BLACK
6
CONTINUOUS
10
1.2613
20
1.10971
11
1.26061
21
1.10804
0
LINE
8
BLACK
6
CONTINUOUS
10
1.26061
20
1.10804
11
1.25894
21
1.10735
0
LINE
8
BLACK
6
CONTINUOUS
10
1.25894
20
1.10735
11
1.25727
21
1.10804
0
LINE
8
BLACK
6
CONTINUOUS
10
1.25727
20
1.10804
11
1.25657
21
1.10971
0
LINE
8
BLACK
6
CONTINUOUS
10
1.25657
20
1.10971
11
1.25657
21
1.13029
0
LINE
8
BLACK
6
CONTINUOUS
10
1.25657
20
1.13029
11
1.25727
21
1.13196
0
LINE
8
BLACK
6
CONTINUOUS
10
1.25727
20
1.13196
11
1.25894
21
1.13265
0
LINE
8
BLACK
6
CONTINUOUS
10
1.25894
20
1.13265
11
1.26061
21
1.13196
0
LINE
8
BLACK
6
CONTINUOUS
10
1.16538
20
1.15378
11
1.16551
21
1.1538
0
LINE
8
BLACK
6
CONTINUOUS
10
1.16551
20
1.1538
11
1.17301
21
1.15192
0
LINE
8
BLACK
6
CONTINUOUS
10
1.17301
20
1.15192
11
1.17348
21
1.15172
0
LINE
8
BLACK
6
CONTINUOUS
10
1.17348
20
1.15172
11
1.17362
21
1.1517
0
LINE
8
BLACK
6
CONTINUOUS
10
1.17362
20
1.1517
11
1.17736
21
1.14983
0
LINE
8
BLACK
6
CONTINUOUS
10
1.17736
20
1.14983
11
1.17807
21
1.1493
0
LINE
8
BLACK
6
CONTINUOUS
10
1.17807
20
1.1493
11
1.17813
21
1.14927
0
LINE
8
BLACK
6
CONTINUOUS
10
1.17813
20
1.14927
11
1.18188
21
1.14552
0
LINE
8
BLACK
6
CONTINUOUS
10
1.18188
20
1.14552
11
1.18247
21
1.14468
0
LINE
8
BLACK
6
CONTINUOUS
10
1.18247
20
1.14468
11
1.18249
21
1.14451
0
LINE
8
BLACK
6
CONTINUOUS
10
1.18249
20
1.14451
11
1.18259
21
1.14437
0
LINE
8
BLACK
6
CONTINUOUS
10
1.18259
20
1.14437
11
1.18447
21
1.13874
0
LINE
8
BLACK
6
CONTINUOUS
10
1.18447
20
1.13874
11
1.1846
21
1.13787
0
LINE
8
BLACK
6
CONTINUOUS
10
1.1846
20
1.13787
11
1.18462
21
1.13781
0
LINE
8
BLACK
6
CONTINUOUS
10
1.18462
20
1.13781
11
1.18462
21
1.13406
0
LINE
8
BLACK
6
CONTINUOUS
10
1.18462
20
1.13406
11
1.18447
21
1.13319
0
LINE
8
BLACK
6
CONTINUOUS
10
1.18447
20
1.13319
11
1.18447
21
1.13313
0
LINE
8
BLACK
6
CONTINUOUS
10
1.18447
20
1.13313
11
1.18259
21
1.1275
0
LINE
8
BLACK
6
CONTINUOUS
10
1.18259
20
1.1275
11
1.18211
21
1.1266
0
LINE
8
BLACK
6
CONTINUOUS
10
1.18211
20
1.1266
11
1.18196
21
1.12651
0
LINE
8
BLACK
6
CONTINUOUS
10
1.18196
20
1.12651
11
1.18188
21
1.12635
0
LINE
8
BLACK
6
CONTINUOUS
10
1.18188
20
1.12635
11
1.18001
21
1.12447
0
LINE
8
BLACK
6
CONTINUOUS
10
1.18001
20
1.12447
11
1.17917
21
1.12389
0
LINE
8
BLACK
6
CONTINUOUS
10
1.17917
20
1.12389
11
1.17715
21
1.12371
0
LINE
8
BLACK
6
CONTINUOUS
10
1.17715
20
1.12371
11
1.1755
21
1.12487
0
LINE
8
BLACK
6
CONTINUOUS
10
1.1755
20
1.12487
11
1.17498
21
1.12682
0
LINE
8
BLACK
6
CONTINUOUS
10
1.17498
20
1.12682
11
1.17583
21
1.12865
0
LINE
8
BLACK
6
CONTINUOUS
10
1.17583
20
1.12865
11
1.17721
21
1.13003
0
LINE
8
BLACK
6
CONTINUOUS
10
1.17721
20
1.13003
11
1.17872
21
1.13454
0
LINE
8
BLACK
6
CONTINUOUS
10
1.17872
20
1.13454
11
1.17872
21
1.13733
0
LINE
8
BLACK
6
CONTINUOUS
10
1.17872
20
1.13733
11
1.17721
21
1.14184
0
LINE
8
BLACK
6
CONTINUOUS
10
1.17721
20
1.14184
11
1.1743
21
1.14476
0
LINE
8
BLACK
6
CONTINUOUS
10
1.1743
20
1.14476
11
1.17126
21
1.14627
0
LINE
8
BLACK
6
CONTINUOUS
10
1.17126
20
1.14627
11
1.16443
21
1.14798
0
LINE
8
BLACK
6
CONTINUOUS
10
1.16443
20
1.14798
11
1.15953
21
1.14798
0
LINE
8
BLACK
6
CONTINUOUS
10
1.15953
20
1.14798
11
1.1527
21
1.14627
0
LINE
8
BLACK
6
CONTINUOUS
10
1.1527
20
1.14627
11
1.14967
21
1.14476
0
LINE
8
BLACK
6
CONTINUOUS
10
1.14967
20
1.14476
11
1.14675
21
1.14184
0
LINE
8
BLACK
6
CONTINUOUS
10
1.14675
20
1.14184
11
1.14525
21
1.13733
0
LINE
8
BLACK
6
CONTINUOUS
10
1.14525
20
1.13733
11
1.14525
21
1.13454
0
LINE
8
BLACK
6
CONTINUOUS
10
1.14525
20
1.13454
11
1.14675
21
1.13003
0
LINE
8
BLACK
6
CONTINUOUS
10
1.14675
20
1.13003
11
1.14814
21
1.12865
0
LINE
8
BLACK
6
CONTINUOUS
10
1.14814
20
1.12865
11
1.14872
21
1.12781
0
LINE
8
BLACK
6
CONTINUOUS
10
1.14872
20
1.12781
11
1.1489
21
1.1258
0
LINE
8
BLACK
6
CONTINUOUS
10
1.1489
20
1.1258
11
1.14774
21
1.12414
0
LINE
8
BLACK
6
CONTINUOUS
10
1.14774
20
1.12414
11
1.14579
21
1.12362
0
LINE
8
BLACK
6
CONTINUOUS
10
1.14579
20
1.12362
11
1.14396
21
1.12447
0
LINE
8
BLACK
6
CONTINUOUS
10
1.14396
20
1.12447
11
1.14209
21
1.12635
0
LINE
8
BLACK
6
CONTINUOUS
10
1.14209
20
1.12635
11
1.1415
21
1.12719
0
LINE
8
BLACK
6
CONTINUOUS
10
1.1415
20
1.12719
11
1.14148
21
1.12736
0
LINE
8
BLACK
6
CONTINUOUS
10
1.14148
20
1.12736
11
1.14137
21
1.1275
0
LINE
8
BLACK
6
CONTINUOUS
10
1.14137
20
1.1275
11
1.1395
21
1.13313
0
LINE
8
BLACK
6
CONTINUOUS
10
1.1395
20
1.13313
11
1.13937
21
1.134
0
LINE
8
BLACK
6
CONTINUOUS
10
1.13937
20
1.134
11
1.13935
21
1.13406
0
LINE
8
BLACK
6
CONTINUOUS
10
1.13935
20
1.13406
11
1.13935
21
1.13781
0
LINE
8
BLACK
6
CONTINUOUS
10
1.13935
20
1.13781
11
1.1395
21
1.13868
0
LINE
8
BLACK
6
CONTINUOUS
10
1.1395
20
1.13868
11
1.1395
21
1.13874
0
LINE
8
BLACK
6
CONTINUOUS
10
1.1395
20
1.13874
11
1.14137
21
1.14437
0
LINE
8
BLACK
6
CONTINUOUS
10
1.14137
20
1.14437
11
1.14186
21
1.14527
0
LINE
8
BLACK
6
CONTINUOUS
10
1.14186
20
1.14527
11
1.14201
21
1.14536
0
LINE
8
BLACK
6
CONTINUOUS
10
1.14201
20
1.14536
11
1.14209
21
1.14552
0
LINE
8
BLACK
6
CONTINUOUS
10
1.14209
20
1.14552
11
1.14583
21
1.14927
0
LINE
8
BLACK
6
CONTINUOUS
10
1.14583
20
1.14927
11
1.14656
21
1.14978
0
LINE
8
BLACK
6
CONTINUOUS
10
1.14656
20
1.14978
11
1.1466
21
1.14983
0
LINE
8
BLACK
6
CONTINUOUS
10
1.1466
20
1.14983
11
1.15035
21
1.1517
0
LINE
8
BLACK
6
CONTINUOUS
10
1.15035
20
1.1517
11
1.15084
21
1.15185
0
LINE
8
BLACK
6
CONTINUOUS
10
1.15084
20
1.15185
11
1.15096
21
1.15192
0
LINE
8
BLACK
6
CONTINUOUS
10
1.15096
20
1.15192
11
1.15846
21
1.1538
0
LINE
8
BLACK
6
CONTINUOUS
10
1.15846
20
1.1538
11
1.15904
21
1.15384
0
LINE
8
BLACK
6
CONTINUOUS
10
1.15904
20
1.15384
11
1.15917
21
1.15389
0
LINE
8
BLACK
6
CONTINUOUS
10
1.15917
20
1.15389
11
1.1648
21
1.15389
0
LINE
8
BLACK
6
CONTINUOUS
10
1.1648
20
1.15389
11
1.16538
21
1.15378
0
LINE
8
BLACK
6
CONTINUOUS
10
1.22386
20
1.37183
11
1.22541
21
1.37054
0
LINE
8
BLACK
6
CONTINUOUS
10
1.22541
20
1.37054
11
1.22576
21
1.36855
0
LINE
8
BLACK
6
CONTINUOUS
10
1.22576
20
1.36855
11
1.22475
21
1.3668
0
LINE
8
BLACK
6
CONTINUOUS
10
1.22475
20
1.3668
11
1.22285
21
1.36611
0
LINE
8
BLACK
6
CONTINUOUS
10
1.22285
20
1.36611
11
1.20705
21
1.36611
0
LINE
8
BLACK
6
CONTINUOUS
10
1.20705
20
1.36611
11
1.20705
21
1.36122
0
LINE
8
BLACK
6
CONTINUOUS
10
1.20705
20
1.36122
11
1.22454
21
1.34898
0
LINE
8
BLACK
6
CONTINUOUS
10
1.22454
20
1.34898
11
1.22527
21
1.34826
0
LINE
8
BLACK
6
CONTINUOUS
10
1.22527
20
1.34826
11
1.22579
21
1.3463
0
LINE
8
BLACK
6
CONTINUOUS
10
1.22579
20
1.3463
11
1.22494
21
1.34447
0
LINE
8
BLACK
6
CONTINUOUS
10
1.22494
20
1.34447
11
1.22311
21
1.34362
0
LINE
8
BLACK
6
CONTINUOUS
10
1.22311
20
1.34362
11
1.22116
21
1.34414
0
LINE
8
BLACK
6
CONTINUOUS
10
1.22116
20
1.34414
11
1.20705
21
1.35402
0
LINE
8
BLACK
6
CONTINUOUS
10
1.20705
20
1.35402
11
1.20688
21
1.35305
0
LINE
8
BLACK
6
CONTINUOUS
10
1.20688
20
1.35305
11
1.20676
21
1.35292
0
LINE
8
BLACK
6
CONTINUOUS
10
1.20676
20
1.35292
11
1.20674
21
1.35274
0
LINE
8
BLACK
6
CONTINUOUS
10
1.20674
20
1.35274
11
1.20487
21
1.34899
0
LINE
8
BLACK
6
CONTINUOUS
10
1.20487
20
1.34899
11
1.20434
21
1.34828
0
LINE
8
BLACK
6
CONTINUOUS
10
1.20434
20
1.34828
11
1.20432
21
1.34822
0
LINE
8
BLACK
6
CONTINUOUS
10
1.20432
20
1.34822
11
1.20244
21
1.34635
0
LINE
8
BLACK
6
CONTINUOUS
10
1.20244
20
1.34635
11
1.20172
21
1.34584
0
LINE
8
BLACK
6
CONTINUOUS
10
1.20172
20
1.34584
11
1.20167
21
1.3458
0
LINE
8
BLACK
6
CONTINUOUS
10
1.20167
20
1.3458
11
1.19792
21
1.34392
0
LINE
8
BLACK
6
CONTINUOUS
10
1.19792
20
1.34392
11
1.19694
21
1.34363
0
LINE
8
BLACK
6
CONTINUOUS
10
1.19694
20
1.34363
11
1.19677
21
1.34367
0
LINE
8
BLACK
6
CONTINUOUS
10
1.19677
20
1.34367
11
1.1966
21
1.34361
0
LINE
8
BLACK
6
CONTINUOUS
10
1.1966
20
1.34361
11
1.19098
21
1.34361
0
LINE
8
BLACK
6
CONTINUOUS
10
1.19098
20
1.34361
11
1.18997
21
1.34379
0
LINE
8
BLACK
6
CONTINUOUS
10
1.18997
20
1.34379
11
1.18983
21
1.3439
0
LINE
8
BLACK
6
CONTINUOUS
10
1.18983
20
1.3439
11
1.18966
21
1.34392
0
LINE
8
BLACK
6
CONTINUOUS
10
1.18966
20
1.34392
11
1.18591
21
1.3458
0
LINE
8
BLACK
6
CONTINUOUS
10
1.18591
20
1.3458
11
1.1852
21
1.34632
0
LINE
8
BLACK
6
CONTINUOUS
10
1.1852
20
1.34632
11
1.18516
21
1.34634
0
LINE
8
BLACK
6
CONTINUOUS
10
1.18516
20
1.34634
11
1.18516
21
1.33366
0
LINE
8
BLACK
6
CONTINUOUS
10
1.18516
20
1.33366
11
1.18598
21
1.33424
0
LINE
8
BLACK
6
CONTINUOUS
10
1.18598
20
1.33424
11
1.18799
21
1.33442
0
LINE
8
BLACK
6
CONTINUOUS
10
1.18799
20
1.33442
11
1.18965
21
1.33326
0
LINE
8
BLACK
6
CONTINUOUS
10
1.18965
20
1.33326
11
1.19017
21
1.33131
0
LINE
8
BLACK
6
CONTINUOUS
10
1.19017
20
1.33131
11
1.18932
21
1.32948
0
LINE
8
BLACK
6
CONTINUOUS
10
1.18932
20
1.32948
11
1.18778
21
1.32794
0
LINE
8
BLACK
6
CONTINUOUS
10
1.18778
20
1.32794
11
1.18643
21
1.32524
0
LINE
8
BLACK
6
CONTINUOUS
10
1.18643
20
1.32524
11
1.18643
21
1.31726
0
LINE
8
BLACK
6
CONTINUOUS
10
1.18643
20
1.31726
11
1.18778
21
1.31456
0
LINE
8
BLACK
6
CONTINUOUS
10
1.18778
20
1.31456
11
1.18898
21
1.31337
0
LINE
8
BLACK
6
CONTINUOUS
10
1.18898
20
1.31337
11
1.19168
21
1.31202
0
LINE
8
BLACK
6
CONTINUOUS
10
1.19168
20
1.31202
11
1.19425
21
1.31202
0
LINE
8
BLACK
6
CONTINUOUS
10
1.19425
20
1.31202
11
1.19876
21
1.31352
0
LINE
8
BLACK
6
CONTINUOUS
10
1.19876
20
1.31352
11
1.22076
21
1.33553
0
LINE
8
BLACK
6
CONTINUOUS
10
1.22076
20
1.33553
11
1.22129
21
1.3359
0
LINE
8
BLACK
6
CONTINUOUS
10
1.22129
20
1.3359
11
1.22137
21
1.336
0
LINE
8
BLACK
6
CONTINUOUS
10
1.22137
20
1.336
11
1.22145
21
1.33601
0
LINE
8
BLACK
6
CONTINUOUS
10
1.22145
20
1.33601
11
1.2216
21
1.33611
0
LINE
8
BLACK
6
CONTINUOUS
10
1.2216
20
1.33611
11
1.22249
21
1.33619
0
LINE
8
BLACK
6
CONTINUOUS
10
1.22249
20
1.33619
11
1.22336
21
1.33635
0
LINE
8
BLACK
6
CONTINUOUS
10
1.22336
20
1.33635
11
1.22348
21
1.33628
0
LINE
8
BLACK
6
CONTINUOUS
10
1.22348
20
1.33628
11
1.22361
21
1.33629
0
LINE
8
BLACK
6
CONTINUOUS
10
1.22361
20
1.33629
11
1.22434
21
1.33578
0
LINE
8
BLACK
6
CONTINUOUS
10
1.22434
20
1.33578
11
1.22511
21
1.33534
0
LINE
8
BLACK
6
CONTINUOUS
10
1.22511
20
1.33534
11
1.22516
21
1.33521
0
LINE
8
BLACK
6
CONTINUOUS
10
1.22516
20
1.33521
11
1.22527
21
1.33513
0
LINE
8
BLACK
6
CONTINUOUS
10
1.22527
20
1.33513
11
1.2255
21
1.33427
0
LINE
8
BLACK
6
CONTINUOUS
10
1.2255
20
1.33427
11
1.2258
21
1.33344
0
LINE
8
BLACK
6
CONTINUOUS
10
1.2258
20
1.33344
11
1.2258
21
1.30907
0
LINE
8
BLACK
6
CONTINUOUS
10
1.2258
20
1.30907
11
1.22562
21
1.30806
0
LINE
8
BLACK
6
CONTINUOUS
10
1.22562
20
1.30806
11
1.22433
21
1.30651
0
LINE
8
BLACK
6
CONTINUOUS
10
1.22433
20
1.30651
11
1.22234
21
1.30616
0
LINE
8
BLACK
6
CONTINUOUS
10
1.22234
20
1.30616
11
1.22059
21
1.30717
0
LINE
8
BLACK
6
CONTINUOUS
10
1.22059
20
1.30717
11
1.2199
21
1.30907
0
LINE
8
BLACK
6
CONTINUOUS
10
1.2199
20
1.30907
11
1.2199
21
1.32631
0
LINE
8
BLACK
6
CONTINUOUS
10
1.2199
20
1.32631
11
1.20244
21
1.30885
0
LINE
8
BLACK
6
CONTINUOUS
10
1.20244
20
1.30885
11
1.2016
21
1.30827
0
LINE
8
BLACK
6
CONTINUOUS
10
1.2016
20
1.30827
11
1.20142
21
1.30825
0
LINE
8
BLACK
6
CONTINUOUS
10
1.20142
20
1.30825
11
1.20129
21
1.30814
0
LINE
8
BLACK
6
CONTINUOUS
10
1.20129
20
1.30814
11
1.19566
21
1.30627
0
LINE
8
BLACK
6
CONTINUOUS
10
1.19566
20
1.30627
11
1.19479
21
1.30614
0
LINE
8
BLACK
6
CONTINUOUS
10
1.19479
20
1.30614
11
1.19473
21
1.30611
0
LINE
8
BLACK
6
CONTINUOUS
10
1.19473
20
1.30611
11
1.19098
21
1.30611
0
LINE
8
BLACK
6
CONTINUOUS
10
1.19098
20
1.30611
11
1.18997
21
1.30629
0
LINE
8
BLACK
6
CONTINUOUS
10
1.18997
20
1.30629
11
1.18983
21
1.30641
0
LINE
8
BLACK
6
CONTINUOUS
10
1.18983
20
1.30641
11
1.18966
21
1.30643
0
LINE
8
BLACK
6
CONTINUOUS
10
1.18966
20
1.30643
11
1.18591
21
1.3083
0
LINE
8
BLACK
6
CONTINUOUS
10
1.18591
20
1.3083
11
1.1852
21
1.30883
0
LINE
8
BLACK
6
CONTINUOUS
10
1.1852
20
1.30883
11
1.18514
21
1.30885
0
LINE
8
BLACK
6
CONTINUOUS
10
1.18514
20
1.30885
11
1.18327
21
1.31073
0
LINE
8
BLACK
6
CONTINUOUS
10
1.18327
20
1.31073
11
1.18276
21
1.31145
0
LINE
8
BLACK
6
CONTINUOUS
10
1.18276
20
1.31145
11
1.18271
21
1.3115
0
LINE
8
BLACK
6
CONTINUOUS
10
1.18271
20
1.3115
11
1.18084
21
1.31524
0
LINE
8
BLACK
6
CONTINUOUS
10
1.18084
20
1.31524
11
1.18055
21
1.31623
0
LINE
8
BLACK
6
CONTINUOUS
10
1.18055
20
1.31623
11
1.18059
21
1.3164
0
LINE
8
BLACK
6
CONTINUOUS
10
1.18059
20
1.3164
11
1.18053
21
1.31657
0
LINE
8
BLACK
6
CONTINUOUS
10
1.18053
20
1.31657
11
1.18053
21
1.32594
0
LINE
8
BLACK
6
CONTINUOUS
10
1.18053
20
1.32594
11
1.1807
21
1.32695
0
LINE
8
BLACK
6
CONTINUOUS
10
1.1807
20
1.32695
11
1.18082
21
1.32708
0
LINE
8
BLACK
6
CONTINUOUS
10
1.18082
20
1.32708
11
1.18084
21
1.32726
0
LINE
8
BLACK
6
CONTINUOUS
10
1.18084
20
1.32726
11
1.18177
21
1.32912
0
LINE
8
BLACK
6
CONTINUOUS
10
1.18177
20
1.32912
11
1.18112
21
1.32939
0
LINE
8
BLACK
6
CONTINUOUS
10
1.18112
20
1.32939
11
1.18043
21
1.33106
0
LINE
8
BLACK
6
CONTINUOUS
10
1.18043
20
1.33106
11
1.18043
21
1.34894
0
LINE
8
BLACK
6
CONTINUOUS
10
1.18043
20
1.34894
11
1.18112
21
1.35061
0
LINE
8
BLACK
6
CONTINUOUS
10
1.18112
20
1.35061
11
1.18177
21
1.35088
0
LINE
8
BLACK
6
CONTINUOUS
10
1.18177
20
1.35088
11
1.18084
21
1.35274
0
LINE
8
BLACK
6
CONTINUOUS
10
1.18084
20
1.35274
11
1.18055
21
1.35372
0
LINE
8
BLACK
6
CONTINUOUS
10
1.18055
20
1.35372
11
1.18059
21
1.35389
0
LINE
8
BLACK
6
CONTINUOUS
10
1.18059
20
1.35389
11
1.18053
21
1.35406
0
LINE
8
BLACK
6
CONTINUOUS
10
1.18053
20
1.35406
11
1.18053
21
1.36906
0
LINE
8
BLACK
6
CONTINUOUS
10
1.18053
20
1.36906
11
1.18059
21
1.36944
0
LINE
8
BLACK
6
CONTINUOUS
10
1.18059
20
1.36944
11
1.18057
21
1.36957
0
LINE
8
BLACK
6
CONTINUOUS
10
1.18057
20
1.36957
11
1.18064
21
1.36969
0
LINE
8
BLACK
6
CONTINUOUS
10
1.18064
20
1.36969
11
1.1807
21
1.37007
0
LINE
8
BLACK
6
CONTINUOUS
10
1.1807
20
1.37007
11
1.1812
21
1.37066
0
LINE
8
BLACK
6
CONTINUOUS
10
1.1812
20
1.37066
11
1.18158
21
1.37132
0
LINE
8
BLACK
6
CONTINUOUS
10
1.18158
20
1.37132
11
1.18183
21
1.37141
0
LINE
8
BLACK
6
CONTINUOUS
10
1.18183
20
1.37141
11
1.182
21
1.37162
0
LINE
8
BLACK
6
CONTINUOUS
10
1.182
20
1.37162
11
1.18276
21
1.37175
0
LINE
8
BLACK
6
CONTINUOUS
10
1.18276
20
1.37175
11
1.18348
21
1.37201
0
LINE
8
BLACK
6
CONTINUOUS
10
1.18348
20
1.37201
11
1.22285
21
1.37201
0
LINE
8
BLACK
6
CONTINUOUS
10
1.22285
20
1.37201
11
1.22386
21
1.37183
0
LINE
8
BLACK
6
CONTINUOUS
10
1.18643
20
1.36611
11
1.18643
21
1.35476
0
LINE
8
BLACK
6
CONTINUOUS
10
1.18643
20
1.35476
11
1.18778
21
1.35206
0
LINE
8
BLACK
6
CONTINUOUS
10
1.18778
20
1.35206
11
1.18898
21
1.35086
0
LINE
8
BLACK
6
CONTINUOUS
10
1.18898
20
1.35086
11
1.19168
21
1.34951
0
LINE
8
BLACK
6
CONTINUOUS
10
1.19168
20
1.34951
11
1.19591
21
1.34951
0
LINE
8
BLACK
6
CONTINUOUS
10
1.19591
20
1.34951
11
1.1986
21
1.35086
0
LINE
8
BLACK
6
CONTINUOUS
10
1.1986
20
1.35086
11
1.1998
21
1.35206
0
LINE
8
BLACK
6
CONTINUOUS
10
1.1998
20
1.35206
11
1.20115
21
1.35476
0
LINE
8
BLACK
6
CONTINUOUS
10
1.20115
20
1.35476
11
1.20115
21
1.36611
0
LINE
8
BLACK
6
CONTINUOUS
10
1.20115
20
1.36611
11
1.18643
21
1.36611
0
LINE
8
BLACK
6
CONTINUOUS
10
1.08035
20
1.33394
11
1.08146
21
1.33225
0
LINE
8
BLACK
6
CONTINUOUS
10
1.08146
20
1.33225
11
1.08123
21
1.33024
0
LINE
8
BLACK
6
CONTINUOUS
10
1.08123
20
1.33024
11
1.07935
21
1.32649
0
LINE
8
BLACK
6
CONTINUOUS
10
1.07935
20
1.32649
11
1.07883
21
1.32578
0
LINE
8
BLACK
6
CONTINUOUS
10
1.07883
20
1.32578
11
1.0788
21
1.32573
0
LINE
8
BLACK
6
CONTINUOUS
10
1.0788
20
1.32573
11
1.07634
21
1.32327
0
LINE
8
BLACK
6
CONTINUOUS
10
1.07634
20
1.32327
11
1.10376
21
1.32327
0
LINE
8
BLACK
6
CONTINUOUS
10
1.10376
20
1.32327
11
1.10376
21
1.33156
0
LINE
8
BLACK
6
CONTINUOUS
10
1.10376
20
1.33156
11
1.10393
21
1.33257
0
LINE
8
BLACK
6
CONTINUOUS
10
1.10393
20
1.33257
11
1.10523
21
1.33412
0
LINE
8
BLACK
6
CONTINUOUS
10
1.10523
20
1.33412
11
1.10722
21
1.33447
0
LINE
8
BLACK
6
CONTINUOUS
10
1.10722
20
1.33447
11
1.10897
21
1.33346
0
LINE
8
BLACK
6
CONTINUOUS
10
1.10897
20
1.33346
11
1.10966
21
1.33156
0
LINE
8
BLACK
6
CONTINUOUS
10
1.10966
20
1.33156
11
1.10966
21
1.30907
0
LINE
8
BLACK
6
CONTINUOUS
10
1.10966
20
1.30907
11
1.10948
21
1.30806
0
LINE
8
BLACK
6
CONTINUOUS
10
1.10948
20
1.30806
11
1.10818
21
1.30651
0
LINE
8
BLACK
6
CONTINUOUS
10
1.10818
20
1.30651
11
1.1062
21
1.30616
0
LINE
8
BLACK
6
CONTINUOUS
10
1.1062
20
1.30616
11
1.10445
21
1.30717
0
LINE
8
BLACK
6
CONTINUOUS
10
1.10445
20
1.30717
11
1.10376
21
1.30907
0
LINE
8
BLACK
6
CONTINUOUS
10
1.10376
20
1.30907
11
1.10376
21
1.31736
0
LINE
8
BLACK
6
CONTINUOUS
10
1.10376
20
1.31736
11
1.06734
21
1.31736
0
LINE
8
BLACK
6
CONTINUOUS
10
1.06734
20
1.31736
11
1.06633
21
1.31754
0
LINE
8
BLACK
6
CONTINUOUS
10
1.06633
20
1.31754
11
1.0662
21
1.31765
0
LINE
8
BLACK
6
CONTINUOUS
10
1.0662
20
1.31765
11
1.06603
21
1.31767
0
LINE
8
BLACK
6
CONTINUOUS
10
1.06603
20
1.31767
11
1.06544
21
1.31829
0
LINE
8
BLACK
6
CONTINUOUS
10
1.06544
20
1.31829
11
1.06478
21
1.31884
0
LINE
8
BLACK
6
CONTINUOUS
10
1.06478
20
1.31884
11
1.06475
21
1.31901
0
LINE
8
BLACK
6
CONTINUOUS
10
1.06475
20
1.31901
11
1.06463
21
1.31913
0
LINE
8
BLACK
6
CONTINUOUS
10
1.06463
20
1.31913
11
1.06458
21
1.31998
0
LINE
8
BLACK
6
CONTINUOUS
10
1.06458
20
1.31998
11
1.06443
21
1.32083
0
LINE
8
BLACK
6
CONTINUOUS
10
1.06443
20
1.32083
11
1.06451
21
1.32097
0
LINE
8
BLACK
6
CONTINUOUS
10
1.06451
20
1.32097
11
1.0645
21
1.32114
0
LINE
8
BLACK
6
CONTINUOUS
10
1.0645
20
1.32114
11
1.06501
21
1.32183
0
LINE
8
BLACK
6
CONTINUOUS
10
1.06501
20
1.32183
11
1.06544
21
1.32258
0
LINE
8
BLACK
6
CONTINUOUS
10
1.06544
20
1.32258
11
1.0656
21
1.32263
0
LINE
8
BLACK
6
CONTINUOUS
10
1.0656
20
1.32263
11
1.0657
21
1.32277
0
LINE
8
BLACK
6
CONTINUOUS
10
1.0657
20
1.32277
11
1.07108
21
1.32636
0
LINE
8
BLACK
6
CONTINUOUS
10
1.07108
20
1.32636
11
1.07428
21
1.32956
0
LINE
8
BLACK
6
CONTINUOUS
10
1.07428
20
1.32956
11
1.07595
21
1.33288
0
LINE
8
BLACK
6
CONTINUOUS
10
1.07595
20
1.33288
11
1.07656
21
1.33371
0
LINE
8
BLACK
6
CONTINUOUS
10
1.07656
20
1.33371
11
1.07841
21
1.33451
0
LINE
8
BLACK
6
CONTINUOUS
10
1.07841
20
1.33451
11
1.08035
21
1.33394
0
LINE
8
BLACK
6
CONTINUOUS
10
1.30061
20
1.35061
11
1.3013
21
1.34894
0
LINE
8
BLACK
6
CONTINUOUS
10
1.3013
20
1.34894
11
1.3013
21
1.33106
0
LINE
8
BLACK
6
CONTINUOUS
10
1.3013
20
1.33106
11
1.30061
21
1.32939
0
LINE
8
BLACK
6
CONTINUOUS
10
1.30061
20
1.32939
11
1.29894
21
1.3287
0
LINE
8
BLACK
6
CONTINUOUS
10
1.29894
20
1.3287
11
1.29727
21
1.32939
0
LINE
8
BLACK
6
CONTINUOUS
10
1.29727
20
1.32939
11
1.29657
21
1.33106
0
LINE
8
BLACK
6
CONTINUOUS
10
1.29657
20
1.33106
11
1.29657
21
1.34894
0
LINE
8
BLACK
6
CONTINUOUS
10
1.29657
20
1.34894
11
1.29727
21
1.35061
0
LINE
8
BLACK
6
CONTINUOUS
10
1.29727
20
1.35061
11
1.29894
21
1.3513
0
LINE
8
BLACK
6
CONTINUOUS
10
1.29894
20
1.3513
11
1.30061
21
1.35061
0
LINE
8
BLACK
6
CONTINUOUS
10
1.24273
20
1.35061
11
1.24343
21
1.34894
0
LINE
8
BLACK
6
CONTINUOUS
10
1.24343
20
1.34894
11
1.24343
21
1.33106
0
LINE
8
BLACK
6
CONTINUOUS
10
1.24343
20
1.33106
11
1.24273
21
1.32939
0
LINE
8
BLACK
6
CONTINUOUS
10
1.24273
20
1.32939
11
1.24106
21
1.3287
0
LINE
8
BLACK
6
CONTINUOUS
10
1.24106
20
1.3287
11
1.23939
21
1.32939
0
LINE
8
BLACK
6
CONTINUOUS
10
1.23939
20
1.32939
11
1.2387
21
1.33106
0
LINE
8
BLACK
6
CONTINUOUS
10
1.2387
20
1.33106
11
1.2387
21
1.34894
0
LINE
8
BLACK
6
CONTINUOUS
10
1.2387
20
1.34894
11
1.23939
21
1.35061
0
LINE
8
BLACK
6
CONTINUOUS
10
1.23939
20
1.35061
11
1.24106
21
1.3513
0
LINE
8
BLACK
6
CONTINUOUS
10
1.24106
20
1.3513
11
1.24273
21
1.35061
0
LINE
8
BLACK
6
CONTINUOUS
10
1.12659
20
1.35061
11
1.12728
21
1.34894
0
LINE
8
BLACK
6
CONTINUOUS
10
1.12728
20
1.34894
11
1.12728
21
1.33106
0
LINE
8
BLACK
6
CONTINUOUS
10
1.12728
20
1.33106
11
1.12659
21
1.32939
0
LINE
8
BLACK
6
CONTINUOUS
10
1.12659
20
1.32939
11
1.12492
21
1.3287
0
LINE
8
BLACK
6
CONTINUOUS
10
1.12492
20
1.3287
11
1.12325
21
1.32939
0
LINE
8
BLACK
6
CONTINUOUS
10
1.12325
20
1.32939
11
1.12256
21
1.33106
0
LINE
8
BLACK
6
CONTINUOUS
10
1.12256
20
1.33106
11
1.12256
21
1.34894
0
LINE
8
BLACK
6
CONTINUOUS
10
1.12256
20
1.34894
11
1.12325
21
1.35061
0
LINE
8
BLACK
6
CONTINUOUS
10
1.12325
20
1.35061
11
1.12492
21
1.3513
0
LINE
8
BLACK
6
CONTINUOUS
10
1.12492
20
1.3513
11
1.12659
21
1.35061
0
LINE
8
BLACK
6
CONTINUOUS
10
1.10772
20
1.37183
11
1.10927
21
1.37054
0
LINE
8
BLACK
6
CONTINUOUS
10
1.10927
20
1.37054
11
1.10962
21
1.36855
0
LINE
8
BLACK
6
CONTINUOUS
10
1.10962
20
1.36855
11
1.10861
21
1.3668
0
LINE
8
BLACK
6
CONTINUOUS
10
1.10861
20
1.3668
11
1.10671
21
1.36611
0
LINE
8
BLACK
6
CONTINUOUS
10
1.10671
20
1.36611
11
1.09091
21
1.36611
0
LINE
8
BLACK
6
CONTINUOUS
10
1.09091
20
1.36611
11
1.09091
21
1.36122
0
LINE
8
BLACK
6
CONTINUOUS
10
1.09091
20
1.36122
11
1.1084
21
1.34898
0
LINE
8
BLACK
6
CONTINUOUS
10
1.1084
20
1.34898
11
1.10913
21
1.34826
0
LINE
8
BLACK
6
CONTINUOUS
10
1.10913
20
1.34826
11
1.10965
21
1.3463
0
LINE
8
BLACK
6
CONTINUOUS
10
1.10965
20
1.3463
11
1.1088
21
1.34447
0
LINE
8
BLACK
6
CONTINUOUS
10
1.1088
20
1.34447
11
1.10697
21
1.34362
0
LINE
8
BLACK
6
CONTINUOUS
10
1.10697
20
1.34362
11
1.10501
21
1.34414
0
LINE
8
BLACK
6
CONTINUOUS
10
1.10501
20
1.34414
11
1.09091
21
1.35402
0
LINE
8
BLACK
6
CONTINUOUS
10
1.09091
20
1.35402
11
1.09073
21
1.35305
0
LINE
8
BLACK
6
CONTINUOUS
10
1.09073
20
1.35305
11
1.09062
21
1.35292
0
LINE
8
BLACK
6
CONTINUOUS
10
1.09062
20
1.35292
11
1.0906
21
1.35274
0
LINE
8
BLACK
6
CONTINUOUS
10
1.0906
20
1.35274
11
1.08873
21
1.34899
0
LINE
8
BLACK
6
CONTINUOUS
10
1.08873
20
1.34899
11
1.0882
21
1.34828
0
LINE
8
BLACK
6
CONTINUOUS
10
1.0882
20
1.34828
11
1.08817
21
1.34822
0
LINE
8
BLACK
6
CONTINUOUS
10
1.08817
20
1.34822
11
1.0863
21
1.34635
0
LINE
8
BLACK
6
CONTINUOUS
10
1.0863
20
1.34635
11
1.08558
21
1.34584
0
LINE
8
BLACK
6
CONTINUOUS
10
1.08558
20
1.34584
11
1.08553
21
1.3458
0
LINE
8
BLACK
6
CONTINUOUS
10
1.08553
20
1.3458
11
1.08178
21
1.34392
0
LINE
8
BLACK
6
CONTINUOUS
10
1.08178
20
1.34392
11
1.0808
21
1.34363
0
LINE
8
BLACK
6
CONTINUOUS
10
1.0808
20
1.34363
11
1.08063
21
1.34367
0
LINE
8
BLACK
6
CONTINUOUS
10
1.08063
20
1.34367
11
1.08046
21
1.34361
0
LINE
8
BLACK
6
CONTINUOUS
10
1.08046
20
1.34361
11
1.07484
21
1.34361
0
LINE
8
BLACK
6
CONTINUOUS
10
1.07484
20
1.34361
11
1.07383
21
1.34379
0
LINE
8
BLACK
6
CONTINUOUS
10
1.07383
20
1.34379
11
1.07369
21
1.3439
0
LINE
8
BLACK
6
CONTINUOUS
10
1.07369
20
1.3439
11
1.07352
21
1.34392
0
LINE
8
BLACK
6
CONTINUOUS
10
1.07352
20
1.34392
11
1.06977
21
1.3458
0
LINE
8
BLACK
6
CONTINUOUS
10
1.06977
20
1.3458
11
1.06906
21
1.34632
0
LINE
8
BLACK
6
CONTINUOUS
10
1.06906
20
1.34632
11
1.069
21
1.34635
0
LINE
8
BLACK
6
CONTINUOUS
10
1.069
20
1.34635
11
1.06712
21
1.34822
0
LINE
8
BLACK
6
CONTINUOUS
10
1.06712
20
1.34822
11
1.06662
21
1.34895
0
LINE
8
BLACK
6
CONTINUOUS
10
1.06662
20
1.34895
11
1.06657
21
1.34899
0
LINE
8
BLACK
6
CONTINUOUS
10
1.06657
20
1.34899
11
1.0647
21
1.35274
0
LINE
8
BLACK
6
CONTINUOUS
10
1.0647
20
1.35274
11
1.0644
21
1.35372
0
LINE
8
BLACK
6
CONTINUOUS
10
1.0644
20
1.35372
11
1.06445
21
1.35389
0
LINE
8
BLACK
6
CONTINUOUS
10
1.06445
20
1.35389
11
1.06439
21
1.35406
0
LINE
8
BLACK
6
CONTINUOUS
10
1.06439
20
1.35406
11
1.06439
21
1.36906
0
LINE
8
BLACK
6
CONTINUOUS
10
1.06439
20
1.36906
11
1.06445
21
1.36944
0
LINE
8
BLACK
6
CONTINUOUS
10
1.06445
20
1.36944
11
1.06443
21
1.36957
0
LINE
8
BLACK
6
CONTINUOUS
10
1.06443
20
1.36957
11
1.0645
21
1.36969
0
LINE
8
BLACK
6
CONTINUOUS
10
1.0645
20
1.36969
11
1.06456
21
1.37007
0
LINE
8
BLACK
6
CONTINUOUS
10
1.06456
20
1.37007
11
1.06506
21
1.37066
0
LINE
8
BLACK
6
CONTINUOUS
10
1.06506
20
1.37066
11
1.06544
21
1.37132
0
LINE
8
BLACK
6
CONTINUOUS
10
1.06544
20
1.37132
11
1.06569
21
1.37141
0
LINE
8
BLACK
6
CONTINUOUS
10
1.06569
20
1.37141
11
1.06586
21
1.37162
0
LINE
8
BLACK
6
CONTINUOUS
10
1.06586
20
1.37162
11
1.06662
21
1.37175
0
LINE
8
BLACK
6
CONTINUOUS
10
1.06662
20
1.37175
11
1.06734
21
1.37201
0
LINE
8
BLACK
6
CONTINUOUS
10
1.06734
20
1.37201
11
1.10671
21
1.37201
0
LINE
8
BLACK
6
CONTINUOUS
10
1.10671
20
1.37201
11
1.10772
21
1.37183
0
LINE
8
BLACK
6
CONTINUOUS
10
1.07029
20
1.36611
11
1.07029
21
1.35476
0
LINE
8
BLACK
6
CONTINUOUS
10
1.07029
20
1.35476
11
1.07164
21
1.35206
0
LINE
8
BLACK
6
CONTINUOUS
10
1.07164
20
1.35206
11
1.07284
21
1.35086
0
LINE
8
BLACK
6
CONTINUOUS
10
1.07284
20
1.35086
11
1.07553
21
1.34951
0
LINE
8
BLACK
6
CONTINUOUS
10
1.07553
20
1.34951
11
1.07976
21
1.34951
0
LINE
8
BLACK
6
CONTINUOUS
10
1.07976
20
1.34951
11
1.08246
21
1.35086
0
LINE
8
BLACK
6
CONTINUOUS
10
1.08246
20
1.35086
11
1.08366
21
1.35206
0
LINE
8
BLACK
6
CONTINUOUS
10
1.08366
20
1.35206
11
1.08501
21
1.35476
0
LINE
8
BLACK
6
CONTINUOUS
10
1.08501
20
1.35476
11
1.08501
21
1.36611
0
LINE
8
BLACK
6
CONTINUOUS
10
1.08501
20
1.36611
11
1.07029
21
1.36611
  0
ENDSEC
  0
EOF
