  0
SECTION
  2
HEADER
  9
$ANGBASE
  50
0.0
  9
$ANGDIR
  70
1
  9
$MEASUREMENT
  70
0
  0
ENDSEC
  0
SECTION
  2
TABLES
  0
TABLE
  2
LTYPE
  70
4
  0
LTYPE
  5
40F
  2
CONTINUOUS
  70
0
  3
Solid line
  72
65
  73
0
  40
0.0
  0
LTYPE
  5
410
  2
DASHDOT
 70
0
  3
Dash Dot ____ _ ____ _
 72
65
 73
4
 40
2.0
 49
1.25
 49
-0.25
 49
0.25
 49
-0.25
  0
LTYPE
  5
411
  2
DASHED
 70
0
  3
Dashed __ __ __ __ __
 72
65
 73
2
 40
0.75
 49
0.5
 49
-0.25
  0
LTYPE
  5
43B
  2
DOTTED
 70
0
  3
Dotted .  .  .  .
 72
65
 73
2
 40
0.2
 49
0.0
 49
-0.2
  0
ENDTAB
  0
TABLE
  2
STYLE
  70
4
  0
STYLE
  2
KICAD
  70
0
  40
0
  41
1
  42
1
  50
0
  71
0
  3
isocp.shx
  0
STYLE
  2
KICADB
  70
0
  40
0
  41
1
  42
1
  50
0
  71
0
  3
isocp.shx
  0
STYLE
  2
KICADI
  70
0
  40
0
  41
1
  42
1
  50
15
  71
0
  3
isocp.shx
  0
STYLE
  2
KICADBI
  70
0
  40
0
  41
1
  42
1
  50
15
  71
0
  3
isocp.shx
  0
ENDTAB
  0
TABLE
  2
LAYER
  70
1
  0
LAYER
  2
BLACK
  70
0
  62
7
  6
CONTINUOUS
  0
ENDTAB
  0
ENDSEC
  0
SECTION
  2
ENTITIES
0
LINE
8
BLACK
6
CONTINUOUS
10
0.772251
20
0.55681
11
0.775444
21
0.554676
0
LINE
8
BLACK
6
CONTINUOUS
10
0.775444
20
0.554676
11
0.777578
21
0.551483
0
LINE
8
BLACK
6
CONTINUOUS
10
0.777578
20
0.551483
11
0.778327
21
0.547717
0
LINE
8
BLACK
6
CONTINUOUS
10
0.778327
20
0.547717
11
0.778327
21
0.512283
0
LINE
8
BLACK
6
CONTINUOUS
10
0.778327
20
0.512283
11
0.777578
21
0.508517
0
LINE
8
BLACK
6
CONTINUOUS
10
0.777578
20
0.508517
11
0.775444
21
0.505324
0
LINE
8
BLACK
6
CONTINUOUS
10
0.775444
20
0.505324
11
0.772251
21
0.50319
0
LINE
8
BLACK
6
CONTINUOUS
10
0.772251
20
0.50319
11
0.768484
21
0.502441
0
LINE
8
BLACK
6
CONTINUOUS
10
0.768484
20
0.502441
11
0.747815
21
0.502441
0
LINE
8
BLACK
6
CONTINUOUS
10
0.747815
20
0.502441
11
0.744048
21
0.50319
0
LINE
8
BLACK
6
CONTINUOUS
10
0.744048
20
0.50319
11
0.740855
21
0.505324
0
LINE
8
BLACK
6
CONTINUOUS
10
0.740855
20
0.505324
11
0.738722
21
0.508517
0
LINE
8
BLACK
6
CONTINUOUS
10
0.738722
20
0.508517
11
0.737972
21
0.512283
0
LINE
8
BLACK
6
CONTINUOUS
10
0.737972
20
0.512283
11
0.737972
21
0.547717
0
LINE
8
BLACK
6
CONTINUOUS
10
0.737972
20
0.547717
11
0.738722
21
0.551483
0
LINE
8
BLACK
6
CONTINUOUS
10
0.738722
20
0.551483
11
0.740855
21
0.554676
0
LINE
8
BLACK
6
CONTINUOUS
10
0.740855
20
0.554676
11
0.744048
21
0.55681
0
LINE
8
BLACK
6
CONTINUOUS
10
0.744048
20
0.55681
11
0.747815
21
0.557559
0
LINE
8
BLACK
6
CONTINUOUS
10
0.747815
20
0.557559
11
0.768484
21
0.557559
0
LINE
8
BLACK
6
CONTINUOUS
10
0.768484
20
0.557559
11
0.772251
21
0.55681
0
LINE
8
BLACK
6
CONTINUOUS
10
0.844101
20
0.55681
11
0.847294
21
0.554676
0
LINE
8
BLACK
6
CONTINUOUS
10
0.847294
20
0.554676
11
0.849428
21
0.551483
0
LINE
8
BLACK
6
CONTINUOUS
10
0.849428
20
0.551483
11
0.850177
21
0.547717
0
LINE
8
BLACK
6
CONTINUOUS
10
0.850177
20
0.547717
11
0.850177
21
0.512283
0
LINE
8
BLACK
6
CONTINUOUS
10
0.850177
20
0.512283
11
0.849428
21
0.508517
0
LINE
8
BLACK
6
CONTINUOUS
10
0.849428
20
0.508517
11
0.847294
21
0.505324
0
LINE
8
BLACK
6
CONTINUOUS
10
0.847294
20
0.505324
11
0.844101
21
0.50319
0
LINE
8
BLACK
6
CONTINUOUS
10
0.844101
20
0.50319
11
0.840335
21
0.502441
0
LINE
8
BLACK
6
CONTINUOUS
10
0.840335
20
0.502441
11
0.819665
21
0.502441
0
LINE
8
BLACK
6
CONTINUOUS
10
0.819665
20
0.502441
11
0.815899
21
0.50319
0
LINE
8
BLACK
6
CONTINUOUS
10
0.815899
20
0.50319
11
0.812706
21
0.505324
0
LINE
8
BLACK
6
CONTINUOUS
10
0.812706
20
0.505324
11
0.810572
21
0.508517
0
LINE
8
BLACK
6
CONTINUOUS
10
0.810572
20
0.508517
11
0.809823
21
0.512283
0
LINE
8
BLACK
6
CONTINUOUS
10
0.809823
20
0.512283
11
0.809823
21
0.547717
0
LINE
8
BLACK
6
CONTINUOUS
10
0.809823
20
0.547717
11
0.810572
21
0.551483
0
LINE
8
BLACK
6
CONTINUOUS
10
0.810572
20
0.551483
11
0.812706
21
0.554676
0
LINE
8
BLACK
6
CONTINUOUS
10
0.812706
20
0.554676
11
0.815899
21
0.55681
0
LINE
8
BLACK
6
CONTINUOUS
10
0.815899
20
0.55681
11
0.819665
21
0.557559
0
LINE
8
BLACK
6
CONTINUOUS
10
0.819665
20
0.557559
11
0.840335
21
0.557559
0
LINE
8
BLACK
6
CONTINUOUS
10
0.840335
20
0.557559
11
0.844101
21
0.55681
0
LINE
8
BLACK
6
CONTINUOUS
10
1.27247
20
0.711534
11
1.27566
21
0.709401
0
LINE
8
BLACK
6
CONTINUOUS
10
1.27566
20
0.709401
11
1.27779
21
0.706208
0
LINE
8
BLACK
6
CONTINUOUS
10
1.27779
20
0.706208
11
1.27854
21
0.702441
0
LINE
8
BLACK
6
CONTINUOUS
10
1.27854
20
0.702441
11
1.27854
21
0.682756
0
LINE
8
BLACK
6
CONTINUOUS
10
1.27854
20
0.682756
11
1.27779
21
0.678989
0
LINE
8
BLACK
6
CONTINUOUS
10
1.27779
20
0.678989
11
1.27566
21
0.675796
0
LINE
8
BLACK
6
CONTINUOUS
10
1.27566
20
0.675796
11
1.27247
21
0.673663
0
LINE
8
BLACK
6
CONTINUOUS
10
1.27247
20
0.673663
11
1.2687
21
0.672913
0
LINE
8
BLACK
6
CONTINUOUS
10
1.2687
20
0.672913
11
1.2313
21
0.672913
0
LINE
8
BLACK
6
CONTINUOUS
10
1.2313
20
0.672913
11
1.22753
21
0.673663
0
LINE
8
BLACK
6
CONTINUOUS
10
1.22753
20
0.673663
11
1.22434
21
0.675796
0
LINE
8
BLACK
6
CONTINUOUS
10
1.22434
20
0.675796
11
1.22221
21
0.678989
0
LINE
8
BLACK
6
CONTINUOUS
10
1.22221
20
0.678989
11
1.22146
21
0.682756
0
LINE
8
BLACK
6
CONTINUOUS
10
1.22146
20
0.682756
11
1.22146
21
0.702441
0
LINE
8
BLACK
6
CONTINUOUS
10
1.22146
20
0.702441
11
1.22221
21
0.706208
0
LINE
8
BLACK
6
CONTINUOUS
10
1.22221
20
0.706208
11
1.22434
21
0.709401
0
LINE
8
BLACK
6
CONTINUOUS
10
1.22434
20
0.709401
11
1.22753
21
0.711534
0
LINE
8
BLACK
6
CONTINUOUS
10
1.22753
20
0.711534
11
1.2313
21
0.712283
0
LINE
8
BLACK
6
CONTINUOUS
10
1.2313
20
0.712283
11
1.2687
21
0.712283
0
LINE
8
BLACK
6
CONTINUOUS
10
1.2687
20
0.712283
11
1.27247
21
0.711534
0
LINE
8
BLACK
6
CONTINUOUS
10
1.52543
20
0.712047
11
1.45457
21
0.712047
0
LINE
8
BLACK
6
CONTINUOUS
10
1.45457
20
0.712047
11
1.45457
21
0.810472
0
LINE
8
BLACK
6
CONTINUOUS
10
1.45457
20
0.810472
11
1.52543
21
0.810472
0
LINE
8
BLACK
6
CONTINUOUS
10
1.52543
20
0.810472
11
1.52543
21
0.712047
0
LINE
8
BLACK
6
CONTINUOUS
10
1.27247
20
0.786337
11
1.27566
21
0.784204
0
LINE
8
BLACK
6
CONTINUOUS
10
1.27566
20
0.784204
11
1.27779
21
0.781011
0
LINE
8
BLACK
6
CONTINUOUS
10
1.27779
20
0.781011
11
1.27854
21
0.777244
0
LINE
8
BLACK
6
CONTINUOUS
10
1.27854
20
0.777244
11
1.27854
21
0.757559
0
LINE
8
BLACK
6
CONTINUOUS
10
1.27854
20
0.757559
11
1.27779
21
0.753792
0
LINE
8
BLACK
6
CONTINUOUS
10
1.27779
20
0.753792
11
1.27566
21
0.750599
0
LINE
8
BLACK
6
CONTINUOUS
10
1.27566
20
0.750599
11
1.27247
21
0.748466
0
LINE
8
BLACK
6
CONTINUOUS
10
1.27247
20
0.748466
11
1.2687
21
0.747717
0
LINE
8
BLACK
6
CONTINUOUS
10
1.2687
20
0.747717
11
1.2313
21
0.747717
0
LINE
8
BLACK
6
CONTINUOUS
10
1.2313
20
0.747717
11
1.22753
21
0.748466
0
LINE
8
BLACK
6
CONTINUOUS
10
1.22753
20
0.748466
11
1.22434
21
0.750599
0
LINE
8
BLACK
6
CONTINUOUS
10
1.22434
20
0.750599
11
1.22221
21
0.753792
0
LINE
8
BLACK
6
CONTINUOUS
10
1.22221
20
0.753792
11
1.22146
21
0.757559
0
LINE
8
BLACK
6
CONTINUOUS
10
1.22146
20
0.757559
11
1.22146
21
0.777244
0
LINE
8
BLACK
6
CONTINUOUS
10
1.22146
20
0.777244
11
1.22221
21
0.781011
0
LINE
8
BLACK
6
CONTINUOUS
10
1.22221
20
0.781011
11
1.22434
21
0.784204
0
LINE
8
BLACK
6
CONTINUOUS
10
1.22434
20
0.784204
11
1.22753
21
0.786337
0
LINE
8
BLACK
6
CONTINUOUS
10
1.22753
20
0.786337
11
1.2313
21
0.787087
0
LINE
8
BLACK
6
CONTINUOUS
10
1.2313
20
0.787087
11
1.2687
21
0.787087
0
LINE
8
BLACK
6
CONTINUOUS
10
1.2687
20
0.787087
11
1.27247
21
0.786337
0
LINE
8
BLACK
6
CONTINUOUS
10
0.840945
20
0.754724
11
0.785827
21
0.754724
0
LINE
8
BLACK
6
CONTINUOUS
10
0.785827
20
0.754724
11
0.785827
21
0.766535
0
LINE
8
BLACK
6
CONTINUOUS
10
0.785827
20
0.766535
11
0.840945
21
0.766535
0
LINE
8
BLACK
6
CONTINUOUS
10
0.840945
20
0.766535
11
0.840945
21
0.754724
0
LINE
8
BLACK
6
CONTINUOUS
10
1.01417
20
0.754724
11
0.959055
21
0.754724
0
LINE
8
BLACK
6
CONTINUOUS
10
0.959055
20
0.754724
11
0.959055
21
0.766535
0
LINE
8
BLACK
6
CONTINUOUS
10
0.959055
20
0.766535
11
1.01417
21
0.766535
0
LINE
8
BLACK
6
CONTINUOUS
10
1.01417
20
0.766535
11
1.01417
21
0.754724
0
LINE
8
BLACK
6
CONTINUOUS
10
0.840945
20
0.774409
11
0.785827
21
0.774409
0
LINE
8
BLACK
6
CONTINUOUS
10
0.785827
20
0.774409
11
0.785827
21
0.78622
0
LINE
8
BLACK
6
CONTINUOUS
10
0.785827
20
0.78622
11
0.840945
21
0.78622
0
LINE
8
BLACK
6
CONTINUOUS
10
0.840945
20
0.78622
11
0.840945
21
0.774409
0
LINE
8
BLACK
6
CONTINUOUS
10
1.01417
20
0.774409
11
0.959055
21
0.774409
0
LINE
8
BLACK
6
CONTINUOUS
10
0.959055
20
0.774409
11
0.959055
21
0.78622
0
LINE
8
BLACK
6
CONTINUOUS
10
0.959055
20
0.78622
11
1.01417
21
0.78622
0
LINE
8
BLACK
6
CONTINUOUS
10
1.01417
20
0.78622
11
1.01417
21
0.774409
0
LINE
8
BLACK
6
CONTINUOUS
10
0.840945
20
0.794094
11
0.785827
21
0.794094
0
LINE
8
BLACK
6
CONTINUOUS
10
0.785827
20
0.794094
11
0.785827
21
0.805906
0
LINE
8
BLACK
6
CONTINUOUS
10
0.785827
20
0.805906
11
0.840945
21
0.805906
0
LINE
8
BLACK
6
CONTINUOUS
10
0.840945
20
0.805906
11
0.840945
21
0.794094
0
LINE
8
BLACK
6
CONTINUOUS
10
1.01417
20
0.794094
11
0.959055
21
0.794094
0
LINE
8
BLACK
6
CONTINUOUS
10
0.959055
20
0.794094
11
0.959055
21
0.805906
0
LINE
8
BLACK
6
CONTINUOUS
10
0.959055
20
0.805906
11
1.01417
21
0.805906
0
LINE
8
BLACK
6
CONTINUOUS
10
1.01417
20
0.805906
11
1.01417
21
0.794094
0
LINE
8
BLACK
6
CONTINUOUS
10
0.840945
20
0.81378
11
0.785827
21
0.81378
0
LINE
8
BLACK
6
CONTINUOUS
10
0.785827
20
0.81378
11
0.785827
21
0.825591
0
LINE
8
BLACK
6
CONTINUOUS
10
0.785827
20
0.825591
11
0.840945
21
0.825591
0
LINE
8
BLACK
6
CONTINUOUS
10
0.840945
20
0.825591
11
0.840945
21
0.81378
0
LINE
8
BLACK
6
CONTINUOUS
10
1.01417
20
0.81378
11
0.959055
21
0.81378
0
LINE
8
BLACK
6
CONTINUOUS
10
0.959055
20
0.81378
11
0.959055
21
0.825591
0
LINE
8
BLACK
6
CONTINUOUS
10
0.959055
20
0.825591
11
1.01417
21
0.825591
0
LINE
8
BLACK
6
CONTINUOUS
10
1.01417
20
0.825591
11
1.01417
21
0.81378
0
LINE
8
BLACK
6
CONTINUOUS
10
0.840945
20
0.833465
11
0.785827
21
0.833465
0
LINE
8
BLACK
6
CONTINUOUS
10
0.785827
20
0.833465
11
0.785827
21
0.845276
0
LINE
8
BLACK
6
CONTINUOUS
10
0.785827
20
0.845276
11
0.840945
21
0.845276
0
LINE
8
BLACK
6
CONTINUOUS
10
0.840945
20
0.845276
11
0.840945
21
0.833465
0
LINE
8
BLACK
6
CONTINUOUS
10
1.01417
20
0.833465
11
0.959055
21
0.833465
0
LINE
8
BLACK
6
CONTINUOUS
10
0.959055
20
0.833465
11
0.959055
21
0.845276
0
LINE
8
BLACK
6
CONTINUOUS
10
0.959055
20
0.845276
11
1.01417
21
0.845276
0
LINE
8
BLACK
6
CONTINUOUS
10
1.01417
20
0.845276
11
1.01417
21
0.833465
0
LINE
8
BLACK
6
CONTINUOUS
10
1.52543
20
0.869528
11
1.45457
21
0.869528
0
LINE
8
BLACK
6
CONTINUOUS
10
1.45457
20
0.869528
11
1.45457
21
0.967953
0
LINE
8
BLACK
6
CONTINUOUS
10
1.45457
20
0.967953
11
1.52543
21
0.967953
0
LINE
8
BLACK
6
CONTINUOUS
10
1.52543
20
0.967953
11
1.52543
21
0.869528
0
LINE
8
BLACK
6
CONTINUOUS
10
1.25247
20
1.10153
11
1.25566
21
1.0994
0
LINE
8
BLACK
6
CONTINUOUS
10
1.25566
20
1.0994
11
1.25779
21
1.09621
0
LINE
8
BLACK
6
CONTINUOUS
10
1.25779
20
1.09621
11
1.25854
21
1.09244
0
LINE
8
BLACK
6
CONTINUOUS
10
1.25854
20
1.09244
11
1.25854
21
1.07276
0
LINE
8
BLACK
6
CONTINUOUS
10
1.25854
20
1.07276
11
1.25779
21
1.06899
0
LINE
8
BLACK
6
CONTINUOUS
10
1.25779
20
1.06899
11
1.25566
21
1.0658
0
LINE
8
BLACK
6
CONTINUOUS
10
1.25566
20
1.0658
11
1.25247
21
1.06366
0
LINE
8
BLACK
6
CONTINUOUS
10
1.25247
20
1.06366
11
1.2487
21
1.06291
0
LINE
8
BLACK
6
CONTINUOUS
10
1.2487
20
1.06291
11
1.2113
21
1.06291
0
LINE
8
BLACK
6
CONTINUOUS
10
1.2113
20
1.06291
11
1.20753
21
1.06366
0
LINE
8
BLACK
6
CONTINUOUS
10
1.20753
20
1.06366
11
1.20434
21
1.0658
0
LINE
8
BLACK
6
CONTINUOUS
10
1.20434
20
1.0658
11
1.20221
21
1.06899
0
LINE
8
BLACK
6
CONTINUOUS
10
1.20221
20
1.06899
11
1.20146
21
1.07276
0
LINE
8
BLACK
6
CONTINUOUS
10
1.20146
20
1.07276
11
1.20146
21
1.09244
0
LINE
8
BLACK
6
CONTINUOUS
10
1.20146
20
1.09244
11
1.20221
21
1.09621
0
LINE
8
BLACK
6
CONTINUOUS
10
1.20221
20
1.09621
11
1.20434
21
1.0994
0
LINE
8
BLACK
6
CONTINUOUS
10
1.20434
20
1.0994
11
1.20753
21
1.10153
0
LINE
8
BLACK
6
CONTINUOUS
10
1.20753
20
1.10153
11
1.2113
21
1.10228
0
LINE
8
BLACK
6
CONTINUOUS
10
1.2113
20
1.10228
11
1.2487
21
1.10228
0
LINE
8
BLACK
6
CONTINUOUS
10
1.2487
20
1.10228
11
1.25247
21
1.10153
0
LINE
8
BLACK
6
CONTINUOUS
10
1.25247
20
1.17634
11
1.25566
21
1.1742
0
LINE
8
BLACK
6
CONTINUOUS
10
1.25566
20
1.1742
11
1.25779
21
1.17101
0
LINE
8
BLACK
6
CONTINUOUS
10
1.25779
20
1.17101
11
1.25854
21
1.16724
0
LINE
8
BLACK
6
CONTINUOUS
10
1.25854
20
1.16724
11
1.25854
21
1.14756
0
LINE
8
BLACK
6
CONTINUOUS
10
1.25854
20
1.14756
11
1.25779
21
1.14379
0
LINE
8
BLACK
6
CONTINUOUS
10
1.25779
20
1.14379
11
1.25566
21
1.1406
0
LINE
8
BLACK
6
CONTINUOUS
10
1.25566
20
1.1406
11
1.25247
21
1.13847
0
LINE
8
BLACK
6
CONTINUOUS
10
1.25247
20
1.13847
11
1.2487
21
1.13772
0
LINE
8
BLACK
6
CONTINUOUS
10
1.2487
20
1.13772
11
1.2113
21
1.13772
0
LINE
8
BLACK
6
CONTINUOUS
10
1.2113
20
1.13772
11
1.20753
21
1.13847
0
LINE
8
BLACK
6
CONTINUOUS
10
1.20753
20
1.13847
11
1.20434
21
1.1406
0
LINE
8
BLACK
6
CONTINUOUS
10
1.20434
20
1.1406
11
1.20221
21
1.14379
0
LINE
8
BLACK
6
CONTINUOUS
10
1.20221
20
1.14379
11
1.20146
21
1.14756
0
LINE
8
BLACK
6
CONTINUOUS
10
1.20146
20
1.14756
11
1.20146
21
1.16724
0
LINE
8
BLACK
6
CONTINUOUS
10
1.20146
20
1.16724
11
1.20221
21
1.17101
0
LINE
8
BLACK
6
CONTINUOUS
10
1.20221
20
1.17101
11
1.20434
21
1.1742
0
LINE
8
BLACK
6
CONTINUOUS
10
1.20434
20
1.1742
11
1.20753
21
1.17634
0
LINE
8
BLACK
6
CONTINUOUS
10
1.20753
20
1.17634
11
1.2113
21
1.17709
0
LINE
8
BLACK
6
CONTINUOUS
10
1.2113
20
1.17709
11
1.2487
21
1.17709
0
LINE
8
BLACK
6
CONTINUOUS
10
1.2487
20
1.17709
11
1.25247
21
1.17634
0
LINE
8
BLACK
6
CONTINUOUS
10
1.17534
20
1.3235
11
1.17853
21
1.32137
0
LINE
8
BLACK
6
CONTINUOUS
10
1.17853
20
1.32137
11
1.18067
21
1.31818
0
LINE
8
BLACK
6
CONTINUOUS
10
1.18067
20
1.31818
11
1.18142
21
1.31441
0
LINE
8
BLACK
6
CONTINUOUS
10
1.18142
20
1.31441
11
1.18142
21
1.29374
0
LINE
8
BLACK
6
CONTINUOUS
10
1.18142
20
1.29374
11
1.18067
21
1.28997
0
LINE
8
BLACK
6
CONTINUOUS
10
1.18067
20
1.28997
11
1.17853
21
1.28678
0
LINE
8
BLACK
6
CONTINUOUS
10
1.17853
20
1.28678
11
1.17534
21
1.28465
0
LINE
8
BLACK
6
CONTINUOUS
10
1.17534
20
1.28465
11
1.17157
21
1.2839
0
LINE
8
BLACK
6
CONTINUOUS
10
1.17157
20
1.2839
11
1.13614
21
1.2839
0
LINE
8
BLACK
6
CONTINUOUS
10
1.13614
20
1.2839
11
1.13238
21
1.28465
0
LINE
8
BLACK
6
CONTINUOUS
10
1.13238
20
1.28465
11
1.12918
21
1.28678
0
LINE
8
BLACK
6
CONTINUOUS
10
1.12918
20
1.28678
11
1.12705
21
1.28997
0
LINE
8
BLACK
6
CONTINUOUS
10
1.12705
20
1.28997
11
1.1263
21
1.29374
0
LINE
8
BLACK
6
CONTINUOUS
10
1.1263
20
1.29374
11
1.1263
21
1.31441
0
LINE
8
BLACK
6
CONTINUOUS
10
1.1263
20
1.31441
11
1.12705
21
1.31818
0
LINE
8
BLACK
6
CONTINUOUS
10
1.12705
20
1.31818
11
1.12918
21
1.32137
0
LINE
8
BLACK
6
CONTINUOUS
10
1.12918
20
1.32137
11
1.13238
21
1.3235
0
LINE
8
BLACK
6
CONTINUOUS
10
1.13238
20
1.3235
11
1.13614
21
1.32425
0
LINE
8
BLACK
6
CONTINUOUS
10
1.13614
20
1.32425
11
1.17157
21
1.32425
0
LINE
8
BLACK
6
CONTINUOUS
10
1.17157
20
1.32425
11
1.17534
21
1.3235
0
LINE
8
BLACK
6
CONTINUOUS
10
1.29148
20
1.3235
11
1.29468
21
1.32137
0
LINE
8
BLACK
6
CONTINUOUS
10
1.29468
20
1.32137
11
1.29681
21
1.31818
0
LINE
8
BLACK
6
CONTINUOUS
10
1.29681
20
1.31818
11
1.29756
21
1.31441
0
LINE
8
BLACK
6
CONTINUOUS
10
1.29756
20
1.31441
11
1.29756
21
1.29374
0
LINE
8
BLACK
6
CONTINUOUS
10
1.29756
20
1.29374
11
1.29681
21
1.28997
0
LINE
8
BLACK
6
CONTINUOUS
10
1.29681
20
1.28997
11
1.29468
21
1.28678
0
LINE
8
BLACK
6
CONTINUOUS
10
1.29468
20
1.28678
11
1.29148
21
1.28465
0
LINE
8
BLACK
6
CONTINUOUS
10
1.29148
20
1.28465
11
1.28772
21
1.2839
0
LINE
8
BLACK
6
CONTINUOUS
10
1.28772
20
1.2839
11
1.25228
21
1.2839
0
LINE
8
BLACK
6
CONTINUOUS
10
1.25228
20
1.2839
11
1.24852
21
1.28465
0
LINE
8
BLACK
6
CONTINUOUS
10
1.24852
20
1.28465
11
1.24532
21
1.28678
0
LINE
8
BLACK
6
CONTINUOUS
10
1.24532
20
1.28678
11
1.24319
21
1.28997
0
LINE
8
BLACK
6
CONTINUOUS
10
1.24319
20
1.28997
11
1.24244
21
1.29374
0
LINE
8
BLACK
6
CONTINUOUS
10
1.24244
20
1.29374
11
1.24244
21
1.31441
0
LINE
8
BLACK
6
CONTINUOUS
10
1.24244
20
1.31441
11
1.24319
21
1.31818
0
LINE
8
BLACK
6
CONTINUOUS
10
1.24319
20
1.31818
11
1.24532
21
1.32137
0
LINE
8
BLACK
6
CONTINUOUS
10
1.24532
20
1.32137
11
1.24852
21
1.3235
0
LINE
8
BLACK
6
CONTINUOUS
10
1.24852
20
1.3235
11
1.25228
21
1.32425
0
LINE
8
BLACK
6
CONTINUOUS
10
1.25228
20
1.32425
11
1.28772
21
1.32425
0
LINE
8
BLACK
6
CONTINUOUS
10
1.28772
20
1.32425
11
1.29148
21
1.3235
0
LINE
8
BLACK
6
CONTINUOUS
10
1.17534
20
1.39535
11
1.17853
21
1.39322
0
LINE
8
BLACK
6
CONTINUOUS
10
1.17853
20
1.39322
11
1.18067
21
1.39003
0
LINE
8
BLACK
6
CONTINUOUS
10
1.18067
20
1.39003
11
1.18142
21
1.38626
0
LINE
8
BLACK
6
CONTINUOUS
10
1.18142
20
1.38626
11
1.18142
21
1.36559
0
LINE
8
BLACK
6
CONTINUOUS
10
1.18142
20
1.36559
11
1.18067
21
1.36182
0
LINE
8
BLACK
6
CONTINUOUS
10
1.18067
20
1.36182
11
1.17853
21
1.35863
0
LINE
8
BLACK
6
CONTINUOUS
10
1.17853
20
1.35863
11
1.17534
21
1.3565
0
LINE
8
BLACK
6
CONTINUOUS
10
1.17534
20
1.3565
11
1.17157
21
1.35575
0
LINE
8
BLACK
6
CONTINUOUS
10
1.17157
20
1.35575
11
1.13614
21
1.35575
0
LINE
8
BLACK
6
CONTINUOUS
10
1.13614
20
1.35575
11
1.13238
21
1.3565
0
LINE
8
BLACK
6
CONTINUOUS
10
1.13238
20
1.3565
11
1.12918
21
1.35863
0
LINE
8
BLACK
6
CONTINUOUS
10
1.12918
20
1.35863
11
1.12705
21
1.36182
0
LINE
8
BLACK
6
CONTINUOUS
10
1.12705
20
1.36182
11
1.1263
21
1.36559
0
LINE
8
BLACK
6
CONTINUOUS
10
1.1263
20
1.36559
11
1.1263
21
1.38626
0
LINE
8
BLACK
6
CONTINUOUS
10
1.1263
20
1.38626
11
1.12705
21
1.39003
0
LINE
8
BLACK
6
CONTINUOUS
10
1.12705
20
1.39003
11
1.12918
21
1.39322
0
LINE
8
BLACK
6
CONTINUOUS
10
1.12918
20
1.39322
11
1.13238
21
1.39535
0
LINE
8
BLACK
6
CONTINUOUS
10
1.13238
20
1.39535
11
1.13614
21
1.3961
0
LINE
8
BLACK
6
CONTINUOUS
10
1.13614
20
1.3961
11
1.17157
21
1.3961
0
LINE
8
BLACK
6
CONTINUOUS
10
1.17157
20
1.3961
11
1.17534
21
1.39535
0
LINE
8
BLACK
6
CONTINUOUS
10
1.29148
20
1.39535
11
1.29468
21
1.39322
0
LINE
8
BLACK
6
CONTINUOUS
10
1.29468
20
1.39322
11
1.29681
21
1.39003
0
LINE
8
BLACK
6
CONTINUOUS
10
1.29681
20
1.39003
11
1.29756
21
1.38626
0
LINE
8
BLACK
6
CONTINUOUS
10
1.29756
20
1.38626
11
1.29756
21
1.36559
0
LINE
8
BLACK
6
CONTINUOUS
10
1.29756
20
1.36559
11
1.29681
21
1.36182
0
LINE
8
BLACK
6
CONTINUOUS
10
1.29681
20
1.36182
11
1.29468
21
1.35863
0
LINE
8
BLACK
6
CONTINUOUS
10
1.29468
20
1.35863
11
1.29148
21
1.3565
0
LINE
8
BLACK
6
CONTINUOUS
10
1.29148
20
1.3565
11
1.28772
21
1.35575
0
LINE
8
BLACK
6
CONTINUOUS
10
1.28772
20
1.35575
11
1.25228
21
1.35575
0
LINE
8
BLACK
6
CONTINUOUS
10
1.25228
20
1.35575
11
1.24852
21
1.3565
0
LINE
8
BLACK
6
CONTINUOUS
10
1.24852
20
1.3565
11
1.24532
21
1.35863
0
LINE
8
BLACK
6
CONTINUOUS
10
1.24532
20
1.35863
11
1.24319
21
1.36182
0
LINE
8
BLACK
6
CONTINUOUS
10
1.24319
20
1.36182
11
1.24244
21
1.36559
0
LINE
8
BLACK
6
CONTINUOUS
10
1.24244
20
1.36559
11
1.24244
21
1.38626
0
LINE
8
BLACK
6
CONTINUOUS
10
1.24244
20
1.38626
11
1.24319
21
1.39003
0
LINE
8
BLACK
6
CONTINUOUS
10
1.24319
20
1.39003
11
1.24532
21
1.39322
0
LINE
8
BLACK
6
CONTINUOUS
10
1.24532
20
1.39322
11
1.24852
21
1.39535
0
LINE
8
BLACK
6
CONTINUOUS
10
1.24852
20
1.39535
11
1.25228
21
1.3961
0
LINE
8
BLACK
6
CONTINUOUS
10
1.25228
20
1.3961
11
1.28772
21
1.3961
0
LINE
8
BLACK
6
CONTINUOUS
10
1.28772
20
1.3961
11
1.29148
21
1.39535
  0
ENDSEC
  0
EOF
