  0
SECTION
  2
HEADER
  9
$ANGBASE
  50
0.0
  9
$ANGDIR
  70
1
  9
$MEASUREMENT
  70
0
  0
ENDSEC
  0
SECTION
  2
TABLES
  0
TABLE
  2
LTYPE
  70
4
  0
LTYPE
  5
40F
  2
CONTINUOUS
  70
0
  3
Solid line
  72
65
  73
0
  40
0.0
  0
LTYPE
  5
410
  2
DASHDOT
 70
0
  3
Dash Dot ____ _ ____ _
 72
65
 73
4
 40
2.0
 49
1.25
 49
-0.25
 49
0.25
 49
-0.25
  0
LTYPE
  5
411
  2
DASHED
 70
0
  3
Dashed __ __ __ __ __
 72
65
 73
2
 40
0.75
 49
0.5
 49
-0.25
  0
LTYPE
  5
43B
  2
DOTTED
 70
0
  3
Dotted .  .  .  .
 72
65
 73
2
 40
0.2
 49
0.0
 49
-0.2
  0
ENDTAB
  0
TABLE
  2
STYLE
  70
4
  0
STYLE
  2
KICAD
  70
0
  40
0
  41
1
  42
1
  50
0
  71
0
  3
isocp.shx
  0
STYLE
  2
KICADB
  70
0
  40
0
  41
1
  42
1
  50
0
  71
0
  3
isocp.shx
  0
STYLE
  2
KICADI
  70
0
  40
0
  41
1
  42
1
  50
15
  71
0
  3
isocp.shx
  0
STYLE
  2
KICADBI
  70
0
  40
0
  41
1
  42
1
  50
15
  71
0
  3
isocp.shx
  0
ENDTAB
  0
TABLE
  2
LAYER
  70
1
  0
LAYER
  2
BLACK
  70
0
  62
7
  6
CONTINUOUS
  0
ENDTAB
  0
ENDSEC
  0
SECTION
  2
ENTITIES
0
LINE
8
BLACK
6
CONTINUOUS
10
0.860217
20
0.568386
11
0.860913
21
0.568098
0
LINE
8
BLACK
6
CONTINUOUS
10
0.860913
20
0.568098
11
0.861201
21
0.567402
0
LINE
8
BLACK
6
CONTINUOUS
10
0.861201
20
0.567402
11
0.861201
21
0.492598
0
LINE
8
BLACK
6
CONTINUOUS
10
0.861201
20
0.492598
11
0.860913
21
0.491902
0
LINE
8
BLACK
6
CONTINUOUS
10
0.860913
20
0.491902
11
0.860217
21
0.491614
0
LINE
8
BLACK
6
CONTINUOUS
10
0.860217
20
0.491614
11
0.727933
21
0.491614
0
LINE
8
BLACK
6
CONTINUOUS
10
0.727933
20
0.491614
11
0.727237
21
0.491902
0
LINE
8
BLACK
6
CONTINUOUS
10
0.727237
20
0.491902
11
0.726949
21
0.492598
0
LINE
8
BLACK
6
CONTINUOUS
10
0.726949
20
0.492598
11
0.726949
21
0.567402
0
LINE
8
BLACK
6
CONTINUOUS
10
0.726949
20
0.567402
11
0.727237
21
0.568098
0
LINE
8
BLACK
6
CONTINUOUS
10
0.727237
20
0.568098
11
0.727933
21
0.568386
0
LINE
8
BLACK
6
CONTINUOUS
10
0.727933
20
0.568386
11
0.860217
21
0.568386
0
LINE
8
BLACK
6
CONTINUOUS
10
0.728917
20
0.566417
11
0.728917
21
0.493583
0
LINE
8
BLACK
6
CONTINUOUS
10
0.728917
20
0.493583
11
0.859232
21
0.493583
0
LINE
8
BLACK
6
CONTINUOUS
10
0.859232
20
0.493583
11
0.859232
21
0.566417
0
LINE
8
BLACK
6
CONTINUOUS
10
0.859232
20
0.566417
11
0.728917
21
0.566417
0
LINE
8
BLACK
6
CONTINUOUS
10
1.28858
20
0.797913
11
1.28928
21
0.797625
0
LINE
8
BLACK
6
CONTINUOUS
10
1.28928
20
0.797625
11
1.28957
21
0.796929
0
LINE
8
BLACK
6
CONTINUOUS
10
1.28957
20
0.796929
11
1.28957
21
0.663071
0
LINE
8
BLACK
6
CONTINUOUS
10
1.28957
20
0.663071
11
1.28928
21
0.662375
0
LINE
8
BLACK
6
CONTINUOUS
10
1.28928
20
0.662375
11
1.28858
21
0.662087
0
LINE
8
BLACK
6
CONTINUOUS
10
1.28858
20
0.662087
11
1.21142
21
0.662087
0
LINE
8
BLACK
6
CONTINUOUS
10
1.21142
20
0.662087
11
1.21072
21
0.662375
0
LINE
8
BLACK
6
CONTINUOUS
10
1.21072
20
0.662375
11
1.21043
21
0.663071
0
LINE
8
BLACK
6
CONTINUOUS
10
1.21043
20
0.663071
11
1.21043
21
0.663071
0
LINE
8
BLACK
6
CONTINUOUS
10
1.21043
20
0.663071
11
1.21043
21
0.796929
0
LINE
8
BLACK
6
CONTINUOUS
10
1.21043
20
0.796929
11
1.21072
21
0.797625
0
LINE
8
BLACK
6
CONTINUOUS
10
1.21072
20
0.797625
11
1.21142
21
0.797913
0
LINE
8
BLACK
6
CONTINUOUS
10
1.21142
20
0.797913
11
1.28858
21
0.797913
0
LINE
8
BLACK
6
CONTINUOUS
10
1.2124
20
0.795945
11
1.2124
21
0.664055
0
LINE
8
BLACK
6
CONTINUOUS
10
1.2124
20
0.664055
11
1.2876
21
0.664055
0
LINE
8
BLACK
6
CONTINUOUS
10
1.2876
20
0.664055
11
1.2876
21
0.795945
0
LINE
8
BLACK
6
CONTINUOUS
10
1.2876
20
0.795945
11
1.2124
21
0.795945
0
LINE
8
BLACK
6
CONTINUOUS
10
1.5589
20
0.97878
11
1.55959
21
0.978491
0
LINE
8
BLACK
6
CONTINUOUS
10
1.55959
20
0.978491
11
1.55988
21
0.977795
0
LINE
8
BLACK
6
CONTINUOUS
10
1.55988
20
0.977795
11
1.55988
21
0.702205
0
LINE
8
BLACK
6
CONTINUOUS
10
1.55988
20
0.702205
11
1.55959
21
0.701509
0
LINE
8
BLACK
6
CONTINUOUS
10
1.55959
20
0.701509
11
1.5589
21
0.70122
0
LINE
8
BLACK
6
CONTINUOUS
10
1.5589
20
0.70122
11
1.4211
21
0.70122
0
LINE
8
BLACK
6
CONTINUOUS
10
1.4211
20
0.70122
11
1.42041
21
0.701509
0
LINE
8
BLACK
6
CONTINUOUS
10
1.42041
20
0.701509
11
1.42012
21
0.702205
0
LINE
8
BLACK
6
CONTINUOUS
10
1.42012
20
0.702205
11
1.42012
21
0.977795
0
LINE
8
BLACK
6
CONTINUOUS
10
1.42012
20
0.977795
11
1.42041
21
0.978491
0
LINE
8
BLACK
6
CONTINUOUS
10
1.42041
20
0.978491
11
1.4211
21
0.97878
0
LINE
8
BLACK
6
CONTINUOUS
10
1.4211
20
0.97878
11
1.5589
21
0.97878
0
LINE
8
BLACK
6
CONTINUOUS
10
1.42209
20
0.976811
11
1.42209
21
0.703189
0
LINE
8
BLACK
6
CONTINUOUS
10
1.42209
20
0.703189
11
1.55791
21
0.703189
0
LINE
8
BLACK
6
CONTINUOUS
10
1.55791
20
0.703189
11
1.55791
21
0.976811
0
LINE
8
BLACK
6
CONTINUOUS
10
1.55791
20
0.976811
11
1.42209
21
0.976811
0
LINE
8
BLACK
6
CONTINUOUS
10
1.02402
20
0.873819
11
1.02471
21
0.873531
0
LINE
8
BLACK
6
CONTINUOUS
10
1.02471
20
0.873531
11
1.025
21
0.872835
0
LINE
8
BLACK
6
CONTINUOUS
10
1.025
20
0.872835
11
1.025
21
0.727165
0
LINE
8
BLACK
6
CONTINUOUS
10
1.025
20
0.727165
11
1.02471
21
0.726469
0
LINE
8
BLACK
6
CONTINUOUS
10
1.02471
20
0.726469
11
1.02402
21
0.726181
0
LINE
8
BLACK
6
CONTINUOUS
10
1.02402
20
0.726181
11
0.775984
21
0.726181
0
LINE
8
BLACK
6
CONTINUOUS
10
0.775984
20
0.726181
11
0.775288
21
0.726469
0
LINE
8
BLACK
6
CONTINUOUS
10
0.775288
20
0.726469
11
0.775
21
0.727165
0
LINE
8
BLACK
6
CONTINUOUS
10
0.775
20
0.727165
11
0.775
21
0.727165
0
LINE
8
BLACK
6
CONTINUOUS
10
0.775
20
0.727165
11
0.775
21
0.872835
0
LINE
8
BLACK
6
CONTINUOUS
10
0.775
20
0.872835
11
0.775288
21
0.873531
0
LINE
8
BLACK
6
CONTINUOUS
10
0.775288
20
0.873531
11
0.775984
21
0.873819
0
LINE
8
BLACK
6
CONTINUOUS
10
0.775984
20
0.873819
11
1.02402
21
0.873819
0
LINE
8
BLACK
6
CONTINUOUS
10
0.776969
20
0.87185
11
0.776969
21
0.72815
0
LINE
8
BLACK
6
CONTINUOUS
10
0.776969
20
0.72815
11
1.02303
21
0.72815
0
LINE
8
BLACK
6
CONTINUOUS
10
1.02303
20
0.72815
11
1.02303
21
0.87185
0
LINE
8
BLACK
6
CONTINUOUS
10
1.02303
20
0.87185
11
0.776969
21
0.87185
0
LINE
8
BLACK
6
CONTINUOUS
10
1.26858
20
1.18791
11
1.26928
21
1.18763
0
LINE
8
BLACK
6
CONTINUOUS
10
1.26928
20
1.18763
11
1.26957
21
1.18693
0
LINE
8
BLACK
6
CONTINUOUS
10
1.26957
20
1.18693
11
1.26957
21
1.05307
0
LINE
8
BLACK
6
CONTINUOUS
10
1.26957
20
1.05307
11
1.26928
21
1.05237
0
LINE
8
BLACK
6
CONTINUOUS
10
1.26928
20
1.05237
11
1.26858
21
1.05209
0
LINE
8
BLACK
6
CONTINUOUS
10
1.26858
20
1.05209
11
1.19142
21
1.05209
0
LINE
8
BLACK
6
CONTINUOUS
10
1.19142
20
1.05209
11
1.19072
21
1.05237
0
LINE
8
BLACK
6
CONTINUOUS
10
1.19072
20
1.05237
11
1.19043
21
1.05307
0
LINE
8
BLACK
6
CONTINUOUS
10
1.19043
20
1.05307
11
1.19043
21
1.18693
0
LINE
8
BLACK
6
CONTINUOUS
10
1.19043
20
1.18693
11
1.19072
21
1.18763
0
LINE
8
BLACK
6
CONTINUOUS
10
1.19072
20
1.18763
11
1.19142
21
1.18791
0
LINE
8
BLACK
6
CONTINUOUS
10
1.19142
20
1.18791
11
1.26858
21
1.18791
0
LINE
8
BLACK
6
CONTINUOUS
10
1.1924
20
1.18594
11
1.1924
21
1.05406
0
LINE
8
BLACK
6
CONTINUOUS
10
1.1924
20
1.05406
11
1.2676
21
1.05406
0
LINE
8
BLACK
6
CONTINUOUS
10
1.2676
20
1.05406
11
1.2676
21
1.18594
0
LINE
8
BLACK
6
CONTINUOUS
10
1.2676
20
1.18594
11
1.1924
21
1.18594
0
LINE
8
BLACK
6
CONTINUOUS
10
1.19126
20
1.40713
11
1.19196
21
1.40684
0
LINE
8
BLACK
6
CONTINUOUS
10
1.19196
20
1.40684
11
1.19224
21
1.40614
0
LINE
8
BLACK
6
CONTINUOUS
10
1.19224
20
1.40614
11
1.19224
21
1.27386
0
LINE
8
BLACK
6
CONTINUOUS
10
1.19224
20
1.27386
11
1.19196
21
1.27316
0
LINE
8
BLACK
6
CONTINUOUS
10
1.19196
20
1.27316
11
1.19126
21
1.27287
0
LINE
8
BLACK
6
CONTINUOUS
10
1.19126
20
1.27287
11
1.11646
21
1.27287
0
LINE
8
BLACK
6
CONTINUOUS
10
1.11646
20
1.27287
11
1.11576
21
1.27316
0
LINE
8
BLACK
6
CONTINUOUS
10
1.11576
20
1.27316
11
1.11547
21
1.27386
0
LINE
8
BLACK
6
CONTINUOUS
10
1.11547
20
1.27386
11
1.11547
21
1.40614
0
LINE
8
BLACK
6
CONTINUOUS
10
1.11547
20
1.40614
11
1.11576
21
1.40684
0
LINE
8
BLACK
6
CONTINUOUS
10
1.11576
20
1.40684
11
1.11646
21
1.40713
0
LINE
8
BLACK
6
CONTINUOUS
10
1.11646
20
1.40713
11
1.19126
21
1.40713
0
LINE
8
BLACK
6
CONTINUOUS
10
1.11744
20
1.40516
11
1.11744
21
1.27484
0
LINE
8
BLACK
6
CONTINUOUS
10
1.11744
20
1.27484
11
1.19028
21
1.27484
0
LINE
8
BLACK
6
CONTINUOUS
10
1.19028
20
1.27484
11
1.19028
21
1.40516
0
LINE
8
BLACK
6
CONTINUOUS
10
1.19028
20
1.40516
11
1.11744
21
1.40516
0
LINE
8
BLACK
6
CONTINUOUS
10
1.3074
20
1.40713
11
1.3081
21
1.40684
0
LINE
8
BLACK
6
CONTINUOUS
10
1.3081
20
1.40684
11
1.30839
21
1.40614
0
LINE
8
BLACK
6
CONTINUOUS
10
1.30839
20
1.40614
11
1.30839
21
1.27386
0
LINE
8
BLACK
6
CONTINUOUS
10
1.30839
20
1.27386
11
1.3081
21
1.27316
0
LINE
8
BLACK
6
CONTINUOUS
10
1.3081
20
1.27316
11
1.3074
21
1.27287
0
LINE
8
BLACK
6
CONTINUOUS
10
1.3074
20
1.27287
11
1.2326
21
1.27287
0
LINE
8
BLACK
6
CONTINUOUS
10
1.2326
20
1.27287
11
1.2319
21
1.27316
0
LINE
8
BLACK
6
CONTINUOUS
10
1.2319
20
1.27316
11
1.23161
21
1.27386
0
LINE
8
BLACK
6
CONTINUOUS
10
1.23161
20
1.27386
11
1.23161
21
1.40614
0
LINE
8
BLACK
6
CONTINUOUS
10
1.23161
20
1.40614
11
1.2319
21
1.40684
0
LINE
8
BLACK
6
CONTINUOUS
10
1.2319
20
1.40684
11
1.2326
21
1.40713
0
LINE
8
BLACK
6
CONTINUOUS
10
1.2326
20
1.40713
11
1.3074
21
1.40713
0
LINE
8
BLACK
6
CONTINUOUS
10
1.23358
20
1.40516
11
1.23358
21
1.27484
0
LINE
8
BLACK
6
CONTINUOUS
10
1.23358
20
1.27484
11
1.30642
21
1.27484
0
LINE
8
BLACK
6
CONTINUOUS
10
1.30642
20
1.27484
11
1.30642
21
1.40516
0
LINE
8
BLACK
6
CONTINUOUS
10
1.30642
20
1.40516
11
1.23358
21
1.40516
  0
ENDSEC
  0
EOF
