  0
SECTION
  2
HEADER
  9
$ANGBASE
  50
0.0
  9
$ANGDIR
  70
1
  9
$MEASUREMENT
  70
0
  0
ENDSEC
  0
SECTION
  2
TABLES
  0
TABLE
  2
LTYPE
  70
4
  0
LTYPE
  5
40F
  2
CONTINUOUS
  70
0
  3
Solid line
  72
65
  73
0
  40
0.0
  0
LTYPE
  5
410
  2
DASHDOT
 70
0
  3
Dash Dot ____ _ ____ _
 72
65
 73
4
 40
2.0
 49
1.25
 49
-0.25
 49
0.25
 49
-0.25
  0
LTYPE
  5
411
  2
DASHED
 70
0
  3
Dashed __ __ __ __ __
 72
65
 73
2
 40
0.75
 49
0.5
 49
-0.25
  0
LTYPE
  5
43B
  2
DOTTED
 70
0
  3
Dotted .  .  .  .
 72
65
 73
2
 40
0.2
 49
0.0
 49
-0.2
  0
ENDTAB
  0
TABLE
  2
STYLE
  70
4
  0
STYLE
  2
KICAD
  70
0
  40
0
  41
1
  42
1
  50
0
  71
0
  3
isocp.shx
  0
STYLE
  2
KICADB
  70
0
  40
0
  41
1
  42
1
  50
0
  71
0
  3
isocp.shx
  0
STYLE
  2
KICADI
  70
0
  40
0
  41
1
  42
1
  50
15
  71
0
  3
isocp.shx
  0
STYLE
  2
KICADBI
  70
0
  40
0
  41
1
  42
1
  50
15
  71
0
  3
isocp.shx
  0
ENDTAB
  0
TABLE
  2
LAYER
  70
1
  0
LAYER
  2
BLACK
  70
0
  62
7
  6
CONTINUOUS
  0
ENDTAB
  0
ENDSEC
  0
SECTION
  2
ENTITIES
0
LINE
8
BLACK
6
CONTINUOUS
10
0.804685
20
0.502733
11
0.805377
21
0.501063
0
LINE
8
BLACK
6
CONTINUOUS
10
0.805377
20
0.501063
11
0.804685
21
0.499393
0
LINE
8
BLACK
6
CONTINUOUS
10
0.804685
20
0.499393
11
0.803014
21
0.498701
0
LINE
8
BLACK
6
CONTINUOUS
10
0.803014
20
0.498701
11
0.785135
21
0.498701
0
LINE
8
BLACK
6
CONTINUOUS
10
0.785135
20
0.498701
11
0.783465
21
0.499393
0
LINE
8
BLACK
6
CONTINUOUS
10
0.783465
20
0.499393
11
0.782773
21
0.501063
0
LINE
8
BLACK
6
CONTINUOUS
10
0.782773
20
0.501063
11
0.783465
21
0.502733
0
LINE
8
BLACK
6
CONTINUOUS
10
0.783465
20
0.502733
11
0.785135
21
0.503425
0
LINE
8
BLACK
6
CONTINUOUS
10
0.785135
20
0.503425
11
0.803014
21
0.503425
0
LINE
8
BLACK
6
CONTINUOUS
10
0.803014
20
0.503425
11
0.804685
21
0.502733
0
LINE
8
BLACK
6
CONTINUOUS
10
0.804685
20
0.560607
11
0.805377
21
0.558937
0
LINE
8
BLACK
6
CONTINUOUS
10
0.805377
20
0.558937
11
0.804685
21
0.557267
0
LINE
8
BLACK
6
CONTINUOUS
10
0.804685
20
0.557267
11
0.803014
21
0.556575
0
LINE
8
BLACK
6
CONTINUOUS
10
0.803014
20
0.556575
11
0.785135
21
0.556575
0
LINE
8
BLACK
6
CONTINUOUS
10
0.785135
20
0.556575
11
0.783465
21
0.557267
0
LINE
8
BLACK
6
CONTINUOUS
10
0.783465
20
0.557267
11
0.782773
21
0.558937
0
LINE
8
BLACK
6
CONTINUOUS
10
0.782773
20
0.558937
11
0.783465
21
0.560607
0
LINE
8
BLACK
6
CONTINUOUS
10
0.783465
20
0.560607
11
0.785135
21
0.561299
0
LINE
8
BLACK
6
CONTINUOUS
10
0.785135
20
0.561299
11
0.803014
21
0.561299
0
LINE
8
BLACK
6
CONTINUOUS
10
0.803014
20
0.561299
11
0.804685
21
0.560607
0
LINE
8
BLACK
6
CONTINUOUS
10
0.788523
20
0.619199
11
0.79007
21
0.617901
0
LINE
8
BLACK
6
CONTINUOUS
10
0.79007
20
0.617901
11
0.790421
21
0.615912
0
LINE
8
BLACK
6
CONTINUOUS
10
0.790421
20
0.615912
11
0.789411
21
0.614163
0
LINE
8
BLACK
6
CONTINUOUS
10
0.789411
20
0.614163
11
0.787513
21
0.613472
0
LINE
8
BLACK
6
CONTINUOUS
10
0.787513
20
0.613472
11
0.769648
21
0.613472
0
LINE
8
BLACK
6
CONTINUOUS
10
0.769648
20
0.613472
11
0.778487
21
0.603371
0
LINE
8
BLACK
6
CONTINUOUS
10
0.778487
20
0.603371
11
0.778717
21
0.602991
0
LINE
8
BLACK
6
CONTINUOUS
10
0.778717
20
0.602991
11
0.778822
21
0.602903
0
LINE
8
BLACK
6
CONTINUOUS
10
0.778822
20
0.602903
11
0.778843
21
0.602782
0
LINE
8
BLACK
6
CONTINUOUS
10
0.778843
20
0.602782
11
0.779018
21
0.602493
0
LINE
8
BLACK
6
CONTINUOUS
10
0.779018
20
0.602493
11
0.779034
21
0.601698
0
LINE
8
BLACK
6
CONTINUOUS
10
0.779034
20
0.601698
11
0.779172
21
0.600914
0
LINE
8
BLACK
6
CONTINUOUS
10
0.779172
20
0.600914
11
0.779055
21
0.60071
0
LINE
8
BLACK
6
CONTINUOUS
10
0.779055
20
0.60071
11
0.779059
21
0.600474
0
LINE
8
BLACK
6
CONTINUOUS
10
0.779059
20
0.600474
11
0.77856
21
0.599854
0
LINE
8
BLACK
6
CONTINUOUS
10
0.77856
20
0.599854
11
0.778162
21
0.599164
0
LINE
8
BLACK
6
CONTINUOUS
10
0.778162
20
0.599164
11
0.777941
21
0.599084
0
LINE
8
BLACK
6
CONTINUOUS
10
0.777941
20
0.599084
11
0.777793
21
0.5989
0
LINE
8
BLACK
6
CONTINUOUS
10
0.777793
20
0.5989
11
0.777012
21
0.598746
0
LINE
8
BLACK
6
CONTINUOUS
10
0.777012
20
0.598746
11
0.776264
21
0.598474
0
LINE
8
BLACK
6
CONTINUOUS
10
0.776264
20
0.598474
11
0.771337
21
0.598474
0
LINE
8
BLACK
6
CONTINUOUS
10
0.771337
20
0.598474
11
0.76864
21
0.597125
0
LINE
8
BLACK
6
CONTINUOUS
10
0.76864
20
0.597125
11
0.767443
21
0.595928
0
LINE
8
BLACK
6
CONTINUOUS
10
0.767443
20
0.595928
11
0.766094
21
0.59323
0
LINE
8
BLACK
6
CONTINUOUS
10
0.766094
20
0.59323
11
0.766094
21
0.585251
0
LINE
8
BLACK
6
CONTINUOUS
10
0.766094
20
0.585251
11
0.767443
21
0.582553
0
LINE
8
BLACK
6
CONTINUOUS
10
0.767443
20
0.582553
11
0.76864
21
0.581356
0
LINE
8
BLACK
6
CONTINUOUS
10
0.76864
20
0.581356
11
0.771337
21
0.580007
0
LINE
8
BLACK
6
CONTINUOUS
10
0.771337
20
0.580007
11
0.781192
21
0.580007
0
LINE
8
BLACK
6
CONTINUOUS
10
0.781192
20
0.580007
11
0.783889
21
0.581356
0
LINE
8
BLACK
6
CONTINUOUS
10
0.783889
20
0.581356
11
0.785425
21
0.582892
0
LINE
8
BLACK
6
CONTINUOUS
10
0.785425
20
0.582892
11
0.786265
21
0.58348
0
LINE
8
BLACK
6
CONTINUOUS
10
0.786265
20
0.58348
11
0.788277
21
0.583656
0
LINE
8
BLACK
6
CONTINUOUS
10
0.788277
20
0.583656
11
0.789932
21
0.582498
0
LINE
8
BLACK
6
CONTINUOUS
10
0.789932
20
0.582498
11
0.790455
21
0.580547
0
LINE
8
BLACK
6
CONTINUOUS
10
0.790455
20
0.580547
11
0.789601
21
0.578716
0
LINE
8
BLACK
6
CONTINUOUS
10
0.789601
20
0.578716
11
0.787726
21
0.576841
0
LINE
8
BLACK
6
CONTINUOUS
10
0.787726
20
0.576841
11
0.787003
21
0.576335
0
LINE
8
BLACK
6
CONTINUOUS
10
0.787003
20
0.576335
11
0.786959
21
0.576288
0
LINE
8
BLACK
6
CONTINUOUS
10
0.786959
20
0.576288
11
0.783209
21
0.574413
0
LINE
8
BLACK
6
CONTINUOUS
10
0.783209
20
0.574413
11
0.782226
21
0.574121
0
LINE
8
BLACK
6
CONTINUOUS
10
0.782226
20
0.574121
11
0.782055
21
0.574162
0
LINE
8
BLACK
6
CONTINUOUS
10
0.782055
20
0.574162
11
0.781889
21
0.574102
0
LINE
8
BLACK
6
CONTINUOUS
10
0.781889
20
0.574102
11
0.77064
21
0.574102
0
LINE
8
BLACK
6
CONTINUOUS
10
0.77064
20
0.574102
11
0.76963
21
0.57428
0
LINE
8
BLACK
6
CONTINUOUS
10
0.76963
20
0.57428
11
0.769495
21
0.574393
0
LINE
8
BLACK
6
CONTINUOUS
10
0.769495
20
0.574393
11
0.76932
21
0.574413
0
LINE
8
BLACK
6
CONTINUOUS
10
0.76932
20
0.574413
11
0.76557
21
0.576288
0
LINE
8
BLACK
6
CONTINUOUS
10
0.76557
20
0.576288
11
0.764861
21
0.576814
0
LINE
8
BLACK
6
CONTINUOUS
10
0.764861
20
0.576814
11
0.764803
21
0.576841
0
LINE
8
BLACK
6
CONTINUOUS
10
0.764803
20
0.576841
11
0.762928
21
0.578716
0
LINE
8
BLACK
6
CONTINUOUS
10
0.762928
20
0.578716
11
0.762422
21
0.579439
0
LINE
8
BLACK
6
CONTINUOUS
10
0.762422
20
0.579439
11
0.762375
21
0.579483
0
LINE
8
BLACK
6
CONTINUOUS
10
0.762375
20
0.579483
11
0.7605
21
0.583233
0
LINE
8
BLACK
6
CONTINUOUS
10
0.7605
20
0.583233
11
0.760208
21
0.584216
0
LINE
8
BLACK
6
CONTINUOUS
10
0.760208
20
0.584216
11
0.760249
21
0.584388
0
LINE
8
BLACK
6
CONTINUOUS
10
0.760249
20
0.584388
11
0.760188
21
0.584553
0
LINE
8
BLACK
6
CONTINUOUS
10
0.760188
20
0.584553
11
0.760188
21
0.593927
0
LINE
8
BLACK
6
CONTINUOUS
10
0.760188
20
0.593927
11
0.760366
21
0.594937
0
LINE
8
BLACK
6
CONTINUOUS
10
0.760366
20
0.594937
11
0.76048
21
0.595072
0
LINE
8
BLACK
6
CONTINUOUS
10
0.76048
20
0.595072
11
0.7605
21
0.595248
0
LINE
8
BLACK
6
CONTINUOUS
10
0.7605
20
0.595248
11
0.762375
21
0.598997
0
LINE
8
BLACK
6
CONTINUOUS
10
0.762375
20
0.598997
11
0.762901
21
0.599706
0
LINE
8
BLACK
6
CONTINUOUS
10
0.762901
20
0.599706
11
0.762928
21
0.599765
0
LINE
8
BLACK
6
CONTINUOUS
10
0.762928
20
0.599765
11
0.764803
21
0.601639
0
LINE
8
BLACK
6
CONTINUOUS
10
0.764803
20
0.601639
11
0.765526
21
0.602146
0
LINE
8
BLACK
6
CONTINUOUS
10
0.765526
20
0.602146
11
0.76557
21
0.602193
0
LINE
8
BLACK
6
CONTINUOUS
10
0.76557
20
0.602193
11
0.76932
21
0.604067
0
LINE
8
BLACK
6
CONTINUOUS
10
0.76932
20
0.604067
11
0.769883
21
0.604235
0
LINE
8
BLACK
6
CONTINUOUS
10
0.769883
20
0.604235
11
0.760919
21
0.61448
0
LINE
8
BLACK
6
CONTINUOUS
10
0.760919
20
0.61448
11
0.760689
21
0.61486
0
LINE
8
BLACK
6
CONTINUOUS
10
0.760689
20
0.61486
11
0.760584
21
0.614948
0
LINE
8
BLACK
6
CONTINUOUS
10
0.760584
20
0.614948
11
0.760563
21
0.615069
0
LINE
8
BLACK
6
CONTINUOUS
10
0.760563
20
0.615069
11
0.760388
21
0.615357
0
LINE
8
BLACK
6
CONTINUOUS
10
0.760388
20
0.615357
11
0.760371
21
0.616153
0
LINE
8
BLACK
6
CONTINUOUS
10
0.760371
20
0.616153
11
0.760233
21
0.616937
0
LINE
8
BLACK
6
CONTINUOUS
10
0.760233
20
0.616937
11
0.760351
21
0.617141
0
LINE
8
BLACK
6
CONTINUOUS
10
0.760351
20
0.617141
11
0.760346
21
0.617377
0
LINE
8
BLACK
6
CONTINUOUS
10
0.760346
20
0.617377
11
0.760845
21
0.617997
0
LINE
8
BLACK
6
CONTINUOUS
10
0.760845
20
0.617997
11
0.761243
21
0.618686
0
LINE
8
BLACK
6
CONTINUOUS
10
0.761243
20
0.618686
11
0.761464
21
0.618767
0
LINE
8
BLACK
6
CONTINUOUS
10
0.761464
20
0.618767
11
0.761612
21
0.618951
0
LINE
8
BLACK
6
CONTINUOUS
10
0.761612
20
0.618951
11
0.762393
21
0.619105
0
LINE
8
BLACK
6
CONTINUOUS
10
0.762393
20
0.619105
11
0.763141
21
0.619377
0
LINE
8
BLACK
6
CONTINUOUS
10
0.763141
20
0.619377
11
0.787513
21
0.619377
0
LINE
8
BLACK
6
CONTINUOUS
10
0.787513
20
0.619377
11
0.788523
21
0.619199
0
LINE
8
BLACK
6
CONTINUOUS
10
0.823517
20
0.61931
11
0.823646
21
0.619332
0
LINE
8
BLACK
6
CONTINUOUS
10
0.823646
20
0.619332
11
0.82376
21
0.619267
0
LINE
8
BLACK
6
CONTINUOUS
10
0.82376
20
0.619267
11
0.824144
21
0.619199
0
LINE
8
BLACK
6
CONTINUOUS
10
0.824144
20
0.619199
11
0.824731
21
0.618706
0
LINE
8
BLACK
6
CONTINUOUS
10
0.824731
20
0.618706
11
0.825396
21
0.618322
0
LINE
8
BLACK
6
CONTINUOUS
10
0.825396
20
0.618322
11
0.825487
21
0.618072
0
LINE
8
BLACK
6
CONTINUOUS
10
0.825487
20
0.618072
11
0.825691
21
0.617901
0
LINE
8
BLACK
6
CONTINUOUS
10
0.825691
20
0.617901
11
0.825824
21
0.617145
0
LINE
8
BLACK
6
CONTINUOUS
10
0.825824
20
0.617145
11
0.826086
21
0.616424
0
LINE
8
BLACK
6
CONTINUOUS
10
0.826086
20
0.616424
11
0.826086
21
0.577054
0
LINE
8
BLACK
6
CONTINUOUS
10
0.826086
20
0.577054
11
0.825908
21
0.576044
0
LINE
8
BLACK
6
CONTINUOUS
10
0.825908
20
0.576044
11
0.82461
21
0.574497
0
LINE
8
BLACK
6
CONTINUOUS
10
0.82461
20
0.574497
11
0.822621
21
0.574146
0
LINE
8
BLACK
6
CONTINUOUS
10
0.822621
20
0.574146
11
0.820872
21
0.575156
0
LINE
8
BLACK
6
CONTINUOUS
10
0.820872
20
0.575156
11
0.820181
21
0.577054
0
LINE
8
BLACK
6
CONTINUOUS
10
0.820181
20
0.577054
11
0.820181
21
0.592849
0
LINE
8
BLACK
6
CONTINUOUS
10
0.820181
20
0.592849
11
0.815297
21
0.592849
0
LINE
8
BLACK
6
CONTINUOUS
10
0.815297
20
0.592849
11
0.803055
21
0.575361
0
LINE
8
BLACK
6
CONTINUOUS
10
0.803055
20
0.575361
11
0.80233
21
0.574636
0
LINE
8
BLACK
6
CONTINUOUS
10
0.80233
20
0.574636
11
0.80038
21
0.574113
0
LINE
8
BLACK
6
CONTINUOUS
10
0.80038
20
0.574113
11
0.798549
21
0.574966
0
LINE
8
BLACK
6
CONTINUOUS
10
0.798549
20
0.574966
11
0.797695
21
0.576797
0
LINE
8
BLACK
6
CONTINUOUS
10
0.797695
20
0.576797
11
0.798217
21
0.578748
0
LINE
8
BLACK
6
CONTINUOUS
10
0.798217
20
0.578748
11
0.808094
21
0.592857
0
LINE
8
BLACK
6
CONTINUOUS
10
0.808094
20
0.592857
11
0.807126
21
0.593027
0
LINE
8
BLACK
6
CONTINUOUS
10
0.807126
20
0.593027
11
0.80699
21
0.593141
0
LINE
8
BLACK
6
CONTINUOUS
10
0.80699
20
0.593141
11
0.806815
21
0.593161
0
LINE
8
BLACK
6
CONTINUOUS
10
0.806815
20
0.593161
11
0.803065
21
0.595036
0
LINE
8
BLACK
6
CONTINUOUS
10
0.803065
20
0.595036
11
0.802356
21
0.595562
0
LINE
8
BLACK
6
CONTINUOUS
10
0.802356
20
0.595562
11
0.802298
21
0.595589
0
LINE
8
BLACK
6
CONTINUOUS
10
0.802298
20
0.595589
11
0.800423
21
0.597464
0
LINE
8
BLACK
6
CONTINUOUS
10
0.800423
20
0.597464
11
0.799917
21
0.598187
0
LINE
8
BLACK
6
CONTINUOUS
10
0.799917
20
0.598187
11
0.79987
21
0.598231
0
LINE
8
BLACK
6
CONTINUOUS
10
0.79987
20
0.598231
11
0.797995
21
0.601981
0
LINE
8
BLACK
6
CONTINUOUS
10
0.797995
20
0.601981
11
0.797703
21
0.602964
0
LINE
8
BLACK
6
CONTINUOUS
10
0.797703
20
0.602964
11
0.797744
21
0.603135
0
LINE
8
BLACK
6
CONTINUOUS
10
0.797744
20
0.603135
11
0.797684
21
0.603301
0
LINE
8
BLACK
6
CONTINUOUS
10
0.797684
20
0.603301
11
0.797684
21
0.608925
0
LINE
8
BLACK
6
CONTINUOUS
10
0.797684
20
0.608925
11
0.797862
21
0.609935
0
LINE
8
BLACK
6
CONTINUOUS
10
0.797862
20
0.609935
11
0.797975
21
0.610071
0
LINE
8
BLACK
6
CONTINUOUS
10
0.797975
20
0.610071
11
0.797995
21
0.610246
0
LINE
8
BLACK
6
CONTINUOUS
10
0.797995
20
0.610246
11
0.79987
21
0.613995
0
LINE
8
BLACK
6
CONTINUOUS
10
0.79987
20
0.613995
11
0.800396
21
0.614705
0
LINE
8
BLACK
6
CONTINUOUS
10
0.800396
20
0.614705
11
0.800423
21
0.614763
0
LINE
8
BLACK
6
CONTINUOUS
10
0.800423
20
0.614763
11
0.802298
21
0.616638
0
LINE
8
BLACK
6
CONTINUOUS
10
0.802298
20
0.616638
11
0.803021
21
0.617144
0
LINE
8
BLACK
6
CONTINUOUS
10
0.803021
20
0.617144
11
0.803065
21
0.617191
0
LINE
8
BLACK
6
CONTINUOUS
10
0.803065
20
0.617191
11
0.806815
21
0.619065
0
LINE
8
BLACK
6
CONTINUOUS
10
0.806815
20
0.619065
11
0.807798
21
0.619358
0
LINE
8
BLACK
6
CONTINUOUS
10
0.807798
20
0.619358
11
0.80797
21
0.619317
0
LINE
8
BLACK
6
CONTINUOUS
10
0.80797
20
0.619317
11
0.808136
21
0.619377
0
LINE
8
BLACK
6
CONTINUOUS
10
0.808136
20
0.619377
11
0.823134
21
0.619377
0
LINE
8
BLACK
6
CONTINUOUS
10
0.823134
20
0.619377
11
0.823517
21
0.61931
0
LINE
8
BLACK
6
CONTINUOUS
10
0.806135
20
0.612123
11
0.804938
21
0.610926
0
LINE
8
BLACK
6
CONTINUOUS
10
0.804938
20
0.610926
11
0.803589
21
0.608228
0
LINE
8
BLACK
6
CONTINUOUS
10
0.803589
20
0.608228
11
0.803589
21
0.603998
0
LINE
8
BLACK
6
CONTINUOUS
10
0.803589
20
0.603998
11
0.804938
21
0.601301
0
LINE
8
BLACK
6
CONTINUOUS
10
0.804938
20
0.601301
11
0.806135
21
0.600104
0
LINE
8
BLACK
6
CONTINUOUS
10
0.806135
20
0.600104
11
0.808833
21
0.598755
0
LINE
8
BLACK
6
CONTINUOUS
10
0.808833
20
0.598755
11
0.820181
21
0.598755
0
LINE
8
BLACK
6
CONTINUOUS
10
0.820181
20
0.598755
11
0.820181
21
0.613472
0
LINE
8
BLACK
6
CONTINUOUS
10
0.820181
20
0.613472
11
0.808833
21
0.613472
0
LINE
8
BLACK
6
CONTINUOUS
10
0.808833
20
0.613472
11
0.806135
21
0.612123
0
LINE
8
BLACK
6
CONTINUOUS
10
1.1754
20
0.723935
11
1.17651
21
0.72225
0
LINE
8
BLACK
6
CONTINUOUS
10
1.17651
20
0.72225
11
1.17628
21
0.720243
0
LINE
8
BLACK
6
CONTINUOUS
10
1.17628
20
0.720243
11
1.17441
21
0.716494
0
LINE
8
BLACK
6
CONTINUOUS
10
1.17441
20
0.716494
11
1.17388
21
0.715784
0
LINE
8
BLACK
6
CONTINUOUS
10
1.17388
20
0.715784
11
1.17386
21
0.715726
0
LINE
8
BLACK
6
CONTINUOUS
10
1.17386
20
0.715726
11
1.1714
21
0.713268
0
LINE
8
BLACK
6
CONTINUOUS
10
1.1714
20
0.713268
11
1.19881
21
0.713268
0
LINE
8
BLACK
6
CONTINUOUS
10
1.19881
20
0.713268
11
1.19881
21
0.721564
0
LINE
8
BLACK
6
CONTINUOUS
10
1.19881
20
0.721564
11
1.19899
21
0.722573
0
LINE
8
BLACK
6
CONTINUOUS
10
1.19899
20
0.722573
11
1.20029
21
0.724121
0
LINE
8
BLACK
6
CONTINUOUS
10
1.20029
20
0.724121
11
1.20228
21
0.724471
0
LINE
8
BLACK
6
CONTINUOUS
10
1.20228
20
0.724471
11
1.20403
21
0.723462
0
LINE
8
BLACK
6
CONTINUOUS
10
1.20403
20
0.723462
11
1.20472
21
0.721564
0
LINE
8
BLACK
6
CONTINUOUS
10
1.20472
20
0.721564
11
1.20472
21
0.699066
0
LINE
8
BLACK
6
CONTINUOUS
10
1.20472
20
0.699066
11
1.20454
21
0.698056
0
LINE
8
BLACK
6
CONTINUOUS
10
1.20454
20
0.698056
11
1.20324
21
0.696509
0
LINE
8
BLACK
6
CONTINUOUS
10
1.20324
20
0.696509
11
1.20125
21
0.696158
0
LINE
8
BLACK
6
CONTINUOUS
10
1.20125
20
0.696158
11
1.1995
21
0.697168
0
LINE
8
BLACK
6
CONTINUOUS
10
1.1995
20
0.697168
11
1.19881
21
0.699066
0
LINE
8
BLACK
6
CONTINUOUS
10
1.19881
20
0.699066
11
1.19881
21
0.707362
0
LINE
8
BLACK
6
CONTINUOUS
10
1.19881
20
0.707362
11
1.16239
21
0.707362
0
LINE
8
BLACK
6
CONTINUOUS
10
1.16239
20
0.707362
11
1.16138
21
0.70754
0
LINE
8
BLACK
6
CONTINUOUS
10
1.16138
20
0.70754
11
1.16125
21
0.707649
0
LINE
8
BLACK
6
CONTINUOUS
10
1.16125
20
0.707649
11
1.16109
21
0.707668
0
LINE
8
BLACK
6
CONTINUOUS
10
1.16109
20
0.707668
11
1.16049
21
0.708288
0
LINE
8
BLACK
6
CONTINUOUS
10
1.16049
20
0.708288
11
1.15984
21
0.708839
0
LINE
8
BLACK
6
CONTINUOUS
10
1.15984
20
0.708839
11
1.15981
21
0.709006
0
LINE
8
BLACK
6
CONTINUOUS
10
1.15981
20
0.709006
11
1.15969
21
0.709129
0
LINE
8
BLACK
6
CONTINUOUS
10
1.15969
20
0.709129
11
1.15964
21
0.709984
0
LINE
8
BLACK
6
CONTINUOUS
10
1.15964
20
0.709984
11
1.15949
21
0.710828
0
LINE
8
BLACK
6
CONTINUOUS
10
1.15949
20
0.710828
11
1.15957
21
0.710975
0
LINE
8
BLACK
6
CONTINUOUS
10
1.15957
20
0.710975
11
1.15956
21
0.711144
0
LINE
8
BLACK
6
CONTINUOUS
10
1.15956
20
0.711144
11
1.16007
21
0.711835
0
LINE
8
BLACK
6
CONTINUOUS
10
1.16007
20
0.711835
11
1.1605
21
0.712577
0
LINE
8
BLACK
6
CONTINUOUS
10
1.1605
20
0.712577
11
1.16066
21
0.712635
0
LINE
8
BLACK
6
CONTINUOUS
10
1.16066
20
0.712635
11
1.16076
21
0.712772
0
LINE
8
BLACK
6
CONTINUOUS
10
1.16076
20
0.712772
11
1.16614
21
0.716359
0
LINE
8
BLACK
6
CONTINUOUS
10
1.16614
20
0.716359
11
1.16934
21
0.719563
0
LINE
8
BLACK
6
CONTINUOUS
10
1.16934
20
0.719563
11
1.171
21
0.722884
0
LINE
8
BLACK
6
CONTINUOUS
10
1.171
20
0.722884
11
1.17161
21
0.723708
0
LINE
8
BLACK
6
CONTINUOUS
10
1.17161
20
0.723708
11
1.17347
21
0.724511
0
LINE
8
BLACK
6
CONTINUOUS
10
1.17347
20
0.724511
11
1.1754
21
0.723935
0
LINE
8
BLACK
6
CONTINUOUS
10
1.22273
20
0.741956
11
1.22343
21
0.740286
0
LINE
8
BLACK
6
CONTINUOUS
10
1.22343
20
0.740286
11
1.22343
21
0.719714
0
LINE
8
BLACK
6
CONTINUOUS
10
1.22343
20
0.719714
11
1.22273
21
0.718044
0
LINE
8
BLACK
6
CONTINUOUS
10
1.22273
20
0.718044
11
1.22106
21
0.717352
0
LINE
8
BLACK
6
CONTINUOUS
10
1.22106
20
0.717352
11
1.21939
21
0.718044
0
LINE
8
BLACK
6
CONTINUOUS
10
1.21939
20
0.718044
11
1.2187
21
0.719714
0
LINE
8
BLACK
6
CONTINUOUS
10
1.2187
20
0.719714
11
1.2187
21
0.740286
0
LINE
8
BLACK
6
CONTINUOUS
10
1.2187
20
0.740286
11
1.21939
21
0.741956
0
LINE
8
BLACK
6
CONTINUOUS
10
1.21939
20
0.741956
11
1.22106
21
0.742648
0
LINE
8
BLACK
6
CONTINUOUS
10
1.22106
20
0.742648
11
1.22273
21
0.741956
0
LINE
8
BLACK
6
CONTINUOUS
10
1.28061
20
0.741956
11
1.2813
21
0.740286
0
LINE
8
BLACK
6
CONTINUOUS
10
1.2813
20
0.740286
11
1.2813
21
0.719714
0
LINE
8
BLACK
6
CONTINUOUS
10
1.2813
20
0.719714
11
1.28061
21
0.718044
0
LINE
8
BLACK
6
CONTINUOUS
10
1.28061
20
0.718044
11
1.27894
21
0.717352
0
LINE
8
BLACK
6
CONTINUOUS
10
1.27894
20
0.717352
11
1.27727
21
0.718044
0
LINE
8
BLACK
6
CONTINUOUS
10
1.27727
20
0.718044
11
1.27657
21
0.719714
0
LINE
8
BLACK
6
CONTINUOUS
10
1.27657
20
0.719714
11
1.27657
21
0.740286
0
LINE
8
BLACK
6
CONTINUOUS
10
1.27657
20
0.740286
11
1.27727
21
0.741956
0
LINE
8
BLACK
6
CONTINUOUS
10
1.27727
20
0.741956
11
1.27894
21
0.742648
0
LINE
8
BLACK
6
CONTINUOUS
10
1.27894
20
0.742648
11
1.28061
21
0.741956
0
LINE
8
BLACK
6
CONTINUOUS
10
0.968207
20
0.747764
11
0.968898
21
0.745866
0
LINE
8
BLACK
6
CONTINUOUS
10
0.968898
20
0.745866
11
0.968898
21
0.734055
0
LINE
8
BLACK
6
CONTINUOUS
10
0.968898
20
0.734055
11
0.96883
21
0.733672
0
LINE
8
BLACK
6
CONTINUOUS
10
0.96883
20
0.733672
11
0.968853
21
0.733542
0
LINE
8
BLACK
6
CONTINUOUS
10
0.968853
20
0.733542
11
0.968787
21
0.733429
0
LINE
8
BLACK
6
CONTINUOUS
10
0.968787
20
0.733429
11
0.96872
21
0.733045
0
LINE
8
BLACK
6
CONTINUOUS
10
0.96872
20
0.733045
11
0.968226
21
0.732458
0
LINE
8
BLACK
6
CONTINUOUS
10
0.968226
20
0.732458
11
0.967843
21
0.731793
0
LINE
8
BLACK
6
CONTINUOUS
10
0.967843
20
0.731793
11
0.967593
21
0.731702
0
LINE
8
BLACK
6
CONTINUOUS
10
0.967593
20
0.731702
11
0.967421
21
0.731498
0
LINE
8
BLACK
6
CONTINUOUS
10
0.967421
20
0.731498
11
0.966666
21
0.731365
0
LINE
8
BLACK
6
CONTINUOUS
10
0.966666
20
0.731365
11
0.965945
21
0.731102
0
LINE
8
BLACK
6
CONTINUOUS
10
0.965945
20
0.731102
11
0.834055
21
0.731102
0
LINE
8
BLACK
6
CONTINUOUS
10
0.834055
20
0.731102
11
0.833672
21
0.73117
0
LINE
8
BLACK
6
CONTINUOUS
10
0.833672
20
0.73117
11
0.833542
21
0.731147
0
LINE
8
BLACK
6
CONTINUOUS
10
0.833542
20
0.731147
11
0.833429
21
0.731213
0
LINE
8
BLACK
6
CONTINUOUS
10
0.833429
20
0.731213
11
0.833045
21
0.73128
0
LINE
8
BLACK
6
CONTINUOUS
10
0.833045
20
0.73128
11
0.832457
21
0.731774
0
LINE
8
BLACK
6
CONTINUOUS
10
0.832457
20
0.731774
11
0.831793
21
0.732157
0
LINE
8
BLACK
6
CONTINUOUS
10
0.831793
20
0.732157
11
0.831702
21
0.732407
0
LINE
8
BLACK
6
CONTINUOUS
10
0.831702
20
0.732407
11
0.831498
21
0.732579
0
LINE
8
BLACK
6
CONTINUOUS
10
0.831498
20
0.732579
11
0.831365
21
0.733334
0
LINE
8
BLACK
6
CONTINUOUS
10
0.831365
20
0.733334
11
0.831102
21
0.734055
0
LINE
8
BLACK
6
CONTINUOUS
10
0.831102
20
0.734055
11
0.831102
21
0.745866
0
LINE
8
BLACK
6
CONTINUOUS
10
0.831102
20
0.745866
11
0.83128
21
0.746876
0
LINE
8
BLACK
6
CONTINUOUS
10
0.83128
20
0.746876
11
0.832579
21
0.748423
0
LINE
8
BLACK
6
CONTINUOUS
10
0.832579
20
0.748423
11
0.834568
21
0.748774
0
LINE
8
BLACK
6
CONTINUOUS
10
0.834568
20
0.748774
11
0.836317
21
0.747764
0
LINE
8
BLACK
6
CONTINUOUS
10
0.836317
20
0.747764
11
0.837008
21
0.745866
0
LINE
8
BLACK
6
CONTINUOUS
10
0.837008
20
0.745866
11
0.837008
21
0.737008
0
LINE
8
BLACK
6
CONTINUOUS
10
0.837008
20
0.737008
11
0.962992
21
0.737008
0
LINE
8
BLACK
6
CONTINUOUS
10
0.962992
20
0.737008
11
0.962992
21
0.745866
0
LINE
8
BLACK
6
CONTINUOUS
10
0.962992
20
0.745866
11
0.96317
21
0.746876
0
LINE
8
BLACK
6
CONTINUOUS
10
0.96317
20
0.746876
11
0.964469
21
0.748423
0
LINE
8
BLACK
6
CONTINUOUS
10
0.964469
20
0.748423
11
0.966458
21
0.748774
0
LINE
8
BLACK
6
CONTINUOUS
10
0.966458
20
0.748774
11
0.968207
21
0.747764
0
LINE
8
BLACK
6
CONTINUOUS
10
1.18547
20
0.763784
11
1.18561
21
0.763798
0
LINE
8
BLACK
6
CONTINUOUS
10
1.18561
20
0.763798
11
1.19311
21
0.761923
0
LINE
8
BLACK
6
CONTINUOUS
10
1.19311
20
0.761923
11
1.19357
21
0.761716
0
LINE
8
BLACK
6
CONTINUOUS
10
1.19357
20
0.761716
11
1.19371
21
0.7617
0
LINE
8
BLACK
6
CONTINUOUS
10
1.19371
20
0.7617
11
1.19746
21
0.759825
0
LINE
8
BLACK
6
CONTINUOUS
10
1.19746
20
0.759825
11
1.19817
21
0.759299
0
LINE
8
BLACK
6
CONTINUOUS
10
1.19817
20
0.759299
11
1.19823
21
0.759272
0
LINE
8
BLACK
6
CONTINUOUS
10
1.19823
20
0.759272
11
1.20198
21
0.755522
0
LINE
8
BLACK
6
CONTINUOUS
10
1.20198
20
0.755522
11
1.20257
21
0.754682
0
LINE
8
BLACK
6
CONTINUOUS
10
1.20257
20
0.754682
11
1.20258
21
0.754507
0
LINE
8
BLACK
6
CONTINUOUS
10
1.20258
20
0.754507
11
1.20269
21
0.754368
0
LINE
8
BLACK
6
CONTINUOUS
10
1.20269
20
0.754368
11
1.20457
21
0.748744
0
LINE
8
BLACK
6
CONTINUOUS
10
1.20457
20
0.748744
11
1.2047
21
0.747871
0
LINE
8
BLACK
6
CONTINUOUS
10
1.2047
20
0.747871
11
1.20472
21
0.74781
0
LINE
8
BLACK
6
CONTINUOUS
10
1.20472
20
0.74781
11
1.20472
21
0.744061
0
LINE
8
BLACK
6
CONTINUOUS
10
1.20472
20
0.744061
11
1.20456
21
0.743191
0
LINE
8
BLACK
6
CONTINUOUS
10
1.20456
20
0.743191
11
1.20457
21
0.743127
0
LINE
8
BLACK
6
CONTINUOUS
10
1.20457
20
0.743127
11
1.20269
21
0.737503
0
LINE
8
BLACK
6
CONTINUOUS
10
1.20269
20
0.737503
11
1.2022
21
0.736601
0
LINE
8
BLACK
6
CONTINUOUS
10
1.2022
20
0.736601
11
1.20205
21
0.736509
0
LINE
8
BLACK
6
CONTINUOUS
10
1.20205
20
0.736509
11
1.20198
21
0.736349
0
LINE
8
BLACK
6
CONTINUOUS
10
1.20198
20
0.736349
11
1.2001
21
0.734474
0
LINE
8
BLACK
6
CONTINUOUS
10
1.2001
20
0.734474
11
1.19926
21
0.733886
0
LINE
8
BLACK
6
CONTINUOUS
10
1.19926
20
0.733886
11
1.19725
21
0.73371
0
LINE
8
BLACK
6
CONTINUOUS
10
1.19725
20
0.73371
11
1.1956
21
0.734868
0
LINE
8
BLACK
6
CONTINUOUS
10
1.1956
20
0.734868
11
1.19507
21
0.736819
0
LINE
8
BLACK
6
CONTINUOUS
10
1.19507
20
0.736819
11
1.19593
21
0.73865
0
LINE
8
BLACK
6
CONTINUOUS
10
1.19593
20
0.73865
11
1.19731
21
0.740032
0
LINE
8
BLACK
6
CONTINUOUS
10
1.19731
20
0.740032
11
1.19881
21
0.74454
0
LINE
8
BLACK
6
CONTINUOUS
10
1.19881
20
0.74454
11
1.19881
21
0.747331
0
LINE
8
BLACK
6
CONTINUOUS
10
1.19881
20
0.747331
11
1.19731
21
0.75184
0
LINE
8
BLACK
6
CONTINUOUS
10
1.19731
20
0.75184
11
1.19439
21
0.754757
0
LINE
8
BLACK
6
CONTINUOUS
10
1.19439
20
0.754757
11
1.19136
21
0.756273
0
LINE
8
BLACK
6
CONTINUOUS
10
1.19136
20
0.756273
11
1.18453
21
0.757981
0
LINE
8
BLACK
6
CONTINUOUS
10
1.18453
20
0.757981
11
1.17963
21
0.757981
0
LINE
8
BLACK
6
CONTINUOUS
10
1.17963
20
0.757981
11
1.1728
21
0.756273
0
LINE
8
BLACK
6
CONTINUOUS
10
1.1728
20
0.756273
11
1.16977
21
0.754757
0
LINE
8
BLACK
6
CONTINUOUS
10
1.16977
20
0.754757
11
1.16685
21
0.75184
0
LINE
8
BLACK
6
CONTINUOUS
10
1.16685
20
0.75184
11
1.16535
21
0.747331
0
LINE
8
BLACK
6
CONTINUOUS
10
1.16535
20
0.747331
11
1.16535
21
0.74454
0
LINE
8
BLACK
6
CONTINUOUS
10
1.16535
20
0.74454
11
1.16685
21
0.740031
0
LINE
8
BLACK
6
CONTINUOUS
10
1.16685
20
0.740031
11
1.16823
21
0.73865
0
LINE
8
BLACK
6
CONTINUOUS
10
1.16823
20
0.73865
11
1.16882
21
0.73781
0
LINE
8
BLACK
6
CONTINUOUS
10
1.16882
20
0.73781
11
1.169
21
0.735797
0
LINE
8
BLACK
6
CONTINUOUS
10
1.169
20
0.735797
11
1.16784
21
0.734143
0
LINE
8
BLACK
6
CONTINUOUS
10
1.16784
20
0.734143
11
1.16589
21
0.73362
0
LINE
8
BLACK
6
CONTINUOUS
10
1.16589
20
0.73362
11
1.16406
21
0.734474
0
LINE
8
BLACK
6
CONTINUOUS
10
1.16406
20
0.734474
11
1.16218
21
0.736349
0
LINE
8
BLACK
6
CONTINUOUS
10
1.16218
20
0.736349
11
1.16159
21
0.737189
0
LINE
8
BLACK
6
CONTINUOUS
10
1.16159
20
0.737189
11
1.16158
21
0.737364
0
LINE
8
BLACK
6
CONTINUOUS
10
1.16158
20
0.737364
11
1.16147
21
0.737503
0
LINE
8
BLACK
6
CONTINUOUS
10
1.16147
20
0.737503
11
1.15959
21
0.743127
0
LINE
8
BLACK
6
CONTINUOUS
10
1.15959
20
0.743127
11
1.15946
21
0.744
0
LINE
8
BLACK
6
CONTINUOUS
10
1.15946
20
0.744
11
1.15944
21
0.744061
0
LINE
8
BLACK
6
CONTINUOUS
10
1.15944
20
0.744061
11
1.15944
21
0.74781
0
LINE
8
BLACK
6
CONTINUOUS
10
1.15944
20
0.74781
11
1.15959
21
0.74868
0
LINE
8
BLACK
6
CONTINUOUS
10
1.15959
20
0.74868
11
1.15959
21
0.748744
0
LINE
8
BLACK
6
CONTINUOUS
10
1.15959
20
0.748744
11
1.16147
21
0.754368
0
LINE
8
BLACK
6
CONTINUOUS
10
1.16147
20
0.754368
11
1.16196
21
0.75527
0
LINE
8
BLACK
6
CONTINUOUS
10
1.16196
20
0.75527
11
1.16211
21
0.755363
0
LINE
8
BLACK
6
CONTINUOUS
10
1.16211
20
0.755363
11
1.16218
21
0.755522
0
LINE
8
BLACK
6
CONTINUOUS
10
1.16218
20
0.755522
11
1.16593
21
0.759272
0
LINE
8
BLACK
6
CONTINUOUS
10
1.16593
20
0.759272
11
1.16665
21
0.759778
0
LINE
8
BLACK
6
CONTINUOUS
10
1.16665
20
0.759778
11
1.1667
21
0.759825
0
LINE
8
BLACK
6
CONTINUOUS
10
1.1667
20
0.759825
11
1.17045
21
0.7617
0
LINE
8
BLACK
6
CONTINUOUS
10
1.17045
20
0.7617
11
1.17094
21
0.761845
0
LINE
8
BLACK
6
CONTINUOUS
10
1.17094
20
0.761845
11
1.17105
21
0.761923
0
LINE
8
BLACK
6
CONTINUOUS
10
1.17105
20
0.761923
11
1.17855
21
0.763798
0
LINE
8
BLACK
6
CONTINUOUS
10
1.17855
20
0.763798
11
1.17914
21
0.76384
0
LINE
8
BLACK
6
CONTINUOUS
10
1.17914
20
0.76384
11
1.17927
21
0.763886
0
LINE
8
BLACK
6
CONTINUOUS
10
1.17927
20
0.763886
11
1.18489
21
0.763886
0
LINE
8
BLACK
6
CONTINUOUS
10
1.18489
20
0.763886
11
1.18547
21
0.763784
0
LINE
8
BLACK
6
CONTINUOUS
10
1.55496
20
0.97622
11
1.55663
21
0.975529
0
LINE
8
BLACK
6
CONTINUOUS
10
1.55663
20
0.975529
11
1.55732
21
0.973858
0
LINE
8
BLACK
6
CONTINUOUS
10
1.55732
20
0.973858
11
1.55732
21
0.76126
0
LINE
8
BLACK
6
CONTINUOUS
10
1.55732
20
0.76126
11
1.55663
21
0.75959
0
LINE
8
BLACK
6
CONTINUOUS
10
1.55663
20
0.75959
11
1.55496
21
0.758898
0
LINE
8
BLACK
6
CONTINUOUS
10
1.55496
20
0.758898
11
1.55329
21
0.75959
0
LINE
8
BLACK
6
CONTINUOUS
10
1.55329
20
0.75959
11
1.5526
21
0.76126
0
LINE
8
BLACK
6
CONTINUOUS
10
1.5526
20
0.76126
11
1.5526
21
0.971496
0
LINE
8
BLACK
6
CONTINUOUS
10
1.5526
20
0.971496
11
1.4274
21
0.971496
0
LINE
8
BLACK
6
CONTINUOUS
10
1.4274
20
0.971496
11
1.4274
21
0.76126
0
LINE
8
BLACK
6
CONTINUOUS
10
1.4274
20
0.76126
11
1.42671
21
0.75959
0
LINE
8
BLACK
6
CONTINUOUS
10
1.42671
20
0.75959
11
1.42504
21
0.758898
0
LINE
8
BLACK
6
CONTINUOUS
10
1.42504
20
0.758898
11
1.42337
21
0.75959
0
LINE
8
BLACK
6
CONTINUOUS
10
1.42337
20
0.75959
11
1.42268
21
0.76126
0
LINE
8
BLACK
6
CONTINUOUS
10
1.42268
20
0.76126
11
1.42268
21
0.973858
0
LINE
8
BLACK
6
CONTINUOUS
10
1.42268
20
0.973858
11
1.42337
21
0.975529
0
LINE
8
BLACK
6
CONTINUOUS
10
1.42337
20
0.975529
11
1.42504
21
0.97622
0
LINE
8
BLACK
6
CONTINUOUS
10
1.42504
20
0.97622
11
1.55496
21
0.97622
0
LINE
8
BLACK
6
CONTINUOUS
10
1.38312
20
0.833935
11
1.38423
21
0.83225
0
LINE
8
BLACK
6
CONTINUOUS
10
1.38423
20
0.83225
11
1.384
21
0.830243
0
LINE
8
BLACK
6
CONTINUOUS
10
1.384
20
0.830243
11
1.38213
21
0.826494
0
LINE
8
BLACK
6
CONTINUOUS
10
1.38213
20
0.826494
11
1.3816
21
0.825784
0
LINE
8
BLACK
6
CONTINUOUS
10
1.3816
20
0.825784
11
1.38157
21
0.825726
0
LINE
8
BLACK
6
CONTINUOUS
10
1.38157
20
0.825726
11
1.37911
21
0.823268
0
LINE
8
BLACK
6
CONTINUOUS
10
1.37911
20
0.823268
11
1.40653
21
0.823268
0
LINE
8
BLACK
6
CONTINUOUS
10
1.40653
20
0.823268
11
1.40653
21
0.831564
0
LINE
8
BLACK
6
CONTINUOUS
10
1.40653
20
0.831564
11
1.40671
21
0.832573
0
LINE
8
BLACK
6
CONTINUOUS
10
1.40671
20
0.832573
11
1.408
21
0.834121
0
LINE
8
BLACK
6
CONTINUOUS
10
1.408
20
0.834121
11
1.40999
21
0.834471
0
LINE
8
BLACK
6
CONTINUOUS
10
1.40999
20
0.834471
11
1.41174
21
0.833462
0
LINE
8
BLACK
6
CONTINUOUS
10
1.41174
20
0.833462
11
1.41243
21
0.831564
0
LINE
8
BLACK
6
CONTINUOUS
10
1.41243
20
0.831564
11
1.41243
21
0.809066
0
LINE
8
BLACK
6
CONTINUOUS
10
1.41243
20
0.809066
11
1.41226
21
0.808056
0
LINE
8
BLACK
6
CONTINUOUS
10
1.41226
20
0.808056
11
1.41096
21
0.806509
0
LINE
8
BLACK
6
CONTINUOUS
10
1.41096
20
0.806509
11
1.40897
21
0.806158
0
LINE
8
BLACK
6
CONTINUOUS
10
1.40897
20
0.806158
11
1.40722
21
0.807168
0
LINE
8
BLACK
6
CONTINUOUS
10
1.40722
20
0.807168
11
1.40653
21
0.809066
0
LINE
8
BLACK
6
CONTINUOUS
10
1.40653
20
0.809066
11
1.40653
21
0.817362
0
LINE
8
BLACK
6
CONTINUOUS
10
1.40653
20
0.817362
11
1.37011
21
0.817362
0
LINE
8
BLACK
6
CONTINUOUS
10
1.37011
20
0.817362
11
1.3691
21
0.81754
0
LINE
8
BLACK
6
CONTINUOUS
10
1.3691
20
0.81754
11
1.36897
21
0.817649
0
LINE
8
BLACK
6
CONTINUOUS
10
1.36897
20
0.817649
11
1.3688
21
0.817668
0
LINE
8
BLACK
6
CONTINUOUS
10
1.3688
20
0.817668
11
1.36821
21
0.818288
0
LINE
8
BLACK
6
CONTINUOUS
10
1.36821
20
0.818288
11
1.36755
21
0.818839
0
LINE
8
BLACK
6
CONTINUOUS
10
1.36755
20
0.818839
11
1.36752
21
0.819006
0
LINE
8
BLACK
6
CONTINUOUS
10
1.36752
20
0.819006
11
1.36741
21
0.819129
0
LINE
8
BLACK
6
CONTINUOUS
10
1.36741
20
0.819129
11
1.36735
21
0.819984
0
LINE
8
BLACK
6
CONTINUOUS
10
1.36735
20
0.819984
11
1.3672
21
0.820828
0
LINE
8
BLACK
6
CONTINUOUS
10
1.3672
20
0.820828
11
1.36729
21
0.820975
0
LINE
8
BLACK
6
CONTINUOUS
10
1.36729
20
0.820975
11
1.36728
21
0.821144
0
LINE
8
BLACK
6
CONTINUOUS
10
1.36728
20
0.821144
11
1.36778
21
0.821835
0
LINE
8
BLACK
6
CONTINUOUS
10
1.36778
20
0.821835
11
1.36821
21
0.822577
0
LINE
8
BLACK
6
CONTINUOUS
10
1.36821
20
0.822577
11
1.36837
21
0.822635
0
LINE
8
BLACK
6
CONTINUOUS
10
1.36837
20
0.822635
11
1.36847
21
0.822772
0
LINE
8
BLACK
6
CONTINUOUS
10
1.36847
20
0.822772
11
1.37385
21
0.826359
0
LINE
8
BLACK
6
CONTINUOUS
10
1.37385
20
0.826359
11
1.37706
21
0.829563
0
LINE
8
BLACK
6
CONTINUOUS
10
1.37706
20
0.829563
11
1.37872
21
0.832884
0
LINE
8
BLACK
6
CONTINUOUS
10
1.37872
20
0.832884
11
1.37933
21
0.833708
0
LINE
8
BLACK
6
CONTINUOUS
10
1.37933
20
0.833708
11
1.38118
21
0.834511
0
LINE
8
BLACK
6
CONTINUOUS
10
1.38118
20
0.834511
11
1.38312
21
0.833935
0
LINE
8
BLACK
6
CONTINUOUS
10
1.40986
20
0.871944
11
1.40999
21
0.871967
0
LINE
8
BLACK
6
CONTINUOUS
10
1.40999
20
0.871967
11
1.41011
21
0.871901
0
LINE
8
BLACK
6
CONTINUOUS
10
1.41011
20
0.871901
11
1.41049
21
0.871834
0
LINE
8
BLACK
6
CONTINUOUS
10
1.41049
20
0.871834
11
1.41108
21
0.87134
0
LINE
8
BLACK
6
CONTINUOUS
10
1.41108
20
0.87134
11
1.41174
21
0.870957
0
LINE
8
BLACK
6
CONTINUOUS
10
1.41174
20
0.870957
11
1.41183
21
0.870707
0
LINE
8
BLACK
6
CONTINUOUS
10
1.41183
20
0.870707
11
1.41204
21
0.870535
0
LINE
8
BLACK
6
CONTINUOUS
10
1.41204
20
0.870535
11
1.41217
21
0.86978
0
LINE
8
BLACK
6
CONTINUOUS
10
1.41217
20
0.86978
11
1.41243
21
0.869059
0
LINE
8
BLACK
6
CONTINUOUS
10
1.41243
20
0.869059
11
1.41243
21
0.859685
0
LINE
8
BLACK
6
CONTINUOUS
10
1.41243
20
0.859685
11
1.41228
21
0.858816
0
LINE
8
BLACK
6
CONTINUOUS
10
1.41228
20
0.858816
11
1.41228
21
0.858751
0
LINE
8
BLACK
6
CONTINUOUS
10
1.41228
20
0.858751
11
1.41041
21
0.853127
0
LINE
8
BLACK
6
CONTINUOUS
10
1.41041
20
0.853127
11
1.40992
21
0.852225
0
LINE
8
BLACK
6
CONTINUOUS
10
1.40992
20
0.852225
11
1.40977
21
0.852133
0
LINE
8
BLACK
6
CONTINUOUS
10
1.40977
20
0.852133
11
1.40969
21
0.851973
0
LINE
8
BLACK
6
CONTINUOUS
10
1.40969
20
0.851973
11
1.40594
21
0.848223
0
LINE
8
BLACK
6
CONTINUOUS
10
1.40594
20
0.848223
11
1.40522
21
0.847717
0
LINE
8
BLACK
6
CONTINUOUS
10
1.40522
20
0.847717
11
1.40518
21
0.84767
0
LINE
8
BLACK
6
CONTINUOUS
10
1.40518
20
0.84767
11
1.40143
21
0.845795
0
LINE
8
BLACK
6
CONTINUOUS
10
1.40143
20
0.845795
11
1.40094
21
0.84565
0
LINE
8
BLACK
6
CONTINUOUS
10
1.40094
20
0.84565
11
1.40082
21
0.845572
0
LINE
8
BLACK
6
CONTINUOUS
10
1.40082
20
0.845572
11
1.39332
21
0.843697
0
LINE
8
BLACK
6
CONTINUOUS
10
1.39332
20
0.843697
11
1.39274
21
0.843656
0
LINE
8
BLACK
6
CONTINUOUS
10
1.39274
20
0.843656
11
1.39261
21
0.843609
0
LINE
8
BLACK
6
CONTINUOUS
10
1.39261
20
0.843609
11
1.38698
21
0.843609
0
LINE
8
BLACK
6
CONTINUOUS
10
1.38698
20
0.843609
11
1.3864
21
0.843711
0
LINE
8
BLACK
6
CONTINUOUS
10
1.3864
20
0.843711
11
1.38627
21
0.843697
0
LINE
8
BLACK
6
CONTINUOUS
10
1.38627
20
0.843697
11
1.37877
21
0.845572
0
LINE
8
BLACK
6
CONTINUOUS
10
1.37877
20
0.845572
11
1.3783
21
0.845779
0
LINE
8
BLACK
6
CONTINUOUS
10
1.3783
20
0.845779
11
1.37816
21
0.845795
0
LINE
8
BLACK
6
CONTINUOUS
10
1.37816
20
0.845795
11
1.37441
21
0.84767
0
LINE
8
BLACK
6
CONTINUOUS
10
1.37441
20
0.84767
11
1.37371
21
0.848196
0
LINE
8
BLACK
6
CONTINUOUS
10
1.37371
20
0.848196
11
1.37365
21
0.848223
0
LINE
8
BLACK
6
CONTINUOUS
10
1.37365
20
0.848223
11
1.3699
21
0.851973
0
LINE
8
BLACK
6
CONTINUOUS
10
1.3699
20
0.851973
11
1.36931
21
0.852813
0
LINE
8
BLACK
6
CONTINUOUS
10
1.36931
20
0.852813
11
1.36929
21
0.852989
0
LINE
8
BLACK
6
CONTINUOUS
10
1.36929
20
0.852989
11
1.36918
21
0.853127
0
LINE
8
BLACK
6
CONTINUOUS
10
1.36918
20
0.853127
11
1.36731
21
0.858751
0
LINE
8
BLACK
6
CONTINUOUS
10
1.36731
20
0.858751
11
1.36718
21
0.859624
0
LINE
8
BLACK
6
CONTINUOUS
10
1.36718
20
0.859624
11
1.36716
21
0.859685
0
LINE
8
BLACK
6
CONTINUOUS
10
1.36716
20
0.859685
11
1.36716
21
0.869059
0
LINE
8
BLACK
6
CONTINUOUS
10
1.36716
20
0.869059
11
1.36723
21
0.869442
0
LINE
8
BLACK
6
CONTINUOUS
10
1.36723
20
0.869442
11
1.3672
21
0.869572
0
LINE
8
BLACK
6
CONTINUOUS
10
1.3672
20
0.869572
11
1.36727
21
0.869685
0
LINE
8
BLACK
6
CONTINUOUS
10
1.36727
20
0.869685
11
1.36734
21
0.870069
0
LINE
8
BLACK
6
CONTINUOUS
10
1.36734
20
0.870069
11
1.36783
21
0.870656
0
LINE
8
BLACK
6
CONTINUOUS
10
1.36783
20
0.870656
11
1.36821
21
0.871321
0
LINE
8
BLACK
6
CONTINUOUS
10
1.36821
20
0.871321
11
1.36846
21
0.871412
0
LINE
8
BLACK
6
CONTINUOUS
10
1.36846
20
0.871412
11
1.36863
21
0.871616
0
LINE
8
BLACK
6
CONTINUOUS
10
1.36863
20
0.871616
11
1.36939
21
0.871749
0
LINE
8
BLACK
6
CONTINUOUS
10
1.36939
20
0.871749
11
1.37011
21
0.872012
0
LINE
8
BLACK
6
CONTINUOUS
10
1.37011
20
0.872012
11
1.40948
21
0.872012
0
LINE
8
BLACK
6
CONTINUOUS
10
1.40948
20
0.872012
11
1.40986
21
0.871944
0
LINE
8
BLACK
6
CONTINUOUS
10
1.37306
20
0.860164
11
1.37457
21
0.855656
0
LINE
8
BLACK
6
CONTINUOUS
10
1.37457
20
0.855656
11
1.37748
21
0.852738
0
LINE
8
BLACK
6
CONTINUOUS
10
1.37748
20
0.852738
11
1.38052
21
0.851222
0
LINE
8
BLACK
6
CONTINUOUS
10
1.38052
20
0.851222
11
1.38735
21
0.849514
0
LINE
8
BLACK
6
CONTINUOUS
10
1.38735
20
0.849514
11
1.39224
21
0.849514
0
LINE
8
BLACK
6
CONTINUOUS
10
1.39224
20
0.849514
11
1.39908
21
0.851222
0
LINE
8
BLACK
6
CONTINUOUS
10
1.39908
20
0.851222
11
1.40211
21
0.852738
0
LINE
8
BLACK
6
CONTINUOUS
10
1.40211
20
0.852738
11
1.40503
21
0.855656
0
LINE
8
BLACK
6
CONTINUOUS
10
1.40503
20
0.855656
11
1.40653
21
0.860164
0
LINE
8
BLACK
6
CONTINUOUS
10
1.40653
20
0.860164
11
1.40653
21
0.866106
0
LINE
8
BLACK
6
CONTINUOUS
10
1.40653
20
0.866106
11
1.37306
21
0.866106
0
LINE
8
BLACK
6
CONTINUOUS
10
1.37306
20
0.866106
11
1.37306
21
0.860164
0
LINE
8
BLACK
6
CONTINUOUS
10
0.966328
20
0.86883
11
0.966458
21
0.868853
0
LINE
8
BLACK
6
CONTINUOUS
10
0.966458
20
0.868853
11
0.966571
21
0.868787
0
LINE
8
BLACK
6
CONTINUOUS
10
0.966571
20
0.868787
11
0.966955
21
0.86872
0
LINE
8
BLACK
6
CONTINUOUS
10
0.966955
20
0.86872
11
0.967542
21
0.868226
0
LINE
8
BLACK
6
CONTINUOUS
10
0.967542
20
0.868226
11
0.968207
21
0.867843
0
LINE
8
BLACK
6
CONTINUOUS
10
0.968207
20
0.867843
11
0.968298
21
0.867593
0
LINE
8
BLACK
6
CONTINUOUS
10
0.968298
20
0.867593
11
0.968502
21
0.867421
0
LINE
8
BLACK
6
CONTINUOUS
10
0.968502
20
0.867421
11
0.968635
21
0.866666
0
LINE
8
BLACK
6
CONTINUOUS
10
0.968635
20
0.866666
11
0.968898
21
0.865945
0
LINE
8
BLACK
6
CONTINUOUS
10
0.968898
20
0.865945
11
0.968898
21
0.860039
0
LINE
8
BLACK
6
CONTINUOUS
10
0.968898
20
0.860039
11
1.01417
21
0.860039
0
LINE
8
BLACK
6
CONTINUOUS
10
1.01417
20
0.860039
11
1.01518
21
0.859861
0
LINE
8
BLACK
6
CONTINUOUS
10
1.01518
20
0.859861
11
1.01673
21
0.858563
0
LINE
8
BLACK
6
CONTINUOUS
10
1.01673
20
0.858563
11
1.01708
21
0.856574
0
LINE
8
BLACK
6
CONTINUOUS
10
1.01708
20
0.856574
11
1.01607
21
0.854825
0
LINE
8
BLACK
6
CONTINUOUS
10
1.01607
20
0.854825
11
1.01417
21
0.854134
0
LINE
8
BLACK
6
CONTINUOUS
10
1.01417
20
0.854134
11
0.965945
21
0.854134
0
LINE
8
BLACK
6
CONTINUOUS
10
0.965945
20
0.854134
11
0.965561
21
0.854201
0
LINE
8
BLACK
6
CONTINUOUS
10
0.965561
20
0.854201
11
0.965432
21
0.854179
0
LINE
8
BLACK
6
CONTINUOUS
10
0.965432
20
0.854179
11
0.965319
21
0.854244
0
LINE
8
BLACK
6
CONTINUOUS
10
0.965319
20
0.854244
11
0.964935
21
0.854312
0
LINE
8
BLACK
6
CONTINUOUS
10
0.964935
20
0.854312
11
0.964347
21
0.854805
0
LINE
8
BLACK
6
CONTINUOUS
10
0.964347
20
0.854805
11
0.963683
21
0.855189
0
LINE
8
BLACK
6
CONTINUOUS
10
0.963683
20
0.855189
11
0.963592
21
0.855439
0
LINE
8
BLACK
6
CONTINUOUS
10
0.963592
20
0.855439
11
0.963388
21
0.85561
0
LINE
8
BLACK
6
CONTINUOUS
10
0.963388
20
0.85561
11
0.963254
21
0.856366
0
LINE
8
BLACK
6
CONTINUOUS
10
0.963254
20
0.856366
11
0.962992
21
0.857087
0
LINE
8
BLACK
6
CONTINUOUS
10
0.962992
20
0.857087
11
0.962992
21
0.862992
0
LINE
8
BLACK
6
CONTINUOUS
10
0.962992
20
0.862992
11
0.837008
21
0.862992
0
LINE
8
BLACK
6
CONTINUOUS
10
0.837008
20
0.862992
11
0.837008
21
0.854134
0
LINE
8
BLACK
6
CONTINUOUS
10
0.837008
20
0.854134
11
0.83683
21
0.853124
0
LINE
8
BLACK
6
CONTINUOUS
10
0.83683
20
0.853124
11
0.835531
21
0.851577
0
LINE
8
BLACK
6
CONTINUOUS
10
0.835531
20
0.851577
11
0.833542
21
0.851226
0
LINE
8
BLACK
6
CONTINUOUS
10
0.833542
20
0.851226
11
0.831793
21
0.852236
0
LINE
8
BLACK
6
CONTINUOUS
10
0.831793
20
0.852236
11
0.831102
21
0.854134
0
LINE
8
BLACK
6
CONTINUOUS
10
0.831102
20
0.854134
11
0.831102
21
0.865945
0
LINE
8
BLACK
6
CONTINUOUS
10
0.831102
20
0.865945
11
0.83117
21
0.866328
0
LINE
8
BLACK
6
CONTINUOUS
10
0.83117
20
0.866328
11
0.831147
21
0.866458
0
LINE
8
BLACK
6
CONTINUOUS
10
0.831147
20
0.866458
11
0.831213
21
0.866571
0
LINE
8
BLACK
6
CONTINUOUS
10
0.831213
20
0.866571
11
0.83128
21
0.866955
0
LINE
8
BLACK
6
CONTINUOUS
10
0.83128
20
0.866955
11
0.831774
21
0.867543
0
LINE
8
BLACK
6
CONTINUOUS
10
0.831774
20
0.867543
11
0.832157
21
0.868207
0
LINE
8
BLACK
6
CONTINUOUS
10
0.832157
20
0.868207
11
0.832407
21
0.868298
0
LINE
8
BLACK
6
CONTINUOUS
10
0.832407
20
0.868298
11
0.832579
21
0.868502
0
LINE
8
BLACK
6
CONTINUOUS
10
0.832579
20
0.868502
11
0.833334
21
0.868635
0
LINE
8
BLACK
6
CONTINUOUS
10
0.833334
20
0.868635
11
0.834055
21
0.868898
0
LINE
8
BLACK
6
CONTINUOUS
10
0.834055
20
0.868898
11
0.965945
21
0.868898
0
LINE
8
BLACK
6
CONTINUOUS
10
0.965945
20
0.868898
11
0.966328
21
0.86883
0
LINE
8
BLACK
6
CONTINUOUS
10
0.880037
20
0.926649
11
0.880207
21
0.92666
0
LINE
8
BLACK
6
CONTINUOUS
10
0.880207
20
0.92666
11
0.880897
21
0.926153
0
LINE
8
BLACK
6
CONTINUOUS
10
0.880897
20
0.926153
11
0.881639
21
0.925724
0
LINE
8
BLACK
6
CONTINUOUS
10
0.881639
20
0.925724
11
0.881698
21
0.925565
0
LINE
8
BLACK
6
CONTINUOUS
10
0.881698
20
0.925565
11
0.881834
21
0.925464
0
LINE
8
BLACK
6
CONTINUOUS
10
0.881834
20
0.925464
11
0.885422
21
0.920083
0
LINE
8
BLACK
6
CONTINUOUS
10
0.885422
20
0.920083
11
0.888626
21
0.916879
0
LINE
8
BLACK
6
CONTINUOUS
10
0.888626
20
0.916879
11
0.891947
21
0.915218
0
LINE
8
BLACK
6
CONTINUOUS
10
0.891947
20
0.915218
11
0.89277
21
0.914608
0
LINE
8
BLACK
6
CONTINUOUS
10
0.89277
20
0.914608
11
0.893574
21
0.912754
0
LINE
8
BLACK
6
CONTINUOUS
10
0.893574
20
0.912754
11
0.892998
21
0.910818
0
LINE
8
BLACK
6
CONTINUOUS
10
0.892998
20
0.910818
11
0.891312
21
0.909706
0
LINE
8
BLACK
6
CONTINUOUS
10
0.891312
20
0.909706
11
0.889306
21
0.909936
0
LINE
8
BLACK
6
CONTINUOUS
10
0.889306
20
0.909936
11
0.885556
21
0.911811
0
LINE
8
BLACK
6
CONTINUOUS
10
0.885556
20
0.911811
11
0.884847
21
0.912337
0
LINE
8
BLACK
6
CONTINUOUS
10
0.884847
20
0.912337
11
0.884789
21
0.912364
0
LINE
8
BLACK
6
CONTINUOUS
10
0.884789
20
0.912364
11
0.88233
21
0.914823
0
LINE
8
BLACK
6
CONTINUOUS
10
0.88233
20
0.914823
11
0.88233
21
0.887409
0
LINE
8
BLACK
6
CONTINUOUS
10
0.88233
20
0.887409
11
0.890626
21
0.887409
0
LINE
8
BLACK
6
CONTINUOUS
10
0.890626
20
0.887409
11
0.891636
21
0.887231
0
LINE
8
BLACK
6
CONTINUOUS
10
0.891636
20
0.887231
11
0.893183
21
0.885932
0
LINE
8
BLACK
6
CONTINUOUS
10
0.893183
20
0.885932
11
0.893534
21
0.883943
0
LINE
8
BLACK
6
CONTINUOUS
10
0.893534
20
0.883943
11
0.892524
21
0.882194
0
LINE
8
BLACK
6
CONTINUOUS
10
0.892524
20
0.882194
11
0.890626
21
0.881503
0
LINE
8
BLACK
6
CONTINUOUS
10
0.890626
20
0.881503
11
0.868129
21
0.881503
0
LINE
8
BLACK
6
CONTINUOUS
10
0.868129
20
0.881503
11
0.867119
21
0.881681
0
LINE
8
BLACK
6
CONTINUOUS
10
0.867119
20
0.881681
11
0.865572
21
0.88298
0
LINE
8
BLACK
6
CONTINUOUS
10
0.865572
20
0.88298
11
0.865221
21
0.884969
0
LINE
8
BLACK
6
CONTINUOUS
10
0.865221
20
0.884969
11
0.866231
21
0.886718
0
LINE
8
BLACK
6
CONTINUOUS
10
0.866231
20
0.886718
11
0.868129
21
0.887409
0
LINE
8
BLACK
6
CONTINUOUS
10
0.868129
20
0.887409
11
0.876425
21
0.887409
0
LINE
8
BLACK
6
CONTINUOUS
10
0.876425
20
0.887409
11
0.876425
21
0.923826
0
LINE
8
BLACK
6
CONTINUOUS
10
0.876425
20
0.923826
11
0.876603
21
0.924836
0
LINE
8
BLACK
6
CONTINUOUS
10
0.876603
20
0.924836
11
0.876712
21
0.924966
0
LINE
8
BLACK
6
CONTINUOUS
10
0.876712
20
0.924966
11
0.876731
21
0.925135
0
LINE
8
BLACK
6
CONTINUOUS
10
0.876731
20
0.925135
11
0.87735
21
0.925727
0
LINE
8
BLACK
6
CONTINUOUS
10
0.87735
20
0.925727
11
0.877901
21
0.926383
0
LINE
8
BLACK
6
CONTINUOUS
10
0.877901
20
0.926383
11
0.878068
21
0.926413
0
LINE
8
BLACK
6
CONTINUOUS
10
0.878068
20
0.926413
11
0.878191
21
0.92653
0
LINE
8
BLACK
6
CONTINUOUS
10
0.878191
20
0.92653
11
0.879046
21
0.926585
0
LINE
8
BLACK
6
CONTINUOUS
10
0.879046
20
0.926585
11
0.87989
21
0.926734
0
LINE
8
BLACK
6
CONTINUOUS
10
0.87989
20
0.926734
11
0.880037
21
0.926649
0
LINE
8
BLACK
6
CONTINUOUS
10
0.932258
20
0.925724
11
0.932949
21
0.923826
0
LINE
8
BLACK
6
CONTINUOUS
10
0.932949
20
0.923826
11
0.932949
21
0.891955
0
LINE
8
BLACK
6
CONTINUOUS
10
0.932949
20
0.891955
11
0.932771
21
0.890945
0
LINE
8
BLACK
6
CONTINUOUS
10
0.932771
20
0.890945
11
0.932657
21
0.89081
0
LINE
8
BLACK
6
CONTINUOUS
10
0.932657
20
0.89081
11
0.932637
21
0.890635
0
LINE
8
BLACK
6
CONTINUOUS
10
0.932637
20
0.890635
11
0.930762
21
0.886885
0
LINE
8
BLACK
6
CONTINUOUS
10
0.930762
20
0.886885
11
0.930237
21
0.886176
0
LINE
8
BLACK
6
CONTINUOUS
10
0.930237
20
0.886176
11
0.930209
21
0.886118
0
LINE
8
BLACK
6
CONTINUOUS
10
0.930209
20
0.886118
11
0.928335
21
0.884243
0
LINE
8
BLACK
6
CONTINUOUS
10
0.928335
20
0.884243
11
0.927611
21
0.883736
0
LINE
8
BLACK
6
CONTINUOUS
10
0.927611
20
0.883736
11
0.927567
21
0.88369
0
LINE
8
BLACK
6
CONTINUOUS
10
0.927567
20
0.88369
11
0.923818
21
0.881815
0
LINE
8
BLACK
6
CONTINUOUS
10
0.923818
20
0.881815
11
0.922835
21
0.881523
0
LINE
8
BLACK
6
CONTINUOUS
10
0.922835
20
0.881523
11
0.922663
21
0.881564
0
LINE
8
BLACK
6
CONTINUOUS
10
0.922663
20
0.881564
11
0.922497
21
0.881503
0
LINE
8
BLACK
6
CONTINUOUS
10
0.922497
20
0.881503
11
0.914998
21
0.881503
0
LINE
8
BLACK
6
CONTINUOUS
10
0.914998
20
0.881503
11
0.913988
21
0.881681
0
LINE
8
BLACK
6
CONTINUOUS
10
0.913988
20
0.881681
11
0.913853
21
0.881795
0
LINE
8
BLACK
6
CONTINUOUS
10
0.913853
20
0.881795
11
0.913678
21
0.881815
0
LINE
8
BLACK
6
CONTINUOUS
10
0.913678
20
0.881815
11
0.909928
21
0.88369
0
LINE
8
BLACK
6
CONTINUOUS
10
0.909928
20
0.88369
11
0.909219
21
0.884216
0
LINE
8
BLACK
6
CONTINUOUS
10
0.909219
20
0.884216
11
0.909161
21
0.884243
0
LINE
8
BLACK
6
CONTINUOUS
10
0.909161
20
0.884243
11
0.907286
21
0.886118
0
LINE
8
BLACK
6
CONTINUOUS
10
0.907286
20
0.886118
11
0.90678
21
0.886841
0
LINE
8
BLACK
6
CONTINUOUS
10
0.90678
20
0.886841
11
0.906733
21
0.886885
0
LINE
8
BLACK
6
CONTINUOUS
10
0.906733
20
0.886885
11
0.904858
21
0.890635
0
LINE
8
BLACK
6
CONTINUOUS
10
0.904858
20
0.890635
11
0.904566
21
0.891617
0
LINE
8
BLACK
6
CONTINUOUS
10
0.904566
20
0.891617
11
0.904607
21
0.891789
0
LINE
8
BLACK
6
CONTINUOUS
10
0.904607
20
0.891789
11
0.904546
21
0.891955
0
LINE
8
BLACK
6
CONTINUOUS
10
0.904546
20
0.891955
11
0.904546
21
0.923826
0
LINE
8
BLACK
6
CONTINUOUS
10
0.904546
20
0.923826
11
0.904724
21
0.924836
0
LINE
8
BLACK
6
CONTINUOUS
10
0.904724
20
0.924836
11
0.906023
21
0.926383
0
LINE
8
BLACK
6
CONTINUOUS
10
0.906023
20
0.926383
11
0.908012
21
0.926734
0
LINE
8
BLACK
6
CONTINUOUS
10
0.908012
20
0.926734
11
0.909761
21
0.925724
0
LINE
8
BLACK
6
CONTINUOUS
10
0.909761
20
0.925724
11
0.910452
21
0.923826
0
LINE
8
BLACK
6
CONTINUOUS
10
0.910452
20
0.923826
11
0.910452
21
0.892652
0
LINE
8
BLACK
6
CONTINUOUS
10
0.910452
20
0.892652
11
0.911801
21
0.889955
0
LINE
8
BLACK
6
CONTINUOUS
10
0.911801
20
0.889955
11
0.912998
21
0.888757
0
LINE
8
BLACK
6
CONTINUOUS
10
0.912998
20
0.888757
11
0.915695
21
0.887409
0
LINE
8
BLACK
6
CONTINUOUS
10
0.915695
20
0.887409
11
0.9218
21
0.887409
0
LINE
8
BLACK
6
CONTINUOUS
10
0.9218
20
0.887409
11
0.924498
21
0.888757
0
LINE
8
BLACK
6
CONTINUOUS
10
0.924498
20
0.888757
11
0.925695
21
0.889955
0
LINE
8
BLACK
6
CONTINUOUS
10
0.925695
20
0.889955
11
0.927043
21
0.892652
0
LINE
8
BLACK
6
CONTINUOUS
10
0.927043
20
0.892652
11
0.927043
21
0.923826
0
LINE
8
BLACK
6
CONTINUOUS
10
0.927043
20
0.923826
11
0.927222
21
0.924836
0
LINE
8
BLACK
6
CONTINUOUS
10
0.927222
20
0.924836
11
0.92852
21
0.926383
0
LINE
8
BLACK
6
CONTINUOUS
10
0.92852
20
0.926383
11
0.930509
21
0.926734
0
LINE
8
BLACK
6
CONTINUOUS
10
0.930509
20
0.926734
11
0.932258
21
0.925724
0
LINE
8
BLACK
6
CONTINUOUS
10
1.18239
20
1.11628
11
1.18253
21
1.11629
0
LINE
8
BLACK
6
CONTINUOUS
10
1.18253
20
1.11629
11
1.18326
21
1.11578
0
LINE
8
BLACK
6
CONTINUOUS
10
1.18326
20
1.11578
11
1.18403
21
1.11534
0
LINE
8
BLACK
6
CONTINUOUS
10
1.18403
20
1.11534
11
1.18407
21
1.11521
0
LINE
8
BLACK
6
CONTINUOUS
10
1.18407
20
1.11521
11
1.18418
21
1.11513
0
LINE
8
BLACK
6
CONTINUOUS
10
1.18418
20
1.11513
11
1.18441
21
1.11427
0
LINE
8
BLACK
6
CONTINUOUS
10
1.18441
20
1.11427
11
1.18472
21
1.11344
0
LINE
8
BLACK
6
CONTINUOUS
10
1.18472
20
1.11344
11
1.18472
21
1.08907
0
LINE
8
BLACK
6
CONTINUOUS
10
1.18472
20
1.08907
11
1.18454
21
1.08806
0
LINE
8
BLACK
6
CONTINUOUS
10
1.18454
20
1.08806
11
1.18324
21
1.08651
0
LINE
8
BLACK
6
CONTINUOUS
10
1.18324
20
1.08651
11
1.18125
21
1.08616
0
LINE
8
BLACK
6
CONTINUOUS
10
1.18125
20
1.08616
11
1.1795
21
1.08717
0
LINE
8
BLACK
6
CONTINUOUS
10
1.1795
20
1.08717
11
1.17881
21
1.08907
0
LINE
8
BLACK
6
CONTINUOUS
10
1.17881
20
1.08907
11
1.17881
21
1.10631
0
LINE
8
BLACK
6
CONTINUOUS
10
1.17881
20
1.10631
11
1.16136
21
1.08885
0
LINE
8
BLACK
6
CONTINUOUS
10
1.16136
20
1.08885
11
1.16052
21
1.08827
0
LINE
8
BLACK
6
CONTINUOUS
10
1.16052
20
1.08827
11
1.16034
21
1.08825
0
LINE
8
BLACK
6
CONTINUOUS
10
1.16034
20
1.08825
11
1.1602
21
1.08814
0
LINE
8
BLACK
6
CONTINUOUS
10
1.1602
20
1.08814
11
1.15458
21
1.08627
0
LINE
8
BLACK
6
CONTINUOUS
10
1.15458
20
1.08627
11
1.1537
21
1.08614
0
LINE
8
BLACK
6
CONTINUOUS
10
1.1537
20
1.08614
11
1.15364
21
1.08611
0
LINE
8
BLACK
6
CONTINUOUS
10
1.15364
20
1.08611
11
1.14989
21
1.08611
0
LINE
8
BLACK
6
CONTINUOUS
10
1.14989
20
1.08611
11
1.14888
21
1.08629
0
LINE
8
BLACK
6
CONTINUOUS
10
1.14888
20
1.08629
11
1.14875
21
1.08641
0
LINE
8
BLACK
6
CONTINUOUS
10
1.14875
20
1.08641
11
1.14857
21
1.08643
0
LINE
8
BLACK
6
CONTINUOUS
10
1.14857
20
1.08643
11
1.14482
21
1.0883
0
LINE
8
BLACK
6
CONTINUOUS
10
1.14482
20
1.0883
11
1.14411
21
1.08883
0
LINE
8
BLACK
6
CONTINUOUS
10
1.14411
20
1.08883
11
1.14406
21
1.08885
0
LINE
8
BLACK
6
CONTINUOUS
10
1.14406
20
1.08885
11
1.14218
21
1.09073
0
LINE
8
BLACK
6
CONTINUOUS
10
1.14218
20
1.09073
11
1.14167
21
1.09145
0
LINE
8
BLACK
6
CONTINUOUS
10
1.14167
20
1.09145
11
1.14163
21
1.0915
0
LINE
8
BLACK
6
CONTINUOUS
10
1.14163
20
1.0915
11
1.13975
21
1.09524
0
LINE
8
BLACK
6
CONTINUOUS
10
1.13975
20
1.09524
11
1.13946
21
1.09623
0
LINE
8
BLACK
6
CONTINUOUS
10
1.13946
20
1.09623
11
1.1395
21
1.0964
0
LINE
8
BLACK
6
CONTINUOUS
10
1.1395
20
1.0964
11
1.13944
21
1.09657
0
LINE
8
BLACK
6
CONTINUOUS
10
1.13944
20
1.09657
11
1.13944
21
1.10594
0
LINE
8
BLACK
6
CONTINUOUS
10
1.13944
20
1.10594
11
1.13962
21
1.10695
0
LINE
8
BLACK
6
CONTINUOUS
10
1.13962
20
1.10695
11
1.13973
21
1.10708
0
LINE
8
BLACK
6
CONTINUOUS
10
1.13973
20
1.10708
11
1.13975
21
1.10726
0
LINE
8
BLACK
6
CONTINUOUS
10
1.13975
20
1.10726
11
1.14163
21
1.11101
0
LINE
8
BLACK
6
CONTINUOUS
10
1.14163
20
1.11101
11
1.14215
21
1.11172
0
LINE
8
BLACK
6
CONTINUOUS
10
1.14215
20
1.11172
11
1.14218
21
1.11178
0
LINE
8
BLACK
6
CONTINUOUS
10
1.14218
20
1.11178
11
1.14406
21
1.11365
0
LINE
8
BLACK
6
CONTINUOUS
10
1.14406
20
1.11365
11
1.1449
21
1.11424
0
LINE
8
BLACK
6
CONTINUOUS
10
1.1449
20
1.11424
11
1.14691
21
1.11442
0
LINE
8
BLACK
6
CONTINUOUS
10
1.14691
20
1.11442
11
1.14856
21
1.11326
0
LINE
8
BLACK
6
CONTINUOUS
10
1.14856
20
1.11326
11
1.14909
21
1.11131
0
LINE
8
BLACK
6
CONTINUOUS
10
1.14909
20
1.11131
11
1.14823
21
1.10948
0
LINE
8
BLACK
6
CONTINUOUS
10
1.14823
20
1.10948
11
1.1467
21
1.10794
0
LINE
8
BLACK
6
CONTINUOUS
10
1.1467
20
1.10794
11
1.14535
21
1.10524
0
LINE
8
BLACK
6
CONTINUOUS
10
1.14535
20
1.10524
11
1.14535
21
1.09726
0
LINE
8
BLACK
6
CONTINUOUS
10
1.14535
20
1.09726
11
1.1467
21
1.09457
0
LINE
8
BLACK
6
CONTINUOUS
10
1.1467
20
1.09457
11
1.14789
21
1.09337
0
LINE
8
BLACK
6
CONTINUOUS
10
1.14789
20
1.09337
11
1.15059
21
1.09202
0
LINE
8
BLACK
6
CONTINUOUS
10
1.15059
20
1.09202
11
1.15316
21
1.09202
0
LINE
8
BLACK
6
CONTINUOUS
10
1.15316
20
1.09202
11
1.15767
21
1.09352
0
LINE
8
BLACK
6
CONTINUOUS
10
1.15767
20
1.09352
11
1.17968
21
1.11553
0
LINE
8
BLACK
6
CONTINUOUS
10
1.17968
20
1.11553
11
1.1802
21
1.1159
0
LINE
8
BLACK
6
CONTINUOUS
10
1.1802
20
1.1159
11
1.18029
21
1.116
0
LINE
8
BLACK
6
CONTINUOUS
10
1.18029
20
1.116
11
1.18037
21
1.11601
0
LINE
8
BLACK
6
CONTINUOUS
10
1.18037
20
1.11601
11
1.18052
21
1.11611
0
LINE
8
BLACK
6
CONTINUOUS
10
1.18052
20
1.11611
11
1.1814
21
1.11619
0
LINE
8
BLACK
6
CONTINUOUS
10
1.1814
20
1.11619
11
1.18228
21
1.11635
0
LINE
8
BLACK
6
CONTINUOUS
10
1.18228
20
1.11635
11
1.18239
21
1.11628
0
LINE
8
BLACK
6
CONTINUOUS
10
1.20273
20
1.13196
11
1.20343
21
1.13029
0
LINE
8
BLACK
6
CONTINUOUS
10
1.20343
20
1.13029
11
1.20343
21
1.10971
0
LINE
8
BLACK
6
CONTINUOUS
10
1.20343
20
1.10971
11
1.20273
21
1.10804
0
LINE
8
BLACK
6
CONTINUOUS
10
1.20273
20
1.10804
11
1.20106
21
1.10735
0
LINE
8
BLACK
6
CONTINUOUS
10
1.20106
20
1.10735
11
1.19939
21
1.10804
0
LINE
8
BLACK
6
CONTINUOUS
10
1.19939
20
1.10804
11
1.1987
21
1.10971
0
LINE
8
BLACK
6
CONTINUOUS
10
1.1987
20
1.10971
11
1.1987
21
1.13029
0
LINE
8
BLACK
6
CONTINUOUS
10
1.1987
20
1.13029
11
1.19939
21
1.13196
0
LINE
8
BLACK
6
CONTINUOUS
10
1.19939
20
1.13196
11
1.20106
21
1.13265
0
LINE
8
BLACK
6
CONTINUOUS
10
1.20106
20
1.13265
11
1.20273
21
1.13196
0
LINE
8
BLACK
6
CONTINUOUS
10
1.26061
20
1.13196
11
1.2613
21
1.13029
0
LINE
8
BLACK
6
CONTINUOUS
10
1.2613
20
1.13029
11
1.2613
21
1.10971
0
LINE
8
BLACK
6
CONTINUOUS
10
1.2613
20
1.10971
11
1.26061
21
1.10804
0
LINE
8
BLACK
6
CONTINUOUS
10
1.26061
20
1.10804
11
1.25894
21
1.10735
0
LINE
8
BLACK
6
CONTINUOUS
10
1.25894
20
1.10735
11
1.25727
21
1.10804
0
LINE
8
BLACK
6
CONTINUOUS
10
1.25727
20
1.10804
11
1.25657
21
1.10971
0
LINE
8
BLACK
6
CONTINUOUS
10
1.25657
20
1.10971
11
1.25657
21
1.13029
0
LINE
8
BLACK
6
CONTINUOUS
10
1.25657
20
1.13029
11
1.25727
21
1.13196
0
LINE
8
BLACK
6
CONTINUOUS
10
1.25727
20
1.13196
11
1.25894
21
1.13265
0
LINE
8
BLACK
6
CONTINUOUS
10
1.25894
20
1.13265
11
1.26061
21
1.13196
0
LINE
8
BLACK
6
CONTINUOUS
10
1.16547
20
1.15378
11
1.16561
21
1.1538
0
LINE
8
BLACK
6
CONTINUOUS
10
1.16561
20
1.1538
11
1.17311
21
1.15192
0
LINE
8
BLACK
6
CONTINUOUS
10
1.17311
20
1.15192
11
1.17357
21
1.15172
0
LINE
8
BLACK
6
CONTINUOUS
10
1.17357
20
1.15172
11
1.17371
21
1.1517
0
LINE
8
BLACK
6
CONTINUOUS
10
1.17371
20
1.1517
11
1.17746
21
1.14983
0
LINE
8
BLACK
6
CONTINUOUS
10
1.17746
20
1.14983
11
1.17817
21
1.1493
0
LINE
8
BLACK
6
CONTINUOUS
10
1.17817
20
1.1493
11
1.17823
21
1.14927
0
LINE
8
BLACK
6
CONTINUOUS
10
1.17823
20
1.14927
11
1.18198
21
1.14552
0
LINE
8
BLACK
6
CONTINUOUS
10
1.18198
20
1.14552
11
1.18257
21
1.14468
0
LINE
8
BLACK
6
CONTINUOUS
10
1.18257
20
1.14468
11
1.18258
21
1.14451
0
LINE
8
BLACK
6
CONTINUOUS
10
1.18258
20
1.14451
11
1.18269
21
1.14437
0
LINE
8
BLACK
6
CONTINUOUS
10
1.18269
20
1.14437
11
1.18457
21
1.13874
0
LINE
8
BLACK
6
CONTINUOUS
10
1.18457
20
1.13874
11
1.1847
21
1.13787
0
LINE
8
BLACK
6
CONTINUOUS
10
1.1847
20
1.13787
11
1.18472
21
1.13781
0
LINE
8
BLACK
6
CONTINUOUS
10
1.18472
20
1.13781
11
1.18472
21
1.13406
0
LINE
8
BLACK
6
CONTINUOUS
10
1.18472
20
1.13406
11
1.18456
21
1.13319
0
LINE
8
BLACK
6
CONTINUOUS
10
1.18456
20
1.13319
11
1.18457
21
1.13313
0
LINE
8
BLACK
6
CONTINUOUS
10
1.18457
20
1.13313
11
1.18269
21
1.1275
0
LINE
8
BLACK
6
CONTINUOUS
10
1.18269
20
1.1275
11
1.1822
21
1.1266
0
LINE
8
BLACK
6
CONTINUOUS
10
1.1822
20
1.1266
11
1.18205
21
1.12651
0
LINE
8
BLACK
6
CONTINUOUS
10
1.18205
20
1.12651
11
1.18198
21
1.12635
0
LINE
8
BLACK
6
CONTINUOUS
10
1.18198
20
1.12635
11
1.1801
21
1.12447
0
LINE
8
BLACK
6
CONTINUOUS
10
1.1801
20
1.12447
11
1.17926
21
1.12389
0
LINE
8
BLACK
6
CONTINUOUS
10
1.17926
20
1.12389
11
1.17725
21
1.12371
0
LINE
8
BLACK
6
CONTINUOUS
10
1.17725
20
1.12371
11
1.1756
21
1.12487
0
LINE
8
BLACK
6
CONTINUOUS
10
1.1756
20
1.12487
11
1.17507
21
1.12682
0
LINE
8
BLACK
6
CONTINUOUS
10
1.17507
20
1.12682
11
1.17593
21
1.12865
0
LINE
8
BLACK
6
CONTINUOUS
10
1.17593
20
1.12865
11
1.17731
21
1.13003
0
LINE
8
BLACK
6
CONTINUOUS
10
1.17731
20
1.13003
11
1.17881
21
1.13454
0
LINE
8
BLACK
6
CONTINUOUS
10
1.17881
20
1.13454
11
1.17881
21
1.13733
0
LINE
8
BLACK
6
CONTINUOUS
10
1.17881
20
1.13733
11
1.17731
21
1.14184
0
LINE
8
BLACK
6
CONTINUOUS
10
1.17731
20
1.14184
11
1.17439
21
1.14476
0
LINE
8
BLACK
6
CONTINUOUS
10
1.17439
20
1.14476
11
1.17136
21
1.14627
0
LINE
8
BLACK
6
CONTINUOUS
10
1.17136
20
1.14627
11
1.16453
21
1.14798
0
LINE
8
BLACK
6
CONTINUOUS
10
1.16453
20
1.14798
11
1.15963
21
1.14798
0
LINE
8
BLACK
6
CONTINUOUS
10
1.15963
20
1.14798
11
1.1528
21
1.14627
0
LINE
8
BLACK
6
CONTINUOUS
10
1.1528
20
1.14627
11
1.14977
21
1.14476
0
LINE
8
BLACK
6
CONTINUOUS
10
1.14977
20
1.14476
11
1.14685
21
1.14184
0
LINE
8
BLACK
6
CONTINUOUS
10
1.14685
20
1.14184
11
1.14535
21
1.13733
0
LINE
8
BLACK
6
CONTINUOUS
10
1.14535
20
1.13733
11
1.14535
21
1.13454
0
LINE
8
BLACK
6
CONTINUOUS
10
1.14535
20
1.13454
11
1.14685
21
1.13003
0
LINE
8
BLACK
6
CONTINUOUS
10
1.14685
20
1.13003
11
1.14823
21
1.12865
0
LINE
8
BLACK
6
CONTINUOUS
10
1.14823
20
1.12865
11
1.14882
21
1.12781
0
LINE
8
BLACK
6
CONTINUOUS
10
1.14882
20
1.12781
11
1.149
21
1.1258
0
LINE
8
BLACK
6
CONTINUOUS
10
1.149
20
1.1258
11
1.14784
21
1.12414
0
LINE
8
BLACK
6
CONTINUOUS
10
1.14784
20
1.12414
11
1.14589
21
1.12362
0
LINE
8
BLACK
6
CONTINUOUS
10
1.14589
20
1.12362
11
1.14406
21
1.12447
0
LINE
8
BLACK
6
CONTINUOUS
10
1.14406
20
1.12447
11
1.14218
21
1.12635
0
LINE
8
BLACK
6
CONTINUOUS
10
1.14218
20
1.12635
11
1.14159
21
1.12719
0
LINE
8
BLACK
6
CONTINUOUS
10
1.14159
20
1.12719
11
1.14158
21
1.12736
0
LINE
8
BLACK
6
CONTINUOUS
10
1.14158
20
1.12736
11
1.14147
21
1.1275
0
LINE
8
BLACK
6
CONTINUOUS
10
1.14147
20
1.1275
11
1.13959
21
1.13313
0
LINE
8
BLACK
6
CONTINUOUS
10
1.13959
20
1.13313
11
1.13946
21
1.134
0
LINE
8
BLACK
6
CONTINUOUS
10
1.13946
20
1.134
11
1.13944
21
1.13406
0
LINE
8
BLACK
6
CONTINUOUS
10
1.13944
20
1.13406
11
1.13944
21
1.13781
0
LINE
8
BLACK
6
CONTINUOUS
10
1.13944
20
1.13781
11
1.13959
21
1.13868
0
LINE
8
BLACK
6
CONTINUOUS
10
1.13959
20
1.13868
11
1.13959
21
1.13874
0
LINE
8
BLACK
6
CONTINUOUS
10
1.13959
20
1.13874
11
1.14147
21
1.14437
0
LINE
8
BLACK
6
CONTINUOUS
10
1.14147
20
1.14437
11
1.14196
21
1.14527
0
LINE
8
BLACK
6
CONTINUOUS
10
1.14196
20
1.14527
11
1.14211
21
1.14536
0
LINE
8
BLACK
6
CONTINUOUS
10
1.14211
20
1.14536
11
1.14218
21
1.14552
0
LINE
8
BLACK
6
CONTINUOUS
10
1.14218
20
1.14552
11
1.14593
21
1.14927
0
LINE
8
BLACK
6
CONTINUOUS
10
1.14593
20
1.14927
11
1.14665
21
1.14978
0
LINE
8
BLACK
6
CONTINUOUS
10
1.14665
20
1.14978
11
1.1467
21
1.14983
0
LINE
8
BLACK
6
CONTINUOUS
10
1.1467
20
1.14983
11
1.15045
21
1.1517
0
LINE
8
BLACK
6
CONTINUOUS
10
1.15045
20
1.1517
11
1.15094
21
1.15185
0
LINE
8
BLACK
6
CONTINUOUS
10
1.15094
20
1.15185
11
1.15105
21
1.15192
0
LINE
8
BLACK
6
CONTINUOUS
10
1.15105
20
1.15192
11
1.15855
21
1.1538
0
LINE
8
BLACK
6
CONTINUOUS
10
1.15855
20
1.1538
11
1.15914
21
1.15384
0
LINE
8
BLACK
6
CONTINUOUS
10
1.15914
20
1.15384
11
1.15927
21
1.15389
0
LINE
8
BLACK
6
CONTINUOUS
10
1.15927
20
1.15389
11
1.16489
21
1.15389
0
LINE
8
BLACK
6
CONTINUOUS
10
1.16489
20
1.15389
11
1.16547
21
1.15378
0
LINE
8
BLACK
6
CONTINUOUS
10
1.22396
20
1.37183
11
1.2255
21
1.37054
0
LINE
8
BLACK
6
CONTINUOUS
10
1.2255
20
1.37054
11
1.22585
21
1.36855
0
LINE
8
BLACK
6
CONTINUOUS
10
1.22585
20
1.36855
11
1.22484
21
1.3668
0
LINE
8
BLACK
6
CONTINUOUS
10
1.22484
20
1.3668
11
1.22295
21
1.36611
0
LINE
8
BLACK
6
CONTINUOUS
10
1.22295
20
1.36611
11
1.20715
21
1.36611
0
LINE
8
BLACK
6
CONTINUOUS
10
1.20715
20
1.36611
11
1.20715
21
1.36122
0
LINE
8
BLACK
6
CONTINUOUS
10
1.20715
20
1.36122
11
1.22464
21
1.34898
0
LINE
8
BLACK
6
CONTINUOUS
10
1.22464
20
1.34898
11
1.22536
21
1.34826
0
LINE
8
BLACK
6
CONTINUOUS
10
1.22536
20
1.34826
11
1.22589
21
1.3463
0
LINE
8
BLACK
6
CONTINUOUS
10
1.22589
20
1.3463
11
1.22503
21
1.34447
0
LINE
8
BLACK
6
CONTINUOUS
10
1.22503
20
1.34447
11
1.2232
21
1.34362
0
LINE
8
BLACK
6
CONTINUOUS
10
1.2232
20
1.34362
11
1.22125
21
1.34414
0
LINE
8
BLACK
6
CONTINUOUS
10
1.22125
20
1.34414
11
1.20714
21
1.35402
0
LINE
8
BLACK
6
CONTINUOUS
10
1.20714
20
1.35402
11
1.20697
21
1.35305
0
LINE
8
BLACK
6
CONTINUOUS
10
1.20697
20
1.35305
11
1.20686
21
1.35292
0
LINE
8
BLACK
6
CONTINUOUS
10
1.20686
20
1.35292
11
1.20684
21
1.35274
0
LINE
8
BLACK
6
CONTINUOUS
10
1.20684
20
1.35274
11
1.20496
21
1.34899
0
LINE
8
BLACK
6
CONTINUOUS
10
1.20496
20
1.34899
11
1.20444
21
1.34828
0
LINE
8
BLACK
6
CONTINUOUS
10
1.20444
20
1.34828
11
1.20441
21
1.34822
0
LINE
8
BLACK
6
CONTINUOUS
10
1.20441
20
1.34822
11
1.20254
21
1.34635
0
LINE
8
BLACK
6
CONTINUOUS
10
1.20254
20
1.34635
11
1.20181
21
1.34584
0
LINE
8
BLACK
6
CONTINUOUS
10
1.20181
20
1.34584
11
1.20177
21
1.3458
0
LINE
8
BLACK
6
CONTINUOUS
10
1.20177
20
1.3458
11
1.19802
21
1.34392
0
LINE
8
BLACK
6
CONTINUOUS
10
1.19802
20
1.34392
11
1.19704
21
1.34363
0
LINE
8
BLACK
6
CONTINUOUS
10
1.19704
20
1.34363
11
1.19686
21
1.34367
0
LINE
8
BLACK
6
CONTINUOUS
10
1.19686
20
1.34367
11
1.1967
21
1.34361
0
LINE
8
BLACK
6
CONTINUOUS
10
1.1967
20
1.34361
11
1.19107
21
1.34361
0
LINE
8
BLACK
6
CONTINUOUS
10
1.19107
20
1.34361
11
1.19006
21
1.34379
0
LINE
8
BLACK
6
CONTINUOUS
10
1.19006
20
1.34379
11
1.18993
21
1.3439
0
LINE
8
BLACK
6
CONTINUOUS
10
1.18993
20
1.3439
11
1.18975
21
1.34392
0
LINE
8
BLACK
6
CONTINUOUS
10
1.18975
20
1.34392
11
1.186
21
1.3458
0
LINE
8
BLACK
6
CONTINUOUS
10
1.186
20
1.3458
11
1.1853
21
1.34632
0
LINE
8
BLACK
6
CONTINUOUS
10
1.1853
20
1.34632
11
1.18524
21
1.34635
0
LINE
8
BLACK
6
CONTINUOUS
10
1.18524
20
1.34635
11
1.18516
21
1.34643
0
LINE
8
BLACK
6
CONTINUOUS
10
1.18516
20
1.34643
11
1.18516
21
1.33357
0
LINE
8
BLACK
6
CONTINUOUS
10
1.18516
20
1.33357
11
1.18524
21
1.33365
0
LINE
8
BLACK
6
CONTINUOUS
10
1.18524
20
1.33365
11
1.18608
21
1.33424
0
LINE
8
BLACK
6
CONTINUOUS
10
1.18608
20
1.33424
11
1.18809
21
1.33442
0
LINE
8
BLACK
6
CONTINUOUS
10
1.18809
20
1.33442
11
1.18974
21
1.33326
0
LINE
8
BLACK
6
CONTINUOUS
10
1.18974
20
1.33326
11
1.19027
21
1.33131
0
LINE
8
BLACK
6
CONTINUOUS
10
1.19027
20
1.33131
11
1.18941
21
1.32948
0
LINE
8
BLACK
6
CONTINUOUS
10
1.18941
20
1.32948
11
1.18788
21
1.32794
0
LINE
8
BLACK
6
CONTINUOUS
10
1.18788
20
1.32794
11
1.18653
21
1.32524
0
LINE
8
BLACK
6
CONTINUOUS
10
1.18653
20
1.32524
11
1.18653
21
1.31726
0
LINE
8
BLACK
6
CONTINUOUS
10
1.18653
20
1.31726
11
1.18788
21
1.31456
0
LINE
8
BLACK
6
CONTINUOUS
10
1.18788
20
1.31456
11
1.18907
21
1.31337
0
LINE
8
BLACK
6
CONTINUOUS
10
1.18907
20
1.31337
11
1.19177
21
1.31202
0
LINE
8
BLACK
6
CONTINUOUS
10
1.19177
20
1.31202
11
1.19434
21
1.31202
0
LINE
8
BLACK
6
CONTINUOUS
10
1.19434
20
1.31202
11
1.19885
21
1.31352
0
LINE
8
BLACK
6
CONTINUOUS
10
1.19885
20
1.31352
11
1.22086
21
1.33553
0
LINE
8
BLACK
6
CONTINUOUS
10
1.22086
20
1.33553
11
1.22139
21
1.3359
0
LINE
8
BLACK
6
CONTINUOUS
10
1.22139
20
1.3359
11
1.22147
21
1.336
0
LINE
8
BLACK
6
CONTINUOUS
10
1.22147
20
1.336
11
1.22155
21
1.33601
0
LINE
8
BLACK
6
CONTINUOUS
10
1.22155
20
1.33601
11
1.2217
21
1.33611
0
LINE
8
BLACK
6
CONTINUOUS
10
1.2217
20
1.33611
11
1.22258
21
1.33619
0
LINE
8
BLACK
6
CONTINUOUS
10
1.22258
20
1.33619
11
1.22346
21
1.33635
0
LINE
8
BLACK
6
CONTINUOUS
10
1.22346
20
1.33635
11
1.22358
21
1.33628
0
LINE
8
BLACK
6
CONTINUOUS
10
1.22358
20
1.33628
11
1.22371
21
1.33629
0
LINE
8
BLACK
6
CONTINUOUS
10
1.22371
20
1.33629
11
1.22444
21
1.33578
0
LINE
8
BLACK
6
CONTINUOUS
10
1.22444
20
1.33578
11
1.22521
21
1.33534
0
LINE
8
BLACK
6
CONTINUOUS
10
1.22521
20
1.33534
11
1.22525
21
1.33521
0
LINE
8
BLACK
6
CONTINUOUS
10
1.22525
20
1.33521
11
1.22536
21
1.33513
0
LINE
8
BLACK
6
CONTINUOUS
10
1.22536
20
1.33513
11
1.22559
21
1.33427
0
LINE
8
BLACK
6
CONTINUOUS
10
1.22559
20
1.33427
11
1.2259
21
1.33344
0
LINE
8
BLACK
6
CONTINUOUS
10
1.2259
20
1.33344
11
1.2259
21
1.30907
0
LINE
8
BLACK
6
CONTINUOUS
10
1.2259
20
1.30907
11
1.22572
21
1.30806
0
LINE
8
BLACK
6
CONTINUOUS
10
1.22572
20
1.30806
11
1.22442
21
1.30651
0
LINE
8
BLACK
6
CONTINUOUS
10
1.22442
20
1.30651
11
1.22243
21
1.30616
0
LINE
8
BLACK
6
CONTINUOUS
10
1.22243
20
1.30616
11
1.22068
21
1.30717
0
LINE
8
BLACK
6
CONTINUOUS
10
1.22068
20
1.30717
11
1.21999
21
1.30907
0
LINE
8
BLACK
6
CONTINUOUS
10
1.21999
20
1.30907
11
1.21999
21
1.32631
0
LINE
8
BLACK
6
CONTINUOUS
10
1.21999
20
1.32631
11
1.20254
21
1.30885
0
LINE
8
BLACK
6
CONTINUOUS
10
1.20254
20
1.30885
11
1.2017
21
1.30827
0
LINE
8
BLACK
6
CONTINUOUS
10
1.2017
20
1.30827
11
1.20152
21
1.30825
0
LINE
8
BLACK
6
CONTINUOUS
10
1.20152
20
1.30825
11
1.20138
21
1.30814
0
LINE
8
BLACK
6
CONTINUOUS
10
1.20138
20
1.30814
11
1.19576
21
1.30627
0
LINE
8
BLACK
6
CONTINUOUS
10
1.19576
20
1.30627
11
1.19488
21
1.30614
0
LINE
8
BLACK
6
CONTINUOUS
10
1.19488
20
1.30614
11
1.19482
21
1.30611
0
LINE
8
BLACK
6
CONTINUOUS
10
1.19482
20
1.30611
11
1.19107
21
1.30611
0
LINE
8
BLACK
6
CONTINUOUS
10
1.19107
20
1.30611
11
1.19006
21
1.30629
0
LINE
8
BLACK
6
CONTINUOUS
10
1.19006
20
1.30629
11
1.18993
21
1.30641
0
LINE
8
BLACK
6
CONTINUOUS
10
1.18993
20
1.30641
11
1.18975
21
1.30643
0
LINE
8
BLACK
6
CONTINUOUS
10
1.18975
20
1.30643
11
1.186
21
1.3083
0
LINE
8
BLACK
6
CONTINUOUS
10
1.186
20
1.3083
11
1.1853
21
1.30883
0
LINE
8
BLACK
6
CONTINUOUS
10
1.1853
20
1.30883
11
1.18524
21
1.30885
0
LINE
8
BLACK
6
CONTINUOUS
10
1.18524
20
1.30885
11
1.18336
21
1.31073
0
LINE
8
BLACK
6
CONTINUOUS
10
1.18336
20
1.31073
11
1.18286
21
1.31145
0
LINE
8
BLACK
6
CONTINUOUS
10
1.18286
20
1.31145
11
1.18281
21
1.3115
0
LINE
8
BLACK
6
CONTINUOUS
10
1.18281
20
1.3115
11
1.18093
21
1.31524
0
LINE
8
BLACK
6
CONTINUOUS
10
1.18093
20
1.31524
11
1.18064
21
1.31623
0
LINE
8
BLACK
6
CONTINUOUS
10
1.18064
20
1.31623
11
1.18068
21
1.3164
0
LINE
8
BLACK
6
CONTINUOUS
10
1.18068
20
1.3164
11
1.18062
21
1.31657
0
LINE
8
BLACK
6
CONTINUOUS
10
1.18062
20
1.31657
11
1.18062
21
1.32594
0
LINE
8
BLACK
6
CONTINUOUS
10
1.18062
20
1.32594
11
1.1808
21
1.32695
0
LINE
8
BLACK
6
CONTINUOUS
10
1.1808
20
1.32695
11
1.18091
21
1.32708
0
LINE
8
BLACK
6
CONTINUOUS
10
1.18091
20
1.32708
11
1.18093
21
1.32726
0
LINE
8
BLACK
6
CONTINUOUS
10
1.18093
20
1.32726
11
1.18185
21
1.32909
0
LINE
8
BLACK
6
CONTINUOUS
10
1.18185
20
1.32909
11
1.18112
21
1.32939
0
LINE
8
BLACK
6
CONTINUOUS
10
1.18112
20
1.32939
11
1.18043
21
1.33106
0
LINE
8
BLACK
6
CONTINUOUS
10
1.18043
20
1.33106
11
1.18043
21
1.34894
0
LINE
8
BLACK
6
CONTINUOUS
10
1.18043
20
1.34894
11
1.18112
21
1.35061
0
LINE
8
BLACK
6
CONTINUOUS
10
1.18112
20
1.35061
11
1.18185
21
1.35091
0
LINE
8
BLACK
6
CONTINUOUS
10
1.18185
20
1.35091
11
1.18093
21
1.35274
0
LINE
8
BLACK
6
CONTINUOUS
10
1.18093
20
1.35274
11
1.18064
21
1.35372
0
LINE
8
BLACK
6
CONTINUOUS
10
1.18064
20
1.35372
11
1.18068
21
1.35389
0
LINE
8
BLACK
6
CONTINUOUS
10
1.18068
20
1.35389
11
1.18062
21
1.35406
0
LINE
8
BLACK
6
CONTINUOUS
10
1.18062
20
1.35406
11
1.18062
21
1.36906
0
LINE
8
BLACK
6
CONTINUOUS
10
1.18062
20
1.36906
11
1.18069
21
1.36944
0
LINE
8
BLACK
6
CONTINUOUS
10
1.18069
20
1.36944
11
1.18067
21
1.36957
0
LINE
8
BLACK
6
CONTINUOUS
10
1.18067
20
1.36957
11
1.18073
21
1.36969
0
LINE
8
BLACK
6
CONTINUOUS
10
1.18073
20
1.36969
11
1.1808
21
1.37007
0
LINE
8
BLACK
6
CONTINUOUS
10
1.1808
20
1.37007
11
1.18129
21
1.37066
0
LINE
8
BLACK
6
CONTINUOUS
10
1.18129
20
1.37066
11
1.18168
21
1.37132
0
LINE
8
BLACK
6
CONTINUOUS
10
1.18168
20
1.37132
11
1.18193
21
1.37141
0
LINE
8
BLACK
6
CONTINUOUS
10
1.18193
20
1.37141
11
1.1821
21
1.37162
0
LINE
8
BLACK
6
CONTINUOUS
10
1.1821
20
1.37162
11
1.18285
21
1.37175
0
LINE
8
BLACK
6
CONTINUOUS
10
1.18285
20
1.37175
11
1.18358
21
1.37201
0
LINE
8
BLACK
6
CONTINUOUS
10
1.18358
20
1.37201
11
1.22295
21
1.37201
0
LINE
8
BLACK
6
CONTINUOUS
10
1.22295
20
1.37201
11
1.22396
21
1.37183
0
LINE
8
BLACK
6
CONTINUOUS
10
1.18653
20
1.35476
11
1.18788
21
1.35206
0
LINE
8
BLACK
6
CONTINUOUS
10
1.18788
20
1.35206
11
1.18907
21
1.35086
0
LINE
8
BLACK
6
CONTINUOUS
10
1.18907
20
1.35086
11
1.19177
21
1.34951
0
LINE
8
BLACK
6
CONTINUOUS
10
1.19177
20
1.34951
11
1.196
21
1.34951
0
LINE
8
BLACK
6
CONTINUOUS
10
1.196
20
1.34951
11
1.1987
21
1.35086
0
LINE
8
BLACK
6
CONTINUOUS
10
1.1987
20
1.35086
11
1.1999
21
1.35206
0
LINE
8
BLACK
6
CONTINUOUS
10
1.1999
20
1.35206
11
1.20125
21
1.35476
0
LINE
8
BLACK
6
CONTINUOUS
10
1.20125
20
1.35476
11
1.20125
21
1.36611
0
LINE
8
BLACK
6
CONTINUOUS
10
1.20125
20
1.36611
11
1.18653
21
1.36611
0
LINE
8
BLACK
6
CONTINUOUS
10
1.18653
20
1.36611
11
1.18653
21
1.35476
0
LINE
8
BLACK
6
CONTINUOUS
10
1.08044
20
1.33394
11
1.08155
21
1.33225
0
LINE
8
BLACK
6
CONTINUOUS
10
1.08155
20
1.33225
11
1.08132
21
1.33024
0
LINE
8
BLACK
6
CONTINUOUS
10
1.08132
20
1.33024
11
1.07945
21
1.32649
0
LINE
8
BLACK
6
CONTINUOUS
10
1.07945
20
1.32649
11
1.07892
21
1.32578
0
LINE
8
BLACK
6
CONTINUOUS
10
1.07892
20
1.32578
11
1.0789
21
1.32573
0
LINE
8
BLACK
6
CONTINUOUS
10
1.0789
20
1.32573
11
1.07644
21
1.32327
0
LINE
8
BLACK
6
CONTINUOUS
10
1.07644
20
1.32327
11
1.10385
21
1.32327
0
LINE
8
BLACK
6
CONTINUOUS
10
1.10385
20
1.32327
11
1.10385
21
1.33156
0
LINE
8
BLACK
6
CONTINUOUS
10
1.10385
20
1.33156
11
1.10403
21
1.33257
0
LINE
8
BLACK
6
CONTINUOUS
10
1.10403
20
1.33257
11
1.10533
21
1.33412
0
LINE
8
BLACK
6
CONTINUOUS
10
1.10533
20
1.33412
11
1.10732
21
1.33447
0
LINE
8
BLACK
6
CONTINUOUS
10
1.10732
20
1.33447
11
1.10907
21
1.33346
0
LINE
8
BLACK
6
CONTINUOUS
10
1.10907
20
1.33346
11
1.10976
21
1.33156
0
LINE
8
BLACK
6
CONTINUOUS
10
1.10976
20
1.33156
11
1.10976
21
1.30907
0
LINE
8
BLACK
6
CONTINUOUS
10
1.10976
20
1.30907
11
1.10958
21
1.30806
0
LINE
8
BLACK
6
CONTINUOUS
10
1.10958
20
1.30806
11
1.10828
21
1.30651
0
LINE
8
BLACK
6
CONTINUOUS
10
1.10828
20
1.30651
11
1.10629
21
1.30616
0
LINE
8
BLACK
6
CONTINUOUS
10
1.10629
20
1.30616
11
1.10454
21
1.30717
0
LINE
8
BLACK
6
CONTINUOUS
10
1.10454
20
1.30717
11
1.10385
21
1.30907
0
LINE
8
BLACK
6
CONTINUOUS
10
1.10385
20
1.30907
11
1.10385
21
1.31736
0
LINE
8
BLACK
6
CONTINUOUS
10
1.10385
20
1.31736
11
1.06743
21
1.31736
0
LINE
8
BLACK
6
CONTINUOUS
10
1.06743
20
1.31736
11
1.06642
21
1.31754
0
LINE
8
BLACK
6
CONTINUOUS
10
1.06642
20
1.31754
11
1.06629
21
1.31765
0
LINE
8
BLACK
6
CONTINUOUS
10
1.06629
20
1.31765
11
1.06613
21
1.31767
0
LINE
8
BLACK
6
CONTINUOUS
10
1.06613
20
1.31767
11
1.06553
21
1.31829
0
LINE
8
BLACK
6
CONTINUOUS
10
1.06553
20
1.31829
11
1.06488
21
1.31884
0
LINE
8
BLACK
6
CONTINUOUS
10
1.06488
20
1.31884
11
1.06485
21
1.31901
0
LINE
8
BLACK
6
CONTINUOUS
10
1.06485
20
1.31901
11
1.06473
21
1.31913
0
LINE
8
BLACK
6
CONTINUOUS
10
1.06473
20
1.31913
11
1.06467
21
1.31998
0
LINE
8
BLACK
6
CONTINUOUS
10
1.06467
20
1.31998
11
1.06453
21
1.32083
0
LINE
8
BLACK
6
CONTINUOUS
10
1.06453
20
1.32083
11
1.06461
21
1.32097
0
LINE
8
BLACK
6
CONTINUOUS
10
1.06461
20
1.32097
11
1.0646
21
1.32114
0
LINE
8
BLACK
6
CONTINUOUS
10
1.0646
20
1.32114
11
1.06511
21
1.32183
0
LINE
8
BLACK
6
CONTINUOUS
10
1.06511
20
1.32183
11
1.06554
21
1.32258
0
LINE
8
BLACK
6
CONTINUOUS
10
1.06554
20
1.32258
11
1.0657
21
1.32263
0
LINE
8
BLACK
6
CONTINUOUS
10
1.0657
20
1.32263
11
1.0658
21
1.32277
0
LINE
8
BLACK
6
CONTINUOUS
10
1.0658
20
1.32277
11
1.07118
21
1.32636
0
LINE
8
BLACK
6
CONTINUOUS
10
1.07118
20
1.32636
11
1.07438
21
1.32956
0
LINE
8
BLACK
6
CONTINUOUS
10
1.07438
20
1.32956
11
1.07604
21
1.33288
0
LINE
8
BLACK
6
CONTINUOUS
10
1.07604
20
1.33288
11
1.07665
21
1.33371
0
LINE
8
BLACK
6
CONTINUOUS
10
1.07665
20
1.33371
11
1.07851
21
1.33451
0
LINE
8
BLACK
6
CONTINUOUS
10
1.07851
20
1.33451
11
1.08044
21
1.33394
0
LINE
8
BLACK
6
CONTINUOUS
10
1.12659
20
1.35061
11
1.12728
21
1.34894
0
LINE
8
BLACK
6
CONTINUOUS
10
1.12728
20
1.34894
11
1.12728
21
1.33106
0
LINE
8
BLACK
6
CONTINUOUS
10
1.12728
20
1.33106
11
1.12659
21
1.32939
0
LINE
8
BLACK
6
CONTINUOUS
10
1.12659
20
1.32939
11
1.12492
21
1.3287
0
LINE
8
BLACK
6
CONTINUOUS
10
1.12492
20
1.3287
11
1.12325
21
1.32939
0
LINE
8
BLACK
6
CONTINUOUS
10
1.12325
20
1.32939
11
1.12256
21
1.33106
0
LINE
8
BLACK
6
CONTINUOUS
10
1.12256
20
1.33106
11
1.12256
21
1.34894
0
LINE
8
BLACK
6
CONTINUOUS
10
1.12256
20
1.34894
11
1.12325
21
1.35061
0
LINE
8
BLACK
6
CONTINUOUS
10
1.12325
20
1.35061
11
1.12492
21
1.3513
0
LINE
8
BLACK
6
CONTINUOUS
10
1.12492
20
1.3513
11
1.12659
21
1.35061
0
LINE
8
BLACK
6
CONTINUOUS
10
1.24273
20
1.35061
11
1.24343
21
1.34894
0
LINE
8
BLACK
6
CONTINUOUS
10
1.24343
20
1.34894
11
1.24343
21
1.33106
0
LINE
8
BLACK
6
CONTINUOUS
10
1.24343
20
1.33106
11
1.24273
21
1.32939
0
LINE
8
BLACK
6
CONTINUOUS
10
1.24273
20
1.32939
11
1.24106
21
1.3287
0
LINE
8
BLACK
6
CONTINUOUS
10
1.24106
20
1.3287
11
1.23939
21
1.32939
0
LINE
8
BLACK
6
CONTINUOUS
10
1.23939
20
1.32939
11
1.2387
21
1.33106
0
LINE
8
BLACK
6
CONTINUOUS
10
1.2387
20
1.33106
11
1.2387
21
1.34894
0
LINE
8
BLACK
6
CONTINUOUS
10
1.2387
20
1.34894
11
1.23939
21
1.35061
0
LINE
8
BLACK
6
CONTINUOUS
10
1.23939
20
1.35061
11
1.24106
21
1.3513
0
LINE
8
BLACK
6
CONTINUOUS
10
1.24106
20
1.3513
11
1.24273
21
1.35061
0
LINE
8
BLACK
6
CONTINUOUS
10
1.30061
20
1.35061
11
1.3013
21
1.34894
0
LINE
8
BLACK
6
CONTINUOUS
10
1.3013
20
1.34894
11
1.3013
21
1.33106
0
LINE
8
BLACK
6
CONTINUOUS
10
1.3013
20
1.33106
11
1.30061
21
1.32939
0
LINE
8
BLACK
6
CONTINUOUS
10
1.30061
20
1.32939
11
1.29894
21
1.3287
0
LINE
8
BLACK
6
CONTINUOUS
10
1.29894
20
1.3287
11
1.29727
21
1.32939
0
LINE
8
BLACK
6
CONTINUOUS
10
1.29727
20
1.32939
11
1.29657
21
1.33106
0
LINE
8
BLACK
6
CONTINUOUS
10
1.29657
20
1.33106
11
1.29657
21
1.34894
0
LINE
8
BLACK
6
CONTINUOUS
10
1.29657
20
1.34894
11
1.29727
21
1.35061
0
LINE
8
BLACK
6
CONTINUOUS
10
1.29727
20
1.35061
11
1.29894
21
1.3513
0
LINE
8
BLACK
6
CONTINUOUS
10
1.29894
20
1.3513
11
1.30061
21
1.35061
0
LINE
8
BLACK
6
CONTINUOUS
10
1.10781
20
1.37183
11
1.10936
21
1.37054
0
LINE
8
BLACK
6
CONTINUOUS
10
1.10936
20
1.37054
11
1.10971
21
1.36855
0
LINE
8
BLACK
6
CONTINUOUS
10
1.10971
20
1.36855
11
1.1087
21
1.3668
0
LINE
8
BLACK
6
CONTINUOUS
10
1.1087
20
1.3668
11
1.1068
21
1.36611
0
LINE
8
BLACK
6
CONTINUOUS
10
1.1068
20
1.36611
11
1.09101
21
1.36611
0
LINE
8
BLACK
6
CONTINUOUS
10
1.09101
20
1.36611
11
1.09101
21
1.36122
0
LINE
8
BLACK
6
CONTINUOUS
10
1.09101
20
1.36122
11
1.1085
21
1.34898
0
LINE
8
BLACK
6
CONTINUOUS
10
1.1085
20
1.34898
11
1.10922
21
1.34826
0
LINE
8
BLACK
6
CONTINUOUS
10
1.10922
20
1.34826
11
1.10975
21
1.3463
0
LINE
8
BLACK
6
CONTINUOUS
10
1.10975
20
1.3463
11
1.10889
21
1.34447
0
LINE
8
BLACK
6
CONTINUOUS
10
1.10889
20
1.34447
11
1.10706
21
1.34362
0
LINE
8
BLACK
6
CONTINUOUS
10
1.10706
20
1.34362
11
1.10511
21
1.34414
0
LINE
8
BLACK
6
CONTINUOUS
10
1.10511
20
1.34414
11
1.091
21
1.35402
0
LINE
8
BLACK
6
CONTINUOUS
10
1.091
20
1.35402
11
1.09083
21
1.35305
0
LINE
8
BLACK
6
CONTINUOUS
10
1.09083
20
1.35305
11
1.09072
21
1.35292
0
LINE
8
BLACK
6
CONTINUOUS
10
1.09072
20
1.35292
11
1.0907
21
1.35274
0
LINE
8
BLACK
6
CONTINUOUS
10
1.0907
20
1.35274
11
1.08882
21
1.34899
0
LINE
8
BLACK
6
CONTINUOUS
10
1.08882
20
1.34899
11
1.0883
21
1.34828
0
LINE
8
BLACK
6
CONTINUOUS
10
1.0883
20
1.34828
11
1.08827
21
1.34822
0
LINE
8
BLACK
6
CONTINUOUS
10
1.08827
20
1.34822
11
1.08639
21
1.34635
0
LINE
8
BLACK
6
CONTINUOUS
10
1.08639
20
1.34635
11
1.08567
21
1.34584
0
LINE
8
BLACK
6
CONTINUOUS
10
1.08567
20
1.34584
11
1.08563
21
1.3458
0
LINE
8
BLACK
6
CONTINUOUS
10
1.08563
20
1.3458
11
1.08188
21
1.34392
0
LINE
8
BLACK
6
CONTINUOUS
10
1.08188
20
1.34392
11
1.08089
21
1.34363
0
LINE
8
BLACK
6
CONTINUOUS
10
1.08089
20
1.34363
11
1.08072
21
1.34367
0
LINE
8
BLACK
6
CONTINUOUS
10
1.08072
20
1.34367
11
1.08056
21
1.34361
0
LINE
8
BLACK
6
CONTINUOUS
10
1.08056
20
1.34361
11
1.07493
21
1.34361
0
LINE
8
BLACK
6
CONTINUOUS
10
1.07493
20
1.34361
11
1.07392
21
1.34379
0
LINE
8
BLACK
6
CONTINUOUS
10
1.07392
20
1.34379
11
1.07379
21
1.3439
0
LINE
8
BLACK
6
CONTINUOUS
10
1.07379
20
1.3439
11
1.07361
21
1.34392
0
LINE
8
BLACK
6
CONTINUOUS
10
1.07361
20
1.34392
11
1.06986
21
1.3458
0
LINE
8
BLACK
6
CONTINUOUS
10
1.06986
20
1.3458
11
1.06915
21
1.34632
0
LINE
8
BLACK
6
CONTINUOUS
10
1.06915
20
1.34632
11
1.0691
21
1.34635
0
LINE
8
BLACK
6
CONTINUOUS
10
1.0691
20
1.34635
11
1.06722
21
1.34822
0
LINE
8
BLACK
6
CONTINUOUS
10
1.06722
20
1.34822
11
1.06671
21
1.34895
0
LINE
8
BLACK
6
CONTINUOUS
10
1.06671
20
1.34895
11
1.06667
21
1.34899
0
LINE
8
BLACK
6
CONTINUOUS
10
1.06667
20
1.34899
11
1.06479
21
1.35274
0
LINE
8
BLACK
6
CONTINUOUS
10
1.06479
20
1.35274
11
1.0645
21
1.35372
0
LINE
8
BLACK
6
CONTINUOUS
10
1.0645
20
1.35372
11
1.06454
21
1.35389
0
LINE
8
BLACK
6
CONTINUOUS
10
1.06454
20
1.35389
11
1.06448
21
1.35406
0
LINE
8
BLACK
6
CONTINUOUS
10
1.06448
20
1.35406
11
1.06448
21
1.36906
0
LINE
8
BLACK
6
CONTINUOUS
10
1.06448
20
1.36906
11
1.06455
21
1.36944
0
LINE
8
BLACK
6
CONTINUOUS
10
1.06455
20
1.36944
11
1.06453
21
1.36957
0
LINE
8
BLACK
6
CONTINUOUS
10
1.06453
20
1.36957
11
1.06459
21
1.36969
0
LINE
8
BLACK
6
CONTINUOUS
10
1.06459
20
1.36969
11
1.06466
21
1.37007
0
LINE
8
BLACK
6
CONTINUOUS
10
1.06466
20
1.37007
11
1.06515
21
1.37066
0
LINE
8
BLACK
6
CONTINUOUS
10
1.06515
20
1.37066
11
1.06554
21
1.37132
0
LINE
8
BLACK
6
CONTINUOUS
10
1.06554
20
1.37132
11
1.06579
21
1.37141
0
LINE
8
BLACK
6
CONTINUOUS
10
1.06579
20
1.37141
11
1.06596
21
1.37162
0
LINE
8
BLACK
6
CONTINUOUS
10
1.06596
20
1.37162
11
1.06671
21
1.37175
0
LINE
8
BLACK
6
CONTINUOUS
10
1.06671
20
1.37175
11
1.06743
21
1.37201
0
LINE
8
BLACK
6
CONTINUOUS
10
1.06743
20
1.37201
11
1.1068
21
1.37201
0
LINE
8
BLACK
6
CONTINUOUS
10
1.1068
20
1.37201
11
1.10781
21
1.37183
0
LINE
8
BLACK
6
CONTINUOUS
10
1.07039
20
1.35476
11
1.07174
21
1.35206
0
LINE
8
BLACK
6
CONTINUOUS
10
1.07174
20
1.35206
11
1.07293
21
1.35086
0
LINE
8
BLACK
6
CONTINUOUS
10
1.07293
20
1.35086
11
1.07563
21
1.34951
0
LINE
8
BLACK
6
CONTINUOUS
10
1.07563
20
1.34951
11
1.07986
21
1.34951
0
LINE
8
BLACK
6
CONTINUOUS
10
1.07986
20
1.34951
11
1.08256
21
1.35086
0
LINE
8
BLACK
6
CONTINUOUS
10
1.08256
20
1.35086
11
1.08375
21
1.35206
0
LINE
8
BLACK
6
CONTINUOUS
10
1.08375
20
1.35206
11
1.0851
21
1.35476
0
LINE
8
BLACK
6
CONTINUOUS
10
1.0851
20
1.35476
11
1.0851
21
1.36611
0
LINE
8
BLACK
6
CONTINUOUS
10
1.0851
20
1.36611
11
1.07039
21
1.36611
0
LINE
8
BLACK
6
CONTINUOUS
10
1.07039
20
1.36611
11
1.07039
21
1.35476
0
CIRCLE
8
BLACK
10
1.6
20
1.6
40
0.00688976
0
CIRCLE
8
BLACK
10
1.6
20
0.4
40
0.00688976
0
CIRCLE
8
BLACK
10
0.35
20
0.98
40
0.00688976
0
CIRCLE
8
BLACK
10
0.45
20
0.98
40
0.00688976
0
CIRCLE
8
BLACK
10
0.55
20
0.98
40
0.00688976
0
CIRCLE
8
BLACK
10
0.95
20
0.39
40
0.00688976
0
CIRCLE
8
BLACK
10
0.95
20
0.49
40
0.00688976
0
CIRCLE
8
BLACK
10
1.05
20
0.39
40
0.00688976
0
CIRCLE
8
BLACK
10
1.05
20
0.49
40
0.00688976
0
CIRCLE
8
BLACK
10
1.15
20
0.39
40
0.00688976
0
CIRCLE
8
BLACK
10
1.15
20
0.49
40
0.00688976
0
CIRCLE
8
BLACK
10
0.35
20
0.88
40
0.00688976
0
CIRCLE
8
BLACK
10
0.45
20
0.88
40
0.00688976
0
CIRCLE
8
BLACK
10
0.55
20
0.88
40
0.00688976
0
CIRCLE
8
BLACK
10
1.1
20
1.62
40
0.00688976
0
CIRCLE
8
BLACK
10
1.1
20
1.52
40
0.00688976
0
CIRCLE
8
BLACK
10
1
20
1.62
40
0.00688976
0
CIRCLE
8
BLACK
10
1
20
1.52
40
0.00688976
0
CIRCLE
8
BLACK
10
0.9
20
1.62
40
0.00688976
0
CIRCLE
8
BLACK
10
0.9
20
1.52
40
0.00688976
0
CIRCLE
8
BLACK
10
0.4
20
0.4
40
0.00688976
0
CIRCLE
8
BLACK
10
0.35
20
0.68
40
0.00688976
0
CIRCLE
8
BLACK
10
0.45
20
0.68
40
0.00688976
0
CIRCLE
8
BLACK
10
0.55
20
0.68
40
0.00688976
0
CIRCLE
8
BLACK
10
0.35
20
0.78
40
0.00688976
0
CIRCLE
8
BLACK
10
0.45
20
0.78
40
0.00688976
0
CIRCLE
8
BLACK
10
0.55
20
0.78
40
0.00688976
0
CIRCLE
8
BLACK
10
0.4
20
1.6
40
0.00688976
0
CIRCLE
8
BLACK
10
1.02
20
1.1
40
0.00688976
0
CIRCLE
8
BLACK
10
1.02
20
1.2
40
0.00688976
0
CIRCLE
8
BLACK
10
0.82
20
1.1
40
0.00688976
0
CIRCLE
8
BLACK
10
0.82
20
1.2
40
0.00688976
0
CIRCLE
8
BLACK
10
0.92
20
1.1
40
0.00688976
0
CIRCLE
8
BLACK
10
0.92
20
1.2
40
0.00688976
  0
ENDSEC
  0
EOF
