  0
SECTION
  2
HEADER
  9
$ANGBASE
  50
0.0
  9
$ANGDIR
  70
1
  9
$MEASUREMENT
  70
0
  0
ENDSEC
  0
SECTION
  2
TABLES
  0
TABLE
  2
LTYPE
  70
4
  0
LTYPE
  5
40F
  2
CONTINUOUS
  70
0
  3
Solid line
  72
65
  73
0
  40
0.0
  0
LTYPE
  5
410
  2
DASHDOT
 70
0
  3
Dash Dot ____ _ ____ _
 72
65
 73
4
 40
2.0
 49
1.25
 49
-0.25
 49
0.25
 49
-0.25
  0
LTYPE
  5
411
  2
DASHED
 70
0
  3
Dashed __ __ __ __ __
 72
65
 73
2
 40
0.75
 49
0.5
 49
-0.25
  0
LTYPE
  5
43B
  2
DOTTED
 70
0
  3
Dotted .  .  .  .
 72
65
 73
2
 40
0.2
 49
0.0
 49
-0.2
  0
ENDTAB
  0
TABLE
  2
STYLE
  70
4
  0
STYLE
  2
KICAD
  70
0
  40
0
  41
1
  42
1
  50
0
  71
0
  3
isocp.shx
  0
STYLE
  2
KICADB
  70
0
  40
0
  41
1
  42
1
  50
0
  71
0
  3
isocp.shx
  0
STYLE
  2
KICADI
  70
0
  40
0
  41
1
  42
1
  50
15
  71
0
  3
isocp.shx
  0
STYLE
  2
KICADBI
  70
0
  40
0
  41
1
  42
1
  50
15
  71
0
  3
isocp.shx
  0
ENDTAB
  0
TABLE
  2
LAYER
  70
1
  0
LAYER
  2
BLACK
  70
0
  62
7
  6
CONTINUOUS
  0
ENDTAB
  0
ENDSEC
  0
SECTION
  2
ENTITIES
0
LINE
8
BLACK
6
CONTINUOUS
10
0.42051
20
0.516316
11
0.433874
21
0.513148
0
LINE
8
BLACK
6
CONTINUOUS
10
0.433874
20
0.513148
11
0.446781
21
0.508451
0
LINE
8
BLACK
6
CONTINUOUS
10
0.446781
20
0.508451
11
0.459055
21
0.502286
0
LINE
8
BLACK
6
CONTINUOUS
10
0.459055
20
0.502286
11
0.470531
21
0.494739
0
LINE
8
BLACK
6
CONTINUOUS
10
0.470531
20
0.494739
11
0.481052
21
0.48591
0
LINE
8
BLACK
6
CONTINUOUS
10
0.481052
20
0.48591
11
0.490478
21
0.47592
0
LINE
8
BLACK
6
CONTINUOUS
10
0.490478
20
0.47592
11
0.49868
21
0.464903
0
LINE
8
BLACK
6
CONTINUOUS
10
0.49868
20
0.464903
11
0.505547
21
0.453008
0
LINE
8
BLACK
6
CONTINUOUS
10
0.505547
20
0.453008
11
0.510987
21
0.440396
0
LINE
8
BLACK
6
CONTINUOUS
10
0.510987
20
0.440396
11
0.514927
21
0.427238
0
LINE
8
BLACK
6
CONTINUOUS
10
0.514927
20
0.427238
11
0.517312
21
0.413712
0
LINE
8
BLACK
6
CONTINUOUS
10
0.517312
20
0.413712
11
0.51811
21
0.4
0
LINE
8
BLACK
6
CONTINUOUS
10
0.51811
20
0.4
11
0.517312
21
0.386288
0
LINE
8
BLACK
6
CONTINUOUS
10
0.517312
20
0.386288
11
0.514927
21
0.372762
0
LINE
8
BLACK
6
CONTINUOUS
10
0.514927
20
0.372762
11
0.510987
21
0.359604
0
LINE
8
BLACK
6
CONTINUOUS
10
0.510987
20
0.359604
11
0.505547
21
0.346992
0
LINE
8
BLACK
6
CONTINUOUS
10
0.505547
20
0.346992
11
0.49868
21
0.335097
0
LINE
8
BLACK
6
CONTINUOUS
10
0.49868
20
0.335097
11
0.490478
21
0.32408
0
LINE
8
BLACK
6
CONTINUOUS
10
0.490478
20
0.32408
11
0.481052
21
0.31409
0
LINE
8
BLACK
6
CONTINUOUS
10
0.481052
20
0.31409
11
0.470531
21
0.305261
0
LINE
8
BLACK
6
CONTINUOUS
10
0.470531
20
0.305261
11
0.459055
21
0.297714
0
LINE
8
BLACK
6
CONTINUOUS
10
0.459055
20
0.297714
11
0.446781
21
0.291549
0
LINE
8
BLACK
6
CONTINUOUS
10
0.446781
20
0.291549
11
0.433874
21
0.286852
0
LINE
8
BLACK
6
CONTINUOUS
10
0.433874
20
0.286852
11
0.42051
21
0.283684
0
LINE
8
BLACK
6
CONTINUOUS
10
0.42051
20
0.283684
11
0.406867
21
0.28209
0
LINE
8
BLACK
6
CONTINUOUS
10
0.406867
20
0.28209
11
0.393133
21
0.28209
0
LINE
8
BLACK
6
CONTINUOUS
10
0.393133
20
0.28209
11
0.37949
21
0.283684
0
LINE
8
BLACK
6
CONTINUOUS
10
0.37949
20
0.283684
11
0.366126
21
0.286852
0
LINE
8
BLACK
6
CONTINUOUS
10
0.366126
20
0.286852
11
0.353219
21
0.291549
0
LINE
8
BLACK
6
CONTINUOUS
10
0.353219
20
0.291549
11
0.340945
21
0.297714
0
LINE
8
BLACK
6
CONTINUOUS
10
0.340945
20
0.297714
11
0.329469
21
0.305261
0
LINE
8
BLACK
6
CONTINUOUS
10
0.329469
20
0.305261
11
0.318948
21
0.31409
0
LINE
8
BLACK
6
CONTINUOUS
10
0.318948
20
0.31409
11
0.309522
21
0.32408
0
LINE
8
BLACK
6
CONTINUOUS
10
0.309522
20
0.32408
11
0.30132
21
0.335097
0
LINE
8
BLACK
6
CONTINUOUS
10
0.30132
20
0.335097
11
0.294453
21
0.346992
0
LINE
8
BLACK
6
CONTINUOUS
10
0.294453
20
0.346992
11
0.289013
21
0.359604
0
LINE
8
BLACK
6
CONTINUOUS
10
0.289013
20
0.359604
11
0.285073
21
0.372762
0
LINE
8
BLACK
6
CONTINUOUS
10
0.285073
20
0.372762
11
0.282688
21
0.386288
0
LINE
8
BLACK
6
CONTINUOUS
10
0.282688
20
0.386288
11
0.28189
21
0.4
0
LINE
8
BLACK
6
CONTINUOUS
10
0.28189
20
0.4
11
0.282688
21
0.413712
0
LINE
8
BLACK
6
CONTINUOUS
10
0.282688
20
0.413712
11
0.285073
21
0.427238
0
LINE
8
BLACK
6
CONTINUOUS
10
0.285073
20
0.427238
11
0.289013
21
0.440396
0
LINE
8
BLACK
6
CONTINUOUS
10
0.289013
20
0.440396
11
0.294453
21
0.453008
0
LINE
8
BLACK
6
CONTINUOUS
10
0.294453
20
0.453008
11
0.30132
21
0.464903
0
LINE
8
BLACK
6
CONTINUOUS
10
0.30132
20
0.464903
11
0.309522
21
0.47592
0
LINE
8
BLACK
6
CONTINUOUS
10
0.309522
20
0.47592
11
0.318948
21
0.48591
0
LINE
8
BLACK
6
CONTINUOUS
10
0.318948
20
0.48591
11
0.329469
21
0.494739
0
LINE
8
BLACK
6
CONTINUOUS
10
0.329469
20
0.494739
11
0.340945
21
0.502286
0
LINE
8
BLACK
6
CONTINUOUS
10
0.340945
20
0.502286
11
0.353219
21
0.508451
0
LINE
8
BLACK
6
CONTINUOUS
10
0.353219
20
0.508451
11
0.366126
21
0.513148
0
LINE
8
BLACK
6
CONTINUOUS
10
0.366126
20
0.513148
11
0.37949
21
0.516316
0
LINE
8
BLACK
6
CONTINUOUS
10
0.37949
20
0.516316
11
0.393133
21
0.51791
0
LINE
8
BLACK
6
CONTINUOUS
10
0.393133
20
0.51791
11
0.406867
21
0.51791
0
LINE
8
BLACK
6
CONTINUOUS
10
0.406867
20
0.51791
11
0.42051
21
0.516316
0
LINE
8
BLACK
6
CONTINUOUS
10
1.62051
20
0.516316
11
1.63387
21
0.513148
0
LINE
8
BLACK
6
CONTINUOUS
10
1.63387
20
0.513148
11
1.64678
21
0.508451
0
LINE
8
BLACK
6
CONTINUOUS
10
1.64678
20
0.508451
11
1.65906
21
0.502286
0
LINE
8
BLACK
6
CONTINUOUS
10
1.65906
20
0.502286
11
1.67053
21
0.494739
0
LINE
8
BLACK
6
CONTINUOUS
10
1.67053
20
0.494739
11
1.68105
21
0.48591
0
LINE
8
BLACK
6
CONTINUOUS
10
1.68105
20
0.48591
11
1.69048
21
0.47592
0
LINE
8
BLACK
6
CONTINUOUS
10
1.69048
20
0.47592
11
1.69868
21
0.464903
0
LINE
8
BLACK
6
CONTINUOUS
10
1.69868
20
0.464903
11
1.70555
21
0.453008
0
LINE
8
BLACK
6
CONTINUOUS
10
1.70555
20
0.453008
11
1.71099
21
0.440396
0
LINE
8
BLACK
6
CONTINUOUS
10
1.71099
20
0.440396
11
1.71493
21
0.427238
0
LINE
8
BLACK
6
CONTINUOUS
10
1.71493
20
0.427238
11
1.71731
21
0.413712
0
LINE
8
BLACK
6
CONTINUOUS
10
1.71731
20
0.413712
11
1.71811
21
0.4
0
LINE
8
BLACK
6
CONTINUOUS
10
1.71811
20
0.4
11
1.71731
21
0.386288
0
LINE
8
BLACK
6
CONTINUOUS
10
1.71731
20
0.386288
11
1.71493
21
0.372762
0
LINE
8
BLACK
6
CONTINUOUS
10
1.71493
20
0.372762
11
1.71099
21
0.359604
0
LINE
8
BLACK
6
CONTINUOUS
10
1.71099
20
0.359604
11
1.70555
21
0.346992
0
LINE
8
BLACK
6
CONTINUOUS
10
1.70555
20
0.346992
11
1.69868
21
0.335097
0
LINE
8
BLACK
6
CONTINUOUS
10
1.69868
20
0.335097
11
1.69048
21
0.32408
0
LINE
8
BLACK
6
CONTINUOUS
10
1.69048
20
0.32408
11
1.68105
21
0.31409
0
LINE
8
BLACK
6
CONTINUOUS
10
1.68105
20
0.31409
11
1.67053
21
0.305261
0
LINE
8
BLACK
6
CONTINUOUS
10
1.67053
20
0.305261
11
1.65906
21
0.297714
0
LINE
8
BLACK
6
CONTINUOUS
10
1.65906
20
0.297714
11
1.64678
21
0.291549
0
LINE
8
BLACK
6
CONTINUOUS
10
1.64678
20
0.291549
11
1.63387
21
0.286852
0
LINE
8
BLACK
6
CONTINUOUS
10
1.63387
20
0.286852
11
1.62051
21
0.283684
0
LINE
8
BLACK
6
CONTINUOUS
10
1.62051
20
0.283684
11
1.60687
21
0.28209
0
LINE
8
BLACK
6
CONTINUOUS
10
1.60687
20
0.28209
11
1.59313
21
0.28209
0
LINE
8
BLACK
6
CONTINUOUS
10
1.59313
20
0.28209
11
1.57949
21
0.283684
0
LINE
8
BLACK
6
CONTINUOUS
10
1.57949
20
0.283684
11
1.56613
21
0.286852
0
LINE
8
BLACK
6
CONTINUOUS
10
1.56613
20
0.286852
11
1.55322
21
0.291549
0
LINE
8
BLACK
6
CONTINUOUS
10
1.55322
20
0.291549
11
1.54094
21
0.297714
0
LINE
8
BLACK
6
CONTINUOUS
10
1.54094
20
0.297714
11
1.52947
21
0.305261
0
LINE
8
BLACK
6
CONTINUOUS
10
1.52947
20
0.305261
11
1.51895
21
0.31409
0
LINE
8
BLACK
6
CONTINUOUS
10
1.51895
20
0.31409
11
1.50952
21
0.32408
0
LINE
8
BLACK
6
CONTINUOUS
10
1.50952
20
0.32408
11
1.50132
21
0.335097
0
LINE
8
BLACK
6
CONTINUOUS
10
1.50132
20
0.335097
11
1.49445
21
0.346992
0
LINE
8
BLACK
6
CONTINUOUS
10
1.49445
20
0.346992
11
1.48901
21
0.359604
0
LINE
8
BLACK
6
CONTINUOUS
10
1.48901
20
0.359604
11
1.48507
21
0.372762
0
LINE
8
BLACK
6
CONTINUOUS
10
1.48507
20
0.372762
11
1.48269
21
0.386288
0
LINE
8
BLACK
6
CONTINUOUS
10
1.48269
20
0.386288
11
1.48189
21
0.4
0
LINE
8
BLACK
6
CONTINUOUS
10
1.48189
20
0.4
11
1.48269
21
0.413712
0
LINE
8
BLACK
6
CONTINUOUS
10
1.48269
20
0.413712
11
1.48507
21
0.427238
0
LINE
8
BLACK
6
CONTINUOUS
10
1.48507
20
0.427238
11
1.48901
21
0.440396
0
LINE
8
BLACK
6
CONTINUOUS
10
1.48901
20
0.440396
11
1.49445
21
0.453008
0
LINE
8
BLACK
6
CONTINUOUS
10
1.49445
20
0.453008
11
1.50132
21
0.464903
0
LINE
8
BLACK
6
CONTINUOUS
10
1.50132
20
0.464903
11
1.50952
21
0.47592
0
LINE
8
BLACK
6
CONTINUOUS
10
1.50952
20
0.47592
11
1.51895
21
0.48591
0
LINE
8
BLACK
6
CONTINUOUS
10
1.51895
20
0.48591
11
1.52947
21
0.494739
0
LINE
8
BLACK
6
CONTINUOUS
10
1.52947
20
0.494739
11
1.54094
21
0.502286
0
LINE
8
BLACK
6
CONTINUOUS
10
1.54094
20
0.502286
11
1.55322
21
0.508451
0
LINE
8
BLACK
6
CONTINUOUS
10
1.55322
20
0.508451
11
1.56613
21
0.513148
0
LINE
8
BLACK
6
CONTINUOUS
10
1.56613
20
0.513148
11
1.57949
21
0.516316
0
LINE
8
BLACK
6
CONTINUOUS
10
1.57949
20
0.516316
11
1.59313
21
0.51791
0
LINE
8
BLACK
6
CONTINUOUS
10
1.59313
20
0.51791
11
1.60687
21
0.51791
0
LINE
8
BLACK
6
CONTINUOUS
10
1.60687
20
0.51791
11
1.62051
21
0.516316
0
LINE
8
BLACK
6
CONTINUOUS
10
0.98
20
0.36
11
0.92
21
0.36
0
LINE
8
BLACK
6
CONTINUOUS
10
0.92
20
0.36
11
0.92
21
0.42
0
LINE
8
BLACK
6
CONTINUOUS
10
0.92
20
0.42
11
0.98
21
0.42
0
LINE
8
BLACK
6
CONTINUOUS
10
0.98
20
0.42
11
0.98
21
0.36
0
LINE
8
BLACK
6
CONTINUOUS
10
1.08
20
0.36
11
1.02
21
0.36
0
LINE
8
BLACK
6
CONTINUOUS
10
1.02
20
0.36
11
1.02
21
0.42
0
LINE
8
BLACK
6
CONTINUOUS
10
1.02
20
0.42
11
1.08
21
0.42
0
LINE
8
BLACK
6
CONTINUOUS
10
1.08
20
0.42
11
1.08
21
0.36
0
LINE
8
BLACK
6
CONTINUOUS
10
1.18
20
0.36
11
1.12
21
0.36
0
LINE
8
BLACK
6
CONTINUOUS
10
1.12
20
0.36
11
1.12
21
0.42
0
LINE
8
BLACK
6
CONTINUOUS
10
1.12
20
0.42
11
1.18
21
0.42
0
LINE
8
BLACK
6
CONTINUOUS
10
1.18
20
0.42
11
1.18
21
0.36
0
LINE
8
BLACK
6
CONTINUOUS
10
0.98
20
0.46
11
0.92
21
0.46
0
LINE
8
BLACK
6
CONTINUOUS
10
0.92
20
0.46
11
0.92
21
0.52
0
LINE
8
BLACK
6
CONTINUOUS
10
0.92
20
0.52
11
0.98
21
0.52
0
LINE
8
BLACK
6
CONTINUOUS
10
0.98
20
0.52
11
0.98
21
0.46
0
LINE
8
BLACK
6
CONTINUOUS
10
1.08
20
0.46
11
1.02
21
0.46
0
LINE
8
BLACK
6
CONTINUOUS
10
1.02
20
0.46
11
1.02
21
0.52
0
LINE
8
BLACK
6
CONTINUOUS
10
1.02
20
0.52
11
1.08
21
0.52
0
LINE
8
BLACK
6
CONTINUOUS
10
1.08
20
0.52
11
1.08
21
0.46
0
LINE
8
BLACK
6
CONTINUOUS
10
1.18
20
0.46
11
1.12
21
0.46
0
LINE
8
BLACK
6
CONTINUOUS
10
1.12
20
0.46
11
1.12
21
0.52
0
LINE
8
BLACK
6
CONTINUOUS
10
1.12
20
0.52
11
1.18
21
0.52
0
LINE
8
BLACK
6
CONTINUOUS
10
1.18
20
0.52
11
1.18
21
0.46
0
LINE
8
BLACK
6
CONTINUOUS
10
0.772251
20
0.55681
11
0.775444
21
0.554676
0
LINE
8
BLACK
6
CONTINUOUS
10
0.775444
20
0.554676
11
0.777578
21
0.551483
0
LINE
8
BLACK
6
CONTINUOUS
10
0.777578
20
0.551483
11
0.778327
21
0.547717
0
LINE
8
BLACK
6
CONTINUOUS
10
0.778327
20
0.547717
11
0.778327
21
0.512283
0
LINE
8
BLACK
6
CONTINUOUS
10
0.778327
20
0.512283
11
0.777578
21
0.508517
0
LINE
8
BLACK
6
CONTINUOUS
10
0.777578
20
0.508517
11
0.775444
21
0.505324
0
LINE
8
BLACK
6
CONTINUOUS
10
0.775444
20
0.505324
11
0.772251
21
0.50319
0
LINE
8
BLACK
6
CONTINUOUS
10
0.772251
20
0.50319
11
0.768484
21
0.502441
0
LINE
8
BLACK
6
CONTINUOUS
10
0.768484
20
0.502441
11
0.747815
21
0.502441
0
LINE
8
BLACK
6
CONTINUOUS
10
0.747815
20
0.502441
11
0.744048
21
0.50319
0
LINE
8
BLACK
6
CONTINUOUS
10
0.744048
20
0.50319
11
0.740855
21
0.505324
0
LINE
8
BLACK
6
CONTINUOUS
10
0.740855
20
0.505324
11
0.738722
21
0.508517
0
LINE
8
BLACK
6
CONTINUOUS
10
0.738722
20
0.508517
11
0.737972
21
0.512283
0
LINE
8
BLACK
6
CONTINUOUS
10
0.737972
20
0.512283
11
0.737972
21
0.547717
0
LINE
8
BLACK
6
CONTINUOUS
10
0.737972
20
0.547717
11
0.738722
21
0.551483
0
LINE
8
BLACK
6
CONTINUOUS
10
0.738722
20
0.551483
11
0.740855
21
0.554676
0
LINE
8
BLACK
6
CONTINUOUS
10
0.740855
20
0.554676
11
0.744048
21
0.55681
0
LINE
8
BLACK
6
CONTINUOUS
10
0.744048
20
0.55681
11
0.747815
21
0.557559
0
LINE
8
BLACK
6
CONTINUOUS
10
0.747815
20
0.557559
11
0.768484
21
0.557559
0
LINE
8
BLACK
6
CONTINUOUS
10
0.768484
20
0.557559
11
0.772251
21
0.55681
0
LINE
8
BLACK
6
CONTINUOUS
10
0.844101
20
0.55681
11
0.847294
21
0.554676
0
LINE
8
BLACK
6
CONTINUOUS
10
0.847294
20
0.554676
11
0.849428
21
0.551483
0
LINE
8
BLACK
6
CONTINUOUS
10
0.849428
20
0.551483
11
0.850177
21
0.547717
0
LINE
8
BLACK
6
CONTINUOUS
10
0.850177
20
0.547717
11
0.850177
21
0.512283
0
LINE
8
BLACK
6
CONTINUOUS
10
0.850177
20
0.512283
11
0.849428
21
0.508517
0
LINE
8
BLACK
6
CONTINUOUS
10
0.849428
20
0.508517
11
0.847294
21
0.505324
0
LINE
8
BLACK
6
CONTINUOUS
10
0.847294
20
0.505324
11
0.844101
21
0.50319
0
LINE
8
BLACK
6
CONTINUOUS
10
0.844101
20
0.50319
11
0.840335
21
0.502441
0
LINE
8
BLACK
6
CONTINUOUS
10
0.840335
20
0.502441
11
0.819665
21
0.502441
0
LINE
8
BLACK
6
CONTINUOUS
10
0.819665
20
0.502441
11
0.815899
21
0.50319
0
LINE
8
BLACK
6
CONTINUOUS
10
0.815899
20
0.50319
11
0.812706
21
0.505324
0
LINE
8
BLACK
6
CONTINUOUS
10
0.812706
20
0.505324
11
0.810572
21
0.508517
0
LINE
8
BLACK
6
CONTINUOUS
10
0.810572
20
0.508517
11
0.809823
21
0.512283
0
LINE
8
BLACK
6
CONTINUOUS
10
0.809823
20
0.512283
11
0.809823
21
0.547717
0
LINE
8
BLACK
6
CONTINUOUS
10
0.809823
20
0.547717
11
0.810572
21
0.551483
0
LINE
8
BLACK
6
CONTINUOUS
10
0.810572
20
0.551483
11
0.812706
21
0.554676
0
LINE
8
BLACK
6
CONTINUOUS
10
0.812706
20
0.554676
11
0.815899
21
0.55681
0
LINE
8
BLACK
6
CONTINUOUS
10
0.815899
20
0.55681
11
0.819665
21
0.557559
0
LINE
8
BLACK
6
CONTINUOUS
10
0.819665
20
0.557559
11
0.840335
21
0.557559
0
LINE
8
BLACK
6
CONTINUOUS
10
0.840335
20
0.557559
11
0.844101
21
0.55681
0
LINE
8
BLACK
6
CONTINUOUS
10
0.38
20
0.65
11
0.32
21
0.65
0
LINE
8
BLACK
6
CONTINUOUS
10
0.32
20
0.65
11
0.32
21
0.71
0
LINE
8
BLACK
6
CONTINUOUS
10
0.32
20
0.71
11
0.38
21
0.71
0
LINE
8
BLACK
6
CONTINUOUS
10
0.38
20
0.71
11
0.38
21
0.65
0
LINE
8
BLACK
6
CONTINUOUS
10
0.48
20
0.65
11
0.42
21
0.65
0
LINE
8
BLACK
6
CONTINUOUS
10
0.42
20
0.65
11
0.42
21
0.71
0
LINE
8
BLACK
6
CONTINUOUS
10
0.42
20
0.71
11
0.48
21
0.71
0
LINE
8
BLACK
6
CONTINUOUS
10
0.48
20
0.71
11
0.48
21
0.65
0
LINE
8
BLACK
6
CONTINUOUS
10
0.58
20
0.65
11
0.52
21
0.65
0
LINE
8
BLACK
6
CONTINUOUS
10
0.52
20
0.65
11
0.52
21
0.71
0
LINE
8
BLACK
6
CONTINUOUS
10
0.52
20
0.71
11
0.58
21
0.71
0
LINE
8
BLACK
6
CONTINUOUS
10
0.58
20
0.71
11
0.58
21
0.65
0
LINE
8
BLACK
6
CONTINUOUS
10
1.27247
20
0.711534
11
1.27566
21
0.709401
0
LINE
8
BLACK
6
CONTINUOUS
10
1.27566
20
0.709401
11
1.27779
21
0.706208
0
LINE
8
BLACK
6
CONTINUOUS
10
1.27779
20
0.706208
11
1.27854
21
0.702441
0
LINE
8
BLACK
6
CONTINUOUS
10
1.27854
20
0.702441
11
1.27854
21
0.682756
0
LINE
8
BLACK
6
CONTINUOUS
10
1.27854
20
0.682756
11
1.27779
21
0.678989
0
LINE
8
BLACK
6
CONTINUOUS
10
1.27779
20
0.678989
11
1.27566
21
0.675796
0
LINE
8
BLACK
6
CONTINUOUS
10
1.27566
20
0.675796
11
1.27247
21
0.673663
0
LINE
8
BLACK
6
CONTINUOUS
10
1.27247
20
0.673663
11
1.2687
21
0.672913
0
LINE
8
BLACK
6
CONTINUOUS
10
1.2687
20
0.672913
11
1.2313
21
0.672913
0
LINE
8
BLACK
6
CONTINUOUS
10
1.2313
20
0.672913
11
1.22753
21
0.673663
0
LINE
8
BLACK
6
CONTINUOUS
10
1.22753
20
0.673663
11
1.22434
21
0.675796
0
LINE
8
BLACK
6
CONTINUOUS
10
1.22434
20
0.675796
11
1.22221
21
0.678989
0
LINE
8
BLACK
6
CONTINUOUS
10
1.22221
20
0.678989
11
1.22146
21
0.682756
0
LINE
8
BLACK
6
CONTINUOUS
10
1.22146
20
0.682756
11
1.22146
21
0.702441
0
LINE
8
BLACK
6
CONTINUOUS
10
1.22146
20
0.702441
11
1.22221
21
0.706208
0
LINE
8
BLACK
6
CONTINUOUS
10
1.22221
20
0.706208
11
1.22434
21
0.709401
0
LINE
8
BLACK
6
CONTINUOUS
10
1.22434
20
0.709401
11
1.22753
21
0.711534
0
LINE
8
BLACK
6
CONTINUOUS
10
1.22753
20
0.711534
11
1.2313
21
0.712283
0
LINE
8
BLACK
6
CONTINUOUS
10
1.2313
20
0.712283
11
1.2687
21
0.712283
0
LINE
8
BLACK
6
CONTINUOUS
10
1.2687
20
0.712283
11
1.27247
21
0.711534
0
LINE
8
BLACK
6
CONTINUOUS
10
1.52543
20
0.712047
11
1.45457
21
0.712047
0
LINE
8
BLACK
6
CONTINUOUS
10
1.45457
20
0.712047
11
1.45457
21
0.810472
0
LINE
8
BLACK
6
CONTINUOUS
10
1.45457
20
0.810472
11
1.52543
21
0.810472
0
LINE
8
BLACK
6
CONTINUOUS
10
1.52543
20
0.810472
11
1.52543
21
0.712047
0
LINE
8
BLACK
6
CONTINUOUS
10
1.27247
20
0.786337
11
1.27566
21
0.784204
0
LINE
8
BLACK
6
CONTINUOUS
10
1.27566
20
0.784204
11
1.27779
21
0.781011
0
LINE
8
BLACK
6
CONTINUOUS
10
1.27779
20
0.781011
11
1.27854
21
0.777244
0
LINE
8
BLACK
6
CONTINUOUS
10
1.27854
20
0.777244
11
1.27854
21
0.757559
0
LINE
8
BLACK
6
CONTINUOUS
10
1.27854
20
0.757559
11
1.27779
21
0.753792
0
LINE
8
BLACK
6
CONTINUOUS
10
1.27779
20
0.753792
11
1.27566
21
0.750599
0
LINE
8
BLACK
6
CONTINUOUS
10
1.27566
20
0.750599
11
1.27247
21
0.748466
0
LINE
8
BLACK
6
CONTINUOUS
10
1.27247
20
0.748466
11
1.2687
21
0.747717
0
LINE
8
BLACK
6
CONTINUOUS
10
1.2687
20
0.747717
11
1.2313
21
0.747717
0
LINE
8
BLACK
6
CONTINUOUS
10
1.2313
20
0.747717
11
1.22753
21
0.748466
0
LINE
8
BLACK
6
CONTINUOUS
10
1.22753
20
0.748466
11
1.22434
21
0.750599
0
LINE
8
BLACK
6
CONTINUOUS
10
1.22434
20
0.750599
11
1.22221
21
0.753792
0
LINE
8
BLACK
6
CONTINUOUS
10
1.22221
20
0.753792
11
1.22146
21
0.757559
0
LINE
8
BLACK
6
CONTINUOUS
10
1.22146
20
0.757559
11
1.22146
21
0.777244
0
LINE
8
BLACK
6
CONTINUOUS
10
1.22146
20
0.777244
11
1.22221
21
0.781011
0
LINE
8
BLACK
6
CONTINUOUS
10
1.22221
20
0.781011
11
1.22434
21
0.784204
0
LINE
8
BLACK
6
CONTINUOUS
10
1.22434
20
0.784204
11
1.22753
21
0.786337
0
LINE
8
BLACK
6
CONTINUOUS
10
1.22753
20
0.786337
11
1.2313
21
0.787087
0
LINE
8
BLACK
6
CONTINUOUS
10
1.2313
20
0.787087
11
1.2687
21
0.787087
0
LINE
8
BLACK
6
CONTINUOUS
10
1.2687
20
0.787087
11
1.27247
21
0.786337
0
LINE
8
BLACK
6
CONTINUOUS
10
0.38
20
0.75
11
0.32
21
0.75
0
LINE
8
BLACK
6
CONTINUOUS
10
0.32
20
0.75
11
0.32
21
0.81
0
LINE
8
BLACK
6
CONTINUOUS
10
0.32
20
0.81
11
0.38
21
0.81
0
LINE
8
BLACK
6
CONTINUOUS
10
0.38
20
0.81
11
0.38
21
0.75
0
LINE
8
BLACK
6
CONTINUOUS
10
0.48
20
0.75
11
0.42
21
0.75
0
LINE
8
BLACK
6
CONTINUOUS
10
0.42
20
0.75
11
0.42
21
0.81
0
LINE
8
BLACK
6
CONTINUOUS
10
0.42
20
0.81
11
0.48
21
0.81
0
LINE
8
BLACK
6
CONTINUOUS
10
0.48
20
0.81
11
0.48
21
0.75
0
LINE
8
BLACK
6
CONTINUOUS
10
0.58
20
0.75
11
0.52
21
0.75
0
LINE
8
BLACK
6
CONTINUOUS
10
0.52
20
0.75
11
0.52
21
0.81
0
LINE
8
BLACK
6
CONTINUOUS
10
0.52
20
0.81
11
0.58
21
0.81
0
LINE
8
BLACK
6
CONTINUOUS
10
0.58
20
0.81
11
0.58
21
0.75
0
LINE
8
BLACK
6
CONTINUOUS
10
0.840945
20
0.754724
11
0.785827
21
0.754724
0
LINE
8
BLACK
6
CONTINUOUS
10
0.785827
20
0.754724
11
0.785827
21
0.766535
0
LINE
8
BLACK
6
CONTINUOUS
10
0.785827
20
0.766535
11
0.840945
21
0.766535
0
LINE
8
BLACK
6
CONTINUOUS
10
0.840945
20
0.766535
11
0.840945
21
0.754724
0
LINE
8
BLACK
6
CONTINUOUS
10
1.01417
20
0.754724
11
0.959055
21
0.754724
0
LINE
8
BLACK
6
CONTINUOUS
10
0.959055
20
0.754724
11
0.959055
21
0.766535
0
LINE
8
BLACK
6
CONTINUOUS
10
0.959055
20
0.766535
11
1.01417
21
0.766535
0
LINE
8
BLACK
6
CONTINUOUS
10
1.01417
20
0.766535
11
1.01417
21
0.754724
0
LINE
8
BLACK
6
CONTINUOUS
10
0.840945
20
0.774409
11
0.785827
21
0.774409
0
LINE
8
BLACK
6
CONTINUOUS
10
0.785827
20
0.774409
11
0.785827
21
0.78622
0
LINE
8
BLACK
6
CONTINUOUS
10
0.785827
20
0.78622
11
0.840945
21
0.78622
0
LINE
8
BLACK
6
CONTINUOUS
10
0.840945
20
0.78622
11
0.840945
21
0.774409
0
LINE
8
BLACK
6
CONTINUOUS
10
1.01417
20
0.774409
11
0.959055
21
0.774409
0
LINE
8
BLACK
6
CONTINUOUS
10
0.959055
20
0.774409
11
0.959055
21
0.78622
0
LINE
8
BLACK
6
CONTINUOUS
10
0.959055
20
0.78622
11
1.01417
21
0.78622
0
LINE
8
BLACK
6
CONTINUOUS
10
1.01417
20
0.78622
11
1.01417
21
0.774409
0
LINE
8
BLACK
6
CONTINUOUS
10
0.840945
20
0.794094
11
0.785827
21
0.794094
0
LINE
8
BLACK
6
CONTINUOUS
10
0.785827
20
0.794094
11
0.785827
21
0.805906
0
LINE
8
BLACK
6
CONTINUOUS
10
0.785827
20
0.805906
11
0.840945
21
0.805906
0
LINE
8
BLACK
6
CONTINUOUS
10
0.840945
20
0.805906
11
0.840945
21
0.794094
0
LINE
8
BLACK
6
CONTINUOUS
10
1.01417
20
0.794094
11
0.959055
21
0.794094
0
LINE
8
BLACK
6
CONTINUOUS
10
0.959055
20
0.794094
11
0.959055
21
0.805906
0
LINE
8
BLACK
6
CONTINUOUS
10
0.959055
20
0.805906
11
1.01417
21
0.805906
0
LINE
8
BLACK
6
CONTINUOUS
10
1.01417
20
0.805906
11
1.01417
21
0.794094
0
LINE
8
BLACK
6
CONTINUOUS
10
0.840945
20
0.81378
11
0.785827
21
0.81378
0
LINE
8
BLACK
6
CONTINUOUS
10
0.785827
20
0.81378
11
0.785827
21
0.825591
0
LINE
8
BLACK
6
CONTINUOUS
10
0.785827
20
0.825591
11
0.840945
21
0.825591
0
LINE
8
BLACK
6
CONTINUOUS
10
0.840945
20
0.825591
11
0.840945
21
0.81378
0
LINE
8
BLACK
6
CONTINUOUS
10
1.01417
20
0.81378
11
0.959055
21
0.81378
0
LINE
8
BLACK
6
CONTINUOUS
10
0.959055
20
0.81378
11
0.959055
21
0.825591
0
LINE
8
BLACK
6
CONTINUOUS
10
0.959055
20
0.825591
11
1.01417
21
0.825591
0
LINE
8
BLACK
6
CONTINUOUS
10
1.01417
20
0.825591
11
1.01417
21
0.81378
0
LINE
8
BLACK
6
CONTINUOUS
10
0.840945
20
0.833465
11
0.785827
21
0.833465
0
LINE
8
BLACK
6
CONTINUOUS
10
0.785827
20
0.833465
11
0.785827
21
0.845276
0
LINE
8
BLACK
6
CONTINUOUS
10
0.785827
20
0.845276
11
0.840945
21
0.845276
0
LINE
8
BLACK
6
CONTINUOUS
10
0.840945
20
0.845276
11
0.840945
21
0.833465
0
LINE
8
BLACK
6
CONTINUOUS
10
1.01417
20
0.833465
11
0.959055
21
0.833465
0
LINE
8
BLACK
6
CONTINUOUS
10
0.959055
20
0.833465
11
0.959055
21
0.845276
0
LINE
8
BLACK
6
CONTINUOUS
10
0.959055
20
0.845276
11
1.01417
21
0.845276
0
LINE
8
BLACK
6
CONTINUOUS
10
1.01417
20
0.845276
11
1.01417
21
0.833465
0
LINE
8
BLACK
6
CONTINUOUS
10
0.38
20
0.85
11
0.32
21
0.85
0
LINE
8
BLACK
6
CONTINUOUS
10
0.32
20
0.85
11
0.32
21
0.91
0
LINE
8
BLACK
6
CONTINUOUS
10
0.32
20
0.91
11
0.38
21
0.91
0
LINE
8
BLACK
6
CONTINUOUS
10
0.38
20
0.91
11
0.38
21
0.85
0
LINE
8
BLACK
6
CONTINUOUS
10
0.48
20
0.85
11
0.42
21
0.85
0
LINE
8
BLACK
6
CONTINUOUS
10
0.42
20
0.85
11
0.42
21
0.91
0
LINE
8
BLACK
6
CONTINUOUS
10
0.42
20
0.91
11
0.48
21
0.91
0
LINE
8
BLACK
6
CONTINUOUS
10
0.48
20
0.91
11
0.48
21
0.85
0
LINE
8
BLACK
6
CONTINUOUS
10
0.58
20
0.85
11
0.52
21
0.85
0
LINE
8
BLACK
6
CONTINUOUS
10
0.52
20
0.85
11
0.52
21
0.91
0
LINE
8
BLACK
6
CONTINUOUS
10
0.52
20
0.91
11
0.58
21
0.91
0
LINE
8
BLACK
6
CONTINUOUS
10
0.58
20
0.91
11
0.58
21
0.85
0
LINE
8
BLACK
6
CONTINUOUS
10
1.52543
20
0.869528
11
1.45457
21
0.869528
0
LINE
8
BLACK
6
CONTINUOUS
10
1.45457
20
0.869528
11
1.45457
21
0.967953
0
LINE
8
BLACK
6
CONTINUOUS
10
1.45457
20
0.967953
11
1.52543
21
0.967953
0
LINE
8
BLACK
6
CONTINUOUS
10
1.52543
20
0.967953
11
1.52543
21
0.869528
0
LINE
8
BLACK
6
CONTINUOUS
10
0.38
20
0.95
11
0.32
21
0.95
0
LINE
8
BLACK
6
CONTINUOUS
10
0.32
20
0.95
11
0.32
21
1.01
0
LINE
8
BLACK
6
CONTINUOUS
10
0.32
20
1.01
11
0.38
21
1.01
0
LINE
8
BLACK
6
CONTINUOUS
10
0.38
20
1.01
11
0.38
21
0.95
0
LINE
8
BLACK
6
CONTINUOUS
10
0.48
20
0.95
11
0.42
21
0.95
0
LINE
8
BLACK
6
CONTINUOUS
10
0.42
20
0.95
11
0.42
21
1.01
0
LINE
8
BLACK
6
CONTINUOUS
10
0.42
20
1.01
11
0.48
21
1.01
0
LINE
8
BLACK
6
CONTINUOUS
10
0.48
20
1.01
11
0.48
21
0.95
0
LINE
8
BLACK
6
CONTINUOUS
10
0.58
20
0.95
11
0.52
21
0.95
0
LINE
8
BLACK
6
CONTINUOUS
10
0.52
20
0.95
11
0.52
21
1.01
0
LINE
8
BLACK
6
CONTINUOUS
10
0.52
20
1.01
11
0.58
21
1.01
0
LINE
8
BLACK
6
CONTINUOUS
10
0.58
20
1.01
11
0.58
21
0.95
0
LINE
8
BLACK
6
CONTINUOUS
10
1.25247
20
1.10153
11
1.25566
21
1.0994
0
LINE
8
BLACK
6
CONTINUOUS
10
1.25566
20
1.0994
11
1.25779
21
1.09621
0
LINE
8
BLACK
6
CONTINUOUS
10
1.25779
20
1.09621
11
1.25854
21
1.09244
0
LINE
8
BLACK
6
CONTINUOUS
10
1.25854
20
1.09244
11
1.25854
21
1.07276
0
LINE
8
BLACK
6
CONTINUOUS
10
1.25854
20
1.07276
11
1.25779
21
1.06899
0
LINE
8
BLACK
6
CONTINUOUS
10
1.25779
20
1.06899
11
1.25566
21
1.0658
0
LINE
8
BLACK
6
CONTINUOUS
10
1.25566
20
1.0658
11
1.25247
21
1.06366
0
LINE
8
BLACK
6
CONTINUOUS
10
1.25247
20
1.06366
11
1.2487
21
1.06291
0
LINE
8
BLACK
6
CONTINUOUS
10
1.2487
20
1.06291
11
1.2113
21
1.06291
0
LINE
8
BLACK
6
CONTINUOUS
10
1.2113
20
1.06291
11
1.20753
21
1.06366
0
LINE
8
BLACK
6
CONTINUOUS
10
1.20753
20
1.06366
11
1.20434
21
1.0658
0
LINE
8
BLACK
6
CONTINUOUS
10
1.20434
20
1.0658
11
1.20221
21
1.06899
0
LINE
8
BLACK
6
CONTINUOUS
10
1.20221
20
1.06899
11
1.20146
21
1.07276
0
LINE
8
BLACK
6
CONTINUOUS
10
1.20146
20
1.07276
11
1.20146
21
1.09244
0
LINE
8
BLACK
6
CONTINUOUS
10
1.20146
20
1.09244
11
1.20221
21
1.09621
0
LINE
8
BLACK
6
CONTINUOUS
10
1.20221
20
1.09621
11
1.20434
21
1.0994
0
LINE
8
BLACK
6
CONTINUOUS
10
1.20434
20
1.0994
11
1.20753
21
1.10153
0
LINE
8
BLACK
6
CONTINUOUS
10
1.20753
20
1.10153
11
1.2113
21
1.10228
0
LINE
8
BLACK
6
CONTINUOUS
10
1.2113
20
1.10228
11
1.2487
21
1.10228
0
LINE
8
BLACK
6
CONTINUOUS
10
1.2487
20
1.10228
11
1.25247
21
1.10153
0
LINE
8
BLACK
6
CONTINUOUS
10
0.85
20
1.07
11
0.79
21
1.07
0
LINE
8
BLACK
6
CONTINUOUS
10
0.79
20
1.07
11
0.79
21
1.13
0
LINE
8
BLACK
6
CONTINUOUS
10
0.79
20
1.13
11
0.85
21
1.13
0
LINE
8
BLACK
6
CONTINUOUS
10
0.85
20
1.13
11
0.85
21
1.07
0
LINE
8
BLACK
6
CONTINUOUS
10
0.95
20
1.07
11
0.89
21
1.07
0
LINE
8
BLACK
6
CONTINUOUS
10
0.89
20
1.07
11
0.89
21
1.13
0
LINE
8
BLACK
6
CONTINUOUS
10
0.89
20
1.13
11
0.95
21
1.13
0
LINE
8
BLACK
6
CONTINUOUS
10
0.95
20
1.13
11
0.95
21
1.07
0
LINE
8
BLACK
6
CONTINUOUS
10
1.05
20
1.07
11
0.99
21
1.07
0
LINE
8
BLACK
6
CONTINUOUS
10
0.99
20
1.07
11
0.99
21
1.13
0
LINE
8
BLACK
6
CONTINUOUS
10
0.99
20
1.13
11
1.05
21
1.13
0
LINE
8
BLACK
6
CONTINUOUS
10
1.05
20
1.13
11
1.05
21
1.07
0
LINE
8
BLACK
6
CONTINUOUS
10
1.25247
20
1.17634
11
1.25566
21
1.1742
0
LINE
8
BLACK
6
CONTINUOUS
10
1.25566
20
1.1742
11
1.25779
21
1.17101
0
LINE
8
BLACK
6
CONTINUOUS
10
1.25779
20
1.17101
11
1.25854
21
1.16724
0
LINE
8
BLACK
6
CONTINUOUS
10
1.25854
20
1.16724
11
1.25854
21
1.14756
0
LINE
8
BLACK
6
CONTINUOUS
10
1.25854
20
1.14756
11
1.25779
21
1.14379
0
LINE
8
BLACK
6
CONTINUOUS
10
1.25779
20
1.14379
11
1.25566
21
1.1406
0
LINE
8
BLACK
6
CONTINUOUS
10
1.25566
20
1.1406
11
1.25247
21
1.13847
0
LINE
8
BLACK
6
CONTINUOUS
10
1.25247
20
1.13847
11
1.2487
21
1.13772
0
LINE
8
BLACK
6
CONTINUOUS
10
1.2487
20
1.13772
11
1.2113
21
1.13772
0
LINE
8
BLACK
6
CONTINUOUS
10
1.2113
20
1.13772
11
1.20753
21
1.13847
0
LINE
8
BLACK
6
CONTINUOUS
10
1.20753
20
1.13847
11
1.20434
21
1.1406
0
LINE
8
BLACK
6
CONTINUOUS
10
1.20434
20
1.1406
11
1.20221
21
1.14379
0
LINE
8
BLACK
6
CONTINUOUS
10
1.20221
20
1.14379
11
1.20146
21
1.14756
0
LINE
8
BLACK
6
CONTINUOUS
10
1.20146
20
1.14756
11
1.20146
21
1.16724
0
LINE
8
BLACK
6
CONTINUOUS
10
1.20146
20
1.16724
11
1.20221
21
1.17101
0
LINE
8
BLACK
6
CONTINUOUS
10
1.20221
20
1.17101
11
1.20434
21
1.1742
0
LINE
8
BLACK
6
CONTINUOUS
10
1.20434
20
1.1742
11
1.20753
21
1.17634
0
LINE
8
BLACK
6
CONTINUOUS
10
1.20753
20
1.17634
11
1.2113
21
1.17709
0
LINE
8
BLACK
6
CONTINUOUS
10
1.2113
20
1.17709
11
1.2487
21
1.17709
0
LINE
8
BLACK
6
CONTINUOUS
10
1.2487
20
1.17709
11
1.25247
21
1.17634
0
LINE
8
BLACK
6
CONTINUOUS
10
0.85
20
1.17
11
0.79
21
1.17
0
LINE
8
BLACK
6
CONTINUOUS
10
0.79
20
1.17
11
0.79
21
1.23
0
LINE
8
BLACK
6
CONTINUOUS
10
0.79
20
1.23
11
0.85
21
1.23
0
LINE
8
BLACK
6
CONTINUOUS
10
0.85
20
1.23
11
0.85
21
1.17
0
LINE
8
BLACK
6
CONTINUOUS
10
0.95
20
1.17
11
0.89
21
1.17
0
LINE
8
BLACK
6
CONTINUOUS
10
0.89
20
1.17
11
0.89
21
1.23
0
LINE
8
BLACK
6
CONTINUOUS
10
0.89
20
1.23
11
0.95
21
1.23
0
LINE
8
BLACK
6
CONTINUOUS
10
0.95
20
1.23
11
0.95
21
1.17
0
LINE
8
BLACK
6
CONTINUOUS
10
1.05
20
1.17
11
0.99
21
1.17
0
LINE
8
BLACK
6
CONTINUOUS
10
0.99
20
1.17
11
0.99
21
1.23
0
LINE
8
BLACK
6
CONTINUOUS
10
0.99
20
1.23
11
1.05
21
1.23
0
LINE
8
BLACK
6
CONTINUOUS
10
1.05
20
1.23
11
1.05
21
1.17
0
LINE
8
BLACK
6
CONTINUOUS
10
1.17534
20
1.3235
11
1.17853
21
1.32137
0
LINE
8
BLACK
6
CONTINUOUS
10
1.17853
20
1.32137
11
1.18067
21
1.31818
0
LINE
8
BLACK
6
CONTINUOUS
10
1.18067
20
1.31818
11
1.18142
21
1.31441
0
LINE
8
BLACK
6
CONTINUOUS
10
1.18142
20
1.31441
11
1.18142
21
1.29374
0
LINE
8
BLACK
6
CONTINUOUS
10
1.18142
20
1.29374
11
1.18067
21
1.28997
0
LINE
8
BLACK
6
CONTINUOUS
10
1.18067
20
1.28997
11
1.17853
21
1.28678
0
LINE
8
BLACK
6
CONTINUOUS
10
1.17853
20
1.28678
11
1.17534
21
1.28465
0
LINE
8
BLACK
6
CONTINUOUS
10
1.17534
20
1.28465
11
1.17157
21
1.2839
0
LINE
8
BLACK
6
CONTINUOUS
10
1.17157
20
1.2839
11
1.13614
21
1.2839
0
LINE
8
BLACK
6
CONTINUOUS
10
1.13614
20
1.2839
11
1.13238
21
1.28465
0
LINE
8
BLACK
6
CONTINUOUS
10
1.13238
20
1.28465
11
1.12918
21
1.28678
0
LINE
8
BLACK
6
CONTINUOUS
10
1.12918
20
1.28678
11
1.12705
21
1.28997
0
LINE
8
BLACK
6
CONTINUOUS
10
1.12705
20
1.28997
11
1.1263
21
1.29374
0
LINE
8
BLACK
6
CONTINUOUS
10
1.1263
20
1.29374
11
1.1263
21
1.31441
0
LINE
8
BLACK
6
CONTINUOUS
10
1.1263
20
1.31441
11
1.12705
21
1.31818
0
LINE
8
BLACK
6
CONTINUOUS
10
1.12705
20
1.31818
11
1.12918
21
1.32137
0
LINE
8
BLACK
6
CONTINUOUS
10
1.12918
20
1.32137
11
1.13238
21
1.3235
0
LINE
8
BLACK
6
CONTINUOUS
10
1.13238
20
1.3235
11
1.13614
21
1.32425
0
LINE
8
BLACK
6
CONTINUOUS
10
1.13614
20
1.32425
11
1.17157
21
1.32425
0
LINE
8
BLACK
6
CONTINUOUS
10
1.17157
20
1.32425
11
1.17534
21
1.3235
0
LINE
8
BLACK
6
CONTINUOUS
10
1.29148
20
1.3235
11
1.29468
21
1.32137
0
LINE
8
BLACK
6
CONTINUOUS
10
1.29468
20
1.32137
11
1.29681
21
1.31818
0
LINE
8
BLACK
6
CONTINUOUS
10
1.29681
20
1.31818
11
1.29756
21
1.31441
0
LINE
8
BLACK
6
CONTINUOUS
10
1.29756
20
1.31441
11
1.29756
21
1.29374
0
LINE
8
BLACK
6
CONTINUOUS
10
1.29756
20
1.29374
11
1.29681
21
1.28997
0
LINE
8
BLACK
6
CONTINUOUS
10
1.29681
20
1.28997
11
1.29468
21
1.28678
0
LINE
8
BLACK
6
CONTINUOUS
10
1.29468
20
1.28678
11
1.29148
21
1.28465
0
LINE
8
BLACK
6
CONTINUOUS
10
1.29148
20
1.28465
11
1.28772
21
1.2839
0
LINE
8
BLACK
6
CONTINUOUS
10
1.28772
20
1.2839
11
1.25228
21
1.2839
0
LINE
8
BLACK
6
CONTINUOUS
10
1.25228
20
1.2839
11
1.24852
21
1.28465
0
LINE
8
BLACK
6
CONTINUOUS
10
1.24852
20
1.28465
11
1.24532
21
1.28678
0
LINE
8
BLACK
6
CONTINUOUS
10
1.24532
20
1.28678
11
1.24319
21
1.28997
0
LINE
8
BLACK
6
CONTINUOUS
10
1.24319
20
1.28997
11
1.24244
21
1.29374
0
LINE
8
BLACK
6
CONTINUOUS
10
1.24244
20
1.29374
11
1.24244
21
1.31441
0
LINE
8
BLACK
6
CONTINUOUS
10
1.24244
20
1.31441
11
1.24319
21
1.31818
0
LINE
8
BLACK
6
CONTINUOUS
10
1.24319
20
1.31818
11
1.24532
21
1.32137
0
LINE
8
BLACK
6
CONTINUOUS
10
1.24532
20
1.32137
11
1.24852
21
1.3235
0
LINE
8
BLACK
6
CONTINUOUS
10
1.24852
20
1.3235
11
1.25228
21
1.32425
0
LINE
8
BLACK
6
CONTINUOUS
10
1.25228
20
1.32425
11
1.28772
21
1.32425
0
LINE
8
BLACK
6
CONTINUOUS
10
1.28772
20
1.32425
11
1.29148
21
1.3235
0
LINE
8
BLACK
6
CONTINUOUS
10
1.17534
20
1.39535
11
1.17853
21
1.39322
0
LINE
8
BLACK
6
CONTINUOUS
10
1.17853
20
1.39322
11
1.18067
21
1.39003
0
LINE
8
BLACK
6
CONTINUOUS
10
1.18067
20
1.39003
11
1.18142
21
1.38626
0
LINE
8
BLACK
6
CONTINUOUS
10
1.18142
20
1.38626
11
1.18142
21
1.36559
0
LINE
8
BLACK
6
CONTINUOUS
10
1.18142
20
1.36559
11
1.18067
21
1.36182
0
LINE
8
BLACK
6
CONTINUOUS
10
1.18067
20
1.36182
11
1.17853
21
1.35863
0
LINE
8
BLACK
6
CONTINUOUS
10
1.17853
20
1.35863
11
1.17534
21
1.3565
0
LINE
8
BLACK
6
CONTINUOUS
10
1.17534
20
1.3565
11
1.17157
21
1.35575
0
LINE
8
BLACK
6
CONTINUOUS
10
1.17157
20
1.35575
11
1.13614
21
1.35575
0
LINE
8
BLACK
6
CONTINUOUS
10
1.13614
20
1.35575
11
1.13238
21
1.3565
0
LINE
8
BLACK
6
CONTINUOUS
10
1.13238
20
1.3565
11
1.12918
21
1.35863
0
LINE
8
BLACK
6
CONTINUOUS
10
1.12918
20
1.35863
11
1.12705
21
1.36182
0
LINE
8
BLACK
6
CONTINUOUS
10
1.12705
20
1.36182
11
1.1263
21
1.36559
0
LINE
8
BLACK
6
CONTINUOUS
10
1.1263
20
1.36559
11
1.1263
21
1.38626
0
LINE
8
BLACK
6
CONTINUOUS
10
1.1263
20
1.38626
11
1.12705
21
1.39003
0
LINE
8
BLACK
6
CONTINUOUS
10
1.12705
20
1.39003
11
1.12918
21
1.39322
0
LINE
8
BLACK
6
CONTINUOUS
10
1.12918
20
1.39322
11
1.13238
21
1.39535
0
LINE
8
BLACK
6
CONTINUOUS
10
1.13238
20
1.39535
11
1.13614
21
1.3961
0
LINE
8
BLACK
6
CONTINUOUS
10
1.13614
20
1.3961
11
1.17157
21
1.3961
0
LINE
8
BLACK
6
CONTINUOUS
10
1.17157
20
1.3961
11
1.17534
21
1.39535
0
LINE
8
BLACK
6
CONTINUOUS
10
1.29148
20
1.39535
11
1.29468
21
1.39322
0
LINE
8
BLACK
6
CONTINUOUS
10
1.29468
20
1.39322
11
1.29681
21
1.39003
0
LINE
8
BLACK
6
CONTINUOUS
10
1.29681
20
1.39003
11
1.29756
21
1.38626
0
LINE
8
BLACK
6
CONTINUOUS
10
1.29756
20
1.38626
11
1.29756
21
1.36559
0
LINE
8
BLACK
6
CONTINUOUS
10
1.29756
20
1.36559
11
1.29681
21
1.36182
0
LINE
8
BLACK
6
CONTINUOUS
10
1.29681
20
1.36182
11
1.29468
21
1.35863
0
LINE
8
BLACK
6
CONTINUOUS
10
1.29468
20
1.35863
11
1.29148
21
1.3565
0
LINE
8
BLACK
6
CONTINUOUS
10
1.29148
20
1.3565
11
1.28772
21
1.35575
0
LINE
8
BLACK
6
CONTINUOUS
10
1.28772
20
1.35575
11
1.25228
21
1.35575
0
LINE
8
BLACK
6
CONTINUOUS
10
1.25228
20
1.35575
11
1.24852
21
1.3565
0
LINE
8
BLACK
6
CONTINUOUS
10
1.24852
20
1.3565
11
1.24532
21
1.35863
0
LINE
8
BLACK
6
CONTINUOUS
10
1.24532
20
1.35863
11
1.24319
21
1.36182
0
LINE
8
BLACK
6
CONTINUOUS
10
1.24319
20
1.36182
11
1.24244
21
1.36559
0
LINE
8
BLACK
6
CONTINUOUS
10
1.24244
20
1.36559
11
1.24244
21
1.38626
0
LINE
8
BLACK
6
CONTINUOUS
10
1.24244
20
1.38626
11
1.24319
21
1.39003
0
LINE
8
BLACK
6
CONTINUOUS
10
1.24319
20
1.39003
11
1.24532
21
1.39322
0
LINE
8
BLACK
6
CONTINUOUS
10
1.24532
20
1.39322
11
1.24852
21
1.39535
0
LINE
8
BLACK
6
CONTINUOUS
10
1.24852
20
1.39535
11
1.25228
21
1.3961
0
LINE
8
BLACK
6
CONTINUOUS
10
1.25228
20
1.3961
11
1.28772
21
1.3961
0
LINE
8
BLACK
6
CONTINUOUS
10
1.28772
20
1.3961
11
1.29148
21
1.39535
0
LINE
8
BLACK
6
CONTINUOUS
10
0.42051
20
1.71632
11
0.433874
21
1.71315
0
LINE
8
BLACK
6
CONTINUOUS
10
0.433874
20
1.71315
11
0.446781
21
1.70845
0
LINE
8
BLACK
6
CONTINUOUS
10
0.446781
20
1.70845
11
0.459055
21
1.70229
0
LINE
8
BLACK
6
CONTINUOUS
10
0.459055
20
1.70229
11
0.470531
21
1.69474
0
LINE
8
BLACK
6
CONTINUOUS
10
0.470531
20
1.69474
11
0.481052
21
1.68591
0
LINE
8
BLACK
6
CONTINUOUS
10
0.481052
20
1.68591
11
0.490478
21
1.67592
0
LINE
8
BLACK
6
CONTINUOUS
10
0.490478
20
1.67592
11
0.49868
21
1.6649
0
LINE
8
BLACK
6
CONTINUOUS
10
0.49868
20
1.6649
11
0.505547
21
1.65301
0
LINE
8
BLACK
6
CONTINUOUS
10
0.505547
20
1.65301
11
0.510987
21
1.6404
0
LINE
8
BLACK
6
CONTINUOUS
10
0.510987
20
1.6404
11
0.514927
21
1.62724
0
LINE
8
BLACK
6
CONTINUOUS
10
0.514927
20
1.62724
11
0.517312
21
1.61371
0
LINE
8
BLACK
6
CONTINUOUS
10
0.517312
20
1.61371
11
0.51811
21
1.6
0
LINE
8
BLACK
6
CONTINUOUS
10
0.51811
20
1.6
11
0.517312
21
1.58629
0
LINE
8
BLACK
6
CONTINUOUS
10
0.517312
20
1.58629
11
0.514927
21
1.57276
0
LINE
8
BLACK
6
CONTINUOUS
10
0.514927
20
1.57276
11
0.510987
21
1.5596
0
LINE
8
BLACK
6
CONTINUOUS
10
0.510987
20
1.5596
11
0.505547
21
1.54699
0
LINE
8
BLACK
6
CONTINUOUS
10
0.505547
20
1.54699
11
0.49868
21
1.5351
0
LINE
8
BLACK
6
CONTINUOUS
10
0.49868
20
1.5351
11
0.490478
21
1.52408
0
LINE
8
BLACK
6
CONTINUOUS
10
0.490478
20
1.52408
11
0.481052
21
1.51409
0
LINE
8
BLACK
6
CONTINUOUS
10
0.481052
20
1.51409
11
0.470531
21
1.50526
0
LINE
8
BLACK
6
CONTINUOUS
10
0.470531
20
1.50526
11
0.459055
21
1.49771
0
LINE
8
BLACK
6
CONTINUOUS
10
0.459055
20
1.49771
11
0.446781
21
1.49155
0
LINE
8
BLACK
6
CONTINUOUS
10
0.446781
20
1.49155
11
0.433874
21
1.48685
0
LINE
8
BLACK
6
CONTINUOUS
10
0.433874
20
1.48685
11
0.42051
21
1.48368
0
LINE
8
BLACK
6
CONTINUOUS
10
0.42051
20
1.48368
11
0.406867
21
1.48209
0
LINE
8
BLACK
6
CONTINUOUS
10
0.406867
20
1.48209
11
0.393133
21
1.48209
0
LINE
8
BLACK
6
CONTINUOUS
10
0.393133
20
1.48209
11
0.37949
21
1.48368
0
LINE
8
BLACK
6
CONTINUOUS
10
0.37949
20
1.48368
11
0.366126
21
1.48685
0
LINE
8
BLACK
6
CONTINUOUS
10
0.366126
20
1.48685
11
0.353219
21
1.49155
0
LINE
8
BLACK
6
CONTINUOUS
10
0.353219
20
1.49155
11
0.340945
21
1.49771
0
LINE
8
BLACK
6
CONTINUOUS
10
0.340945
20
1.49771
11
0.329469
21
1.50526
0
LINE
8
BLACK
6
CONTINUOUS
10
0.329469
20
1.50526
11
0.318948
21
1.51409
0
LINE
8
BLACK
6
CONTINUOUS
10
0.318948
20
1.51409
11
0.309522
21
1.52408
0
LINE
8
BLACK
6
CONTINUOUS
10
0.309522
20
1.52408
11
0.30132
21
1.5351
0
LINE
8
BLACK
6
CONTINUOUS
10
0.30132
20
1.5351
11
0.294453
21
1.54699
0
LINE
8
BLACK
6
CONTINUOUS
10
0.294453
20
1.54699
11
0.289013
21
1.5596
0
LINE
8
BLACK
6
CONTINUOUS
10
0.289013
20
1.5596
11
0.285073
21
1.57276
0
LINE
8
BLACK
6
CONTINUOUS
10
0.285073
20
1.57276
11
0.282688
21
1.58629
0
LINE
8
BLACK
6
CONTINUOUS
10
0.282688
20
1.58629
11
0.28189
21
1.6
0
LINE
8
BLACK
6
CONTINUOUS
10
0.28189
20
1.6
11
0.282688
21
1.61371
0
LINE
8
BLACK
6
CONTINUOUS
10
0.282688
20
1.61371
11
0.285073
21
1.62724
0
LINE
8
BLACK
6
CONTINUOUS
10
0.285073
20
1.62724
11
0.289013
21
1.6404
0
LINE
8
BLACK
6
CONTINUOUS
10
0.289013
20
1.6404
11
0.294453
21
1.65301
0
LINE
8
BLACK
6
CONTINUOUS
10
0.294453
20
1.65301
11
0.30132
21
1.6649
0
LINE
8
BLACK
6
CONTINUOUS
10
0.30132
20
1.6649
11
0.309522
21
1.67592
0
LINE
8
BLACK
6
CONTINUOUS
10
0.309522
20
1.67592
11
0.318948
21
1.68591
0
LINE
8
BLACK
6
CONTINUOUS
10
0.318948
20
1.68591
11
0.329469
21
1.69474
0
LINE
8
BLACK
6
CONTINUOUS
10
0.329469
20
1.69474
11
0.340945
21
1.70229
0
LINE
8
BLACK
6
CONTINUOUS
10
0.340945
20
1.70229
11
0.353219
21
1.70845
0
LINE
8
BLACK
6
CONTINUOUS
10
0.353219
20
1.70845
11
0.366126
21
1.71315
0
LINE
8
BLACK
6
CONTINUOUS
10
0.366126
20
1.71315
11
0.37949
21
1.71632
0
LINE
8
BLACK
6
CONTINUOUS
10
0.37949
20
1.71632
11
0.393133
21
1.71791
0
LINE
8
BLACK
6
CONTINUOUS
10
0.393133
20
1.71791
11
0.406867
21
1.71791
0
LINE
8
BLACK
6
CONTINUOUS
10
0.406867
20
1.71791
11
0.42051
21
1.71632
0
LINE
8
BLACK
6
CONTINUOUS
10
1.62051
20
1.71632
11
1.63387
21
1.71315
0
LINE
8
BLACK
6
CONTINUOUS
10
1.63387
20
1.71315
11
1.64678
21
1.70845
0
LINE
8
BLACK
6
CONTINUOUS
10
1.64678
20
1.70845
11
1.65906
21
1.70229
0
LINE
8
BLACK
6
CONTINUOUS
10
1.65906
20
1.70229
11
1.67053
21
1.69474
0
LINE
8
BLACK
6
CONTINUOUS
10
1.67053
20
1.69474
11
1.68105
21
1.68591
0
LINE
8
BLACK
6
CONTINUOUS
10
1.68105
20
1.68591
11
1.69048
21
1.67592
0
LINE
8
BLACK
6
CONTINUOUS
10
1.69048
20
1.67592
11
1.69868
21
1.6649
0
LINE
8
BLACK
6
CONTINUOUS
10
1.69868
20
1.6649
11
1.70555
21
1.65301
0
LINE
8
BLACK
6
CONTINUOUS
10
1.70555
20
1.65301
11
1.71099
21
1.6404
0
LINE
8
BLACK
6
CONTINUOUS
10
1.71099
20
1.6404
11
1.71493
21
1.62724
0
LINE
8
BLACK
6
CONTINUOUS
10
1.71493
20
1.62724
11
1.71731
21
1.61371
0
LINE
8
BLACK
6
CONTINUOUS
10
1.71731
20
1.61371
11
1.71811
21
1.6
0
LINE
8
BLACK
6
CONTINUOUS
10
1.71811
20
1.6
11
1.71731
21
1.58629
0
LINE
8
BLACK
6
CONTINUOUS
10
1.71731
20
1.58629
11
1.71493
21
1.57276
0
LINE
8
BLACK
6
CONTINUOUS
10
1.71493
20
1.57276
11
1.71099
21
1.5596
0
LINE
8
BLACK
6
CONTINUOUS
10
1.71099
20
1.5596
11
1.70555
21
1.54699
0
LINE
8
BLACK
6
CONTINUOUS
10
1.70555
20
1.54699
11
1.69868
21
1.5351
0
LINE
8
BLACK
6
CONTINUOUS
10
1.69868
20
1.5351
11
1.69048
21
1.52408
0
LINE
8
BLACK
6
CONTINUOUS
10
1.69048
20
1.52408
11
1.68105
21
1.51409
0
LINE
8
BLACK
6
CONTINUOUS
10
1.68105
20
1.51409
11
1.67053
21
1.50526
0
LINE
8
BLACK
6
CONTINUOUS
10
1.67053
20
1.50526
11
1.65906
21
1.49771
0
LINE
8
BLACK
6
CONTINUOUS
10
1.65906
20
1.49771
11
1.64678
21
1.49155
0
LINE
8
BLACK
6
CONTINUOUS
10
1.64678
20
1.49155
11
1.63387
21
1.48685
0
LINE
8
BLACK
6
CONTINUOUS
10
1.63387
20
1.48685
11
1.62051
21
1.48368
0
LINE
8
BLACK
6
CONTINUOUS
10
1.62051
20
1.48368
11
1.60687
21
1.48209
0
LINE
8
BLACK
6
CONTINUOUS
10
1.60687
20
1.48209
11
1.59313
21
1.48209
0
LINE
8
BLACK
6
CONTINUOUS
10
1.59313
20
1.48209
11
1.57949
21
1.48368
0
LINE
8
BLACK
6
CONTINUOUS
10
1.57949
20
1.48368
11
1.56613
21
1.48685
0
LINE
8
BLACK
6
CONTINUOUS
10
1.56613
20
1.48685
11
1.55322
21
1.49155
0
LINE
8
BLACK
6
CONTINUOUS
10
1.55322
20
1.49155
11
1.54094
21
1.49771
0
LINE
8
BLACK
6
CONTINUOUS
10
1.54094
20
1.49771
11
1.52947
21
1.50526
0
LINE
8
BLACK
6
CONTINUOUS
10
1.52947
20
1.50526
11
1.51895
21
1.51409
0
LINE
8
BLACK
6
CONTINUOUS
10
1.51895
20
1.51409
11
1.50952
21
1.52408
0
LINE
8
BLACK
6
CONTINUOUS
10
1.50952
20
1.52408
11
1.50132
21
1.5351
0
LINE
8
BLACK
6
CONTINUOUS
10
1.50132
20
1.5351
11
1.49445
21
1.54699
0
LINE
8
BLACK
6
CONTINUOUS
10
1.49445
20
1.54699
11
1.48901
21
1.5596
0
LINE
8
BLACK
6
CONTINUOUS
10
1.48901
20
1.5596
11
1.48507
21
1.57276
0
LINE
8
BLACK
6
CONTINUOUS
10
1.48507
20
1.57276
11
1.48269
21
1.58629
0
LINE
8
BLACK
6
CONTINUOUS
10
1.48269
20
1.58629
11
1.48189
21
1.6
0
LINE
8
BLACK
6
CONTINUOUS
10
1.48189
20
1.6
11
1.48269
21
1.61371
0
LINE
8
BLACK
6
CONTINUOUS
10
1.48269
20
1.61371
11
1.48507
21
1.62724
0
LINE
8
BLACK
6
CONTINUOUS
10
1.48507
20
1.62724
11
1.48901
21
1.6404
0
LINE
8
BLACK
6
CONTINUOUS
10
1.48901
20
1.6404
11
1.49445
21
1.65301
0
LINE
8
BLACK
6
CONTINUOUS
10
1.49445
20
1.65301
11
1.50132
21
1.6649
0
LINE
8
BLACK
6
CONTINUOUS
10
1.50132
20
1.6649
11
1.50952
21
1.67592
0
LINE
8
BLACK
6
CONTINUOUS
10
1.50952
20
1.67592
11
1.51895
21
1.68591
0
LINE
8
BLACK
6
CONTINUOUS
10
1.51895
20
1.68591
11
1.52947
21
1.69474
0
LINE
8
BLACK
6
CONTINUOUS
10
1.52947
20
1.69474
11
1.54094
21
1.70229
0
LINE
8
BLACK
6
CONTINUOUS
10
1.54094
20
1.70229
11
1.55322
21
1.70845
0
LINE
8
BLACK
6
CONTINUOUS
10
1.55322
20
1.70845
11
1.56613
21
1.71315
0
LINE
8
BLACK
6
CONTINUOUS
10
1.56613
20
1.71315
11
1.57949
21
1.71632
0
LINE
8
BLACK
6
CONTINUOUS
10
1.57949
20
1.71632
11
1.59313
21
1.71791
0
LINE
8
BLACK
6
CONTINUOUS
10
1.59313
20
1.71791
11
1.60687
21
1.71791
0
LINE
8
BLACK
6
CONTINUOUS
10
1.60687
20
1.71791
11
1.62051
21
1.71632
0
LINE
8
BLACK
6
CONTINUOUS
10
0.93
20
1.49
11
0.87
21
1.49
0
LINE
8
BLACK
6
CONTINUOUS
10
0.87
20
1.49
11
0.87
21
1.55
0
LINE
8
BLACK
6
CONTINUOUS
10
0.87
20
1.55
11
0.93
21
1.55
0
LINE
8
BLACK
6
CONTINUOUS
10
0.93
20
1.55
11
0.93
21
1.49
0
LINE
8
BLACK
6
CONTINUOUS
10
1.03
20
1.49
11
0.97
21
1.49
0
LINE
8
BLACK
6
CONTINUOUS
10
0.97
20
1.49
11
0.97
21
1.55
0
LINE
8
BLACK
6
CONTINUOUS
10
0.97
20
1.55
11
1.03
21
1.55
0
LINE
8
BLACK
6
CONTINUOUS
10
1.03
20
1.55
11
1.03
21
1.49
0
LINE
8
BLACK
6
CONTINUOUS
10
1.13
20
1.49
11
1.07
21
1.49
0
LINE
8
BLACK
6
CONTINUOUS
10
1.07
20
1.49
11
1.07
21
1.55
0
LINE
8
BLACK
6
CONTINUOUS
10
1.07
20
1.55
11
1.13
21
1.55
0
LINE
8
BLACK
6
CONTINUOUS
10
1.13
20
1.55
11
1.13
21
1.49
0
LINE
8
BLACK
6
CONTINUOUS
10
0.93
20
1.59
11
0.87
21
1.59
0
LINE
8
BLACK
6
CONTINUOUS
10
0.87
20
1.59
11
0.87
21
1.65
0
LINE
8
BLACK
6
CONTINUOUS
10
0.87
20
1.65
11
0.93
21
1.65
0
LINE
8
BLACK
6
CONTINUOUS
10
0.93
20
1.65
11
0.93
21
1.59
0
LINE
8
BLACK
6
CONTINUOUS
10
1.03
20
1.59
11
0.97
21
1.59
0
LINE
8
BLACK
6
CONTINUOUS
10
0.97
20
1.59
11
0.97
21
1.65
0
LINE
8
BLACK
6
CONTINUOUS
10
0.97
20
1.65
11
1.03
21
1.65
0
LINE
8
BLACK
6
CONTINUOUS
10
1.03
20
1.65
11
1.03
21
1.59
0
LINE
8
BLACK
6
CONTINUOUS
10
1.13
20
1.59
11
1.07
21
1.59
0
LINE
8
BLACK
6
CONTINUOUS
10
1.07
20
1.59
11
1.07
21
1.65
0
LINE
8
BLACK
6
CONTINUOUS
10
1.07
20
1.65
11
1.13
21
1.65
0
LINE
8
BLACK
6
CONTINUOUS
10
1.13
20
1.65
11
1.13
21
1.59
0
CIRCLE
8
BLACK
10
1.6
20
1.6
40
0.00688976
0
CIRCLE
8
BLACK
10
1.6
20
0.4
40
0.00688976
0
CIRCLE
8
BLACK
10
0.35
20
0.98
40
0.00688976
0
CIRCLE
8
BLACK
10
0.45
20
0.98
40
0.00688976
0
CIRCLE
8
BLACK
10
0.55
20
0.98
40
0.00688976
0
CIRCLE
8
BLACK
10
0.95
20
0.39
40
0.00688976
0
CIRCLE
8
BLACK
10
0.95
20
0.49
40
0.00688976
0
CIRCLE
8
BLACK
10
1.05
20
0.39
40
0.00688976
0
CIRCLE
8
BLACK
10
1.05
20
0.49
40
0.00688976
0
CIRCLE
8
BLACK
10
1.15
20
0.39
40
0.00688976
0
CIRCLE
8
BLACK
10
1.15
20
0.49
40
0.00688976
0
CIRCLE
8
BLACK
10
0.35
20
0.88
40
0.00688976
0
CIRCLE
8
BLACK
10
0.45
20
0.88
40
0.00688976
0
CIRCLE
8
BLACK
10
0.55
20
0.88
40
0.00688976
0
CIRCLE
8
BLACK
10
1.1
20
1.62
40
0.00688976
0
CIRCLE
8
BLACK
10
1.1
20
1.52
40
0.00688976
0
CIRCLE
8
BLACK
10
1
20
1.62
40
0.00688976
0
CIRCLE
8
BLACK
10
1
20
1.52
40
0.00688976
0
CIRCLE
8
BLACK
10
0.9
20
1.62
40
0.00688976
0
CIRCLE
8
BLACK
10
0.9
20
1.52
40
0.00688976
0
CIRCLE
8
BLACK
10
0.4
20
0.4
40
0.00688976
0
CIRCLE
8
BLACK
10
0.35
20
0.68
40
0.00688976
0
CIRCLE
8
BLACK
10
0.45
20
0.68
40
0.00688976
0
CIRCLE
8
BLACK
10
0.55
20
0.68
40
0.00688976
0
CIRCLE
8
BLACK
10
0.35
20
0.78
40
0.00688976
0
CIRCLE
8
BLACK
10
0.45
20
0.78
40
0.00688976
0
CIRCLE
8
BLACK
10
0.55
20
0.78
40
0.00688976
0
CIRCLE
8
BLACK
10
0.4
20
1.6
40
0.00688976
0
CIRCLE
8
BLACK
10
1.02
20
1.1
40
0.00688976
0
CIRCLE
8
BLACK
10
1.02
20
1.2
40
0.00688976
0
CIRCLE
8
BLACK
10
0.82
20
1.1
40
0.00688976
0
CIRCLE
8
BLACK
10
0.82
20
1.2
40
0.00688976
0
CIRCLE
8
BLACK
10
0.92
20
1.1
40
0.00688976
0
CIRCLE
8
BLACK
10
0.92
20
1.2
40
0.00688976
  0
ENDSEC
  0
EOF
