  0
SECTION
  2
HEADER
  9
$ANGBASE
  50
0.0
  9
$ANGDIR
  70
1
  9
$MEASUREMENT
  70
0
  0
ENDSEC
  0
SECTION
  2
TABLES
  0
TABLE
  2
LTYPE
  70
4
  0
LTYPE
  5
40F
  2
CONTINUOUS
  70
0
  3
Solid line
  72
65
  73
0
  40
0.0
  0
LTYPE
  5
410
  2
DASHDOT
 70
0
  3
Dash Dot ____ _ ____ _
 72
65
 73
4
 40
2.0
 49
1.25
 49
-0.25
 49
0.25
 49
-0.25
  0
LTYPE
  5
411
  2
DASHED
 70
0
  3
Dashed __ __ __ __ __
 72
65
 73
2
 40
0.75
 49
0.5
 49
-0.25
  0
LTYPE
  5
43B
  2
DOTTED
 70
0
  3
Dotted .  .  .  .
 72
65
 73
2
 40
0.2
 49
0.0
 49
-0.2
  0
ENDTAB
  0
TABLE
  2
STYLE
  70
4
  0
STYLE
  2
KICAD
  70
0
  40
0
  41
1
  42
1
  50
0
  71
0
  3
isocp.shx
  0
STYLE
  2
KICADB
  70
0
  40
0
  41
1
  42
1
  50
0
  71
0
  3
isocp.shx
  0
STYLE
  2
KICADI
  70
0
  40
0
  41
1
  42
1
  50
15
  71
0
  3
isocp.shx
  0
STYLE
  2
KICADBI
  70
0
  40
0
  41
1
  42
1
  50
15
  71
0
  3
isocp.shx
  0
ENDTAB
  0
TABLE
  2
LAYER
  70
1
  0
LAYER
  2
BLACK
  70
0
  62
7
  6
CONTINUOUS
  0
ENDTAB
  0
ENDSEC
  0
SECTION
  2
ENTITIES
0
LINE
8
BLACK
6
CONTINUOUS
10
1.20038
20
0.542885
11
1.20051
21
0.542908
0
LINE
8
BLACK
6
CONTINUOUS
10
1.20051
20
0.542908
11
1.20063
21
0.542842
0
LINE
8
BLACK
6
CONTINUOUS
10
1.20063
20
0.542842
11
1.20101
21
0.542775
0
LINE
8
BLACK
6
CONTINUOUS
10
1.20101
20
0.542775
11
1.2016
21
0.542282
0
LINE
8
BLACK
6
CONTINUOUS
10
1.2016
20
0.542282
11
1.20226
21
0.541898
0
LINE
8
BLACK
6
CONTINUOUS
10
1.20226
20
0.541898
11
1.20235
21
0.541648
0
LINE
8
BLACK
6
CONTINUOUS
10
1.20235
20
0.541648
11
1.20256
21
0.541476
0
LINE
8
BLACK
6
CONTINUOUS
10
1.20256
20
0.541476
11
1.20269
21
0.540721
0
LINE
8
BLACK
6
CONTINUOUS
10
1.20269
20
0.540721
11
1.20295
21
0.54
0
LINE
8
BLACK
6
CONTINUOUS
10
1.20295
20
0.54
11
1.20295
21
0.34
0
LINE
8
BLACK
6
CONTINUOUS
10
1.20295
20
0.34
11
1.20289
21
0.339616
0
LINE
8
BLACK
6
CONTINUOUS
10
1.20289
20
0.339616
11
1.20291
21
0.339487
0
LINE
8
BLACK
6
CONTINUOUS
10
1.20291
20
0.339487
11
1.20284
21
0.339374
0
LINE
8
BLACK
6
CONTINUOUS
10
1.20284
20
0.339374
11
1.20277
21
0.33899
0
LINE
8
BLACK
6
CONTINUOUS
10
1.20277
20
0.33899
11
1.20228
21
0.338402
0
LINE
8
BLACK
6
CONTINUOUS
10
1.20228
20
0.338402
11
1.2019
21
0.337738
0
LINE
8
BLACK
6
CONTINUOUS
10
1.2019
20
0.337738
11
1.20165
21
0.337647
0
LINE
8
BLACK
6
CONTINUOUS
10
1.20165
20
0.337647
11
1.20148
21
0.337443
0
LINE
8
BLACK
6
CONTINUOUS
10
1.20148
20
0.337443
11
1.20072
21
0.33731
0
LINE
8
BLACK
6
CONTINUOUS
10
1.20072
20
0.33731
11
1.2
21
0.337047
0
LINE
8
BLACK
6
CONTINUOUS
10
1.2
20
0.337047
11
0.9
21
0.337047
0
LINE
8
BLACK
6
CONTINUOUS
10
0.9
20
0.337047
11
0.899616
21
0.337115
0
LINE
8
BLACK
6
CONTINUOUS
10
0.899616
20
0.337115
11
0.899487
21
0.337092
0
LINE
8
BLACK
6
CONTINUOUS
10
0.899487
20
0.337092
11
0.899374
21
0.337158
0
LINE
8
BLACK
6
CONTINUOUS
10
0.899374
20
0.337158
11
0.89899
21
0.337225
0
LINE
8
BLACK
6
CONTINUOUS
10
0.89899
20
0.337225
11
0.898402
21
0.337718
0
LINE
8
BLACK
6
CONTINUOUS
10
0.898402
20
0.337718
11
0.897738
21
0.338102
0
LINE
8
BLACK
6
CONTINUOUS
10
0.897738
20
0.338102
11
0.897647
21
0.338352
0
LINE
8
BLACK
6
CONTINUOUS
10
0.897647
20
0.338352
11
0.897443
21
0.338524
0
LINE
8
BLACK
6
CONTINUOUS
10
0.897443
20
0.338524
11
0.89731
21
0.339279
0
LINE
8
BLACK
6
CONTINUOUS
10
0.89731
20
0.339279
11
0.897047
21
0.34
0
LINE
8
BLACK
6
CONTINUOUS
10
0.897047
20
0.34
11
0.897047
21
0.54
0
LINE
8
BLACK
6
CONTINUOUS
10
0.897047
20
0.54
11
0.897115
21
0.540384
0
LINE
8
BLACK
6
CONTINUOUS
10
0.897115
20
0.540384
11
0.897092
21
0.540513
0
LINE
8
BLACK
6
CONTINUOUS
10
0.897092
20
0.540513
11
0.897158
21
0.540626
0
LINE
8
BLACK
6
CONTINUOUS
10
0.897158
20
0.540626
11
0.897225
21
0.54101
0
LINE
8
BLACK
6
CONTINUOUS
10
0.897225
20
0.54101
11
0.897718
21
0.541598
0
LINE
8
BLACK
6
CONTINUOUS
10
0.897718
20
0.541598
11
0.898102
21
0.542262
0
LINE
8
BLACK
6
CONTINUOUS
10
0.898102
20
0.542262
11
0.898352
21
0.542353
0
LINE
8
BLACK
6
CONTINUOUS
10
0.898352
20
0.542353
11
0.898524
21
0.542557
0
LINE
8
BLACK
6
CONTINUOUS
10
0.898524
20
0.542557
11
0.899279
21
0.54269
0
LINE
8
BLACK
6
CONTINUOUS
10
0.899279
20
0.54269
11
0.9
21
0.542953
0
LINE
8
BLACK
6
CONTINUOUS
10
0.9
20
0.542953
11
1.2
21
0.542953
0
LINE
8
BLACK
6
CONTINUOUS
10
1.2
20
0.542953
11
1.20038
21
0.542885
0
LINE
8
BLACK
6
CONTINUOUS
10
0.902953
20
0.537047
11
0.902953
21
0.342953
0
LINE
8
BLACK
6
CONTINUOUS
10
0.902953
20
0.342953
11
1.19705
21
0.342953
0
LINE
8
BLACK
6
CONTINUOUS
10
1.19705
20
0.342953
11
1.19705
21
0.537047
0
LINE
8
BLACK
6
CONTINUOUS
10
1.19705
20
0.537047
11
0.902953
21
0.537047
0
LINE
8
BLACK
6
CONTINUOUS
10
0.602885
20
0.629616
11
0.602908
21
0.629487
0
LINE
8
BLACK
6
CONTINUOUS
10
0.602908
20
0.629487
11
0.602842
21
0.629374
0
LINE
8
BLACK
6
CONTINUOUS
10
0.602842
20
0.629374
11
0.602775
21
0.62899
0
LINE
8
BLACK
6
CONTINUOUS
10
0.602775
20
0.62899
11
0.602282
21
0.628402
0
LINE
8
BLACK
6
CONTINUOUS
10
0.602282
20
0.628402
11
0.601898
21
0.627738
0
LINE
8
BLACK
6
CONTINUOUS
10
0.601898
20
0.627738
11
0.601648
21
0.627647
0
LINE
8
BLACK
6
CONTINUOUS
10
0.601648
20
0.627647
11
0.601476
21
0.627443
0
LINE
8
BLACK
6
CONTINUOUS
10
0.601476
20
0.627443
11
0.600721
21
0.62731
0
LINE
8
BLACK
6
CONTINUOUS
10
0.600721
20
0.62731
11
0.6
21
0.627047
0
LINE
8
BLACK
6
CONTINUOUS
10
0.6
20
0.627047
11
0.3
21
0.627047
0
LINE
8
BLACK
6
CONTINUOUS
10
0.3
20
0.627047
11
0.299616
21
0.627115
0
LINE
8
BLACK
6
CONTINUOUS
10
0.299616
20
0.627115
11
0.299487
21
0.627092
0
LINE
8
BLACK
6
CONTINUOUS
10
0.299487
20
0.627092
11
0.299374
21
0.627158
0
LINE
8
BLACK
6
CONTINUOUS
10
0.299374
20
0.627158
11
0.29899
21
0.627225
0
LINE
8
BLACK
6
CONTINUOUS
10
0.29899
20
0.627225
11
0.298402
21
0.627718
0
LINE
8
BLACK
6
CONTINUOUS
10
0.298402
20
0.627718
11
0.297738
21
0.628102
0
LINE
8
BLACK
6
CONTINUOUS
10
0.297738
20
0.628102
11
0.297647
21
0.628352
0
LINE
8
BLACK
6
CONTINUOUS
10
0.297647
20
0.628352
11
0.297443
21
0.628524
0
LINE
8
BLACK
6
CONTINUOUS
10
0.297443
20
0.628524
11
0.29731
21
0.629279
0
LINE
8
BLACK
6
CONTINUOUS
10
0.29731
20
0.629279
11
0.297047
21
0.63
0
LINE
8
BLACK
6
CONTINUOUS
10
0.297047
20
0.63
11
0.297047
21
1.03
0
LINE
8
BLACK
6
CONTINUOUS
10
0.297047
20
1.03
11
0.297115
21
1.03038
0
LINE
8
BLACK
6
CONTINUOUS
10
0.297115
20
1.03038
11
0.297092
21
1.03051
0
LINE
8
BLACK
6
CONTINUOUS
10
0.297092
20
1.03051
11
0.297158
21
1.03063
0
LINE
8
BLACK
6
CONTINUOUS
10
0.297158
20
1.03063
11
0.297225
21
1.03101
0
LINE
8
BLACK
6
CONTINUOUS
10
0.297225
20
1.03101
11
0.297718
21
1.0316
0
LINE
8
BLACK
6
CONTINUOUS
10
0.297718
20
1.0316
11
0.298102
21
1.03226
0
LINE
8
BLACK
6
CONTINUOUS
10
0.298102
20
1.03226
11
0.298352
21
1.03235
0
LINE
8
BLACK
6
CONTINUOUS
10
0.298352
20
1.03235
11
0.298524
21
1.03256
0
LINE
8
BLACK
6
CONTINUOUS
10
0.298524
20
1.03256
11
0.299279
21
1.03269
0
LINE
8
BLACK
6
CONTINUOUS
10
0.299279
20
1.03269
11
0.3
21
1.03295
0
LINE
8
BLACK
6
CONTINUOUS
10
0.3
20
1.03295
11
0.6
21
1.03295
0
LINE
8
BLACK
6
CONTINUOUS
10
0.6
20
1.03295
11
0.600384
21
1.03289
0
LINE
8
BLACK
6
CONTINUOUS
10
0.600384
20
1.03289
11
0.600513
21
1.03291
0
LINE
8
BLACK
6
CONTINUOUS
10
0.600513
20
1.03291
11
0.600626
21
1.03284
0
LINE
8
BLACK
6
CONTINUOUS
10
0.600626
20
1.03284
11
0.60101
21
1.03277
0
LINE
8
BLACK
6
CONTINUOUS
10
0.60101
20
1.03277
11
0.601598
21
1.03228
0
LINE
8
BLACK
6
CONTINUOUS
10
0.601598
20
1.03228
11
0.602262
21
1.0319
0
LINE
8
BLACK
6
CONTINUOUS
10
0.602262
20
1.0319
11
0.602353
21
1.03165
0
LINE
8
BLACK
6
CONTINUOUS
10
0.602353
20
1.03165
11
0.602557
21
1.03148
0
LINE
8
BLACK
6
CONTINUOUS
10
0.602557
20
1.03148
11
0.60269
21
1.03072
0
LINE
8
BLACK
6
CONTINUOUS
10
0.60269
20
1.03072
11
0.602953
21
1.03
0
LINE
8
BLACK
6
CONTINUOUS
10
0.602953
20
1.03
11
0.602953
21
0.63
0
LINE
8
BLACK
6
CONTINUOUS
10
0.602953
20
0.63
11
0.602885
21
0.629616
0
LINE
8
BLACK
6
CONTINUOUS
10
0.302953
20
0.727047
11
0.302953
21
0.632953
0
LINE
8
BLACK
6
CONTINUOUS
10
0.302953
20
0.632953
11
0.597047
21
0.632953
0
LINE
8
BLACK
6
CONTINUOUS
10
0.597047
20
0.632953
11
0.597047
21
0.727047
0
LINE
8
BLACK
6
CONTINUOUS
10
0.597047
20
0.727047
11
0.302953
21
0.727047
0
LINE
8
BLACK
6
CONTINUOUS
10
0.302953
20
0.827047
11
0.302953
21
0.732953
0
LINE
8
BLACK
6
CONTINUOUS
10
0.302953
20
0.732953
11
0.597047
21
0.732953
0
LINE
8
BLACK
6
CONTINUOUS
10
0.597047
20
0.732953
11
0.597047
21
0.827047
0
LINE
8
BLACK
6
CONTINUOUS
10
0.597047
20
0.827047
11
0.302953
21
0.827047
0
LINE
8
BLACK
6
CONTINUOUS
10
0.302953
20
0.927047
11
0.302953
21
0.832953
0
LINE
8
BLACK
6
CONTINUOUS
10
0.302953
20
0.832953
11
0.597047
21
0.832953
0
LINE
8
BLACK
6
CONTINUOUS
10
0.597047
20
0.832953
11
0.597047
21
0.927047
0
LINE
8
BLACK
6
CONTINUOUS
10
0.597047
20
0.927047
11
0.302953
21
0.927047
0
LINE
8
BLACK
6
CONTINUOUS
10
0.302953
20
1.02705
11
0.302953
21
0.932953
0
LINE
8
BLACK
6
CONTINUOUS
10
0.302953
20
0.932953
11
0.597047
21
0.932953
0
LINE
8
BLACK
6
CONTINUOUS
10
0.597047
20
0.932953
11
0.597047
21
1.02705
0
LINE
8
BLACK
6
CONTINUOUS
10
0.597047
20
1.02705
11
0.302953
21
1.02705
0
LINE
8
BLACK
6
CONTINUOUS
10
0.970384
20
1.25289
11
0.970513
21
1.25291
0
LINE
8
BLACK
6
CONTINUOUS
10
0.970513
20
1.25291
11
0.970626
21
1.25284
0
LINE
8
BLACK
6
CONTINUOUS
10
0.970626
20
1.25284
11
0.97101
21
1.25277
0
LINE
8
BLACK
6
CONTINUOUS
10
0.97101
20
1.25277
11
0.971598
21
1.25228
0
LINE
8
BLACK
6
CONTINUOUS
10
0.971598
20
1.25228
11
0.972262
21
1.2519
0
LINE
8
BLACK
6
CONTINUOUS
10
0.972262
20
1.2519
11
0.972353
21
1.25165
0
LINE
8
BLACK
6
CONTINUOUS
10
0.972353
20
1.25165
11
0.972557
21
1.25148
0
LINE
8
BLACK
6
CONTINUOUS
10
0.972557
20
1.25148
11
0.97269
21
1.25072
0
LINE
8
BLACK
6
CONTINUOUS
10
0.97269
20
1.25072
11
0.972953
21
1.25
0
LINE
8
BLACK
6
CONTINUOUS
10
0.972953
20
1.25
11
0.972953
21
1.05
0
LINE
8
BLACK
6
CONTINUOUS
10
0.972953
20
1.05
11
0.972885
21
1.04962
0
LINE
8
BLACK
6
CONTINUOUS
10
0.972885
20
1.04962
11
0.972908
21
1.04949
0
LINE
8
BLACK
6
CONTINUOUS
10
0.972908
20
1.04949
11
0.972842
21
1.04937
0
LINE
8
BLACK
6
CONTINUOUS
10
0.972842
20
1.04937
11
0.972775
21
1.04899
0
LINE
8
BLACK
6
CONTINUOUS
10
0.972775
20
1.04899
11
0.972282
21
1.0484
0
LINE
8
BLACK
6
CONTINUOUS
10
0.972282
20
1.0484
11
0.971898
21
1.04774
0
LINE
8
BLACK
6
CONTINUOUS
10
0.971898
20
1.04774
11
0.971648
21
1.04765
0
LINE
8
BLACK
6
CONTINUOUS
10
0.971648
20
1.04765
11
0.971476
21
1.04744
0
LINE
8
BLACK
6
CONTINUOUS
10
0.971476
20
1.04744
11
0.970721
21
1.04731
0
LINE
8
BLACK
6
CONTINUOUS
10
0.970721
20
1.04731
11
0.97
21
1.04705
0
LINE
8
BLACK
6
CONTINUOUS
10
0.97
20
1.04705
11
0.88
21
1.04705
0
LINE
8
BLACK
6
CONTINUOUS
10
0.88
20
1.04705
11
0.87899
21
1.04723
0
LINE
8
BLACK
6
CONTINUOUS
10
0.87899
20
1.04723
11
0.877443
21
1.04852
0
LINE
8
BLACK
6
CONTINUOUS
10
0.877443
20
1.04852
11
0.877092
21
1.05051
0
LINE
8
BLACK
6
CONTINUOUS
10
0.877092
20
1.05051
11
0.878102
21
1.05226
0
LINE
8
BLACK
6
CONTINUOUS
10
0.878102
20
1.05226
11
0.88
21
1.05295
0
LINE
8
BLACK
6
CONTINUOUS
10
0.88
20
1.05295
11
0.967047
21
1.05295
0
LINE
8
BLACK
6
CONTINUOUS
10
0.967047
20
1.05295
11
0.967047
21
1.24705
0
LINE
8
BLACK
6
CONTINUOUS
10
0.967047
20
1.24705
11
0.88
21
1.24705
0
LINE
8
BLACK
6
CONTINUOUS
10
0.88
20
1.24705
11
0.87899
21
1.24723
0
LINE
8
BLACK
6
CONTINUOUS
10
0.87899
20
1.24723
11
0.877443
21
1.24852
0
LINE
8
BLACK
6
CONTINUOUS
10
0.877443
20
1.24852
11
0.877092
21
1.25051
0
LINE
8
BLACK
6
CONTINUOUS
10
0.877092
20
1.25051
11
0.878102
21
1.25226
0
LINE
8
BLACK
6
CONTINUOUS
10
0.878102
20
1.25226
11
0.88
21
1.25295
0
LINE
8
BLACK
6
CONTINUOUS
10
0.88
20
1.25295
11
0.97
21
1.25295
0
LINE
8
BLACK
6
CONTINUOUS
10
0.97
20
1.25295
11
0.970384
21
1.25289
0
LINE
8
BLACK
6
CONTINUOUS
10
0.870384
20
1.25289
11
0.870513
21
1.25291
0
LINE
8
BLACK
6
CONTINUOUS
10
0.870513
20
1.25291
11
0.870626
21
1.25284
0
LINE
8
BLACK
6
CONTINUOUS
10
0.870626
20
1.25284
11
0.87101
21
1.25277
0
LINE
8
BLACK
6
CONTINUOUS
10
0.87101
20
1.25277
11
0.871598
21
1.25228
0
LINE
8
BLACK
6
CONTINUOUS
10
0.871598
20
1.25228
11
0.872262
21
1.2519
0
LINE
8
BLACK
6
CONTINUOUS
10
0.872262
20
1.2519
11
0.872353
21
1.25165
0
LINE
8
BLACK
6
CONTINUOUS
10
0.872353
20
1.25165
11
0.872557
21
1.25148
0
LINE
8
BLACK
6
CONTINUOUS
10
0.872557
20
1.25148
11
0.87269
21
1.25072
0
LINE
8
BLACK
6
CONTINUOUS
10
0.87269
20
1.25072
11
0.872953
21
1.25
0
LINE
8
BLACK
6
CONTINUOUS
10
0.872953
20
1.25
11
0.872953
21
1.05
0
LINE
8
BLACK
6
CONTINUOUS
10
0.872953
20
1.05
11
0.872885
21
1.04962
0
LINE
8
BLACK
6
CONTINUOUS
10
0.872885
20
1.04962
11
0.872908
21
1.04949
0
LINE
8
BLACK
6
CONTINUOUS
10
0.872908
20
1.04949
11
0.872842
21
1.04937
0
LINE
8
BLACK
6
CONTINUOUS
10
0.872842
20
1.04937
11
0.872775
21
1.04899
0
LINE
8
BLACK
6
CONTINUOUS
10
0.872775
20
1.04899
11
0.872282
21
1.0484
0
LINE
8
BLACK
6
CONTINUOUS
10
0.872282
20
1.0484
11
0.871898
21
1.04774
0
LINE
8
BLACK
6
CONTINUOUS
10
0.871898
20
1.04774
11
0.871648
21
1.04765
0
LINE
8
BLACK
6
CONTINUOUS
10
0.871648
20
1.04765
11
0.871476
21
1.04744
0
LINE
8
BLACK
6
CONTINUOUS
10
0.871476
20
1.04744
11
0.870721
21
1.04731
0
LINE
8
BLACK
6
CONTINUOUS
10
0.870721
20
1.04731
11
0.87
21
1.04705
0
LINE
8
BLACK
6
CONTINUOUS
10
0.87
20
1.04705
11
0.78
21
1.04705
0
LINE
8
BLACK
6
CONTINUOUS
10
0.78
20
1.04705
11
0.77899
21
1.04723
0
LINE
8
BLACK
6
CONTINUOUS
10
0.77899
20
1.04723
11
0.777443
21
1.04852
0
LINE
8
BLACK
6
CONTINUOUS
10
0.777443
20
1.04852
11
0.777092
21
1.05051
0
LINE
8
BLACK
6
CONTINUOUS
10
0.777092
20
1.05051
11
0.778102
21
1.05226
0
LINE
8
BLACK
6
CONTINUOUS
10
0.778102
20
1.05226
11
0.78
21
1.05295
0
LINE
8
BLACK
6
CONTINUOUS
10
0.78
20
1.05295
11
0.867047
21
1.05295
0
LINE
8
BLACK
6
CONTINUOUS
10
0.867047
20
1.05295
11
0.867047
21
1.24705
0
LINE
8
BLACK
6
CONTINUOUS
10
0.867047
20
1.24705
11
0.78
21
1.24705
0
LINE
8
BLACK
6
CONTINUOUS
10
0.78
20
1.24705
11
0.77899
21
1.24723
0
LINE
8
BLACK
6
CONTINUOUS
10
0.77899
20
1.24723
11
0.777443
21
1.24852
0
LINE
8
BLACK
6
CONTINUOUS
10
0.777443
20
1.24852
11
0.777092
21
1.25051
0
LINE
8
BLACK
6
CONTINUOUS
10
0.777092
20
1.25051
11
0.778102
21
1.25226
0
LINE
8
BLACK
6
CONTINUOUS
10
0.778102
20
1.25226
11
0.78
21
1.25295
0
LINE
8
BLACK
6
CONTINUOUS
10
0.78
20
1.25295
11
0.87
21
1.25295
0
LINE
8
BLACK
6
CONTINUOUS
10
0.87
20
1.25295
11
0.870384
21
1.25289
0
LINE
8
BLACK
6
CONTINUOUS
10
1.07038
20
1.25289
11
1.07051
21
1.25291
0
LINE
8
BLACK
6
CONTINUOUS
10
1.07051
20
1.25291
11
1.07063
21
1.25284
0
LINE
8
BLACK
6
CONTINUOUS
10
1.07063
20
1.25284
11
1.07101
21
1.25277
0
LINE
8
BLACK
6
CONTINUOUS
10
1.07101
20
1.25277
11
1.0716
21
1.25228
0
LINE
8
BLACK
6
CONTINUOUS
10
1.0716
20
1.25228
11
1.07226
21
1.2519
0
LINE
8
BLACK
6
CONTINUOUS
10
1.07226
20
1.2519
11
1.07235
21
1.25165
0
LINE
8
BLACK
6
CONTINUOUS
10
1.07235
20
1.25165
11
1.07256
21
1.25148
0
LINE
8
BLACK
6
CONTINUOUS
10
1.07256
20
1.25148
11
1.07269
21
1.25072
0
LINE
8
BLACK
6
CONTINUOUS
10
1.07269
20
1.25072
11
1.07295
21
1.25
0
LINE
8
BLACK
6
CONTINUOUS
10
1.07295
20
1.25
11
1.07295
21
1.05
0
LINE
8
BLACK
6
CONTINUOUS
10
1.07295
20
1.05
11
1.07289
21
1.04962
0
LINE
8
BLACK
6
CONTINUOUS
10
1.07289
20
1.04962
11
1.07291
21
1.04949
0
LINE
8
BLACK
6
CONTINUOUS
10
1.07291
20
1.04949
11
1.07284
21
1.04937
0
LINE
8
BLACK
6
CONTINUOUS
10
1.07284
20
1.04937
11
1.07277
21
1.04899
0
LINE
8
BLACK
6
CONTINUOUS
10
1.07277
20
1.04899
11
1.07228
21
1.0484
0
LINE
8
BLACK
6
CONTINUOUS
10
1.07228
20
1.0484
11
1.0719
21
1.04774
0
LINE
8
BLACK
6
CONTINUOUS
10
1.0719
20
1.04774
11
1.07165
21
1.04765
0
LINE
8
BLACK
6
CONTINUOUS
10
1.07165
20
1.04765
11
1.07148
21
1.04744
0
LINE
8
BLACK
6
CONTINUOUS
10
1.07148
20
1.04744
11
1.07072
21
1.04731
0
LINE
8
BLACK
6
CONTINUOUS
10
1.07072
20
1.04731
11
1.07
21
1.04705
0
LINE
8
BLACK
6
CONTINUOUS
10
1.07
20
1.04705
11
0.98
21
1.04705
0
LINE
8
BLACK
6
CONTINUOUS
10
0.98
20
1.04705
11
0.97899
21
1.04723
0
LINE
8
BLACK
6
CONTINUOUS
10
0.97899
20
1.04723
11
0.977443
21
1.04852
0
LINE
8
BLACK
6
CONTINUOUS
10
0.977443
20
1.04852
11
0.977092
21
1.05051
0
LINE
8
BLACK
6
CONTINUOUS
10
0.977092
20
1.05051
11
0.978102
21
1.05226
0
LINE
8
BLACK
6
CONTINUOUS
10
0.978102
20
1.05226
11
0.98
21
1.05295
0
LINE
8
BLACK
6
CONTINUOUS
10
0.98
20
1.05295
11
1.06705
21
1.05295
0
LINE
8
BLACK
6
CONTINUOUS
10
1.06705
20
1.05295
11
1.06705
21
1.24705
0
LINE
8
BLACK
6
CONTINUOUS
10
1.06705
20
1.24705
11
0.98
21
1.24705
0
LINE
8
BLACK
6
CONTINUOUS
10
0.98
20
1.24705
11
0.97899
21
1.24723
0
LINE
8
BLACK
6
CONTINUOUS
10
0.97899
20
1.24723
11
0.977443
21
1.24852
0
LINE
8
BLACK
6
CONTINUOUS
10
0.977443
20
1.24852
11
0.977092
21
1.25051
0
LINE
8
BLACK
6
CONTINUOUS
10
0.977092
20
1.25051
11
0.978102
21
1.25226
0
LINE
8
BLACK
6
CONTINUOUS
10
0.978102
20
1.25226
11
0.98
21
1.25295
0
LINE
8
BLACK
6
CONTINUOUS
10
0.98
20
1.25295
11
1.07
21
1.25295
0
LINE
8
BLACK
6
CONTINUOUS
10
1.07
20
1.25295
11
1.07038
21
1.25289
0
LINE
8
BLACK
6
CONTINUOUS
10
1.15038
20
1.67289
11
1.15051
21
1.67291
0
LINE
8
BLACK
6
CONTINUOUS
10
1.15051
20
1.67291
11
1.15063
21
1.67284
0
LINE
8
BLACK
6
CONTINUOUS
10
1.15063
20
1.67284
11
1.15101
21
1.67277
0
LINE
8
BLACK
6
CONTINUOUS
10
1.15101
20
1.67277
11
1.1516
21
1.67228
0
LINE
8
BLACK
6
CONTINUOUS
10
1.1516
20
1.67228
11
1.15226
21
1.6719
0
LINE
8
BLACK
6
CONTINUOUS
10
1.15226
20
1.6719
11
1.15235
21
1.67165
0
LINE
8
BLACK
6
CONTINUOUS
10
1.15235
20
1.67165
11
1.15256
21
1.67148
0
LINE
8
BLACK
6
CONTINUOUS
10
1.15256
20
1.67148
11
1.15269
21
1.67072
0
LINE
8
BLACK
6
CONTINUOUS
10
1.15269
20
1.67072
11
1.15295
21
1.67
0
LINE
8
BLACK
6
CONTINUOUS
10
1.15295
20
1.67
11
1.15295
21
1.47
0
LINE
8
BLACK
6
CONTINUOUS
10
1.15295
20
1.47
11
1.15289
21
1.46962
0
LINE
8
BLACK
6
CONTINUOUS
10
1.15289
20
1.46962
11
1.15291
21
1.46949
0
LINE
8
BLACK
6
CONTINUOUS
10
1.15291
20
1.46949
11
1.15284
21
1.46937
0
LINE
8
BLACK
6
CONTINUOUS
10
1.15284
20
1.46937
11
1.15277
21
1.46899
0
LINE
8
BLACK
6
CONTINUOUS
10
1.15277
20
1.46899
11
1.15228
21
1.4684
0
LINE
8
BLACK
6
CONTINUOUS
10
1.15228
20
1.4684
11
1.1519
21
1.46774
0
LINE
8
BLACK
6
CONTINUOUS
10
1.1519
20
1.46774
11
1.15165
21
1.46765
0
LINE
8
BLACK
6
CONTINUOUS
10
1.15165
20
1.46765
11
1.15148
21
1.46744
0
LINE
8
BLACK
6
CONTINUOUS
10
1.15148
20
1.46744
11
1.15072
21
1.46731
0
LINE
8
BLACK
6
CONTINUOUS
10
1.15072
20
1.46731
11
1.15
21
1.46705
0
LINE
8
BLACK
6
CONTINUOUS
10
1.15
20
1.46705
11
0.85
21
1.46705
0
LINE
8
BLACK
6
CONTINUOUS
10
0.85
20
1.46705
11
0.849616
21
1.46711
0
LINE
8
BLACK
6
CONTINUOUS
10
0.849616
20
1.46711
11
0.849487
21
1.46709
0
LINE
8
BLACK
6
CONTINUOUS
10
0.849487
20
1.46709
11
0.849374
21
1.46716
0
LINE
8
BLACK
6
CONTINUOUS
10
0.849374
20
1.46716
11
0.84899
21
1.46723
0
LINE
8
BLACK
6
CONTINUOUS
10
0.84899
20
1.46723
11
0.848402
21
1.46772
0
LINE
8
BLACK
6
CONTINUOUS
10
0.848402
20
1.46772
11
0.847738
21
1.4681
0
LINE
8
BLACK
6
CONTINUOUS
10
0.847738
20
1.4681
11
0.847647
21
1.46835
0
LINE
8
BLACK
6
CONTINUOUS
10
0.847647
20
1.46835
11
0.847443
21
1.46852
0
LINE
8
BLACK
6
CONTINUOUS
10
0.847443
20
1.46852
11
0.84731
21
1.46928
0
LINE
8
BLACK
6
CONTINUOUS
10
0.84731
20
1.46928
11
0.847047
21
1.47
0
LINE
8
BLACK
6
CONTINUOUS
10
0.847047
20
1.47
11
0.847047
21
1.67
0
LINE
8
BLACK
6
CONTINUOUS
10
0.847047
20
1.67
11
0.847115
21
1.67038
0
LINE
8
BLACK
6
CONTINUOUS
10
0.847115
20
1.67038
11
0.847092
21
1.67051
0
LINE
8
BLACK
6
CONTINUOUS
10
0.847092
20
1.67051
11
0.847158
21
1.67063
0
LINE
8
BLACK
6
CONTINUOUS
10
0.847158
20
1.67063
11
0.847225
21
1.67101
0
LINE
8
BLACK
6
CONTINUOUS
10
0.847225
20
1.67101
11
0.847718
21
1.6716
0
LINE
8
BLACK
6
CONTINUOUS
10
0.847718
20
1.6716
11
0.848102
21
1.67226
0
LINE
8
BLACK
6
CONTINUOUS
10
0.848102
20
1.67226
11
0.848352
21
1.67235
0
LINE
8
BLACK
6
CONTINUOUS
10
0.848352
20
1.67235
11
0.848524
21
1.67256
0
LINE
8
BLACK
6
CONTINUOUS
10
0.848524
20
1.67256
11
0.849279
21
1.67269
0
LINE
8
BLACK
6
CONTINUOUS
10
0.849279
20
1.67269
11
0.85
21
1.67295
0
LINE
8
BLACK
6
CONTINUOUS
10
0.85
20
1.67295
11
1.15
21
1.67295
0
LINE
8
BLACK
6
CONTINUOUS
10
1.15
20
1.67295
11
1.15038
21
1.67289
0
LINE
8
BLACK
6
CONTINUOUS
10
0.852953
20
1.66705
11
0.852953
21
1.47295
0
LINE
8
BLACK
6
CONTINUOUS
10
0.852953
20
1.47295
11
1.14705
21
1.47295
0
LINE
8
BLACK
6
CONTINUOUS
10
1.14705
20
1.47295
11
1.14705
21
1.66705
0
LINE
8
BLACK
6
CONTINUOUS
10
1.14705
20
1.66705
11
0.852953
21
1.66705
  0
ENDSEC
  0
EOF
