  0
SECTION
  2
HEADER
  9
$ANGBASE
  50
0.0
  9
$ANGDIR
  70
1
  9
$MEASUREMENT
  70
0
  0
ENDSEC
  0
SECTION
  2
TABLES
  0
TABLE
  2
LTYPE
  70
4
  0
LTYPE
  5
40F
  2
CONTINUOUS
  70
0
  3
Solid line
  72
65
  73
0
  40
0.0
  0
LTYPE
  5
410
  2
DASHDOT
 70
0
  3
Dash Dot ____ _ ____ _
 72
65
 73
4
 40
2.0
 49
1.25
 49
-0.25
 49
0.25
 49
-0.25
  0
LTYPE
  5
411
  2
DASHED
 70
0
  3
Dashed __ __ __ __ __
 72
65
 73
2
 40
0.75
 49
0.5
 49
-0.25
  0
LTYPE
  5
43B
  2
DOTTED
 70
0
  3
Dotted .  .  .  .
 72
65
 73
2
 40
0.2
 49
0.0
 49
-0.2
  0
ENDTAB
  0
TABLE
  2
STYLE
  70
4
  0
STYLE
  2
KICAD
  70
0
  40
0
  41
1
  42
1
  50
0
  71
0
  3
isocp.shx
  0
STYLE
  2
KICADB
  70
0
  40
0
  41
1
  42
1
  50
0
  71
0
  3
isocp.shx
  0
STYLE
  2
KICADI
  70
0
  40
0
  41
1
  42
1
  50
15
  71
0
  3
isocp.shx
  0
STYLE
  2
KICADBI
  70
0
  40
0
  41
1
  42
1
  50
15
  71
0
  3
isocp.shx
  0
ENDTAB
  0
TABLE
  2
LAYER
  70
1
  0
LAYER
  2
BLACK
  70
0
  62
7
  6
CONTINUOUS
  0
ENDTAB
  0
ENDSEC
  0
SECTION
  2
ENTITIES
0
LINE
8
BLACK
6
CONTINUOUS
10
0.414063
20
0.52481
11
0.427949
21
0.522451
0
LINE
8
BLACK
6
CONTINUOUS
10
0.427949
20
0.522451
11
0.441483
21
0.518552
0
LINE
8
BLACK
6
CONTINUOUS
10
0.441483
20
0.518552
11
0.454496
21
0.513162
0
LINE
8
BLACK
6
CONTINUOUS
10
0.454496
20
0.513162
11
0.466823
21
0.506349
0
LINE
8
BLACK
6
CONTINUOUS
10
0.466823
20
0.506349
11
0.47831
21
0.498198
0
LINE
8
BLACK
6
CONTINUOUS
10
0.47831
20
0.498198
11
0.488813
21
0.488813
0
LINE
8
BLACK
6
CONTINUOUS
10
0.488813
20
0.488813
11
0.498198
21
0.47831
0
LINE
8
BLACK
6
CONTINUOUS
10
0.498198
20
0.47831
11
0.506349
21
0.466823
0
LINE
8
BLACK
6
CONTINUOUS
10
0.506349
20
0.466823
11
0.513162
21
0.454496
0
LINE
8
BLACK
6
CONTINUOUS
10
0.513162
20
0.454496
11
0.518552
21
0.441483
0
LINE
8
BLACK
6
CONTINUOUS
10
0.518552
20
0.441483
11
0.522451
21
0.427949
0
LINE
8
BLACK
6
CONTINUOUS
10
0.522451
20
0.427949
11
0.52481
21
0.414063
0
LINE
8
BLACK
6
CONTINUOUS
10
0.52481
20
0.414063
11
0.5256
21
0.4
0
LINE
8
BLACK
6
CONTINUOUS
10
0.5256
20
0.4
11
0.52481
21
0.385937
0
LINE
8
BLACK
6
CONTINUOUS
10
0.52481
20
0.385937
11
0.522451
21
0.372051
0
LINE
8
BLACK
6
CONTINUOUS
10
0.522451
20
0.372051
11
0.518552
21
0.358517
0
LINE
8
BLACK
6
CONTINUOUS
10
0.518552
20
0.358517
11
0.513162
21
0.345504
0
LINE
8
BLACK
6
CONTINUOUS
10
0.513162
20
0.345504
11
0.506349
21
0.333177
0
LINE
8
BLACK
6
CONTINUOUS
10
0.506349
20
0.333177
11
0.498198
21
0.32169
0
LINE
8
BLACK
6
CONTINUOUS
10
0.498198
20
0.32169
11
0.488813
21
0.311187
0
LINE
8
BLACK
6
CONTINUOUS
10
0.488813
20
0.311187
11
0.47831
21
0.301802
0
LINE
8
BLACK
6
CONTINUOUS
10
0.47831
20
0.301802
11
0.466823
21
0.293651
0
LINE
8
BLACK
6
CONTINUOUS
10
0.466823
20
0.293651
11
0.454496
21
0.286838
0
LINE
8
BLACK
6
CONTINUOUS
10
0.454496
20
0.286838
11
0.441483
21
0.281448
0
LINE
8
BLACK
6
CONTINUOUS
10
0.441483
20
0.281448
11
0.427949
21
0.277549
0
LINE
8
BLACK
6
CONTINUOUS
10
0.427949
20
0.277549
11
0.414063
21
0.27519
0
LINE
8
BLACK
6
CONTINUOUS
10
0.414063
20
0.27519
11
0.4
21
0.2744
0
LINE
8
BLACK
6
CONTINUOUS
10
0.4
20
0.2744
11
0.385937
21
0.27519
0
LINE
8
BLACK
6
CONTINUOUS
10
0.385937
20
0.27519
11
0.372051
21
0.277549
0
LINE
8
BLACK
6
CONTINUOUS
10
0.372051
20
0.277549
11
0.358517
21
0.281448
0
LINE
8
BLACK
6
CONTINUOUS
10
0.358517
20
0.281448
11
0.345504
21
0.286838
0
LINE
8
BLACK
6
CONTINUOUS
10
0.345504
20
0.286838
11
0.333177
21
0.293651
0
LINE
8
BLACK
6
CONTINUOUS
10
0.333177
20
0.293651
11
0.32169
21
0.301802
0
LINE
8
BLACK
6
CONTINUOUS
10
0.32169
20
0.301802
11
0.311187
21
0.311187
0
LINE
8
BLACK
6
CONTINUOUS
10
0.311187
20
0.311187
11
0.301802
21
0.32169
0
LINE
8
BLACK
6
CONTINUOUS
10
0.301802
20
0.32169
11
0.293651
21
0.333177
0
LINE
8
BLACK
6
CONTINUOUS
10
0.293651
20
0.333177
11
0.286838
21
0.345504
0
LINE
8
BLACK
6
CONTINUOUS
10
0.286838
20
0.345504
11
0.281448
21
0.358517
0
LINE
8
BLACK
6
CONTINUOUS
10
0.281448
20
0.358517
11
0.277549
21
0.372051
0
LINE
8
BLACK
6
CONTINUOUS
10
0.277549
20
0.372051
11
0.27519
21
0.385937
0
LINE
8
BLACK
6
CONTINUOUS
10
0.27519
20
0.385937
11
0.2744
21
0.4
0
LINE
8
BLACK
6
CONTINUOUS
10
0.2744
20
0.4
11
0.27519
21
0.414063
0
LINE
8
BLACK
6
CONTINUOUS
10
0.27519
20
0.414063
11
0.277549
21
0.427949
0
LINE
8
BLACK
6
CONTINUOUS
10
0.277549
20
0.427949
11
0.281448
21
0.441483
0
LINE
8
BLACK
6
CONTINUOUS
10
0.281448
20
0.441483
11
0.286838
21
0.454496
0
LINE
8
BLACK
6
CONTINUOUS
10
0.286838
20
0.454496
11
0.293651
21
0.466823
0
LINE
8
BLACK
6
CONTINUOUS
10
0.293651
20
0.466823
11
0.301802
21
0.47831
0
LINE
8
BLACK
6
CONTINUOUS
10
0.301802
20
0.47831
11
0.311187
21
0.488813
0
LINE
8
BLACK
6
CONTINUOUS
10
0.311187
20
0.488813
11
0.32169
21
0.498198
0
LINE
8
BLACK
6
CONTINUOUS
10
0.32169
20
0.498198
11
0.333177
21
0.506349
0
LINE
8
BLACK
6
CONTINUOUS
10
0.333177
20
0.506349
11
0.345504
21
0.513162
0
LINE
8
BLACK
6
CONTINUOUS
10
0.345504
20
0.513162
11
0.358517
21
0.518552
0
LINE
8
BLACK
6
CONTINUOUS
10
0.358517
20
0.518552
11
0.372051
21
0.522451
0
LINE
8
BLACK
6
CONTINUOUS
10
0.372051
20
0.522451
11
0.385937
21
0.52481
0
LINE
8
BLACK
6
CONTINUOUS
10
0.385937
20
0.52481
11
0.4
21
0.5256
0
LINE
8
BLACK
6
CONTINUOUS
10
0.4
20
0.5256
11
0.414063
21
0.52481
0
LINE
8
BLACK
6
CONTINUOUS
10
0.289962
20
0.387138
11
0.292199
21
0.374451
0
LINE
8
BLACK
6
CONTINUOUS
10
0.292199
20
0.374451
11
0.295894
21
0.362108
0
LINE
8
BLACK
6
CONTINUOUS
10
0.295894
20
0.362108
11
0.300997
21
0.350279
0
LINE
8
BLACK
6
CONTINUOUS
10
0.300997
20
0.350279
11
0.307438
21
0.339121
0
LINE
8
BLACK
6
CONTINUOUS
10
0.307438
20
0.339121
11
0.315132
21
0.328787
0
LINE
8
BLACK
6
CONTINUOUS
10
0.315132
20
0.328787
11
0.323973
21
0.319416
0
LINE
8
BLACK
6
CONTINUOUS
10
0.323973
20
0.319416
11
0.333842
21
0.311135
0
LINE
8
BLACK
6
CONTINUOUS
10
0.333842
20
0.311135
11
0.344606
21
0.304055
0
LINE
8
BLACK
6
CONTINUOUS
10
0.344606
20
0.304055
11
0.356119
21
0.298273
0
LINE
8
BLACK
6
CONTINUOUS
10
0.356119
20
0.298273
11
0.368226
21
0.293867
0
LINE
8
BLACK
6
CONTINUOUS
10
0.368226
20
0.293867
11
0.380762
21
0.290896
0
LINE
8
BLACK
6
CONTINUOUS
10
0.380762
20
0.290896
11
0.393558
21
0.2894
0
LINE
8
BLACK
6
CONTINUOUS
10
0.393558
20
0.2894
11
0.406442
21
0.2894
0
LINE
8
BLACK
6
CONTINUOUS
10
0.406442
20
0.2894
11
0.419238
21
0.290896
0
LINE
8
BLACK
6
CONTINUOUS
10
0.419238
20
0.290896
11
0.431774
21
0.293867
0
LINE
8
BLACK
6
CONTINUOUS
10
0.431774
20
0.293867
11
0.443881
21
0.298273
0
LINE
8
BLACK
6
CONTINUOUS
10
0.443881
20
0.298273
11
0.455394
21
0.304055
0
LINE
8
BLACK
6
CONTINUOUS
10
0.455394
20
0.304055
11
0.466158
21
0.311135
0
LINE
8
BLACK
6
CONTINUOUS
10
0.466158
20
0.311135
11
0.476027
21
0.319416
0
LINE
8
BLACK
6
CONTINUOUS
10
0.476027
20
0.319416
11
0.484868
21
0.328787
0
LINE
8
BLACK
6
CONTINUOUS
10
0.484868
20
0.328787
11
0.492562
21
0.339121
0
LINE
8
BLACK
6
CONTINUOUS
10
0.492562
20
0.339121
11
0.499003
21
0.350279
0
LINE
8
BLACK
6
CONTINUOUS
10
0.499003
20
0.350279
11
0.504106
21
0.362108
0
LINE
8
BLACK
6
CONTINUOUS
10
0.504106
20
0.362108
11
0.507801
21
0.374451
0
LINE
8
BLACK
6
CONTINUOUS
10
0.507801
20
0.374451
11
0.510038
21
0.387138
0
LINE
8
BLACK
6
CONTINUOUS
10
0.510038
20
0.387138
11
0.510787
21
0.4
0
LINE
8
BLACK
6
CONTINUOUS
10
0.510787
20
0.4
11
0.510038
21
0.412862
0
LINE
8
BLACK
6
CONTINUOUS
10
0.510038
20
0.412862
11
0.507801
21
0.425549
0
LINE
8
BLACK
6
CONTINUOUS
10
0.507801
20
0.425549
11
0.504106
21
0.437892
0
LINE
8
BLACK
6
CONTINUOUS
10
0.504106
20
0.437892
11
0.499003
21
0.449721
0
LINE
8
BLACK
6
CONTINUOUS
10
0.499003
20
0.449721
11
0.492562
21
0.460879
0
LINE
8
BLACK
6
CONTINUOUS
10
0.492562
20
0.460879
11
0.484868
21
0.471213
0
LINE
8
BLACK
6
CONTINUOUS
10
0.484868
20
0.471213
11
0.476027
21
0.480584
0
LINE
8
BLACK
6
CONTINUOUS
10
0.476027
20
0.480584
11
0.466158
21
0.488865
0
LINE
8
BLACK
6
CONTINUOUS
10
0.466158
20
0.488865
11
0.455394
21
0.495945
0
LINE
8
BLACK
6
CONTINUOUS
10
0.455394
20
0.495945
11
0.443881
21
0.501727
0
LINE
8
BLACK
6
CONTINUOUS
10
0.443881
20
0.501727
11
0.431774
21
0.506133
0
LINE
8
BLACK
6
CONTINUOUS
10
0.431774
20
0.506133
11
0.419238
21
0.509104
0
LINE
8
BLACK
6
CONTINUOUS
10
0.419238
20
0.509104
11
0.406442
21
0.5106
0
LINE
8
BLACK
6
CONTINUOUS
10
0.406442
20
0.5106
11
0.393558
21
0.5106
0
LINE
8
BLACK
6
CONTINUOUS
10
0.393558
20
0.5106
11
0.380762
21
0.509104
0
LINE
8
BLACK
6
CONTINUOUS
10
0.380762
20
0.509104
11
0.368226
21
0.506133
0
LINE
8
BLACK
6
CONTINUOUS
10
0.368226
20
0.506133
11
0.356119
21
0.501727
0
LINE
8
BLACK
6
CONTINUOUS
10
0.356119
20
0.501727
11
0.344606
21
0.495945
0
LINE
8
BLACK
6
CONTINUOUS
10
0.344606
20
0.495945
11
0.333842
21
0.488865
0
LINE
8
BLACK
6
CONTINUOUS
10
0.333842
20
0.488865
11
0.323973
21
0.480584
0
LINE
8
BLACK
6
CONTINUOUS
10
0.323973
20
0.480584
11
0.315132
21
0.471213
0
LINE
8
BLACK
6
CONTINUOUS
10
0.315132
20
0.471213
11
0.307438
21
0.460879
0
LINE
8
BLACK
6
CONTINUOUS
10
0.307438
20
0.460879
11
0.300997
21
0.449721
0
LINE
8
BLACK
6
CONTINUOUS
10
0.300997
20
0.449721
11
0.295894
21
0.437892
0
LINE
8
BLACK
6
CONTINUOUS
10
0.295894
20
0.437892
11
0.292199
21
0.425549
0
LINE
8
BLACK
6
CONTINUOUS
10
0.292199
20
0.425549
11
0.289962
21
0.412862
0
LINE
8
BLACK
6
CONTINUOUS
10
0.289962
20
0.412862
11
0.289213
21
0.4
0
LINE
8
BLACK
6
CONTINUOUS
10
0.289213
20
0.4
11
0.289962
21
0.387138
0
LINE
8
BLACK
6
CONTINUOUS
10
1.61406
20
0.52481
11
1.62795
21
0.522451
0
LINE
8
BLACK
6
CONTINUOUS
10
1.62795
20
0.522451
11
1.64148
21
0.518552
0
LINE
8
BLACK
6
CONTINUOUS
10
1.64148
20
0.518552
11
1.6545
21
0.513162
0
LINE
8
BLACK
6
CONTINUOUS
10
1.6545
20
0.513162
11
1.66682
21
0.506349
0
LINE
8
BLACK
6
CONTINUOUS
10
1.66682
20
0.506349
11
1.67831
21
0.498198
0
LINE
8
BLACK
6
CONTINUOUS
10
1.67831
20
0.498198
11
1.68881
21
0.488813
0
LINE
8
BLACK
6
CONTINUOUS
10
1.68881
20
0.488813
11
1.6982
21
0.47831
0
LINE
8
BLACK
6
CONTINUOUS
10
1.6982
20
0.47831
11
1.70635
21
0.466823
0
LINE
8
BLACK
6
CONTINUOUS
10
1.70635
20
0.466823
11
1.71316
21
0.454496
0
LINE
8
BLACK
6
CONTINUOUS
10
1.71316
20
0.454496
11
1.71855
21
0.441483
0
LINE
8
BLACK
6
CONTINUOUS
10
1.71855
20
0.441483
11
1.72245
21
0.427949
0
LINE
8
BLACK
6
CONTINUOUS
10
1.72245
20
0.427949
11
1.72481
21
0.414063
0
LINE
8
BLACK
6
CONTINUOUS
10
1.72481
20
0.414063
11
1.7256
21
0.4
0
LINE
8
BLACK
6
CONTINUOUS
10
1.7256
20
0.4
11
1.72481
21
0.385937
0
LINE
8
BLACK
6
CONTINUOUS
10
1.72481
20
0.385937
11
1.72245
21
0.372051
0
LINE
8
BLACK
6
CONTINUOUS
10
1.72245
20
0.372051
11
1.71855
21
0.358517
0
LINE
8
BLACK
6
CONTINUOUS
10
1.71855
20
0.358517
11
1.71316
21
0.345504
0
LINE
8
BLACK
6
CONTINUOUS
10
1.71316
20
0.345504
11
1.70635
21
0.333177
0
LINE
8
BLACK
6
CONTINUOUS
10
1.70635
20
0.333177
11
1.6982
21
0.32169
0
LINE
8
BLACK
6
CONTINUOUS
10
1.6982
20
0.32169
11
1.68881
21
0.311187
0
LINE
8
BLACK
6
CONTINUOUS
10
1.68881
20
0.311187
11
1.67831
21
0.301802
0
LINE
8
BLACK
6
CONTINUOUS
10
1.67831
20
0.301802
11
1.66682
21
0.293651
0
LINE
8
BLACK
6
CONTINUOUS
10
1.66682
20
0.293651
11
1.6545
21
0.286838
0
LINE
8
BLACK
6
CONTINUOUS
10
1.6545
20
0.286838
11
1.64148
21
0.281448
0
LINE
8
BLACK
6
CONTINUOUS
10
1.64148
20
0.281448
11
1.62795
21
0.277549
0
LINE
8
BLACK
6
CONTINUOUS
10
1.62795
20
0.277549
11
1.61406
21
0.27519
0
LINE
8
BLACK
6
CONTINUOUS
10
1.61406
20
0.27519
11
1.6
21
0.2744
0
LINE
8
BLACK
6
CONTINUOUS
10
1.6
20
0.2744
11
1.58594
21
0.27519
0
LINE
8
BLACK
6
CONTINUOUS
10
1.58594
20
0.27519
11
1.57205
21
0.277549
0
LINE
8
BLACK
6
CONTINUOUS
10
1.57205
20
0.277549
11
1.55852
21
0.281448
0
LINE
8
BLACK
6
CONTINUOUS
10
1.55852
20
0.281448
11
1.5455
21
0.286838
0
LINE
8
BLACK
6
CONTINUOUS
10
1.5455
20
0.286838
11
1.53318
21
0.293651
0
LINE
8
BLACK
6
CONTINUOUS
10
1.53318
20
0.293651
11
1.52169
21
0.301802
0
LINE
8
BLACK
6
CONTINUOUS
10
1.52169
20
0.301802
11
1.51119
21
0.311187
0
LINE
8
BLACK
6
CONTINUOUS
10
1.51119
20
0.311187
11
1.5018
21
0.32169
0
LINE
8
BLACK
6
CONTINUOUS
10
1.5018
20
0.32169
11
1.49365
21
0.333177
0
LINE
8
BLACK
6
CONTINUOUS
10
1.49365
20
0.333177
11
1.48684
21
0.345504
0
LINE
8
BLACK
6
CONTINUOUS
10
1.48684
20
0.345504
11
1.48145
21
0.358517
0
LINE
8
BLACK
6
CONTINUOUS
10
1.48145
20
0.358517
11
1.47755
21
0.372051
0
LINE
8
BLACK
6
CONTINUOUS
10
1.47755
20
0.372051
11
1.47519
21
0.385937
0
LINE
8
BLACK
6
CONTINUOUS
10
1.47519
20
0.385937
11
1.4744
21
0.4
0
LINE
8
BLACK
6
CONTINUOUS
10
1.4744
20
0.4
11
1.47519
21
0.414063
0
LINE
8
BLACK
6
CONTINUOUS
10
1.47519
20
0.414063
11
1.47755
21
0.427949
0
LINE
8
BLACK
6
CONTINUOUS
10
1.47755
20
0.427949
11
1.48145
21
0.441483
0
LINE
8
BLACK
6
CONTINUOUS
10
1.48145
20
0.441483
11
1.48684
21
0.454496
0
LINE
8
BLACK
6
CONTINUOUS
10
1.48684
20
0.454496
11
1.49365
21
0.466823
0
LINE
8
BLACK
6
CONTINUOUS
10
1.49365
20
0.466823
11
1.5018
21
0.47831
0
LINE
8
BLACK
6
CONTINUOUS
10
1.5018
20
0.47831
11
1.51119
21
0.488813
0
LINE
8
BLACK
6
CONTINUOUS
10
1.51119
20
0.488813
11
1.52169
21
0.498198
0
LINE
8
BLACK
6
CONTINUOUS
10
1.52169
20
0.498198
11
1.53318
21
0.506349
0
LINE
8
BLACK
6
CONTINUOUS
10
1.53318
20
0.506349
11
1.5455
21
0.513162
0
LINE
8
BLACK
6
CONTINUOUS
10
1.5455
20
0.513162
11
1.55852
21
0.518552
0
LINE
8
BLACK
6
CONTINUOUS
10
1.55852
20
0.518552
11
1.57205
21
0.522451
0
LINE
8
BLACK
6
CONTINUOUS
10
1.57205
20
0.522451
11
1.58594
21
0.52481
0
LINE
8
BLACK
6
CONTINUOUS
10
1.58594
20
0.52481
11
1.6
21
0.5256
0
LINE
8
BLACK
6
CONTINUOUS
10
1.6
20
0.5256
11
1.61406
21
0.52481
0
LINE
8
BLACK
6
CONTINUOUS
10
1.48996
20
0.387138
11
1.4922
21
0.374451
0
LINE
8
BLACK
6
CONTINUOUS
10
1.4922
20
0.374451
11
1.49589
21
0.362108
0
LINE
8
BLACK
6
CONTINUOUS
10
1.49589
20
0.362108
11
1.501
21
0.350279
0
LINE
8
BLACK
6
CONTINUOUS
10
1.501
20
0.350279
11
1.50744
21
0.339121
0
LINE
8
BLACK
6
CONTINUOUS
10
1.50744
20
0.339121
11
1.51513
21
0.328787
0
LINE
8
BLACK
6
CONTINUOUS
10
1.51513
20
0.328787
11
1.52397
21
0.319416
0
LINE
8
BLACK
6
CONTINUOUS
10
1.52397
20
0.319416
11
1.53384
21
0.311135
0
LINE
8
BLACK
6
CONTINUOUS
10
1.53384
20
0.311135
11
1.54461
21
0.304055
0
LINE
8
BLACK
6
CONTINUOUS
10
1.54461
20
0.304055
11
1.55612
21
0.298273
0
LINE
8
BLACK
6
CONTINUOUS
10
1.55612
20
0.298273
11
1.56823
21
0.293867
0
LINE
8
BLACK
6
CONTINUOUS
10
1.56823
20
0.293867
11
1.58076
21
0.290896
0
LINE
8
BLACK
6
CONTINUOUS
10
1.58076
20
0.290896
11
1.59356
21
0.2894
0
LINE
8
BLACK
6
CONTINUOUS
10
1.59356
20
0.2894
11
1.60644
21
0.2894
0
LINE
8
BLACK
6
CONTINUOUS
10
1.60644
20
0.2894
11
1.61924
21
0.290896
0
LINE
8
BLACK
6
CONTINUOUS
10
1.61924
20
0.290896
11
1.63177
21
0.293867
0
LINE
8
BLACK
6
CONTINUOUS
10
1.63177
20
0.293867
11
1.64388
21
0.298273
0
LINE
8
BLACK
6
CONTINUOUS
10
1.64388
20
0.298273
11
1.65539
21
0.304055
0
LINE
8
BLACK
6
CONTINUOUS
10
1.65539
20
0.304055
11
1.66616
21
0.311135
0
LINE
8
BLACK
6
CONTINUOUS
10
1.66616
20
0.311135
11
1.67603
21
0.319416
0
LINE
8
BLACK
6
CONTINUOUS
10
1.67603
20
0.319416
11
1.68487
21
0.328787
0
LINE
8
BLACK
6
CONTINUOUS
10
1.68487
20
0.328787
11
1.69256
21
0.339121
0
LINE
8
BLACK
6
CONTINUOUS
10
1.69256
20
0.339121
11
1.699
21
0.350279
0
LINE
8
BLACK
6
CONTINUOUS
10
1.699
20
0.350279
11
1.70411
21
0.362108
0
LINE
8
BLACK
6
CONTINUOUS
10
1.70411
20
0.362108
11
1.7078
21
0.374451
0
LINE
8
BLACK
6
CONTINUOUS
10
1.7078
20
0.374451
11
1.71004
21
0.387138
0
LINE
8
BLACK
6
CONTINUOUS
10
1.71004
20
0.387138
11
1.71079
21
0.4
0
LINE
8
BLACK
6
CONTINUOUS
10
1.71079
20
0.4
11
1.71004
21
0.412862
0
LINE
8
BLACK
6
CONTINUOUS
10
1.71004
20
0.412862
11
1.7078
21
0.425549
0
LINE
8
BLACK
6
CONTINUOUS
10
1.7078
20
0.425549
11
1.70411
21
0.437892
0
LINE
8
BLACK
6
CONTINUOUS
10
1.70411
20
0.437892
11
1.699
21
0.449721
0
LINE
8
BLACK
6
CONTINUOUS
10
1.699
20
0.449721
11
1.69256
21
0.460879
0
LINE
8
BLACK
6
CONTINUOUS
10
1.69256
20
0.460879
11
1.68487
21
0.471213
0
LINE
8
BLACK
6
CONTINUOUS
10
1.68487
20
0.471213
11
1.67603
21
0.480584
0
LINE
8
BLACK
6
CONTINUOUS
10
1.67603
20
0.480584
11
1.66616
21
0.488865
0
LINE
8
BLACK
6
CONTINUOUS
10
1.66616
20
0.488865
11
1.65539
21
0.495945
0
LINE
8
BLACK
6
CONTINUOUS
10
1.65539
20
0.495945
11
1.64388
21
0.501727
0
LINE
8
BLACK
6
CONTINUOUS
10
1.64388
20
0.501727
11
1.63177
21
0.506133
0
LINE
8
BLACK
6
CONTINUOUS
10
1.63177
20
0.506133
11
1.61924
21
0.509104
0
LINE
8
BLACK
6
CONTINUOUS
10
1.61924
20
0.509104
11
1.60644
21
0.5106
0
LINE
8
BLACK
6
CONTINUOUS
10
1.60644
20
0.5106
11
1.59356
21
0.5106
0
LINE
8
BLACK
6
CONTINUOUS
10
1.59356
20
0.5106
11
1.58076
21
0.509104
0
LINE
8
BLACK
6
CONTINUOUS
10
1.58076
20
0.509104
11
1.56823
21
0.506133
0
LINE
8
BLACK
6
CONTINUOUS
10
1.56823
20
0.506133
11
1.55612
21
0.501727
0
LINE
8
BLACK
6
CONTINUOUS
10
1.55612
20
0.501727
11
1.54461
21
0.495945
0
LINE
8
BLACK
6
CONTINUOUS
10
1.54461
20
0.495945
11
1.53384
21
0.488865
0
LINE
8
BLACK
6
CONTINUOUS
10
1.53384
20
0.488865
11
1.52397
21
0.480584
0
LINE
8
BLACK
6
CONTINUOUS
10
1.52397
20
0.480584
11
1.51513
21
0.471213
0
LINE
8
BLACK
6
CONTINUOUS
10
1.51513
20
0.471213
11
1.50744
21
0.460879
0
LINE
8
BLACK
6
CONTINUOUS
10
1.50744
20
0.460879
11
1.501
21
0.449721
0
LINE
8
BLACK
6
CONTINUOUS
10
1.501
20
0.449721
11
1.49589
21
0.437892
0
LINE
8
BLACK
6
CONTINUOUS
10
1.49589
20
0.437892
11
1.4922
21
0.425549
0
LINE
8
BLACK
6
CONTINUOUS
10
1.4922
20
0.425549
11
1.48996
21
0.412862
0
LINE
8
BLACK
6
CONTINUOUS
10
1.48996
20
0.412862
11
1.48921
21
0.4
0
LINE
8
BLACK
6
CONTINUOUS
10
1.48921
20
0.4
11
1.48996
21
0.387138
0
LINE
8
BLACK
6
CONTINUOUS
10
1.20038
20
0.542885
11
1.20051
21
0.542908
0
LINE
8
BLACK
6
CONTINUOUS
10
1.20051
20
0.542908
11
1.20063
21
0.542842
0
LINE
8
BLACK
6
CONTINUOUS
10
1.20063
20
0.542842
11
1.20101
21
0.542775
0
LINE
8
BLACK
6
CONTINUOUS
10
1.20101
20
0.542775
11
1.2016
21
0.542282
0
LINE
8
BLACK
6
CONTINUOUS
10
1.2016
20
0.542282
11
1.20226
21
0.541898
0
LINE
8
BLACK
6
CONTINUOUS
10
1.20226
20
0.541898
11
1.20235
21
0.541648
0
LINE
8
BLACK
6
CONTINUOUS
10
1.20235
20
0.541648
11
1.20256
21
0.541476
0
LINE
8
BLACK
6
CONTINUOUS
10
1.20256
20
0.541476
11
1.20269
21
0.540721
0
LINE
8
BLACK
6
CONTINUOUS
10
1.20269
20
0.540721
11
1.20295
21
0.54
0
LINE
8
BLACK
6
CONTINUOUS
10
1.20295
20
0.54
11
1.20295
21
0.34
0
LINE
8
BLACK
6
CONTINUOUS
10
1.20295
20
0.34
11
1.20289
21
0.339616
0
LINE
8
BLACK
6
CONTINUOUS
10
1.20289
20
0.339616
11
1.20291
21
0.339487
0
LINE
8
BLACK
6
CONTINUOUS
10
1.20291
20
0.339487
11
1.20284
21
0.339374
0
LINE
8
BLACK
6
CONTINUOUS
10
1.20284
20
0.339374
11
1.20277
21
0.33899
0
LINE
8
BLACK
6
CONTINUOUS
10
1.20277
20
0.33899
11
1.20228
21
0.338402
0
LINE
8
BLACK
6
CONTINUOUS
10
1.20228
20
0.338402
11
1.2019
21
0.337738
0
LINE
8
BLACK
6
CONTINUOUS
10
1.2019
20
0.337738
11
1.20165
21
0.337647
0
LINE
8
BLACK
6
CONTINUOUS
10
1.20165
20
0.337647
11
1.20148
21
0.337443
0
LINE
8
BLACK
6
CONTINUOUS
10
1.20148
20
0.337443
11
1.20072
21
0.33731
0
LINE
8
BLACK
6
CONTINUOUS
10
1.20072
20
0.33731
11
1.2
21
0.337047
0
LINE
8
BLACK
6
CONTINUOUS
10
1.2
20
0.337047
11
0.9
21
0.337047
0
LINE
8
BLACK
6
CONTINUOUS
10
0.9
20
0.337047
11
0.899616
21
0.337115
0
LINE
8
BLACK
6
CONTINUOUS
10
0.899616
20
0.337115
11
0.899487
21
0.337092
0
LINE
8
BLACK
6
CONTINUOUS
10
0.899487
20
0.337092
11
0.899374
21
0.337158
0
LINE
8
BLACK
6
CONTINUOUS
10
0.899374
20
0.337158
11
0.89899
21
0.337225
0
LINE
8
BLACK
6
CONTINUOUS
10
0.89899
20
0.337225
11
0.898402
21
0.337718
0
LINE
8
BLACK
6
CONTINUOUS
10
0.898402
20
0.337718
11
0.897738
21
0.338102
0
LINE
8
BLACK
6
CONTINUOUS
10
0.897738
20
0.338102
11
0.897647
21
0.338352
0
LINE
8
BLACK
6
CONTINUOUS
10
0.897647
20
0.338352
11
0.897443
21
0.338524
0
LINE
8
BLACK
6
CONTINUOUS
10
0.897443
20
0.338524
11
0.89731
21
0.339279
0
LINE
8
BLACK
6
CONTINUOUS
10
0.89731
20
0.339279
11
0.897047
21
0.34
0
LINE
8
BLACK
6
CONTINUOUS
10
0.897047
20
0.34
11
0.897047
21
0.54
0
LINE
8
BLACK
6
CONTINUOUS
10
0.897047
20
0.54
11
0.897115
21
0.540384
0
LINE
8
BLACK
6
CONTINUOUS
10
0.897115
20
0.540384
11
0.897092
21
0.540513
0
LINE
8
BLACK
6
CONTINUOUS
10
0.897092
20
0.540513
11
0.897158
21
0.540626
0
LINE
8
BLACK
6
CONTINUOUS
10
0.897158
20
0.540626
11
0.897225
21
0.54101
0
LINE
8
BLACK
6
CONTINUOUS
10
0.897225
20
0.54101
11
0.897718
21
0.541598
0
LINE
8
BLACK
6
CONTINUOUS
10
0.897718
20
0.541598
11
0.898102
21
0.542262
0
LINE
8
BLACK
6
CONTINUOUS
10
0.898102
20
0.542262
11
0.898352
21
0.542353
0
LINE
8
BLACK
6
CONTINUOUS
10
0.898352
20
0.542353
11
0.898524
21
0.542557
0
LINE
8
BLACK
6
CONTINUOUS
10
0.898524
20
0.542557
11
0.899279
21
0.54269
0
LINE
8
BLACK
6
CONTINUOUS
10
0.899279
20
0.54269
11
0.9
21
0.542953
0
LINE
8
BLACK
6
CONTINUOUS
10
0.9
20
0.542953
11
1.2
21
0.542953
0
LINE
8
BLACK
6
CONTINUOUS
10
1.2
20
0.542953
11
1.20038
21
0.542885
0
LINE
8
BLACK
6
CONTINUOUS
10
0.902953
20
0.537047
11
0.902953
21
0.342953
0
LINE
8
BLACK
6
CONTINUOUS
10
0.902953
20
0.342953
11
1.19705
21
0.342953
0
LINE
8
BLACK
6
CONTINUOUS
10
1.19705
20
0.342953
11
1.19705
21
0.537047
0
LINE
8
BLACK
6
CONTINUOUS
10
1.19705
20
0.537047
11
0.902953
21
0.537047
0
LINE
8
BLACK
6
CONTINUOUS
10
0.600384
20
1.03289
11
0.600513
21
1.03291
0
LINE
8
BLACK
6
CONTINUOUS
10
0.600513
20
1.03291
11
0.600626
21
1.03284
0
LINE
8
BLACK
6
CONTINUOUS
10
0.600626
20
1.03284
11
0.60101
21
1.03277
0
LINE
8
BLACK
6
CONTINUOUS
10
0.60101
20
1.03277
11
0.601598
21
1.03228
0
LINE
8
BLACK
6
CONTINUOUS
10
0.601598
20
1.03228
11
0.602262
21
1.0319
0
LINE
8
BLACK
6
CONTINUOUS
10
0.602262
20
1.0319
11
0.602353
21
1.03165
0
LINE
8
BLACK
6
CONTINUOUS
10
0.602353
20
1.03165
11
0.602557
21
1.03148
0
LINE
8
BLACK
6
CONTINUOUS
10
0.602557
20
1.03148
11
0.60269
21
1.03072
0
LINE
8
BLACK
6
CONTINUOUS
10
0.60269
20
1.03072
11
0.602953
21
1.03
0
LINE
8
BLACK
6
CONTINUOUS
10
0.602953
20
1.03
11
0.602953
21
0.93
0
LINE
8
BLACK
6
CONTINUOUS
10
0.602953
20
0.93
11
0.602953
21
0.83
0
LINE
8
BLACK
6
CONTINUOUS
10
0.602953
20
0.83
11
0.602953
21
0.73
0
LINE
8
BLACK
6
CONTINUOUS
10
0.602953
20
0.73
11
0.602953
21
0.63
0
LINE
8
BLACK
6
CONTINUOUS
10
0.602953
20
0.63
11
0.602885
21
0.629616
0
LINE
8
BLACK
6
CONTINUOUS
10
0.602885
20
0.629616
11
0.602908
21
0.629487
0
LINE
8
BLACK
6
CONTINUOUS
10
0.602908
20
0.629487
11
0.602842
21
0.629374
0
LINE
8
BLACK
6
CONTINUOUS
10
0.602842
20
0.629374
11
0.602775
21
0.62899
0
LINE
8
BLACK
6
CONTINUOUS
10
0.602775
20
0.62899
11
0.602282
21
0.628402
0
LINE
8
BLACK
6
CONTINUOUS
10
0.602282
20
0.628402
11
0.601898
21
0.627738
0
LINE
8
BLACK
6
CONTINUOUS
10
0.601898
20
0.627738
11
0.601648
21
0.627647
0
LINE
8
BLACK
6
CONTINUOUS
10
0.601648
20
0.627647
11
0.601476
21
0.627443
0
LINE
8
BLACK
6
CONTINUOUS
10
0.601476
20
0.627443
11
0.600721
21
0.62731
0
LINE
8
BLACK
6
CONTINUOUS
10
0.600721
20
0.62731
11
0.6
21
0.627047
0
LINE
8
BLACK
6
CONTINUOUS
10
0.6
20
0.627047
11
0.3
21
0.627047
0
LINE
8
BLACK
6
CONTINUOUS
10
0.3
20
0.627047
11
0.299616
21
0.627115
0
LINE
8
BLACK
6
CONTINUOUS
10
0.299616
20
0.627115
11
0.299487
21
0.627092
0
LINE
8
BLACK
6
CONTINUOUS
10
0.299487
20
0.627092
11
0.299374
21
0.627158
0
LINE
8
BLACK
6
CONTINUOUS
10
0.299374
20
0.627158
11
0.29899
21
0.627225
0
LINE
8
BLACK
6
CONTINUOUS
10
0.29899
20
0.627225
11
0.298402
21
0.627718
0
LINE
8
BLACK
6
CONTINUOUS
10
0.298402
20
0.627718
11
0.297738
21
0.628102
0
LINE
8
BLACK
6
CONTINUOUS
10
0.297738
20
0.628102
11
0.297647
21
0.628352
0
LINE
8
BLACK
6
CONTINUOUS
10
0.297647
20
0.628352
11
0.297443
21
0.628524
0
LINE
8
BLACK
6
CONTINUOUS
10
0.297443
20
0.628524
11
0.29731
21
0.629279
0
LINE
8
BLACK
6
CONTINUOUS
10
0.29731
20
0.629279
11
0.297047
21
0.63
0
LINE
8
BLACK
6
CONTINUOUS
10
0.297047
20
0.63
11
0.297047
21
0.73
0
LINE
8
BLACK
6
CONTINUOUS
10
0.297047
20
0.73
11
0.297047
21
0.83
0
LINE
8
BLACK
6
CONTINUOUS
10
0.297047
20
0.83
11
0.297047
21
0.83
0
LINE
8
BLACK
6
CONTINUOUS
10
0.297047
20
0.83
11
0.297047
21
0.93
0
LINE
8
BLACK
6
CONTINUOUS
10
0.297047
20
0.93
11
0.297047
21
1.03
0
LINE
8
BLACK
6
CONTINUOUS
10
0.297047
20
1.03
11
0.297115
21
1.03038
0
LINE
8
BLACK
6
CONTINUOUS
10
0.297115
20
1.03038
11
0.297092
21
1.03051
0
LINE
8
BLACK
6
CONTINUOUS
10
0.297092
20
1.03051
11
0.297158
21
1.03063
0
LINE
8
BLACK
6
CONTINUOUS
10
0.297158
20
1.03063
11
0.297225
21
1.03101
0
LINE
8
BLACK
6
CONTINUOUS
10
0.297225
20
1.03101
11
0.297718
21
1.0316
0
LINE
8
BLACK
6
CONTINUOUS
10
0.297718
20
1.0316
11
0.298102
21
1.03226
0
LINE
8
BLACK
6
CONTINUOUS
10
0.298102
20
1.03226
11
0.298352
21
1.03235
0
LINE
8
BLACK
6
CONTINUOUS
10
0.298352
20
1.03235
11
0.298524
21
1.03256
0
LINE
8
BLACK
6
CONTINUOUS
10
0.298524
20
1.03256
11
0.299279
21
1.03269
0
LINE
8
BLACK
6
CONTINUOUS
10
0.299279
20
1.03269
11
0.3
21
1.03295
0
LINE
8
BLACK
6
CONTINUOUS
10
0.3
20
1.03295
11
0.6
21
1.03295
0
LINE
8
BLACK
6
CONTINUOUS
10
0.6
20
1.03295
11
0.600384
21
1.03289
0
LINE
8
BLACK
6
CONTINUOUS
10
0.302953
20
0.727047
11
0.302953
21
0.632953
0
LINE
8
BLACK
6
CONTINUOUS
10
0.302953
20
0.632953
11
0.597047
21
0.632953
0
LINE
8
BLACK
6
CONTINUOUS
10
0.597047
20
0.632953
11
0.597047
21
0.727047
0
LINE
8
BLACK
6
CONTINUOUS
10
0.597047
20
0.727047
11
0.302953
21
0.727047
0
LINE
8
BLACK
6
CONTINUOUS
10
0.302953
20
0.827047
11
0.302953
21
0.732953
0
LINE
8
BLACK
6
CONTINUOUS
10
0.302953
20
0.732953
11
0.597047
21
0.732953
0
LINE
8
BLACK
6
CONTINUOUS
10
0.597047
20
0.732953
11
0.597047
21
0.827047
0
LINE
8
BLACK
6
CONTINUOUS
10
0.597047
20
0.827047
11
0.302953
21
0.827047
0
LINE
8
BLACK
6
CONTINUOUS
10
0.302953
20
0.927047
11
0.302953
21
0.832953
0
LINE
8
BLACK
6
CONTINUOUS
10
0.302953
20
0.832953
11
0.597047
21
0.832953
0
LINE
8
BLACK
6
CONTINUOUS
10
0.597047
20
0.832953
11
0.597047
21
0.927047
0
LINE
8
BLACK
6
CONTINUOUS
10
0.597047
20
0.927047
11
0.302953
21
0.927047
0
LINE
8
BLACK
6
CONTINUOUS
10
0.302953
20
1.02705
11
0.302953
21
0.932953
0
LINE
8
BLACK
6
CONTINUOUS
10
0.302953
20
0.932953
11
0.597047
21
0.932953
0
LINE
8
BLACK
6
CONTINUOUS
10
0.597047
20
0.932953
11
0.597047
21
1.02705
0
LINE
8
BLACK
6
CONTINUOUS
10
0.597047
20
1.02705
11
0.302953
21
1.02705
0
LINE
8
BLACK
6
CONTINUOUS
10
0.87
20
1.25295
11
0.97
21
1.25295
0
LINE
8
BLACK
6
CONTINUOUS
10
0.97
20
1.25295
11
1.07
21
1.25295
0
LINE
8
BLACK
6
CONTINUOUS
10
1.07
20
1.25295
11
1.07038
21
1.25289
0
LINE
8
BLACK
6
CONTINUOUS
10
1.07038
20
1.25289
11
1.07051
21
1.25291
0
LINE
8
BLACK
6
CONTINUOUS
10
1.07051
20
1.25291
11
1.07063
21
1.25284
0
LINE
8
BLACK
6
CONTINUOUS
10
1.07063
20
1.25284
11
1.07101
21
1.25277
0
LINE
8
BLACK
6
CONTINUOUS
10
1.07101
20
1.25277
11
1.0716
21
1.25228
0
LINE
8
BLACK
6
CONTINUOUS
10
1.0716
20
1.25228
11
1.07226
21
1.2519
0
LINE
8
BLACK
6
CONTINUOUS
10
1.07226
20
1.2519
11
1.07235
21
1.25165
0
LINE
8
BLACK
6
CONTINUOUS
10
1.07235
20
1.25165
11
1.07256
21
1.25148
0
LINE
8
BLACK
6
CONTINUOUS
10
1.07256
20
1.25148
11
1.07269
21
1.25072
0
LINE
8
BLACK
6
CONTINUOUS
10
1.07269
20
1.25072
11
1.07295
21
1.25
0
LINE
8
BLACK
6
CONTINUOUS
10
1.07295
20
1.25
11
1.07295
21
1.05
0
LINE
8
BLACK
6
CONTINUOUS
10
1.07295
20
1.05
11
1.07289
21
1.04962
0
LINE
8
BLACK
6
CONTINUOUS
10
1.07289
20
1.04962
11
1.07291
21
1.04949
0
LINE
8
BLACK
6
CONTINUOUS
10
1.07291
20
1.04949
11
1.07284
21
1.04937
0
LINE
8
BLACK
6
CONTINUOUS
10
1.07284
20
1.04937
11
1.07277
21
1.04899
0
LINE
8
BLACK
6
CONTINUOUS
10
1.07277
20
1.04899
11
1.07228
21
1.0484
0
LINE
8
BLACK
6
CONTINUOUS
10
1.07228
20
1.0484
11
1.0719
21
1.04774
0
LINE
8
BLACK
6
CONTINUOUS
10
1.0719
20
1.04774
11
1.07165
21
1.04765
0
LINE
8
BLACK
6
CONTINUOUS
10
1.07165
20
1.04765
11
1.07148
21
1.04744
0
LINE
8
BLACK
6
CONTINUOUS
10
1.07148
20
1.04744
11
1.07072
21
1.04731
0
LINE
8
BLACK
6
CONTINUOUS
10
1.07072
20
1.04731
11
1.07
21
1.04705
0
LINE
8
BLACK
6
CONTINUOUS
10
1.07
20
1.04705
11
0.97
21
1.04705
0
LINE
8
BLACK
6
CONTINUOUS
10
0.97
20
1.04705
11
0.87
21
1.04705
0
LINE
8
BLACK
6
CONTINUOUS
10
0.87
20
1.04705
11
0.77
21
1.04705
0
LINE
8
BLACK
6
CONTINUOUS
10
0.77
20
1.04705
11
0.769616
21
1.04711
0
LINE
8
BLACK
6
CONTINUOUS
10
0.769616
20
1.04711
11
0.769487
21
1.04709
0
LINE
8
BLACK
6
CONTINUOUS
10
0.769487
20
1.04709
11
0.769374
21
1.04716
0
LINE
8
BLACK
6
CONTINUOUS
10
0.769374
20
1.04716
11
0.76899
21
1.04723
0
LINE
8
BLACK
6
CONTINUOUS
10
0.76899
20
1.04723
11
0.768402
21
1.04772
0
LINE
8
BLACK
6
CONTINUOUS
10
0.768402
20
1.04772
11
0.767738
21
1.0481
0
LINE
8
BLACK
6
CONTINUOUS
10
0.767738
20
1.0481
11
0.767647
21
1.04835
0
LINE
8
BLACK
6
CONTINUOUS
10
0.767647
20
1.04835
11
0.767443
21
1.04852
0
LINE
8
BLACK
6
CONTINUOUS
10
0.767443
20
1.04852
11
0.76731
21
1.04928
0
LINE
8
BLACK
6
CONTINUOUS
10
0.76731
20
1.04928
11
0.767047
21
1.05
0
LINE
8
BLACK
6
CONTINUOUS
10
0.767047
20
1.05
11
0.767047
21
1.25
0
LINE
8
BLACK
6
CONTINUOUS
10
0.767047
20
1.25
11
0.767115
21
1.25038
0
LINE
8
BLACK
6
CONTINUOUS
10
0.767115
20
1.25038
11
0.767092
21
1.25051
0
LINE
8
BLACK
6
CONTINUOUS
10
0.767092
20
1.25051
11
0.767158
21
1.25063
0
LINE
8
BLACK
6
CONTINUOUS
10
0.767158
20
1.25063
11
0.767225
21
1.25101
0
LINE
8
BLACK
6
CONTINUOUS
10
0.767225
20
1.25101
11
0.767718
21
1.2516
0
LINE
8
BLACK
6
CONTINUOUS
10
0.767718
20
1.2516
11
0.768102
21
1.25226
0
LINE
8
BLACK
6
CONTINUOUS
10
0.768102
20
1.25226
11
0.768352
21
1.25235
0
LINE
8
BLACK
6
CONTINUOUS
10
0.768352
20
1.25235
11
0.768524
21
1.25256
0
LINE
8
BLACK
6
CONTINUOUS
10
0.768524
20
1.25256
11
0.769279
21
1.25269
0
LINE
8
BLACK
6
CONTINUOUS
10
0.769279
20
1.25269
11
0.77
21
1.25295
0
LINE
8
BLACK
6
CONTINUOUS
10
0.77
20
1.25295
11
0.87
21
1.25295
0
LINE
8
BLACK
6
CONTINUOUS
10
0.972953
20
1.24705
11
0.972953
21
1.05295
0
LINE
8
BLACK
6
CONTINUOUS
10
0.972953
20
1.05295
11
1.06705
21
1.05295
0
LINE
8
BLACK
6
CONTINUOUS
10
1.06705
20
1.05295
11
1.06705
21
1.24705
0
LINE
8
BLACK
6
CONTINUOUS
10
1.06705
20
1.24705
11
0.972953
21
1.24705
0
LINE
8
BLACK
6
CONTINUOUS
10
0.872953
20
1.24705
11
0.872953
21
1.05295
0
LINE
8
BLACK
6
CONTINUOUS
10
0.872953
20
1.05295
11
0.967047
21
1.05295
0
LINE
8
BLACK
6
CONTINUOUS
10
0.967047
20
1.05295
11
0.967047
21
1.24705
0
LINE
8
BLACK
6
CONTINUOUS
10
0.967047
20
1.24705
11
0.872953
21
1.24705
0
LINE
8
BLACK
6
CONTINUOUS
10
0.772953
20
1.24705
11
0.772953
21
1.05295
0
LINE
8
BLACK
6
CONTINUOUS
10
0.772953
20
1.05295
11
0.867047
21
1.05295
0
LINE
8
BLACK
6
CONTINUOUS
10
0.867047
20
1.05295
11
0.867047
21
1.24705
0
LINE
8
BLACK
6
CONTINUOUS
10
0.867047
20
1.24705
11
0.772953
21
1.24705
0
LINE
8
BLACK
6
CONTINUOUS
10
1.15038
20
1.67289
11
1.15051
21
1.67291
0
LINE
8
BLACK
6
CONTINUOUS
10
1.15051
20
1.67291
11
1.15063
21
1.67284
0
LINE
8
BLACK
6
CONTINUOUS
10
1.15063
20
1.67284
11
1.15101
21
1.67277
0
LINE
8
BLACK
6
CONTINUOUS
10
1.15101
20
1.67277
11
1.1516
21
1.67228
0
LINE
8
BLACK
6
CONTINUOUS
10
1.1516
20
1.67228
11
1.15226
21
1.6719
0
LINE
8
BLACK
6
CONTINUOUS
10
1.15226
20
1.6719
11
1.15235
21
1.67165
0
LINE
8
BLACK
6
CONTINUOUS
10
1.15235
20
1.67165
11
1.15256
21
1.67148
0
LINE
8
BLACK
6
CONTINUOUS
10
1.15256
20
1.67148
11
1.15269
21
1.67072
0
LINE
8
BLACK
6
CONTINUOUS
10
1.15269
20
1.67072
11
1.15295
21
1.67
0
LINE
8
BLACK
6
CONTINUOUS
10
1.15295
20
1.67
11
1.15295
21
1.47
0
LINE
8
BLACK
6
CONTINUOUS
10
1.15295
20
1.47
11
1.15289
21
1.46962
0
LINE
8
BLACK
6
CONTINUOUS
10
1.15289
20
1.46962
11
1.15291
21
1.46949
0
LINE
8
BLACK
6
CONTINUOUS
10
1.15291
20
1.46949
11
1.15284
21
1.46937
0
LINE
8
BLACK
6
CONTINUOUS
10
1.15284
20
1.46937
11
1.15277
21
1.46899
0
LINE
8
BLACK
6
CONTINUOUS
10
1.15277
20
1.46899
11
1.15228
21
1.4684
0
LINE
8
BLACK
6
CONTINUOUS
10
1.15228
20
1.4684
11
1.1519
21
1.46774
0
LINE
8
BLACK
6
CONTINUOUS
10
1.1519
20
1.46774
11
1.15165
21
1.46765
0
LINE
8
BLACK
6
CONTINUOUS
10
1.15165
20
1.46765
11
1.15148
21
1.46744
0
LINE
8
BLACK
6
CONTINUOUS
10
1.15148
20
1.46744
11
1.15072
21
1.46731
0
LINE
8
BLACK
6
CONTINUOUS
10
1.15072
20
1.46731
11
1.15
21
1.46705
0
LINE
8
BLACK
6
CONTINUOUS
10
1.15
20
1.46705
11
0.85
21
1.46705
0
LINE
8
BLACK
6
CONTINUOUS
10
0.85
20
1.46705
11
0.849616
21
1.46711
0
LINE
8
BLACK
6
CONTINUOUS
10
0.849616
20
1.46711
11
0.849487
21
1.46709
0
LINE
8
BLACK
6
CONTINUOUS
10
0.849487
20
1.46709
11
0.849374
21
1.46716
0
LINE
8
BLACK
6
CONTINUOUS
10
0.849374
20
1.46716
11
0.84899
21
1.46723
0
LINE
8
BLACK
6
CONTINUOUS
10
0.84899
20
1.46723
11
0.848402
21
1.46772
0
LINE
8
BLACK
6
CONTINUOUS
10
0.848402
20
1.46772
11
0.847738
21
1.4681
0
LINE
8
BLACK
6
CONTINUOUS
10
0.847738
20
1.4681
11
0.847647
21
1.46835
0
LINE
8
BLACK
6
CONTINUOUS
10
0.847647
20
1.46835
11
0.847443
21
1.46852
0
LINE
8
BLACK
6
CONTINUOUS
10
0.847443
20
1.46852
11
0.84731
21
1.46928
0
LINE
8
BLACK
6
CONTINUOUS
10
0.84731
20
1.46928
11
0.847047
21
1.47
0
LINE
8
BLACK
6
CONTINUOUS
10
0.847047
20
1.47
11
0.847047
21
1.67
0
LINE
8
BLACK
6
CONTINUOUS
10
0.847047
20
1.67
11
0.847115
21
1.67038
0
LINE
8
BLACK
6
CONTINUOUS
10
0.847115
20
1.67038
11
0.847092
21
1.67051
0
LINE
8
BLACK
6
CONTINUOUS
10
0.847092
20
1.67051
11
0.847158
21
1.67063
0
LINE
8
BLACK
6
CONTINUOUS
10
0.847158
20
1.67063
11
0.847225
21
1.67101
0
LINE
8
BLACK
6
CONTINUOUS
10
0.847225
20
1.67101
11
0.847718
21
1.6716
0
LINE
8
BLACK
6
CONTINUOUS
10
0.847718
20
1.6716
11
0.848102
21
1.67226
0
LINE
8
BLACK
6
CONTINUOUS
10
0.848102
20
1.67226
11
0.848352
21
1.67235
0
LINE
8
BLACK
6
CONTINUOUS
10
0.848352
20
1.67235
11
0.848524
21
1.67256
0
LINE
8
BLACK
6
CONTINUOUS
10
0.848524
20
1.67256
11
0.849279
21
1.67269
0
LINE
8
BLACK
6
CONTINUOUS
10
0.849279
20
1.67269
11
0.85
21
1.67295
0
LINE
8
BLACK
6
CONTINUOUS
10
0.85
20
1.67295
11
1.15
21
1.67295
0
LINE
8
BLACK
6
CONTINUOUS
10
1.15
20
1.67295
11
1.15038
21
1.67289
0
LINE
8
BLACK
6
CONTINUOUS
10
0.852953
20
1.66705
11
0.852953
21
1.47295
0
LINE
8
BLACK
6
CONTINUOUS
10
0.852953
20
1.47295
11
1.14705
21
1.47295
0
LINE
8
BLACK
6
CONTINUOUS
10
1.14705
20
1.47295
11
1.14705
21
1.66705
0
LINE
8
BLACK
6
CONTINUOUS
10
1.14705
20
1.66705
11
0.852953
21
1.66705
0
LINE
8
BLACK
6
CONTINUOUS
10
0.414063
20
1.72481
11
0.427949
21
1.72245
0
LINE
8
BLACK
6
CONTINUOUS
10
0.427949
20
1.72245
11
0.441483
21
1.71855
0
LINE
8
BLACK
6
CONTINUOUS
10
0.441483
20
1.71855
11
0.454496
21
1.71316
0
LINE
8
BLACK
6
CONTINUOUS
10
0.454496
20
1.71316
11
0.466823
21
1.70635
0
LINE
8
BLACK
6
CONTINUOUS
10
0.466823
20
1.70635
11
0.47831
21
1.6982
0
LINE
8
BLACK
6
CONTINUOUS
10
0.47831
20
1.6982
11
0.488813
21
1.68881
0
LINE
8
BLACK
6
CONTINUOUS
10
0.488813
20
1.68881
11
0.498198
21
1.67831
0
LINE
8
BLACK
6
CONTINUOUS
10
0.498198
20
1.67831
11
0.506349
21
1.66682
0
LINE
8
BLACK
6
CONTINUOUS
10
0.506349
20
1.66682
11
0.513162
21
1.6545
0
LINE
8
BLACK
6
CONTINUOUS
10
0.513162
20
1.6545
11
0.518552
21
1.64148
0
LINE
8
BLACK
6
CONTINUOUS
10
0.518552
20
1.64148
11
0.522451
21
1.62795
0
LINE
8
BLACK
6
CONTINUOUS
10
0.522451
20
1.62795
11
0.52481
21
1.61406
0
LINE
8
BLACK
6
CONTINUOUS
10
0.52481
20
1.61406
11
0.5256
21
1.6
0
LINE
8
BLACK
6
CONTINUOUS
10
0.5256
20
1.6
11
0.52481
21
1.58594
0
LINE
8
BLACK
6
CONTINUOUS
10
0.52481
20
1.58594
11
0.522451
21
1.57205
0
LINE
8
BLACK
6
CONTINUOUS
10
0.522451
20
1.57205
11
0.518552
21
1.55852
0
LINE
8
BLACK
6
CONTINUOUS
10
0.518552
20
1.55852
11
0.513162
21
1.5455
0
LINE
8
BLACK
6
CONTINUOUS
10
0.513162
20
1.5455
11
0.506349
21
1.53318
0
LINE
8
BLACK
6
CONTINUOUS
10
0.506349
20
1.53318
11
0.498198
21
1.52169
0
LINE
8
BLACK
6
CONTINUOUS
10
0.498198
20
1.52169
11
0.488813
21
1.51119
0
LINE
8
BLACK
6
CONTINUOUS
10
0.488813
20
1.51119
11
0.47831
21
1.5018
0
LINE
8
BLACK
6
CONTINUOUS
10
0.47831
20
1.5018
11
0.466823
21
1.49365
0
LINE
8
BLACK
6
CONTINUOUS
10
0.466823
20
1.49365
11
0.454496
21
1.48684
0
LINE
8
BLACK
6
CONTINUOUS
10
0.454496
20
1.48684
11
0.441483
21
1.48145
0
LINE
8
BLACK
6
CONTINUOUS
10
0.441483
20
1.48145
11
0.427949
21
1.47755
0
LINE
8
BLACK
6
CONTINUOUS
10
0.427949
20
1.47755
11
0.414063
21
1.47519
0
LINE
8
BLACK
6
CONTINUOUS
10
0.414063
20
1.47519
11
0.4
21
1.4744
0
LINE
8
BLACK
6
CONTINUOUS
10
0.4
20
1.4744
11
0.385937
21
1.47519
0
LINE
8
BLACK
6
CONTINUOUS
10
0.385937
20
1.47519
11
0.372051
21
1.47755
0
LINE
8
BLACK
6
CONTINUOUS
10
0.372051
20
1.47755
11
0.358517
21
1.48145
0
LINE
8
BLACK
6
CONTINUOUS
10
0.358517
20
1.48145
11
0.345504
21
1.48684
0
LINE
8
BLACK
6
CONTINUOUS
10
0.345504
20
1.48684
11
0.333177
21
1.49365
0
LINE
8
BLACK
6
CONTINUOUS
10
0.333177
20
1.49365
11
0.32169
21
1.5018
0
LINE
8
BLACK
6
CONTINUOUS
10
0.32169
20
1.5018
11
0.311187
21
1.51119
0
LINE
8
BLACK
6
CONTINUOUS
10
0.311187
20
1.51119
11
0.301802
21
1.52169
0
LINE
8
BLACK
6
CONTINUOUS
10
0.301802
20
1.52169
11
0.293651
21
1.53318
0
LINE
8
BLACK
6
CONTINUOUS
10
0.293651
20
1.53318
11
0.286838
21
1.5455
0
LINE
8
BLACK
6
CONTINUOUS
10
0.286838
20
1.5455
11
0.281448
21
1.55852
0
LINE
8
BLACK
6
CONTINUOUS
10
0.281448
20
1.55852
11
0.277549
21
1.57205
0
LINE
8
BLACK
6
CONTINUOUS
10
0.277549
20
1.57205
11
0.27519
21
1.58594
0
LINE
8
BLACK
6
CONTINUOUS
10
0.27519
20
1.58594
11
0.2744
21
1.6
0
LINE
8
BLACK
6
CONTINUOUS
10
0.2744
20
1.6
11
0.27519
21
1.61406
0
LINE
8
BLACK
6
CONTINUOUS
10
0.27519
20
1.61406
11
0.277549
21
1.62795
0
LINE
8
BLACK
6
CONTINUOUS
10
0.277549
20
1.62795
11
0.281448
21
1.64148
0
LINE
8
BLACK
6
CONTINUOUS
10
0.281448
20
1.64148
11
0.286838
21
1.6545
0
LINE
8
BLACK
6
CONTINUOUS
10
0.286838
20
1.6545
11
0.293651
21
1.66682
0
LINE
8
BLACK
6
CONTINUOUS
10
0.293651
20
1.66682
11
0.301802
21
1.67831
0
LINE
8
BLACK
6
CONTINUOUS
10
0.301802
20
1.67831
11
0.311187
21
1.68881
0
LINE
8
BLACK
6
CONTINUOUS
10
0.311187
20
1.68881
11
0.32169
21
1.6982
0
LINE
8
BLACK
6
CONTINUOUS
10
0.32169
20
1.6982
11
0.333177
21
1.70635
0
LINE
8
BLACK
6
CONTINUOUS
10
0.333177
20
1.70635
11
0.345504
21
1.71316
0
LINE
8
BLACK
6
CONTINUOUS
10
0.345504
20
1.71316
11
0.358517
21
1.71855
0
LINE
8
BLACK
6
CONTINUOUS
10
0.358517
20
1.71855
11
0.372051
21
1.72245
0
LINE
8
BLACK
6
CONTINUOUS
10
0.372051
20
1.72245
11
0.385937
21
1.72481
0
LINE
8
BLACK
6
CONTINUOUS
10
0.385937
20
1.72481
11
0.4
21
1.7256
0
LINE
8
BLACK
6
CONTINUOUS
10
0.4
20
1.7256
11
0.414063
21
1.72481
0
LINE
8
BLACK
6
CONTINUOUS
10
0.289962
20
1.58714
11
0.292199
21
1.57445
0
LINE
8
BLACK
6
CONTINUOUS
10
0.292199
20
1.57445
11
0.295894
21
1.56211
0
LINE
8
BLACK
6
CONTINUOUS
10
0.295894
20
1.56211
11
0.300997
21
1.55028
0
LINE
8
BLACK
6
CONTINUOUS
10
0.300997
20
1.55028
11
0.307438
21
1.53912
0
LINE
8
BLACK
6
CONTINUOUS
10
0.307438
20
1.53912
11
0.315132
21
1.52879
0
LINE
8
BLACK
6
CONTINUOUS
10
0.315132
20
1.52879
11
0.323973
21
1.51942
0
LINE
8
BLACK
6
CONTINUOUS
10
0.323973
20
1.51942
11
0.333842
21
1.51113
0
LINE
8
BLACK
6
CONTINUOUS
10
0.333842
20
1.51113
11
0.344606
21
1.50406
0
LINE
8
BLACK
6
CONTINUOUS
10
0.344606
20
1.50406
11
0.356119
21
1.49827
0
LINE
8
BLACK
6
CONTINUOUS
10
0.356119
20
1.49827
11
0.368226
21
1.49387
0
LINE
8
BLACK
6
CONTINUOUS
10
0.368226
20
1.49387
11
0.380762
21
1.4909
0
LINE
8
BLACK
6
CONTINUOUS
10
0.380762
20
1.4909
11
0.393558
21
1.4894
0
LINE
8
BLACK
6
CONTINUOUS
10
0.393558
20
1.4894
11
0.406442
21
1.4894
0
LINE
8
BLACK
6
CONTINUOUS
10
0.406442
20
1.4894
11
0.419238
21
1.4909
0
LINE
8
BLACK
6
CONTINUOUS
10
0.419238
20
1.4909
11
0.431774
21
1.49387
0
LINE
8
BLACK
6
CONTINUOUS
10
0.431774
20
1.49387
11
0.443881
21
1.49827
0
LINE
8
BLACK
6
CONTINUOUS
10
0.443881
20
1.49827
11
0.455394
21
1.50406
0
LINE
8
BLACK
6
CONTINUOUS
10
0.455394
20
1.50406
11
0.466158
21
1.51113
0
LINE
8
BLACK
6
CONTINUOUS
10
0.466158
20
1.51113
11
0.476027
21
1.51942
0
LINE
8
BLACK
6
CONTINUOUS
10
0.476027
20
1.51942
11
0.484868
21
1.52879
0
LINE
8
BLACK
6
CONTINUOUS
10
0.484868
20
1.52879
11
0.492562
21
1.53912
0
LINE
8
BLACK
6
CONTINUOUS
10
0.492562
20
1.53912
11
0.499003
21
1.55028
0
LINE
8
BLACK
6
CONTINUOUS
10
0.499003
20
1.55028
11
0.504106
21
1.56211
0
LINE
8
BLACK
6
CONTINUOUS
10
0.504106
20
1.56211
11
0.507801
21
1.57445
0
LINE
8
BLACK
6
CONTINUOUS
10
0.507801
20
1.57445
11
0.510038
21
1.58714
0
LINE
8
BLACK
6
CONTINUOUS
10
0.510038
20
1.58714
11
0.510787
21
1.6
0
LINE
8
BLACK
6
CONTINUOUS
10
0.510787
20
1.6
11
0.510038
21
1.61286
0
LINE
8
BLACK
6
CONTINUOUS
10
0.510038
20
1.61286
11
0.507801
21
1.62555
0
LINE
8
BLACK
6
CONTINUOUS
10
0.507801
20
1.62555
11
0.504106
21
1.63789
0
LINE
8
BLACK
6
CONTINUOUS
10
0.504106
20
1.63789
11
0.499003
21
1.64972
0
LINE
8
BLACK
6
CONTINUOUS
10
0.499003
20
1.64972
11
0.492562
21
1.66088
0
LINE
8
BLACK
6
CONTINUOUS
10
0.492562
20
1.66088
11
0.484868
21
1.67121
0
LINE
8
BLACK
6
CONTINUOUS
10
0.484868
20
1.67121
11
0.476027
21
1.68058
0
LINE
8
BLACK
6
CONTINUOUS
10
0.476027
20
1.68058
11
0.466158
21
1.68887
0
LINE
8
BLACK
6
CONTINUOUS
10
0.466158
20
1.68887
11
0.455394
21
1.69594
0
LINE
8
BLACK
6
CONTINUOUS
10
0.455394
20
1.69594
11
0.443881
21
1.70173
0
LINE
8
BLACK
6
CONTINUOUS
10
0.443881
20
1.70173
11
0.431774
21
1.70613
0
LINE
8
BLACK
6
CONTINUOUS
10
0.431774
20
1.70613
11
0.419238
21
1.7091
0
LINE
8
BLACK
6
CONTINUOUS
10
0.419238
20
1.7091
11
0.406442
21
1.7106
0
LINE
8
BLACK
6
CONTINUOUS
10
0.406442
20
1.7106
11
0.393558
21
1.7106
0
LINE
8
BLACK
6
CONTINUOUS
10
0.393558
20
1.7106
11
0.380762
21
1.7091
0
LINE
8
BLACK
6
CONTINUOUS
10
0.380762
20
1.7091
11
0.368226
21
1.70613
0
LINE
8
BLACK
6
CONTINUOUS
10
0.368226
20
1.70613
11
0.356119
21
1.70173
0
LINE
8
BLACK
6
CONTINUOUS
10
0.356119
20
1.70173
11
0.344606
21
1.69594
0
LINE
8
BLACK
6
CONTINUOUS
10
0.344606
20
1.69594
11
0.333842
21
1.68887
0
LINE
8
BLACK
6
CONTINUOUS
10
0.333842
20
1.68887
11
0.323973
21
1.68058
0
LINE
8
BLACK
6
CONTINUOUS
10
0.323973
20
1.68058
11
0.315132
21
1.67121
0
LINE
8
BLACK
6
CONTINUOUS
10
0.315132
20
1.67121
11
0.307438
21
1.66088
0
LINE
8
BLACK
6
CONTINUOUS
10
0.307438
20
1.66088
11
0.300997
21
1.64972
0
LINE
8
BLACK
6
CONTINUOUS
10
0.300997
20
1.64972
11
0.295894
21
1.63789
0
LINE
8
BLACK
6
CONTINUOUS
10
0.295894
20
1.63789
11
0.292199
21
1.62555
0
LINE
8
BLACK
6
CONTINUOUS
10
0.292199
20
1.62555
11
0.289962
21
1.61286
0
LINE
8
BLACK
6
CONTINUOUS
10
0.289962
20
1.61286
11
0.289213
21
1.6
0
LINE
8
BLACK
6
CONTINUOUS
10
0.289213
20
1.6
11
0.289962
21
1.58714
0
LINE
8
BLACK
6
CONTINUOUS
10
1.61406
20
1.72481
11
1.62795
21
1.72245
0
LINE
8
BLACK
6
CONTINUOUS
10
1.62795
20
1.72245
11
1.64148
21
1.71855
0
LINE
8
BLACK
6
CONTINUOUS
10
1.64148
20
1.71855
11
1.6545
21
1.71316
0
LINE
8
BLACK
6
CONTINUOUS
10
1.6545
20
1.71316
11
1.66682
21
1.70635
0
LINE
8
BLACK
6
CONTINUOUS
10
1.66682
20
1.70635
11
1.67831
21
1.6982
0
LINE
8
BLACK
6
CONTINUOUS
10
1.67831
20
1.6982
11
1.68881
21
1.68881
0
LINE
8
BLACK
6
CONTINUOUS
10
1.68881
20
1.68881
11
1.6982
21
1.67831
0
LINE
8
BLACK
6
CONTINUOUS
10
1.6982
20
1.67831
11
1.70635
21
1.66682
0
LINE
8
BLACK
6
CONTINUOUS
10
1.70635
20
1.66682
11
1.71316
21
1.6545
0
LINE
8
BLACK
6
CONTINUOUS
10
1.71316
20
1.6545
11
1.71855
21
1.64148
0
LINE
8
BLACK
6
CONTINUOUS
10
1.71855
20
1.64148
11
1.72245
21
1.62795
0
LINE
8
BLACK
6
CONTINUOUS
10
1.72245
20
1.62795
11
1.72481
21
1.61406
0
LINE
8
BLACK
6
CONTINUOUS
10
1.72481
20
1.61406
11
1.7256
21
1.6
0
LINE
8
BLACK
6
CONTINUOUS
10
1.7256
20
1.6
11
1.72481
21
1.58594
0
LINE
8
BLACK
6
CONTINUOUS
10
1.72481
20
1.58594
11
1.72245
21
1.57205
0
LINE
8
BLACK
6
CONTINUOUS
10
1.72245
20
1.57205
11
1.71855
21
1.55852
0
LINE
8
BLACK
6
CONTINUOUS
10
1.71855
20
1.55852
11
1.71316
21
1.5455
0
LINE
8
BLACK
6
CONTINUOUS
10
1.71316
20
1.5455
11
1.70635
21
1.53318
0
LINE
8
BLACK
6
CONTINUOUS
10
1.70635
20
1.53318
11
1.6982
21
1.52169
0
LINE
8
BLACK
6
CONTINUOUS
10
1.6982
20
1.52169
11
1.68881
21
1.51119
0
LINE
8
BLACK
6
CONTINUOUS
10
1.68881
20
1.51119
11
1.67831
21
1.5018
0
LINE
8
BLACK
6
CONTINUOUS
10
1.67831
20
1.5018
11
1.66682
21
1.49365
0
LINE
8
BLACK
6
CONTINUOUS
10
1.66682
20
1.49365
11
1.6545
21
1.48684
0
LINE
8
BLACK
6
CONTINUOUS
10
1.6545
20
1.48684
11
1.64148
21
1.48145
0
LINE
8
BLACK
6
CONTINUOUS
10
1.64148
20
1.48145
11
1.62795
21
1.47755
0
LINE
8
BLACK
6
CONTINUOUS
10
1.62795
20
1.47755
11
1.61406
21
1.47519
0
LINE
8
BLACK
6
CONTINUOUS
10
1.61406
20
1.47519
11
1.6
21
1.4744
0
LINE
8
BLACK
6
CONTINUOUS
10
1.6
20
1.4744
11
1.58594
21
1.47519
0
LINE
8
BLACK
6
CONTINUOUS
10
1.58594
20
1.47519
11
1.57205
21
1.47755
0
LINE
8
BLACK
6
CONTINUOUS
10
1.57205
20
1.47755
11
1.55852
21
1.48145
0
LINE
8
BLACK
6
CONTINUOUS
10
1.55852
20
1.48145
11
1.5455
21
1.48684
0
LINE
8
BLACK
6
CONTINUOUS
10
1.5455
20
1.48684
11
1.53318
21
1.49365
0
LINE
8
BLACK
6
CONTINUOUS
10
1.53318
20
1.49365
11
1.52169
21
1.5018
0
LINE
8
BLACK
6
CONTINUOUS
10
1.52169
20
1.5018
11
1.51119
21
1.51119
0
LINE
8
BLACK
6
CONTINUOUS
10
1.51119
20
1.51119
11
1.5018
21
1.52169
0
LINE
8
BLACK
6
CONTINUOUS
10
1.5018
20
1.52169
11
1.49365
21
1.53318
0
LINE
8
BLACK
6
CONTINUOUS
10
1.49365
20
1.53318
11
1.48684
21
1.5455
0
LINE
8
BLACK
6
CONTINUOUS
10
1.48684
20
1.5455
11
1.48145
21
1.55852
0
LINE
8
BLACK
6
CONTINUOUS
10
1.48145
20
1.55852
11
1.47755
21
1.57205
0
LINE
8
BLACK
6
CONTINUOUS
10
1.47755
20
1.57205
11
1.47519
21
1.58594
0
LINE
8
BLACK
6
CONTINUOUS
10
1.47519
20
1.58594
11
1.4744
21
1.6
0
LINE
8
BLACK
6
CONTINUOUS
10
1.4744
20
1.6
11
1.47519
21
1.61406
0
LINE
8
BLACK
6
CONTINUOUS
10
1.47519
20
1.61406
11
1.47755
21
1.62795
0
LINE
8
BLACK
6
CONTINUOUS
10
1.47755
20
1.62795
11
1.48145
21
1.64148
0
LINE
8
BLACK
6
CONTINUOUS
10
1.48145
20
1.64148
11
1.48684
21
1.6545
0
LINE
8
BLACK
6
CONTINUOUS
10
1.48684
20
1.6545
11
1.49365
21
1.66682
0
LINE
8
BLACK
6
CONTINUOUS
10
1.49365
20
1.66682
11
1.5018
21
1.67831
0
LINE
8
BLACK
6
CONTINUOUS
10
1.5018
20
1.67831
11
1.51119
21
1.68881
0
LINE
8
BLACK
6
CONTINUOUS
10
1.51119
20
1.68881
11
1.52169
21
1.6982
0
LINE
8
BLACK
6
CONTINUOUS
10
1.52169
20
1.6982
11
1.53318
21
1.70635
0
LINE
8
BLACK
6
CONTINUOUS
10
1.53318
20
1.70635
11
1.5455
21
1.71316
0
LINE
8
BLACK
6
CONTINUOUS
10
1.5455
20
1.71316
11
1.55852
21
1.71855
0
LINE
8
BLACK
6
CONTINUOUS
10
1.55852
20
1.71855
11
1.57205
21
1.72245
0
LINE
8
BLACK
6
CONTINUOUS
10
1.57205
20
1.72245
11
1.58594
21
1.72481
0
LINE
8
BLACK
6
CONTINUOUS
10
1.58594
20
1.72481
11
1.6
21
1.7256
0
LINE
8
BLACK
6
CONTINUOUS
10
1.6
20
1.7256
11
1.61406
21
1.72481
0
LINE
8
BLACK
6
CONTINUOUS
10
1.48996
20
1.58714
11
1.4922
21
1.57445
0
LINE
8
BLACK
6
CONTINUOUS
10
1.4922
20
1.57445
11
1.49589
21
1.56211
0
LINE
8
BLACK
6
CONTINUOUS
10
1.49589
20
1.56211
11
1.501
21
1.55028
0
LINE
8
BLACK
6
CONTINUOUS
10
1.501
20
1.55028
11
1.50744
21
1.53912
0
LINE
8
BLACK
6
CONTINUOUS
10
1.50744
20
1.53912
11
1.51513
21
1.52879
0
LINE
8
BLACK
6
CONTINUOUS
10
1.51513
20
1.52879
11
1.52397
21
1.51942
0
LINE
8
BLACK
6
CONTINUOUS
10
1.52397
20
1.51942
11
1.53384
21
1.51113
0
LINE
8
BLACK
6
CONTINUOUS
10
1.53384
20
1.51113
11
1.54461
21
1.50406
0
LINE
8
BLACK
6
CONTINUOUS
10
1.54461
20
1.50406
11
1.55612
21
1.49827
0
LINE
8
BLACK
6
CONTINUOUS
10
1.55612
20
1.49827
11
1.56823
21
1.49387
0
LINE
8
BLACK
6
CONTINUOUS
10
1.56823
20
1.49387
11
1.58076
21
1.4909
0
LINE
8
BLACK
6
CONTINUOUS
10
1.58076
20
1.4909
11
1.59356
21
1.4894
0
LINE
8
BLACK
6
CONTINUOUS
10
1.59356
20
1.4894
11
1.60644
21
1.4894
0
LINE
8
BLACK
6
CONTINUOUS
10
1.60644
20
1.4894
11
1.61924
21
1.4909
0
LINE
8
BLACK
6
CONTINUOUS
10
1.61924
20
1.4909
11
1.63177
21
1.49387
0
LINE
8
BLACK
6
CONTINUOUS
10
1.63177
20
1.49387
11
1.64388
21
1.49827
0
LINE
8
BLACK
6
CONTINUOUS
10
1.64388
20
1.49827
11
1.65539
21
1.50406
0
LINE
8
BLACK
6
CONTINUOUS
10
1.65539
20
1.50406
11
1.66616
21
1.51113
0
LINE
8
BLACK
6
CONTINUOUS
10
1.66616
20
1.51113
11
1.67603
21
1.51942
0
LINE
8
BLACK
6
CONTINUOUS
10
1.67603
20
1.51942
11
1.68487
21
1.52879
0
LINE
8
BLACK
6
CONTINUOUS
10
1.68487
20
1.52879
11
1.69256
21
1.53912
0
LINE
8
BLACK
6
CONTINUOUS
10
1.69256
20
1.53912
11
1.699
21
1.55028
0
LINE
8
BLACK
6
CONTINUOUS
10
1.699
20
1.55028
11
1.70411
21
1.56211
0
LINE
8
BLACK
6
CONTINUOUS
10
1.70411
20
1.56211
11
1.7078
21
1.57445
0
LINE
8
BLACK
6
CONTINUOUS
10
1.7078
20
1.57445
11
1.71004
21
1.58714
0
LINE
8
BLACK
6
CONTINUOUS
10
1.71004
20
1.58714
11
1.71079
21
1.6
0
LINE
8
BLACK
6
CONTINUOUS
10
1.71079
20
1.6
11
1.71004
21
1.61286
0
LINE
8
BLACK
6
CONTINUOUS
10
1.71004
20
1.61286
11
1.7078
21
1.62555
0
LINE
8
BLACK
6
CONTINUOUS
10
1.7078
20
1.62555
11
1.70411
21
1.63789
0
LINE
8
BLACK
6
CONTINUOUS
10
1.70411
20
1.63789
11
1.699
21
1.64972
0
LINE
8
BLACK
6
CONTINUOUS
10
1.699
20
1.64972
11
1.69256
21
1.66088
0
LINE
8
BLACK
6
CONTINUOUS
10
1.69256
20
1.66088
11
1.68487
21
1.67121
0
LINE
8
BLACK
6
CONTINUOUS
10
1.68487
20
1.67121
11
1.67603
21
1.68058
0
LINE
8
BLACK
6
CONTINUOUS
10
1.67603
20
1.68058
11
1.66616
21
1.68887
0
LINE
8
BLACK
6
CONTINUOUS
10
1.66616
20
1.68887
11
1.65539
21
1.69594
0
LINE
8
BLACK
6
CONTINUOUS
10
1.65539
20
1.69594
11
1.64388
21
1.70173
0
LINE
8
BLACK
6
CONTINUOUS
10
1.64388
20
1.70173
11
1.63177
21
1.70613
0
LINE
8
BLACK
6
CONTINUOUS
10
1.63177
20
1.70613
11
1.61924
21
1.7091
0
LINE
8
BLACK
6
CONTINUOUS
10
1.61924
20
1.7091
11
1.60644
21
1.7106
0
LINE
8
BLACK
6
CONTINUOUS
10
1.60644
20
1.7106
11
1.59356
21
1.7106
0
LINE
8
BLACK
6
CONTINUOUS
10
1.59356
20
1.7106
11
1.58076
21
1.7091
0
LINE
8
BLACK
6
CONTINUOUS
10
1.58076
20
1.7091
11
1.56823
21
1.70613
0
LINE
8
BLACK
6
CONTINUOUS
10
1.56823
20
1.70613
11
1.55612
21
1.70173
0
LINE
8
BLACK
6
CONTINUOUS
10
1.55612
20
1.70173
11
1.54461
21
1.69594
0
LINE
8
BLACK
6
CONTINUOUS
10
1.54461
20
1.69594
11
1.53384
21
1.68887
0
LINE
8
BLACK
6
CONTINUOUS
10
1.53384
20
1.68887
11
1.52397
21
1.68058
0
LINE
8
BLACK
6
CONTINUOUS
10
1.52397
20
1.68058
11
1.51513
21
1.67121
0
LINE
8
BLACK
6
CONTINUOUS
10
1.51513
20
1.67121
11
1.50744
21
1.66088
0
LINE
8
BLACK
6
CONTINUOUS
10
1.50744
20
1.66088
11
1.501
21
1.64972
0
LINE
8
BLACK
6
CONTINUOUS
10
1.501
20
1.64972
11
1.49589
21
1.63789
0
LINE
8
BLACK
6
CONTINUOUS
10
1.49589
20
1.63789
11
1.4922
21
1.62555
0
LINE
8
BLACK
6
CONTINUOUS
10
1.4922
20
1.62555
11
1.48996
21
1.61286
0
LINE
8
BLACK
6
CONTINUOUS
10
1.48996
20
1.61286
11
1.48921
21
1.6
0
LINE
8
BLACK
6
CONTINUOUS
10
1.48921
20
1.6
11
1.48996
21
1.58714
  0
ENDSEC
  0
EOF
