  0
SECTION
  2
HEADER
  9
$ANGBASE
  50
0.0
  9
$ANGDIR
  70
1
  9
$MEASUREMENT
  70
0
  0
ENDSEC
  0
SECTION
  2
TABLES
  0
TABLE
  2
LTYPE
  70
4
  0
LTYPE
  5
40F
  2
CONTINUOUS
  70
0
  3
Solid line
  72
65
  73
0
  40
0.0
  0
LTYPE
  5
410
  2
DASHDOT
 70
0
  3
Dash Dot ____ _ ____ _
 72
65
 73
4
 40
2.0
 49
1.25
 49
-0.25
 49
0.25
 49
-0.25
  0
LTYPE
  5
411
  2
DASHED
 70
0
  3
Dashed __ __ __ __ __
 72
65
 73
2
 40
0.75
 49
0.5
 49
-0.25
  0
LTYPE
  5
43B
  2
DOTTED
 70
0
  3
Dotted .  .  .  .
 72
65
 73
2
 40
0.2
 49
0.0
 49
-0.2
  0
ENDTAB
  0
TABLE
  2
STYLE
  70
4
  0
STYLE
  2
KICAD
  70
0
  40
0
  41
1
  42
1
  50
0
  71
0
  3
isocp.shx
  0
STYLE
  2
KICADB
  70
0
  40
0
  41
1
  42
1
  50
0
  71
0
  3
isocp.shx
  0
STYLE
  2
KICADI
  70
0
  40
0
  41
1
  42
1
  50
15
  71
0
  3
isocp.shx
  0
STYLE
  2
KICADBI
  70
0
  40
0
  41
1
  42
1
  50
15
  71
0
  3
isocp.shx
  0
ENDTAB
  0
TABLE
  2
LAYER
  70
1
  0
LAYER
  2
BLACK
  70
0
  62
7
  6
CONTINUOUS
  0
ENDTAB
  0
ENDSEC
  0
SECTION
  2
ENTITIES
0
LINE
8
BLACK
6
CONTINUOUS
10
1.60865
20
0.517793
11
1.62213
21
0.516018
0
LINE
8
BLACK
6
CONTINUOUS
10
1.62213
20
0.516018
11
1.63532
21
0.512706
0
LINE
8
BLACK
6
CONTINUOUS
10
1.63532
20
0.512706
11
1.64804
21
0.507899
0
LINE
8
BLACK
6
CONTINUOUS
10
1.64804
20
0.507899
11
1.66012
21
0.501662
0
LINE
8
BLACK
6
CONTINUOUS
10
1.66012
20
0.501662
11
1.67141
21
0.494078
0
LINE
8
BLACK
6
CONTINUOUS
10
1.67141
20
0.494078
11
1.68175
21
0.485247
0
LINE
8
BLACK
6
CONTINUOUS
10
1.68175
20
0.485247
11
1.69101
21
0.475286
0
LINE
8
BLACK
6
CONTINUOUS
10
1.69101
20
0.475286
11
1.69906
21
0.464327
0
LINE
8
BLACK
6
CONTINUOUS
10
1.69906
20
0.464327
11
1.70579
21
0.452516
0
LINE
8
BLACK
6
CONTINUOUS
10
1.70579
20
0.452516
11
1.71113
21
0.440008
0
LINE
8
BLACK
6
CONTINUOUS
10
1.71113
20
0.440008
11
1.71499
21
0.426971
0
LINE
8
BLACK
6
CONTINUOUS
10
1.71499
20
0.426971
11
1.71733
21
0.413575
0
LINE
8
BLACK
6
CONTINUOUS
10
1.71733
20
0.413575
11
1.71811
21
0.4
0
LINE
8
BLACK
6
CONTINUOUS
10
1.71811
20
0.4
11
1.71788
21
0.392584
0
LINE
8
BLACK
6
CONTINUOUS
10
1.71788
20
0.392584
11
1.71624
21
0.379084
0
LINE
8
BLACK
6
CONTINUOUS
10
1.71624
20
0.379084
11
1.71307
21
0.365862
0
LINE
8
BLACK
6
CONTINUOUS
10
1.71307
20
0.365862
11
1.7084
21
0.353093
0
LINE
8
BLACK
6
CONTINUOUS
10
1.7084
20
0.353093
11
1.70229
21
0.340945
0
LINE
8
BLACK
6
CONTINUOUS
10
1.70229
20
0.340945
11
1.69482
21
0.32958
0
LINE
8
BLACK
6
CONTINUOUS
10
1.69482
20
0.32958
11
1.6861
21
0.319148
0
LINE
8
BLACK
6
CONTINUOUS
10
1.6861
20
0.319148
11
1.67624
21
0.309788
0
LINE
8
BLACK
6
CONTINUOUS
10
1.67624
20
0.309788
11
1.66536
21
0.301623
0
LINE
8
BLACK
6
CONTINUOUS
10
1.66536
20
0.301623
11
1.65362
21
0.294763
0
LINE
8
BLACK
6
CONTINUOUS
10
1.65362
20
0.294763
11
1.64117
21
0.289297
0
LINE
8
BLACK
6
CONTINUOUS
10
1.64117
20
0.289297
11
1.62817
21
0.285299
0
LINE
8
BLACK
6
CONTINUOUS
10
1.62817
20
0.285299
11
1.6148
21
0.282821
0
LINE
8
BLACK
6
CONTINUOUS
10
1.6148
20
0.282821
11
1.60124
21
0.281896
0
LINE
8
BLACK
6
CONTINUOUS
10
1.60124
20
0.281896
11
1.58765
21
0.282537
0
LINE
8
BLACK
6
CONTINUOUS
10
1.58765
20
0.282537
11
1.57424
21
0.284734
0
LINE
8
BLACK
6
CONTINUOUS
10
1.57424
20
0.284734
11
1.56116
21
0.288459
0
LINE
8
BLACK
6
CONTINUOUS
10
1.56116
20
0.288459
11
1.54859
21
0.293663
0
LINE
8
BLACK
6
CONTINUOUS
10
1.54859
20
0.293663
11
1.53671
21
0.300276
0
LINE
8
BLACK
6
CONTINUOUS
10
1.53671
20
0.300276
11
1.52567
21
0.308211
0
LINE
8
BLACK
6
CONTINUOUS
10
1.52567
20
0.308211
11
1.51561
21
0.317363
0
LINE
8
BLACK
6
CONTINUOUS
10
1.51561
20
0.317363
11
1.50667
21
0.327609
0
LINE
8
BLACK
6
CONTINUOUS
10
1.50667
20
0.327609
11
1.49897
21
0.338816
0
LINE
8
BLACK
6
CONTINUOUS
10
1.49897
20
0.338816
11
1.49261
21
0.350833
0
LINE
8
BLACK
6
CONTINUOUS
10
1.49261
20
0.350833
11
1.48767
21
0.363502
0
LINE
8
BLACK
6
CONTINUOUS
10
1.48767
20
0.363502
11
1.48422
21
0.376655
0
LINE
8
BLACK
6
CONTINUOUS
10
1.48422
20
0.376655
11
1.4823
21
0.390117
0
LINE
8
BLACK
6
CONTINUOUS
10
1.4823
20
0.390117
11
1.48195
21
0.40371
0
LINE
8
BLACK
6
CONTINUOUS
10
1.48195
20
0.40371
11
1.48316
21
0.417254
0
LINE
8
BLACK
6
CONTINUOUS
10
1.48316
20
0.417254
11
1.48591
21
0.430569
0
LINE
8
BLACK
6
CONTINUOUS
10
1.48591
20
0.430569
11
1.49018
21
0.443479
0
LINE
8
BLACK
6
CONTINUOUS
10
1.49018
20
0.443479
11
1.49591
21
0.455813
0
LINE
8
BLACK
6
CONTINUOUS
10
1.49591
20
0.455813
11
1.50301
21
0.467407
0
LINE
8
BLACK
6
CONTINUOUS
10
1.50301
20
0.467407
11
1.5114
21
0.478108
0
LINE
8
BLACK
6
CONTINUOUS
10
1.5114
20
0.478108
11
1.52097
21
0.487773
0
LINE
8
BLACK
6
CONTINUOUS
10
1.52097
20
0.487773
11
1.53158
21
0.496275
0
LINE
8
BLACK
6
CONTINUOUS
10
1.53158
20
0.496275
11
1.5431
21
0.503501
0
LINE
8
BLACK
6
CONTINUOUS
10
1.5431
20
0.503501
11
1.55537
21
0.509355
0
LINE
8
BLACK
6
CONTINUOUS
10
1.55537
20
0.509355
11
1.56824
21
0.513759
0
LINE
8
BLACK
6
CONTINUOUS
10
1.56824
20
0.513759
11
1.58152
21
0.516656
0
LINE
8
BLACK
6
CONTINUOUS
10
1.58152
20
0.516656
11
1.59505
21
0.518007
0
LINE
8
BLACK
6
CONTINUOUS
10
1.59505
20
0.518007
11
1.60865
21
0.517793
0
LINE
8
BLACK
6
CONTINUOUS
10
0.40865
20
0.517793
11
0.422132
21
0.516018
0
LINE
8
BLACK
6
CONTINUOUS
10
0.422132
20
0.516018
11
0.43532
21
0.512706
0
LINE
8
BLACK
6
CONTINUOUS
10
0.43532
20
0.512706
11
0.44804
21
0.507899
0
LINE
8
BLACK
6
CONTINUOUS
10
0.44804
20
0.507899
11
0.460123
21
0.501662
0
LINE
8
BLACK
6
CONTINUOUS
10
0.460123
20
0.501662
11
0.471409
21
0.494078
0
LINE
8
BLACK
6
CONTINUOUS
10
0.471409
20
0.494078
11
0.481749
21
0.485247
0
LINE
8
BLACK
6
CONTINUOUS
10
0.481749
20
0.485247
11
0.491006
21
0.475286
0
LINE
8
BLACK
6
CONTINUOUS
10
0.491006
20
0.475286
11
0.499056
21
0.464327
0
LINE
8
BLACK
6
CONTINUOUS
10
0.499056
20
0.464327
11
0.505793
21
0.452516
0
LINE
8
BLACK
6
CONTINUOUS
10
0.505793
20
0.452516
11
0.511128
21
0.440008
0
LINE
8
BLACK
6
CONTINUOUS
10
0.511128
20
0.440008
11
0.51499
21
0.426971
0
LINE
8
BLACK
6
CONTINUOUS
10
0.51499
20
0.426971
11
0.517327
21
0.413575
0
LINE
8
BLACK
6
CONTINUOUS
10
0.517327
20
0.413575
11
0.51811
21
0.4
0
LINE
8
BLACK
6
CONTINUOUS
10
0.51811
20
0.4
11
0.517877
21
0.392584
0
LINE
8
BLACK
6
CONTINUOUS
10
0.517877
20
0.392584
11
0.516244
21
0.379084
0
LINE
8
BLACK
6
CONTINUOUS
10
0.516244
20
0.379084
11
0.513069
21
0.365862
0
LINE
8
BLACK
6
CONTINUOUS
10
0.513069
20
0.365862
11
0.508396
21
0.353093
0
LINE
8
BLACK
6
CONTINUOUS
10
0.508396
20
0.353093
11
0.502286
21
0.340945
0
LINE
8
BLACK
6
CONTINUOUS
10
0.502286
20
0.340945
11
0.494821
21
0.32958
0
LINE
8
BLACK
6
CONTINUOUS
10
0.494821
20
0.32958
11
0.486099
21
0.319148
0
LINE
8
BLACK
6
CONTINUOUS
10
0.486099
20
0.319148
11
0.476235
21
0.309788
0
LINE
8
BLACK
6
CONTINUOUS
10
0.476235
20
0.309788
11
0.465361
21
0.301623
0
LINE
8
BLACK
6
CONTINUOUS
10
0.465361
20
0.301623
11
0.453621
21
0.294763
0
LINE
8
BLACK
6
CONTINUOUS
10
0.453621
20
0.294763
11
0.44117
21
0.289297
0
LINE
8
BLACK
6
CONTINUOUS
10
0.44117
20
0.289297
11
0.428173
21
0.285299
0
LINE
8
BLACK
6
CONTINUOUS
10
0.428173
20
0.285299
11
0.414803
21
0.282821
0
LINE
8
BLACK
6
CONTINUOUS
10
0.414803
20
0.282821
11
0.401237
21
0.281896
0
LINE
8
BLACK
6
CONTINUOUS
10
0.401237
20
0.281896
11
0.387654
21
0.282537
0
LINE
8
BLACK
6
CONTINUOUS
10
0.387654
20
0.282537
11
0.374235
21
0.284734
0
LINE
8
BLACK
6
CONTINUOUS
10
0.374235
20
0.284734
11
0.361157
21
0.288459
0
LINE
8
BLACK
6
CONTINUOUS
10
0.361157
20
0.288459
11
0.348595
21
0.293663
0
LINE
8
BLACK
6
CONTINUOUS
10
0.348595
20
0.293663
11
0.336713
21
0.300276
0
LINE
8
BLACK
6
CONTINUOUS
10
0.336713
20
0.300276
11
0.325671
21
0.308211
0
LINE
8
BLACK
6
CONTINUOUS
10
0.325671
20
0.308211
11
0.315613
21
0.317363
0
LINE
8
BLACK
6
CONTINUOUS
10
0.315613
20
0.317363
11
0.306675
21
0.327609
0
LINE
8
BLACK
6
CONTINUOUS
10
0.306675
20
0.327609
11
0.298973
21
0.338816
0
LINE
8
BLACK
6
CONTINUOUS
10
0.298973
20
0.338816
11
0.29261
21
0.350833
0
LINE
8
BLACK
6
CONTINUOUS
10
0.29261
20
0.350833
11
0.28767
21
0.363502
0
LINE
8
BLACK
6
CONTINUOUS
10
0.28767
20
0.363502
11
0.28422
21
0.376655
0
LINE
8
BLACK
6
CONTINUOUS
10
0.28422
20
0.376655
11
0.282304
21
0.390117
0
LINE
8
BLACK
6
CONTINUOUS
10
0.282304
20
0.390117
11
0.281948
21
0.40371
0
LINE
8
BLACK
6
CONTINUOUS
10
0.281948
20
0.40371
11
0.283157
21
0.417254
0
LINE
8
BLACK
6
CONTINUOUS
10
0.283157
20
0.417254
11
0.285914
21
0.430569
0
LINE
8
BLACK
6
CONTINUOUS
10
0.285914
20
0.430569
11
0.290184
21
0.443479
0
LINE
8
BLACK
6
CONTINUOUS
10
0.290184
20
0.443479
11
0.295909
21
0.455813
0
LINE
8
BLACK
6
CONTINUOUS
10
0.295909
20
0.455813
11
0.303014
21
0.467407
0
LINE
8
BLACK
6
CONTINUOUS
10
0.303014
20
0.467407
11
0.311404
21
0.478108
0
LINE
8
BLACK
6
CONTINUOUS
10
0.311404
20
0.478108
11
0.320969
21
0.487773
0
LINE
8
BLACK
6
CONTINUOUS
10
0.320969
20
0.487773
11
0.331581
21
0.496275
0
LINE
8
BLACK
6
CONTINUOUS
10
0.331581
20
0.496275
11
0.3431
21
0.503501
0
LINE
8
BLACK
6
CONTINUOUS
10
0.3431
20
0.503501
11
0.355373
21
0.509355
0
LINE
8
BLACK
6
CONTINUOUS
10
0.355373
20
0.509355
11
0.368238
21
0.513759
0
LINE
8
BLACK
6
CONTINUOUS
10
0.368238
20
0.513759
11
0.381524
21
0.516656
0
LINE
8
BLACK
6
CONTINUOUS
10
0.381524
20
0.516656
11
0.395054
21
0.518007
0
LINE
8
BLACK
6
CONTINUOUS
10
0.395054
20
0.518007
11
0.40865
21
0.517793
0
LINE
8
BLACK
6
CONTINUOUS
10
0.98
20
0.36
11
0.92
21
0.36
0
LINE
8
BLACK
6
CONTINUOUS
10
0.92
20
0.36
11
0.92
21
0.42
0
LINE
8
BLACK
6
CONTINUOUS
10
0.92
20
0.42
11
0.98
21
0.42
0
LINE
8
BLACK
6
CONTINUOUS
10
0.98
20
0.42
11
0.98
21
0.36
0
LINE
8
BLACK
6
CONTINUOUS
10
1.08
20
0.36
11
1.02
21
0.36
0
LINE
8
BLACK
6
CONTINUOUS
10
1.02
20
0.36
11
1.02
21
0.42
0
LINE
8
BLACK
6
CONTINUOUS
10
1.02
20
0.42
11
1.08
21
0.42
0
LINE
8
BLACK
6
CONTINUOUS
10
1.08
20
0.42
11
1.08
21
0.36
0
LINE
8
BLACK
6
CONTINUOUS
10
1.18
20
0.36
11
1.12
21
0.36
0
LINE
8
BLACK
6
CONTINUOUS
10
1.12
20
0.36
11
1.12
21
0.42
0
LINE
8
BLACK
6
CONTINUOUS
10
1.12
20
0.42
11
1.18
21
0.42
0
LINE
8
BLACK
6
CONTINUOUS
10
1.18
20
0.42
11
1.18
21
0.36
0
LINE
8
BLACK
6
CONTINUOUS
10
0.98
20
0.46
11
0.92
21
0.46
0
LINE
8
BLACK
6
CONTINUOUS
10
0.92
20
0.46
11
0.92
21
0.52
0
LINE
8
BLACK
6
CONTINUOUS
10
0.92
20
0.52
11
0.98
21
0.52
0
LINE
8
BLACK
6
CONTINUOUS
10
0.98
20
0.52
11
0.98
21
0.46
0
LINE
8
BLACK
6
CONTINUOUS
10
1.08
20
0.46
11
1.02
21
0.46
0
LINE
8
BLACK
6
CONTINUOUS
10
1.02
20
0.46
11
1.02
21
0.52
0
LINE
8
BLACK
6
CONTINUOUS
10
1.02
20
0.52
11
1.08
21
0.52
0
LINE
8
BLACK
6
CONTINUOUS
10
1.08
20
0.52
11
1.08
21
0.46
0
LINE
8
BLACK
6
CONTINUOUS
10
1.18
20
0.46
11
1.12
21
0.46
0
LINE
8
BLACK
6
CONTINUOUS
10
1.12
20
0.46
11
1.12
21
0.52
0
LINE
8
BLACK
6
CONTINUOUS
10
1.12
20
0.52
11
1.18
21
0.52
0
LINE
8
BLACK
6
CONTINUOUS
10
1.18
20
0.52
11
1.18
21
0.46
0
LINE
8
BLACK
6
CONTINUOUS
10
0.58
20
0.65
11
0.52
21
0.65
0
LINE
8
BLACK
6
CONTINUOUS
10
0.52
20
0.65
11
0.52
21
0.71
0
LINE
8
BLACK
6
CONTINUOUS
10
0.52
20
0.71
11
0.58
21
0.71
0
LINE
8
BLACK
6
CONTINUOUS
10
0.58
20
0.71
11
0.58
21
0.65
0
LINE
8
BLACK
6
CONTINUOUS
10
0.48
20
0.65
11
0.42
21
0.65
0
LINE
8
BLACK
6
CONTINUOUS
10
0.42
20
0.65
11
0.42
21
0.71
0
LINE
8
BLACK
6
CONTINUOUS
10
0.42
20
0.71
11
0.48
21
0.71
0
LINE
8
BLACK
6
CONTINUOUS
10
0.48
20
0.71
11
0.48
21
0.65
0
LINE
8
BLACK
6
CONTINUOUS
10
0.38
20
0.65
11
0.32
21
0.65
0
LINE
8
BLACK
6
CONTINUOUS
10
0.32
20
0.65
11
0.32
21
0.71
0
LINE
8
BLACK
6
CONTINUOUS
10
0.32
20
0.71
11
0.38
21
0.71
0
LINE
8
BLACK
6
CONTINUOUS
10
0.38
20
0.71
11
0.38
21
0.65
0
LINE
8
BLACK
6
CONTINUOUS
10
0.48
20
0.75
11
0.42
21
0.75
0
LINE
8
BLACK
6
CONTINUOUS
10
0.42
20
0.75
11
0.42
21
0.81
0
LINE
8
BLACK
6
CONTINUOUS
10
0.42
20
0.81
11
0.48
21
0.81
0
LINE
8
BLACK
6
CONTINUOUS
10
0.48
20
0.81
11
0.48
21
0.75
0
LINE
8
BLACK
6
CONTINUOUS
10
0.38
20
0.75
11
0.32
21
0.75
0
LINE
8
BLACK
6
CONTINUOUS
10
0.32
20
0.75
11
0.32
21
0.81
0
LINE
8
BLACK
6
CONTINUOUS
10
0.32
20
0.81
11
0.38
21
0.81
0
LINE
8
BLACK
6
CONTINUOUS
10
0.38
20
0.81
11
0.38
21
0.75
0
LINE
8
BLACK
6
CONTINUOUS
10
0.58
20
0.75
11
0.52
21
0.75
0
LINE
8
BLACK
6
CONTINUOUS
10
0.52
20
0.75
11
0.52
21
0.81
0
LINE
8
BLACK
6
CONTINUOUS
10
0.52
20
0.81
11
0.58
21
0.81
0
LINE
8
BLACK
6
CONTINUOUS
10
0.58
20
0.81
11
0.58
21
0.75
0
LINE
8
BLACK
6
CONTINUOUS
10
0.58
20
0.85
11
0.52
21
0.85
0
LINE
8
BLACK
6
CONTINUOUS
10
0.52
20
0.85
11
0.52
21
0.91
0
LINE
8
BLACK
6
CONTINUOUS
10
0.52
20
0.91
11
0.58
21
0.91
0
LINE
8
BLACK
6
CONTINUOUS
10
0.58
20
0.91
11
0.58
21
0.85
0
LINE
8
BLACK
6
CONTINUOUS
10
0.48
20
0.85
11
0.42
21
0.85
0
LINE
8
BLACK
6
CONTINUOUS
10
0.42
20
0.85
11
0.42
21
0.91
0
LINE
8
BLACK
6
CONTINUOUS
10
0.42
20
0.91
11
0.48
21
0.91
0
LINE
8
BLACK
6
CONTINUOUS
10
0.48
20
0.91
11
0.48
21
0.85
0
LINE
8
BLACK
6
CONTINUOUS
10
0.38
20
0.85
11
0.32
21
0.85
0
LINE
8
BLACK
6
CONTINUOUS
10
0.32
20
0.85
11
0.32
21
0.91
0
LINE
8
BLACK
6
CONTINUOUS
10
0.32
20
0.91
11
0.38
21
0.91
0
LINE
8
BLACK
6
CONTINUOUS
10
0.38
20
0.91
11
0.38
21
0.85
0
LINE
8
BLACK
6
CONTINUOUS
10
0.58
20
0.95
11
0.52
21
0.95
0
LINE
8
BLACK
6
CONTINUOUS
10
0.52
20
0.95
11
0.52
21
1.01
0
LINE
8
BLACK
6
CONTINUOUS
10
0.52
20
1.01
11
0.58
21
1.01
0
LINE
8
BLACK
6
CONTINUOUS
10
0.58
20
1.01
11
0.58
21
0.95
0
LINE
8
BLACK
6
CONTINUOUS
10
0.48
20
0.95
11
0.42
21
0.95
0
LINE
8
BLACK
6
CONTINUOUS
10
0.42
20
0.95
11
0.42
21
1.01
0
LINE
8
BLACK
6
CONTINUOUS
10
0.42
20
1.01
11
0.48
21
1.01
0
LINE
8
BLACK
6
CONTINUOUS
10
0.48
20
1.01
11
0.48
21
0.95
0
LINE
8
BLACK
6
CONTINUOUS
10
0.38
20
0.95
11
0.32
21
0.95
0
LINE
8
BLACK
6
CONTINUOUS
10
0.32
20
0.95
11
0.32
21
1.01
0
LINE
8
BLACK
6
CONTINUOUS
10
0.32
20
1.01
11
0.38
21
1.01
0
LINE
8
BLACK
6
CONTINUOUS
10
0.38
20
1.01
11
0.38
21
0.95
0
LINE
8
BLACK
6
CONTINUOUS
10
0.95
20
1.07
11
0.89
21
1.07
0
LINE
8
BLACK
6
CONTINUOUS
10
0.89
20
1.07
11
0.89
21
1.13
0
LINE
8
BLACK
6
CONTINUOUS
10
0.89
20
1.13
11
0.95
21
1.13
0
LINE
8
BLACK
6
CONTINUOUS
10
0.95
20
1.13
11
0.95
21
1.07
0
LINE
8
BLACK
6
CONTINUOUS
10
0.85
20
1.07
11
0.79
21
1.07
0
LINE
8
BLACK
6
CONTINUOUS
10
0.79
20
1.07
11
0.79
21
1.13
0
LINE
8
BLACK
6
CONTINUOUS
10
0.79
20
1.13
11
0.85
21
1.13
0
LINE
8
BLACK
6
CONTINUOUS
10
0.85
20
1.13
11
0.85
21
1.07
0
LINE
8
BLACK
6
CONTINUOUS
10
1.05
20
1.07
11
0.99
21
1.07
0
LINE
8
BLACK
6
CONTINUOUS
10
0.99
20
1.07
11
0.99
21
1.13
0
LINE
8
BLACK
6
CONTINUOUS
10
0.99
20
1.13
11
1.05
21
1.13
0
LINE
8
BLACK
6
CONTINUOUS
10
1.05
20
1.13
11
1.05
21
1.07
0
LINE
8
BLACK
6
CONTINUOUS
10
0.85
20
1.17
11
0.79
21
1.17
0
LINE
8
BLACK
6
CONTINUOUS
10
0.79
20
1.17
11
0.79
21
1.23
0
LINE
8
BLACK
6
CONTINUOUS
10
0.79
20
1.23
11
0.85
21
1.23
0
LINE
8
BLACK
6
CONTINUOUS
10
0.85
20
1.23
11
0.85
21
1.17
0
LINE
8
BLACK
6
CONTINUOUS
10
1.05
20
1.17
11
0.99
21
1.17
0
LINE
8
BLACK
6
CONTINUOUS
10
0.99
20
1.17
11
0.99
21
1.23
0
LINE
8
BLACK
6
CONTINUOUS
10
0.99
20
1.23
11
1.05
21
1.23
0
LINE
8
BLACK
6
CONTINUOUS
10
1.05
20
1.23
11
1.05
21
1.17
0
LINE
8
BLACK
6
CONTINUOUS
10
0.95
20
1.17
11
0.89
21
1.17
0
LINE
8
BLACK
6
CONTINUOUS
10
0.89
20
1.17
11
0.89
21
1.23
0
LINE
8
BLACK
6
CONTINUOUS
10
0.89
20
1.23
11
0.95
21
1.23
0
LINE
8
BLACK
6
CONTINUOUS
10
0.95
20
1.23
11
0.95
21
1.17
0
LINE
8
BLACK
6
CONTINUOUS
10
0.40865
20
1.71779
11
0.422132
21
1.71602
0
LINE
8
BLACK
6
CONTINUOUS
10
0.422132
20
1.71602
11
0.43532
21
1.71271
0
LINE
8
BLACK
6
CONTINUOUS
10
0.43532
20
1.71271
11
0.44804
21
1.7079
0
LINE
8
BLACK
6
CONTINUOUS
10
0.44804
20
1.7079
11
0.460123
21
1.70166
0
LINE
8
BLACK
6
CONTINUOUS
10
0.460123
20
1.70166
11
0.471409
21
1.69408
0
LINE
8
BLACK
6
CONTINUOUS
10
0.471409
20
1.69408
11
0.481749
21
1.68525
0
LINE
8
BLACK
6
CONTINUOUS
10
0.481749
20
1.68525
11
0.491006
21
1.67529
0
LINE
8
BLACK
6
CONTINUOUS
10
0.491006
20
1.67529
11
0.499056
21
1.66433
0
LINE
8
BLACK
6
CONTINUOUS
10
0.499056
20
1.66433
11
0.505793
21
1.65252
0
LINE
8
BLACK
6
CONTINUOUS
10
0.505793
20
1.65252
11
0.511128
21
1.64001
0
LINE
8
BLACK
6
CONTINUOUS
10
0.511128
20
1.64001
11
0.51499
21
1.62697
0
LINE
8
BLACK
6
CONTINUOUS
10
0.51499
20
1.62697
11
0.517327
21
1.61358
0
LINE
8
BLACK
6
CONTINUOUS
10
0.517327
20
1.61358
11
0.51811
21
1.6
0
LINE
8
BLACK
6
CONTINUOUS
10
0.51811
20
1.6
11
0.517877
21
1.59258
0
LINE
8
BLACK
6
CONTINUOUS
10
0.517877
20
1.59258
11
0.516244
21
1.57908
0
LINE
8
BLACK
6
CONTINUOUS
10
0.516244
20
1.57908
11
0.513069
21
1.56586
0
LINE
8
BLACK
6
CONTINUOUS
10
0.513069
20
1.56586
11
0.508396
21
1.55309
0
LINE
8
BLACK
6
CONTINUOUS
10
0.508396
20
1.55309
11
0.502286
21
1.54094
0
LINE
8
BLACK
6
CONTINUOUS
10
0.502286
20
1.54094
11
0.494821
21
1.52958
0
LINE
8
BLACK
6
CONTINUOUS
10
0.494821
20
1.52958
11
0.486099
21
1.51915
0
LINE
8
BLACK
6
CONTINUOUS
10
0.486099
20
1.51915
11
0.476235
21
1.50979
0
LINE
8
BLACK
6
CONTINUOUS
10
0.476235
20
1.50979
11
0.465361
21
1.50162
0
LINE
8
BLACK
6
CONTINUOUS
10
0.465361
20
1.50162
11
0.453621
21
1.49476
0
LINE
8
BLACK
6
CONTINUOUS
10
0.453621
20
1.49476
11
0.44117
21
1.4893
0
LINE
8
BLACK
6
CONTINUOUS
10
0.44117
20
1.4893
11
0.428173
21
1.4853
0
LINE
8
BLACK
6
CONTINUOUS
10
0.428173
20
1.4853
11
0.414803
21
1.48282
0
LINE
8
BLACK
6
CONTINUOUS
10
0.414803
20
1.48282
11
0.401237
21
1.4819
0
LINE
8
BLACK
6
CONTINUOUS
10
0.401237
20
1.4819
11
0.387654
21
1.48254
0
LINE
8
BLACK
6
CONTINUOUS
10
0.387654
20
1.48254
11
0.374235
21
1.48473
0
LINE
8
BLACK
6
CONTINUOUS
10
0.374235
20
1.48473
11
0.361157
21
1.48846
0
LINE
8
BLACK
6
CONTINUOUS
10
0.361157
20
1.48846
11
0.348595
21
1.49366
0
LINE
8
BLACK
6
CONTINUOUS
10
0.348595
20
1.49366
11
0.336713
21
1.50028
0
LINE
8
BLACK
6
CONTINUOUS
10
0.336713
20
1.50028
11
0.325671
21
1.50821
0
LINE
8
BLACK
6
CONTINUOUS
10
0.325671
20
1.50821
11
0.315613
21
1.51736
0
LINE
8
BLACK
6
CONTINUOUS
10
0.315613
20
1.51736
11
0.306675
21
1.52761
0
LINE
8
BLACK
6
CONTINUOUS
10
0.306675
20
1.52761
11
0.298973
21
1.53882
0
LINE
8
BLACK
6
CONTINUOUS
10
0.298973
20
1.53882
11
0.29261
21
1.55083
0
LINE
8
BLACK
6
CONTINUOUS
10
0.29261
20
1.55083
11
0.28767
21
1.5635
0
LINE
8
BLACK
6
CONTINUOUS
10
0.28767
20
1.5635
11
0.28422
21
1.57665
0
LINE
8
BLACK
6
CONTINUOUS
10
0.28422
20
1.57665
11
0.282304
21
1.59012
0
LINE
8
BLACK
6
CONTINUOUS
10
0.282304
20
1.59012
11
0.281948
21
1.60371
0
LINE
8
BLACK
6
CONTINUOUS
10
0.281948
20
1.60371
11
0.283157
21
1.61725
0
LINE
8
BLACK
6
CONTINUOUS
10
0.283157
20
1.61725
11
0.285914
21
1.63057
0
LINE
8
BLACK
6
CONTINUOUS
10
0.285914
20
1.63057
11
0.290184
21
1.64348
0
LINE
8
BLACK
6
CONTINUOUS
10
0.290184
20
1.64348
11
0.295909
21
1.65581
0
LINE
8
BLACK
6
CONTINUOUS
10
0.295909
20
1.65581
11
0.303014
21
1.66741
0
LINE
8
BLACK
6
CONTINUOUS
10
0.303014
20
1.66741
11
0.311404
21
1.67811
0
LINE
8
BLACK
6
CONTINUOUS
10
0.311404
20
1.67811
11
0.320969
21
1.68777
0
LINE
8
BLACK
6
CONTINUOUS
10
0.320969
20
1.68777
11
0.331581
21
1.69627
0
LINE
8
BLACK
6
CONTINUOUS
10
0.331581
20
1.69627
11
0.3431
21
1.7035
0
LINE
8
BLACK
6
CONTINUOUS
10
0.3431
20
1.7035
11
0.355373
21
1.70935
0
LINE
8
BLACK
6
CONTINUOUS
10
0.355373
20
1.70935
11
0.368238
21
1.71376
0
LINE
8
BLACK
6
CONTINUOUS
10
0.368238
20
1.71376
11
0.381524
21
1.71666
0
LINE
8
BLACK
6
CONTINUOUS
10
0.381524
20
1.71666
11
0.395054
21
1.71801
0
LINE
8
BLACK
6
CONTINUOUS
10
0.395054
20
1.71801
11
0.40865
21
1.71779
0
LINE
8
BLACK
6
CONTINUOUS
10
1.60865
20
1.71779
11
1.62213
21
1.71602
0
LINE
8
BLACK
6
CONTINUOUS
10
1.62213
20
1.71602
11
1.63532
21
1.71271
0
LINE
8
BLACK
6
CONTINUOUS
10
1.63532
20
1.71271
11
1.64804
21
1.7079
0
LINE
8
BLACK
6
CONTINUOUS
10
1.64804
20
1.7079
11
1.66012
21
1.70166
0
LINE
8
BLACK
6
CONTINUOUS
10
1.66012
20
1.70166
11
1.67141
21
1.69408
0
LINE
8
BLACK
6
CONTINUOUS
10
1.67141
20
1.69408
11
1.68175
21
1.68525
0
LINE
8
BLACK
6
CONTINUOUS
10
1.68175
20
1.68525
11
1.69101
21
1.67529
0
LINE
8
BLACK
6
CONTINUOUS
10
1.69101
20
1.67529
11
1.69906
21
1.66433
0
LINE
8
BLACK
6
CONTINUOUS
10
1.69906
20
1.66433
11
1.70579
21
1.65252
0
LINE
8
BLACK
6
CONTINUOUS
10
1.70579
20
1.65252
11
1.71113
21
1.64001
0
LINE
8
BLACK
6
CONTINUOUS
10
1.71113
20
1.64001
11
1.71499
21
1.62697
0
LINE
8
BLACK
6
CONTINUOUS
10
1.71499
20
1.62697
11
1.71733
21
1.61358
0
LINE
8
BLACK
6
CONTINUOUS
10
1.71733
20
1.61358
11
1.71811
21
1.6
0
LINE
8
BLACK
6
CONTINUOUS
10
1.71811
20
1.6
11
1.71788
21
1.59258
0
LINE
8
BLACK
6
CONTINUOUS
10
1.71788
20
1.59258
11
1.71624
21
1.57908
0
LINE
8
BLACK
6
CONTINUOUS
10
1.71624
20
1.57908
11
1.71307
21
1.56586
0
LINE
8
BLACK
6
CONTINUOUS
10
1.71307
20
1.56586
11
1.7084
21
1.55309
0
LINE
8
BLACK
6
CONTINUOUS
10
1.7084
20
1.55309
11
1.70229
21
1.54094
0
LINE
8
BLACK
6
CONTINUOUS
10
1.70229
20
1.54094
11
1.69482
21
1.52958
0
LINE
8
BLACK
6
CONTINUOUS
10
1.69482
20
1.52958
11
1.6861
21
1.51915
0
LINE
8
BLACK
6
CONTINUOUS
10
1.6861
20
1.51915
11
1.67624
21
1.50979
0
LINE
8
BLACK
6
CONTINUOUS
10
1.67624
20
1.50979
11
1.66536
21
1.50162
0
LINE
8
BLACK
6
CONTINUOUS
10
1.66536
20
1.50162
11
1.65362
21
1.49476
0
LINE
8
BLACK
6
CONTINUOUS
10
1.65362
20
1.49476
11
1.64117
21
1.4893
0
LINE
8
BLACK
6
CONTINUOUS
10
1.64117
20
1.4893
11
1.62817
21
1.4853
0
LINE
8
BLACK
6
CONTINUOUS
10
1.62817
20
1.4853
11
1.6148
21
1.48282
0
LINE
8
BLACK
6
CONTINUOUS
10
1.6148
20
1.48282
11
1.60124
21
1.4819
0
LINE
8
BLACK
6
CONTINUOUS
10
1.60124
20
1.4819
11
1.58765
21
1.48254
0
LINE
8
BLACK
6
CONTINUOUS
10
1.58765
20
1.48254
11
1.57424
21
1.48473
0
LINE
8
BLACK
6
CONTINUOUS
10
1.57424
20
1.48473
11
1.56116
21
1.48846
0
LINE
8
BLACK
6
CONTINUOUS
10
1.56116
20
1.48846
11
1.54859
21
1.49366
0
LINE
8
BLACK
6
CONTINUOUS
10
1.54859
20
1.49366
11
1.53671
21
1.50028
0
LINE
8
BLACK
6
CONTINUOUS
10
1.53671
20
1.50028
11
1.52567
21
1.50821
0
LINE
8
BLACK
6
CONTINUOUS
10
1.52567
20
1.50821
11
1.51561
21
1.51736
0
LINE
8
BLACK
6
CONTINUOUS
10
1.51561
20
1.51736
11
1.50667
21
1.52761
0
LINE
8
BLACK
6
CONTINUOUS
10
1.50667
20
1.52761
11
1.49897
21
1.53882
0
LINE
8
BLACK
6
CONTINUOUS
10
1.49897
20
1.53882
11
1.49261
21
1.55083
0
LINE
8
BLACK
6
CONTINUOUS
10
1.49261
20
1.55083
11
1.48767
21
1.5635
0
LINE
8
BLACK
6
CONTINUOUS
10
1.48767
20
1.5635
11
1.48422
21
1.57665
0
LINE
8
BLACK
6
CONTINUOUS
10
1.48422
20
1.57665
11
1.4823
21
1.59012
0
LINE
8
BLACK
6
CONTINUOUS
10
1.4823
20
1.59012
11
1.48195
21
1.60371
0
LINE
8
BLACK
6
CONTINUOUS
10
1.48195
20
1.60371
11
1.48316
21
1.61725
0
LINE
8
BLACK
6
CONTINUOUS
10
1.48316
20
1.61725
11
1.48591
21
1.63057
0
LINE
8
BLACK
6
CONTINUOUS
10
1.48591
20
1.63057
11
1.49018
21
1.64348
0
LINE
8
BLACK
6
CONTINUOUS
10
1.49018
20
1.64348
11
1.49591
21
1.65581
0
LINE
8
BLACK
6
CONTINUOUS
10
1.49591
20
1.65581
11
1.50301
21
1.66741
0
LINE
8
BLACK
6
CONTINUOUS
10
1.50301
20
1.66741
11
1.5114
21
1.67811
0
LINE
8
BLACK
6
CONTINUOUS
10
1.5114
20
1.67811
11
1.52097
21
1.68777
0
LINE
8
BLACK
6
CONTINUOUS
10
1.52097
20
1.68777
11
1.53158
21
1.69627
0
LINE
8
BLACK
6
CONTINUOUS
10
1.53158
20
1.69627
11
1.5431
21
1.7035
0
LINE
8
BLACK
6
CONTINUOUS
10
1.5431
20
1.7035
11
1.55537
21
1.70935
0
LINE
8
BLACK
6
CONTINUOUS
10
1.55537
20
1.70935
11
1.56824
21
1.71376
0
LINE
8
BLACK
6
CONTINUOUS
10
1.56824
20
1.71376
11
1.58152
21
1.71666
0
LINE
8
BLACK
6
CONTINUOUS
10
1.58152
20
1.71666
11
1.59505
21
1.71801
0
LINE
8
BLACK
6
CONTINUOUS
10
1.59505
20
1.71801
11
1.60865
21
1.71779
0
LINE
8
BLACK
6
CONTINUOUS
10
0.93
20
1.49
11
0.87
21
1.49
0
LINE
8
BLACK
6
CONTINUOUS
10
0.87
20
1.49
11
0.87
21
1.55
0
LINE
8
BLACK
6
CONTINUOUS
10
0.87
20
1.55
11
0.93
21
1.55
0
LINE
8
BLACK
6
CONTINUOUS
10
0.93
20
1.55
11
0.93
21
1.49
0
LINE
8
BLACK
6
CONTINUOUS
10
1.03
20
1.49
11
0.97
21
1.49
0
LINE
8
BLACK
6
CONTINUOUS
10
0.97
20
1.49
11
0.97
21
1.55
0
LINE
8
BLACK
6
CONTINUOUS
10
0.97
20
1.55
11
1.03
21
1.55
0
LINE
8
BLACK
6
CONTINUOUS
10
1.03
20
1.55
11
1.03
21
1.49
0
LINE
8
BLACK
6
CONTINUOUS
10
1.13
20
1.49
11
1.07
21
1.49
0
LINE
8
BLACK
6
CONTINUOUS
10
1.07
20
1.49
11
1.07
21
1.55
0
LINE
8
BLACK
6
CONTINUOUS
10
1.07
20
1.55
11
1.13
21
1.55
0
LINE
8
BLACK
6
CONTINUOUS
10
1.13
20
1.55
11
1.13
21
1.49
0
LINE
8
BLACK
6
CONTINUOUS
10
0.93
20
1.59
11
0.87
21
1.59
0
LINE
8
BLACK
6
CONTINUOUS
10
0.87
20
1.59
11
0.87
21
1.65
0
LINE
8
BLACK
6
CONTINUOUS
10
0.87
20
1.65
11
0.93
21
1.65
0
LINE
8
BLACK
6
CONTINUOUS
10
0.93
20
1.65
11
0.93
21
1.59
0
LINE
8
BLACK
6
CONTINUOUS
10
1.03
20
1.59
11
0.97
21
1.59
0
LINE
8
BLACK
6
CONTINUOUS
10
0.97
20
1.59
11
0.97
21
1.65
0
LINE
8
BLACK
6
CONTINUOUS
10
0.97
20
1.65
11
1.03
21
1.65
0
LINE
8
BLACK
6
CONTINUOUS
10
1.03
20
1.65
11
1.03
21
1.59
0
LINE
8
BLACK
6
CONTINUOUS
10
1.13
20
1.59
11
1.07
21
1.59
0
LINE
8
BLACK
6
CONTINUOUS
10
1.07
20
1.59
11
1.07
21
1.65
0
LINE
8
BLACK
6
CONTINUOUS
10
1.07
20
1.65
11
1.13
21
1.65
0
LINE
8
BLACK
6
CONTINUOUS
10
1.13
20
1.65
11
1.13
21
1.59
  0
ENDSEC
  0
EOF
