<?xml version='1.0' encoding='ASCII' standalone='yes'?>
<svg xmlns:svg="http://www.w3.org/2000/svg" xmlns="http://www.w3.org/2000/svg" xmlns:xlink="http://www.w3.org/1999/xlink" version="1.1" width="297.0022mm" height="210.0072mm" viewBox="0.0000 0.0000 297.0022 210.0072">
<title>SVG Image created as AMUX01-B_Fab.svg date 2023/07/21 00:32:55 </title>
  <desc>Image generated by PCBNEW </desc>
<g style="fill:#000084; fill-opacity:1.0000;stroke:#000084; stroke-opacity:1.0000; stroke-linecap:round; stroke-linejoin:round;" transform="translate(0 0) scale(1 1)">
</g>
<g style="fill:#000084; fill-opacity:0.0;  stroke:#000084; stroke-width:0.0000; stroke-opacity:1;  stroke-linecap:round; stroke-linejoin:round;">
</g>
<g style="fill:#000084; fill-opacity:0.0;  stroke:#000084; stroke-width:0.7820; stroke-opacity:1;  stroke-linecap:round; stroke-linejoin:round;">
<g transform="rotate(-90.000000 106.6387 140.7560)">
<text x="106.6387" y="143.3627" transform="scale(-1 1) translate(-213.277455 0)" textLength="20.0276" font-size="6.9510" lengthAdjust="spacingAndGlyphs" text-anchor="middle" opacity="0.01" style="font-family:monospace">10uF</text>
</g>
<g class="stroked-text"><desc>10uF</desc>
<path d="M104.2676 135.1704 L104.2676 132.1914 "/>
<path d="M104.2676 133.6809 L109.4809 133.6809 "/>
<path d="M109.4809 133.6809 L108.7361 133.1844 "/>
<path d="M108.7361 133.1844 L108.2396 132.6879 "/>
<path d="M108.2396 132.6879 L107.9914 132.1914 "/>
<path d="M109.4809 138.3977 L109.4809 138.8942 "/>
<path d="M109.4809 138.8942 L109.2326 139.3907 "/>
<path d="M109.2326 139.3907 L108.9844 139.6389 "/>
<path d="M108.9844 139.6389 L108.4879 139.8872 "/>
<path d="M108.4879 139.8872 L107.4949 140.1354 "/>
<path d="M107.4949 140.1354 L106.2536 140.1354 "/>
<path d="M106.2536 140.1354 L105.2606 139.8872 "/>
<path d="M105.2606 139.8872 L104.7641 139.6389 "/>
<path d="M104.7641 139.6389 L104.5159 139.3907 "/>
<path d="M104.5159 139.3907 L104.2676 138.8942 "/>
<path d="M104.2676 138.8942 L104.2676 138.3977 "/>
<path d="M104.2676 138.3977 L104.5159 137.9012 "/>
<path d="M104.5159 137.9012 L104.7641 137.6529 "/>
<path d="M104.7641 137.6529 L105.2606 137.4047 "/>
<path d="M105.2606 137.4047 L106.2536 137.1564 "/>
<path d="M106.2536 137.1564 L107.4949 137.1564 "/>
<path d="M107.4949 137.1564 L108.4879 137.4047 "/>
<path d="M108.4879 137.4047 L108.9844 137.6529 "/>
<path d="M108.9844 137.6529 L109.2326 137.9012 "/>
<path d="M109.2326 137.9012 L109.4809 138.3977 "/>
<path d="M107.7431 144.6039 L104.2676 144.6039 "/>
<path d="M107.7431 142.3697 L105.0124 142.3697 "/>
<path d="M105.0124 142.3697 L104.5159 142.6179 "/>
<path d="M104.5159 142.6179 L104.2676 143.1144 "/>
<path d="M104.2676 143.1144 L104.2676 143.8592 "/>
<path d="M104.2676 143.8592 L104.5159 144.3557 "/>
<path d="M104.5159 144.3557 L104.7641 144.6039 "/>
<path d="M106.9984 148.8242 L106.9984 147.0864 "/>
<path d="M104.2676 147.0864 L109.4809 147.0864 "/>
<path d="M109.4809 147.0864 L109.4809 149.5689 "/>
</g></g>
<g style="fill:#000084; fill-opacity:0.0;  stroke:#000084; stroke-width:0.4171; stroke-opacity:1;  stroke-linecap:round; stroke-linejoin:round;">
<g transform="rotate(-90.000000 115.3970 140.7560)">
<text x="115.3970" y="142.0594" transform="scale(-1 1) translate(-230.793964 0)" textLength="5.6104" font-size="3.4755" lengthAdjust="spacingAndGlyphs" text-anchor="middle" opacity="0.01" style="font-family:monospace">C1</text>
</g>
<g class="stroked-text"><desc>C1</desc>
<path d="M114.4610 140.3216 L114.3369 140.1975 "/>
<path d="M114.3369 140.1975 L114.2128 139.8251 "/>
<path d="M114.2128 139.8251 L114.2128 139.5769 "/>
<path d="M114.2128 139.5769 L114.3369 139.2045 "/>
<path d="M114.3369 139.2045 L114.5852 138.9562 "/>
<path d="M114.5852 138.9562 L114.8334 138.8321 "/>
<path d="M114.8334 138.8321 L115.3299 138.7080 "/>
<path d="M115.3299 138.7080 L115.7023 138.7080 "/>
<path d="M115.7023 138.7080 L116.1988 138.8321 "/>
<path d="M116.1988 138.8321 L116.4470 138.9562 "/>
<path d="M116.4470 138.9562 L116.6953 139.2045 "/>
<path d="M116.6953 139.2045 L116.8194 139.5769 "/>
<path d="M116.8194 139.5769 L116.8194 139.8251 "/>
<path d="M116.8194 139.8251 L116.6953 140.1975 "/>
<path d="M116.6953 140.1975 L116.5712 140.3216 "/>
<path d="M114.2128 142.8041 L114.2128 141.3146 "/>
<path d="M114.2128 142.0594 L116.8194 142.0594 "/>
<path d="M116.8194 142.0594 L116.4470 141.8111 "/>
<path d="M116.4470 141.8111 L116.1988 141.5629 "/>
<path d="M116.1988 141.5629 L116.0747 141.3146 "/>
</g></g>
<g style="fill:#000084; fill-opacity:0.01;  stroke:#000084; stroke-width:0.7820; stroke-opacity:1;  stroke-linecap:round; stroke-linejoin:round;">
<g transform="rotate(-90.000000 70.0626 126.1902)">
<text x="70.0626" y="128.7969" transform="scale(-1 1) translate(-140.125179 0)" textLength="54.0378" font-size="6.9510" lengthAdjust="spacingAndGlyphs" text-anchor="middle" opacity="0.01" style="font-family:monospace">BZV55C-5,6V</text>
</g>
<g class="stroked-text"><desc>BZV55C-5,6V</desc>
<path d="M70.4223 102.6065 L70.1740 103.3512 "/>
<path d="M70.1740 103.3512 L69.9258 103.5995 "/>
<path d="M69.9258 103.5995 L69.4293 103.8477 "/>
<path d="M69.4293 103.8477 L68.6845 103.8477 "/>
<path d="M68.6845 103.8477 L68.1880 103.5995 "/>
<path d="M68.1880 103.5995 L67.9398 103.3512 "/>
<path d="M67.9398 103.3512 L67.6915 102.8547 "/>
<path d="M67.6915 102.8547 L67.6915 100.8688 "/>
<path d="M67.6915 100.8688 L72.9048 100.8688 "/>
<path d="M72.9048 100.8688 L72.9048 102.6065 "/>
<path d="M72.9048 102.6065 L72.6565 103.1030 "/>
<path d="M72.6565 103.1030 L72.4083 103.3512 "/>
<path d="M72.4083 103.3512 L71.9118 103.5995 "/>
<path d="M71.9118 103.5995 L71.4153 103.5995 "/>
<path d="M71.4153 103.5995 L70.9188 103.3512 "/>
<path d="M70.9188 103.3512 L70.6705 103.1030 "/>
<path d="M70.6705 103.1030 L70.4223 102.6065 "/>
<path d="M70.4223 102.6065 L70.4223 100.8688 "/>
<path d="M72.9048 105.5855 L72.9048 109.0610 "/>
<path d="M72.9048 109.0610 L67.6915 105.5855 "/>
<path d="M67.6915 105.5855 L67.6915 109.0610 "/>
<path d="M72.9048 110.3022 L67.6915 112.0400 "/>
<path d="M67.6915 112.0400 L72.9048 113.7777 "/>
<path d="M72.9048 117.9980 L72.9048 115.5155 "/>
<path d="M72.9048 115.5155 L70.4223 115.2672 "/>
<path d="M70.4223 115.2672 L70.6705 115.5155 "/>
<path d="M70.6705 115.5155 L70.9188 116.0120 "/>
<path d="M70.9188 116.0120 L70.9188 117.2532 "/>
<path d="M70.9188 117.2532 L70.6705 117.7497 "/>
<path d="M70.6705 117.7497 L70.4223 117.9980 "/>
<path d="M70.4223 117.9980 L69.9258 118.2462 "/>
<path d="M69.9258 118.2462 L68.6845 118.2462 "/>
<path d="M68.6845 118.2462 L68.1880 117.9980 "/>
<path d="M68.1880 117.9980 L67.9398 117.7497 "/>
<path d="M67.9398 117.7497 L67.6915 117.2532 "/>
<path d="M67.6915 117.2532 L67.6915 116.0120 "/>
<path d="M67.6915 116.0120 L67.9398 115.5155 "/>
<path d="M67.9398 115.5155 L68.1880 115.2672 "/>
<path d="M72.9048 122.9630 L72.9048 120.4805 "/>
<path d="M72.9048 120.4805 L70.4223 120.2322 "/>
<path d="M70.4223 120.2322 L70.6705 120.4805 "/>
<path d="M70.6705 120.4805 L70.9188 120.9770 "/>
<path d="M70.9188 120.9770 L70.9188 122.2182 "/>
<path d="M70.9188 122.2182 L70.6705 122.7147 "/>
<path d="M70.6705 122.7147 L70.4223 122.9630 "/>
<path d="M70.4223 122.9630 L69.9258 123.2112 "/>
<path d="M69.9258 123.2112 L68.6845 123.2112 "/>
<path d="M68.6845 123.2112 L68.1880 122.9630 "/>
<path d="M68.1880 122.9630 L67.9398 122.7147 "/>
<path d="M67.9398 122.7147 L67.6915 122.2182 "/>
<path d="M67.6915 122.2182 L67.6915 120.9770 "/>
<path d="M67.6915 120.9770 L67.9398 120.4805 "/>
<path d="M67.9398 120.4805 L68.1880 120.2322 "/>
<path d="M68.1880 128.4245 L67.9398 128.1762 "/>
<path d="M67.9398 128.1762 L67.6915 127.4315 "/>
<path d="M67.6915 127.4315 L67.6915 126.9350 "/>
<path d="M67.6915 126.9350 L67.9398 126.1902 "/>
<path d="M67.9398 126.1902 L68.4363 125.6937 "/>
<path d="M68.4363 125.6937 L68.9328 125.4455 "/>
<path d="M68.9328 125.4455 L69.9258 125.1972 "/>
<path d="M69.9258 125.1972 L70.6705 125.1972 "/>
<path d="M70.6705 125.1972 L71.6635 125.4455 "/>
<path d="M71.6635 125.4455 L72.1600 125.6937 "/>
<path d="M72.1600 125.6937 L72.6565 126.1902 "/>
<path d="M72.6565 126.1902 L72.9048 126.9350 "/>
<path d="M72.9048 126.9350 L72.9048 127.4315 "/>
<path d="M72.9048 127.4315 L72.6565 128.1762 "/>
<path d="M72.6565 128.1762 L72.4083 128.4245 "/>
<path d="M69.6775 130.6587 L69.6775 134.6307 "/>
<path d="M72.9048 139.5957 L72.9048 137.1132 "/>
<path d="M72.9048 137.1132 L70.4223 136.8650 "/>
<path d="M70.4223 136.8650 L70.6705 137.1132 "/>
<path d="M70.6705 137.1132 L70.9188 137.6097 "/>
<path d="M70.9188 137.6097 L70.9188 138.8510 "/>
<path d="M70.9188 138.8510 L70.6705 139.3475 "/>
<path d="M70.6705 139.3475 L70.4223 139.5957 "/>
<path d="M70.4223 139.5957 L69.9258 139.8440 "/>
<path d="M69.9258 139.8440 L68.6845 139.8440 "/>
<path d="M68.6845 139.8440 L68.1880 139.5957 "/>
<path d="M68.1880 139.5957 L67.9398 139.3475 "/>
<path d="M67.9398 139.3475 L67.6915 138.8510 "/>
<path d="M67.6915 138.8510 L67.6915 137.6097 "/>
<path d="M67.6915 137.6097 L67.9398 137.1132 "/>
<path d="M67.9398 137.1132 L68.1880 136.8650 "/>
<path d="M67.9398 142.3265 L67.6915 142.3265 "/>
<path d="M67.6915 142.3265 L67.1950 142.0782 "/>
<path d="M67.1950 142.0782 L66.9468 141.8300 "/>
<path d="M72.9048 146.7950 L72.9048 145.8020 "/>
<path d="M72.9048 145.8020 L72.6565 145.3055 "/>
<path d="M72.6565 145.3055 L72.4083 145.0572 "/>
<path d="M72.4083 145.0572 L71.6635 144.5607 "/>
<path d="M71.6635 144.5607 L70.6705 144.3125 "/>
<path d="M70.6705 144.3125 L68.6845 144.3125 "/>
<path d="M68.6845 144.3125 L68.1880 144.5607 "/>
<path d="M68.1880 144.5607 L67.9398 144.8090 "/>
<path d="M67.9398 144.8090 L67.6915 145.3055 "/>
<path d="M67.6915 145.3055 L67.6915 146.2985 "/>
<path d="M67.6915 146.2985 L67.9398 146.7950 "/>
<path d="M67.9398 146.7950 L68.1880 147.0432 "/>
<path d="M68.1880 147.0432 L68.6845 147.2915 "/>
<path d="M68.6845 147.2915 L69.9258 147.2915 "/>
<path d="M69.9258 147.2915 L70.4223 147.0432 "/>
<path d="M70.4223 147.0432 L70.6705 146.7950 "/>
<path d="M70.6705 146.7950 L70.9188 146.2985 "/>
<path d="M70.9188 146.2985 L70.9188 145.3055 "/>
<path d="M70.9188 145.3055 L70.6705 144.8090 "/>
<path d="M70.6705 144.8090 L70.4223 144.5607 "/>
<path d="M70.4223 144.5607 L69.9258 144.3125 "/>
<path d="M72.9048 148.7810 L67.6915 150.5187 "/>
<path d="M67.6915 150.5187 L72.9048 152.2565 "/>
</g><g transform="rotate(-90.000000 96.6501 126.1902)">
<text x="96.6501" y="128.7969" transform="scale(-1 1) translate(-193.300294 0)" textLength="11.0906" font-size="6.9510" lengthAdjust="spacingAndGlyphs" text-anchor="middle" opacity="0.01" style="font-family:monospace">D1</text>
</g>
<g class="stroked-text"><desc>D1</desc>
<path d="M94.2791 122.3424 L99.4923 122.3424 "/>
<path d="M99.4923 122.3424 L99.4923 123.5836 "/>
<path d="M99.4923 123.5836 L99.2441 124.3284 "/>
<path d="M99.2441 124.3284 L98.7476 124.8249 "/>
<path d="M98.7476 124.8249 L98.2511 125.0731 "/>
<path d="M98.2511 125.0731 L97.2581 125.3214 "/>
<path d="M97.2581 125.3214 L96.5133 125.3214 "/>
<path d="M96.5133 125.3214 L95.5203 125.0731 "/>
<path d="M95.5203 125.0731 L95.0238 124.8249 "/>
<path d="M95.0238 124.8249 L94.5273 124.3284 "/>
<path d="M94.5273 124.3284 L94.2791 123.5836 "/>
<path d="M94.2791 123.5836 L94.2791 122.3424 "/>
<path d="M94.2791 130.2864 L94.2791 127.3074 "/>
<path d="M94.2791 128.7969 L99.4923 128.7969 "/>
<path d="M99.4923 128.7969 L98.7476 128.3004 "/>
<path d="M98.7476 128.3004 L98.2511 127.8039 "/>
<path d="M98.2511 127.8039 L98.0028 127.3074 "/>
</g><text x="161.7427" y="147.6480" transform="scale(-1 1) translate(-323.485488 0)" textLength="58.0098" font-size="6.9510" lengthAdjust="spacingAndGlyphs" text-anchor="middle" opacity="0.01" style="font-family:monospace">MAX4734EUB+</text>
<g class="stroked-text"><desc>MAX4734EUB+</desc>
<path d="M134.4353 147.4124 L134.4353 142.1992 "/>
<path d="M134.4353 142.1992 L136.1730 145.9229 "/>
<path d="M136.1730 145.9229 L137.9108 142.1992 "/>
<path d="M137.9108 142.1992 L137.9108 147.4124 "/>
<path d="M140.1450 145.9229 L142.6275 145.9229 "/>
<path d="M139.6485 147.4124 L141.3863 142.1992 "/>
<path d="M141.3863 142.1992 L143.1240 147.4124 "/>
<path d="M144.3653 142.1992 L147.8408 147.4124 "/>
<path d="M147.8408 142.1992 L144.3653 147.4124 "/>
<path d="M152.0610 143.9369 L152.0610 147.4124 "/>
<path d="M150.8198 141.9509 L149.5785 145.6747 "/>
<path d="M149.5785 145.6747 L152.8058 145.6747 "/>
<path d="M154.2953 142.1992 L157.7708 142.1992 "/>
<path d="M157.7708 142.1992 L155.5365 147.4124 "/>
<path d="M159.2603 142.1992 L162.4875 142.1992 "/>
<path d="M162.4875 142.1992 L160.7498 144.1852 "/>
<path d="M160.7498 144.1852 L161.4945 144.1852 "/>
<path d="M161.4945 144.1852 L161.9910 144.4334 "/>
<path d="M161.9910 144.4334 L162.2392 144.6817 "/>
<path d="M162.2392 144.6817 L162.4875 145.1782 "/>
<path d="M162.4875 145.1782 L162.4875 146.4194 "/>
<path d="M162.4875 146.4194 L162.2392 146.9159 "/>
<path d="M162.2392 146.9159 L161.9910 147.1642 "/>
<path d="M161.9910 147.1642 L161.4945 147.4124 "/>
<path d="M161.4945 147.4124 L160.0050 147.4124 "/>
<path d="M160.0050 147.4124 L159.5085 147.1642 "/>
<path d="M159.5085 147.1642 L159.2603 146.9159 "/>
<path d="M166.9560 143.9369 L166.9560 147.4124 "/>
<path d="M165.7147 141.9509 L164.4735 145.6747 "/>
<path d="M164.4735 145.6747 L167.7007 145.6747 "/>
<path d="M169.6867 144.6817 L171.4245 144.6817 "/>
<path d="M172.1692 147.4124 L169.6867 147.4124 "/>
<path d="M169.6867 147.4124 L169.6867 142.1992 "/>
<path d="M169.6867 142.1992 L172.1692 142.1992 "/>
<path d="M174.4035 142.1992 L174.4035 146.4194 "/>
<path d="M174.4035 146.4194 L174.6517 146.9159 "/>
<path d="M174.6517 146.9159 L174.9000 147.1642 "/>
<path d="M174.9000 147.1642 L175.3965 147.4124 "/>
<path d="M175.3965 147.4124 L176.3895 147.4124 "/>
<path d="M176.3895 147.4124 L176.8860 147.1642 "/>
<path d="M176.8860 147.1642 L177.1342 146.9159 "/>
<path d="M177.1342 146.9159 L177.3825 146.4194 "/>
<path d="M177.3825 146.4194 L177.3825 142.1992 "/>
<path d="M181.6027 144.6817 L182.3475 144.9299 "/>
<path d="M182.3475 144.9299 L182.5957 145.1782 "/>
<path d="M182.5957 145.1782 L182.8440 145.6747 "/>
<path d="M182.8440 145.6747 L182.8440 146.4194 "/>
<path d="M182.8440 146.4194 L182.5957 146.9159 "/>
<path d="M182.5957 146.9159 L182.3475 147.1642 "/>
<path d="M182.3475 147.1642 L181.8510 147.4124 "/>
<path d="M181.8510 147.4124 L179.8650 147.4124 "/>
<path d="M179.8650 147.4124 L179.8650 142.1992 "/>
<path d="M179.8650 142.1992 L181.6027 142.1992 "/>
<path d="M181.6027 142.1992 L182.0992 142.4474 "/>
<path d="M182.0992 142.4474 L182.3475 142.6957 "/>
<path d="M182.3475 142.6957 L182.5957 143.1922 "/>
<path d="M182.5957 143.1922 L182.5957 143.6887 "/>
<path d="M182.5957 143.6887 L182.3475 144.1852 "/>
<path d="M182.3475 144.1852 L182.0992 144.4334 "/>
<path d="M182.0992 144.4334 L181.6027 144.6817 "/>
<path d="M181.6027 144.6817 L179.8650 144.6817 "/>
<path d="M185.0782 145.4264 L189.0502 145.4264 "/>
<path d="M187.0642 147.4124 L187.0642 143.4404 "/>
</g><text x="161.7427" y="133.0509" transform="scale(-1 1) translate(-323.485488 0)" textLength="7.5853" font-size="4.1706" lengthAdjust="spacingAndGlyphs" text-anchor="middle" opacity="0.01" style="font-family:monospace">U1</text>
<g class="stroked-text"><desc>U1</desc>
<path d="M159.3596 129.7653 L159.3596 132.2975 "/>
<path d="M159.3596 132.2975 L159.5085 132.5954 "/>
<path d="M159.5085 132.5954 L159.6574 132.7443 "/>
<path d="M159.6574 132.7443 L159.9553 132.8933 "/>
<path d="M159.9553 132.8933 L160.5511 132.8933 "/>
<path d="M160.5511 132.8933 L160.8490 132.7443 "/>
<path d="M160.8490 132.7443 L160.9980 132.5954 "/>
<path d="M160.9980 132.5954 L161.1469 132.2975 "/>
<path d="M161.1469 132.2975 L161.1469 129.7653 "/>
<path d="M164.2749 132.8933 L162.4875 132.8933 "/>
<path d="M163.3812 132.8933 L163.3812 129.7653 "/>
<path d="M163.3812 129.7653 L163.0833 130.2122 "/>
<path d="M163.0833 130.2122 L162.7854 130.5101 "/>
<path d="M162.7854 130.5101 L162.4875 130.6590 "/>
</g><g transform="rotate(-90.000000 109.2871 89.1136)">
<text x="109.2871" y="91.7202" transform="scale(-1 1) translate(-218.574114 0)" textLength="24.9926" font-size="6.9510" lengthAdjust="spacingAndGlyphs" text-anchor="middle" opacity="0.01" style="font-family:monospace">100nF</text>
</g>
<g class="stroked-text"><desc>100nF</desc>
<path d="M106.9160 81.0455 L106.9160 78.0665 "/>
<path d="M106.9160 79.5560 L112.1292 79.5560 "/>
<path d="M112.1292 79.5560 L111.3845 79.0595 "/>
<path d="M111.3845 79.0595 L110.8880 78.5630 "/>
<path d="M110.8880 78.5630 L110.6397 78.0665 "/>
<path d="M112.1292 84.2728 L112.1292 84.7693 "/>
<path d="M112.1292 84.7693 L111.8810 85.2658 "/>
<path d="M111.8810 85.2658 L111.6327 85.5140 "/>
<path d="M111.6327 85.5140 L111.1362 85.7622 "/>
<path d="M111.1362 85.7622 L110.1432 86.0105 "/>
<path d="M110.1432 86.0105 L108.9020 86.0105 "/>
<path d="M108.9020 86.0105 L107.9090 85.7622 "/>
<path d="M107.9090 85.7622 L107.4125 85.5140 "/>
<path d="M107.4125 85.5140 L107.1642 85.2658 "/>
<path d="M107.1642 85.2658 L106.9160 84.7693 "/>
<path d="M106.9160 84.7693 L106.9160 84.2728 "/>
<path d="M106.9160 84.2728 L107.1642 83.7763 "/>
<path d="M107.1642 83.7763 L107.4125 83.5280 "/>
<path d="M107.4125 83.5280 L107.9090 83.2798 "/>
<path d="M107.9090 83.2798 L108.9020 83.0315 "/>
<path d="M108.9020 83.0315 L110.1432 83.0315 "/>
<path d="M110.1432 83.0315 L111.1362 83.2798 "/>
<path d="M111.1362 83.2798 L111.6327 83.5280 "/>
<path d="M111.6327 83.5280 L111.8810 83.7763 "/>
<path d="M111.8810 83.7763 L112.1292 84.2728 "/>
<path d="M112.1292 89.2377 L112.1292 89.7342 "/>
<path d="M112.1292 89.7342 L111.8810 90.2307 "/>
<path d="M111.8810 90.2307 L111.6327 90.4790 "/>
<path d="M111.6327 90.4790 L111.1362 90.7272 "/>
<path d="M111.1362 90.7272 L110.1432 90.9755 "/>
<path d="M110.1432 90.9755 L108.9020 90.9755 "/>
<path d="M108.9020 90.9755 L107.9090 90.7272 "/>
<path d="M107.9090 90.7272 L107.4125 90.4790 "/>
<path d="M107.4125 90.4790 L107.1642 90.2307 "/>
<path d="M107.1642 90.2307 L106.9160 89.7342 "/>
<path d="M106.9160 89.7342 L106.9160 89.2377 "/>
<path d="M106.9160 89.2377 L107.1642 88.7412 "/>
<path d="M107.1642 88.7412 L107.4125 88.4930 "/>
<path d="M107.4125 88.4930 L107.9090 88.2448 "/>
<path d="M107.9090 88.2448 L108.9020 87.9965 "/>
<path d="M108.9020 87.9965 L110.1432 87.9965 "/>
<path d="M110.1432 87.9965 L111.1362 88.2448 "/>
<path d="M111.1362 88.2448 L111.6327 88.4930 "/>
<path d="M111.6327 88.4930 L111.8810 88.7412 "/>
<path d="M111.8810 88.7412 L112.1292 89.2377 "/>
<path d="M110.3915 93.2097 L106.9160 93.2097 "/>
<path d="M109.8950 93.2097 L110.1432 93.4580 "/>
<path d="M110.1432 93.4580 L110.3915 93.9545 "/>
<path d="M110.3915 93.9545 L110.3915 94.6992 "/>
<path d="M110.3915 94.6992 L110.1432 95.1957 "/>
<path d="M110.1432 95.1957 L109.6467 95.4440 "/>
<path d="M109.6467 95.4440 L106.9160 95.4440 "/>
<path d="M109.6467 99.6642 L109.6467 97.9265 "/>
<path d="M106.9160 97.9265 L112.1292 97.9265 "/>
<path d="M112.1292 97.9265 L112.1292 100.4090 "/>
</g></g>
<g style="fill:#000084; fill-opacity:0.0;  stroke:#000084; stroke-width:0.4171; stroke-opacity:1;  stroke-linecap:round; stroke-linejoin:round;">
<g transform="rotate(-90.000000 118.0453 89.1136)">
<text x="118.0453" y="90.4169" transform="scale(-1 1) translate(-236.090622 0)" textLength="5.6104" font-size="3.4755" lengthAdjust="spacingAndGlyphs" text-anchor="middle" opacity="0.01" style="font-family:monospace">C2</text>
</g>
<g class="stroked-text"><desc>C2</desc>
<path d="M117.1094 88.6792 L116.9852 88.5551 "/>
<path d="M116.9852 88.5551 L116.8611 88.1827 "/>
<path d="M116.8611 88.1827 L116.8611 87.9344 "/>
<path d="M116.8611 87.9344 L116.9852 87.5621 "/>
<path d="M116.9852 87.5621 L117.2335 87.3138 "/>
<path d="M117.2335 87.3138 L117.4818 87.1897 "/>
<path d="M117.4818 87.1897 L117.9783 87.0656 "/>
<path d="M117.9783 87.0656 L118.3506 87.0656 "/>
<path d="M118.3506 87.0656 L118.8471 87.1897 "/>
<path d="M118.8471 87.1897 L119.0954 87.3138 "/>
<path d="M119.0954 87.3138 L119.3436 87.5621 "/>
<path d="M119.3436 87.5621 L119.4678 87.9344 "/>
<path d="M119.4678 87.9344 L119.4678 88.1827 "/>
<path d="M119.4678 88.1827 L119.3436 88.5551 "/>
<path d="M119.3436 88.5551 L119.2195 88.6792 "/>
<path d="M119.2195 89.6722 L119.3436 89.7963 "/>
<path d="M119.3436 89.7963 L119.4678 90.0446 "/>
<path d="M119.4678 90.0446 L119.4678 90.6652 "/>
<path d="M119.4678 90.6652 L119.3436 90.9134 "/>
<path d="M119.3436 90.9134 L119.2195 91.0376 "/>
<path d="M119.2195 91.0376 L118.9713 91.1617 "/>
<path d="M118.9713 91.1617 L118.7230 91.1617 "/>
<path d="M118.7230 91.1617 L118.3506 91.0376 "/>
<path d="M118.3506 91.0376 L116.8611 89.5481 "/>
<path d="M116.8611 89.5481 L116.8611 91.1617 "/>
</g></g>
<g style="fill:#000084; fill-opacity:0.01;  stroke:#000084; stroke-width:0.7820; stroke-opacity:1;  stroke-linecap:round; stroke-linejoin:round;">
<text x="175.7690" y="178.4478" transform="scale(-1 1) translate(-351.537968 0)" textLength="15.0626" font-size="6.9510" lengthAdjust="spacingAndGlyphs" text-anchor="middle" opacity="0.01" style="font-family:monospace">10k</text>
<g class="stroked-text"><desc>10k</desc>
<path d="M172.6659 178.2123 L169.6869 178.2123 "/>
<path d="M171.1764 178.2123 L171.1764 172.9990 "/>
<path d="M171.1764 172.9990 L170.6799 173.7438 "/>
<path d="M170.6799 173.7438 L170.1834 174.2403 "/>
<path d="M170.1834 174.2403 L169.6869 174.4885 "/>
<path d="M175.8931 172.9990 L176.3896 172.9990 "/>
<path d="M176.3896 172.9990 L176.8861 173.2473 "/>
<path d="M176.8861 173.2473 L177.1344 173.4955 "/>
<path d="M177.1344 173.4955 L177.3826 173.9920 "/>
<path d="M177.3826 173.9920 L177.6309 174.9850 "/>
<path d="M177.6309 174.9850 L177.6309 176.2263 "/>
<path d="M177.6309 176.2263 L177.3826 177.2193 "/>
<path d="M177.3826 177.2193 L177.1344 177.7158 "/>
<path d="M177.1344 177.7158 L176.8861 177.9640 "/>
<path d="M176.8861 177.9640 L176.3896 178.2123 "/>
<path d="M176.3896 178.2123 L175.8931 178.2123 "/>
<path d="M175.8931 178.2123 L175.3966 177.9640 "/>
<path d="M175.3966 177.9640 L175.1484 177.7158 "/>
<path d="M175.1484 177.7158 L174.9001 177.2193 "/>
<path d="M174.9001 177.2193 L174.6519 176.2263 "/>
<path d="M174.6519 176.2263 L174.6519 174.9850 "/>
<path d="M174.6519 174.9850 L174.9001 173.9920 "/>
<path d="M174.9001 173.9920 L175.1484 173.4955 "/>
<path d="M175.1484 173.4955 L175.3966 173.2473 "/>
<path d="M175.3966 173.2473 L175.8931 172.9990 "/>
<path d="M179.8651 178.2123 L179.8651 172.9990 "/>
<path d="M180.3616 176.2263 L181.8511 178.2123 "/>
<path d="M181.8511 174.7368 L179.8651 176.7228 "/>
</g></g>
<g style="fill:#000084; fill-opacity:0.01;  stroke:#000084; stroke-width:0.4171; stroke-opacity:1;  stroke-linecap:round; stroke-linejoin:round;">
<text x="175.7690" y="168.5427" transform="scale(-1 1) translate(-351.537968 0)" textLength="5.6104" font-size="3.4755" lengthAdjust="spacingAndGlyphs" text-anchor="middle" opacity="0.01" style="font-family:monospace">R3</text>
<g class="stroked-text"><desc>R3</desc>
<path d="M175.3345 168.4235 L174.4657 167.1823 "/>
<path d="M173.8451 168.4235 L173.8451 165.8169 "/>
<path d="M173.8451 165.8169 L174.8380 165.8169 "/>
<path d="M174.8380 165.8169 L175.0863 165.9410 "/>
<path d="M175.0863 165.9410 L175.2104 166.0652 "/>
<path d="M175.2104 166.0652 L175.3345 166.3134 "/>
<path d="M175.3345 166.3134 L175.3345 166.6858 "/>
<path d="M175.3345 166.6858 L175.2104 166.9340 "/>
<path d="M175.2104 166.9340 L175.0863 167.0581 "/>
<path d="M175.0863 167.0581 L174.8380 167.1823 "/>
<path d="M174.8380 167.1823 L173.8451 167.1823 "/>
<path d="M176.2034 165.8169 L177.8170 165.8169 "/>
<path d="M177.8170 165.8169 L176.9482 166.8099 "/>
<path d="M176.9482 166.8099 L177.3206 166.8099 "/>
<path d="M177.3206 166.8099 L177.5688 166.9340 "/>
<path d="M177.5688 166.9340 L177.6929 167.0581 "/>
<path d="M177.6929 167.0581 L177.8170 167.3064 "/>
<path d="M177.8170 167.3064 L177.8170 167.9270 "/>
<path d="M177.8170 167.9270 L177.6929 168.1753 "/>
<path d="M177.6929 168.1753 L177.5688 168.2994 "/>
<path d="M177.5688 168.2994 L177.3206 168.4235 "/>
<path d="M177.3206 168.4235 L176.5758 168.4235 "/>
<path d="M176.5758 168.4235 L176.3276 168.2994 "/>
<path d="M176.3276 168.2994 L176.2034 168.1753 "/>
</g></g>
<g style="fill:#000084; fill-opacity:0.0;  stroke:#000084; stroke-width:0.7820; stroke-opacity:1;  stroke-linecap:round; stroke-linejoin:round;">
<g transform="rotate(-90.000000 119.5259 59.9820)">
<text x="119.5259" y="62.5886" transform="scale(-1 1) translate(-239.051746 0)" textLength="15.0626" font-size="6.9510" lengthAdjust="spacingAndGlyphs" text-anchor="middle" opacity="0.01" style="font-family:monospace">10k</text>
</g>
<g class="stroked-text"><desc>10k</desc>
<path d="M117.1548 56.8789 L117.1548 53.8999 "/>
<path d="M117.1548 55.3894 L122.3680 55.3894 "/>
<path d="M122.3680 55.3894 L121.6233 54.8929 "/>
<path d="M121.6233 54.8929 L121.1268 54.3964 "/>
<path d="M121.1268 54.3964 L120.8785 53.8999 "/>
<path d="M122.3680 60.1061 L122.3680 60.6026 "/>
<path d="M122.3680 60.6026 L122.1198 61.0991 "/>
<path d="M122.1198 61.0991 L121.8715 61.3474 "/>
<path d="M121.8715 61.3474 L121.3750 61.5956 "/>
<path d="M121.3750 61.5956 L120.3820 61.8439 "/>
<path d="M120.3820 61.8439 L119.1408 61.8439 "/>
<path d="M119.1408 61.8439 L118.1478 61.5956 "/>
<path d="M118.1478 61.5956 L117.6513 61.3474 "/>
<path d="M117.6513 61.3474 L117.4030 61.0991 "/>
<path d="M117.4030 61.0991 L117.1548 60.6026 "/>
<path d="M117.1548 60.6026 L117.1548 60.1061 "/>
<path d="M117.1548 60.1061 L117.4030 59.6096 "/>
<path d="M117.4030 59.6096 L117.6513 59.3614 "/>
<path d="M117.6513 59.3614 L118.1478 59.1131 "/>
<path d="M118.1478 59.1131 L119.1408 58.8649 "/>
<path d="M119.1408 58.8649 L120.3820 58.8649 "/>
<path d="M120.3820 58.8649 L121.3750 59.1131 "/>
<path d="M121.3750 59.1131 L121.8715 59.3614 "/>
<path d="M121.8715 59.3614 L122.1198 59.6096 "/>
<path d="M122.1198 59.6096 L122.3680 60.1061 "/>
<path d="M117.1548 64.0781 L122.3680 64.0781 "/>
<path d="M119.1408 64.5746 L117.1548 66.0641 "/>
<path d="M120.6303 66.0641 L118.6443 64.0781 "/>
</g></g>
<g style="fill:#000084; fill-opacity:0.0;  stroke:#000084; stroke-width:0.4171; stroke-opacity:1;  stroke-linecap:round; stroke-linejoin:round;">
<g transform="rotate(-90.000000 128.1277 59.9820)">
<text x="128.1277" y="61.2853" transform="scale(-1 1) translate(-256.255460 0)" textLength="5.6104" font-size="3.4755" lengthAdjust="spacingAndGlyphs" text-anchor="middle" opacity="0.01" style="font-family:monospace">R1</text>
</g>
<g class="stroked-text"><desc>R1</desc>
<path d="M126.9435 59.5476 L128.1848 58.6787 "/>
<path d="M126.9435 58.0581 L129.5502 58.0581 "/>
<path d="M129.5502 58.0581 L129.5502 59.0511 "/>
<path d="M129.5502 59.0511 L129.4260 59.2993 "/>
<path d="M129.4260 59.2993 L129.3019 59.4234 "/>
<path d="M129.3019 59.4234 L129.0537 59.5476 "/>
<path d="M129.0537 59.5476 L128.6813 59.5476 "/>
<path d="M128.6813 59.5476 L128.4330 59.4234 "/>
<path d="M128.4330 59.4234 L128.3089 59.2993 "/>
<path d="M128.3089 59.2993 L128.1848 59.0511 "/>
<path d="M128.1848 59.0511 L128.1848 58.0581 "/>
<path d="M126.9435 62.0301 L126.9435 60.5406 "/>
<path d="M126.9435 61.2853 L129.5502 61.2853 "/>
<path d="M129.5502 61.2853 L129.1778 61.0371 "/>
<path d="M129.1778 61.0371 L128.9295 60.7888 "/>
<path d="M128.9295 60.7888 L128.8054 60.5406 "/>
</g></g>
<g style="fill:#000084; fill-opacity:0.0;  stroke:#000084; stroke-width:0.7820; stroke-opacity:1;  stroke-linecap:round; stroke-linejoin:round;">
<g transform="rotate(-90.000000 104.1468 59.9820)">
<text x="104.1468" y="62.5886" transform="scale(-1 1) translate(-208.293591 0)" textLength="15.0626" font-size="6.9510" lengthAdjust="spacingAndGlyphs" text-anchor="middle" opacity="0.01" style="font-family:monospace">10k</text>
</g>
<g class="stroked-text"><desc>10k</desc>
<path d="M101.7757 56.8789 L101.7757 53.8999 "/>
<path d="M101.7757 55.3894 L106.9890 55.3894 "/>
<path d="M106.9890 55.3894 L106.2442 54.8929 "/>
<path d="M106.2442 54.8929 L105.7477 54.3964 "/>
<path d="M105.7477 54.3964 L105.4995 53.8999 "/>
<path d="M106.9890 60.1061 L106.9890 60.6026 "/>
<path d="M106.9890 60.6026 L106.7407 61.0991 "/>
<path d="M106.7407 61.0991 L106.4925 61.3474 "/>
<path d="M106.4925 61.3474 L105.9960 61.5956 "/>
<path d="M105.9960 61.5956 L105.0030 61.8439 "/>
<path d="M105.0030 61.8439 L103.7617 61.8439 "/>
<path d="M103.7617 61.8439 L102.7687 61.5956 "/>
<path d="M102.7687 61.5956 L102.2722 61.3474 "/>
<path d="M102.2722 61.3474 L102.0240 61.0991 "/>
<path d="M102.0240 61.0991 L101.7757 60.6026 "/>
<path d="M101.7757 60.6026 L101.7757 60.1061 "/>
<path d="M101.7757 60.1061 L102.0240 59.6096 "/>
<path d="M102.0240 59.6096 L102.2722 59.3614 "/>
<path d="M102.2722 59.3614 L102.7687 59.1131 "/>
<path d="M102.7687 59.1131 L103.7617 58.8649 "/>
<path d="M103.7617 58.8649 L105.0030 58.8649 "/>
<path d="M105.0030 58.8649 L105.9960 59.1131 "/>
<path d="M105.9960 59.1131 L106.4925 59.3614 "/>
<path d="M106.4925 59.3614 L106.7407 59.6096 "/>
<path d="M106.7407 59.6096 L106.9890 60.1061 "/>
<path d="M101.7757 64.0781 L106.9890 64.0781 "/>
<path d="M103.7617 64.5746 L101.7757 66.0641 "/>
<path d="M105.2512 66.0641 L103.2652 64.0781 "/>
</g></g>
<g style="fill:#000084; fill-opacity:0.0;  stroke:#000084; stroke-width:0.4171; stroke-opacity:1;  stroke-linecap:round; stroke-linejoin:round;">
<g transform="rotate(-90.000000 112.7487 59.9820)">
<text x="112.7487" y="61.2853" transform="scale(-1 1) translate(-225.497305 0)" textLength="5.6104" font-size="3.4755" lengthAdjust="spacingAndGlyphs" text-anchor="middle" opacity="0.01" style="font-family:monospace">R2</text>
</g>
<g class="stroked-text"><desc>R2</desc>
<path d="M111.5645 59.5476 L112.8057 58.6787 "/>
<path d="M111.5645 58.0581 L114.1711 58.0581 "/>
<path d="M114.1711 58.0581 L114.1711 59.0511 "/>
<path d="M114.1711 59.0511 L114.0470 59.2993 "/>
<path d="M114.0470 59.2993 L113.9228 59.4234 "/>
<path d="M113.9228 59.4234 L113.6746 59.5476 "/>
<path d="M113.6746 59.5476 L113.3022 59.5476 "/>
<path d="M113.3022 59.5476 L113.0540 59.4234 "/>
<path d="M113.0540 59.4234 L112.9298 59.2993 "/>
<path d="M112.9298 59.2993 L112.8057 59.0511 "/>
<path d="M112.8057 59.0511 L112.8057 58.0581 "/>
<path d="M113.9228 60.5406 L114.0470 60.6647 "/>
<path d="M114.0470 60.6647 L114.1711 60.9129 "/>
<path d="M114.1711 60.9129 L114.1711 61.5336 "/>
<path d="M114.1711 61.5336 L114.0470 61.7818 "/>
<path d="M114.0470 61.7818 L113.9228 61.9059 "/>
<path d="M113.9228 61.9059 L113.6746 62.0301 "/>
<path d="M113.6746 62.0301 L113.4263 62.0301 "/>
<path d="M113.4263 62.0301 L113.0540 61.9059 "/>
<path d="M113.0540 61.9059 L111.5645 60.4164 "/>
<path d="M111.5645 60.4164 L111.5645 62.0301 "/>
</g></g>
<g style="fill:#000084; fill-opacity:0.0;  stroke:#000084; stroke-width:0.5213; stroke-opacity:1;  stroke-linecap:round; stroke-linejoin:round;">
<path d="M112.1387 145.9693 L112.1387 135.5428 "/>
<path d="M118.6553 135.5428 L118.6553 145.9693 "/>
<path d="M112.1387 135.5428 L118.6553 135.5428 "/>
<path d="M118.6553 145.9693 L112.1387 145.9693 "/>
<path d="M75.7972 114.1998 L91.4369 114.1998 "/>
<path d="M91.4369 138.1807 L75.7972 138.1807 "/>
<path d="M79.7054 128.8030 L87.7828 128.8030 "/>
<path d="M83.6117 122.8045 L87.7828 128.8030 "/>
<path d="M91.4369 138.1807 L91.4369 114.1998 "/>
<path d="M83.6117 128.8030 L83.6117 134.0070 "/>
<path d="M83.6117 122.8045 L79.7054 128.8030 "/>
<path d="M83.6117 122.8045 L83.6117 118.1038 "/>
<path d="M75.7972 138.1807 L75.7972 114.1998 "/>
<path d="M87.7828 122.8045 L79.4406 122.8045 "/>
</g>
<g style="fill:#000084; fill-opacity:0.0;  stroke:#000084; stroke-width:0.7820; stroke-opacity:1;  stroke-linecap:round; stroke-linejoin:round;">
<path d="M153.9229 128.8803 L159.1361 123.6670 "/>
<path d="M153.9229 139.3068 L153.9229 128.8803 "/>
<path d="M169.5626 139.3068 L153.9229 139.3068 "/>
<path d="M159.1361 123.6670 L169.5626 123.6670 "/>
<path d="M169.5626 123.6670 L169.5626 139.3068 "/>
</g>
<g style="fill:#000084; fill-opacity:0.0;  stroke:#000084; stroke-width:0.5213; stroke-opacity:1;  stroke-linecap:round; stroke-linejoin:round;">
<path d="M121.3036 94.3269 L114.7870 94.3269 "/>
<path d="M114.7870 83.9004 L121.3036 83.9004 "/>
<path d="M121.3036 83.9004 L121.3036 94.3269 "/>
<path d="M114.7870 94.3269 L114.7870 83.9004 "/>
<path d="M180.9822 170.4976 L170.5557 170.4976 "/>
<path d="M170.5557 170.4976 L170.5557 163.9811 "/>
<path d="M170.5557 163.9811 L180.9822 163.9811 "/>
<path d="M180.9822 163.9811 L180.9822 170.4976 "/>
<path d="M124.8695 65.1953 L124.8695 54.7688 "/>
<path d="M131.3860 65.1953 L124.8695 65.1953 "/>
<path d="M124.8695 54.7688 L131.3860 54.7688 "/>
<path d="M131.3860 54.7688 L131.3860 65.1953 "/>
<path d="M109.4904 65.1953 L109.4904 54.7688 "/>
<path d="M116.0069 65.1953 L109.4904 65.1953 "/>
<path d="M109.4904 54.7688 L116.0069 54.7688 "/>
<path d="M116.0069 54.7688 L116.0069 65.1953 "/>
<g>
</g>
<g>
</g>
<g>
</g>
<g>
</g>
<g>
</g>
<g>
</g>
<g>
</g>
<g>
</g>
<g>
</g>
<g>
</g>
<g>
</g>
<g>
</g>
<g>
</g>
<g>
</g>
<g>
</g>
<g>
</g>
<g>
</g>
<g>
</g>
<g>
</g>
<g>
</g>
<g>
</g>
<g>
</g>
<g>
</g>
</g> 
<svg:g><svg:g><svg:title>SVG Image created as AMUX01-Edge_Cuts.svg date 2023/07/21 00:32:55 </svg:title>
  <svg:desc>Image generated by PCBNEW </svg:desc>
<svg:g style="fill:#C2C200; fill-opacity:1.0000;stroke:#C2C200; stroke-opacity:1.0000; stroke-linecap:round; stroke-linejoin:round;" transform="translate(0 0) scale(1 1)">
</svg:g>
<svg:g style="fill:#C2C200; fill-opacity:0.0;  stroke:#C2C200; stroke-width:0.0000; stroke-opacity:1;  stroke-linecap:round; stroke-linejoin:round;">
</svg:g>
<svg:g style="fill:#C2C200; fill-opacity:0.0;  stroke:#C2C200; stroke-width:0.7820; stroke-opacity:1;  stroke-linecap:round; stroke-linejoin:round;">
<svg:path style="fill:#C2C200; fill-opacity:0.0;  stroke:#C2C200; stroke-width:0.7820; stroke-opacity:1;  stroke-linecap:round; stroke-linejoin:round;fill:none" d="M 253.1101,0.3946 43.8921,0.3946 43.8921,209.6126 253.1101,209.6126 Z"/> 
<svg:g>
</svg:g>
<svg:g>
</svg:g>
<svg:g>
</svg:g>
<svg:g>
</svg:g>
<svg:g>
</svg:g>
<svg:g>
</svg:g>
<svg:g>
</svg:g>
<svg:g>
</svg:g>
<svg:g>
</svg:g>
<svg:g>
</svg:g>
<svg:g>
</svg:g>
<svg:g>
</svg:g>
<svg:g>
</svg:g>
<svg:g>
</svg:g>
<svg:g>
</svg:g>
<svg:g>
</svg:g>
<svg:g>
</svg:g>
<svg:g>
</svg:g>
<svg:g>
</svg:g>
<svg:g>
</svg:g>
<svg:g>
</svg:g>
<svg:g>
</svg:g>
<svg:g>
</svg:g>
</svg:g> 
</svg:g></svg:g></svg>
