<?xml version='1.0' encoding='ASCII' standalone='yes'?>
<svg xmlns:svg="http://www.w3.org/2000/svg" xmlns="http://www.w3.org/2000/svg" xmlns:xlink="http://www.w3.org/1999/xlink" version="1.1" width="297.0022mm" height="210.0072mm" viewBox="0.0000 0.0000 297.0022 210.0072">
<title>SVG Image created as AMUX01-F_Fab.svg date 2023/07/10 00:37:34 </title>
  <desc>Image generated by PCBNEW </desc>
<g style="fill:#848484; fill-opacity:1.0000;stroke:#848484; stroke-opacity:1.0000; stroke-linecap:round; stroke-linejoin:round;" transform="translate(0 0) scale(1 1)">
</g>
<g style="fill:#848484; fill-opacity:0.0;  stroke:#848484; stroke-width:0.0000; stroke-opacity:1;  stroke-linecap:round; stroke-linejoin:round;">
</g>
<g style="fill:#848484; fill-opacity:0.0;  stroke:#848484; stroke-width:1.9862; stroke-opacity:1;  stroke-linecap:round; stroke-linejoin:round;">
<circle cx="227.9510" cy="25.5537" r="15.6384"/> 
<circle cx="227.9510" cy="184.4535" r="15.6384"/> 
</g>
<g style="fill:#848484; fill-opacity:0.0;  stroke:#848484; stroke-width:0.7820; stroke-opacity:1;  stroke-linecap:round; stroke-linejoin:round;">
<path d="M55.8096 114.2728 L55.8096 101.0311 "/>
<path d="M55.8096 101.0311 L95.5345 101.0311 "/>
<path d="M95.5345 114.2728 L55.8096 114.2728 "/>
<path d="M95.5345 101.0311 L95.5345 114.2728 "/>
<path d="M135.2595 192.3985 L135.2595 165.9152 "/>
<path d="M135.2595 165.9152 L174.9844 165.9152 "/>
<path d="M174.9844 165.9152 L174.9844 192.3985 "/>
<path d="M174.9844 192.3985 L135.2595 192.3985 "/>
<path d="M95.5345 114.2728 L95.5345 127.5144 "/>
<path d="M55.8096 114.2728 L95.5345 114.2728 "/>
<path d="M55.8096 127.5144 L55.8096 114.2728 "/>
<path d="M95.5345 127.5144 L55.8096 127.5144 "/>
<path d="M128.6386 16.2846 L168.3636 16.2846 "/>
<path d="M168.3636 42.7679 L128.6386 42.7679 "/>
<path d="M128.6386 42.7679 L128.6386 16.2846 "/>
<path d="M168.3636 16.2846 L168.3636 42.7679 "/>
</g>
<g style="fill:#848484; fill-opacity:0.0;  stroke:#848484; stroke-width:1.9862; stroke-opacity:1;  stroke-linecap:round; stroke-linejoin:round;">
<circle cx="69.0512" cy="184.4535" r="15.6384"/> 
</g>
<g style="fill:#848484; fill-opacity:0.0;  stroke:#848484; stroke-width:0.7820; stroke-opacity:1;  stroke-linecap:round; stroke-linejoin:round;">
<path d="M95.5345 153.9977 L55.8096 153.9977 "/>
<path d="M55.8096 153.9977 L55.8096 140.7560 "/>
<path d="M55.8096 140.7560 L95.5345 140.7560 "/>
<path d="M95.5345 140.7560 L95.5345 153.9977 "/>
<path d="M95.5345 140.7560 L55.8096 140.7560 "/>
<path d="M95.5345 127.5144 L95.5345 140.7560 "/>
<path d="M55.8096 127.5144 L95.5345 127.5144 "/>
<path d="M55.8096 140.7560 L55.8096 127.5144 "/>
</g>
<g style="fill:#848484; fill-opacity:0.0;  stroke:#848484; stroke-width:1.9862; stroke-opacity:1;  stroke-linecap:round; stroke-linejoin:round;">
<circle cx="69.0512" cy="25.5537" r="15.6384"/> 
</g>
<g style="fill:#848484; fill-opacity:0.0;  stroke:#848484; stroke-width:0.7820; stroke-opacity:1;  stroke-linecap:round; stroke-linejoin:round;">
<path d="M157.7703 98.3828 L144.5286 98.3828 "/>
<path d="M144.5286 98.3828 L144.5286 71.8995 "/>
<path d="M157.7703 71.8995 L157.7703 98.3828 "/>
<path d="M144.5286 71.8995 L157.7703 71.8995 "/>
<path d="M118.0453 71.8995 L131.2870 71.8995 "/>
<path d="M131.2870 98.3828 L118.0453 98.3828 "/>
<path d="M131.2870 71.8995 L131.2870 98.3828 "/>
<path d="M118.0453 98.3828 L118.0453 71.8995 "/>
<path d="M131.2870 98.3828 L131.2870 71.8995 "/>
<path d="M144.5286 71.8995 L144.5286 98.3828 "/>
<path d="M131.2870 71.8995 L144.5286 71.8995 "/>
<path d="M144.5286 98.3828 L131.2870 98.3828 "/>
<g>
</g>
<g>
</g>
<g>
</g>
<g>
</g>
<g>
</g>
<g>
</g>
<g>
</g>
<g>
</g>
<g>
</g>
<g>
</g>
<g>
</g>
<g>
</g>
<g>
</g>
<g>
</g>
<g>
</g>
<g>
</g>
<g>
</g>
<g>
</g>
<g>
</g>
<g>
</g>
<g>
</g>
<g>
</g>
<g>
</g>
</g> 
<svg:g><svg:g><svg:title>SVG Image created as AMUX01-Edge_Cuts.svg date 2023/07/10 00:37:34 </svg:title>
  <svg:desc>Image generated by PCBNEW </svg:desc>
<svg:g style="fill:#C2C200; fill-opacity:1.0000;stroke:#C2C200; stroke-opacity:1.0000; stroke-linecap:round; stroke-linejoin:round;" transform="translate(0 0) scale(1 1)">
</svg:g>
<svg:g style="fill:#C2C200; fill-opacity:0.0;  stroke:#C2C200; stroke-width:0.0000; stroke-opacity:1;  stroke-linecap:round; stroke-linejoin:round;">
</svg:g>
<svg:g style="fill:#C2C200; fill-opacity:0.0;  stroke:#C2C200; stroke-width:0.7820; stroke-opacity:1;  stroke-linecap:round; stroke-linejoin:round;">
<svg:path style="fill:#C2C200; fill-opacity:0.0;  stroke:#C2C200; stroke-width:0.7820; stroke-opacity:1;  stroke-linecap:round; stroke-linejoin:round;fill:none" d="M 43.8921,0.3946 253.1101,0.3946 253.1101,209.6126 43.8921,209.6126 Z"/> 
<svg:g>
</svg:g>
<svg:g>
</svg:g>
<svg:g>
</svg:g>
<svg:g>
</svg:g>
<svg:g>
</svg:g>
<svg:g>
</svg:g>
<svg:g>
</svg:g>
<svg:g>
</svg:g>
<svg:g>
</svg:g>
<svg:g>
</svg:g>
<svg:g>
</svg:g>
<svg:g>
</svg:g>
<svg:g>
</svg:g>
<svg:g>
</svg:g>
<svg:g>
</svg:g>
<svg:g>
</svg:g>
<svg:g>
</svg:g>
<svg:g>
</svg:g>
<svg:g>
</svg:g>
<svg:g>
</svg:g>
<svg:g>
</svg:g>
<svg:g>
</svg:g>
<svg:g>
</svg:g>
</svg:g> 
</svg:g></svg:g></svg>
