<?xml version='1.0' encoding='ASCII' standalone='yes'?>
<svg xmlns:svg="http://www.w3.org/2000/svg" xmlns="http://www.w3.org/2000/svg" xmlns:xlink="http://www.w3.org/1999/xlink" version="1.1" width="297.0022mm" height="210.0072mm" viewBox="0.0000 0.0000 297.0022 210.0072">
<title>SVG Image created as AMUX01-F_Fab.svg date 2023/07/05 15:12:55 </title>
  <desc>Image generated by PCBNEW </desc>
<g style="fill:#848484; fill-opacity:1.0000;stroke:#848484; stroke-opacity:1.0000; stroke-linecap:round; stroke-linejoin:round;" transform="translate(0 0) scale(1 1)">
</g>
<g style="fill:#848484; fill-opacity:0.0;  stroke:#848484; stroke-width:0.0000; stroke-opacity:1;  stroke-linecap:round; stroke-linejoin:round;">
</g>
<g style="fill:#848484; fill-opacity:0.0;  stroke:#848484; stroke-width:1.9862; stroke-opacity:1;  stroke-linecap:round; stroke-linejoin:round;">
<circle cx="69.0512" cy="25.5537" r="15.6384"/> 
<circle cx="69.0512" cy="184.4535" r="15.6384"/> 
</g>
<g style="fill:#848484; fill-opacity:0.0;  stroke:#848484; stroke-width:0.7820; stroke-opacity:1;  stroke-linecap:round; stroke-linejoin:round;">
<path d="M241.1926 114.2728 L241.1926 101.0311 "/>
<path d="M241.1926 101.0311 L201.4677 101.0311 "/>
<path d="M201.4677 114.2728 L241.1926 114.2728 "/>
<path d="M201.4677 101.0311 L201.4677 114.2728 "/>
<path d="M161.7427 192.3985 L161.7427 165.9152 "/>
<path d="M161.7427 165.9152 L122.0178 165.9152 "/>
<path d="M122.0178 165.9152 L122.0178 192.3985 "/>
<path d="M122.0178 192.3985 L161.7427 192.3985 "/>
<path d="M201.4677 114.2728 L201.4677 127.5144 "/>
<path d="M241.1926 114.2728 L201.4677 114.2728 "/>
<path d="M241.1926 127.5144 L241.1926 114.2728 "/>
<path d="M201.4677 127.5144 L241.1926 127.5144 "/>
<path d="M168.3636 16.2846 L128.6386 16.2846 "/>
<path d="M128.6386 42.7679 L168.3636 42.7679 "/>
<path d="M168.3636 42.7679 L168.3636 16.2846 "/>
<path d="M128.6386 16.2846 L128.6386 42.7679 "/>
</g>
<g style="fill:#848484; fill-opacity:0.0;  stroke:#848484; stroke-width:1.9862; stroke-opacity:1;  stroke-linecap:round; stroke-linejoin:round;">
<circle cx="227.9510" cy="184.4535" r="15.6384"/> 
</g>
<g style="fill:#848484; fill-opacity:0.0;  stroke:#848484; stroke-width:0.7820; stroke-opacity:1;  stroke-linecap:round; stroke-linejoin:round;">
<path d="M201.4677 153.9977 L241.1926 153.9977 "/>
<path d="M241.1926 153.9977 L241.1926 140.7560 "/>
<path d="M241.1926 140.7560 L201.4677 140.7560 "/>
<path d="M201.4677 140.7560 L201.4677 153.9977 "/>
<path d="M201.4677 140.7560 L241.1926 140.7560 "/>
<path d="M201.4677 127.5144 L201.4677 140.7560 "/>
<path d="M241.1926 127.5144 L201.4677 127.5144 "/>
<path d="M241.1926 140.7560 L241.1926 127.5144 "/>
</g>
<g style="fill:#848484; fill-opacity:0.0;  stroke:#848484; stroke-width:1.9862; stroke-opacity:1;  stroke-linecap:round; stroke-linejoin:round;">
<circle cx="227.9510" cy="25.5537" r="15.6384"/> 
</g>
<g style="fill:#848484; fill-opacity:0.0;  stroke:#848484; stroke-width:0.7820; stroke-opacity:1;  stroke-linecap:round; stroke-linejoin:round;">
<path d="M139.2319 98.3828 L152.4736 98.3828 "/>
<path d="M152.4736 98.3828 L152.4736 71.8995 "/>
<path d="M139.2319 71.8995 L139.2319 98.3828 "/>
<path d="M152.4736 71.8995 L139.2319 71.8995 "/>
<path d="M178.9569 71.8995 L165.7152 71.8995 "/>
<path d="M165.7152 98.3828 L178.9569 98.3828 "/>
<path d="M165.7152 71.8995 L165.7152 98.3828 "/>
<path d="M178.9569 98.3828 L178.9569 71.8995 "/>
<path d="M165.7152 98.3828 L165.7152 71.8995 "/>
<path d="M152.4736 71.8995 L152.4736 98.3828 "/>
<path d="M165.7152 71.8995 L152.4736 71.8995 "/>
<path d="M152.4736 98.3828 L165.7152 98.3828 "/>
<g>
</g>
<g>
</g>
<g>
</g>
<g>
</g>
<g>
</g>
<g>
</g>
<g>
</g>
<g>
</g>
<g>
</g>
<g>
</g>
<g>
</g>
<g>
</g>
<g>
</g>
<g>
</g>
<g>
</g>
<g>
</g>
<g>
</g>
<g>
</g>
<g>
</g>
<g>
</g>
<g>
</g>
<g>
</g>
<g>
</g>
</g> 
<svg:g><svg:g><svg:title>SVG Image created as AMUX01-Edge_Cuts.svg date 2023/07/05 15:12:55 </svg:title>
  <svg:desc>Image generated by PCBNEW </svg:desc>
<svg:g style="fill:#C2C200; fill-opacity:1.0000;stroke:#C2C200; stroke-opacity:1.0000; stroke-linecap:round; stroke-linejoin:round;" transform="translate(0 0) scale(1 1)">
</svg:g>
<svg:g style="fill:#C2C200; fill-opacity:0.0;  stroke:#C2C200; stroke-width:0.0000; stroke-opacity:1;  stroke-linecap:round; stroke-linejoin:round;">
</svg:g>
<svg:g style="fill:#C2C200; fill-opacity:0.0;  stroke:#C2C200; stroke-width:0.7820; stroke-opacity:1;  stroke-linecap:round; stroke-linejoin:round;">
<svg:path style="fill:#C2C200; fill-opacity:0.0;  stroke:#C2C200; stroke-width:0.7820; stroke-opacity:1;  stroke-linecap:round; stroke-linejoin:round;fill:none" d="M 253.1101,0.3946 43.8921,0.3946 43.8921,209.6126 253.1101,209.6126 Z"/> 
<svg:g>
</svg:g>
<svg:g>
</svg:g>
<svg:g>
</svg:g>
<svg:g>
</svg:g>
<svg:g>
</svg:g>
<svg:g>
</svg:g>
<svg:g>
</svg:g>
<svg:g>
</svg:g>
<svg:g>
</svg:g>
<svg:g>
</svg:g>
<svg:g>
</svg:g>
<svg:g>
</svg:g>
<svg:g>
</svg:g>
<svg:g>
</svg:g>
<svg:g>
</svg:g>
<svg:g>
</svg:g>
<svg:g>
</svg:g>
<svg:g>
</svg:g>
<svg:g>
</svg:g>
<svg:g>
</svg:g>
<svg:g>
</svg:g>
<svg:g>
</svg:g>
<svg:g>
</svg:g>
</svg:g> 
</svg:g></svg:g></svg>
