<?xml version='1.0' encoding='ASCII' standalone='yes'?>
<svg xmlns:svg="http://www.w3.org/2000/svg" xmlns="http://www.w3.org/2000/svg" xmlns:xlink="http://www.w3.org/1999/xlink" version="1.1" width="297.0022mm" height="210.0072mm" viewBox="0.0000 0.0000 297.0022 210.0072">
<title>SVG Image created as AMUX01-B_Fab.svg date 2023/07/05 15:12:55 </title>
  <desc>Image generated by PCBNEW </desc>
<g style="fill:#000084; fill-opacity:1.0000;stroke:#000084; stroke-opacity:1.0000; stroke-linecap:round; stroke-linejoin:round;" transform="translate(0 0) scale(1 1)">
</g>
<g style="fill:#000084; fill-opacity:0.0;  stroke:#000084; stroke-width:0.0000; stroke-opacity:1;  stroke-linecap:round; stroke-linejoin:round;">
</g>
<g style="fill:#000084; fill-opacity:0.0;  stroke:#000084; stroke-width:0.7820; stroke-opacity:1;  stroke-linecap:round; stroke-linejoin:round;">
<g transform="rotate(-90.000000 190.3635 140.7560)">
<text x="190.3635" y="143.3627" transform="scale(-1 1) translate(-380.726945 0)" textLength="20.0276" font-size="6.9510" lengthAdjust="spacingAndGlyphs" text-anchor="middle" opacity="0.01" style="font-family:monospace">10uF</text>
</g>
<g class="stroked-text"><desc>10uF</desc>
<path d="M192.7346 135.1704 L192.7346 132.1914 "/>
<path d="M192.7346 133.6809 L187.5213 133.6809 "/>
<path d="M187.5213 133.6809 L188.2661 133.1844 "/>
<path d="M188.2661 133.1844 L188.7626 132.6879 "/>
<path d="M188.7626 132.6879 L189.0108 132.1914 "/>
<path d="M187.5213 138.3977 L187.5213 138.8942 "/>
<path d="M187.5213 138.8942 L187.7696 139.3907 "/>
<path d="M187.7696 139.3907 L188.0178 139.6389 "/>
<path d="M188.0178 139.6389 L188.5143 139.8872 "/>
<path d="M188.5143 139.8872 L189.5073 140.1354 "/>
<path d="M189.5073 140.1354 L190.7486 140.1354 "/>
<path d="M190.7486 140.1354 L191.7416 139.8872 "/>
<path d="M191.7416 139.8872 L192.2381 139.6389 "/>
<path d="M192.2381 139.6389 L192.4863 139.3907 "/>
<path d="M192.4863 139.3907 L192.7346 138.8942 "/>
<path d="M192.7346 138.8942 L192.7346 138.3977 "/>
<path d="M192.7346 138.3977 L192.4863 137.9012 "/>
<path d="M192.4863 137.9012 L192.2381 137.6529 "/>
<path d="M192.2381 137.6529 L191.7416 137.4047 "/>
<path d="M191.7416 137.4047 L190.7486 137.1564 "/>
<path d="M190.7486 137.1564 L189.5073 137.1564 "/>
<path d="M189.5073 137.1564 L188.5143 137.4047 "/>
<path d="M188.5143 137.4047 L188.0178 137.6529 "/>
<path d="M188.0178 137.6529 L187.7696 137.9012 "/>
<path d="M187.7696 137.9012 L187.5213 138.3977 "/>
<path d="M189.2591 144.6039 L192.7346 144.6039 "/>
<path d="M189.2591 142.3697 L191.9898 142.3697 "/>
<path d="M191.9898 142.3697 L192.4863 142.6179 "/>
<path d="M192.4863 142.6179 L192.7346 143.1144 "/>
<path d="M192.7346 143.1144 L192.7346 143.8592 "/>
<path d="M192.7346 143.8592 L192.4863 144.3557 "/>
<path d="M192.4863 144.3557 L192.2381 144.6039 "/>
<path d="M190.0038 148.8242 L190.0038 147.0864 "/>
<path d="M192.7346 147.0864 L187.5213 147.0864 "/>
<path d="M187.5213 147.0864 L187.5213 149.5689 "/>
</g></g>
<g style="fill:#000084; fill-opacity:0.0;  stroke:#000084; stroke-width:0.4171; stroke-opacity:1;  stroke-linecap:round; stroke-linejoin:round;">
<g transform="rotate(-90.000000 181.6052 140.7560)">
<text x="181.6052" y="142.0594" transform="scale(-1 1) translate(-363.210436 0)" textLength="5.6104" font-size="3.4755" lengthAdjust="spacingAndGlyphs" text-anchor="middle" opacity="0.01" style="font-family:monospace">C1</text>
</g>
<g class="stroked-text"><desc>C1</desc>
<path d="M182.5412 140.3216 L182.6653 140.1975 "/>
<path d="M182.6653 140.1975 L182.7894 139.8251 "/>
<path d="M182.7894 139.8251 L182.7894 139.5769 "/>
<path d="M182.7894 139.5769 L182.6653 139.2045 "/>
<path d="M182.6653 139.2045 L182.4170 138.9562 "/>
<path d="M182.4170 138.9562 L182.1688 138.8321 "/>
<path d="M182.1688 138.8321 L181.6723 138.7080 "/>
<path d="M181.6723 138.7080 L181.2999 138.7080 "/>
<path d="M181.2999 138.7080 L180.8034 138.8321 "/>
<path d="M180.8034 138.8321 L180.5552 138.9562 "/>
<path d="M180.5552 138.9562 L180.3069 139.2045 "/>
<path d="M180.3069 139.2045 L180.1828 139.5769 "/>
<path d="M180.1828 139.5769 L180.1828 139.8251 "/>
<path d="M180.1828 139.8251 L180.3069 140.1975 "/>
<path d="M180.3069 140.1975 L180.4310 140.3216 "/>
<path d="M182.7894 142.8041 L182.7894 141.3146 "/>
<path d="M182.7894 142.0594 L180.1828 142.0594 "/>
<path d="M180.1828 142.0594 L180.5552 141.8111 "/>
<path d="M180.5552 141.8111 L180.8034 141.5629 "/>
<path d="M180.8034 141.5629 L180.9275 141.3146 "/>
</g></g>
<g style="fill:#000084; fill-opacity:0.01;  stroke:#000084; stroke-width:0.7820; stroke-opacity:1;  stroke-linecap:round; stroke-linejoin:round;">
<g transform="rotate(-90.000000 226.9396 126.1902)">
<text x="226.9396" y="128.7969" transform="scale(-1 1) translate(-453.879221 0)" textLength="54.0378" font-size="6.9510" lengthAdjust="spacingAndGlyphs" text-anchor="middle" opacity="0.01" style="font-family:monospace">BZV55C-5,6V</text>
</g>
<g class="stroked-text"><desc>BZV55C-5,6V</desc>
<path d="M226.5799 102.6065 L226.8282 103.3512 "/>
<path d="M226.8282 103.3512 L227.0764 103.5995 "/>
<path d="M227.0764 103.5995 L227.5729 103.8477 "/>
<path d="M227.5729 103.8477 L228.3177 103.8477 "/>
<path d="M228.3177 103.8477 L228.8142 103.5995 "/>
<path d="M228.8142 103.5995 L229.0624 103.3512 "/>
<path d="M229.0624 103.3512 L229.3107 102.8547 "/>
<path d="M229.3107 102.8547 L229.3107 100.8688 "/>
<path d="M229.3107 100.8688 L224.0974 100.8688 "/>
<path d="M224.0974 100.8688 L224.0974 102.6065 "/>
<path d="M224.0974 102.6065 L224.3457 103.1030 "/>
<path d="M224.3457 103.1030 L224.5939 103.3512 "/>
<path d="M224.5939 103.3512 L225.0904 103.5995 "/>
<path d="M225.0904 103.5995 L225.5869 103.5995 "/>
<path d="M225.5869 103.5995 L226.0834 103.3512 "/>
<path d="M226.0834 103.3512 L226.3317 103.1030 "/>
<path d="M226.3317 103.1030 L226.5799 102.6065 "/>
<path d="M226.5799 102.6065 L226.5799 100.8688 "/>
<path d="M224.0974 105.5855 L224.0974 109.0610 "/>
<path d="M224.0974 109.0610 L229.3107 105.5855 "/>
<path d="M229.3107 105.5855 L229.3107 109.0610 "/>
<path d="M224.0974 110.3022 L229.3107 112.0400 "/>
<path d="M229.3107 112.0400 L224.0974 113.7777 "/>
<path d="M224.0974 117.9980 L224.0974 115.5155 "/>
<path d="M224.0974 115.5155 L226.5799 115.2672 "/>
<path d="M226.5799 115.2672 L226.3317 115.5155 "/>
<path d="M226.3317 115.5155 L226.0834 116.0120 "/>
<path d="M226.0834 116.0120 L226.0834 117.2532 "/>
<path d="M226.0834 117.2532 L226.3317 117.7497 "/>
<path d="M226.3317 117.7497 L226.5799 117.9980 "/>
<path d="M226.5799 117.9980 L227.0764 118.2462 "/>
<path d="M227.0764 118.2462 L228.3177 118.2462 "/>
<path d="M228.3177 118.2462 L228.8142 117.9980 "/>
<path d="M228.8142 117.9980 L229.0624 117.7497 "/>
<path d="M229.0624 117.7497 L229.3107 117.2532 "/>
<path d="M229.3107 117.2532 L229.3107 116.0120 "/>
<path d="M229.3107 116.0120 L229.0624 115.5155 "/>
<path d="M229.0624 115.5155 L228.8142 115.2672 "/>
<path d="M224.0974 122.9630 L224.0974 120.4805 "/>
<path d="M224.0974 120.4805 L226.5799 120.2322 "/>
<path d="M226.5799 120.2322 L226.3317 120.4805 "/>
<path d="M226.3317 120.4805 L226.0834 120.9770 "/>
<path d="M226.0834 120.9770 L226.0834 122.2182 "/>
<path d="M226.0834 122.2182 L226.3317 122.7147 "/>
<path d="M226.3317 122.7147 L226.5799 122.9630 "/>
<path d="M226.5799 122.9630 L227.0764 123.2112 "/>
<path d="M227.0764 123.2112 L228.3177 123.2112 "/>
<path d="M228.3177 123.2112 L228.8142 122.9630 "/>
<path d="M228.8142 122.9630 L229.0624 122.7147 "/>
<path d="M229.0624 122.7147 L229.3107 122.2182 "/>
<path d="M229.3107 122.2182 L229.3107 120.9770 "/>
<path d="M229.3107 120.9770 L229.0624 120.4805 "/>
<path d="M229.0624 120.4805 L228.8142 120.2322 "/>
<path d="M228.8142 128.4245 L229.0624 128.1762 "/>
<path d="M229.0624 128.1762 L229.3107 127.4315 "/>
<path d="M229.3107 127.4315 L229.3107 126.9350 "/>
<path d="M229.3107 126.9350 L229.0624 126.1902 "/>
<path d="M229.0624 126.1902 L228.5659 125.6937 "/>
<path d="M228.5659 125.6937 L228.0694 125.4455 "/>
<path d="M228.0694 125.4455 L227.0764 125.1972 "/>
<path d="M227.0764 125.1972 L226.3317 125.1972 "/>
<path d="M226.3317 125.1972 L225.3387 125.4455 "/>
<path d="M225.3387 125.4455 L224.8422 125.6937 "/>
<path d="M224.8422 125.6937 L224.3457 126.1902 "/>
<path d="M224.3457 126.1902 L224.0974 126.9350 "/>
<path d="M224.0974 126.9350 L224.0974 127.4315 "/>
<path d="M224.0974 127.4315 L224.3457 128.1762 "/>
<path d="M224.3457 128.1762 L224.5939 128.4245 "/>
<path d="M227.3247 130.6587 L227.3247 134.6307 "/>
<path d="M224.0974 139.5957 L224.0974 137.1132 "/>
<path d="M224.0974 137.1132 L226.5799 136.8650 "/>
<path d="M226.5799 136.8650 L226.3317 137.1132 "/>
<path d="M226.3317 137.1132 L226.0834 137.6097 "/>
<path d="M226.0834 137.6097 L226.0834 138.8510 "/>
<path d="M226.0834 138.8510 L226.3317 139.3475 "/>
<path d="M226.3317 139.3475 L226.5799 139.5957 "/>
<path d="M226.5799 139.5957 L227.0764 139.8440 "/>
<path d="M227.0764 139.8440 L228.3177 139.8440 "/>
<path d="M228.3177 139.8440 L228.8142 139.5957 "/>
<path d="M228.8142 139.5957 L229.0624 139.3475 "/>
<path d="M229.0624 139.3475 L229.3107 138.8510 "/>
<path d="M229.3107 138.8510 L229.3107 137.6097 "/>
<path d="M229.3107 137.6097 L229.0624 137.1132 "/>
<path d="M229.0624 137.1132 L228.8142 136.8650 "/>
<path d="M229.0624 142.3265 L229.3107 142.3265 "/>
<path d="M229.3107 142.3265 L229.8072 142.0782 "/>
<path d="M229.8072 142.0782 L230.0554 141.8300 "/>
<path d="M224.0974 146.7950 L224.0974 145.8020 "/>
<path d="M224.0974 145.8020 L224.3457 145.3055 "/>
<path d="M224.3457 145.3055 L224.5939 145.0572 "/>
<path d="M224.5939 145.0572 L225.3387 144.5607 "/>
<path d="M225.3387 144.5607 L226.3317 144.3125 "/>
<path d="M226.3317 144.3125 L228.3177 144.3125 "/>
<path d="M228.3177 144.3125 L228.8142 144.5607 "/>
<path d="M228.8142 144.5607 L229.0624 144.8090 "/>
<path d="M229.0624 144.8090 L229.3107 145.3055 "/>
<path d="M229.3107 145.3055 L229.3107 146.2985 "/>
<path d="M229.3107 146.2985 L229.0624 146.7950 "/>
<path d="M229.0624 146.7950 L228.8142 147.0432 "/>
<path d="M228.8142 147.0432 L228.3177 147.2915 "/>
<path d="M228.3177 147.2915 L227.0764 147.2915 "/>
<path d="M227.0764 147.2915 L226.5799 147.0432 "/>
<path d="M226.5799 147.0432 L226.3317 146.7950 "/>
<path d="M226.3317 146.7950 L226.0834 146.2985 "/>
<path d="M226.0834 146.2985 L226.0834 145.3055 "/>
<path d="M226.0834 145.3055 L226.3317 144.8090 "/>
<path d="M226.3317 144.8090 L226.5799 144.5607 "/>
<path d="M226.5799 144.5607 L227.0764 144.3125 "/>
<path d="M224.0974 148.7810 L229.3107 150.5187 "/>
<path d="M229.3107 150.5187 L224.0974 152.2565 "/>
</g><g transform="rotate(-90.000000 200.3521 126.1902)">
<text x="200.3521" y="128.7969" transform="scale(-1 1) translate(-400.704106 0)" textLength="11.0906" font-size="6.9510" lengthAdjust="spacingAndGlyphs" text-anchor="middle" opacity="0.01" style="font-family:monospace">D1</text>
</g>
<g class="stroked-text"><desc>D1</desc>
<path d="M202.7231 122.3424 L197.5099 122.3424 "/>
<path d="M197.5099 122.3424 L197.5099 123.5836 "/>
<path d="M197.5099 123.5836 L197.7581 124.3284 "/>
<path d="M197.7581 124.3284 L198.2546 124.8249 "/>
<path d="M198.2546 124.8249 L198.7511 125.0731 "/>
<path d="M198.7511 125.0731 L199.7441 125.3214 "/>
<path d="M199.7441 125.3214 L200.4889 125.3214 "/>
<path d="M200.4889 125.3214 L201.4819 125.0731 "/>
<path d="M201.4819 125.0731 L201.9784 124.8249 "/>
<path d="M201.9784 124.8249 L202.4749 124.3284 "/>
<path d="M202.4749 124.3284 L202.7231 123.5836 "/>
<path d="M202.7231 123.5836 L202.7231 122.3424 "/>
<path d="M202.7231 130.2864 L202.7231 127.3074 "/>
<path d="M202.7231 128.7969 L197.5099 128.7969 "/>
<path d="M197.5099 128.7969 L198.2546 128.3004 "/>
<path d="M198.2546 128.3004 L198.7511 127.8039 "/>
<path d="M198.7511 127.8039 L198.9994 127.3074 "/>
</g><text x="135.2595" y="147.6480" transform="scale(-1 1) translate(-270.518912 0)" textLength="58.0098" font-size="6.9510" lengthAdjust="spacingAndGlyphs" text-anchor="middle" opacity="0.01" style="font-family:monospace">MAX4734EUB+</text>
<g class="stroked-text"><desc>MAX4734EUB+</desc>
<path d="M162.5669 147.4124 L162.5669 142.1992 "/>
<path d="M162.5669 142.1992 L160.8292 145.9229 "/>
<path d="M160.8292 145.9229 L159.0914 142.1992 "/>
<path d="M159.0914 142.1992 L159.0914 147.4124 "/>
<path d="M156.8572 145.9229 L154.3747 145.9229 "/>
<path d="M157.3537 147.4124 L155.6159 142.1992 "/>
<path d="M155.6159 142.1992 L153.8782 147.4124 "/>
<path d="M152.6369 142.1992 L149.1614 147.4124 "/>
<path d="M149.1614 142.1992 L152.6369 147.4124 "/>
<path d="M144.9412 143.9369 L144.9412 147.4124 "/>
<path d="M146.1824 141.9509 L147.4237 145.6747 "/>
<path d="M147.4237 145.6747 L144.1964 145.6747 "/>
<path d="M142.7069 142.1992 L139.2314 142.1992 "/>
<path d="M139.2314 142.1992 L141.4657 147.4124 "/>
<path d="M137.7419 142.1992 L134.5147 142.1992 "/>
<path d="M134.5147 142.1992 L136.2524 144.1852 "/>
<path d="M136.2524 144.1852 L135.5077 144.1852 "/>
<path d="M135.5077 144.1852 L135.0112 144.4334 "/>
<path d="M135.0112 144.4334 L134.7630 144.6817 "/>
<path d="M134.7630 144.6817 L134.5147 145.1782 "/>
<path d="M134.5147 145.1782 L134.5147 146.4194 "/>
<path d="M134.5147 146.4194 L134.7630 146.9159 "/>
<path d="M134.7630 146.9159 L135.0112 147.1642 "/>
<path d="M135.0112 147.1642 L135.5077 147.4124 "/>
<path d="M135.5077 147.4124 L136.9972 147.4124 "/>
<path d="M136.9972 147.4124 L137.4937 147.1642 "/>
<path d="M137.4937 147.1642 L137.7419 146.9159 "/>
<path d="M130.0462 143.9369 L130.0462 147.4124 "/>
<path d="M131.2875 141.9509 L132.5287 145.6747 "/>
<path d="M132.5287 145.6747 L129.3015 145.6747 "/>
<path d="M127.3155 144.6817 L125.5777 144.6817 "/>
<path d="M124.8330 147.4124 L127.3155 147.4124 "/>
<path d="M127.3155 147.4124 L127.3155 142.1992 "/>
<path d="M127.3155 142.1992 L124.8330 142.1992 "/>
<path d="M122.5987 142.1992 L122.5987 146.4194 "/>
<path d="M122.5987 146.4194 L122.3505 146.9159 "/>
<path d="M122.3505 146.9159 L122.1022 147.1642 "/>
<path d="M122.1022 147.1642 L121.6057 147.4124 "/>
<path d="M121.6057 147.4124 L120.6127 147.4124 "/>
<path d="M120.6127 147.4124 L120.1162 147.1642 "/>
<path d="M120.1162 147.1642 L119.8680 146.9159 "/>
<path d="M119.8680 146.9159 L119.6197 146.4194 "/>
<path d="M119.6197 146.4194 L119.6197 142.1992 "/>
<path d="M115.3995 144.6817 L114.6547 144.9299 "/>
<path d="M114.6547 144.9299 L114.4065 145.1782 "/>
<path d="M114.4065 145.1782 L114.1582 145.6747 "/>
<path d="M114.1582 145.6747 L114.1582 146.4194 "/>
<path d="M114.1582 146.4194 L114.4065 146.9159 "/>
<path d="M114.4065 146.9159 L114.6547 147.1642 "/>
<path d="M114.6547 147.1642 L115.1512 147.4124 "/>
<path d="M115.1512 147.4124 L117.1372 147.4124 "/>
<path d="M117.1372 147.4124 L117.1372 142.1992 "/>
<path d="M117.1372 142.1992 L115.3995 142.1992 "/>
<path d="M115.3995 142.1992 L114.9030 142.4474 "/>
<path d="M114.9030 142.4474 L114.6547 142.6957 "/>
<path d="M114.6547 142.6957 L114.4065 143.1922 "/>
<path d="M114.4065 143.1922 L114.4065 143.6887 "/>
<path d="M114.4065 143.6887 L114.6547 144.1852 "/>
<path d="M114.6547 144.1852 L114.9030 144.4334 "/>
<path d="M114.9030 144.4334 L115.3995 144.6817 "/>
<path d="M115.3995 144.6817 L117.1372 144.6817 "/>
<path d="M111.9240 145.4264 L107.9520 145.4264 "/>
<path d="M109.9380 147.4124 L109.9380 143.4404 "/>
</g><text x="135.2595" y="133.0509" transform="scale(-1 1) translate(-270.518912 0)" textLength="7.5853" font-size="4.1706" lengthAdjust="spacingAndGlyphs" text-anchor="middle" opacity="0.01" style="font-family:monospace">U1</text>
<g class="stroked-text"><desc>U1</desc>
<path d="M137.6426 129.7653 L137.6426 132.2975 "/>
<path d="M137.6426 132.2975 L137.4937 132.5954 "/>
<path d="M137.4937 132.5954 L137.3448 132.7443 "/>
<path d="M137.3448 132.7443 L137.0469 132.8933 "/>
<path d="M137.0469 132.8933 L136.4511 132.8933 "/>
<path d="M136.4511 132.8933 L136.1532 132.7443 "/>
<path d="M136.1532 132.7443 L136.0042 132.5954 "/>
<path d="M136.0042 132.5954 L135.8553 132.2975 "/>
<path d="M135.8553 132.2975 L135.8553 129.7653 "/>
<path d="M132.7273 132.8933 L134.5147 132.8933 "/>
<path d="M133.6210 132.8933 L133.6210 129.7653 "/>
<path d="M133.6210 129.7653 L133.9189 130.2122 "/>
<path d="M133.9189 130.2122 L134.2168 130.5101 "/>
<path d="M134.2168 130.5101 L134.5147 130.6590 "/>
</g><g transform="rotate(-90.000000 187.7151 89.1136)">
<text x="187.7151" y="91.7202" transform="scale(-1 1) translate(-375.430286 0)" textLength="24.9926" font-size="6.9510" lengthAdjust="spacingAndGlyphs" text-anchor="middle" opacity="0.01" style="font-family:monospace">100nF</text>
</g>
<g class="stroked-text"><desc>100nF</desc>
<path d="M190.0862 81.0455 L190.0862 78.0665 "/>
<path d="M190.0862 79.5560 L184.8730 79.5560 "/>
<path d="M184.8730 79.5560 L185.6177 79.0595 "/>
<path d="M185.6177 79.0595 L186.1142 78.5630 "/>
<path d="M186.1142 78.5630 L186.3625 78.0665 "/>
<path d="M184.8730 84.2728 L184.8730 84.7693 "/>
<path d="M184.8730 84.7693 L185.1212 85.2658 "/>
<path d="M185.1212 85.2658 L185.3695 85.5140 "/>
<path d="M185.3695 85.5140 L185.8660 85.7622 "/>
<path d="M185.8660 85.7622 L186.8590 86.0105 "/>
<path d="M186.8590 86.0105 L188.1002 86.0105 "/>
<path d="M188.1002 86.0105 L189.0932 85.7622 "/>
<path d="M189.0932 85.7622 L189.5897 85.5140 "/>
<path d="M189.5897 85.5140 L189.8380 85.2658 "/>
<path d="M189.8380 85.2658 L190.0862 84.7693 "/>
<path d="M190.0862 84.7693 L190.0862 84.2728 "/>
<path d="M190.0862 84.2728 L189.8380 83.7763 "/>
<path d="M189.8380 83.7763 L189.5897 83.5280 "/>
<path d="M189.5897 83.5280 L189.0932 83.2798 "/>
<path d="M189.0932 83.2798 L188.1002 83.0315 "/>
<path d="M188.1002 83.0315 L186.8590 83.0315 "/>
<path d="M186.8590 83.0315 L185.8660 83.2798 "/>
<path d="M185.8660 83.2798 L185.3695 83.5280 "/>
<path d="M185.3695 83.5280 L185.1212 83.7763 "/>
<path d="M185.1212 83.7763 L184.8730 84.2728 "/>
<path d="M184.8730 89.2377 L184.8730 89.7342 "/>
<path d="M184.8730 89.7342 L185.1212 90.2307 "/>
<path d="M185.1212 90.2307 L185.3695 90.4790 "/>
<path d="M185.3695 90.4790 L185.8660 90.7272 "/>
<path d="M185.8660 90.7272 L186.8590 90.9755 "/>
<path d="M186.8590 90.9755 L188.1002 90.9755 "/>
<path d="M188.1002 90.9755 L189.0932 90.7272 "/>
<path d="M189.0932 90.7272 L189.5897 90.4790 "/>
<path d="M189.5897 90.4790 L189.8380 90.2307 "/>
<path d="M189.8380 90.2307 L190.0862 89.7342 "/>
<path d="M190.0862 89.7342 L190.0862 89.2377 "/>
<path d="M190.0862 89.2377 L189.8380 88.7412 "/>
<path d="M189.8380 88.7412 L189.5897 88.4930 "/>
<path d="M189.5897 88.4930 L189.0932 88.2448 "/>
<path d="M189.0932 88.2448 L188.1002 87.9965 "/>
<path d="M188.1002 87.9965 L186.8590 87.9965 "/>
<path d="M186.8590 87.9965 L185.8660 88.2448 "/>
<path d="M185.8660 88.2448 L185.3695 88.4930 "/>
<path d="M185.3695 88.4930 L185.1212 88.7412 "/>
<path d="M185.1212 88.7412 L184.8730 89.2377 "/>
<path d="M186.6107 93.2097 L190.0862 93.2097 "/>
<path d="M187.1072 93.2097 L186.8590 93.4580 "/>
<path d="M186.8590 93.4580 L186.6107 93.9545 "/>
<path d="M186.6107 93.9545 L186.6107 94.6992 "/>
<path d="M186.6107 94.6992 L186.8590 95.1957 "/>
<path d="M186.8590 95.1957 L187.3555 95.4440 "/>
<path d="M187.3555 95.4440 L190.0862 95.4440 "/>
<path d="M187.3555 99.6642 L187.3555 97.9265 "/>
<path d="M190.0862 97.9265 L184.8730 97.9265 "/>
<path d="M184.8730 97.9265 L184.8730 100.4090 "/>
</g></g>
<g style="fill:#000084; fill-opacity:0.0;  stroke:#000084; stroke-width:0.4171; stroke-opacity:1;  stroke-linecap:round; stroke-linejoin:round;">
<g transform="rotate(-90.000000 178.9569 89.1136)">
<text x="178.9569" y="90.4169" transform="scale(-1 1) translate(-357.913778 0)" textLength="5.6104" font-size="3.4755" lengthAdjust="spacingAndGlyphs" text-anchor="middle" opacity="0.01" style="font-family:monospace">C2</text>
</g>
<g class="stroked-text"><desc>C2</desc>
<path d="M179.8928 88.6792 L180.0170 88.5551 "/>
<path d="M180.0170 88.5551 L180.1411 88.1827 "/>
<path d="M180.1411 88.1827 L180.1411 87.9344 "/>
<path d="M180.1411 87.9344 L180.0170 87.5621 "/>
<path d="M180.0170 87.5621 L179.7687 87.3138 "/>
<path d="M179.7687 87.3138 L179.5204 87.1897 "/>
<path d="M179.5204 87.1897 L179.0239 87.0656 "/>
<path d="M179.0239 87.0656 L178.6516 87.0656 "/>
<path d="M178.6516 87.0656 L178.1551 87.1897 "/>
<path d="M178.1551 87.1897 L177.9068 87.3138 "/>
<path d="M177.9068 87.3138 L177.6586 87.5621 "/>
<path d="M177.6586 87.5621 L177.5344 87.9344 "/>
<path d="M177.5344 87.9344 L177.5344 88.1827 "/>
<path d="M177.5344 88.1827 L177.6586 88.5551 "/>
<path d="M177.6586 88.5551 L177.7827 88.6792 "/>
<path d="M177.7827 89.6722 L177.6586 89.7963 "/>
<path d="M177.6586 89.7963 L177.5344 90.0446 "/>
<path d="M177.5344 90.0446 L177.5344 90.6652 "/>
<path d="M177.5344 90.6652 L177.6586 90.9134 "/>
<path d="M177.6586 90.9134 L177.7827 91.0376 "/>
<path d="M177.7827 91.0376 L178.0309 91.1617 "/>
<path d="M178.0309 91.1617 L178.2792 91.1617 "/>
<path d="M178.2792 91.1617 L178.6516 91.0376 "/>
<path d="M178.6516 91.0376 L180.1411 89.5481 "/>
<path d="M180.1411 89.5481 L180.1411 91.1617 "/>
</g></g>
<g style="fill:#000084; fill-opacity:0.01;  stroke:#000084; stroke-width:0.7820; stroke-opacity:1;  stroke-linecap:round; stroke-linejoin:round;">
<text x="121.2332" y="178.4478" transform="scale(-1 1) translate(-242.466432 0)" textLength="15.0626" font-size="6.9510" lengthAdjust="spacingAndGlyphs" text-anchor="middle" opacity="0.01" style="font-family:monospace">10k</text>
<g class="stroked-text"><desc>10k</desc>
<path d="M124.3363 178.2123 L127.3153 178.2123 "/>
<path d="M125.8258 178.2123 L125.8258 172.9990 "/>
<path d="M125.8258 172.9990 L126.3223 173.7438 "/>
<path d="M126.3223 173.7438 L126.8188 174.2403 "/>
<path d="M126.8188 174.2403 L127.3153 174.4885 "/>
<path d="M121.1091 172.9990 L120.6126 172.9990 "/>
<path d="M120.6126 172.9990 L120.1161 173.2473 "/>
<path d="M120.1161 173.2473 L119.8678 173.4955 "/>
<path d="M119.8678 173.4955 L119.6196 173.9920 "/>
<path d="M119.6196 173.9920 L119.3713 174.9850 "/>
<path d="M119.3713 174.9850 L119.3713 176.2263 "/>
<path d="M119.3713 176.2263 L119.6196 177.2193 "/>
<path d="M119.6196 177.2193 L119.8678 177.7158 "/>
<path d="M119.8678 177.7158 L120.1161 177.9640 "/>
<path d="M120.1161 177.9640 L120.6126 178.2123 "/>
<path d="M120.6126 178.2123 L121.1091 178.2123 "/>
<path d="M121.1091 178.2123 L121.6056 177.9640 "/>
<path d="M121.6056 177.9640 L121.8538 177.7158 "/>
<path d="M121.8538 177.7158 L122.1021 177.2193 "/>
<path d="M122.1021 177.2193 L122.3503 176.2263 "/>
<path d="M122.3503 176.2263 L122.3503 174.9850 "/>
<path d="M122.3503 174.9850 L122.1021 173.9920 "/>
<path d="M122.1021 173.9920 L121.8538 173.4955 "/>
<path d="M121.8538 173.4955 L121.6056 173.2473 "/>
<path d="M121.6056 173.2473 L121.1091 172.9990 "/>
<path d="M117.1371 178.2123 L117.1371 172.9990 "/>
<path d="M116.6406 176.2263 L115.1511 178.2123 "/>
<path d="M115.1511 174.7368 L117.1371 176.7228 "/>
</g></g>
<g style="fill:#000084; fill-opacity:0.01;  stroke:#000084; stroke-width:0.4171; stroke-opacity:1;  stroke-linecap:round; stroke-linejoin:round;">
<text x="121.2332" y="168.5427" transform="scale(-1 1) translate(-242.466432 0)" textLength="5.6104" font-size="3.4755" lengthAdjust="spacingAndGlyphs" text-anchor="middle" opacity="0.01" style="font-family:monospace">R3</text>
<g class="stroked-text"><desc>R3</desc>
<path d="M121.6677 168.4235 L122.5365 167.1823 "/>
<path d="M123.1571 168.4235 L123.1571 165.8169 "/>
<path d="M123.1571 165.8169 L122.1642 165.8169 "/>
<path d="M122.1642 165.8169 L121.9159 165.9410 "/>
<path d="M121.9159 165.9410 L121.7918 166.0652 "/>
<path d="M121.7918 166.0652 L121.6677 166.3134 "/>
<path d="M121.6677 166.3134 L121.6677 166.6858 "/>
<path d="M121.6677 166.6858 L121.7918 166.9340 "/>
<path d="M121.7918 166.9340 L121.9159 167.0581 "/>
<path d="M121.9159 167.0581 L122.1642 167.1823 "/>
<path d="M122.1642 167.1823 L123.1571 167.1823 "/>
<path d="M120.7988 165.8169 L119.1852 165.8169 "/>
<path d="M119.1852 165.8169 L120.0540 166.8099 "/>
<path d="M120.0540 166.8099 L119.6816 166.8099 "/>
<path d="M119.6816 166.8099 L119.4334 166.9340 "/>
<path d="M119.4334 166.9340 L119.3093 167.0581 "/>
<path d="M119.3093 167.0581 L119.1852 167.3064 "/>
<path d="M119.1852 167.3064 L119.1852 167.9270 "/>
<path d="M119.1852 167.9270 L119.3093 168.1753 "/>
<path d="M119.3093 168.1753 L119.4334 168.2994 "/>
<path d="M119.4334 168.2994 L119.6816 168.4235 "/>
<path d="M119.6816 168.4235 L120.4264 168.4235 "/>
<path d="M120.4264 168.4235 L120.6746 168.2994 "/>
<path d="M120.6746 168.2994 L120.7988 168.1753 "/>
</g></g>
<g style="fill:#000084; fill-opacity:0.0;  stroke:#000084; stroke-width:0.7820; stroke-opacity:1;  stroke-linecap:round; stroke-linejoin:round;">
<g transform="rotate(-90.000000 177.4763 59.9820)">
<text x="177.4763" y="62.5886" transform="scale(-1 1) translate(-354.952654 0)" textLength="15.0626" font-size="6.9510" lengthAdjust="spacingAndGlyphs" text-anchor="middle" opacity="0.01" style="font-family:monospace">10k</text>
</g>
<g class="stroked-text"><desc>10k</desc>
<path d="M179.8474 56.8789 L179.8474 53.8999 "/>
<path d="M179.8474 55.3894 L174.6342 55.3894 "/>
<path d="M174.6342 55.3894 L175.3789 54.8929 "/>
<path d="M175.3789 54.8929 L175.8754 54.3964 "/>
<path d="M175.8754 54.3964 L176.1237 53.8999 "/>
<path d="M174.6342 60.1061 L174.6342 60.6026 "/>
<path d="M174.6342 60.6026 L174.8824 61.0991 "/>
<path d="M174.8824 61.0991 L175.1307 61.3474 "/>
<path d="M175.1307 61.3474 L175.6272 61.5956 "/>
<path d="M175.6272 61.5956 L176.6202 61.8439 "/>
<path d="M176.6202 61.8439 L177.8614 61.8439 "/>
<path d="M177.8614 61.8439 L178.8544 61.5956 "/>
<path d="M178.8544 61.5956 L179.3509 61.3474 "/>
<path d="M179.3509 61.3474 L179.5992 61.0991 "/>
<path d="M179.5992 61.0991 L179.8474 60.6026 "/>
<path d="M179.8474 60.6026 L179.8474 60.1061 "/>
<path d="M179.8474 60.1061 L179.5992 59.6096 "/>
<path d="M179.5992 59.6096 L179.3509 59.3614 "/>
<path d="M179.3509 59.3614 L178.8544 59.1131 "/>
<path d="M178.8544 59.1131 L177.8614 58.8649 "/>
<path d="M177.8614 58.8649 L176.6202 58.8649 "/>
<path d="M176.6202 58.8649 L175.6272 59.1131 "/>
<path d="M175.6272 59.1131 L175.1307 59.3614 "/>
<path d="M175.1307 59.3614 L174.8824 59.6096 "/>
<path d="M174.8824 59.6096 L174.6342 60.1061 "/>
<path d="M179.8474 64.0781 L174.6342 64.0781 "/>
<path d="M177.8614 64.5746 L179.8474 66.0641 "/>
<path d="M176.3719 66.0641 L178.3579 64.0781 "/>
</g></g>
<g style="fill:#000084; fill-opacity:0.0;  stroke:#000084; stroke-width:0.4171; stroke-opacity:1;  stroke-linecap:round; stroke-linejoin:round;">
<g transform="rotate(-90.000000 168.8745 59.9820)">
<text x="168.8745" y="61.2853" transform="scale(-1 1) translate(-337.748940 0)" textLength="5.6104" font-size="3.4755" lengthAdjust="spacingAndGlyphs" text-anchor="middle" opacity="0.01" style="font-family:monospace">R1</text>
</g>
<g class="stroked-text"><desc>R1</desc>
<path d="M170.0587 59.5476 L168.8174 58.6787 "/>
<path d="M170.0587 58.0581 L167.4520 58.0581 "/>
<path d="M167.4520 58.0581 L167.4520 59.0511 "/>
<path d="M167.4520 59.0511 L167.5762 59.2993 "/>
<path d="M167.5762 59.2993 L167.7003 59.4234 "/>
<path d="M167.7003 59.4234 L167.9485 59.5476 "/>
<path d="M167.9485 59.5476 L168.3209 59.5476 "/>
<path d="M168.3209 59.5476 L168.5692 59.4234 "/>
<path d="M168.5692 59.4234 L168.6933 59.2993 "/>
<path d="M168.6933 59.2993 L168.8174 59.0511 "/>
<path d="M168.8174 59.0511 L168.8174 58.0581 "/>
<path d="M170.0587 62.0301 L170.0587 60.5406 "/>
<path d="M170.0587 61.2853 L167.4520 61.2853 "/>
<path d="M167.4520 61.2853 L167.8244 61.0371 "/>
<path d="M167.8244 61.0371 L168.0727 60.7888 "/>
<path d="M168.0727 60.7888 L168.1968 60.5406 "/>
</g></g>
<g style="fill:#000084; fill-opacity:0.0;  stroke:#000084; stroke-width:0.7820; stroke-opacity:1;  stroke-linecap:round; stroke-linejoin:round;">
<g transform="rotate(-90.000000 192.8554 59.9820)">
<text x="192.8554" y="62.5886" transform="scale(-1 1) translate(-385.710809 0)" textLength="15.0626" font-size="6.9510" lengthAdjust="spacingAndGlyphs" text-anchor="middle" opacity="0.01" style="font-family:monospace">10k</text>
</g>
<g class="stroked-text"><desc>10k</desc>
<path d="M195.2265 56.8789 L195.2265 53.8999 "/>
<path d="M195.2265 55.3894 L190.0132 55.3894 "/>
<path d="M190.0132 55.3894 L190.7580 54.8929 "/>
<path d="M190.7580 54.8929 L191.2545 54.3964 "/>
<path d="M191.2545 54.3964 L191.5027 53.8999 "/>
<path d="M190.0132 60.1061 L190.0132 60.6026 "/>
<path d="M190.0132 60.6026 L190.2615 61.0991 "/>
<path d="M190.2615 61.0991 L190.5097 61.3474 "/>
<path d="M190.5097 61.3474 L191.0062 61.5956 "/>
<path d="M191.0062 61.5956 L191.9992 61.8439 "/>
<path d="M191.9992 61.8439 L193.2405 61.8439 "/>
<path d="M193.2405 61.8439 L194.2335 61.5956 "/>
<path d="M194.2335 61.5956 L194.7300 61.3474 "/>
<path d="M194.7300 61.3474 L194.9782 61.0991 "/>
<path d="M194.9782 61.0991 L195.2265 60.6026 "/>
<path d="M195.2265 60.6026 L195.2265 60.1061 "/>
<path d="M195.2265 60.1061 L194.9782 59.6096 "/>
<path d="M194.9782 59.6096 L194.7300 59.3614 "/>
<path d="M194.7300 59.3614 L194.2335 59.1131 "/>
<path d="M194.2335 59.1131 L193.2405 58.8649 "/>
<path d="M193.2405 58.8649 L191.9992 58.8649 "/>
<path d="M191.9992 58.8649 L191.0062 59.1131 "/>
<path d="M191.0062 59.1131 L190.5097 59.3614 "/>
<path d="M190.5097 59.3614 L190.2615 59.6096 "/>
<path d="M190.2615 59.6096 L190.0132 60.1061 "/>
<path d="M195.2265 64.0781 L190.0132 64.0781 "/>
<path d="M193.2405 64.5746 L195.2265 66.0641 "/>
<path d="M191.7510 66.0641 L193.7370 64.0781 "/>
</g></g>
<g style="fill:#000084; fill-opacity:0.0;  stroke:#000084; stroke-width:0.4171; stroke-opacity:1;  stroke-linecap:round; stroke-linejoin:round;">
<g transform="rotate(-90.000000 184.2535 59.9820)">
<text x="184.2535" y="61.2853" transform="scale(-1 1) translate(-368.507095 0)" textLength="5.6104" font-size="3.4755" lengthAdjust="spacingAndGlyphs" text-anchor="middle" opacity="0.01" style="font-family:monospace">R2</text>
</g>
<g class="stroked-text"><desc>R2</desc>
<path d="M185.4377 59.5476 L184.1965 58.6787 "/>
<path d="M185.4377 58.0581 L182.8311 58.0581 "/>
<path d="M182.8311 58.0581 L182.8311 59.0511 "/>
<path d="M182.8311 59.0511 L182.9552 59.2993 "/>
<path d="M182.9552 59.2993 L183.0794 59.4234 "/>
<path d="M183.0794 59.4234 L183.3276 59.5476 "/>
<path d="M183.3276 59.5476 L183.7000 59.5476 "/>
<path d="M183.7000 59.5476 L183.9482 59.4234 "/>
<path d="M183.9482 59.4234 L184.0724 59.2993 "/>
<path d="M184.0724 59.2993 L184.1965 59.0511 "/>
<path d="M184.1965 59.0511 L184.1965 58.0581 "/>
<path d="M183.0794 60.5406 L182.9552 60.6647 "/>
<path d="M182.9552 60.6647 L182.8311 60.9129 "/>
<path d="M182.8311 60.9129 L182.8311 61.5336 "/>
<path d="M182.8311 61.5336 L182.9552 61.7818 "/>
<path d="M182.9552 61.7818 L183.0794 61.9059 "/>
<path d="M183.0794 61.9059 L183.3276 62.0301 "/>
<path d="M183.3276 62.0301 L183.5759 62.0301 "/>
<path d="M183.5759 62.0301 L183.9482 61.9059 "/>
<path d="M183.9482 61.9059 L185.4377 60.4164 "/>
<path d="M185.4377 60.4164 L185.4377 62.0301 "/>
</g></g>
<g style="fill:#000084; fill-opacity:0.0;  stroke:#000084; stroke-width:0.5213; stroke-opacity:1;  stroke-linecap:round; stroke-linejoin:round;">
<path d="M184.8635 145.9693 L184.8635 135.5428 "/>
<path d="M178.3469 135.5428 L178.3469 145.9693 "/>
<path d="M184.8635 135.5428 L178.3469 135.5428 "/>
<path d="M178.3469 145.9693 L184.8635 145.9693 "/>
<path d="M221.2050 114.1998 L205.5653 114.1998 "/>
<path d="M205.5653 138.1807 L221.2050 138.1807 "/>
<path d="M217.2968 128.8030 L209.2194 128.8030 "/>
<path d="M213.3905 122.8045 L209.2194 128.8030 "/>
<path d="M205.5653 138.1807 L205.5653 114.1998 "/>
<path d="M213.3905 128.8030 L213.3905 134.0070 "/>
<path d="M213.3905 122.8045 L217.2968 128.8030 "/>
<path d="M213.3905 122.8045 L213.3905 118.1038 "/>
<path d="M221.2050 138.1807 L221.2050 114.1998 "/>
<path d="M209.2194 122.8045 L217.5616 122.8045 "/>
</g>
<g style="fill:#000084; fill-opacity:0.0;  stroke:#000084; stroke-width:0.7820; stroke-opacity:1;  stroke-linecap:round; stroke-linejoin:round;">
<path d="M143.0793 128.8803 L137.8661 123.6670 "/>
<path d="M143.0793 139.3068 L143.0793 128.8803 "/>
<path d="M127.4396 139.3068 L143.0793 139.3068 "/>
<path d="M137.8661 123.6670 L127.4396 123.6670 "/>
<path d="M127.4396 123.6670 L127.4396 139.3068 "/>
</g>
<g style="fill:#000084; fill-opacity:0.0;  stroke:#000084; stroke-width:0.5213; stroke-opacity:1;  stroke-linecap:round; stroke-linejoin:round;">
<path d="M175.6986 94.3269 L182.2152 94.3269 "/>
<path d="M182.2152 83.9004 L175.6986 83.9004 "/>
<path d="M175.6986 83.9004 L175.6986 94.3269 "/>
<path d="M182.2152 94.3269 L182.2152 83.9004 "/>
<path d="M116.0200 170.4976 L126.4465 170.4976 "/>
<path d="M126.4465 170.4976 L126.4465 163.9811 "/>
<path d="M126.4465 163.9811 L116.0200 163.9811 "/>
<path d="M116.0200 163.9811 L116.0200 170.4976 "/>
<path d="M172.1327 65.1953 L172.1327 54.7688 "/>
<path d="M165.6162 65.1953 L172.1327 65.1953 "/>
<path d="M172.1327 54.7688 L165.6162 54.7688 "/>
<path d="M165.6162 54.7688 L165.6162 65.1953 "/>
<path d="M187.5118 65.1953 L187.5118 54.7688 "/>
<path d="M180.9953 65.1953 L187.5118 65.1953 "/>
<path d="M187.5118 54.7688 L180.9953 54.7688 "/>
<path d="M180.9953 54.7688 L180.9953 65.1953 "/>
<g>
</g>
<g>
</g>
<g>
</g>
<g>
</g>
<g>
</g>
<g>
</g>
<g>
</g>
<g>
</g>
<g>
</g>
<g>
</g>
<g>
</g>
<g>
</g>
<g>
</g>
<g>
</g>
<g>
</g>
<g>
</g>
<g>
</g>
<g>
</g>
<g>
</g>
<g>
</g>
<g>
</g>
<g>
</g>
<g>
</g>
</g> 
<svg:g><svg:g><svg:title>SVG Image created as AMUX01-Edge_Cuts.svg date 2023/07/05 15:12:55 </svg:title>
  <svg:desc>Image generated by PCBNEW </svg:desc>
<svg:g style="fill:#C2C200; fill-opacity:1.0000;stroke:#C2C200; stroke-opacity:1.0000; stroke-linecap:round; stroke-linejoin:round;" transform="translate(0 0) scale(1 1)">
</svg:g>
<svg:g style="fill:#C2C200; fill-opacity:0.0;  stroke:#C2C200; stroke-width:0.0000; stroke-opacity:1;  stroke-linecap:round; stroke-linejoin:round;">
</svg:g>
<svg:g style="fill:#C2C200; fill-opacity:0.0;  stroke:#C2C200; stroke-width:0.7820; stroke-opacity:1;  stroke-linecap:round; stroke-linejoin:round;">
<svg:path style="fill:#C2C200; fill-opacity:0.0;  stroke:#C2C200; stroke-width:0.7820; stroke-opacity:1;  stroke-linecap:round; stroke-linejoin:round;fill:none" d="M 43.8921,0.3946 253.1101,0.3946 253.1101,209.6126 43.8921,209.6126 Z"/> 
<svg:g>
</svg:g>
<svg:g>
</svg:g>
<svg:g>
</svg:g>
<svg:g>
</svg:g>
<svg:g>
</svg:g>
<svg:g>
</svg:g>
<svg:g>
</svg:g>
<svg:g>
</svg:g>
<svg:g>
</svg:g>
<svg:g>
</svg:g>
<svg:g>
</svg:g>
<svg:g>
</svg:g>
<svg:g>
</svg:g>
<svg:g>
</svg:g>
<svg:g>
</svg:g>
<svg:g>
</svg:g>
<svg:g>
</svg:g>
<svg:g>
</svg:g>
<svg:g>
</svg:g>
<svg:g>
</svg:g>
<svg:g>
</svg:g>
<svg:g>
</svg:g>
<svg:g>
</svg:g>
</svg:g> 
</svg:g></svg:g></svg>
