<?xml version='1.0' encoding='ASCII' standalone='yes'?>
<svg xmlns:svg="http://www.w3.org/2000/svg" xmlns="http://www.w3.org/2000/svg" xmlns:xlink="http://www.w3.org/1999/xlink" version="1.1" width="29.700220cm" height="21.000720cm" viewBox="0 0 2970022 2100072">
<title>SVG Picture created as AMUX01-B_Fab.svg date 2023/04/13 01:08:47 </title>
  <desc>Picture generated by PCBNEW </desc>
<g style="fill:#000084; fill-opacity:1.000000;stroke:#000084; stroke-opacity:1.000000; stroke-linecap:round; stroke-linejoin:round;" transform="translate(0 0) scale(1 1)">
</g>
<g style="fill:#000084; fill-opacity:0.0;  stroke:#000084; stroke-width:0.000000; stroke-opacity:1;  stroke-linecap:round; stroke-linejoin:round;">
</g>
<g style="fill:#000084; fill-opacity:0.0;  stroke:#000084; stroke-width:7819.869917; stroke-opacity:1;  stroke-linecap:round; stroke-linejoin:round;">
<g transform="rotate(-90.000000 1903634.725187 1407560.476143)">
<text x="1903634.725187" y="1433626.709200" transform="scale(-1 1) translate(-3807269.450375 0)" textLength="191152.340996" font-size="69509.937441" lengthAdjust="spacingAndGlyphs" text-anchor="middle" opacity="0.01" style="font-family:monospace">10uF</text>
</g>
<g class="stroked-text"><desc>10uF</desc>
<path d="M1927218 1351704 L1927218 1321914 "/>
<path d="M1927218 1336809 L1875085 1336809 L1882533 1331844 L1887498 1326879 L1889980 1321914 "/>
<path d="M1875085 1383976 L1875085 1388941 L1877568 1393906 L1880050 1396389 L1885015 1398871 L1894945 1401354 L1907358 1401354 L1917288 1398871 L1922253 1396389 L1924735 1393906 L1927218 1388941 L1927218 1383976 L1924735 1379011 L1922253 1376529 L1917288 1374046 L1907358 1371564 L1894945 1371564 L1885015 1374046 L1880050 1376529 L1877568 1379011 L1875085 1383976 "/>
<path d="M1892463 1446039 L1927218 1446039 "/>
<path d="M1892463 1423696 L1919770 1423696 L1924735 1426179 L1927218 1431144 L1927218 1438591 L1924735 1443556 L1922253 1446039 "/>
<path d="M1899910 1488241 L1899910 1470864 "/>
<path d="M1927218 1470864 L1875085 1470864 L1875085 1495689 "/>
</g></g>
<g style="fill:#000084; fill-opacity:0.0;  stroke:#000084; stroke-width:4170.597289; stroke-opacity:1;  stroke-linecap:round; stroke-linejoin:round;">
<g transform="rotate(-90.000000 1816052.182116 1407560.476143)">
<text x="1816052.182116" y="1420593.592672" transform="scale(-1 1) translate(-3632104.364232 0)" textLength="40725.361204" font-size="34754.942654" lengthAdjust="spacingAndGlyphs" text-anchor="middle" opacity="0.01" style="font-family:monospace">C1</text>
</g>
<g class="stroked-text"><desc>C1</desc>
<path d="M1825361 1403216 L1826602 1401974 L1827844 1398251 L1827844 1395768 L1826602 1392044 L1824120 1389562 L1821637 1388321 L1816672 1387079 L1812949 1387079 L1807984 1388321 L1805501 1389562 L1803019 1392044 L1801777 1395768 L1801777 1398251 L1803019 1401974 L1804260 1403216 "/>
<path d="M1827844 1428041 L1827844 1413146 "/>
<path d="M1827844 1420593 L1801777 1420593 L1805501 1418111 L1807984 1415628 L1809225 1413146 "/>
</g></g>
<g style="fill:#000084; fill-opacity:0.01;  stroke:#000084; stroke-width:7819.869917; stroke-opacity:1;  stroke-linecap:round; stroke-linejoin:round;">
<g transform="rotate(-90.000000 2269396.107443 1261902.365821)">
<text x="2269396.107443" y="1287968.598878" transform="scale(-1 1) translate(-4538792.214885 0)" textLength="525832.868279" font-size="69509.937441" lengthAdjust="spacingAndGlyphs" text-anchor="middle" opacity="0.01" style="font-family:monospace">BZV55C-5,6V</text>
</g>
<g class="stroked-text"><desc>BZV55C-5,6V</desc>
<path d="M2265672 1026064 L2268154 1033512 L2270637 1035994 L2275602 1038477 L2283049 1038477 L2288014 1035994 L2290497 1033512 L2292979 1028547 L2292979 1008687 L2240847 1008687 L2240847 1026064 L2243329 1031029 L2245812 1033512 L2250777 1035994 L2255742 1035994 L2260707 1033512 L2263189 1031029 L2265672 1026064 L2265672 1008687 "/>
<path d="M2240847 1055854 L2240847 1090609 L2292979 1055854 L2292979 1090609 "/>
<path d="M2240847 1103022 L2292979 1120399 L2240847 1137777 "/>
<path d="M2240847 1179979 L2240847 1155154 L2265672 1152672 L2263189 1155154 L2260707 1160119 L2260707 1172532 L2263189 1177497 L2265672 1179979 L2270637 1182462 L2283049 1182462 L2288014 1179979 L2290497 1177497 L2292979 1172532 L2292979 1160119 L2290497 1155154 L2288014 1152672 "/>
<path d="M2240847 1229629 L2240847 1204804 L2265672 1202322 L2263189 1204804 L2260707 1209769 L2260707 1222182 L2263189 1227147 L2265672 1229629 L2270637 1232112 L2283049 1232112 L2288014 1229629 L2290497 1227147 L2292979 1222182 L2292979 1209769 L2290497 1204804 L2288014 1202322 "/>
<path d="M2288014 1284244 L2290497 1281762 L2292979 1274314 L2292979 1269349 L2290497 1261902 L2285532 1256937 L2280567 1254454 L2270637 1251972 L2263189 1251972 L2253259 1254454 L2248294 1256937 L2243329 1261902 L2240847 1269349 L2240847 1274314 L2243329 1281762 L2245812 1284244 "/>
<path d="M2273119 1306587 L2273119 1346307 "/>
<path d="M2240847 1395957 L2240847 1371132 L2265672 1368649 L2263189 1371132 L2260707 1376097 L2260707 1388509 L2263189 1393474 L2265672 1395957 L2270637 1398439 L2283049 1398439 L2288014 1395957 L2290497 1393474 L2292979 1388509 L2292979 1376097 L2290497 1371132 L2288014 1368649 "/>
<path d="M2290497 1423264 L2292979 1423264 L2297944 1420782 L2300427 1418299 "/>
<path d="M2240847 1467949 L2240847 1458019 L2243329 1453054 L2245812 1450572 L2253259 1445607 L2263189 1443124 L2283049 1443124 L2288014 1445607 L2290497 1448089 L2292979 1453054 L2292979 1462984 L2290497 1467949 L2288014 1470432 L2283049 1472914 L2270637 1472914 L2265672 1470432 L2263189 1467949 L2260707 1462984 L2260707 1453054 L2263189 1448089 L2265672 1445607 L2270637 1443124 "/>
<path d="M2240847 1487809 L2292979 1505187 L2240847 1522564 "/>
</g><g transform="rotate(-90.000000 2003520.530262 1261902.365821)">
<text x="2003520.530262" y="1287968.598878" transform="scale(-1 1) translate(-4007041.060523 0)" textLength="91616.605432" font-size="69509.937441" lengthAdjust="spacingAndGlyphs" text-anchor="middle" opacity="0.01" style="font-family:monospace">D1</text>
</g>
<g class="stroked-text"><desc>D1</desc>
<path d="M2027104 1223423 L1974971 1223423 L1974971 1235836 L1977454 1243283 L1982419 1248248 L1987384 1250731 L1997314 1253213 L2004761 1253213 L2014691 1250731 L2019656 1248248 L2024621 1243283 L2027104 1235836 L2027104 1223423 "/>
<path d="M2027104 1302863 L2027104 1273073 "/>
<path d="M2027104 1287968 L1974971 1287968 L1982419 1283003 L1987384 1278038 L1989866 1273073 "/>
</g><text x="1352594.558364" y="1476479.596346" transform="scale(-1 1) translate(-2705189.116727 0)" textLength="560808.800457" font-size="69509.937441" lengthAdjust="spacingAndGlyphs" text-anchor="middle" opacity="0.01" style="font-family:monospace">MAX4734EUB+</text>
<g class="stroked-text"><desc>MAX4734EUB+</desc>
<path d="M1625669 1473997 L1625669 1421864 L1608291 1459102 L1590914 1421864 L1590914 1473997 "/>
<path d="M1568571 1459102 L1543746 1459102 "/>
<path d="M1573536 1473997 L1556159 1421864 L1538781 1473997 "/>
<path d="M1526369 1421864 L1491614 1473997 "/>
<path d="M1491614 1421864 L1526369 1473997 "/>
<path d="M1449411 1439242 L1449411 1473997 "/>
<path d="M1461824 1419382 L1474236 1456619 L1441964 1456619 "/>
<path d="M1427069 1421864 L1392314 1421864 L1414657 1473997 "/>
<path d="M1377419 1421864 L1345147 1421864 L1362524 1441724 L1355077 1441724 L1350112 1444207 L1347629 1446689 L1345147 1451654 L1345147 1464067 L1347629 1469032 L1350112 1471514 L1355077 1473997 L1369972 1473997 L1374937 1471514 L1377419 1469032 "/>
<path d="M1300462 1439242 L1300462 1473997 "/>
<path d="M1312874 1419382 L1325287 1456619 L1293014 1456619 "/>
<path d="M1273154 1446689 L1255777 1446689 "/>
<path d="M1248329 1473997 L1273154 1473997 L1273154 1421864 L1248329 1421864 "/>
<path d="M1225987 1421864 L1225987 1464067 L1223504 1469032 L1221022 1471514 L1216057 1473997 L1206127 1473997 L1201162 1471514 L1198679 1469032 L1196197 1464067 L1196197 1421864 "/>
<path d="M1153994 1446689 L1146547 1449172 L1144064 1451654 L1141582 1456619 L1141582 1464067 L1144064 1469032 L1146547 1471514 L1151512 1473997 L1171372 1473997 L1171372 1421864 L1153994 1421864 L1149029 1424347 L1146547 1426829 L1144064 1431794 L1144064 1436759 L1146547 1441724 L1149029 1444207 L1153994 1446689 L1171372 1446689 "/>
<path d="M1119239 1454137 L1079519 1454137 "/>
<path d="M1099379 1473997 L1099379 1434277 "/>
</g><text x="1352594.558364" y="1330508.691227" transform="scale(-1 1) translate(-2705189.116727 0)" textLength="52393.128444" font-size="41705.972891" lengthAdjust="spacingAndGlyphs" text-anchor="middle" opacity="0.01" style="font-family:monospace">U1</text>
<g class="stroked-text"><desc>U1</desc>
<path d="M1376426 1297739 L1376426 1323061 L1374937 1326040 L1373447 1327529 L1370468 1329019 L1364510 1329019 L1361531 1327529 L1360042 1326040 L1358552 1323061 L1358552 1297739 "/>
<path d="M1327273 1329019 L1345147 1329019 "/>
<path d="M1336210 1329019 L1336210 1297739 L1339189 1302208 L1342168 1305187 L1345147 1306676 "/>
</g><g transform="rotate(-90.000000 1877151.432402 891136.266819)">
<text x="1877151.432402" y="917202.499876" transform="scale(-1 1) translate(-3754302.864803 0)" textLength="230636.532446" font-size="69509.937441" lengthAdjust="spacingAndGlyphs" text-anchor="middle" opacity="0.01" style="font-family:monospace">100nF</text>
</g>
<g class="stroked-text"><desc>100nF</desc>
<path d="M1900735 810455 L1900735 780665 "/>
<path d="M1900735 795560 L1848602 795560 L1856050 790595 L1861015 785630 L1863497 780665 "/>
<path d="M1848602 842727 L1848602 847692 L1851085 852657 L1853567 855139 L1858532 857622 L1868462 860104 L1880875 860104 L1890805 857622 L1895770 855139 L1898252 852657 L1900735 847692 L1900735 842727 L1898252 837762 L1895770 835280 L1890805 832797 L1880875 830315 L1868462 830315 L1858532 832797 L1853567 835280 L1851085 837762 L1848602 842727 "/>
<path d="M1848602 892377 L1848602 897342 L1851085 902307 L1853567 904789 L1858532 907272 L1868462 909754 L1880875 909754 L1890805 907272 L1895770 904789 L1898252 902307 L1900735 897342 L1900735 892377 L1898252 887412 L1895770 884930 L1890805 882447 L1880875 879965 L1868462 879965 L1858532 882447 L1853567 884930 L1851085 887412 L1848602 892377 "/>
<path d="M1865980 932097 L1900735 932097 "/>
<path d="M1870945 932097 L1868462 934579 L1865980 939544 L1865980 946992 L1868462 951957 L1873427 954439 L1900735 954439 "/>
<path d="M1873427 996642 L1873427 979264 "/>
<path d="M1900735 979264 L1848602 979264 L1848602 1004089 "/>
</g></g>
<g style="fill:#000084; fill-opacity:0.0;  stroke:#000084; stroke-width:4170.597289; stroke-opacity:1;  stroke-linecap:round; stroke-linejoin:round;">
<g transform="rotate(-90.000000 1789568.889330 891136.266819)">
<text x="1789568.889330" y="904169.383347" transform="scale(-1 1) translate(-3579137.778660 0)" textLength="40725.361204" font-size="34754.942654" lengthAdjust="spacingAndGlyphs" text-anchor="middle" opacity="0.01" style="font-family:monospace">C2</text>
</g>
<g class="stroked-text"><desc>C2</desc>
<path d="M1798878 886791 L1800119 885550 L1801360 881826 L1801360 879344 L1800119 875620 L1797636 873138 L1795154 871896 L1790189 870655 L1786465 870655 L1781500 871896 L1779018 873138 L1776535 875620 L1775294 879344 L1775294 881826 L1776535 885550 L1777776 886791 "/>
<path d="M1777776 896721 L1776535 897963 L1775294 900445 L1775294 906651 L1776535 909134 L1777776 910375 L1780259 911616 L1782741 911616 L1786465 910375 L1801360 895480 L1801360 911616 "/>
</g></g>
<g style="fill:#000084; fill-opacity:0.01;  stroke:#000084; stroke-width:7819.869917; stroke-opacity:1;  stroke-linecap:round; stroke-linejoin:round;">
<text x="1212332.158284" y="1784478.206147" transform="scale(-1 1) translate(-2424664.316568 0)" textLength="136080.646443" font-size="69509.937441" lengthAdjust="spacingAndGlyphs" text-anchor="middle" opacity="0.01" style="font-family:monospace">10k</text>
<g class="stroked-text"><desc>10k</desc>
<path d="M1243363 1781995 L1273153 1781995 "/>
<path d="M1258258 1781995 L1258258 1729863 L1263223 1737310 L1268188 1742275 L1273153 1744758 "/>
<path d="M1211090 1729863 L1206125 1729863 L1201160 1732345 L1198678 1734828 L1196195 1739793 L1193713 1749723 L1193713 1762135 L1196195 1772065 L1198678 1777030 L1201160 1779513 L1206125 1781995 L1211090 1781995 L1216055 1779513 L1218538 1777030 L1221020 1772065 L1223503 1762135 L1223503 1749723 L1221020 1739793 L1218538 1734828 L1216055 1732345 L1211090 1729863 "/>
<path d="M1171370 1781995 L1171370 1729863 "/>
<path d="M1166405 1762135 L1151510 1781995 "/>
<path d="M1151510 1747240 L1171370 1767100 "/>
</g></g>
<g style="fill:#000084; fill-opacity:0.01;  stroke:#000084; stroke-width:4170.597289; stroke-opacity:1;  stroke-linecap:round; stroke-linejoin:round;">
<text x="1212332.158284" y="1685426.520530" transform="scale(-1 1) translate(-2424664.316568 0)" textLength="40725.361204" font-size="34754.942654" lengthAdjust="spacingAndGlyphs" text-anchor="middle" opacity="0.01" style="font-family:monospace">R3</text>
<g class="stroked-text"><desc>R3</desc>
<path d="M1216676 1684185 L1225365 1671772 "/>
<path d="M1231571 1684185 L1231571 1658119 L1221641 1658119 L1219159 1659360 L1217917 1660601 L1216676 1663084 L1216676 1666807 L1217917 1669290 L1219159 1670531 L1221641 1671772 L1231571 1671772 "/>
<path d="M1207987 1658119 L1191851 1658119 L1200540 1668048 L1196816 1668048 L1194333 1669290 L1193092 1670531 L1191851 1673013 L1191851 1679220 L1193092 1681702 L1194333 1682943 L1196816 1684185 L1204264 1684185 L1206746 1682943 L1207987 1681702 "/>
</g></g>
<g style="fill:#000084; fill-opacity:0.0;  stroke:#000084; stroke-width:7819.869917; stroke-opacity:1;  stroke-linecap:round; stroke-linejoin:round;">
<g transform="rotate(-90.000000 1774763.268954 599820.046174)">
<text x="1774763.268954" y="625886.279231" transform="scale(-1 1) translate(-3549526.537908 0)" textLength="136080.646443" font-size="69509.937441" lengthAdjust="spacingAndGlyphs" text-anchor="middle" opacity="0.01" style="font-family:monospace">10k</text>
</g>
<g class="stroked-text"><desc>10k</desc>
<path d="M1798346 568788 L1798346 538998 "/>
<path d="M1798346 553893 L1746214 553893 L1753662 548928 L1758627 543963 L1761109 538998 "/>
<path d="M1746214 601061 L1746214 606026 L1748697 610991 L1751179 613473 L1756144 615956 L1766074 618438 L1778486 618438 L1788416 615956 L1793381 613473 L1795864 610991 L1798346 606026 L1798346 601061 L1795864 596096 L1793381 593613 L1788416 591131 L1778486 588648 L1766074 588648 L1756144 591131 L1751179 593613 L1748697 596096 L1746214 601061 "/>
<path d="M1798346 640781 L1746214 640781 "/>
<path d="M1778486 645746 L1798346 660641 "/>
<path d="M1763592 660641 L1783451 640781 "/>
</g></g>
<g style="fill:#000084; fill-opacity:0.0;  stroke:#000084; stroke-width:4170.597289; stroke-opacity:1;  stroke-linecap:round; stroke-linejoin:round;">
<g transform="rotate(-90.000000 1688744.699866 599820.046174)">
<text x="1688744.699866" y="612853.162703" transform="scale(-1 1) translate(-3377489.399732 0)" textLength="40725.361204" font-size="34754.942654" lengthAdjust="spacingAndGlyphs" text-anchor="middle" opacity="0.01" style="font-family:monospace">R1</text>
</g>
<g class="stroked-text"><desc>R1</desc>
<path d="M1700536 595475 L1688124 586786 "/>
<path d="M1700536 580580 L1674470 580580 L1674470 590510 L1675711 592993 L1676952 594234 L1679435 595475 L1683159 595475 L1685641 594234 L1686882 592993 L1688124 590510 L1688124 580580 "/>
<path d="M1700536 620300 L1700536 605405 "/>
<path d="M1700536 612853 L1674470 612853 L1678194 610370 L1680676 607888 L1681917 605405 "/>
</g></g>
<g style="fill:#000084; fill-opacity:0.0;  stroke:#000084; stroke-width:7819.869917; stroke-opacity:1;  stroke-linecap:round; stroke-linejoin:round;">
<g transform="rotate(-90.000000 1928554.043990 599820.046174)">
<text x="1928554.043990" y="625886.279231" transform="scale(-1 1) translate(-3857108.087980 0)" textLength="136080.646443" font-size="69509.937441" lengthAdjust="spacingAndGlyphs" text-anchor="middle" opacity="0.01" style="font-family:monospace">10k</text>
</g>
<g class="stroked-text"><desc>10k</desc>
<path d="M1952137 568788 L1952137 538998 "/>
<path d="M1952137 553893 L1900005 553893 L1907452 548928 L1912417 543963 L1914900 538998 "/>
<path d="M1900005 601061 L1900005 606026 L1902487 610991 L1904970 613473 L1909935 615956 L1919865 618438 L1932277 618438 L1942207 615956 L1947172 613473 L1949655 610991 L1952137 606026 L1952137 601061 L1949655 596096 L1947172 593613 L1942207 591131 L1932277 588648 L1919865 588648 L1909935 591131 L1904970 593613 L1902487 596096 L1900005 601061 "/>
<path d="M1952137 640781 L1900005 640781 "/>
<path d="M1932277 645746 L1952137 660641 "/>
<path d="M1917382 660641 L1937242 640781 "/>
</g></g>
<g style="fill:#000084; fill-opacity:0.0;  stroke:#000084; stroke-width:4170.597289; stroke-opacity:1;  stroke-linecap:round; stroke-linejoin:round;">
<g transform="rotate(-90.000000 1842535.474902 599820.046174)">
<text x="1842535.474902" y="612853.162703" transform="scale(-1 1) translate(-3685070.949804 0)" textLength="40725.361204" font-size="34754.942654" lengthAdjust="spacingAndGlyphs" text-anchor="middle" opacity="0.01" style="font-family:monospace">R2</text>
</g>
<g class="stroked-text"><desc>R2</desc>
<path d="M1854327 595475 L1841914 586786 "/>
<path d="M1854327 580580 L1828261 580580 L1828261 590510 L1829502 592993 L1830743 594234 L1833226 595475 L1836949 595475 L1839432 594234 L1840673 592993 L1841914 590510 L1841914 580580 "/>
<path d="M1830743 605405 L1829502 606646 L1828261 609129 L1828261 615335 L1829502 617818 L1830743 619059 L1833226 620300 L1835708 620300 L1839432 619059 L1854327 604164 L1854327 620300 "/>
</g></g>
<g style="fill:#000084; fill-opacity:0.0;  stroke:#000084; stroke-width:5213.246611; stroke-opacity:1;  stroke-linecap:round; stroke-linejoin:round;">
<path d="M1848634 1459692 L1848634 1355428 "/>
<path d="M1783469 1355428 L1783469 1459692 "/>
<path d="M1848634 1355428 L1783469 1355428 "/>
<path d="M1783469 1459692 L1848634 1459692 "/>
<path d="M2212050 1141997 L2055652 1141997 "/>
<path d="M2055652 1381807 L2212050 1381807 "/>
<path d="M2172967 1288030 L2092193 1288030 "/>
<path d="M2133904 1228045 L2092193 1288030 "/>
<path d="M2055652 1381807 L2055652 1141997 "/>
<path d="M2133904 1288030 L2133904 1340069 "/>
<path d="M2133904 1228045 L2172967 1288030 "/>
<path d="M2133904 1228045 L2133904 1181037 "/>
<path d="M2212050 1381807 L2212050 1141997 "/>
<path d="M2092193 1228045 L2175616 1228045 "/>
</g>
<g style="fill:#000084; fill-opacity:0.0;  stroke:#000084; stroke-width:7819.869917; stroke-opacity:1;  stroke-linecap:round; stroke-linejoin:round;">
<path d="M1430793 1288802 L1378660 1236670 "/>
<path d="M1430793 1393067 L1430793 1288802 "/>
<path d="M1274395 1393067 L1430793 1393067 "/>
<path d="M1378660 1236670 L1274395 1236670 "/>
<path d="M1274395 1236670 L1274395 1393067 "/>
</g>
<g style="fill:#000084; fill-opacity:0.0;  stroke:#000084; stroke-width:5213.246611; stroke-opacity:1;  stroke-linecap:round; stroke-linejoin:round;">
<path d="M1756986 943268 L1822151 943268 "/>
<path d="M1822151 839003 L1756986 839003 "/>
<path d="M1756986 839003 L1756986 943268 "/>
<path d="M1822151 943268 L1822151 839003 "/>
<path d="M1160199 1704976 L1264464 1704976 "/>
<path d="M1264464 1704976 L1264464 1639810 "/>
<path d="M1264464 1639810 L1160199 1639810 "/>
<path d="M1160199 1639810 L1160199 1704976 "/>
<path d="M1721327 651952 L1721327 547687 "/>
<path d="M1656161 651952 L1721327 651952 "/>
<path d="M1721327 547687 L1656161 547687 "/>
<path d="M1656161 547687 L1656161 651952 "/>
<path d="M1875118 651952 L1875118 547687 "/>
<path d="M1809952 651952 L1875118 651952 "/>
<path d="M1875118 547687 L1809952 547687 "/>
<path d="M1809952 547687 L1809952 651952 "/>
<g>
</g>
<g>
</g>
<g>
</g>
<g>
</g>
<g>
</g>
<g>
</g>
<g>
</g>
<g>
</g>
<g>
</g>
<g>
</g>
<g>
</g>
<g>
</g>
<g>
</g>
<g>
</g>
<g>
</g>
<g>
</g>
<g>
</g>
<g>
</g>
<g>
</g>
<g>
</g>
<g>
</g>
<g>
</g>
<g>
</g>
</g> 
<svg:g><svg:g><svg:title>SVG Picture created as AMUX01-Edge_Cuts.svg date 2023/04/13 01:08:47 </svg:title>
  <svg:desc>Picture generated by PCBNEW </svg:desc>
<svg:g style="fill:#C2C200; fill-opacity:1.000000;stroke:#C2C200; stroke-opacity:1.000000; stroke-linecap:round; stroke-linejoin:round;" transform="translate(0 0) scale(1 1)">
</svg:g>
<svg:g style="fill:#C2C200; fill-opacity:0.0;  stroke:#C2C200; stroke-width:0.000000; stroke-opacity:1;  stroke-linecap:round; stroke-linejoin:round;">
</svg:g>
<svg:g style="fill:#C2C200; fill-opacity:0.0;  stroke:#C2C200; stroke-width:7819.869917; stroke-opacity:1;  stroke-linecap:round; stroke-linejoin:round;">
<svg:path d="M438920 3945 L2531101 3945 "/>
<svg:path d="M2531101 3945 L2531101 2096126 "/>
<svg:path d="M2531101 2096126 L438920 2096126 "/>
<svg:path d="M438920 2096126 L438920 3945 "/>
<svg:g>
</svg:g>
<svg:g>
</svg:g>
<svg:g>
</svg:g>
<svg:g>
</svg:g>
<svg:g>
</svg:g>
<svg:g>
</svg:g>
<svg:g>
</svg:g>
<svg:g>
</svg:g>
<svg:g>
</svg:g>
<svg:g>
</svg:g>
<svg:g>
</svg:g>
<svg:g>
</svg:g>
<svg:g>
</svg:g>
<svg:g>
</svg:g>
<svg:g>
</svg:g>
<svg:g>
</svg:g>
<svg:g>
</svg:g>
<svg:g>
</svg:g>
<svg:g>
</svg:g>
<svg:g>
</svg:g>
<svg:g>
</svg:g>
<svg:g>
</svg:g>
<svg:g>
</svg:g>
</svg:g> 
</svg:g></svg:g></svg>
