<?xml version='1.0' encoding='ASCII' standalone='yes'?>
<svg xmlns:svg="http://www.w3.org/2000/svg" xmlns="http://www.w3.org/2000/svg" xmlns:xlink="http://www.w3.org/1999/xlink" version="1.1" width="29.700220cm" height="21.000720cm" viewBox="0 0 2970022 2100072">
<title>SVG Picture created as AMUX01-B_Fab.svg date 2023/02/14 14:21:27 </title>
  <desc>Picture generated by PCBNEW </desc>
<g style="fill:#000084; fill-opacity:1.000000;stroke:#000084; stroke-opacity:1.000000; stroke-linecap:round; stroke-linejoin:round;" transform="translate(0 0) scale(1 1)">
</g>
<g style="fill:#000084; fill-opacity:0.0;  stroke:#000084; stroke-width:0.000000; stroke-opacity:1;  stroke-linecap:round; stroke-linejoin:round;">
</g>
<g style="fill:#000084; fill-opacity:0.0;  stroke:#000084; stroke-width:4945.915084; stroke-opacity:1;  stroke-linecap:round; stroke-linejoin:round;">
<g transform="rotate(-90.000000 1806150.061701 1299344.385198)">
<text x="1806150.061701" y="1315830.768811" transform="scale(-1 1) translate(-3612300.123403 0)" textLength="120900.124515" font-size="43963.678644" lengthAdjust="spacingAndGlyphs" text-anchor="middle" opacity="0.01" style="font-family:monospace">10uF</text>
</g>
<g class="stroked-text"><desc>10uF</desc>
<path d="M1821066 1264016 L1821066 1245174 "/>
<path d="M1821066 1254595 L1788093 1254595 L1792803 1251455 L1795944 1248315 L1797514 1245174 "/>
<path d="M1788093 1284428 L1788093 1287568 L1789663 1290708 L1791233 1292278 L1794374 1293848 L1800654 1295419 L1808505 1295419 L1814785 1293848 L1817926 1292278 L1819496 1290708 L1821066 1287568 L1821066 1284428 L1819496 1281287 L1817926 1279717 L1814785 1278147 L1808505 1276577 L1800654 1276577 L1794374 1278147 L1791233 1279717 L1789663 1281287 L1788093 1284428 "/>
<path d="M1799084 1323681 L1821066 1323681 "/>
<path d="M1799084 1309550 L1816355 1309550 L1819496 1311120 L1821066 1314260 L1821066 1318971 L1819496 1322111 L1817926 1323681 "/>
<path d="M1803794 1350373 L1803794 1339382 "/>
<path d="M1821066 1339382 L1788093 1339382 L1788093 1355084 "/>
</g></g>
<g style="fill:#000084; fill-opacity:0.0;  stroke:#000084; stroke-width:2637.821378; stroke-opacity:1;  stroke-linecap:round; stroke-linejoin:round;">
<g transform="rotate(-90.000000 1750755.812761 1299344.385198)">
<text x="1750755.812761" y="1307587.577004" transform="scale(-1 1) translate(-3501511.625523 0)" textLength="25757.996030" font-size="21981.822836" lengthAdjust="spacingAndGlyphs" text-anchor="middle" opacity="0.01" style="font-family:monospace">C1</text>
</g>
<g class="stroked-text"><desc>C1</desc>
<path d="M1756643 1296596 L1757428 1295811 L1758213 1293456 L1758213 1291886 L1757428 1289531 L1755858 1287960 L1754288 1287175 L1751148 1286390 L1748793 1286390 L1745652 1287175 L1744082 1287960 L1742512 1289531 L1741727 1291886 L1741727 1293456 L1742512 1295811 L1743297 1296596 "/>
<path d="M1758213 1312297 L1758213 1302877 "/>
<path d="M1758213 1307587 L1741727 1307587 L1744082 1306017 L1745652 1304447 L1746437 1302877 "/>
</g></g>
<g style="fill:#000084; fill-opacity:0.01;  stroke:#000084; stroke-width:4945.915084; stroke-opacity:1;  stroke-linecap:round; stroke-linejoin:round;">
<g transform="rotate(-90.000000 2037486.996561 1207218.473568)">
<text x="2037486.996561" y="1223704.857181" transform="scale(-1 1) translate(-4074973.993122 0)" textLength="332579.025282" font-size="43963.678644" lengthAdjust="spacingAndGlyphs" text-anchor="middle" opacity="0.01" style="font-family:monospace">BZV55C-5,6V</text>
</g>
<g class="stroked-text"><desc>BZV55C-5,6V</desc>
<path d="M2035131 1058055 L2036701 1062766 L2038272 1064336 L2041412 1065906 L2046122 1065906 L2049262 1064336 L2050833 1062766 L2052403 1059626 L2052403 1047065 L2019430 1047065 L2019430 1058055 L2021000 1061196 L2022570 1062766 L2025711 1064336 L2028851 1064336 L2031991 1062766 L2033561 1061196 L2035131 1058055 L2035131 1047065 "/>
<path d="M2019430 1076897 L2019430 1098879 L2052403 1076897 L2052403 1098879 "/>
<path d="M2019430 1106730 L2052403 1117720 L2019430 1128711 "/>
<path d="M2019430 1155404 L2019430 1139702 L2035131 1138132 L2033561 1139702 L2031991 1142843 L2031991 1150693 L2033561 1153833 L2035131 1155404 L2038272 1156974 L2046122 1156974 L2049262 1155404 L2050833 1153833 L2052403 1150693 L2052403 1142843 L2050833 1139702 L2049262 1138132 "/>
<path d="M2019430 1186806 L2019430 1171105 L2035131 1169535 L2033561 1171105 L2031991 1174245 L2031991 1182096 L2033561 1185236 L2035131 1186806 L2038272 1188376 L2046122 1188376 L2049262 1186806 L2050833 1185236 L2052403 1182096 L2052403 1174245 L2050833 1171105 L2049262 1169535 "/>
<path d="M2049262 1221349 L2050833 1219779 L2052403 1215069 L2052403 1211928 L2050833 1207218 L2047692 1204078 L2044552 1202508 L2038272 1200937 L2033561 1200937 L2027281 1202508 L2024140 1204078 L2021000 1207218 L2019430 1211928 L2019430 1215069 L2021000 1219779 L2022570 1221349 "/>
<path d="M2039842 1235480 L2039842 1260602 "/>
<path d="M2019430 1292005 L2019430 1276304 L2035131 1274734 L2033561 1276304 L2031991 1279444 L2031991 1287295 L2033561 1290435 L2035131 1292005 L2038272 1293575 L2046122 1293575 L2049262 1292005 L2050833 1290435 L2052403 1287295 L2052403 1279444 L2050833 1276304 L2049262 1274734 "/>
<path d="M2050833 1309277 L2052403 1309277 L2055543 1307706 L2057113 1306136 "/>
<path d="M2019430 1337539 L2019430 1331258 L2021000 1328118 L2022570 1326548 L2027281 1323408 L2033561 1321838 L2046122 1321838 L2049262 1323408 L2050833 1324978 L2052403 1328118 L2052403 1334399 L2050833 1337539 L2049262 1339109 L2046122 1340679 L2038272 1340679 L2035131 1339109 L2033561 1337539 L2031991 1334399 L2031991 1328118 L2033561 1324978 L2035131 1323408 L2038272 1321838 "/>
<path d="M2019430 1350100 L2052403 1361091 L2019430 1372082 "/>
</g><g transform="rotate(-90.000000 1869325.883707 1207218.473568)">
<text x="1869325.883707" y="1223704.857181" transform="scale(-1 1) translate(-3738651.767414 0)" textLength="57945.714641" font-size="43963.678644" lengthAdjust="spacingAndGlyphs" text-anchor="middle" opacity="0.01" style="font-family:monospace">D1</text>
</g>
<g class="stroked-text"><desc>D1</desc>
<path d="M1884242 1182881 L1851269 1182881 L1851269 1190732 L1852839 1195442 L1855979 1198582 L1859120 1200152 L1865400 1201723 L1870110 1201723 L1876391 1200152 L1879531 1198582 L1882671 1195442 L1884242 1190732 L1884242 1182881 "/>
<path d="M1884242 1233125 L1884242 1214284 "/>
<path d="M1884242 1223704 L1851269 1223704 L1855979 1220564 L1859120 1217424 L1860690 1214284 "/>
</g><text x="1457627.912119" y="1342934.383471" transform="scale(-1 1) translate(-2915255.824239 0)" textLength="354700.619678" font-size="43963.678644" lengthAdjust="spacingAndGlyphs" text-anchor="middle" opacity="0.01" style="font-family:monospace">MAX4734EUB+</text>
<g class="stroked-text"><desc>MAX4734EUB+</desc>
<path d="M1630342 1341364 L1630342 1308391 L1619351 1331943 L1608360 1308391 L1608360 1341364 "/>
<path d="M1594229 1331943 L1578528 1331943 "/>
<path d="M1597369 1341364 L1586378 1308391 L1575387 1341364 "/>
<path d="M1567537 1308391 L1545555 1341364 "/>
<path d="M1545555 1308391 L1567537 1341364 "/>
<path d="M1518863 1319382 L1518863 1341364 "/>
<path d="M1526713 1306821 L1534564 1330373 L1514152 1330373 "/>
<path d="M1504731 1308391 L1482749 1308391 L1496881 1341364 "/>
<path d="M1473329 1308391 L1452917 1308391 L1463908 1320952 L1459198 1320952 L1456057 1322522 L1454487 1324092 L1452917 1327233 L1452917 1335083 L1454487 1338223 L1456057 1339794 L1459198 1341364 L1468618 1341364 L1471759 1339794 L1473329 1338223 "/>
<path d="M1424655 1319382 L1424655 1341364 "/>
<path d="M1432505 1306821 L1440356 1330373 L1419944 1330373 "/>
<path d="M1407383 1324092 L1396392 1324092 "/>
<path d="M1391682 1341364 L1407383 1341364 L1407383 1308391 L1391682 1308391 "/>
<path d="M1377551 1308391 L1377551 1335083 L1375981 1338223 L1374410 1339794 L1371270 1341364 L1364990 1341364 L1361849 1339794 L1360279 1338223 L1358709 1335083 L1358709 1308391 "/>
<path d="M1332017 1324092 L1327306 1325662 L1325736 1327233 L1324166 1330373 L1324166 1335083 L1325736 1338223 L1327306 1339794 L1330447 1341364 L1343008 1341364 L1343008 1308391 L1332017 1308391 L1328877 1309961 L1327306 1311531 L1325736 1314672 L1325736 1317812 L1327306 1320952 L1328877 1322522 L1332017 1324092 L1343008 1324092 "/>
<path d="M1310035 1328803 L1284913 1328803 "/>
<path d="M1297474 1341364 L1297474 1316242 "/>
</g><text x="1457627.912119" y="1250610.635237" transform="scale(-1 1) translate(-2915255.824239 0)" textLength="33137.631062" font-size="26378.213781" lengthAdjust="spacingAndGlyphs" text-anchor="middle" opacity="0.01" style="font-family:monospace">U1</text>
<g class="stroked-text"><desc>U1</desc>
<path d="M1472701 1229884 L1472701 1245900 L1471759 1247784 L1470817 1248726 L1468932 1249668 L1465164 1249668 L1463280 1248726 L1462338 1247784 L1461396 1245900 L1461396 1229884 "/>
<path d="M1441612 1249668 L1452917 1249668 "/>
<path d="M1447265 1249668 L1447265 1229884 L1449149 1232711 L1451033 1234595 L1452917 1235537 "/>
</g><g transform="rotate(-90.000000 1789399.895951 972716.153054)">
<text x="1789399.895951" y="989202.536667" transform="scale(-1 1) translate(-3578799.791901 0)" textLength="145873.104902" font-size="43963.678644" lengthAdjust="spacingAndGlyphs" text-anchor="middle" opacity="0.01" style="font-family:monospace">100nF</text>
</g>
<g class="stroked-text"><desc>100nF</desc>
<path d="M1804316 921686 L1804316 902845 "/>
<path d="M1804316 912266 L1771343 912266 L1776053 909125 L1779194 905985 L1780764 902845 "/>
<path d="M1771343 942098 L1771343 945238 L1772913 948379 L1774483 949949 L1777623 951519 L1783904 953089 L1791755 953089 L1798035 951519 L1801175 949949 L1802745 948379 L1804316 945238 L1804316 942098 L1802745 938958 L1801175 937388 L1798035 935818 L1791755 934247 L1783904 934247 L1777623 935818 L1774483 937388 L1772913 938958 L1771343 942098 "/>
<path d="M1771343 973501 L1771343 976641 L1772913 979781 L1774483 981351 L1777623 982921 L1783904 984492 L1791755 984492 L1798035 982921 L1801175 981351 L1802745 979781 L1804316 976641 L1804316 973501 L1802745 970360 L1801175 968790 L1798035 967220 L1791755 965650 L1783904 965650 L1777623 967220 L1774483 968790 L1772913 970360 L1771343 973501 "/>
<path d="M1782334 998623 L1804316 998623 "/>
<path d="M1785474 998623 L1783904 1000193 L1782334 1003333 L1782334 1008044 L1783904 1011184 L1787044 1012754 L1804316 1012754 "/>
<path d="M1787044 1039446 L1787044 1028455 "/>
<path d="M1804316 1028455 L1771343 1028455 L1771343 1044157 "/>
</g></g>
<g style="fill:#000084; fill-opacity:0.0;  stroke:#000084; stroke-width:2637.821378; stroke-opacity:1;  stroke-linecap:round; stroke-linejoin:round;">
<g transform="rotate(-90.000000 1734005.647010 972716.153054)">
<text x="1734005.647010" y="980959.344861" transform="scale(-1 1) translate(-3468011.294021 0)" textLength="25757.996030" font-size="21981.822836" lengthAdjust="spacingAndGlyphs" text-anchor="middle" opacity="0.01" style="font-family:monospace">C2</text>
</g>
<g class="stroked-text"><desc>C2</desc>
<path d="M1739893 969968 L1740678 969183 L1741463 966828 L1741463 965258 L1740678 962902 L1739108 961332 L1737538 960547 L1734398 959762 L1732042 959762 L1728902 960547 L1727332 961332 L1725762 962902 L1724977 965258 L1724977 966828 L1725762 969183 L1726547 969968 "/>
<path d="M1726547 976248 L1725762 977034 L1724977 978604 L1724977 982529 L1725762 984099 L1726547 984884 L1728117 985669 L1729687 985669 L1732042 984884 L1741463 975463 L1741463 985669 "/>
</g></g>
<g style="fill:#000084; fill-opacity:0.01;  stroke:#000084; stroke-width:4945.915084; stroke-opacity:1;  stroke-linecap:round; stroke-linejoin:round;">
<text x="1368914.681897" y="1537737.492244" transform="scale(-1 1) translate(-2737829.363794 0)" textLength="86068.352672" font-size="43963.678644" lengthAdjust="spacingAndGlyphs" text-anchor="middle" opacity="0.01" style="font-family:monospace">10k</text>
<g class="stroked-text"><desc>10k</desc>
<path d="M1388541 1536167 L1407382 1536167 "/>
<path d="M1397962 1536167 L1397962 1503194 L1401102 1507904 L1404242 1511045 L1407382 1512615 "/>
<path d="M1368129 1503194 L1364989 1503194 L1361849 1504764 L1360278 1506334 L1358708 1509475 L1357138 1515755 L1357138 1523606 L1358708 1529886 L1360278 1533027 L1361849 1534597 L1364989 1536167 L1368129 1536167 L1371269 1534597 L1372839 1533027 L1374410 1529886 L1375980 1523606 L1375980 1515755 L1374410 1509475 L1372839 1506334 L1371269 1504764 L1368129 1503194 "/>
<path d="M1343007 1536167 L1343007 1503194 "/>
<path d="M1339867 1523606 L1330446 1536167 "/>
<path d="M1330446 1514185 L1343007 1526746 "/>
</g></g>
<g style="fill:#000084; fill-opacity:0.01;  stroke:#000084; stroke-width:2637.821378; stroke-opacity:1;  stroke-linecap:round; stroke-linejoin:round;">
<text x="1368914.681897" y="1475089.234514" transform="scale(-1 1) translate(-2737829.363794 0)" textLength="25757.996030" font-size="21981.822836" lengthAdjust="spacingAndGlyphs" text-anchor="middle" opacity="0.01" style="font-family:monospace">R3</text>
<g class="stroked-text"><desc>R3</desc>
<path d="M1371662 1474304 L1377157 1466453 "/>
<path d="M1381083 1474304 L1381083 1457817 L1374802 1457817 L1373232 1458602 L1372447 1459387 L1371662 1460958 L1371662 1463313 L1372447 1464883 L1373232 1465668 L1374802 1466453 L1381083 1466453 "/>
<path d="M1366166 1457817 L1355961 1457817 L1361456 1464098 L1359101 1464098 L1357531 1464883 L1356746 1465668 L1355961 1467238 L1355961 1471163 L1356746 1472734 L1357531 1473519 L1359101 1474304 L1363811 1474304 L1365381 1473519 L1366166 1472734 "/>
</g></g>
<g style="fill:#000084; fill-opacity:0.0;  stroke:#000084; stroke-width:4945.915084; stroke-opacity:1;  stroke-linecap:round; stroke-linejoin:round;">
<g transform="rotate(-90.000000 1724641.381118 788464.329793)">
<text x="1724641.381118" y="804950.713407" transform="scale(-1 1) translate(-3449282.762236 0)" textLength="86068.352672" font-size="43963.678644" lengthAdjust="spacingAndGlyphs" text-anchor="middle" opacity="0.01" style="font-family:monospace">10k</text>
</g>
<g class="stroked-text"><desc>10k</desc>
<path d="M1739557 768837 L1739557 749996 "/>
<path d="M1739557 759416 L1706584 759416 L1711295 756276 L1714435 753136 L1716005 749996 "/>
<path d="M1706584 789249 L1706584 792389 L1708154 795529 L1709725 797100 L1712865 798670 L1719145 800240 L1726996 800240 L1733277 798670 L1736417 797100 L1737987 795529 L1739557 792389 L1739557 789249 L1737987 786109 L1736417 784538 L1733277 782968 L1726996 781398 L1719145 781398 L1712865 782968 L1709725 784538 L1708154 786109 L1706584 789249 "/>
<path d="M1739557 814371 L1706584 814371 "/>
<path d="M1726996 817511 L1739557 826932 "/>
<path d="M1717575 826932 L1730136 814371 "/>
</g></g>
<g style="fill:#000084; fill-opacity:0.0;  stroke:#000084; stroke-width:2637.821378; stroke-opacity:1;  stroke-linecap:round; stroke-linejoin:round;">
<g transform="rotate(-90.000000 1670236.315195 788464.329793)">
<text x="1670236.315195" y="796707.521600" transform="scale(-1 1) translate(-3340472.630389 0)" textLength="25757.996030" font-size="21981.822836" lengthAdjust="spacingAndGlyphs" text-anchor="middle" opacity="0.01" style="font-family:monospace">R1</text>
</g>
<g class="stroked-text"><desc>R1</desc>
<path d="M1677694 785716 L1669843 780221 "/>
<path d="M1677694 776295 L1661208 776295 L1661208 782576 L1661993 784146 L1662778 784931 L1664348 785716 L1666703 785716 L1668273 784931 L1669058 784146 L1669843 782576 L1669843 776295 "/>
<path d="M1677694 801417 L1677694 791997 "/>
<path d="M1677694 796707 L1661208 796707 L1663563 795137 L1665133 793567 L1665918 791997 "/>
</g></g>
<g style="fill:#000084; fill-opacity:0.0;  stroke:#000084; stroke-width:4945.915084; stroke-opacity:1;  stroke-linecap:round; stroke-linejoin:round;">
<g transform="rotate(-90.000000 1821911.044436 788464.329793)">
<text x="1821911.044436" y="804950.713407" transform="scale(-1 1) translate(-3643822.088871 0)" textLength="86068.352672" font-size="43963.678644" lengthAdjust="spacingAndGlyphs" text-anchor="middle" opacity="0.01" style="font-family:monospace">10k</text>
</g>
<g class="stroked-text"><desc>10k</desc>
<path d="M1836827 768837 L1836827 749996 "/>
<path d="M1836827 759416 L1803854 759416 L1808564 756276 L1811705 753136 L1813275 749996 "/>
<path d="M1803854 789249 L1803854 792389 L1805424 795529 L1806994 797100 L1810135 798670 L1816415 800240 L1824266 800240 L1830546 798670 L1833687 797100 L1835257 795529 L1836827 792389 L1836827 789249 L1835257 786109 L1833687 784538 L1830546 782968 L1824266 781398 L1816415 781398 L1810135 782968 L1806994 784538 L1805424 786109 L1803854 789249 "/>
<path d="M1836827 814371 L1803854 814371 "/>
<path d="M1824266 817511 L1836827 826932 "/>
<path d="M1814845 826932 L1827406 814371 "/>
</g></g>
<g style="fill:#000084; fill-opacity:0.0;  stroke:#000084; stroke-width:2637.821378; stroke-opacity:1;  stroke-linecap:round; stroke-linejoin:round;">
<g transform="rotate(-90.000000 1767505.978512 788464.329793)">
<text x="1767505.978512" y="796707.521600" transform="scale(-1 1) translate(-3535011.957024 0)" textLength="25757.996030" font-size="21981.822836" lengthAdjust="spacingAndGlyphs" text-anchor="middle" opacity="0.01" style="font-family:monospace">R2</text>
</g>
<g class="stroked-text"><desc>R2</desc>
<path d="M1774964 785716 L1767113 780221 "/>
<path d="M1774964 776295 L1758477 776295 L1758477 782576 L1759262 784146 L1760047 784931 L1761617 785716 L1763973 785716 L1765543 784931 L1766328 784146 L1767113 782576 L1767113 776295 "/>
<path d="M1760047 791997 L1759262 792782 L1758477 794352 L1758477 798277 L1759262 799847 L1760047 800632 L1761617 801417 L1763188 801417 L1765543 800632 L1774964 791212 L1774964 801417 "/>
</g></g>
<g style="fill:#000084; fill-opacity:0.0;  stroke:#000084; stroke-width:3297.276723; stroke-opacity:1;  stroke-linecap:round; stroke-linejoin:round;">
<path d="M1771363 1332317 L1771363 1266371 "/>
<path d="M1730147 1266371 L1730147 1332317 "/>
<path d="M1771363 1266371 L1730147 1266371 "/>
<path d="M1730147 1332317 L1771363 1332317 "/>
<path d="M2001216 1131381 L1902298 1131381 "/>
<path d="M1902298 1283055 L2001216 1283055 "/>
<path d="M1976497 1223743 L1925409 1223743 "/>
<path d="M1951791 1185804 L1925409 1223743 "/>
<path d="M1902298 1283055 L1902298 1131381 "/>
<path d="M1951791 1223743 L1951791 1256657 "/>
<path d="M1951791 1185804 L1976497 1223743 "/>
<path d="M1951791 1185804 L1951791 1156073 "/>
<path d="M2001216 1283055 L2001216 1131381 "/>
<path d="M1925409 1185804 L1978172 1185804 "/>
</g>
<g style="fill:#000084; fill-opacity:0.0;  stroke:#000084; stroke-width:4945.915084; stroke-opacity:1;  stroke-linecap:round; stroke-linejoin:round;">
<path d="M1507087 1224232 L1474114 1191259 "/>
<path d="M1507087 1290177 L1507087 1224232 "/>
<path d="M1408168 1290177 L1507087 1290177 "/>
<path d="M1474114 1191259 L1408168 1191259 "/>
<path d="M1408168 1191259 L1408168 1290177 "/>
</g>
<g style="fill:#000084; fill-opacity:0.0;  stroke:#000084; stroke-width:3297.276723; stroke-opacity:1;  stroke-linecap:round; stroke-linejoin:round;">
<path d="M1713397 1005688 L1754613 1005688 "/>
<path d="M1754613 939743 L1713397 939743 "/>
<path d="M1713397 939743 L1713397 1005688 "/>
<path d="M1754613 1005688 L1754613 939743 "/>
<path d="M1335941 1487454 L1401887 1487454 "/>
<path d="M1401887 1487454 L1401887 1446238 "/>
<path d="M1401887 1446238 L1335941 1446238 "/>
<path d="M1335941 1446238 L1335941 1487454 "/>
<path d="M1690844 821437 L1690844 755491 "/>
<path d="M1649628 821437 L1690844 821437 "/>
<path d="M1690844 755491 L1649628 755491 "/>
<path d="M1649628 755491 L1649628 821437 "/>
<path d="M1788113 821437 L1788113 755491 "/>
<path d="M1746897 821437 L1788113 821437 "/>
<path d="M1788113 755491 L1746897 755491 "/>
<path d="M1746897 755491 L1746897 821437 "/>
<g>
</g>
<g>
</g>
<g>
</g>
<g>
</g>
<g>
</g>
<g>
</g>
<g>
</g>
<g>
</g>
<g>
</g>
<g>
</g>
<g>
</g>
<g>
</g>
<g>
</g>
<g>
</g>
<g>
</g>
<g>
</g>
<g>
</g>
<g>
</g>
<g>
</g>
<g>
</g>
<g>
</g>
<g>
</g>
<g>
</g>
</g> 
<svg:g><svg:g><svg:title>SVG Picture created as AMUX01-Edge_Cuts.svg date 2023/02/14 14:21:27 </svg:title>
  <svg:desc>Picture generated by PCBNEW </svg:desc>
<svg:g style="fill:#C2C200; fill-opacity:1.000000;stroke:#C2C200; stroke-opacity:1.000000; stroke-linecap:round; stroke-linejoin:round;" transform="translate(0 0) scale(1 1)">
</svg:g>
<svg:g style="fill:#C2C200; fill-opacity:0.0;  stroke:#C2C200; stroke-width:0.000000; stroke-opacity:1;  stroke-linecap:round; stroke-linejoin:round;">
</svg:g>
<svg:g style="fill:#C2C200; fill-opacity:0.0;  stroke:#C2C200; stroke-width:4945.915084; stroke-opacity:1;  stroke-linecap:round; stroke-linejoin:round;">
<svg:path d="M879747 411585 L2203010 411585 "/>
<svg:path d="M2203010 411585 L2203010 1734848 "/>
<svg:path d="M2203010 1734848 L879747 1734848 "/>
<svg:path d="M879747 1734848 L879747 411585 "/>
<svg:g>
</svg:g>
<svg:g>
</svg:g>
<svg:g>
</svg:g>
<svg:g>
</svg:g>
<svg:g>
</svg:g>
<svg:g>
</svg:g>
<svg:g>
</svg:g>
<svg:g>
</svg:g>
<svg:g>
</svg:g>
<svg:g>
</svg:g>
<svg:g>
</svg:g>
<svg:g>
</svg:g>
<svg:g>
</svg:g>
<svg:g>
</svg:g>
<svg:g>
</svg:g>
<svg:g>
</svg:g>
<svg:g>
</svg:g>
<svg:g>
</svg:g>
<svg:g>
</svg:g>
<svg:g>
</svg:g>
<svg:g>
</svg:g>
<svg:g>
</svg:g>
<svg:g>
</svg:g>
</svg:g> 
</svg:g></svg:g></svg>
