<?xml version='1.0' encoding='ASCII' standalone='yes'?>
<svg xmlns:svg="http://www.w3.org/2000/svg" xmlns="http://www.w3.org/2000/svg" xmlns:xlink="http://www.w3.org/1999/xlink" version="1.1" width="29.700220cm" height="21.000720cm" viewBox="0 0 2970022 2100072">
<title>SVG Picture created as AMUX01-F_Fab.svg date 2023/07/05 00:22:09 </title>
  <desc>Picture generated by PCBNEW </desc>
<g style="fill:#848484; fill-opacity:1.000000;stroke:#848484; stroke-opacity:1.000000; stroke-linecap:round; stroke-linejoin:round;" transform="translate(0 0) scale(1 1)">
</g>
<g style="fill:#848484; fill-opacity:0.0;  stroke:#848484; stroke-width:0.000000; stroke-opacity:1;  stroke-linecap:round; stroke-linejoin:round;">
</g>
<g style="fill:#848484; fill-opacity:0.0;  stroke:#848484; stroke-width:19862.469589; stroke-opacity:1;  stroke-linecap:round; stroke-linejoin:round;">
<circle cx="690512.194131" cy="255537.239958" r="156383.843901"/> 
<circle cx="690512.194131" cy="1844534.807110" r="156383.843901"/> 
</g>
<g style="fill:#848484; fill-opacity:0.0;  stroke:#848484; stroke-width:7819.869917; stroke-opacity:1;  stroke-linecap:round; stroke-linejoin:round;">
<path d="M2411926 1142727 L2411926 1010311 "/>
<path d="M2411926 1010311 L2014676 1010311 "/>
<path d="M2014676 1142727 L2411926 1142727 "/>
<path d="M2014676 1010311 L2014676 1142727 "/>
<path d="M1617427 1923984 L1617427 1659151 "/>
<path d="M1617427 1659151 L1220178 1659151 "/>
<path d="M1220178 1659151 L1220178 1923984 "/>
<path d="M1220178 1923984 L1617427 1923984 "/>
<path d="M2014676 1142727 L2014676 1275144 "/>
<path d="M2411926 1142727 L2014676 1142727 "/>
<path d="M2411926 1275144 L2411926 1142727 "/>
<path d="M2014676 1275144 L2411926 1275144 "/>
<path d="M1683635 162845 L1286386 162845 "/>
<path d="M1286386 427678 L1683635 427678 "/>
<path d="M1683635 427678 L1683635 162845 "/>
<path d="M1286386 162845 L1286386 427678 "/>
</g>
<g style="fill:#848484; fill-opacity:0.0;  stroke:#848484; stroke-width:19862.469589; stroke-opacity:1;  stroke-linecap:round; stroke-linejoin:round;">
<circle cx="2279509.761283" cy="1844534.807110" r="156383.843901"/> 
</g>
<g style="fill:#848484; fill-opacity:0.0;  stroke:#848484; stroke-width:7819.869917; stroke-opacity:1;  stroke-linecap:round; stroke-linejoin:round;">
<path d="M2014676 1539976 L2411926 1539976 "/>
<path d="M2411926 1539976 L2411926 1407560 "/>
<path d="M2411926 1407560 L2014676 1407560 "/>
<path d="M2014676 1407560 L2014676 1539976 "/>
<path d="M2014676 1407560 L2411926 1407560 "/>
<path d="M2014676 1275144 L2014676 1407560 "/>
<path d="M2411926 1275144 L2014676 1275144 "/>
<path d="M2411926 1407560 L2411926 1275144 "/>
</g>
<g style="fill:#848484; fill-opacity:0.0;  stroke:#848484; stroke-width:19862.469589; stroke-opacity:1;  stroke-linecap:round; stroke-linejoin:round;">
<circle cx="2279509.761283" cy="255537.239958" r="156383.843901"/> 
</g>
<g style="fill:#848484; fill-opacity:0.0;  stroke:#848484; stroke-width:7819.869917; stroke-opacity:1;  stroke-linecap:round; stroke-linejoin:round;">
<path d="M1392319 983827 L1524735 983827 "/>
<path d="M1524735 983827 L1524735 718994 "/>
<path d="M1392319 718994 L1392319 983827 "/>
<path d="M1524735 718994 L1392319 718994 "/>
<path d="M1789568 718994 L1657152 718994 "/>
<path d="M1657152 983827 L1789568 983827 "/>
<path d="M1657152 718994 L1657152 983827 "/>
<path d="M1789568 983827 L1789568 718994 "/>
<path d="M1657152 983827 L1657152 718994 "/>
<path d="M1524735 718994 L1524735 983827 "/>
<path d="M1657152 718994 L1524735 718994 "/>
<path d="M1524735 983827 L1657152 983827 "/>
<g>
</g>
<g>
</g>
<g>
</g>
<g>
</g>
<g>
</g>
<g>
</g>
<g>
</g>
<g>
</g>
<g>
</g>
<g>
</g>
<g>
</g>
<g>
</g>
<g>
</g>
<g>
</g>
<g>
</g>
<g>
</g>
<g>
</g>
<g>
</g>
<g>
</g>
<g>
</g>
<g>
</g>
<g>
</g>
<g>
</g>
</g> 
<svg:g><svg:g><svg:title>SVG Picture created as AMUX01-Edge_Cuts.svg date 2023/07/05 00:22:09 </svg:title>
  <svg:desc>Picture generated by PCBNEW </svg:desc>
<svg:g style="fill:#C2C200; fill-opacity:1.000000;stroke:#C2C200; stroke-opacity:1.000000; stroke-linecap:round; stroke-linejoin:round;" transform="translate(0 0) scale(1 1)">
</svg:g>
<svg:g style="fill:#C2C200; fill-opacity:0.0;  stroke:#C2C200; stroke-width:0.000000; stroke-opacity:1;  stroke-linecap:round; stroke-linejoin:round;">
</svg:g>
<svg:g style="fill:#C2C200; fill-opacity:0.0;  stroke:#C2C200; stroke-width:7819.869917; stroke-opacity:1;  stroke-linecap:round; stroke-linejoin:round;">
<svg:path d="M2531101 3945 L438920 3945 "/>
<svg:path d="M438920 3945 L438920 2096126 "/>
<svg:path d="M438920 2096126 L2531101 2096126 "/>
<svg:path d="M2531101 2096126 L2531101 3945 "/>
<svg:g>
</svg:g>
<svg:g>
</svg:g>
<svg:g>
</svg:g>
<svg:g>
</svg:g>
<svg:g>
</svg:g>
<svg:g>
</svg:g>
<svg:g>
</svg:g>
<svg:g>
</svg:g>
<svg:g>
</svg:g>
<svg:g>
</svg:g>
<svg:g>
</svg:g>
<svg:g>
</svg:g>
<svg:g>
</svg:g>
<svg:g>
</svg:g>
<svg:g>
</svg:g>
<svg:g>
</svg:g>
<svg:g>
</svg:g>
<svg:g>
</svg:g>
<svg:g>
</svg:g>
<svg:g>
</svg:g>
<svg:g>
</svg:g>
<svg:g>
</svg:g>
<svg:g>
</svg:g>
</svg:g> 
</svg:g></svg:g></svg>
