M48
; DRILL file {KiCad 6.0.11+dfsg-1~bpo11+1} date Wed Jul  5 00:21:27 2023
; FORMAT={3:3/ absolute / metric / suppress leading zeros}
; #@! TF.CreationDate,2023-07-05T00:21:27+00:00
; #@! TF.GenerationSoftware,Kicad,Pcbnew,6.0.11+dfsg-1~bpo11+1
; #@! TF.FileFunction,Plated,1,2,PTH
FMAT,2
METRIC,TZ
; #@! TA.AperFunction,Plated,PTH,ComponentDrill
T1C0.889
; #@! TA.AperFunction,Plated,PTH,ComponentDrill
T2C3.000
%
G90
G05
T1
X8890Y24892
X8890Y22352
X8890Y19812
X8890Y17272
X11430Y24892
X11430Y22352
X11430Y19812
X11430Y17272
X13970Y24892
X13970Y22352
X13970Y19812
X13970Y17272
X20828Y30480
X20828Y27940
X22860Y41148
X22860Y38608
X23368Y30480
X23368Y27940
X24130Y12446
X24130Y9906
X25400Y41148
X25400Y38608
X25908Y30480
X25908Y27940
X26670Y12446
X26670Y9906
X27940Y41148
X27940Y38608
X29210Y12446
X29210Y9906
T2
X10160Y40640
X10160Y10160
X40640Y40640
X40640Y10160
T0
M30
