%TF.GenerationSoftware,KiCad,Pcbnew,6.0.11+dfsg-1~bpo11+1*%
%TF.CreationDate,2023-07-05T12:37:50+00:00*%
%TF.ProjectId,AMUX01,414d5558-3031-42e6-9b69-6361645f7063,rev?*%
%TF.SameCoordinates,Original*%
%TF.FileFunction,Legend,Bot*%
%TF.FilePolarity,Positive*%
%FSLAX46Y46*%
G04 Gerber Fmt 4.6, Leading zero omitted, Abs format (unit mm)*
G04 Created by KiCad (PCBNEW 6.0.11+dfsg-1~bpo11+1) date 2023-07-05 12:37:50*
%MOMM*%
%LPD*%
G01*
G04 APERTURE LIST*
%ADD10C,0.150000*%
%ADD11C,0.120000*%
G04 APERTURE END LIST*
D10*
%TO.C,C1*%
X30427142Y18708667D02*
X30474761Y18756286D01*
X30522380Y18899143D01*
X30522380Y18994381D01*
X30474761Y19137239D01*
X30379523Y19232477D01*
X30284285Y19280096D01*
X30093809Y19327715D01*
X29950952Y19327715D01*
X29760476Y19280096D01*
X29665238Y19232477D01*
X29570000Y19137239D01*
X29522380Y18994381D01*
X29522380Y18899143D01*
X29570000Y18756286D01*
X29617619Y18708667D01*
X30522380Y17756286D02*
X30522380Y18327715D01*
X30522380Y18042000D02*
X29522380Y18042000D01*
X29665238Y18137239D01*
X29760476Y18232477D01*
X29808095Y18327715D01*
%TO.C,D1*%
X35798380Y22074096D02*
X34798380Y22074096D01*
X34798380Y21836000D01*
X34846000Y21693143D01*
X34941238Y21597905D01*
X35036476Y21550286D01*
X35226952Y21502667D01*
X35369809Y21502667D01*
X35560285Y21550286D01*
X35655523Y21597905D01*
X35750761Y21693143D01*
X35798380Y21836000D01*
X35798380Y22074096D01*
X35798380Y20550286D02*
X35798380Y21121715D01*
X35798380Y20836000D02*
X34798380Y20836000D01*
X34941238Y20931239D01*
X35036476Y21026477D01*
X35084095Y21121715D01*
%TO.C,U1*%
X23621904Y23467620D02*
X23621904Y22658096D01*
X23574285Y22562858D01*
X23526666Y22515239D01*
X23431428Y22467620D01*
X23240952Y22467620D01*
X23145714Y22515239D01*
X23098095Y22562858D01*
X23050476Y22658096D01*
X23050476Y23467620D01*
X22050476Y22467620D02*
X22621904Y22467620D01*
X22336190Y22467620D02*
X22336190Y23467620D01*
X22431428Y23324762D01*
X22526666Y23229524D01*
X22621904Y23181905D01*
%TO.C,C2*%
X29919142Y28614667D02*
X29966761Y28662286D01*
X30014380Y28805143D01*
X30014380Y28900381D01*
X29966761Y29043239D01*
X29871523Y29138477D01*
X29776285Y29186096D01*
X29585809Y29233715D01*
X29442952Y29233715D01*
X29252476Y29186096D01*
X29157238Y29138477D01*
X29062000Y29043239D01*
X29014380Y28900381D01*
X29014380Y28805143D01*
X29062000Y28662286D01*
X29109619Y28614667D01*
X29109619Y28233715D02*
X29062000Y28186096D01*
X29014380Y28090858D01*
X29014380Y27852762D01*
X29062000Y27757524D01*
X29109619Y27709905D01*
X29204857Y27662286D01*
X29300095Y27662286D01*
X29442952Y27709905D01*
X30014380Y28281334D01*
X30014380Y27662286D01*
%TO.C,R3*%
X20336166Y14659620D02*
X20669500Y15135810D01*
X20907595Y14659620D02*
X20907595Y15659620D01*
X20526642Y15659620D01*
X20431404Y15612000D01*
X20383785Y15564381D01*
X20336166Y15469143D01*
X20336166Y15326286D01*
X20383785Y15231048D01*
X20431404Y15183429D01*
X20526642Y15135810D01*
X20907595Y15135810D01*
X20002833Y15659620D02*
X19383785Y15659620D01*
X19717119Y15278667D01*
X19574261Y15278667D01*
X19479023Y15231048D01*
X19431404Y15183429D01*
X19383785Y15088191D01*
X19383785Y14850096D01*
X19431404Y14754858D01*
X19479023Y14707239D01*
X19574261Y14659620D01*
X19859976Y14659620D01*
X19955214Y14707239D01*
X20002833Y14754858D01*
%TO.C,R1*%
X28110380Y34202667D02*
X27634190Y34536000D01*
X28110380Y34774096D02*
X27110380Y34774096D01*
X27110380Y34393143D01*
X27158000Y34297905D01*
X27205619Y34250286D01*
X27300857Y34202667D01*
X27443714Y34202667D01*
X27538952Y34250286D01*
X27586571Y34297905D01*
X27634190Y34393143D01*
X27634190Y34774096D01*
X28110380Y33250286D02*
X28110380Y33821715D01*
X28110380Y33536000D02*
X27110380Y33536000D01*
X27253238Y33631239D01*
X27348476Y33726477D01*
X27396095Y33821715D01*
%TO.C,R2*%
X31060380Y34202667D02*
X30584190Y34536000D01*
X31060380Y34774096D02*
X30060380Y34774096D01*
X30060380Y34393143D01*
X30108000Y34297905D01*
X30155619Y34250286D01*
X30250857Y34202667D01*
X30393714Y34202667D01*
X30488952Y34250286D01*
X30536571Y34297905D01*
X30584190Y34393143D01*
X30584190Y34774096D01*
X30155619Y33821715D02*
X30108000Y33774096D01*
X30060380Y33678858D01*
X30060380Y33440762D01*
X30108000Y33345524D01*
X30155619Y33297905D01*
X30250857Y33250286D01*
X30346095Y33250286D01*
X30488952Y33297905D01*
X31060380Y33869334D01*
X31060380Y33250286D01*
D11*
%TO.C,C1*%
X32485000Y18803252D02*
X32485000Y18280748D01*
X31015000Y18803252D02*
X31015000Y18280748D01*
%TO.C,D1*%
X36196000Y24736000D02*
X39496000Y24736000D01*
X36196000Y24736000D02*
X36196000Y19336000D01*
X39496000Y24736000D02*
X39496000Y19336000D01*
D10*
%TO.C,U1*%
X24535000Y18645000D02*
X21185000Y18645000D01*
X24535000Y21995000D02*
X24535000Y21770000D01*
X24535000Y21770000D02*
X25760000Y21770000D01*
X21185000Y21995000D02*
X21185000Y21695000D01*
X21185000Y18645000D02*
X21185000Y18945000D01*
X24535000Y21995000D02*
X21185000Y21995000D01*
X24535000Y18645000D02*
X24535000Y18945000D01*
D11*
%TO.C,C2*%
X31977000Y28709252D02*
X31977000Y28186748D01*
X30507000Y28709252D02*
X30507000Y28186748D01*
%TO.C,R3*%
X20396564Y12727000D02*
X19942436Y12727000D01*
X20396564Y14197000D02*
X19942436Y14197000D01*
%TO.C,R1*%
X28573000Y34263064D02*
X28573000Y33808936D01*
X30043000Y34263064D02*
X30043000Y33808936D01*
%TO.C,R2*%
X31523000Y34263064D02*
X31523000Y33808936D01*
X32993000Y34263064D02*
X32993000Y33808936D01*
%TD*%
M02*
