%TF.GenerationSoftware,KiCad,Pcbnew,7.0.5.1-1-g8f565ef7f0-dirty-deb11*%
%TF.CreationDate,2023-07-08T00:42:50+00:00*%
%TF.ProjectId,AMUX01,414d5558-3031-42e6-9b69-6361645f7063,rev?*%
%TF.SameCoordinates,Original*%
%TF.FileFunction,Legend,Bot*%
%TF.FilePolarity,Positive*%
%FSLAX46Y46*%
G04 Gerber Fmt 4.6, Leading zero omitted, Abs format (unit mm)*
G04 Created by KiCad (PCBNEW 7.0.5.1-1-g8f565ef7f0-dirty-deb11) date 2023-07-08 00:42:50*
%MOMM*%
%LPD*%
G01*
G04 APERTURE LIST*
%ADD10C,0.150000*%
%ADD11C,0.120000*%
G04 APERTURE END LIST*
D10*
%TO.C,C1*%
X30429580Y18708667D02*
X30477200Y18756286D01*
X30477200Y18756286D02*
X30524819Y18899143D01*
X30524819Y18899143D02*
X30524819Y18994381D01*
X30524819Y18994381D02*
X30477200Y19137238D01*
X30477200Y19137238D02*
X30381961Y19232476D01*
X30381961Y19232476D02*
X30286723Y19280095D01*
X30286723Y19280095D02*
X30096247Y19327714D01*
X30096247Y19327714D02*
X29953390Y19327714D01*
X29953390Y19327714D02*
X29762914Y19280095D01*
X29762914Y19280095D02*
X29667676Y19232476D01*
X29667676Y19232476D02*
X29572438Y19137238D01*
X29572438Y19137238D02*
X29524819Y18994381D01*
X29524819Y18994381D02*
X29524819Y18899143D01*
X29524819Y18899143D02*
X29572438Y18756286D01*
X29572438Y18756286D02*
X29620057Y18708667D01*
X30524819Y17756286D02*
X30524819Y18327714D01*
X30524819Y18042000D02*
X29524819Y18042000D01*
X29524819Y18042000D02*
X29667676Y18137238D01*
X29667676Y18137238D02*
X29762914Y18232476D01*
X29762914Y18232476D02*
X29810533Y18327714D01*
%TO.C,D1*%
X35800819Y22074095D02*
X34800819Y22074095D01*
X34800819Y22074095D02*
X34800819Y21836000D01*
X34800819Y21836000D02*
X34848438Y21693143D01*
X34848438Y21693143D02*
X34943676Y21597905D01*
X34943676Y21597905D02*
X35038914Y21550286D01*
X35038914Y21550286D02*
X35229390Y21502667D01*
X35229390Y21502667D02*
X35372247Y21502667D01*
X35372247Y21502667D02*
X35562723Y21550286D01*
X35562723Y21550286D02*
X35657961Y21597905D01*
X35657961Y21597905D02*
X35753200Y21693143D01*
X35753200Y21693143D02*
X35800819Y21836000D01*
X35800819Y21836000D02*
X35800819Y22074095D01*
X35800819Y20550286D02*
X35800819Y21121714D01*
X35800819Y20836000D02*
X34800819Y20836000D01*
X34800819Y20836000D02*
X34943676Y20931238D01*
X34943676Y20931238D02*
X35038914Y21026476D01*
X35038914Y21026476D02*
X35086533Y21121714D01*
%TO.C,U1*%
X23621904Y23465181D02*
X23621904Y22655658D01*
X23621904Y22655658D02*
X23574285Y22560420D01*
X23574285Y22560420D02*
X23526666Y22512800D01*
X23526666Y22512800D02*
X23431428Y22465181D01*
X23431428Y22465181D02*
X23240952Y22465181D01*
X23240952Y22465181D02*
X23145714Y22512800D01*
X23145714Y22512800D02*
X23098095Y22560420D01*
X23098095Y22560420D02*
X23050476Y22655658D01*
X23050476Y22655658D02*
X23050476Y23465181D01*
X22050476Y22465181D02*
X22621904Y22465181D01*
X22336190Y22465181D02*
X22336190Y23465181D01*
X22336190Y23465181D02*
X22431428Y23322324D01*
X22431428Y23322324D02*
X22526666Y23227086D01*
X22526666Y23227086D02*
X22621904Y23179467D01*
%TO.C,C2*%
X29921580Y28614667D02*
X29969200Y28662286D01*
X29969200Y28662286D02*
X30016819Y28805143D01*
X30016819Y28805143D02*
X30016819Y28900381D01*
X30016819Y28900381D02*
X29969200Y29043238D01*
X29969200Y29043238D02*
X29873961Y29138476D01*
X29873961Y29138476D02*
X29778723Y29186095D01*
X29778723Y29186095D02*
X29588247Y29233714D01*
X29588247Y29233714D02*
X29445390Y29233714D01*
X29445390Y29233714D02*
X29254914Y29186095D01*
X29254914Y29186095D02*
X29159676Y29138476D01*
X29159676Y29138476D02*
X29064438Y29043238D01*
X29064438Y29043238D02*
X29016819Y28900381D01*
X29016819Y28900381D02*
X29016819Y28805143D01*
X29016819Y28805143D02*
X29064438Y28662286D01*
X29064438Y28662286D02*
X29112057Y28614667D01*
X29112057Y28233714D02*
X29064438Y28186095D01*
X29064438Y28186095D02*
X29016819Y28090857D01*
X29016819Y28090857D02*
X29016819Y27852762D01*
X29016819Y27852762D02*
X29064438Y27757524D01*
X29064438Y27757524D02*
X29112057Y27709905D01*
X29112057Y27709905D02*
X29207295Y27662286D01*
X29207295Y27662286D02*
X29302533Y27662286D01*
X29302533Y27662286D02*
X29445390Y27709905D01*
X29445390Y27709905D02*
X30016819Y28281333D01*
X30016819Y28281333D02*
X30016819Y27662286D01*
%TO.C,R3*%
X20336166Y14657181D02*
X20669499Y15133372D01*
X20907594Y14657181D02*
X20907594Y15657181D01*
X20907594Y15657181D02*
X20526642Y15657181D01*
X20526642Y15657181D02*
X20431404Y15609562D01*
X20431404Y15609562D02*
X20383785Y15561943D01*
X20383785Y15561943D02*
X20336166Y15466705D01*
X20336166Y15466705D02*
X20336166Y15323848D01*
X20336166Y15323848D02*
X20383785Y15228610D01*
X20383785Y15228610D02*
X20431404Y15180991D01*
X20431404Y15180991D02*
X20526642Y15133372D01*
X20526642Y15133372D02*
X20907594Y15133372D01*
X20002832Y15657181D02*
X19383785Y15657181D01*
X19383785Y15657181D02*
X19717118Y15276229D01*
X19717118Y15276229D02*
X19574261Y15276229D01*
X19574261Y15276229D02*
X19479023Y15228610D01*
X19479023Y15228610D02*
X19431404Y15180991D01*
X19431404Y15180991D02*
X19383785Y15085753D01*
X19383785Y15085753D02*
X19383785Y14847658D01*
X19383785Y14847658D02*
X19431404Y14752420D01*
X19431404Y14752420D02*
X19479023Y14704800D01*
X19479023Y14704800D02*
X19574261Y14657181D01*
X19574261Y14657181D02*
X19859975Y14657181D01*
X19859975Y14657181D02*
X19955213Y14704800D01*
X19955213Y14704800D02*
X20002832Y14752420D01*
%TO.C,R1*%
X28112819Y34202667D02*
X27636628Y34536000D01*
X28112819Y34774095D02*
X27112819Y34774095D01*
X27112819Y34774095D02*
X27112819Y34393143D01*
X27112819Y34393143D02*
X27160438Y34297905D01*
X27160438Y34297905D02*
X27208057Y34250286D01*
X27208057Y34250286D02*
X27303295Y34202667D01*
X27303295Y34202667D02*
X27446152Y34202667D01*
X27446152Y34202667D02*
X27541390Y34250286D01*
X27541390Y34250286D02*
X27589009Y34297905D01*
X27589009Y34297905D02*
X27636628Y34393143D01*
X27636628Y34393143D02*
X27636628Y34774095D01*
X28112819Y33250286D02*
X28112819Y33821714D01*
X28112819Y33536000D02*
X27112819Y33536000D01*
X27112819Y33536000D02*
X27255676Y33631238D01*
X27255676Y33631238D02*
X27350914Y33726476D01*
X27350914Y33726476D02*
X27398533Y33821714D01*
%TO.C,R2*%
X31062819Y34202667D02*
X30586628Y34536000D01*
X31062819Y34774095D02*
X30062819Y34774095D01*
X30062819Y34774095D02*
X30062819Y34393143D01*
X30062819Y34393143D02*
X30110438Y34297905D01*
X30110438Y34297905D02*
X30158057Y34250286D01*
X30158057Y34250286D02*
X30253295Y34202667D01*
X30253295Y34202667D02*
X30396152Y34202667D01*
X30396152Y34202667D02*
X30491390Y34250286D01*
X30491390Y34250286D02*
X30539009Y34297905D01*
X30539009Y34297905D02*
X30586628Y34393143D01*
X30586628Y34393143D02*
X30586628Y34774095D01*
X30158057Y33821714D02*
X30110438Y33774095D01*
X30110438Y33774095D02*
X30062819Y33678857D01*
X30062819Y33678857D02*
X30062819Y33440762D01*
X30062819Y33440762D02*
X30110438Y33345524D01*
X30110438Y33345524D02*
X30158057Y33297905D01*
X30158057Y33297905D02*
X30253295Y33250286D01*
X30253295Y33250286D02*
X30348533Y33250286D01*
X30348533Y33250286D02*
X30491390Y33297905D01*
X30491390Y33297905D02*
X31062819Y33869333D01*
X31062819Y33869333D02*
X31062819Y33250286D01*
D11*
%TO.C,C1*%
X32485000Y18803252D02*
X32485000Y18280748D01*
X31015000Y18803252D02*
X31015000Y18280748D01*
%TO.C,D1*%
X36196000Y24736000D02*
X39496000Y24736000D01*
X36196000Y24736000D02*
X36196000Y19336000D01*
X39496000Y24736000D02*
X39496000Y19336000D01*
D10*
%TO.C,U1*%
X24535000Y18645000D02*
X21185000Y18645000D01*
X24535000Y21995000D02*
X24535000Y21770000D01*
X24535000Y21770000D02*
X25760000Y21770000D01*
X21185000Y21995000D02*
X21185000Y21695000D01*
X21185000Y18645000D02*
X21185000Y18945000D01*
X24535000Y21995000D02*
X21185000Y21995000D01*
X24535000Y18645000D02*
X24535000Y18945000D01*
D11*
%TO.C,C2*%
X31977000Y28709252D02*
X31977000Y28186748D01*
X30507000Y28709252D02*
X30507000Y28186748D01*
%TO.C,R3*%
X20396564Y12727000D02*
X19942436Y12727000D01*
X20396564Y14197000D02*
X19942436Y14197000D01*
%TO.C,R1*%
X28573000Y34263064D02*
X28573000Y33808936D01*
X30043000Y34263064D02*
X30043000Y33808936D01*
%TO.C,R2*%
X31523000Y34263064D02*
X31523000Y33808936D01*
X32993000Y34263064D02*
X32993000Y33808936D01*
%TD*%
M02*
